<svg id="Calque_1" data-name="Calque 1" xmlns="http://www.w3.org/2000/svg" viewBox="0 0 45.18 45.18"><defs><style>.cls-1{fill:indigo;}</style></defs><title>circle-icon</title><path class="cls-1" d="M30.76,32.11c0,2.83-2.73,2.73-4.09,2.73s-2-.41-4.08-.41-2.72.41-4.08.41-4.09,0-4.09-2.73c0-1.36,1.36-2.74,2.73-5.44s2.57-5.44,5.44-5.44S26.67,24,28,26.67,30.76,30.65,30.76,32.11ZM14.33,26.49c-1.54.67-3.66-.54-4.74-2.69s-.7-4.44.84-5.11,3.66.54,4.74,2.69S15.87,25.82,14.33,26.49Zm16.52,0c-1.54-.67-1.92-3-.84-5.11s3.2-3.36,4.74-2.69,1.91,3,.84,5.11S32.39,27.16,30.85,26.49ZM19,19.84c-1.81.3-3.68-1.57-4.16-4.18s.6-5,2.41-5.29,3.68,1.57,4.17,4.18S20.79,19.53,19,19.84Zm7.24,0c-1.82-.31-2.9-2.68-2.42-5.29s2.35-4.48,4.17-4.18,2.89,2.67,2.41,5.29S28,20.14,26.21,19.84Z"/><path class="cls-1" d="M22.59,45.18A22.59,22.59,0,1,1,45.18,22.59,22.61,22.61,0,0,1,22.59,45.18ZM22.59,1A21.59,21.59,0,1,0,44.18,22.59,21.62,21.62,0,0,0,22.59,1Z"/></svg>