<svg id="Calque_1" data-name="Calque 1" xmlns="http://www.w3.org/2000/svg" viewBox="0 0 45.18 45.18"><defs><style>.cls-1{fill:indigo;}</style></defs><title>circle-icon</title><path class="cls-1" d="M37.15,17.56,27.28,19a1.27,1.27,0,0,0-1.09,1.28v9.25a3.73,3.73,0,0,0-1.86-.11,3,3,0,0,0-2.64,3.28,3,3,0,0,0,3.68,2A3.09,3.09,0,0,0,28.05,32V22.71l8.72-1.31v6.3a3.72,3.72,0,0,0-1.86-.11,3,3,0,0,0-2.64,3.28,3,3,0,0,0,3.68,2,3.09,3.09,0,0,0,2.68-2.81V18.83A1.28,1.28,0,0,0,37.15,17.56Z"/><path class="cls-1" d="M23.89,26.65a7,7,0,0,0-.36-.9A25.14,25.14,0,0,0,22,23.08a21.42,21.42,0,0,0-2.13-2.88.32.32,0,0,0-.23-.09.35.35,0,0,0-.21.12.28.28,0,0,1-.09.1l-.09.06-.16,0a.3.3,0,0,0-.21.14.29.29,0,0,0,0,.24A22,22,0,0,0,20.6,24a27.68,27.68,0,0,0,1.79,2.5,6.41,6.41,0,0,0,.68.7c.11.1.42.36.69.19S23.93,26.81,23.89,26.65Z"/><path class="cls-1" d="M19.13,18.52a2.72,2.72,0,0,0-.47-1.07A4.3,4.3,0,0,0,17,16.11c-.11-.05-.46-.22-.52-.18a3.47,3.47,0,0,0,.11.56c.14.87-.28,2,.32,2.71a1.69,1.69,0,0,0,.75.54,1.14,1.14,0,0,0,.94,0l.09,0,.06,0A1.09,1.09,0,0,0,19.13,18.52Z"/><path class="cls-1" d="M15.67,20.28a3.14,3.14,0,0,1-.1-1.58,5.4,5.4,0,0,1,0-1.27,3.14,3.14,0,0,0,0-.75v0c-.12-.54-.28-1.2.39-1.62a1.18,1.18,0,0,1,.55-.17,1.79,1.79,0,0,1,1,.32,6.17,6.17,0,0,1,1.06.68c1-.28,3.77-1.13,3.24-2.75-.82-2.51-5.4-2.85-7.51-2.76a7.89,7.89,0,0,0-7.74,8A7.88,7.88,0,0,0,15,25.63c.94,0,2.47-.13,2.74-1.26.35-1.43-1.6-2.82-2-4A.24.24,0,0,1,15.67,20.28Zm1.14-9A1.6,1.6,0,1,1,15.29,13h0A1.6,1.6,0,0,1,16.81,11.33Zm-5,1.41a1.3,1.3,0,1,1-1.24,1.36h0A1.31,1.31,0,0,1,11.82,12.74Zm-2.1,2.87A1.31,1.31,0,1,1,8.48,17h0a1.31,1.31,0,0,1,1.24-1.36ZM10,21.77a1.3,1.3,0,1,1,1.24-1.36h0A1.3,1.3,0,0,1,10,21.77ZM12.71,24A1.31,1.31,0,1,1,14,22.6h0A1.31,1.31,0,0,1,12.71,24Z"/><path class="cls-1" d="M22.59,45.18A22.59,22.59,0,1,1,45.18,22.59,22.61,22.61,0,0,1,22.59,45.18ZM22.59,1A21.59,21.59,0,1,0,44.18,22.59,21.62,21.62,0,0,0,22.59,1Z"/></svg>