<svg id="Calque_1" data-name="Calque 1" xmlns="http://www.w3.org/2000/svg" viewBox="0 0 45.18 45.18"><defs><style>.cls-1{fill:indigo;}</style></defs><title>circle-icon</title><rect class="cls-1" x="23.24" y="24" width="4.24" height="10.84"/><rect class="cls-1" x="14.27" y="24" width="2.12" height="10.84"/><path class="cls-1" d="M31.48,10.35H13.7a4.63,4.63,0,0,0-.28,9.23c.89,0,2.87-.24,3-2.27a2.3,2.3,0,0,0-2.22-2.39l0-1.31a3.57,3.57,0,0,1,2.51,1.16,3.61,3.61,0,0,1-2.44,6.06v1.86H30.91V20.85a4.42,4.42,0,0,1-2.06-.73,3.36,3.36,0,0,1-1.47-2.75,3.62,3.62,0,0,1,3.47-3.75l0,1.31a2.29,2.29,0,0,0-2.21,2.39,2.08,2.08,0,0,0,.9,1.73,3.66,3.66,0,0,0,2,.54,4.62,4.62,0,0,0-.11-9.24Z"/><rect class="cls-1" x="28.79" y="24" width="2.12" height="10.84"/><rect class="cls-1" x="17.7" y="24" width="4.24" height="10.84"/><path class="cls-1" d="M22.59,45.18A22.59,22.59,0,1,1,45.18,22.59,22.61,22.61,0,0,1,22.59,45.18ZM22.59,1A21.59,21.59,0,1,0,44.18,22.59,21.62,21.62,0,0,0,22.59,1Z"/></svg>