<svg id="Calque_1" data-name="Calque 1" xmlns="http://www.w3.org/2000/svg" viewBox="0 0 45.18 45.18"><defs><style>.cls-1{fill:indigo;}</style></defs><title>circle-icon</title><path class="cls-1" d="M34.62,10.85a.55.55,0,0,0-.58-.51c-5.09.3-10.49,4-13.14,8.89a16.49,16.49,0,0,0-9.76-4.49.53.53,0,0,0-.58.51c-.58,7,.7,12.66,3.6,16a9.74,9.74,0,0,0,7,3.42h0a17.26,17.26,0,0,0,2.24.11C21.86,29,15.77,21.61,13.15,19.08a.55.55,0,1,1,.76-.79c2.69,2.6,8.94,10.17,10.54,16.24h0c.32,0,1.64-3.18,1.66-3.48a11.47,11.47,0,0,0,0-1.31C32.32,28.18,35.48,21.16,34.62,10.85ZM24.06,23.05a54.22,54.22,0,0,1,7.24-9.21.55.55,0,0,1,.78,0,.54.54,0,0,1,0,.77,52.07,52.07,0,0,0-7.39,9.53C24.49,23.79,24.28,23.42,24.06,23.05Z"/><path class="cls-1" d="M22.59,45.18A22.59,22.59,0,1,1,45.18,22.59,22.61,22.61,0,0,1,22.59,45.18ZM22.59,1A21.59,21.59,0,1,0,44.18,22.59,21.62,21.62,0,0,0,22.59,1Z"/></svg>