<svg id="Calque_1" data-name="Calque 1" xmlns="http://www.w3.org/2000/svg" viewBox="0 0 45.18 45.18"><defs><style>.cls-1{fill:indigo;}</style></defs><title>circle-icon</title><path class="cls-1" d="M31.05,27.39a1.42,1.42,0,1,0,1.42,1.42A1.43,1.43,0,0,0,31.05,27.39Z"/><path class="cls-1" d="M32.5,30.77H29.58a1.31,1.31,0,0,0-1.26,1.32v1.22h5.43V32.09a1.26,1.26,0,0,0-1.2-1.31Z"/><path class="cls-1" d="M22.77,10.34a1.42,1.42,0,0,0-1.42,1.41h0a1.42,1.42,0,1,0,1.42-1.41Z"/><path class="cls-1" d="M24.22,13.72H21.3A1.31,1.31,0,0,0,20,15v1.22h5.44V15a1.25,1.25,0,0,0-1.2-1.31Z"/><path class="cls-1" d="M14.35,27.37a1.44,1.44,0,1,0,1.45,1.44,1.44,1.44,0,0,0-1.45-1.44Z"/><path class="cls-1" d="M15.82,30.77H12.88a1.31,1.31,0,0,0-1.26,1.32v1.26H17.1V32.09A1.32,1.32,0,0,0,15.82,30.77Z"/><path class="cls-1" d="M32.89,23.55a10.44,10.44,0,0,1-.45,3.24l.81.77a10.87,10.87,0,0,0,.66-4,11.18,11.18,0,0,0-7.29-10.3v1.09A10.27,10.27,0,0,1,32.89,23.55Z"/><path class="cls-1" d="M12.29,23.55a10.44,10.44,0,0,0,.45,3.24l-.81.77a10.87,10.87,0,0,1-.66-4,11.21,11.21,0,0,1,7.28-10.3v1.09A10.28,10.28,0,0,0,12.29,23.55Z"/><path class="cls-1" d="M26.62,33a10.08,10.08,0,0,1-4,.81,10.22,10.22,0,0,1-3.71-.7l-.77.77a11.19,11.19,0,0,0,4.46,1,10.67,10.67,0,0,0,4.75-1Z"/><path class="cls-1" d="M27.3,18.75H18.21a.84.84,0,0,0-.84.83v1.91H28.14V19.6A.85.85,0,0,0,27.3,18.75Zm-7.49,1.89a.52.52,0,0,1,0-1,.5.5,0,0,1,.52.51h0A.52.52,0,0,1,19.81,20.64Zm5.9,0a.52.52,0,0,1,0-1h0a.51.51,0,0,1,.52.51h0a.53.53,0,0,1-.53.52Z"/><path class="cls-1" d="M17.37,22v5.4a.85.85,0,0,0,.83.85h9.12a.85.85,0,0,0,.85-.85h0V22Zm4.87,4.41-1.52-1.52.58-.57.94.95,1.94-1.95.58.57Z"/><path class="cls-1" d="M22.59,45.18A22.59,22.59,0,1,1,45.18,22.59,22.61,22.61,0,0,1,22.59,45.18ZM22.59,1A21.59,21.59,0,1,0,44.18,22.59,21.62,21.62,0,0,0,22.59,1Z"/></svg>