<svg id="Calque_1" data-name="Calque 1" xmlns="http://www.w3.org/2000/svg" viewBox="0 0 45.18 45.18"><defs><style>.cls-1{fill:indigo;}</style></defs><title>circle-icon</title><path class="cls-1" d="M31.9,28.15V24.29l-7.45,2.87a5.74,5.74,0,0,1-3.72,0l-7.45-2.87v3.86s2.38,3.46,9.31,3.46S31.9,28.15,31.9,28.15Z"/><path class="cls-1" d="M39.12,19.38,24,13.54a4.55,4.55,0,0,0-2.78,0L6.06,19.38c-.76.29-.76.78,0,1.07L21.2,26.29a4.55,4.55,0,0,0,2.78,0l10.78-4.16v3.52a1.83,1.83,0,0,0-1,1.76c0,1.94.16,3.13-.87,4.05a1.45,1.45,0,0,0,1.29.38L34.76,30A8.21,8.21,0,0,1,35,31.86s1.36,0,1.68-.45c0,0,.92-4.37-.49-5.63V21.57l2.9-1.12C39.88,20.16,39.88,19.67,39.12,19.38Z"/><path class="cls-1" d="M22.59,45.18A22.59,22.59,0,1,1,45.18,22.59,22.61,22.61,0,0,1,22.59,45.18ZM22.59,1A21.59,21.59,0,1,0,44.18,22.59,21.62,21.62,0,0,0,22.59,1Z"/></svg>