<svg id="Calque_1" data-name="Calque 1" xmlns="http://www.w3.org/2000/svg" viewBox="0 0 45.18 45.18"><defs><style>.cls-1{fill:indigo;}</style></defs><title>circle-icon</title><path class="cls-1" d="M13.13,28.31a9.34,9.34,0,0,0-1.88.73,6.7,6.7,0,0,0-1.28.87,7.66,7.66,0,0,0,2.45,1.37,10.8,10.8,0,0,0,3.6.58,10.67,10.67,0,0,0,3.6-.58,8.34,8.34,0,0,0,1.66-.78,11.35,11.35,0,0,1-3.08-.18,15.08,15.08,0,0,1-4.69-1.78Zm18.53.23A15,15,0,0,1,27,30.32a11.37,11.37,0,0,1-3.08.18,8.51,8.51,0,0,0,1.65.78,11.49,11.49,0,0,0,7.21,0,7.66,7.66,0,0,0,2.45-1.37A6.5,6.5,0,0,0,33.92,29a9.24,9.24,0,0,0-1.87-.73Zm-1.89-4.36a15.07,15.07,0,0,1-3.18,3.9A11.52,11.52,0,0,1,24,29.79a10.77,10.77,0,0,0,2.9-.16,13.87,13.87,0,0,0,4.46-1.71,14.13,14.13,0,0,0,3.72-3A9.9,9.9,0,0,0,37,21.61a9.27,9.27,0,0,0-2.9-.11,12.72,12.72,0,0,0-3.38.86A16.22,16.22,0,0,1,29.77,24.18Zm-3.83-2.82a14.83,14.83,0,0,1-.8,5,10.83,10.83,0,0,1-1.44,2.8,10.24,10.24,0,0,0,2.44-1.58,14.11,14.11,0,0,0,3-3.71,15.18,15.18,0,0,0,1.72-4.57,9.14,9.14,0,0,0,0-3.72,9.17,9.17,0,0,0-2.55,1.34,12.64,12.64,0,0,0-2.51,2.44A16.47,16.47,0,0,1,25.94,21.36Zm-6,0a14.06,14.06,0,0,0,.76,4.73,9.73,9.73,0,0,0,1.89,3.31,10.07,10.07,0,0,0,1.89-3.31,14.31,14.31,0,0,0,.76-4.73,14.25,14.25,0,0,0-.76-4.72,10,10,0,0,0-1.89-3.32,9.69,9.69,0,0,0-1.89,3.32A14,14,0,0,0,19.94,21.36Zm-5.64-2.1A14.88,14.88,0,0,0,16,23.81v0a14.11,14.11,0,0,0,3,3.71,10.41,10.41,0,0,0,2.43,1.58A11.15,11.15,0,0,1,20,26.32a15.09,15.09,0,0,1-.8-5,18.66,18.66,0,0,1,.12-2,12.37,12.37,0,0,0-2.51-2.44,8.9,8.9,0,0,0-2.55-1.34A9.14,9.14,0,0,0,14.3,19.26Zm-4.15,5.65a14.23,14.23,0,0,0,3.71,3,14,14,0,0,0,4.47,1.71,10.77,10.77,0,0,0,2.9.16,11.77,11.77,0,0,1-2.65-1.71,15.13,15.13,0,0,1-3.17-3.89v0a15.86,15.86,0,0,1-.89-1.8,12.81,12.81,0,0,0-3.38-.86,9.55,9.55,0,0,0-2.9.11A9.9,9.9,0,0,0,10.15,24.91Z"/><path class="cls-1" d="M22.59,45.18A22.59,22.59,0,1,1,45.18,22.59,22.61,22.61,0,0,1,22.59,45.18ZM22.59,1A21.59,21.59,0,1,0,44.18,22.59,21.62,21.62,0,0,0,22.59,1Z"/></svg>