<svg id="Calque_1" data-name="Calque 1" xmlns="http://www.w3.org/2000/svg" viewBox="0 0 45.18 45.18"><defs><style>.cls-1{fill:indigo;}</style></defs><title>circle-icon</title><path class="cls-1" d="M22.59,45.18A22.59,22.59,0,1,1,45.18,22.59,22.61,22.61,0,0,1,22.59,45.18ZM22.59,1A21.59,21.59,0,1,0,44.18,22.59,21.62,21.62,0,0,0,22.59,1Z"/><path class="cls-1" d="M31.19,26A9.17,9.17,0,1,0,15.6,18.44L25.78,28.61A9.13,9.13,0,0,0,31.19,26Z"/><path class="cls-1" d="M24.61,28.68l-9.07-9.07A9.21,9.21,0,0,0,17,24.53l-5.32,4.39a1,1,0,0,0-.4.77,1,1,0,0,0,.31.82l2.09,2.08a1,1,0,0,0,.81.31,1.06,1.06,0,0,0,.77-.39l4.39-5.33A9.17,9.17,0,0,0,24.61,28.68Z"/><circle class="cls-1" cx="21.62" cy="33.09" r="1.75"/></svg>