<svg id="Calque_1" data-name="Calque 1" xmlns="http://www.w3.org/2000/svg" viewBox="0 0 45.18 45.18"><defs><style>.cls-1{fill:indigo;}</style></defs><title>circle-icon</title><path class="cls-1" d="M22.59,45.18A22.59,22.59,0,1,1,45.18,22.59,22.61,22.61,0,0,1,22.59,45.18ZM22.59,1A21.59,21.59,0,1,0,44.18,22.59,21.62,21.62,0,0,0,22.59,1Z"/><path class="cls-1" d="M23.46,28.33a1.73,1.73,0,0,1-1.31.44A2.18,2.18,0,0,1,23.89,27,1.67,1.67,0,0,1,23.46,28.33Zm1.24,3a2.17,2.17,0,0,0,1.74-1.75,1.69,1.69,0,0,0-1.31.44A1.67,1.67,0,0,0,24.7,31.32Zm-2.59-2a2.19,2.19,0,0,0,2,2A2.1,2.1,0,0,1,26.47,29a2.19,2.19,0,0,0-2-2,2.23,2.23,0,0,1-.6,1.73,2.17,2.17,0,0,1-1.57.6ZM10.59,32.83l6.7-6.7A9.46,9.46,0,0,0,20,20h0A9.86,9.86,0,0,1,23,13.4a10.34,10.34,0,0,1,5.47-3,5.48,5.48,0,0,1,4.91,1.33c2.41,2.41,1.68,7.07-1.63,10.38a10.29,10.29,0,0,1-5.47,3,9,9,0,0,1-1.12.1,9.38,9.38,0,0,0-6,2.55L12.36,34.6a.82.82,0,0,1-1.16,0L10.59,34A.82.82,0,0,1,10.59,32.83ZM20.68,20h0c0,.08,0,.15,0,.22l.38-.38-.36-.36C20.7,19.66,20.69,19.84,20.68,20Zm5.89-2.9-.5-.49-1.18,1.18.5.49Zm-1,1.38.49.49,1.18-1.18-.49-.49Zm.3-2.07-.49-.49L24.21,17.1l.49.5Zm.69-2.06-.5-.49L24.89,15l.5.49Zm-1,1.38.49.49L27.25,15l-.49-.49Zm.69.68.49.5,1.18-1.18-.49-.5Zm.68.69.5.5,1.18-1.19-.5-.49Zm1.87-.88L30,15l-.49-.49-1.18,1.18Zm-1.18,1.57.49.49,1.18-1.18-.49-.49Zm.69.69.49.49L30,17.79l-.49-.49Zm.68.68.5.5,1.18-1.18-.5-.5Zm-.68,2.07.49.49L30,20.54l-.49-.5Zm1-1.38-.49-.49-1.18,1.18.49.49Zm-.68-.69-.5-.49L27,19.85l.5.49Zm-.69-.68-.49-.5-1.18,1.18.49.5Zm-1.87.88-1.18,1.18.5.49,1.18-1.18Zm-.19-.2-.49-.49-1.18,1.18.49.49Zm-.69-.68L24.7,18l-1.18,1.18.49.5Zm-.68-.69-.5-.5-1.18,1.19.5.49Zm-.69-.69-.49-.49-1.18,1.18.49.49Zm.19-.19,1.18-1.18-.49-.5-1.18,1.18Zm1.87-3.25-.49-.49-1.18,1.18.49.5Zm.19-.19,1.18-1.18-.49-.49L25.58,13Zm.2.2.49.49L27.94,13l-.49-.5Zm.68.68.5.5,1.18-1.18-.5-.5Zm.69.69.49.49,1.18-1.18-.49-.49Zm1.87-.88L30.69,13l-.5-.5L29,13.67Zm.19.19.49.5,1.18-1.18-.49-.5ZM29,16.41l.5.5,1.18-1.18-.5-.5Zm.69.69.49.5,1.18-1.19-.49-.49Zm.69.69.49.49,1.18-1.18-.49-.49Zm1.86-.88,1.18-1.18-.49-.5-1.18,1.18Zm.2.19.49.5,1.11-1.11s0-.09,0-.13l-.43-.44Zm-.2.2-1.18,1.18.5.49,1.18-1.18Zm-1.37,1.37L29.7,19.85l.49.49,1.18-1.18ZM29,21.91l.5.5,1.18-1.18-.5-.5Zm-.19.2-1.18,1.18.49.49,1.18-1.18Zm-.19-.2-.5-.49L27,22.6l.5.49Zm-.69-.68-.49-.5-1.18,1.18.49.5Zm-.69-.69-.49-.5-1.18,1.18.49.5Zm-1.86.88L24.21,22.6l.49.49,1.18-1.18Zm-.2-.19-.49-.5-1.18,1.18.49.5Zm-.68-.69L24,20l-1.18,1.19.5.49Zm-.69-.69-.49-.49-1.18,1.18.49.49Zm-.69-.69-.49-.49-1.18,1.18.49.49Zm-.68-.68L22,18l-1.18,1.18.5.5Zm-.69-.69-.49-.5,0,0a7.54,7.54,0,0,0-.42,1.41Zm-.3-.69.49.49,1.18-1.18-.49-.49Zm1-1.37-.23-.23a9.5,9.5,0,0,0-.64,1.1Zm.88.49L24.51,15l-.5-.49-1.18,1.18ZM24,14.16,25.19,13l-.25-.26a10.86,10.86,0,0,0-1.29,1.08Zm1.38-1.38.84-.84a9.45,9.45,0,0,0-1.06.62Zm2.06-.68.9-.91a8.86,8.86,0,0,0-1.39.42Zm1.36-1-1.17,1.17.49.49,1.18-1.18-.49-.49ZM28.33,13l.49.49L30,12.29l-.49-.49Zm1.86-.88.87-.87a5.67,5.67,0,0,0-.84-.15l-.52.52Zm.2.19.49.49L32,11.62a3.79,3.79,0,0,0-.68-.3Zm.68.69.5.49,1.26-1.26a3.32,3.32,0,0,0-.55-.44ZM30.39,15l.49.49,1.18-1.18-.49-.49Zm.68.69.5.49L32.75,15l-.5-.49Zm1.87-.88.94-.95a3.48,3.48,0,0,0-.29-.69l-1.14,1.14Zm.19.19.5.49.48-.48A5.8,5.8,0,0,0,34,14.2Zm1,.38-.3.31.28.28A3.88,3.88,0,0,0,34.12,15.42Zm-1,2.37.44.43A10.13,10.13,0,0,0,34,17Zm.3.69-.49-.5-1.18,1.18.49.5Zm-1,1.37.16.17a8.31,8.31,0,0,0,.51-.85Zm-.88-.49-1.18,1.18.49.49,1.18-1.18ZM29.7,22.6l.21.21a11.63,11.63,0,0,0,1.28-1.08l-.31-.31Zm-.19.19-.72.72c.3-.16.6-.35.89-.54Zm-2.06.69-.86.86a8.89,8.89,0,0,0,1.3-.41Zm-1.34.95,1.14-1.14-.49-.5L25.58,24l.46.47Zm.46-1.83-.5-.49-1.18,1.18.5.49Zm-1.87.88-.87.87a4.57,4.57,0,0,0,.85.14l.51-.52Zm-.19-.19-.5-.5L22.84,24a3.59,3.59,0,0,0,.69.3Zm-1.92.54,1.23-1.23-.49-.49L22,23.4A4,4,0,0,0,22.59,23.83Zm-.82-.41-.12.12.12-.12Zm.07-.21,1.29-1.3-.49-.49L21.4,22.66A3.79,3.79,0,0,0,21.84,23.21Zm-.58-.79,1.19-1.19-.5-.5-1,1A4.28,4.28,0,0,0,21.26,22.42Zm-.4-1,.9-.9-.49-.5-.56.56A5.67,5.67,0,0,0,20.86,21.44Zm1.52-6.17.26.26,1.18-1.18L23.46,14A11.63,11.63,0,0,0,22.38,15.27Zm6.79-4.19.34.33.35-.35A5.4,5.4,0,0,0,29.17,11.08ZM33,12.4l-1.26,1.26.49.5,1.2-1.2A4.63,4.63,0,0,0,33,12.4Zm-.56,7.85L32.25,20l-1.18,1.19.31.31A12.73,12.73,0,0,0,32.46,20.25Zm-6.77,4.23-.3-.31-.34.33A4.56,4.56,0,0,0,25.69,24.48ZM18.75,27.2a11.65,11.65,0,0,1,4.35-2.33,4.74,4.74,0,0,1-1.7-1.08h0a4.69,4.69,0,0,1-1.08-1.72A11.31,11.31,0,0,1,18,26.44Z"/></svg>