<svg id="Calque_1" data-name="Calque 1" xmlns="http://www.w3.org/2000/svg" viewBox="0 0 45.18 45.18"><defs><style>.cls-1{fill:indigo;}</style></defs><title>circle-icon</title><path class="cls-1" d="M22.59,45.18A22.59,22.59,0,1,1,45.18,22.59,22.61,22.61,0,0,1,22.59,45.18ZM22.59,1A21.59,21.59,0,1,0,44.18,22.59,21.62,21.62,0,0,0,22.59,1Z"/><path class="cls-1" d="M32.54,24.12H26.42L24.12,33a1.54,1.54,0,0,0,1.53,1.84h7.66A1.58,1.58,0,0,0,34.84,33Z"/><path class="cls-1" d="M11.87,34.84h7.66A1.58,1.58,0,0,0,21.06,33l-2.3-8.88H12.64L10.34,33A1.58,1.58,0,0,0,11.87,34.84Z"/><path class="cls-1" d="M15.7,10.34a1.54,1.54,0,0,0-1.53,1.53v3.06h6.12V11.87a1.54,1.54,0,0,0-1.53-1.53Z"/><path class="cls-1" d="M31,11.87a1.54,1.54,0,0,0-1.53-1.53H26.42a1.54,1.54,0,0,0-1.53,1.53v3.06H31Z"/><path class="cls-1" d="M32.54,22.59V18A1.53,1.53,0,0,0,31,16.47H14.17A1.53,1.53,0,0,0,12.64,18v4.59h7.65l1.38,1.84a1.15,1.15,0,0,0,1.84,0l1.38-1.84Z"/></svg>