<svg id="Calque_1" data-name="Calque 1" xmlns="http://www.w3.org/2000/svg" viewBox="0 0 45.18 45.18"><defs><style>.cls-1{fill:indigo;}</style></defs><title>circle-icon</title><path class="cls-1" d="M21.49,34.41a13.68,13.68,0,0,0,2.82-4.85,12.76,12.76,0,0,0,.48-2,22.37,22.37,0,0,1,1.87,6.22,1.28,1.28,0,0,0,1.27,1.09.71.71,0,0,0,.2,0,1.27,1.27,0,0,0,1.07-1.46,23.39,23.39,0,0,0-3-8.56.85.85,0,0,1-.3-.15,7.36,7.36,0,0,1-2.42-2.74,5.93,5.93,0,0,1-.62-2.65,6.23,6.23,0,0,1,.47-2.37h0a1,1,0,0,1,.93-.59,1,1,0,0,1,.44.1,1,1,0,0,1,.49,1.36.34.34,0,0,0,0,.08,2,2,0,0,0-.1.3A4.28,4.28,0,0,0,25,19.24a4.08,4.08,0,0,0,.4,1.75l0,0c.13-1.07.36-2.11.53-3,.29-1-.1-2.24-1-2.46a2,2,0,0,0-1.25.12l0-.05s-2.45-5.19-5.91-1.91a1.83,1.83,0,0,0,.32,3.16c.48,0-3.29,1.31-1.78,4.94s4.57,3.17,5,2.28c.07-.16.2-.55.36-1.08h0a2.36,2.36,0,0,0,.59,1.24,8.1,8.1,0,0,1,.1,1.3,10.13,10.13,0,0,1-.51,3.13,11,11,0,0,1-2.29,3.94,1.28,1.28,0,0,0,1,2.14A1.26,1.26,0,0,0,21.49,34.41ZM19.34,15.67a.86.86,0,1,1,.86.86A.86.86,0,0,1,19.34,15.67Zm-1-.42a1.48,1.48,0,0,1,2.84-.61l-.13.14a1.26,1.26,0,0,0-2.28.72,1.29,1.29,0,0,0,.54,1l-.07.07A1.48,1.48,0,0,1,18.38,15.25Z"/><circle class="cls-1" cx="25.31" cy="12.65" r="2.31"/><path class="cls-1" d="M24.74,19.24a4.41,4.41,0,0,1,.16-1.18,2.48,2.48,0,0,1,.11-.33.24.24,0,0,1,0-.07h0a.82.82,0,1,0-1.49-.7h0a5.69,5.69,0,0,0-.45,2.29,5.76,5.76,0,0,0,.59,2.56,7.22,7.22,0,0,0,2.36,2.67.82.82,0,0,0,.47.15A.82.82,0,0,0,27,23.13a5.51,5.51,0,0,1-1.83-2.05A4.19,4.19,0,0,1,24.74,19.24Z"/><path class="cls-1" d="M22.59,45.18A22.59,22.59,0,1,1,45.18,22.59,22.61,22.61,0,0,1,22.59,45.18ZM22.59,1A21.59,21.59,0,1,0,44.18,22.59,21.62,21.62,0,0,0,22.59,1Z"/></svg>