<svg id="Calque_1" data-name="Calque 1" xmlns="http://www.w3.org/2000/svg" viewBox="0 0 45.18 45.18"><defs><style>.cls-1{fill:indigo;}</style></defs><title>circle-icon</title><path class="cls-1" d="M22.59,45.18A22.59,22.59,0,1,1,45.18,22.59,22.61,22.61,0,0,1,22.59,45.18ZM22.59,1A21.59,21.59,0,1,0,44.18,22.59,21.62,21.62,0,0,0,22.59,1Z"/><ellipse class="cls-1" cx="31.14" cy="28.09" rx="1.72" ry="1.96"/><path class="cls-1" d="M31.14,30.45a3.54,3.54,0,0,0-3.7,3.36c0,1.37,7.4,1.37,7.4,0A3.55,3.55,0,0,0,31.14,30.45Z"/><ellipse class="cls-1" cx="22.59" cy="28.09" rx="1.72" ry="1.96"/><path class="cls-1" d="M18.89,33.81c0,1.37,7.4,1.37,7.4,0a3.55,3.55,0,0,0-3.7-3.36A3.55,3.55,0,0,0,18.89,33.81Z"/><ellipse class="cls-1" cx="14.04" cy="28.09" rx="1.72" ry="1.96"/><path class="cls-1" d="M10.34,33.81c0,1.37,7.4,1.37,7.4,0A3.54,3.54,0,0,0,14,30.45,3.55,3.55,0,0,0,10.34,33.81Z"/><path class="cls-1" d="M34.57,10.34H20.7a.27.27,0,0,0-.27.27v8.91a10.22,10.22,0,0,1,1.09.09V11.43H33.75V22.86H21.52V22l.43-.07a.52.52,0,0,0,.44-.48L26,18.8a.41.41,0,1,0-.48-.66l-3.68,2.64a13.21,13.21,0,0,0-2.51-.2,9.33,9.33,0,0,0-1.5-3.23,4.56,4.56,0,0,0-2.34-.94,7.07,7.07,0,0,0-1.72,0,4.53,4.53,0,0,0-2.34.94c-1.09,1.11-1.14,4.38-1.12,6.6h1.35c.21-1.48.41-2,.56-3.61l.19,1.83c0,.13,0,.27,0,.4l0,1.38H16.9l0-1.38a2.67,2.67,0,0,1,0-.4l.2-1.83a5.38,5.38,0,0,0,1.77,1.72,5,5,0,0,0,1.59,0v1.6a.27.27,0,0,0,.27.27H34.57a.27.27,0,0,0,.27-.27V10.61A.27.27,0,0,0,34.57,10.34Z"/><ellipse class="cls-1" cx="14.66" cy="13.57" rx="1.8" ry="1.96"/></svg>