<?xml version="1.0" encoding="utf-8"?>
<!-- Generator: Adobe Illustrator 24.2.0, SVG Export Plug-In . SVG Version: 6.00 Build 0)  -->
<svg version="1.1" id="Calque_1" xmlns="http://www.w3.org/2000/svg" xmlns:xlink="http://www.w3.org/1999/xlink" x="0px" y="0px"
	 viewBox="0 0 28.4 36.6" style="enable-background:new 0 0 28.4 36.6;" xml:space="preserve">
<style type="text/css">
	.st0{fill:#4B0082;}
</style>
<path class="st0" d="M28,3.7h-1.8V0.5c0-0.3-0.2-0.5-0.4-0.5c0,0,0,0,0,0h-4.2C21.3,0,21,0.2,21,0.4c0,0,0,0,0,0v3.2h-2.8V0.5
	c0-0.3-0.2-0.5-0.4-0.5c0,0,0,0,0,0h-4.2c-0.2,0-0.5,0.2-0.5,0.4c0,0,0,0,0,0v3.2H0.4C0.2,3.7,0,3.9,0,4.1v3.1
	c0,0.3,0.2,0.5,0.4,0.5h0.6v28.5c0,0.3,0.2,0.5,0.5,0.5h3.9V25.2h4.1v11.4h17.4c0.3,0,0.5-0.2,0.5-0.5V7.7H28c0.3,0,0.5-0.2,0.5-0.5
	V4.1C28.4,3.9,28.2,3.7,28,3.7z M9.5,18.3H6.2v-6h3.3V18.3z M16.2,31.1h-3.3v-5.9h3.3V31.1z M16.2,18.3h-3.3v-6h3.3V18.3z M23,31.1
	h-3.3v-5.9H23V31.1z M23,18.3h-3.3v-6H23V18.3z"/>
</svg>
