<?xml version="1.0" encoding="utf-8"?>
<!-- Generator: Adobe Illustrator 24.2.0, SVG Export Plug-In . SVG Version: 6.00 Build 0)  -->
<svg version="1.1" id="Calque_1" xmlns="http://www.w3.org/2000/svg" xmlns:xlink="http://www.w3.org/1999/xlink" x="0px" y="0px"
	 viewBox="0 0 51.6 23" style="enable-background:new 0 0 51.6 23;" xml:space="preserve">
<style type="text/css">
	.st0{fill:#4B0082;}
</style>
<path class="st0" d="M2.1,17.7v2.1c1,0,1.4,0.4,2.2,1.2c1,1.2,2.4,2,4,2c1.6,0,3-0.8,4-2c0.8-0.8,1.2-1.2,2.2-1.2s1.4,0.4,2.1,1.2
	c1.7,2.2,5,2.6,7.2,0.9c0.3-0.3,0.6-0.6,0.9-0.9c0.8-0.8,1.2-1.2,2.2-1.2s1.4,0.4,2.2,1.2c1.7,2.2,5,2.6,7.2,0.9
	c0.3-0.3,0.6-0.6,0.9-0.9c0.8-0.8,1.2-1.2,2.2-1.2s1.4,0.4,2.2,1.2c1.7,2.2,5,2.6,7.2,0.9c0.3-0.3,0.6-0.6,0.9-0.9
	c0.8-0.8,1.2-1.2,2.2-1.2v-2.1c-1.6,0-3,0.8-4,2c-0.4,0.6-1.1,1-1.8,1.2l4.8-11.3H39.5L31.6,0h-20v9.5h-1L8.4,0L0,2.8l7.5,2.5l1,4.2
	H6.3v10.3c-0.1-0.1-0.1-0.1-0.2-0.2C5.2,18.4,3.7,17.7,2.1,17.7z M19,3.2v6.3h-4.3V3.2H19z M35.3,9.5H22.2V3.2H30L35.3,9.5z"/>
</svg>
