<?xml version="1.0" encoding="utf-8"?>
<!-- Generator: Adobe Illustrator 24.2.0, SVG Export Plug-In . SVG Version: 6.00 Build 0)  -->
<svg version="1.1" id="Calque_1" xmlns="http://www.w3.org/2000/svg" xmlns:xlink="http://www.w3.org/1999/xlink" x="0px" y="0px"
	 viewBox="0 0 48.9 32.1" style="enable-background:new 0 0 48.9 32.1;" xml:space="preserve">
<style type="text/css">
	.st0{fill:none;}
	.st1{fill:#4B0082;}
</style>
<g>
	<path class="st0" d="M30.5,23.3V12h-6.2v11.3H30.5z M24.9,21.4h5c0.1,0.3,0.2,0.7,0.3,1h-5.6C24.7,22,24.8,21.7,24.9,21.4z"/>
	<rect x="12.8" y="11.7" class="st0" width="8.1" height="8.1"/>
	<rect x="5.7" y="15.4" class="st0" width="3.8" height="6.6"/>
	<rect x="0.9" y="15.4" class="st0" width="3.8" height="6.6"/>
	<rect x="33.8" y="11.7" class="st0" width="8.1" height="8.1"/>
	<path class="st0" d="M39.5,24.3H15v4.4c0.5-0.3,1.1-0.5,1.7-0.5c1,0.2,1.9,0.6,2.7,1.3c0.6,0.3,1.2,0.5,1.8,0.4
		c0.1-0.2,0.1-0.5,0.2-0.7h12c0.1,0.2,0.2,0.5,0.2,0.7c0.6,0.1,1.3-0.1,1.8-0.4c0.8-0.6,1.7-1.1,2.7-1.3c0.6,0,1.2,0.2,1.7,0.5v-4.4
		H39.5z M22.9,26l0.4-0.7h8.2c0.1,0.2,0.3,0.5,0.4,0.7l0.2,0.3h-9.3L22.9,26z M21.8,28.2c0.2-0.3,0.3-0.7,0.5-1h10.3
		c0.2,0.3,0.3,0.7,0.5,1H21.8z"/>
	<path class="st1" d="M22.2,27.2c-0.2,0.3-0.3,0.7-0.5,1H33c-0.2-0.3-0.3-0.7-0.5-1H22.2z"/>
	<path class="st1" d="M31.9,26c-0.1-0.2-0.3-0.5-0.4-0.7h-8.2L22.9,26l-0.2,0.3H32L31.9,26z"/>
	<path class="st1" d="M29.9,21.4h-5c-0.1,0.3-0.2,0.7-0.3,1h5.6C30.1,22,30,21.7,29.9,21.4z"/>
	<path class="st1" d="M45.3,29.3c-0.4,0.5-0.9,0.9-1.5,1v-0.9v-5.1h0.6V9c0-0.5-0.3-1-0.7-1.3L28.3,0.3c-0.5-0.4-1.3-0.4-1.8,0
		L11.1,7.6c-0.4,0.3-0.7,0.8-0.7,1.3v5.5H0v9.8h11v5.2v0.9c-0.6-0.1-1.2-0.5-1.5-1c-0.9-1.1-2.1-1.7-3.5-1.7v1.8
		c0.8,0,1.2,0.3,1.9,1c1.5,1.9,4.3,2.3,6.2,0.8c0.3-0.2,0.6-0.5,0.8-0.8c0.7-0.7,1-1,1.9-1c0.9,0,1.2,0.3,1.9,1
		c1.5,1.9,4.3,2.3,6.2,0.8c0.3-0.2,0.6-0.5,0.8-0.8l0.3-0.3H29c0.1,0.1,0.2,0.2,0.3,0.3c1.5,1.9,4.3,2.3,6.2,0.8
		c0.3-0.2,0.6-0.5,0.8-0.8c0.7-0.7,1-1,1.9-1s1.2,0.3,1.9,1c1.5,1.9,4.3,2.3,6.2,0.8c0.3-0.2,0.6-0.5,0.8-0.8c0.7-0.7,1-1,1.9-1
		v-1.8C47.5,27.6,46.2,28.2,45.3,29.3z M4.7,22H0.9v-6.6h3.8V22z M9.5,22H5.7v-6.6h3.8V22z M33.8,11.7h8.1v8.1h-8.1V11.7z M30.5,12
		v11.3h-6.2V12L30.5,12z M12.8,11.7h8.1v8.1h-8.1V11.7z M38.1,28.2c-1,0.2-1.9,0.6-2.6,1.3c-0.5,0.3-1.2,0.5-1.8,0.4
		c-0.1-0.2-0.1-0.5-0.2-0.7h-12c-0.1,0.2-0.2,0.5-0.2,0.7c-0.6,0-1.2-0.1-1.8-0.4c-0.8-0.6-1.7-1.1-2.6-1.3c-0.6,0-1.2,0.2-1.7,0.5
		v-4.4h24.8v4.4C39.3,28.3,38.7,28.2,38.1,28.2z"/>
</g>
</svg>
