<?xml version="1.0" encoding="utf-8"?>
<!-- Generator: Adobe Illustrator 24.2.0, SVG Export Plug-In . SVG Version: 6.00 Build 0)  -->
<svg version="1.1" id="Calque_1" xmlns="http://www.w3.org/2000/svg" xmlns:xlink="http://www.w3.org/1999/xlink" x="0px" y="0px"
	 viewBox="0 0 44.2 23.2" style="enable-background:new 0 0 44.2 23.2;" xml:space="preserve">
<style type="text/css">
	.st0{fill:#4B0082;}
</style>
<g>
	<path class="st0" d="M41.4,14.6c-1.1,0-2.1,0.7-2.5,1.7h-2v2h2c0.6,1.4,2.1,2.1,3.5,1.5c1.4-0.6,2.1-2.1,1.5-3.5
		C43.5,15.3,42.5,14.6,41.4,14.6z M41.4,18.1c-0.4,0-0.7-0.3-0.7-0.7s0.3-0.7,0.7-0.7c0.4,0,0.7,0.3,0.7,0.7c0,0,0,0,0,0
		C42.1,17.7,41.8,18,41.4,18.1z"/>
	<path class="st0" d="M17.9,23.2c-1.8,0-3.3-1.5-3.3-3.3s1.5-3.3,3.3-3.3c1.8,0,3.3,1.5,3.3,3.3c0,0,0,0,0,0
		C21.2,21.7,19.8,23.2,17.9,23.2z"/>
	<path class="st0" d="M0,5.9C0,2.7,2.7,0,5.9,0h24c3.3,0,5.9,2.7,5.9,5.9v13.4H22.2c-0.3-2.3-2.4-4-4.7-3.7c-2,0.2-3.5,1.8-3.7,3.7
		H0V5.9z M15.4,13.8c1.7,0,3.1-1.4,3.1-3.1c0,0,0,0,0,0V8.6c0-1.7-1.4-3.1-3.1-3.1H8.6c-1.7,0-3.1,1.4-3.1,3c0,0,0,0,0,0v2.1
		c0,1.7,1.4,3.1,3.1,3.1L15.4,13.8z M27.5,18.1h2.3c1.7,0,3.1-1.4,3.1-3.1V8.6c0-1.7-1.4-3.1-3.1-3.1h-2.3c-1.7,0-3.1,1.4-3.1,3.1
		v6.5C24.4,16.8,25.8,18.1,27.5,18.1z"/>
</g>
</svg>
