<?xml version="1.0" encoding="utf-8"?>
<!-- Generator: Adobe Illustrator 24.2.0, SVG Export Plug-In . SVG Version: 6.00 Build 0)  -->
<svg version="1.1" id="Calque_1" xmlns="http://www.w3.org/2000/svg" xmlns:xlink="http://www.w3.org/1999/xlink" x="0px" y="0px"
	 viewBox="0 0 30.6 35.9" style="enable-background:new 0 0 30.6 35.9;" xml:space="preserve">
<style type="text/css">
	.st0{fill:none;}
	.st1{fill:#4B0082;}
</style>
<g>
	<path class="st0" d="M15.8,13.2h-0.9c-0.3,0-0.5,0.2-0.5,0.5v2.9c0,0.3,0.2,0.5,0.5,0.5h0.9c0.3,0,0.5-0.2,0.5-0.5v-2.9l0,0
		C16.2,13.4,16,13.2,15.8,13.2z"/>
	<path class="st0" d="M7.2,15.6c-0.7,0-1.3,0.6-1.3,1.3c0,0.7,0.6,1.3,1.3,1.3l0,0c0.7,0,1.3-0.6,1.3-1.3S7.9,15.6,7.2,15.6
		C7.2,15.6,7.2,15.6,7.2,15.6z"/>
	<path class="st0" d="M23.4,15.6c-0.7,0-1.3,0.6-1.3,1.3c0,0.7,0.6,1.3,1.3,1.3l0,0c0.7,0,1.3-0.6,1.3-1.3S24.1,15.6,23.4,15.6
		C23.4,15.6,23.4,15.6,23.4,15.6z"/>
	<path class="st0" d="M15.3,8.4C14.6,8.4,14,9,14,9.7s0.6,1.3,1.3,1.3c0.7,0,1.3-0.6,1.3-1.3v0C16.6,9,16.1,8.4,15.3,8.4z"/>
	<path class="st0" d="M7,33.2h0.6c0.3,0,0.6-0.3,0.6-0.6l0,0v-5.3l0,0c0-0.3-0.3-0.6-0.6-0.6l0,0H7c-0.3,0-0.6,0.3-0.6,0.6l0,0v5.3
		C6.4,32.9,6.7,33.2,7,33.2C7,33.2,7,33.2,7,33.2z"/>
	<path class="st0" d="M23,33.2h0.6c0.3,0,0.6-0.3,0.6-0.6v-5.3l0,0c0-0.3-0.3-0.6-0.6-0.6c0,0,0,0,0,0H23c-0.3,0-0.6,0.3-0.6,0.6
		c0,0,0,0,0,0v5.3l0,0C22.4,32.9,22.7,33.2,23,33.2C23,33.2,23,33.2,23,33.2z"/>
	<path class="st1" d="M2.4,35.9h10.2v-7.9c0-1.5,1.2-2.7,2.7-2.7s2.7,1.2,2.7,2.7v7.9h10.4V24.4h-26L2.4,35.9z M22.4,32.6v-5.3
		c0-0.3,0.3-0.6,0.6-0.6c0,0,0,0,0,0h0.6c0.3,0,0.6,0.3,0.6,0.6l0,0v5.3c0,0.3-0.3,0.6-0.6,0.6c0,0,0,0,0,0H23
		C22.7,33.2,22.4,32.9,22.4,32.6L22.4,32.6L22.4,32.6z M6.4,27.3c0-0.3,0.3-0.6,0.6-0.6l0,0h0.6c0.3,0,0.6,0.3,0.6,0.6l0,0l0,0v5.3
		c0,0.3-0.3,0.6-0.6,0.6l0,0H7c-0.3,0-0.6-0.3-0.6-0.6l0,0L6.4,27.3z"/>
	<path class="st1" d="M12,6.8c0.1,0.1,0.2,0.1,0.3,0.1l0,0v12.3c0.4,0.3,0.7,0.8,0.7,1.3l0,0c0-0.8,0.6-1.5,1.4-1.6c0,0,0,0,0,0h1.9
		c0.8,0,1.5,0.7,1.5,1.6c0,0,0,0,0,0l0,0c0-0.5,0.2-0.9,0.5-1.2V6.9l0,0c0.4,0,0.7-0.3,0.7-0.6c0-0.1,0-0.2-0.1-0.3l-3-5.5
		C15.8,0,15.3-0.1,15,0.1c0,0,0,0,0,0c-0.1,0.1-0.2,0.2-0.3,0.3l-3,5.5C11.6,6.2,11.7,6.6,12,6.8z M16.2,14.1V17
		c0,0.3-0.2,0.5-0.5,0.5h-0.9c-0.3,0-0.5-0.2-0.5-0.5v-2.9c0-0.3,0.2-0.5,0.5-0.5h0.9C16,13.6,16.2,13.8,16.2,14.1z M15.4,11.4
		c-0.7,0-1.3-0.6-1.3-1.3s0.6-1.3,1.3-1.3c0.7,0,1.3,0.6,1.3,1.3v0C16.7,10.8,16.1,11.4,15.4,11.4C15.3,11.4,15.3,11.4,15.4,11.4
		L15.4,11.4z"/>
	<path class="st1" d="M3.8,14C3.9,14,4,14.1,4.1,14.1l0,0v5c0.2-0.1,0.4-0.1,0.6-0.1h2c0.8,0,1.5,0.7,1.5,1.5c0,0,0,0,0,0l0,0
		c0-0.8,0.6-1.5,1.4-1.6c0,0,0,0,0,0h0.6v-4.9l0,0c0.4,0,0.7-0.3,0.7-0.7l0,0c0-0.1,0-0.2-0.1-0.3l-3-5.5C7.6,7.2,7.2,7.1,6.9,7.3
		c0,0,0,0,0,0C6.7,7.3,6.7,7.4,6.6,7.5l-3,5.5C3.4,13.4,3.5,13.8,3.8,14z M7.2,18.6L7.2,18.6c-0.7,0-1.3-0.6-1.3-1.3
		c0-0.7,0.6-1.3,1.3-1.3c0.7,0,1.3,0.6,1.3,1.3C8.5,17.9,7.9,18.6,7.2,18.6C7.2,18.6,7.2,18.6,7.2,18.6z"/>
	<path class="st1" d="M20.4,14.1L20.4,14.1V19h0.8c0.8,0,1.5,0.7,1.4,1.6c0,0,0,0,0,0l0,0c0-0.8,0.6-1.5,1.4-1.6h1.9
		c0.2,0,0.3,0,0.5,0.1v-5l0,0c0.1,0,0.2,0,0.3-0.1c0.3-0.2,0.4-0.6,0.3-0.9l-3-5.5c-0.1-0.1-0.2-0.2-0.3-0.3
		c-0.3-0.2-0.7-0.1-0.9,0.3c0,0,0,0,0,0l-3,5.5c-0.1,0.1-0.1,0.2-0.1,0.3C19.7,13.8,20,14.1,20.4,14.1z M23.4,18.6L23.4,18.6
		c-0.7,0-1.3-0.6-1.3-1.3c0-0.7,0.6-1.3,1.3-1.3c0.7,0,1.3,0.6,1.3,1.3C24.7,17.9,24.2,18.6,23.4,18.6
		C23.4,18.6,23.4,18.6,23.4,18.6L23.4,18.6z"/>
	<path class="st1" d="M30,19.5h-1c-0.4,0-0.6,0.3-0.6,0.6V21c0,0.4-0.3,0.6-0.7,0.6h-0.6c-0.4,0-0.6-0.3-0.6-0.6v-0.8
		c0-0.3-0.2-0.6-0.5-0.6H24c-0.3,0-0.5,0.3-0.5,0.6V21c0,0.4-0.3,0.6-0.6,0.6h-0.5c-0.4,0-0.6-0.3-0.6-0.6v-0.8
		c0-0.3-0.2-0.6-0.5-0.6h-1.9c-0.3,0-0.5,0.3-0.5,0.6V21c0,0.4-0.3,0.6-0.6,0.6h-0.6c-0.4,0-0.6-0.3-0.6-0.6v-0.8
		c0-0.3-0.2-0.6-0.5-0.6h-1.9c-0.3,0-0.5,0.3-0.5,0.6V21c0,0.4-0.3,0.6-0.6,0.6h-0.6c-0.4,0-0.6-0.3-0.6-0.6v-0.8
		c0-0.3-0.2-0.6-0.5-0.6H9.6c-0.3,0-0.5,0.3-0.5,0.6V21c0,0.4-0.3,0.6-0.6,0.6H7.9c-0.4,0-0.6-0.3-0.6-0.6v-0.8
		c0-0.3-0.2-0.6-0.5-0.6h-2c-0.3,0-0.6,0.3-0.6,0.6V21c0,0.4-0.3,0.6-0.6,0.6H2.9c-0.4,0-0.6-0.3-0.6-0.6v-0.8
		c0-0.4-0.3-0.6-0.6-0.6h-1c-0.4,0-0.6,0.3-0.6,0.6l0,0v3c0,0.4,0.3,0.6,0.6,0.6H30c0.4,0,0.6-0.3,0.6-0.6v-3
		C30.7,19.9,30.4,19.5,30,19.5C30,19.5,30,19.5,30,19.5z"/>
</g>
</svg>
