<?xml version="1.0" encoding="utf-8"?>
<!-- Generator: Adobe Illustrator 24.2.0, SVG Export Plug-In . SVG Version: 6.00 Build 0)  -->
<svg version="1.1" id="Calque_1" xmlns="http://www.w3.org/2000/svg" xmlns:xlink="http://www.w3.org/1999/xlink" x="0px" y="0px"
	 viewBox="0 0 37.2 34.7" style="enable-background:new 0 0 37.2 34.7;" xml:space="preserve">
<style type="text/css">
	.st0{fill:none;}
	.st1{fill:#4B0082;}
</style>
<g>
	<polygon class="st0" points="16.1,13 16.1,14.9 16.1,16.1 16.1,18 18,18 19.2,18 21.1,18 21.1,16.1 21.1,14.9 21.1,13 19.2,13 
		18,13 	"/>
	<polygon class="st0" points="14.9,13 9.7,13 7,14.9 14.9,14.9 	"/>
	<rect x="5.6" y="28.5" class="st0" width="8.7" height="1.9"/>
	<polygon class="st0" points="22.4,14.9 29.6,14.9 27.1,13 22.4,13 	"/>
	<rect x="5.6" y="22.3" class="st0" width="8.7" height="1.9"/>
	<polygon class="st0" points="18.6,6.8 15.9,8.6 21.1,8.6 	"/>
	<polygon class="st0" points="15,11.8 22.2,11.8 22.4,11.8 25.4,11.8 22.8,9.9 14.2,9.9 11.5,11.8 14.9,11.8 	"/>
	<rect x="22.4" y="16.1" class="st0" width="8.7" height="1.9"/>
	<rect x="5.6" y="16.1" class="st0" width="9.3" height="1.9"/>
	<rect x="23" y="22.3" class="st0" width="8.1" height="1.9"/>
	<rect x="15.5" y="22.3" class="st0" width="6.2" height="11.2"/>
	<rect x="23" y="28.5" class="st0" width="8.1" height="1.9"/>
	<path class="st1" d="M37.2,15.3c-0.1-0.7-0.4-1.3-0.9-1.7l-3.4-2.5V4.9h-5v2.5l-9.2-6.9L1,13c-1.1,0.8-1.3,2.4-0.5,3.5
		c0.5,0.6,1.2,1,2,1C3,17.5,3.5,17.3,4,17l0.3-0.3v1.5c-1.1,0.5-1.5,1.8-1,2.9c0.2,0.5,0.6,0.8,1,1v2.3c-1.1,0.5-1.5,1.8-1,2.9
		c0.2,0.5,0.6,0.8,1,1v2.3c-1.1,0.5-1.5,1.8-1,2.9c0.4,0.8,1.2,1.3,2,1.2H32c1.2,0,2.2-0.9,2.2-2.1c0-1.1-0.8-2-1.9-2.2v-1.9
		c1.2-0.2,2-1.3,1.8-2.5c-0.1-0.9-0.9-1.7-1.8-1.8v-1.9c1.2-0.2,2-1.3,1.8-2.5c-0.1-0.9-0.9-1.7-1.8-1.8v-1.2l0.9,0.7
		c1.1,0.8,2.6,0.7,3.5-0.4C37.1,16.5,37.3,15.9,37.2,15.3L37.2,15.3z M29.6,14.9h-7.3V13h4.7L29.6,14.9z M18.6,6.9l2.5,1.8h-5.2
		L18.6,6.9z M14.2,9.9h8.6l2.5,1.9H11.5L14.2,9.9z M21.2,13v5h-5v-5L21.2,13L21.2,13z M9.7,13h5.2v1.9H7L9.7,13z M14.3,30.4H5.6
		v-1.9h8.7V30.4z M14.3,24.2H5.6v-1.9h8.7V24.2z M5.6,18v-1.9h9.3V18H5.6z M21.7,33.5h-6.2V22.3h6.2V33.5z M31,30.4H23v-1.9H31
		L31,30.4z M31,24.2H23v-1.9H31L31,24.2z M31,18h-8.7v-1.9H31L31,18z"/>
	<path class="st1" d="M29.2,4.3c0.3,0,0.6-0.3,0.6-0.6c0,0,0,0,0,0c0-0.2-0.1-0.3-0.2-0.4C29.4,3,29,3,28.7,3.2
		c-0.1,0.1-0.2,0.3-0.2,0.4c0,0.2,0.1,0.3,0.2,0.4C28.9,4.2,29,4.3,29.2,4.3z"/>
	<path class="st1" d="M31.7,4.3c0.3,0,0.6-0.3,0.6-0.6V1.2c0-0.3-0.3-0.6-0.6-0.6c-0.3,0-0.6,0.3-0.6,0.6v2.5
		C31,4,31.3,4.3,31.7,4.3L31.7,4.3z"/>
	<path class="st1" d="M29.2,2.4c0.3,0,0.6-0.3,0.6-0.6c0,0,0,0,0,0V0.6c0-0.3-0.3-0.6-0.6-0.6c-0.3,0-0.6,0.3-0.6,0.6v0v1.2
		C28.6,2.1,28.8,2.4,29.2,2.4C29.2,2.4,29.2,2.4,29.2,2.4z"/>
</g>
</svg>
