<?xml version="1.0" encoding="utf-8"?>
<!-- Generator: Adobe Illustrator 24.2.0, SVG Export Plug-In . SVG Version: 6.00 Build 0)  -->
<svg version="1.1" id="Calque_1" xmlns="http://www.w3.org/2000/svg" xmlns:xlink="http://www.w3.org/1999/xlink" x="0px" y="0px"
	 viewBox="0 0 43.5 36.6" style="enable-background:new 0 0 43.5 36.6;" xml:space="preserve">
<style type="text/css">
	.st0{fill:#4B0082;}
</style>
<g>
	<path class="st0" d="M23.6,19.5v17.1h5.1v-6c0-1.9,1.5-3.4,3.4-3.4c1.9,0,3.4,1.5,3.4,3.4v6h4.7c0.2,0,0.4-0.2,0.4-0.4c0,0,0,0,0,0
		V19.5l-8.6-8.6L23.6,19.5z M34.1,17.3c0,1.1-0.9,1.9-1.9,1.9s-1.9-0.9-1.9-1.9c0-1.1,0.9-1.9,1.9-1.9
		C33.2,15.4,34.1,16.2,34.1,17.3C34.1,17.3,34.1,17.3,34.1,17.3z"/>
	<path class="st0" d="M0,19.9v16.3c0,0.2,0.2,0.4,0.4,0.4h22.1V19.5H0.4C0.2,19.5,0,19.7,0,19.9L0,19.9z M16.1,23.8h3.2v5.4h-3.2
		V23.8z M9.6,23.8h3.2v5.4H9.6V23.8z M3.2,23.8h3.2v5.4H3.2V23.8z"/>
	<path class="st0" d="M33.3,7.3V4.5h2c0.1,0,0.2-0.1,0.2-0.2c0,0,0,0,0,0V2.5c0-0.1-0.1-0.2-0.2-0.2l0,0h-2v-2
		c0-0.1-0.1-0.2-0.2-0.2l0,0h-1.8C31.2,0,31,0.1,31,0.2c0,0,0,0,0,0v2h-2c-0.1,0-0.2,0.1-0.2,0.2v1.8c0,0.1,0.1,0.2,0.2,0.2h2v2.8
		L26.3,12H6.9c-0.3,0-0.5,0.1-0.7,0.3l-5.8,5.8c-0.2,0.2-0.1,0.3,0.1,0.3H23l9.2-9.2l9.7,9.7c0.2,0.2,0.4,0.2,0.6,0c0,0,0,0,0,0
		l0.9-0.9c0.2-0.2,0.2-0.4,0-0.6L33.3,7.3z"/>
</g>
</svg>
