<?xml version="1.0" encoding="utf-8"?>
<!-- Generator: Adobe Illustrator 24.2.0, SVG Export Plug-In . SVG Version: 6.00 Build 0)  -->
<svg version="1.1" id="Calque_1" xmlns="http://www.w3.org/2000/svg" xmlns:xlink="http://www.w3.org/1999/xlink" x="0px" y="0px"
	 viewBox="0 0 37.2 36.6" style="enable-background:new 0 0 37.2 36.6;" xml:space="preserve">
<style type="text/css">
	.st0{fill:#4B0082;}
</style>
<g>
	<path class="st0" d="M3.3,5.8c0-0.3,0.2-0.6,0.5-0.6c0,0,0,0,0.1,0c0.3,0,0.6,0.3,0.6,0.6V7c0,0.3-0.3,0.6-0.6,0.6
		C3.5,7.6,3.3,7.4,3.3,7L3.3,5.8z M3.3,10.1c0-0.3,0.2-0.6,0.5-0.6c0,0,0,0,0.1,0c0.3,0,0.6,0.3,0.6,0.6v1.2c0,0.3-0.3,0.6-0.6,0.6
		s-0.6-0.3-0.6-0.6c0,0,0,0,0,0V10.1z M3.3,14.4c0-0.3,0.2-0.6,0.5-0.6c0,0,0,0,0.1,0c0.3,0,0.6,0.3,0.6,0.6v1.2
		c0,0.3-0.3,0.6-0.6,0.6c-0.3,0-0.6-0.3-0.6-0.6l0,0L3.3,14.4z M3.3,18.7c0-0.3,0.2-0.6,0.5-0.6c0,0,0,0,0.1,0
		c0.3,0,0.6,0.3,0.6,0.6v1.2c0,0.3-0.3,0.6-0.6,0.6c-0.3,0-0.6-0.3-0.6-0.6l0,0L3.3,18.7z M3.9,24.7c-0.3,0-0.6-0.2-0.6-0.5
		c0,0,0,0,0-0.1V23c0-0.3,0.2-0.6,0.5-0.6c0,0,0,0,0.1,0c0.3,0,0.6,0.3,0.6,0.6v1.2C4.5,24.4,4.2,24.7,3.9,24.7
		C3.9,24.7,3.9,24.7,3.9,24.7L3.9,24.7z M8,24.2c0,0.3-0.2,0.6-0.5,0.7c-0.3,0-0.6-0.2-0.7-0.5c0-0.1,0-0.1,0-0.2V23
		c0-0.3,0.3-0.5,0.7-0.5C7.8,22.5,8,22.7,8,23V24.2z M8,19.9c0,0.3-0.3,0.5-0.7,0.5c-0.3,0-0.5-0.2-0.5-0.5v-1.2
		c0-0.3,0.2-0.6,0.5-0.6c0,0,0,0,0.1,0c0.3,0,0.6,0.3,0.6,0.6V19.9z M8,15.6c0,0.3-0.3,0.5-0.7,0.5c-0.3,0-0.5-0.2-0.5-0.5v-1.2
		c0-0.3,0.2-0.6,0.5-0.6c0,0,0,0,0.1,0c0.3,0,0.6,0.3,0.6,0.6V15.6z M8,11.3c0,0.3-0.2,0.6-0.5,0.7c-0.3,0-0.6-0.2-0.7-0.5
		c0-0.1,0-0.1,0-0.2v-1.2c0-0.3,0.3-0.5,0.7-0.5C7.8,9.7,8,9.9,8,10.1V11.3z M8,7c0,0.3-0.3,0.5-0.7,0.5C7.1,7.5,6.9,7.3,6.9,7V5.8
		c0-0.3,0.3-0.5,0.7-0.5C7.8,5.4,8,5.6,8,5.8V7z M14.8,27.3c0,0.3-0.3,0.5-0.7,0.5c-0.3,0-0.5-0.2-0.5-0.5v-1.5
		c0-0.3,0.2-0.6,0.5-0.7c0.3,0,0.6,0.2,0.7,0.5c0,0.1,0,0.1,0,0.2V27.3z M14.8,21.8c0,0.3-0.3,0.5-0.7,0.5c-0.3,0-0.5-0.2-0.5-0.5
		v-1.5c0-0.3,0.3-0.5,0.7-0.5c0.3,0,0.5,0.2,0.5,0.5V21.8z M14.8,16.2c0,0.3-0.3,0.5-0.7,0.5c-0.3,0-0.5-0.2-0.5-0.5v-1.6
		c0-0.3,0.3-0.5,0.7-0.5c0.3,0,0.5,0.2,0.5,0.5V16.2z M14.8,10.7c0,0.3-0.3,0.5-0.7,0.5c-0.3,0-0.5-0.2-0.5-0.5V9.1
		c0-0.3,0.3-0.5,0.7-0.5c0.3,0,0.5,0.2,0.5,0.5V10.7z M14.8,5.1c0,0.3-0.3,0.5-0.7,0.5c-0.3,0-0.5-0.2-0.5-0.5V3.6
		c0-0.3,0.3-0.5,0.7-0.5c0.3,0,0.5,0.2,0.5,0.5V5.1z M18,3.6C18,3.2,18.2,3,18.6,3c0.3,0,0.6,0.3,0.6,0.6v1.5c0,0.3-0.3,0.6-0.6,0.6
		c-0.3,0-0.6-0.3-0.6-0.6c0,0,0,0,0,0V3.6z M18,9.1c0-0.3,0.3-0.6,0.6-0.6c0.3,0,0.6,0.3,0.6,0.6v1.6c0,0.3-0.3,0.6-0.6,0.6
		c-0.3,0-0.6-0.3-0.6-0.6c0,0,0,0,0,0V9.1z M18,14.7c0-0.3,0.3-0.6,0.6-0.6c0.3,0,0.6,0.3,0.6,0.6v1.5c0,0.3-0.3,0.6-0.6,0.6
		c-0.3,0-0.6-0.3-0.6-0.6V14.7z M18,20.2c0-0.3,0.3-0.6,0.6-0.6c0.3,0,0.6,0.3,0.6,0.6v1.5c0,0.3-0.3,0.6-0.6,0.6
		c-0.3,0-0.6-0.3-0.6-0.6V20.2z M18,25.8c0-0.3,0.3-0.6,0.6-0.6c0.3,0,0.6,0.3,0.6,0.6c0,0,0,0,0,0v1.5c0,0.3-0.3,0.6-0.6,0.6
		c-0.3,0-0.6-0.3-0.6-0.6V25.8z M23.4,27.3c0.1,0.3-0.1,0.6-0.5,0.7c-0.3,0.1-0.6-0.1-0.7-0.5c0-0.1,0-0.1,0-0.2v-1.5
		c0-0.3,0.3-0.6,0.6-0.6c0.3,0,0.6,0.3,0.6,0.6c0,0,0,0,0,0L23.4,27.3z M23.4,21.8c0,0.3-0.3,0.6-0.6,0.6c-0.3,0-0.6-0.3-0.6-0.6
		c0,0,0,0,0,0v-1.5c0-0.3,0.3-0.6,0.6-0.6c0.3,0,0.6,0.3,0.6,0.6c0,0,0,0,0,0V21.8z M23.4,16.2c0,0.3-0.3,0.6-0.6,0.6
		c-0.3,0-0.6-0.3-0.6-0.6c0,0,0,0,0,0v-1.6c0-0.3,0.3-0.6,0.6-0.6c0.3,0,0.6,0.3,0.6,0.6c0,0,0,0,0,0V16.2z M23.4,10.7
		c0,0.3-0.3,0.6-0.6,0.6c-0.3,0-0.6-0.3-0.6-0.6c0,0,0,0,0,0V9.1c0-0.3,0.3-0.6,0.6-0.6c0.3,0,0.6,0.3,0.6,0.6c0,0,0,0,0,0V10.7z
		 M23.4,5.1c-0.1,0.3-0.4,0.5-0.7,0.5c-0.2,0-0.4-0.2-0.5-0.5V3.6c0-0.3,0.3-0.6,0.6-0.6c0.3,0,0.6,0.3,0.6,0.6c0,0,0,0,0,0
		L23.4,5.1z M29.1,5.8c0-0.3,0.2-0.6,0.5-0.6c0,0,0,0,0.1,0c0.3,0,0.6,0.3,0.6,0.6V7c0,0.3-0.3,0.6-0.6,0.6c-0.3,0-0.6-0.3-0.6-0.6
		c0,0,0,0,0,0V5.8z M29.1,10.1c0-0.3,0.2-0.6,0.5-0.6c0,0,0,0,0.1,0c0.3,0,0.6,0.3,0.6,0.6v1.2c0,0.3-0.3,0.6-0.6,0.6
		c-0.3,0-0.6-0.3-0.6-0.6c0,0,0,0,0,0V10.1z M29.1,14.4c0-0.3,0.2-0.6,0.5-0.6c0,0,0,0,0.1,0c0.3,0,0.6,0.3,0.6,0.6v1.2
		c0,0.3-0.3,0.6-0.6,0.6c-0.3,0-0.6-0.3-0.6-0.6c0,0,0,0,0,0V14.4z M29.1,18.7c0-0.3,0.2-0.6,0.5-0.6c0,0,0,0,0.1,0
		c0.3,0,0.6,0.3,0.6,0.6v1.2c0,0.3-0.3,0.6-0.6,0.6c-0.3,0-0.6-0.3-0.6-0.6c0,0,0,0,0,0V18.7z M29.7,24.7c-0.3,0-0.6-0.2-0.6-0.5
		c0,0,0,0,0-0.1V23c0-0.3,0.2-0.6,0.5-0.6c0,0,0,0,0.1,0c0.3,0,0.6,0.3,0.6,0.6v1.2C30.2,24.4,30,24.7,29.7,24.7
		C29.7,24.7,29.7,24.7,29.7,24.7z M36.6,31.6c0.3,0,0.6-0.2,0.6-0.5c0,0,0,0,0-0.1V5c-0.1-1.2-1.1-2.1-2.3-2c0,0,0,0,0,0H27V2.4
		C27,1.1,25.9,0,24.6,0h-12c-1.3,0-2.4,1.1-2.4,2.4V3H2.3C1.1,2.9,0.1,3.8,0,5v26.1c0,0.3,0.2,0.6,0.5,0.6c0,0,0,0,0.1,0h3.9v-3.7
		h2.5v3.7h3.3v4.4c0,0.3,0.2,0.6,0.5,0.6c0,0,0,0,0.1,0H17v-5.3c0-0.1,0.1-0.1,0.1-0.1H20c0.1,0,0.1,0.1,0.1,0.1v5.3h6.2
		c0.3,0,0.6-0.2,0.6-0.5c0,0,0,0,0-0.1v-4.4h3.3v-3.7h2.5v3.7L36.6,31.6z M33.8,24.1c0,0.3-0.2,0.6-0.5,0.7c-0.3,0-0.6-0.2-0.7-0.5
		c0-0.1,0-0.1,0-0.2v-1.2c0-0.3,0.3-0.5,0.7-0.5c0.3,0,0.5,0.2,0.5,0.5V24.1z M33.8,19.9c0,0.3-0.3,0.5-0.7,0.5
		c-0.3,0-0.5-0.2-0.5-0.5v-1.2c0-0.3,0.2-0.6,0.5-0.6c0,0,0,0,0.1,0c0.3,0,0.6,0.3,0.6,0.6V19.9z M33.8,15.6c0,0.3-0.3,0.5-0.7,0.5
		c-0.3,0-0.5-0.2-0.5-0.5v-1.2c0-0.3,0.2-0.6,0.5-0.6c0,0,0,0,0.1,0c0.3,0,0.6,0.3,0.6,0.6V15.6z M33.8,11.3c0,0.3-0.2,0.6-0.5,0.7
		c-0.3,0-0.6-0.2-0.7-0.5c0-0.1,0-0.1,0-0.2v-1.2c0-0.3,0.3-0.5,0.7-0.5c0.3,0,0.5,0.2,0.5,0.5V11.3z M33.8,7c0,0.3-0.3,0.5-0.7,0.5
		c-0.3,0-0.5-0.2-0.5-0.5V5.8c0-0.3,0.3-0.5,0.7-0.5c0.3,0,0.5,0.2,0.5,0.5V7z"/>
</g>
</svg>
