<?xml version="1.0" encoding="utf-8"?>
<!-- Generator: Adobe Illustrator 24.2.0, SVG Export Plug-In . SVG Version: 6.00 Build 0)  -->
<svg version="1.1" id="Calque_1" xmlns="http://www.w3.org/2000/svg" xmlns:xlink="http://www.w3.org/1999/xlink" x="0px" y="0px"
	 viewBox="0 0 45.6 36.7" style="enable-background:new 0 0 45.6 36.7;" xml:space="preserve">
<style type="text/css">
	.st0{fill:#4B0082;}
</style>
<g>
	<path class="st0" d="M22.8,23.6c-2.2,0-4.1,1.8-4.1,4.1v9h8.1v-9C26.9,25.4,25,23.6,22.8,23.6z"/>
	<path class="st0" d="M9.2,33.5c-0.4,0.2-0.9,0-1.1-0.4c0,0,0,0,0-0.1V33c-0.3-0.8-1.1-1.3-2-1.1H5.9c-0.2,0.1-0.5,0.1-0.7,0
		c-0.2-0.1-0.4-0.3-0.4-0.5c-0.2-0.9-1.1-1.4-2-1.2s-1.4,1.1-1.2,2c0,0.1,0,0.1,0.1,0.2c0.2,0.4,0,0.9-0.4,1.1H1.2
		c-0.9,0.2-1.4,1.1-1.2,2c0.2,0.7,0.8,1.2,1.6,1.2h8.1c0.9,0,1.6-0.7,1.6-1.6c0-0.9-0.7-1.6-1.6-1.6C9.6,33.4,9.4,33.4,9.2,33.5z"/>
	<polygon class="st0" points="13.9,2.8 13.9,0 10.6,0 10.6,4.2 	"/>
	<path class="st0" d="M4.6,10.3c0.3,0.2,0.7,0.2,1,0.1l16.9-7.1c0.2-0.1,0.4-0.1,0.6,0l17,7.1c0.5,0.2,1.2,0,1.4-0.6
		c0.1-0.1,0.1-0.3,0.1-0.4c0-0.4-0.3-0.8-0.7-1L22.8,0.9L4.7,8.4C4.3,8.6,4.1,9,4.1,9.4C4.1,9.8,4.3,10.1,4.6,10.3z"/>
	<path class="st0" d="M19.7,13H22v-2.3C20.9,11,20,11.9,19.7,13z"/>
	<rect x="19.6" y="14.7" class="st0" width="2.4" height="2.4"/>
	<path class="st0" d="M23.6,10.7V13h2.3C25.6,11.9,24.8,11,23.6,10.7z"/>
	<path class="st0" d="M33.7,32.6c0.6-0.5,1.3-0.8,2.1-0.8c0.1,0,0.3,0,0.4,0c0.4-0.8,1.2-1.3,2-1.5V26h-4.9v-1.6h4.9V22H27.7v-1.6
		h10.6v-2.4h-7.3v-1.6h7.3v-4.9l-3.9-1.6h-5.9V8.1h2L22.9,5l-7.6,3.2H18v1.6h-6.7l-3.9,1.6v4.9h4.9v1.6H7.3v6.5h8.1V26H7.3v4.2
		c0.8,0.2,1.6,0.8,2,1.5c0.1,0,0.3,0,0.4,0c1.8,0,3.3,1.4,3.3,3.2c0,0,0,0,0,0c0,0.6-0.2,1.1-0.5,1.6h4.5v-6.5H9v-1.6h8.1v-0.8
		c0-3.1,2.6-5.7,5.7-5.7s5.7,2.6,5.7,5.7v0.8h8.1v1.6h-8.1v6.5h4.6c-0.4-0.7-0.6-1.6-0.3-2.4h-2.6v-1.6H33.7z M35,12.2h1.6v1.6H35
		V12.2z M30.1,12.2h3.2v1.6h-3.2L30.1,12.2z M13.9,32.6h1.6v1.6h-1.6V32.6z M9,13.9v-1.6h6.5v1.6H9z M15.5,16.3v1.6h-1.6v-1.6
		L15.5,16.3z M17.1,22H9v-1.6h8.1V22z M26.8,18.7h-8.1c-0.4,0-0.8-0.4-0.8-0.8v-4.1c0-2.7,2.2-4.9,4.9-4.9c2.7,0,4.9,2.2,4.9,4.9
		v4.1C27.7,18.4,27.3,18.7,26.8,18.7L26.8,18.7z M31.7,26.1h-1.6v-1.6h1.6L31.7,26.1z"/>
	<path class="st0" d="M44.4,33.4c-0.4-0.1-0.7-0.6-0.6-1v-0.1c0.4-0.8,0-1.8-0.8-2.2c-0.8-0.4-1.8,0-2.2,0.8c0,0.1,0,0.1-0.1,0.2
		c0,0.1-0.1,0.1-0.1,0.2c-0.1,0.2-0.2,0.4-0.4,0.5c-0.2,0.1-0.4,0.1-0.7,0c-0.8-0.3-1.8,0.1-2.1,0.9c0,0.1,0,0.1,0,0.2
		c-0.1,0.4-0.6,0.7-1,0.6h-0.1c-0.9-0.3-1.8,0.2-2,1.1c-0.2,0.7,0.1,1.5,0.8,1.9c0.2,0.1,0.4,0.1,0.6,0.1H44c0.9,0,1.6-0.7,1.7-1.6
		C45.6,34.3,45.1,33.6,44.4,33.4L44.4,33.4z"/>
	<rect x="23.6" y="14.7" class="st0" width="2.4" height="2.4"/>
</g>
</svg>
