<?xml version="1.0" encoding="utf-8"?>
<!-- Generator: Adobe Illustrator 24.2.0, SVG Export Plug-In . SVG Version: 6.00 Build 0)  -->
<svg version="1.1" id="Calque_1" xmlns="http://www.w3.org/2000/svg" xmlns:xlink="http://www.w3.org/1999/xlink" x="0px" y="0px"
	 viewBox="0 0 40.9 38.7" style="enable-background:new 0 0 40.9 38.7;" xml:space="preserve">
<style type="text/css">
	.st0{fill:none;}
	.st1{fill:#4B0082;}
</style>
<g>
	<path class="st0" d="M39.1,26.1c0.2,0,0.3,0.1,0.3,0.3c0,0.1,0,0.1,0,0.2c0.1-0.1,0-0.3-0.1-0.4C39.2,26.1,39.2,26.1,39.1,26.1z"/>
	<path class="st0" d="M34.9,32.3L34.9,32.3c-0.1-0.2-0.2-0.5-0.4-0.7C34.7,31.9,34.8,32.1,34.9,32.3z"/>
	<path class="st1" d="M27.9,29.1c0-0.1,0-0.2,0.1-0.2c0.1-0.1,0.1-0.1,0.2-0.1c-0.1,0-0.2,0-0.2,0.1C27.9,28.9,27.9,29,27.9,29.1z"
		/>
	<path class="st1" d="M26.8,26.7L26.8,26.7z"/>
	<path class="st1" d="M25.5,26.9c0-0.7,0.6-1.2,1.3-1.2h0.1c2,0.2,3.9,0.9,5.5,2.2l0,0v-7.3l-1.1,0.7l0,0c-8.2,4.4-18,4.2-26-0.5
		l-1.2-0.7v10.7l0.2,0.2c2.9,2.9,6.6,4.8,10.7,5.5c0.4,0,0.8,0.1,1.2,0.2v-6.8c0-0.6,0.4-1,1-1h2.7c0.6,0,1,0.4,1,1v6.8
		c0.4-0.1,0.8-0.1,1.1-0.2c1.6-0.3,3.1-0.8,4.6-1.4C25.5,32.4,25.2,29.6,25.5,26.9z"/>
	<path class="st1" d="M28.5,28.8L28.5,28.8c1,1,1.9,2,2.7,3.1l0,0C30.4,30.8,29.5,29.8,28.5,28.8z"/>
	<path class="st1" d="M5.3,19.7c8,4.7,17.8,4.8,26,0.5l0,0l1.1-0.7c1.7-1.1,3.4-2.3,4.8-3.8c0.1,0,0.1-0.1,0.1-0.1L25.8,5.9L18.7,0
		l-7.1,5.9L0,15.6l0,0c1.2,1.2,2.6,2.3,4,3.3L5.3,19.7z"/>
	<path class="st1" d="M40.9,25.5c0-0.4,0-0.8-0.1-1.1c0-0.1,0-0.1-0.1-0.2l0,0c-0.1-0.1-0.1-0.1-0.2-0.1h-0.1
		c-1.2,0.1-2.4,0.4-3.4,1c-0.5,0.2-0.9,0.5-1.3,0.8c-0.4,0.3-0.8,0.6-1.2,1c-0.8,0.7-1.4,1.6-1.9,2.5l0,0l-0.2-0.2
		c-0.9-0.8-1.9-1.4-3-1.9c-0.4-0.1-0.7-0.3-1.1-0.4c-0.5-0.1-1-0.2-1.5-0.2h-0.1c-0.1,0-0.1,0-0.2,0.1l0,0c-0.1,0.1-0.1,0.1-0.1,0.2
		l0,0c0,0.5-0.1,1-0.1,1.5s0,1,0,1.5c0,0.8,0.2,1.6,0.3,2.5c0.1,0.7,0.4,1.4,0.6,2.1c0,0.1,0.1,0.2,0.1,0.3c0.3,0.6,0.7,1.2,1.1,1.8
		c0.5,0.6,1.2,1.1,1.9,1.5c0.4,0.2,0.7,0.3,1.1,0.4c0.4,0.1,0.8,0.2,1.2,0.2h0.2h0.2l0,0h0.3h0.6c-0.3-1-0.6-1.9-1.1-2.7
		c-0.5-0.9-1.1-1.8-1.7-2.6c-0.2-0.3-0.5-0.6-0.7-0.9l-0.2-0.3c-0.5-0.6-0.9-1.1-1.3-1.6c-0.3-0.3-0.5-0.6-0.8-0.8L28,29.3
		c-0.1-0.1-0.1-0.1-0.1-0.2c0-0.1,0-0.2,0.1-0.2c0.1-0.1,0.1-0.1,0.2-0.1l0,0c0.1,0,0.2,0,0.2,0.1l0,0c1,1,1.9,2,2.7,3.1
		c0.2,0.3,0.5,0.6,0.7,1c1.1,1.5,2,3.2,2.7,5c0.1,0.2,0.2,0.5,0.2,0.7l0,0c0,0,0,0,0.1,0c0,0,0,0,0,0c0,0,0.1-0.1,0.1-0.1l0.1-0.1
		l0.1-0.3l0,0l0.2-0.3l0,0l0.2-0.3l0,0l0.1-0.3v-0.1c0.1-0.1,0.1-0.3,0.1-0.4c0-0.3,0-0.5,0-0.8c0.2-0.1,0.5-0.1,0.7-0.2
		c0.4-0.2,0.8-0.4,1.2-0.7c0.4-0.3,0.7-0.6,1-0.9c0.2-0.2,0.3-0.4,0.5-0.6c0.3-0.4,0.5-0.9,0.8-1.3c0.1-0.2,0.2-0.5,0.3-0.8
		c0.2-0.6,0.3-1.1,0.5-1.7c0.1-0.3,0.1-0.7,0.2-1C40.8,27.7,40.9,26.6,40.9,25.5z M39.4,26.5c0,0,0,0.1,0,0.1
		c-1.7,1.7-3.2,3.6-4.5,5.7l0,0c-0.1-0.2-0.2-0.5-0.4-0.7c0.6-0.9,1.2-1.8,1.8-2.5c0.2-0.3,0.4-0.5,0.6-0.8c0.4-0.5,0.8-0.9,1.1-1.3
		c0.3-0.4,0.6-0.7,0.9-0.9C39,26.1,39,26,39.1,26l0,0c0.2,0,0.3,0.1,0.3,0.3C39.4,26.4,39.4,26.4,39.4,26.5L39.4,26.5z"/>
	<path class="st0" d="M40.8,24.2c-0.1-0.1-0.1-0.1-0.2-0.1"/>
	<line class="st0" x1="34.8" y1="38.6" x2="34.8" y2="38.6"/>
</g>
</svg>
