<?xml version="1.0" encoding="utf-8"?>
<!-- Generator: Adobe Illustrator 24.2.0, SVG Export Plug-In . SVG Version: 6.00 Build 0)  -->
<svg version="1.1" id="Calque_1" xmlns="http://www.w3.org/2000/svg" xmlns:xlink="http://www.w3.org/1999/xlink" x="0px" y="0px"
	 viewBox="0 0 32.9 34.4" style="enable-background:new 0 0 32.9 34.4;" xml:space="preserve">
<style type="text/css">
	.st0{fill:none;}
	.st1{fill:#4B0082;}
</style>
<g>
	<polygon class="st0" points="13.1,24.7 13.1,32.8 16,28.7 	"/>
	<polygon class="st0" points="16.5,28 19.5,23.7 13.5,23.7 	"/>
	<polygon class="st0" points="12.2,32.8 12.2,24.7 9.4,28.7 	"/>
	<polygon class="st0" points="19.9,32.8 19.9,24.7 17,28.7 	"/>
	<polygon class="st0" points="27.6,24.7 24.7,28.7 27.6,32.8 	"/>
	<polygon class="st0" points="24.2,28 27.2,23.7 21.2,23.7 	"/>
	<polygon class="st0" points="8.8,28 11.8,23.7 5.8,23.7 	"/>
	<polygon class="st0" points="20.8,24.7 20.8,32.8 23.6,28.7 	"/>
	<polygon class="st0" points="16.5,29.5 13.5,33.7 19.5,33.7 	"/>
	<path class="st0" d="M20.8,22.8h6.8V17l-0.7-0.8l-1.3,1.4c-0.1,0.1-0.2,0.2-0.3,0.1c-0.1,0-0.2-0.1-0.3-0.1l-1.3-1.4l-1.3,1.4
		c-0.1,0.1-0.2,0.2-0.3,0.1c-0.1,0-0.2-0.1-0.3-0.1l-1-1.1L20.8,22.8z"/>
	<path class="st0" d="M13.1,22.8h6.8v-6l-0.7,0.8c-0.1,0.1-0.2,0.1-0.3,0.1c-0.1,0-0.2-0.1-0.3-0.1l-1.3-1.4L16,17.6
		c-0.2,0.2-0.4,0.2-0.6,0c0,0,0,0,0,0l-1.3-1.4l-1,1.1L13.1,22.8z"/>
	<path class="st0" d="M5.4,22.8h6.8v-5.3l0,0L11,16.1l-1.3,1.4c-0.1,0.1-0.2,0.1-0.3,0.1c-0.1,0-0.2-0.1-0.3-0.1l-1.3-1.4l-1.3,1.4
		c-0.2,0.2-0.5,0.2-0.6,0c0,0,0,0,0,0l-0.4-0.5L5.4,22.8z"/>
	<polygon class="st0" points="24.2,29.5 21.2,33.7 27.2,33.7 	"/>
	<polygon class="st0" points="8.3,28.7 5.4,24.7 5.4,32.8 	"/>
	<polygon class="st0" points="8.8,29.5 5.8,33.7 11.8,33.7 	"/>
	<path class="st1" d="M30.4,9.2l-5.8-5.8c-4.5-4.5-11.7-4.5-16.2,0L2.6,9.2c-2,2-2.9,4-2.5,5.6c0.2,0.9,0.9,2,3.1,2.6h0.1h0.2l0,0
		c0,0,0.1,0,0.1-0.1l0,0l0.9-1v17.7c0,0,0,0.1,0,0.1l0,0c0,0,0,0.1,0,0.1l0,0l0,0c0,0,0,0.1,0,0.1c0,0,0,0,0,0.1v0.1l0.1,0.1l0,0
		h0.1l0,0h0.2H28h0.1h0c0,0,0,0,0,0l0,0l0.1-0.1l0-0.1v-0.1c0,0,0-0.1,0-0.1l0,0l0,0c0,0,0-0.1,0-0.1l0,0c0,0,0-0.1,0-0.2V17.7
		c0.1,0,0.2-0.1,0.3-0.1l1.3-1.4l0.5,0.6l0,0c0,0,0,0,0.1,0.1h0.1h0.1h0.1H31H31l0,0c1-0.5,1.7-1.4,1.8-2.4
		C33.2,12.9,32.3,11.1,30.4,9.2z M24.2,28l-3-4.2h6L24.2,28z M27.6,24.7v8.1l-2.9-4.1L27.6,24.7z M20.8,24.7l2.9,4l-2.9,4.1
		L20.8,24.7z M19.9,32.8L17,28.7l2.8-4V32.8z M16.5,28l-3-4.2h6L16.5,28z M13.1,24.7l2.9,4l-2.9,4.1L13.1,24.7z M12.2,32.8l-2.9-4.1
		l2.9-4L12.2,32.8z M8.9,28l-3-4.2h6L8.9,28z M8.3,28.7l-2.8,4.1v-8.1L8.3,28.7z M8.8,29.5l3,4.2H5.9L8.8,29.5z M16.5,29.5l3,4.2h-6
		L16.5,29.5z M24.2,29.5l3,4.2h-6L24.2,29.5z M22.1,17.7c0.1,0,0.2-0.1,0.3-0.1l1.3-1.4l1.3,1.4c0.1,0.1,0.2,0.2,0.3,0.1
		c0.1,0,0.2-0.1,0.3-0.1l1.3-1.4l0.7,0.8v5.9h-6.8v-6.4l1,1.1C21.9,17.6,22,17.7,22.1,17.7z M15.4,17.6c0.2,0.2,0.4,0.2,0.6,0
		c0,0,0,0,0,0l1.3-1.4l1.3,1.4c0.1,0.1,0.2,0.1,0.3,0.1c0.1,0,0.2-0.1,0.3-0.1l0.7-0.8v6h-6.8v-5.5l1-1.1L15.4,17.6z M6.5,17.6
		l1.3-1.4L9,17.6c0.1,0.1,0.2,0.2,0.3,0.1c0.1,0,0.2-0.1,0.3-0.1l1.3-1.4l1.3,1.4l0,0v5.3H5.4v-5.8l0.4,0.5
		C6,17.7,6.3,17.7,6.5,17.6C6.5,17.6,6.5,17.5,6.5,17.6L6.5,17.6z"/>
</g>
</svg>
