<?xml version="1.0" encoding="utf-8"?>
<!-- Generator: Adobe Illustrator 24.2.0, SVG Export Plug-In . SVG Version: 6.00 Build 0)  -->
<svg version="1.1" id="Calque_1" xmlns="http://www.w3.org/2000/svg" xmlns:xlink="http://www.w3.org/1999/xlink" x="0px" y="0px"
	 viewBox="0 0 40.7 36.6" style="enable-background:new 0 0 40.7 36.6;" xml:space="preserve">
<style type="text/css">
	.st0{fill:#4B0082;}
</style>
<g>
	<polygon class="st0" points="13.4,36.6 27.3,36.6 20.4,30.3 	"/>
	<polygon class="st0" points="26.6,22.6 14.2,22.6 20.4,28.3 	"/>
	<rect x="16.2" y="10.4" class="st0" width="8.4" height="5.2"/>
	<path class="st0" d="M20.3,2.9L8.1,8L2.7,21.2c0,0.1,0,0.2,0,0.2v14.3c0,0.5,0.4,0.9,0.9,0.9c0,0,0,0,0,0h7.8V21.9
		c0-0.4,0.3-0.7,0.7-0.7h16.5c0.4,0,0.7,0.3,0.7,0.7v14.7h7.8c0.5,0,0.9-0.4,0.9-0.9V21.4c0,0,0-0.1,0-0.1L32.4,8L20.3,2.9z
		 M26,16.3c0,0.4-0.3,0.7-0.7,0.7h-9.8c-0.4,0-0.7-0.3-0.7-0.7V9.6c0-0.4,0.3-0.7,0.7-0.7h9.8c0.4,0,0.7,0.3,0.7,0.7V16.3L26,16.3z"
		/>
	<polygon class="st0" points="27.9,35.1 27.9,23.5 21.5,29.3 	"/>
	<polygon class="st0" points="12.8,35.1 19.2,29.3 12.8,23.5 	"/>
	<path class="st0" d="M40.7,20L35.2,6.9c-0.3-0.7-0.9-1.3-1.6-1.6L21.5,0.2c-0.7-0.3-1.5-0.3-2.2,0L7,5.3C6.3,5.6,5.8,6.2,5.4,6.9
		L0.1,20c-0.2,0.4,0,0.8,0.4,1c0,0,0,0,0,0c0.1,0,0.2,0.1,0.3,0.1c0.2,0,0.4-0.1,0.6-0.2c0.1-0.1,0.1-0.1,0.2-0.2l0.1-0.3L6.9,7.5
		C7,7.1,7.3,6.9,7.6,6.7l12.2-5.1c0.3-0.1,0.7-0.1,1,0l9.7,4.1l2.5,1.1c0.2,0.1,0.4,0.2,0.5,0.4l0,0L39,20.2l0,0l0.1,0.3
		c0.1,0.4,0.6,0.6,1,0.5c0.4-0.1,0.6-0.6,0.5-1C40.6,20.1,40.6,20,40.7,20L40.7,20z"/>
</g>
</svg>
