<?xml version="1.0" encoding="utf-8"?>
<!-- Generator: Adobe Illustrator 24.2.0, SVG Export Plug-In . SVG Version: 6.00 Build 0)  -->
<svg version="1.1" id="Calque_1" xmlns="http://www.w3.org/2000/svg" xmlns:xlink="http://www.w3.org/1999/xlink" x="0px" y="0px"
	 viewBox="0 0 43.3 36.6" style="enable-background:new 0 0 43.3 36.6;" xml:space="preserve">
<style type="text/css">
	.st0{fill:#4B0082;}
</style>
<g>
	<path class="st0" d="M23.3,36.3l-0.6-6.1c-0.7-0.1-1.2-0.7-1.2-1.3v-1.4L20,23.6l-0.3,2.9c-0.1,0.2-0.1,0.4,0,0.6l1.4,4.3
		c0.1,0.1,0,0.3-0.2,0.4c0,0-0.1,0-0.1,0H20c-0.1,0-0.3,0.1-0.3,0.2L19,36.4c0,0.1,0,0.1-0.1,0.2h4.6C23.4,36.5,23.3,36.4,23.3,36.3
		z"/>
	<path class="st0" d="M36.5,18.7L22.5,9.2c-0.5-0.3-1.2-0.3-1.6,0L6.8,18.7c-0.4,0.3-0.6,0.7-0.6,1.2v15.2c0,0.8,0.7,1.5,1.5,1.5h0
		h9.6c-0.1,0-0.1-0.1-0.1-0.2L16.4,32c0-0.1-0.1-0.2-0.3-0.2h-0.9c-0.2,0-0.3-0.1-0.3-0.3c0,0,0,0,0-0.1l1.4-4.2
		c0.1-0.2,0.1-0.4,0-0.6l-0.3-2.9l-1.6,3.8c-0.1,0.3-0.3,0.4-0.6,0.4c-0.1,0-0.2,0-0.2,0c-0.3-0.2-0.5-0.5-0.4-0.9l2-4.9
		c0.1-0.3,0.3-0.4,0.6-0.4c0.1,0,0.2,0,0.3,0.1c0.5,0.3,1.2,0.5,1.8,0.5c0.6,0,1.3-0.2,1.8-0.5c0.1-0.1,0.2-0.1,0.3-0.1
		c0.3,0,0.5,0.2,0.6,0.4l0.8,1.9V23c0-0.7,0.6-1.3,1.3-1.3c0,0,0,0,0,0h0.6l1.3,1.8l1.3-1.8h0.6c0.7,0,1.4,0.6,1.4,1.3c0,0,0,0,0,0
		v5.8c0,0.7-0.5,1.2-1.2,1.3l-0.6,6.1c0,0.1-0.1,0.3-0.2,0.3h9.6c0.8,0,1.5-0.6,1.5-1.5c0,0,0,0,0,0V19.9
		C37.2,19.4,36.9,19,36.5,18.7z M18,21.2c-1.1,0-2-0.9-2-2s0.9-2,2-2s2,0.9,2,2S19.1,21.2,18,21.2z M24.8,21.2c-1.1,0-2-0.9-2-2
		s0.9-2,2-2s2,0.9,2,2S25.9,21.2,24.8,21.2z"/>
	<path class="st0" d="M42.8,14l-0.2-0.1l-5.5-3.7V4c0-0.3-0.3-0.6-0.6-0.6h-3.7c-0.3,0-0.6,0.3-0.6,0.6l0,0v2.9l-9.8-6.6
		c-0.5-0.3-1.1-0.3-1.6,0L0.6,13.9c-0.6,0.5-0.8,1.3-0.4,2L0.3,16L2,17.9c0.5,0.6,1.4,0.7,2,0.2L20.8,6.9c0.5-0.3,1.1-0.3,1.6,0
		l16.9,11.4c0.6,0.4,1.4,0.3,1.9-0.2l1.7-1.9C43.5,15.4,43.4,14.5,42.8,14z"/>
</g>
</svg>
