<?xml version="1.0" encoding="utf-8"?>
<!-- Generator: Adobe Illustrator 24.2.0, SVG Export Plug-In . SVG Version: 6.00 Build 0)  -->
<svg version="1.1" id="Calque_1" xmlns="http://www.w3.org/2000/svg" xmlns:xlink="http://www.w3.org/1999/xlink" x="0px" y="0px"
	 viewBox="0 0 60.9 40.2" style="enable-background:new 0 0 60.9 40.2;" xml:space="preserve">
<style type="text/css">
	.st0{fill:none;}
	.st1{fill:#4B0082;}
	.st2{fill:#FFFFFF;}
</style>
<g>
	<path class="st0" d="M2.8,25.5c0-0.2,0.1-0.4,0.2-0.5C2.9,25.1,2.8,25.3,2.8,25.5z"/>
	<path class="st0" d="M9.9,27.5c-0.7,0-1.4,0.1-2.1,0.1C8.4,27.6,9.1,27.5,9.9,27.5v-2c0-0.2-0.1-0.4-0.2-0.5
		c0.1,0.1,0.2,0.3,0.2,0.5V27.5z"/>
	<path class="st0" d="M9.2,24.8c0.2,0,0.4,0.1,0.5,0.2C9.5,24.9,9.4,24.8,9.2,24.8H3.5c-0.1,0-0.2,0-0.3,0.1c0.1,0,0.2-0.1,0.3-0.1
		H9.2z"/>
	<path class="st0" d="M18.8,24.8c0.1,0,0.2,0,0.3,0.1C19,24.8,18.9,24.8,18.8,24.8h-5.6c-0.1,0-0.2,0-0.4,0.1
		c0.1-0.1,0.2-0.1,0.4-0.1H18.8z"/>
	<path class="st0" d="M19.5,28.4L19.5,28.4l-1-0.2L19.5,28.4z"/>
	<path class="st0" d="M19.3,25c0.1,0.1,0.2,0.3,0.2,0.5C19.5,25.3,19.5,25.1,19.3,25z"/>
	<path class="st0" d="M43.7,39.1v-5.5h1.4c0.4,0,0.8-0.4,0.7-0.8c0-0.1,0-0.1,0-0.2l-2.6-6.4c-0.2-0.5-0.1-1,0.2-1.4 M37.5,26.1
		c0.9,0,1.6,0.7,1.6,1.6s-0.7,1.6-1.6,1.6s-1.6-0.7-1.6-1.6C35.9,26.9,36.6,26.1,37.5,26.1L37.5,26.1z M41.7,29l-2.1,2.2l-0.1,0.1
		v7.6c0.1,0.5-0.2,0.9-0.6,1.1c-0.5,0.1-0.9-0.2-1.1-0.6c0-0.1,0-0.3,0-0.4v-3.1h-0.6v3.1c0.1,0.5-0.2,0.9-0.7,1
		c-0.5,0.1-0.9-0.2-1-0.7c0-0.1,0-0.2,0-0.4v-7.7L33.4,29c-0.3-0.3-0.3-0.7,0-0.9c0,0,0,0,0,0c0.3-0.3,0.7-0.3,0.9,0c0,0,0,0,0,0
		l2.1,2.1h2.4l2-2.1c0.3-0.3,0.7-0.3,0.9,0c0,0,0,0,0,0C42,28.4,42,28.8,41.7,29L41.7,29z"/>
	<path class="st0" d="M41.3,16.7c-1.3,0-2.3,1-2.3,2.3c0,1.3,1,2.3,2.3,2.3c1.3,0,2.3-1,2.3-2.3l0,0C43.6,17.7,42.5,16.7,41.3,16.7z
		"/>
	<path class="st0" d="M33.4,14.3c-1.3,0-2.3,1-2.3,2.3s1,2.3,2.3,2.3c1.3,0,2.3-1,2.3-2.2C35.7,15.4,34.7,14.4,33.4,14.3
		C33.4,14.3,33.4,14.3,33.4,14.3z"/>
	<path class="st1" d="M33.8,38.3v-7.1c0-0.1,0-0.2,0-0.2h-0.6v8.1c0,0.5-0.4,0.9-0.8,1h3C34.5,40,33.8,39.3,33.8,38.3z"/>
	<path class="st1" d="M41.6,39.1v-5.5h-0.7v4.6c0,0.9-0.7,1.7-1.6,1.8h3.1C41.9,40,41.6,39.6,41.6,39.1z"/>
	<path class="st1" d="M53.5,20.5L38,10.1c-0.5-0.4-1.3-0.4-1.8,0l-14.6,9.9c1.1,1.1,1.7,2.6,1.7,4.2v15.6c0,0.2,0,0.3-0.1,0.5h8.7
		c-0.5-0.1-0.8-0.5-0.8-1V22h-0.8v8.2c0,0.5-0.4,0.8-0.8,0.8c-0.5,0-0.8-0.4-0.8-0.8v-9.3c0-0.5,0.4-0.8,0.8-0.8h7.6
		c0.6,0,1,0.4,1,1v1h5.1c0.2,0,0.5,0,0.7,0.1c0.2,0.1,0.3,0.2,0.4,0.4l2.9,6.6c0.2,0.4,0,0.9-0.4,1.1c0,0,0,0-0.1,0
		c-0.4,0.1-0.9-0.1-1.1-0.5L43.5,25h-0.1c-0.3,0.4-0.3,0.9-0.1,1.4l2.6,6.3c0.1,0.4-0.1,0.8-0.5,1c-0.1,0-0.1,0-0.2,0h-1.4v5.4
		c0,0.5-0.4,0.9-0.8,1h9.7c0.9,0,1.6-0.7,1.6-1.6V21.8C54.2,21.3,53.9,20.8,53.5,20.5z M33.4,18.9c-1.3,0-2.3-1-2.3-2.3
		c0-1.3,1-2.3,2.3-2.3c1.3,0,2.3,1,2.3,2.3c0,0,0,0.1,0,0.1C35.6,17.9,34.6,18.9,33.4,18.9z M41.3,21.2c-1.3,0-2.3-1-2.3-2.3
		c0-1.3,1-2.3,2.3-2.3c1.3,0,2.3,1,2.3,2.3l0,0C43.6,20.2,42.6,21.2,41.3,21.2C41.3,21.2,41.3,21.2,41.3,21.2L41.3,21.2z"/>
	<path class="st1" d="M40.8,28.1l-2,2.1h-2.4l-2.1-2.1c-0.3-0.3-0.7-0.3-0.9,0c0,0,0,0,0,0c-0.3,0.3-0.3,0.7,0,0.9c0,0,0,0,0,0
		l2.1,2.1v7.7c-0.1,0.5,0.2,0.9,0.7,1c0.5,0.1,0.9-0.2,1-0.7c0-0.1,0-0.2,0-0.4v-3.1h0.6v3.1c-0.1,0.5,0.2,0.9,0.6,1.1
		c0.5,0.1,0.9-0.2,1.1-0.6c0-0.1,0-0.3,0-0.4v-7.6l0.1-0.1l2.1-2.2c0.3-0.3,0.3-0.7,0-0.9c0,0,0,0,0,0
		C41.5,27.8,41.1,27.8,40.8,28.1C40.8,28.1,40.8,28.1,40.8,28.1z"/>
	<path class="st1" d="M37.5,29.4c0.9,0,1.6-0.7,1.6-1.6s-0.7-1.6-1.6-1.6c-0.9,0-1.6,0.7-1.6,1.6C35.9,28.6,36.6,29.4,37.5,29.4
		L37.5,29.4z"/>
	<path class="st1" d="M60.3,15.3l-0.2-0.1l-6-4V4.4c0-0.4-0.3-0.7-0.6-0.7c0,0,0,0,0,0h-4.1c-0.4,0-0.7,0.3-0.7,0.7v3.1L38,0.3
		c-0.5-0.4-1.3-0.4-1.8,0L14.1,15.2c-0.5,0.3-0.7,0.9-0.7,1.5c2.3,0.1,4.5,0.7,6.5,1.8l16.4-11c0.5-0.4,1.3-0.4,1.8,0L56.5,20
		c0.7,0.4,1.6,0.3,2.1-0.3l1.8-2.1C61.1,16.9,61,15.9,60.3,15.3z"/>
	<path class="st1" d="M22.2,22.8c0-0.1-0.1-0.3-0.1-0.4c-0.3-0.7-0.7-1.3-1.1-1.8l-0.1-0.1c-0.5-0.6-1.2-1-1.9-1.4
		c-0.6-0.3-1.2-0.6-1.8-0.8c-0.5-0.2-1-0.3-1.5-0.4c-0.5-0.1-1.1-0.2-1.7-0.2l-1.3-0.1c-0.4,0-0.9,0-1.4,0h-0.1
		c-1.5,0-3.1,0.1-4.6,0.4c-0.8,0.2-1.6,0.4-2.4,0.8c-0.7,0.3-1.3,0.7-1.9,1.1c-0.3,0.2-0.5,0.4-0.8,0.7C0.5,21.6,0,22.8,0,24.1v15.6
		l0,0C0,39.8,0.1,40,0.3,40c0,0,0,0,0,0h2.3c0.1,0,0.3-0.1,0.3-0.2c0,0,0,0,0,0v-3.4h16.7v3.4c0,0.1,0.1,0.3,0.2,0.3c0,0,0,0,0,0
		h2.3c0.1,0,0.1,0,0.2-0.1c0.1-0.1,0.1-0.1,0.1-0.2V24.1c0-0.1,0-0.2,0-0.3C22.3,23.4,22.3,23.1,22.2,22.8z M12.5,25.5
		c0-0.4,0.3-0.7,0.7-0.7h5.6c0.1,0,0.2,0,0.3,0.1c0.1,0,0.2,0.1,0.2,0.1c0.1,0.1,0.2,0.3,0.2,0.5v2.9l0,0l-1-0.2l-0.8-0.2l-1-0.2
		L16,27.8l-1-0.1l-0.8,0l-1.6-0.1h-0.1L12.5,25.5z M2.8,25.5c0-0.2,0.1-0.4,0.2-0.5c0.1-0.1,0.1-0.1,0.2-0.1c0.1,0,0.2-0.1,0.3-0.1
		h5.7c0.2,0,0.4,0.1,0.5,0.2c0.1,0.1,0.2,0.3,0.2,0.5v2c-0.7,0-1.4,0.1-2.1,0.1c-1.7,0.1-3.3,0.4-4.9,0.7V25.5z M21.8,32.6H0.6v-3.1
		L1,29.4c0.3-0.1,0.7-0.2,1.2-0.3s1.2-0.3,2-0.4s1.5-0.2,2.3-0.3c0.4,0,0.8-0.1,1.2-0.1h0.4l1.2-0.1h0.2h1.3h0.6c0.5,0,1,0,1.5,0
		h0.2c0.6,0,1.1,0.1,1.8,0.1h0.4c0.6,0.1,1.2,0.1,1.8,0.2h0.2c0.6,0.1,1.3,0.2,2,0.4l0.5,0.1l0.4,0.1c0.6,0.1,1.1,0.3,1.7,0.4
		L21.8,32.6z"/>
	<path class="st2" d="M19.5,28.4L19.5,28.4z"/>
</g>
</svg>
