<?xml version="1.0" encoding="utf-8"?>
<!-- Generator: Adobe Illustrator 24.2.0, SVG Export Plug-In . SVG Version: 6.00 Build 0)  -->
<svg version="1.1" id="Calque_1" xmlns="http://www.w3.org/2000/svg" xmlns:xlink="http://www.w3.org/1999/xlink" x="0px" y="0px"
	 viewBox="0 0 43.4 36.7" style="enable-background:new 0 0 43.4 36.7;" xml:space="preserve">
<style type="text/css">
	.st0{fill:#4B0082;}
</style>
<g>
	<path class="st0" d="M18.6,35v-6.5c0-0.1,0-0.1,0-0.2h-0.5v7.4c0,0.5-0.3,0.8-0.8,0.9h2.7C19.2,36.5,18.6,35.8,18.6,35z"/>
	<path class="st0" d="M25.8,35.7v-4.9h-0.6V35c0,0.8-0.6,1.5-1.4,1.7h2.8C26.1,36.5,25.8,36.2,25.8,35.7z"/>
	<path class="st0" d="M36.6,18.7L22.5,9.2c-0.5-0.3-1.1-0.3-1.6,0L6.8,18.7C6.4,19,6.1,19.5,6.2,20v15.2c0,0.8,0.7,1.5,1.5,1.5
		c0,0,0,0,0,0H17c-0.4-0.1-0.7-0.5-0.8-0.9V20.1h-0.7v7.5c0,0.4-0.3,0.8-0.8,0.8S14,28,14,27.6v-8.4c0-0.4,0.3-0.8,0.8-0.8h6.9
		c0.5,0,0.9,0.4,0.9,0.9v0.9h4.7c0.2,0,0.4,0,0.6,0.1c0.2,0.1,0.3,0.2,0.3,0.4l2.6,6c0.2,0.4,0,0.8-0.4,1c0,0,0,0,0,0
		c-0.4,0.1-0.8-0.1-1-0.5l-1.9-4.4c0,0,0,0-0.1,0c0,0,0,0,0,0c-0.2,0.4-0.3,0.8-0.1,1.2l2.4,5.8c0.1,0.4,0,0.8-0.4,0.9
		c-0.1,0-0.2,0.1-0.3,0.1h-1.3v4.9c0,0.4-0.3,0.8-0.8,0.9h8.8c0.8,0,1.5-0.7,1.5-1.5c0,0,0,0,0,0V20C37.2,19.5,37,19,36.6,18.7z
		 M18.3,17.3c-1.1,0-2.1-0.9-2.1-2.1s0.9-2.1,2.1-2.1s2.1,0.9,2.1,2.1c0,0,0,0,0,0C20.3,16.3,19.4,17.3,18.3,17.3z M25.5,19.4
		c-1.1,0-2.1-0.9-2.1-2.1c0-1.1,0.9-2.1,2.1-2.1s2.1,0.9,2.1,2.1l0,0C27.6,18.4,26.6,19.4,25.5,19.4z"/>
	<path class="st0" d="M25,25.7l-1.9,1.9H21l-1.9-1.9c-0.2-0.2-0.6-0.2-0.9,0c-0.2,0.2-0.2,0.6,0,0.8l1.9,1.9v7
		c-0.1,0.4,0.1,0.9,0.6,1c0.4,0.1,0.9-0.1,1-0.6c0-0.1,0-0.3,0-0.4v-2.8h0.6v2.8c-0.1,0.4,0.1,0.9,0.6,1c0.4,0.1,0.9-0.1,1-0.6
		c0-0.1,0-0.3,0-0.4v-7l0.1-0.1l2-2c0.2-0.2,0.2-0.6,0-0.8C25.7,25.3,25.3,25.3,25,25.7L25,25.7z"/>
	<path class="st0" d="M22.1,26.8c0.8,0,1.5-0.7,1.5-1.5s-0.7-1.5-1.5-1.5c-0.8,0-1.5,0.7-1.5,1.5v0C20.6,26.1,21.3,26.8,22.1,26.8z"
		/>
	<path class="st0" d="M22.1,23.9c0.8,0,1.5,0.7,1.5,1.5s-0.7,1.5-1.5,1.5c-0.8,0-1.5-0.7-1.5-1.5c0,0,0,0,0,0
		C20.6,24.5,21.2,23.9,22.1,23.9C22.1,23.9,22.1,23.9,22.1,23.9z M25.9,26.5l-2,2l-0.1,0.1v7c0.1,0.4-0.1,0.9-0.6,1
		c-0.4,0.1-0.9-0.1-1-0.6c0-0.1,0-0.3,0-0.4v-2.9h-0.6v2.8c0.1,0.4-0.1,0.9-0.6,1c-0.4,0.1-0.9-0.1-1-0.6c0-0.1,0-0.3,0-0.4v-7
		l-1.9-2c-0.2-0.2-0.2-0.6,0-0.8c0.2-0.2,0.6-0.2,0.9,0l1.9,1.9h2.2l1.9-1.9c0.2-0.2,0.6-0.2,0.9,0C26.1,25.9,26.1,26.3,25.9,26.5
		L25.9,26.5z"/>
	<path class="st0" d="M42.9,14l-0.2-0.1l-5.5-3.7V4c0-0.3-0.3-0.6-0.6-0.6l0,0H33c-0.3,0-0.6,0.3-0.6,0.6v0v2.9l-9.8-6.6
		c-0.5-0.3-1.1-0.3-1.6,0L0.7,13.9c-0.7,0.4-0.9,1.3-0.4,2c0,0,0,0,0,0.1l0.1,0.2L2.1,18c0.5,0.5,1.3,0.6,1.9,0.2L20.9,6.9
		c0.5-0.3,1.1-0.3,1.6,0l16.9,11.4c0.6,0.4,1.4,0.3,1.9-0.3l1.6-1.9C43.5,15.5,43.5,14.6,42.9,14C42.9,14,42.9,14,42.9,14z"/>
</g>
</svg>
