<?xml version="1.0" encoding="utf-8"?>
<!-- Generator: Adobe Illustrator 24.2.0, SVG Export Plug-In . SVG Version: 6.00 Build 0)  -->
<svg version="1.1" id="Calque_1" xmlns="http://www.w3.org/2000/svg" xmlns:xlink="http://www.w3.org/1999/xlink" x="0px" y="0px"
	 viewBox="0 0 36.1 36.7" style="enable-background:new 0 0 36.1 36.7;" xml:space="preserve">
<style type="text/css">
	.st0{fill:none;}
	.st1{fill:#4B0082;}
</style>
<path class="st0" d="M8.2,13.7c-0.9,0-1.6,0.7-1.6,1.6V17c0,0.9,0.7,1.6,1.6,1.6c0.9,0,1.6-0.7,1.6-1.6v-1.6
	C9.9,14.4,9.2,13.7,8.2,13.7z"/>
<rect x="13" y="7.5" class="st0" width="10" height="1.3"/>
<path class="st0" d="M8.2,26.8c-0.9,0-1.6,0.7-1.6,1.6v1.6c0,0.9,0.7,1.6,1.6,1.6c0.9,0,1.6-0.7,1.6-1.6v-1.6
	C9.9,27.5,9.2,26.8,8.2,26.8C8.2,26.8,8.2,26.8,8.2,26.8z"/>
<path class="st0" d="M8.2,20.2c-0.9,0-1.6,0.7-1.6,1.6v1.6c0,0.9,0.7,1.6,1.6,1.6c0.9,0,1.6-0.7,1.6-1.6v-1.6
	C9.9,21,9.2,20.3,8.2,20.2z"/>
<path class="st0" d="M27.9,13.7c-0.9,0-1.6,0.7-1.6,1.6V17c0.1,0.9,0.9,1.6,1.8,1.5c0.8-0.1,1.4-0.7,1.5-1.5v-1.6
	C29.5,14.4,28.8,13.7,27.9,13.7z"/>
<path class="st0" d="M26.8,27.5c-0.1,0-0.2,0-0.2,0c-0.2,0.3-0.3,0.6-0.3,0.9V30c0.1,0.9,0.9,1.6,1.8,1.5c0.8-0.1,1.4-0.7,1.5-1.5
	v-1.6c0-0.9-0.7-1.6-1.6-1.6c0,0,0,0,0,0c-0.2,0-0.5,0-0.7,0.1C27.2,27.2,27,27.4,26.8,27.5z"/>
<path class="st0" d="M27.9,20.2c-0.9,0-1.6,0.7-1.6,1.6v1.6c0.1,0.9,0.9,1.6,1.8,1.5c0.8-0.1,1.4-0.7,1.5-1.5v-1.6
	C29.5,21,28.8,20.3,27.9,20.2z"/>
<path class="st1" d="M18.4,26.7c0.8,0,1.5-0.7,1.5-1.5c0-0.8-0.7-1.5-1.5-1.5c-0.8,0-1.5,0.7-1.5,1.5S17.5,26.7,18.4,26.7L18.4,26.7
	z"/>
<path class="st1" d="M22.1,35.7v-5h-0.6V35c0,0.8-0.5,1.4-1.2,1.6h2.5C22.3,36.5,22.1,36.1,22.1,35.7z"/>
<path class="st1" d="M21.4,25.5l-1.9,1.9h-2.2l-1.9-1.9c-0.2-0.2-0.6-0.2-0.9,0c-0.2,0.2-0.2,0.6,0,0.9l2,2v7.1
	c-0.1,0.5,0.3,0.9,0.8,1c0,0,0,0,0,0c0.5-0.1,0.8-0.5,0.8-1v-2.9h0.6v2.8c-0.1,0.4,0.2,0.9,0.6,1c0.4,0.1,0.9-0.2,1-0.6
	c0-0.1,0-0.2,0-0.4v-7c0,0,0,0,0.1-0.1l2-2c0.2-0.2,0.2-0.6,0-0.9C22,25.3,21.6,25.3,21.4,25.5C21.4,25.5,21.4,25.5,21.4,25.5z"/>
<path class="st1" d="M14.9,35v-6.5c0-0.1,0-0.1,0-0.2h-0.5v7.5c0,0.4-0.3,0.8-0.6,0.9h2.4C15.4,36.4,14.9,35.7,14.9,35z"/>
<path class="st1" d="M23.8,22.6c-0.2,0.4-0.3,0.8-0.1,1.2l2.4,5.9c0.2,0.3,0,0.8-0.3,0.9c-0.1,0-0.2,0.1-0.3,0.1h-1.4v5
	c0,0.4-0.3,0.8-0.6,0.9h11.1c0.9,0,1.6-0.7,1.6-1.6c0-0.9-0.7-1.6-1.6-1.6v0l0,0V10.4c0-0.9-0.7-1.6-1.6-1.6h-7.2V7.5h1.2
	c0.7,0,1.2-0.6,1.2-1.2v-5c0-0.7-0.5-1.3-1.2-1.3c0,0,0,0,0,0H9.3C8.6,0,8.1,0.6,8.1,1.2v5c0,0.7,0.6,1.3,1.3,1.2h1.3v1.3H3.3
	c-0.9,0-1.6,0.7-1.6,1.6c0,0,0,0,0,0v23H1.6C0.7,33.4,0,34.1,0,35c0,0.9,0.7,1.6,1.6,1.6h11.4c-0.4-0.1-0.6-0.5-0.6-0.9V19.9h-0.7
	v7.6c0,0.4-0.3,0.8-0.8,0.8c-0.4,0-0.8-0.3-0.8-0.8v-8.6c0-0.4,0.3-0.8,0.8-0.8l0,0h7c0.5,0,0.9,0.4,0.9,0.9l0,0V20h4.7
	c0.2,0,0.4,0,0.6,0.1c0.2,0.1,0.3,0.2,0.4,0.4l2.6,6.1c0,0.1,0,0.3,0,0.5c0.2-0.1,0.4-0.1,0.7-0.1c0.9,0,1.6,0.7,1.6,1.6
	c0,0,0,0,0,0v1.6c-0.1,0.9-0.9,1.6-1.8,1.5c-0.8-0.1-1.4-0.7-1.5-1.5v-1.7c0-0.3,0.1-0.6,0.3-0.9c-0.3,0-0.6-0.2-0.7-0.5l-1.9-4.3
	L23.8,22.6z M9.9,30.1c0,0.9-0.7,1.6-1.6,1.6c-0.9,0-1.6-0.7-1.6-1.6v-1.6c0-0.9,0.7-1.6,1.6-1.6c0.9,0,1.6,0.7,1.6,1.6V30.1z
	 M9.9,23.5c0,0.9-0.7,1.6-1.6,1.6c-0.9,0-1.6-0.7-1.6-1.6v-1.6c0-0.9,0.7-1.6,1.6-1.6c0.9,0,1.6,0.7,1.6,1.6V23.5z M9.9,17
	c0,0.9-0.7,1.6-1.6,1.6c-0.9,0-1.6-0.7-1.6-1.6v-1.6c0-0.9,0.7-1.6,1.6-1.6c0.9,0,1.6,0.7,1.6,1.6V17z M14.5,17
	c-1.2,0-2.1-0.9-2.1-2.1c0-1.2,0.9-2.1,2.1-2.1c1.2,0,2.1,0.9,2.1,2.1c0,0,0,0.1,0,0.1C16.6,16.1,15.7,17,14.5,17L14.5,17z
	 M13.1,8.8V7.5h10v1.3H13.1z M21.8,19.1c-1.2,0-2.1-0.9-2.1-2.1c0-1.2,0.9-2.1,2.1-2.1c1.2,0,2.1,0.9,2.1,2.1c0,0,0,0,0,0
	C24,18.2,23,19.1,21.8,19.1C21.8,19.1,21.8,19.1,21.8,19.1L21.8,19.1z M29.5,23.5c-0.1,0.9-0.9,1.6-1.8,1.5
	c-0.8-0.1-1.4-0.7-1.5-1.5v-1.6c-0.1-0.9,0.6-1.7,1.5-1.8s1.7,0.6,1.8,1.5c0,0.1,0,0.2,0,0.3V23.5z M29.5,17
	c-0.1,0.9-0.9,1.6-1.8,1.5c-0.8-0.1-1.4-0.7-1.5-1.5v-1.6c-0.1-0.9,0.6-1.7,1.5-1.8s1.7,0.6,1.8,1.5c0,0.1,0,0.2,0,0.3V17z"/>
</svg>
