<?xml version="1.0" encoding="utf-8"?>
<!-- Generator: Adobe Illustrator 24.2.0, SVG Export Plug-In . SVG Version: 6.00 Build 0)  -->
<svg version="1.1" id="Calque_1" xmlns="http://www.w3.org/2000/svg" xmlns:xlink="http://www.w3.org/1999/xlink" x="0px" y="0px"
	 viewBox="0 0 36.1 36.6" style="enable-background:new 0 0 36.1 36.6;" xml:space="preserve">
<style type="text/css">
	.st0{fill:#4B0082;}
</style>
<path class="st0" d="M34.5,33.3L34.5,33.3l0-22.9c0-0.9-0.7-1.6-1.6-1.6h-7.2V7.5h1.3c0.7,0,1.3-0.6,1.2-1.3v-5
	c0-0.7-0.5-1.3-1.2-1.3c0,0,0,0,0,0H9.3C8.6,0,8.1,0.6,8.1,1.3l0,0v5c0,0.7,0.6,1.3,1.3,1.3h1.3v1.2H3.3c-0.9,0-1.6,0.7-1.6,1.6
	v22.9H1.6C0.7,33.3,0,34.1,0,35c0,0.9,0.7,1.6,1.6,1.6h11.5c0.9,0,1.6-0.7,1.6-1.6v-4.9h6.5V35c0,0.9,0.7,1.6,1.6,1.6h11.5
	c0.9,0,1.6-0.7,1.6-1.6C36.1,34.1,35.4,33.3,34.5,33.3z M9.9,30.1c0,0.9-0.7,1.6-1.6,1.6c-0.9,0-1.6-0.7-1.6-1.6v-1.6
	c0-0.9,0.7-1.6,1.6-1.6c0.9,0,1.6,0.7,1.6,1.6c0,0,0,0,0,0V30.1z M9.9,23.5c0,0.9-0.7,1.6-1.6,1.6c-0.9,0-1.6-0.7-1.6-1.6v-1.6
	c0-0.9,0.7-1.6,1.6-1.6c0.9,0,1.6,0.7,1.6,1.6c0,0,0,0,0,0V23.5z M9.9,17c0,0.9-0.7,1.6-1.6,1.6c-0.9,0-1.6-0.7-1.6-1.6c0,0,0,0,0,0
	v-1.6c0-0.9,0.7-1.6,1.6-1.6c0.9,0,1.6,0.7,1.6,1.6c0,0,0,0,0,0V17z M14.8,23.5c0,0.9-0.7,1.6-1.6,1.6c-0.9,0-1.6-0.7-1.6-1.6v-1.6
	c0-0.9,0.7-1.6,1.6-1.6c0.9,0,1.6,0.7,1.6,1.6V23.5z M14.8,17c0,0.9-0.7,1.6-1.6,1.6c-0.9,0-1.6-0.7-1.6-1.6v-1.7
	c0-0.9,0.7-1.6,1.6-1.6c0.9,0,1.6,0.7,1.6,1.6V17z M19.7,23.5c0.1,0.9-0.6,1.7-1.5,1.8c-0.9,0.1-1.7-0.6-1.8-1.5c0-0.1,0-0.2,0-0.3
	v-1.6c-0.1-0.9,0.6-1.7,1.5-1.8c0.9-0.1,1.7,0.6,1.8,1.5c0,0.1,0,0.2,0,0.3V23.5z M19.7,17c0.1,0.9-0.6,1.7-1.5,1.8
	c-0.9,0.1-1.7-0.6-1.8-1.5c0-0.1,0-0.2,0-0.3v-1.7c-0.1-0.9,0.6-1.7,1.5-1.8c0.9-0.1,1.7,0.6,1.8,1.5c0,0.1,0,0.2,0,0.3V17z
	 M13.1,8.8V7.5h10.1v1.2L13.1,8.8z M24.6,23.5c0,0.9-0.7,1.6-1.6,1.6s-1.6-0.7-1.6-1.6l0,0v-1.6c-0.1-0.9,0.6-1.7,1.5-1.8
	s1.7,0.6,1.8,1.5c0,0.1,0,0.2,0,0.3L24.6,23.5z M24.6,17c0.1,0.9-0.6,1.7-1.5,1.8c-0.9,0.1-1.7-0.6-1.8-1.5c0-0.1,0-0.2,0-0.3v-1.7
	c-0.1-0.9,0.6-1.7,1.5-1.8s1.7,0.6,1.8,1.5c0,0.1,0,0.2,0,0.3V17z M29.5,30.1c0.1,0.9-0.6,1.7-1.5,1.8s-1.7-0.6-1.8-1.5
	c0-0.1,0-0.2,0-0.3v-1.7c-0.1-0.9,0.6-1.7,1.5-1.8s1.7,0.6,1.8,1.5c0,0.1,0,0.2,0,0.3V30.1z M29.5,23.5c0.1,0.9-0.6,1.7-1.5,1.8
	s-1.7-0.6-1.8-1.5c0-0.1,0-0.2,0-0.3v-1.7c-0.1-0.9,0.6-1.7,1.5-1.8s1.7,0.6,1.8,1.5c0,0.1,0,0.2,0,0.3V23.5z M29.5,17
	c0.1,0.9-0.6,1.7-1.5,1.8s-1.7-0.6-1.8-1.5c0-0.1,0-0.2,0-0.3v-1.7c-0.1-0.9,0.6-1.7,1.5-1.8s1.7,0.6,1.8,1.5c0,0.1,0,0.2,0,0.3V17z
	"/>
</svg>
