<?xml version="1.0" encoding="utf-8"?>
<!-- Generator: Adobe Illustrator 24.2.0, SVG Export Plug-In . SVG Version: 6.00 Build 0)  -->
<svg version="1.1" id="Calque_1" xmlns="http://www.w3.org/2000/svg" xmlns:xlink="http://www.w3.org/1999/xlink" x="0px" y="0px"
	 viewBox="0 0 43.3 36.6" style="enable-background:new 0 0 43.3 36.6;" xml:space="preserve">
<style type="text/css">
	.st0{fill:#4B0082;}
</style>
<g>
	<path class="st0" d="M36.5,18.7L22.5,9.2c-0.5-0.3-1.2-0.3-1.7,0L6.8,18.7c-0.4,0.3-0.6,0.7-0.6,1.2v15.2c0,0.8,0.6,1.5,1.4,1.5
		c0,0,0,0,0,0h4.1V24.8c0-0.4,0.3-0.7,0.6-0.7c0,0,0,0,0,0h4.8c0.4,0,0.7,0.3,0.7,0.7l0,0v11.8h17.9c0.8,0,1.5-0.7,1.5-1.5
		c0,0,0,0,0,0l0,0V19.9C37.2,19.4,36.9,19,36.5,18.7z M32,28.6c0,0.3-0.2,0.5-0.5,0.5h-5.2c-0.3,0-0.5-0.2-0.5-0.5c0,0,0,0,0,0l0,0
		v-4.5c0-0.3,0.2-0.5,0.5-0.5c0,0,0,0,0,0h5.2c0.3,0,0.5,0.2,0.5,0.5c0,0,0,0,0,0l0,0L32,28.6z"/>
	<path class="st0" d="M42.7,13.9l-5.5-3.7V4c0-0.3-0.3-0.6-0.6-0.6l0,0h-3.7c-0.3,0-0.6,0.3-0.6,0.6l0,0v2.9l-9.8-6.6
		c-0.5-0.3-1.1-0.3-1.6,0L0.6,13.9c-0.7,0.4-0.8,1.3-0.4,2c0,0.1,0.1,0.1,0.1,0.1L2,17.9c0.5,0.6,1.3,0.7,1.9,0.3L20.8,6.9
		c0.5-0.3,1.1-0.3,1.6,0l16.9,11.3c0.6,0.4,1.4,0.3,1.9-0.2l1.6-1.9c0.5-0.6,0.5-1.5-0.1-2.1c0,0,0,0,0,0L42.7,13.9z"/>
</g>
</svg>
