<?xml version="1.0" encoding="utf-8"?>
<!-- Generator: Adobe Illustrator 24.2.0, SVG Export Plug-In . SVG Version: 6.00 Build 0)  -->
<svg version="1.1" id="Calque_1" xmlns="http://www.w3.org/2000/svg" xmlns:xlink="http://www.w3.org/1999/xlink" x="0px" y="0px"
	 viewBox="0 0 25.5 36.6" style="enable-background:new 0 0 25.5 36.6;" xml:space="preserve">
<style type="text/css">
	.st0{fill:#4B0082;}
</style>
<g>
	<path class="st0" d="M14.5,0.9c-0.4-0.6-1-0.9-1.7-0.9l0,0c-0.7,0-1.4,0.3-1.7,0.9L8.9,4.2h7.8L14.5,0.9z"/>
	<polygon class="st0" points="22,12.3 3.6,12.3 0,17.7 25.5,17.7 	"/>
	<polygon class="st0" points="17.4,5.3 8.1,5.3 4.3,11.2 21.2,11.2 	"/>
	<path class="st0" d="M24.2,18.8h-23v16.3c3.7,1,7.6,1.6,11.5,1.5c3.9,0,7.8-0.6,11.5-1.5V18.8z M17,30.2c0.1,2.3-1.7,4.3-4,4.5
		c-2.3,0.1-4.3-1.7-4.5-4c0-0.1,0-0.3,0-0.4v-4.9c0.1-2.3,2.1-4.2,4.5-4c2.2,0.1,3.9,1.9,4,4V30.2z"/>
</g>
</svg>
