<?xml version="1.0" encoding="utf-8"?>
<!-- Generator: Adobe Illustrator 24.2.0, SVG Export Plug-In . SVG Version: 6.00 Build 0)  -->
<svg version="1.1" id="Calque_1" xmlns="http://www.w3.org/2000/svg" xmlns:xlink="http://www.w3.org/1999/xlink" x="0px" y="0px"
	 viewBox="0 0 38.8 29.9" style="enable-background:new 0 0 38.8 29.9;" xml:space="preserve">
<style type="text/css">
	.st0{fill:#4B0082;}
</style>
<g>
	<path class="st0" d="M13.1,21.6v-1c0-0.2,0-0.3,0-0.5V20c0-0.1,0-0.3,0.1-0.4c0,0,0-0.1,0-0.1c0-0.2,0.1-0.3,0.1-0.5v-0.1
		c0-0.1,0.1-0.3,0.1-0.4l0.1-0.1c0-0.1,0.1-0.2,0.2-0.3l0.1-0.1c0.1-0.1,0.2-0.3,0.3-0.4c0.1-0.2,0.2-0.3,0.4-0.5l0.1-0.2
		c0.1-0.1,0.2-0.2,0.3-0.3l0.2-0.2l0.3-0.2l0.2-0.1c0.2-0.1,0.3-0.2,0.5-0.3l0.1-0.1l0.5-0.2l0.2-0.1c0.1,0,0.3-0.1,0.4-0.1l0.2-0.1
		c0.1,0,0.3-0.1,0.5-0.1h0.2c0.2,0,0.4,0,0.7,0H20c0.2,0,0.4,0,0.7,0h0.2c0.1,0,0.3,0,0.4,0.1l0.2,0.1l0.4,0.1l0.2,0.1
		c0.2,0.1,0.3,0.1,0.5,0.2l0.1,0.1c0.2,0.1,0.3,0.2,0.5,0.3l0.2,0.1l0.3,0.2l0.2,0.2l0.3,0.3l0.2,0.2c0.1,0.2,0.3,0.3,0.4,0.5
		s0.2,0.3,0.2,0.4L25,18c0.1,0.1,0.1,0.2,0.2,0.3l0.1,0.1c0,0.1,0.1,0.2,0.1,0.4v0.1c0,0.2,0.1,0.3,0.1,0.5c0,0,0,0.1,0,0.1l0.1,0.4
		v0.2c0,0.2,0,0.3,0,0.5v4.9H24v-4c0-2.5-2.1-4.6-4.6-4.6s-4.6,2.1-4.6,4.6l0,0l0,0v4.1h-1.7V21.6z"/>
	<path class="st0" d="M37.1,29.9H1.7c-0.9,0-1.7-0.8-1.7-1.7c0-0.9,0.8-1.7,1.7-1.7h35.4c0.9,0,1.7,0.8,1.7,1.7
		C38.8,29.1,38.1,29.9,37.1,29.9z"/>
	<path class="st0" d="M9.1,3.2L9.5,3l0.3-0.2l0.4-0.2l0.3-0.2l0.4-0.2l0.3-0.1l0.4-0.2l0.3-0.1l0.5-0.2l0.2-0.1l0.7-0.3l0.2-0.1
		l0.5-0.2l0.3-0.1l0.5-0.1l0.3-0.1l0.4-0.1l0.3-0.1l0.4-0.1l0.3-0.1l0.4-0.1h0.3l0.5-0.1h0.3h0.5h0.4v3.4h-10l0.1-0.1L9.1,3.2z"/>
	<path class="st0" d="M20.4,0.1h0.5h0.3l0.5,0.1H22l0.5,0.1l0.3,0.1l0.4,0.1l0.3,0.1L24,0.5l0.3,0.1l0.5,0.1L25,0.8L25.6,1l0.1,0.1
		c0.2,0.1,0.5,0.2,0.7,0.3h0.1l0.6,0.2l0.2,0.1l0.5,0.2L28,2.1l0.4,0.2l0.2,0.1l0.4,0.2l0.2,0.2l0.4,0.3L30,3.3l0.1,0.1H19.7V0h0.5
		L20.4,0.1z"/>
	<path class="st0" d="M5,7.2C5.1,7,5.3,6.8,5.5,6.5l0.3-0.3C6,5.9,6.3,5.7,6.5,5.4l0.2-0.2C7,4.9,7.3,4.7,7.6,4.4h4.8v3.5H4.5
		c0.1-0.1,0.1-0.2,0.2-0.3L5,7.2z"/>
	<path class="st0" d="M24.7,4.4v3.5H13.4V4.4H24.7z"/>
	<path class="st0" d="M32.2,5.3c0.2,0.2,0.5,0.5,0.7,0.7l0.2,0.2l0.4,0.5L33.7,7l0.4,0.5l0.2,0.2l0.1,0.1h-8.7V4.4h5.6l0.3,0.2
		l0.1,0.1C31.8,4.9,32,5.1,32.2,5.3z"/>
	<path class="st0" d="M34.9,8.8c0.1,0.2,0.3,0.5,0.4,0.7l0.1,0.1c0.2,0.3,0.3,0.6,0.5,1l0.1,0.3c0.1,0.2,0.2,0.5,0.3,0.7l0.1,0.4
		c0,0.1,0.1,0.2,0.1,0.3h-4.9V8.8H34.9z"/>
	<path class="st0" d="M30.8,12.3H19.7V8.8h11L30.8,12.3z"/>
	<path class="st0" d="M18.8,8.8v3.5H7.9V8.8H18.8z"/>
	<path class="st0" d="M2.5,11.6c0.1-0.2,0.2-0.5,0.3-0.7l0.1-0.3c0.1-0.3,0.3-0.7,0.5-1l0.1-0.1C3.6,9.3,3.8,9,3.9,8.8h3v3.5H2.3
		c0-0.1,0.1-0.2,0.1-0.3C2.4,11.9,2.5,11.8,2.5,11.6z"/>
	<path class="st0" d="M12.4,13.3v3.5h-11c0-0.1,0-0.2,0-0.4c0-0.1,0-0.2,0-0.3c0-0.3,0.1-0.5,0.1-0.8c0-0.1,0-0.1,0-0.2
		c0.1-0.3,0.1-0.6,0.2-1c0-0.1,0-0.2,0.1-0.3c0-0.2,0.1-0.3,0.1-0.5L12.4,13.3z"/>
	<path class="st0" d="M24.2,15.5c-0.1-0.1-0.3-0.2-0.4-0.3L23.5,15c-0.1-0.1-0.3-0.2-0.4-0.2l-0.3-0.1l-0.4-0.2l-0.3-0.1l-0.5-0.1
		l-0.3-0.1L21,14.1h-0.2C20.5,14,20.2,14,20,14h-1.2c-0.2,0-0.5,0-0.7,0h-0.2c-0.2,0-0.3,0-0.5,0.1l-0.3,0.1l-0.4,0.1l-0.3,0.1
		L16,14.6l-0.3,0.1L15.3,15L15,15.2c-0.2,0.1-0.3,0.2-0.4,0.3c-0.1,0.1-0.2,0.1-0.2,0.2L14.1,16l-0.2,0.2c-0.1,0.1-0.2,0.2-0.3,0.4
		c0,0-0.1,0.1-0.1,0.1h-0.1v-3.5h11.3v2.6l-0.2-0.2L24.2,15.5z"/>
	<path class="st0" d="M25.6,13.3h11.2c0,0.2,0.1,0.3,0.1,0.5c0,0.1,0,0.2,0.1,0.3c0.1,0.3,0.1,0.6,0.2,1c0,0.1,0,0.1,0,0.2
		c0.1,0.3,0.1,0.5,0.1,0.8c0,0.1,0,0.2,0,0.3c0,0.1,0,0.2,0,0.4H25.6V13.3z"/>
	<path class="st0" d="M31.7,17.7h5.7v3.5h-5.7V17.7z"/>
	<path class="st0" d="M26.6,20.6c0-0.2,0-0.5,0-0.7c0-0.1,0-0.1,0-0.2c0-0.2,0-0.3-0.1-0.5c0-0.1,0-0.2-0.1-0.3
		c0-0.1-0.1-0.3-0.1-0.4l-0.1-0.3c0-0.1-0.1-0.3-0.2-0.4s0-0.1-0.1-0.2h4.8v3.5h-4.2V20.6z"/>
	<path class="st0" d="M7.9,17.7h5c0,0.1,0,0.1-0.1,0.1c-0.1,0.1-0.1,0.3-0.2,0.4s-0.1,0.2-0.1,0.3s-0.1,0.3-0.1,0.4
		c0,0.2,0,0.2-0.1,0.3l-0.1,0.5c0,0.1,0,0.1,0,0.2c0,0.2,0,0.5,0,0.7v0.5H8L7.9,17.7z"/>
	<path class="st0" d="M1.4,18.1v-0.4h5.6v3.5H1.4V18.1z"/>
	<rect x="1.4" y="22.1" class="st0" width="10.8" height="3.4"/>
	<path class="st0" d="M26.6,22.1h10.8v3.4H26.6V22.1z"/>
</g>
</svg>
