<?xml version="1.0" encoding="utf-8"?>
<!-- Generator: Adobe Illustrator 24.2.0, SVG Export Plug-In . SVG Version: 6.00 Build 0)  -->
<svg version="1.1" id="Calque_1" xmlns="http://www.w3.org/2000/svg" xmlns:xlink="http://www.w3.org/1999/xlink" x="0px" y="0px"
	 viewBox="0 0 39.1 24.3" style="enable-background:new 0 0 39.1 24.3;" xml:space="preserve">
<style type="text/css">
	.st0{fill:none;}
	.st1{fill:#4B0082;}
	.st2{fill:#FFFFFF;}
</style>
<g>
	<polygon class="st0" points="7.9,16 7.9,16 8.5,17 8.5,17 8.5,17 9.1,16 9.1,16 	"/>
	<polygon class="st0" points="6,14.9 5.5,13.9 5.5,13.9 5.2,14.4 4.9,14.9 6,14.9 	"/>
	<path class="st0" d="M25,11.8c0-0.1-0.1-0.1-0.2-0.1h-2.6c0,0-0.1,0-0.1,0c-0.1,0-0.1,0.1-0.1,0.2v2.2c0,0.1,0.1,0.2,0.2,0.2h2.6
		c0.1,0,0.2-0.1,0.2-0.2v0v-2.2C25.1,11.9,25.1,11.8,25,11.8z"/>
	<polygon class="st0" points="4.2,16 3.1,18 4.2,20.1 6.7,20.1 7.9,18 6.7,16 	"/>
	<polygon class="st0" points="4.9,21.2 5.2,21.7 5.5,22.2 5.5,22.2 5.5,22.2 6,21.2 6,21.2 	"/>
	<polygon class="st0" points="8.5,19.1 8.5,19.1 7.9,20.1 9.1,20.1 9.1,20.1 8.5,19.1 	"/>
	<polygon class="st0" points="2.4,19.1 2.4,19.1 2.4,19.1 1.9,20.1 1.9,20.1 3,20.1 2.7,19.6 	"/>
	<polygon class="st0" points="1.9,16 2.4,17 2.4,17 2.4,17 2.7,16.5 3,16 1.9,16 	"/>
	<path class="st1" d="M32,6.5c-0.2-0.1-0.4-0.1-0.6,0l0,0c0.2,0.3,0.3,0.6,0.3,0.9c0,0.5-0.1,0.9-0.4,1.3l-0.8,0.9
		c-0.3,0.4-0.8,0.6-1.3,0.6c-0.2,0-0.3,0-0.5-0.1v5.7h7.7c0.3,0,0.5-0.2,0.5-0.5v-5.2c0-0.2-0.1-0.3-0.2-0.4L32,6.5z"/>
	<polygon class="st1" points="29.7,8.9 29.7,8.9 30.1,8.4 29.7,8.9 	"/>
	<path class="st1" d="M30.6,7L30.6,7c0.1,0.1,0.1,0.2,0.2,0.3C30.7,7.2,30.6,7.1,30.6,7z"/>
	<path class="st1" d="M27.7,9.9v5.9l0,0V9.9c0-0.1,0-0.2-0.1-0.3C27.7,9.6,27.7,9.8,27.7,9.9z"/>
	<path class="st1" d="M29.2,9.2h-0.1H29.2z"/>
	<path class="st1" d="M38.9,8.1L38.9,8.1l-1.9-1.3V4.7c0-0.1-0.1-0.2-0.2-0.2h-1.2c-0.1,0-0.2,0.1-0.2,0.2v1L32,3.5
		c-0.2-0.1-0.4-0.1-0.6,0l-2.2,1.5l1.7,1.1l0.5-0.3c0.2-0.1,0.4-0.1,0.6,0l5.7,3.9c0.2,0.1,0.5,0.1,0.7-0.1l0.6-0.6
		C39.1,8.6,39.1,8.3,38.9,8.1C38.9,8.1,38.9,8.1,38.9,8.1z"/>
	<path class="st1" d="M9.5,9.6L8.7,8.6L8.5,8.5c-0.4-0.6-0.4-1.4,0-2l0,0C8.4,6.3,8.2,6.3,8,6.5L3.2,9.7C3.1,9.8,3,10,3,10.1v4h0.2
		l1.6-2.8l0.6-1.1l0.6,1.1l1.6,2.8h3.6v-4.1c-0.2,0-0.3,0.1-0.5,0.1C10.3,10.2,9.8,9.9,9.5,9.6z"/>
	<path class="st1" d="M10.8,9.2L10.8,9.2z"/>
	<path class="st1" d="M11,9.1c0.1,0,0.2-0.1,0.2-0.1l0.6-0.4l0,0L11.2,9C11.1,9.1,11.1,9.1,11,9.1z"/>
	<polygon class="st1" points="5.5,11.7 5.5,11.7 7.3,14.9 	"/>
	<polygon class="st1" points="5.5,13.9 5.2,14.4 5.5,13.9 	"/>
	<polygon class="st1" points="13.1,4.5 11.9,5.3 11.9,5.3 13.1,4.5 	"/>
	<path class="st1" d="M1.1,8.8l0.6,0.6c0.2,0.2,0.4,0.2,0.7,0.1L8,5.7c0.2-0.1,0.4-0.1,0.6,0l0.5,0.3l1.7-1.1L8.6,3.5
		C8.4,3.4,8.2,3.4,8,3.5L1.2,8C0.9,8.2,0.9,8.5,1.1,8.8C1,8.7,1,8.7,1.1,8.8C1,8.8,1,8.8,1.1,8.8z"/>
	<polygon class="st1" points="10,6.6 10,6.6 11.6,5.5 	"/>
	<path class="st1" d="M27.6,9.5c0-0.1-0.1-0.2-0.2-0.2l-0.1-0.1l-0.6-0.4L25,7.7l-4.9-3.3c-0.1,0-0.2,0-0.4,0l-4.9,3.3l-1.7,1.1
		l-0.6,0.4l-0.1,0.1c-0.2,0.1-0.3,0.3-0.3,0.5v7.6c0,0.1,0,0.2,0.1,0.3c0.1,0.3,0.4,0.4,0.7,0.5h2v-5.8c0-0.2,0.1-0.3,0.3-0.3h2.4
		c0.2,0,0.3,0.1,0.3,0.3v5.8H27c0.4,0,0.7-0.3,0.7-0.7V9.9C27.7,9.8,27.7,9.6,27.6,9.5z M24.9,14.4h-2.6c-0.1,0-0.2-0.1-0.2-0.2V12
		c0-0.1,0.1-0.2,0.1-0.2c0,0,0.1,0,0.1,0h2.6c0.1,0,0.2,0.1,0.2,0.2v0v2.2C25.1,14.3,25,14.4,24.9,14.4z"/>
	<polygon class="st2" points="11.9,8.5 11.9,8.5 12.4,8.2 14,7.1 12.4,8.2 	"/>
	<polygon class="st2" points="19.3,3.6 19.3,3.6 14,7.1 	"/>
	<path class="st1" d="M28.8,9c0.1,0,0.1,0.1,0.2,0.1h0.2h0.2h0.1c0.1,0,0.2-0.1,0.2-0.2l0,0l0.4-0.5L30.5,8c0.1-0.1,0.1-0.2,0.2-0.3
		c0-0.1,0-0.2,0-0.4c0-0.1-0.1-0.2-0.2-0.3c0,0,0-0.1-0.1-0.1l-0.1-0.1L30,6.7l-1.6-1.2l-0.6-0.4V2c0-0.2-0.2-0.3-0.3-0.3
		c0,0,0,0,0,0h-1.8c-0.2,0-0.3,0.1-0.3,0.3c0,0,0,0,0,0v1.4l0,0l-4.9-3.3C20.2,0,20.1,0,19.9,0c-0.1,0-0.3,0-0.4,0.1l-6.5,4.4
		l-1.2,0.8l-0.3,0.2L9.9,6.6L9.5,6.9C9.5,6.9,9.4,7,9.4,7L9.3,7.1c-0.2,0.2-0.2,0.6,0,0.8c0,0,0,0.1,0,0.1l0.8,0.9l0,0
		C10.2,9,10.3,9,10.4,9.1h0.1h0.2h0.2C11,9.1,11,9,11.1,9l0.6-0.4l0.1-0.1l0.5-0.3l1.6-1.1l5.2-3.5l0.3-0.2c0.2-0.2,0.6-0.2,0.8,0
		l0.3,0.2l5.2,3.5l1.7,1.1l0.5,0.3l0.1,0.1L28.8,9L28.8,9z"/>
	<path class="st1" d="M10.4,15.8l0.5-0.9H7.3l-1.8-3.2l-1.8,3.2H0l0.2,0.4l0.2,0.4l0.7,1.2L1.8,18L0,21.2h3.6l1.8,3.2l1.8-3.2h3.6
		L9.1,18L10.4,15.8z M5.2,14.4l0.3-0.5l0,0l0.6,1H4.9L5.2,14.4z M1.9,20.1L1.9,20.1l0.6-1l0,0l0.3,0.5L3,20.1L1.9,20.1z M2.7,16.5
		L2.4,17l0,0l-0.6-1H3L2.7,16.5z M5.4,22.2L5.4,22.2l-0.3-0.5l-0.3-0.5H6L5.4,22.2z M6.7,20.1H4.2L3.1,18L4.2,16h2.4L7.9,18
		L6.7,20.1z M9,20.1H7.9l0.6-1l0,0L9,20.1z M8.5,17L8.5,17l-0.6-1h1.2L8.5,17z"/>
</g>
</svg>
