<?xml version="1.0" encoding="utf-8"?>
<!-- Generator: Adobe Illustrator 24.2.0, SVG Export Plug-In . SVG Version: 6.00 Build 0)  -->
<svg version="1.1" id="Calque_1" xmlns="http://www.w3.org/2000/svg" xmlns:xlink="http://www.w3.org/1999/xlink" x="0px" y="0px"
	 viewBox="0 0 12.3 36.1" style="enable-background:new 0 0 12.3 36.1;" xml:space="preserve">
<style type="text/css">
	.st0{fill:#4B0082;}
</style>
<g>
	<rect x="1.5" y="10.5" class="st0" width="9.4" height="2"/>
	<rect y="34.2" class="st0" width="12.3" height="2"/>
	<path class="st0" d="M10.8,23.5H1.6l-0.4,4h3.4c0.4-0.3,1-0.5,1.5-0.5c0.5,0,1.1,0.2,1.5,0.5h3.5L10.8,23.5z"/>
	<polygon class="st0" points="1.7,22.3 10.6,22.3 10.2,18.3 2.1,18.3 	"/>
	<polygon class="st0" points="10.1,17.1 9.8,13.6 2.5,13.6 2.2,17.1 	"/>
	<path class="st0" d="M2.6,4.4v4.8h7V4.4H2.6z M6.2,7.6c-0.5,0-1-0.4-1-0.9s0.4-1,0.9-1c0,0,0,0,0,0c0.5,0,0.9,0.4,0.9,0.9
		C7.1,7.2,6.7,7.6,6.2,7.6C6.2,7.6,6.2,7.6,6.2,7.6z"/>
	<path class="st0" d="M10.8,3.2C10.4,1.3,8.7,0,6.8,0H5.5c-1.9,0-3.6,1.3-4,3.2H10.8z"/>
	<path class="st0" d="M3.6,33v-3.3c0-0.3,0.1-0.6,0.2-0.9H1.1L0.7,33H3.6z"/>
	<path class="st0" d="M8.8,33h2.9l-0.4-4.2H8.6c0.1,0.3,0.2,0.6,0.2,0.9L8.8,33z"/>
</g>
</svg>
