<?xml version="1.0" encoding="utf-8"?>
<!-- Generator: Adobe Illustrator 24.2.0, SVG Export Plug-In . SVG Version: 6.00 Build 0)  -->
<svg version="1.1" id="Calque_1" xmlns="http://www.w3.org/2000/svg" xmlns:xlink="http://www.w3.org/1999/xlink" x="0px" y="0px"
	 viewBox="0 0 51.1 36.6" style="enable-background:new 0 0 51.1 36.6;" xml:space="preserve">
<style type="text/css">
	.st0{fill:#4B0082;}
	.st1{fill:none;}
</style>
<g>
	<path class="st0" d="M37.8,22.3c0.1,0,0.2-0.1,0.2-0.1c0.1-0.1,0.1-0.3,0-0.4c0,0,0,0,0,0L25.8,9.6c-0.1-0.1-0.3-0.1-0.4,0
		c0,0,0,0,0,0L13.2,21.8c-0.1,0.1-0.1,0.3,0,0.4c0.1,0.1,0.3,0.1,0.4,0c0,0,0,0,0,0l12-12l12,12C37.5,22.2,37.7,22.3,37.8,22.3z"/>
	<rect x="5.4" y="24.2" class="st1" width="1.8" height="4.9"/>
	<rect x="7.7" y="24.2" class="st1" width="1.8" height="4.9"/>
	<rect x="5.4" y="12.1" class="st1" width="1.8" height="3.4"/>
	<rect x="7.7" y="12.1" class="st1" width="1.8" height="3.4"/>
	<rect x="10.1" y="24.2" class="st1" width="1.8" height="4.9"/>
	<rect x="39.3" y="12.1" class="st1" width="1.8" height="3.4"/>
	<rect x="44" y="24.2" class="st1" width="1.8" height="4.9"/>
	<rect x="44" y="12.1" class="st1" width="1.8" height="3.4"/>
	<rect x="39.3" y="24.2" class="st1" width="1.8" height="4.9"/>
	<rect x="41.6" y="12.1" class="st1" width="1.8" height="3.4"/>
	<rect x="10.1" y="12.1" class="st1" width="1.8" height="3.4"/>
	<rect x="41.6" y="24.2" class="st1" width="1.8" height="4.9"/>
	<path class="st1" d="M25.8,18.8c1.2-0.1,2.1-1,2.2-2.2h-2.2V18.8z"/>
	<path class="st1" d="M23.1,16.1h2.2v-2.2C24.1,14,23.2,14.9,23.1,16.1z"/>
	<path class="st1" d="M25.8,13.9v2.2H28C27.9,14.9,27,14,25.8,13.9z"/>
	<path class="st1" d="M25.3,18.8v-2.2h-2.2C23.3,17.8,24.1,18.7,25.3,18.8z"/>
	<path class="st0" d="M23,10.2H2.3v22h12.9V21.9l-0.9,0.9c-0.5,0.6-1.4,0.6-1.9,0.1c0,0,0,0-0.1-0.1c-0.5-0.6-0.5-1.4,0-2L23,10.2z
		 M7.1,29.1H5.4v-4.9h1.8L7.1,29.1z M7.1,15.4H5.4v-3.3h1.8L7.1,15.4z M9.5,29.1H7.7v-4.9h1.8L9.5,29.1z M9.5,15.4H7.7v-3.3h1.8
		L9.5,15.4z M11.8,29.1h-1.8v-4.9h1.8V29.1z M11.8,15.4h-1.8v-3.3h1.8V15.4z"/>
	<path class="st0" d="M35.4,21.4l-9.8-9.8l-9.8,9.8v0.4h19.6V21.4z M25.3,18.8c-1.1-0.2-2-1.1-2.2-2.2h2.2L25.3,18.8z M25.3,16.1
		h-2.2c0.1-1.1,1-2,2.2-2.2L25.3,16.1z M25.8,18.8v-2.2H28C27.9,17.8,27,18.7,25.8,18.8z M25.8,16.1v-2.2c1.1,0.2,2,1,2.2,2.2H25.8z
		"/>
	<path class="st0" d="M35.4,32.2v-9.8H15.8v9.9h6.4v-8.5c0-0.1,0.1-0.3,0.2-0.3c0,0,0,0,0,0h6.2c0.1,0,0.3,0.1,0.3,0.2c0,0,0,0,0,0
		v8.5H35.4z"/>
	<path class="st0" d="M36.8,22.8l-0.8-0.9v10.2h12.9v-22H28.1l10.6,10.7c0.5,0.6,0.5,1.4,0,2C38.2,23.3,37.4,23.3,36.8,22.8
		C36.8,22.8,36.8,22.8,36.8,22.8z M44,12.1h1.8v3.4H44V12.1z M44,24.2h1.8v4.9H44V24.2z M41.7,12.1h1.8v3.4h-1.8V12.1z M41.7,24.2
		h1.8v4.9h-1.8V24.2z M39.3,12.1h1.8v3.4h-1.8V12.1z M39.3,24.2h1.8v4.9h-1.8V24.2z"/>
	<path class="st0" d="M1,9.1h23.1c0.3-0.2,0.6-0.9,1.4-0.9s1.2,0.6,1.4,0.9h23.1c0.3,0,0.5-0.3,0.5-0.6c0-0.1,0-0.2-0.1-0.2
		l-0.5-0.9l-0.3-0.6l-1.1-2l-0.3-0.5l-1.1-2l-0.3-0.5l-0.8-1.4C45.9,0.1,45.7,0,45.5,0H5.6C5.4,0,5.2,0.1,5.1,0.3L4.3,1.7L4,2.2
		l-1.2,2L2.5,4.8l-1.1,2L1.1,7.4L0.5,8.3C0.4,8.5,0.5,8.8,0.7,9C0.8,9,0.9,9.1,1,9.1z"/>
	<path class="st0" d="M50.6,33.3H27.3c0,0.2,0.1,0.5,0.2,0.7h-3.9c0.1-0.2,0.1-0.4,0.2-0.7H0.5c-0.3,0-0.5,0.2-0.5,0.5v2.3
		c0,0.3,0.2,0.5,0.5,0.5c0,0,0,0,0.1,0h21.8l0.1-0.2l0.3-0.5h5.8c0.1,0.2,0.2,0.3,0.3,0.5l0.1,0.2h21.8c0.3,0,0.5-0.2,0.5-0.5
		c0,0,0,0,0-0.1v-2.3C51.1,33.5,50.9,33.3,50.6,33.3C50.6,33.3,50.6,33.3,50.6,33.3z M23,35.3c0.1-0.2,0.2-0.5,0.3-0.7h4.4
		c0.1,0.2,0.2,0.5,0.3,0.7H23z"/>
</g>
</svg>
