<?xml version="1.0" encoding="utf-8"?>
<!-- Generator: Adobe Illustrator 24.2.0, SVG Export Plug-In . SVG Version: 6.00 Build 0)  -->
<svg version="1.1" id="Calque_1" xmlns="http://www.w3.org/2000/svg" xmlns:xlink="http://www.w3.org/1999/xlink" x="0px" y="0px"
	 viewBox="0 0 40.7 36.6" style="enable-background:new 0 0 40.7 36.6;" xml:space="preserve">
<style type="text/css">
	.st0{fill:#4B0082;}
</style>
<path class="st0" d="M36.2,6.7l-5.4-4.2v-1c0-0.5,0.4-0.9,0.8-0.9c0,0,0,0,0,0h3.7c0.5,0,0.8,0.4,0.8,0.8L36.2,6.7z M40.7,11.9v23.8
	c0,0.6-0.4,1-1,1H1c-0.5,0-1-0.4-1-0.9v-1.2l0,0v-5.3c0,0,0-0.1,0-0.1v-0.2c0,0,0-0.1,0-0.1v-6.4l0,0v-3.1c0-0.2,0.1-0.5,0.3-0.6
	l0.2-0.2l3.2-2.5c0-0.1,0.1-0.1,0.1-0.2l0.8-0.5L9.1,12l15-11.6c0.7-0.5,1.6-0.5,2.3,0L40.2,11c0.1,0.1,0.2,0.1,0.3,0.2
	C40.6,11.4,40.7,11.6,40.7,11.9z M22.9,23.2H7.7v9.9h15.1V23.2z M22.9,6.9l-7.7,5.4V18h7.7V6.9z M34.7,23.2H27v9.9h7.7V23.2z
	 M34.7,12.3L27,6.9V18h7.7V12.3z"/>
</svg>
