<?xml version="1.0" encoding="utf-8"?>
<!-- Generator: Adobe Illustrator 24.2.0, SVG Export Plug-In . SVG Version: 6.00 Build 0)  -->
<svg version="1.1" id="Calque_1" xmlns="http://www.w3.org/2000/svg" xmlns:xlink="http://www.w3.org/1999/xlink" x="0px" y="0px"
	 viewBox="0 0 25.7 36.6" style="enable-background:new 0 0 25.7 36.6;" xml:space="preserve">
<style type="text/css">
	.st0{fill:#4B0082;}
</style>
<g>
	<path class="st0" d="M21.5,33.7h-1.3l-0.1-0.5l-0.4-1.9l-0.1-0.7l-0.8-3.8c0,0,0-0.1,0-0.1l-5.8-8.5c-0.1-0.1-0.2-0.1-0.3,0
		c0,0,0,0,0,0l-5.6,8.3c0,0,0,0,0,0.1l-0.8,4l-0.1,0.7l-0.4,1.9l-0.2,0.5H4.3c-1.5,0-2.8,1.1-3,2.7c0,0.1,0,0.1,0,0.2
		c0,0,0.1,0.1,0.1,0.1h22.8c0.1,0,0.1,0,0.2-0.1c0-0.1,0-0.1,0-0.2C24.3,34.9,23,33.7,21.5,33.7z M16.5,30.7v3H9.3v-4.1
		c-0.1-2,1.4-3.7,3.4-3.8s3.7,1.4,3.8,3.4c0,0.1,0,0.3,0,0.4L16.5,30.7z"/>
	<path class="st0" d="M13.5,9.4c0,0,0.1,0.1,0.1,0.1c0.6,0.1,1.1,0.4,1.5,0.7l0.4,0.4c0.4,0.5,0.7,1,0.8,1.6c0,0,0,0.1,0.1,0.1
		l0.5,0.3c0,0,0.1,0,0.1,0c0,0,0.1,0,0.1,0l1.9-1.3l0.5-0.4l3-2L23,8.7l2.3-1.6c0.4-0.3,0.5-0.8,0.2-1.2c0,0-0.1-0.1-0.1-0.1L23,3.2
		l-0.4-0.4l-2.5-2.5c-0.2-0.2-0.4-0.3-0.7-0.2c-0.3,0-0.5,0.2-0.7,0.4l-1.6,2.3l-0.4,0.5l-2,3l-0.4,0.5l-1.3,1.8
		c-0.1,0.1-0.1,0.2,0,0.2L13.5,9.4z"/>
	<path class="st0" d="M3.2,23l2.5,2.5c0.2,0.2,0.4,0.3,0.6,0.3c0.3,0,0.6-0.1,0.7-0.4l1.6-2.3L9,22.5l2-3l0.4-0.5l1.3-1.9
		c0-0.1,0-0.1,0-0.2l-0.3-0.5c0,0-0.1-0.1-0.1-0.1c-0.6-0.1-1.1-0.4-1.6-0.8l-0.4-0.4c-0.4-0.4-0.6-1-0.7-1.5c0,0,0-0.1-0.1-0.1
		l-0.5-0.4c-0.1,0-0.2,0-0.2,0l-1.9,1.3l-0.5,0.4l-3,2l-0.5,0.4l-2.3,1.6C0.2,18.8,0,19.1,0,19.4c0,0.3,0.1,0.5,0.3,0.7l2.5,2.5
		L3.2,23z"/>
	<path class="st0" d="M25.4,18.7l-2.3-1.6l-0.5-0.4l-3-2L19,14.4l-2.3-1.6c-0.1,0-0.1,0-0.2,0c-0.1,0-0.1,0.1-0.1,0.2
		c0,0.8-0.3,1.6-0.8,2.2l-0.4,0.4c-0.6,0.5-1.4,0.8-2.2,0.8c-0.1,0-0.1,0-0.2,0.1c0,0.1,0,0.1,0,0.2l1.6,2.3l0.4,0.5l2,3l0.4,0.5
		l1.6,2.3c0.2,0.2,0.4,0.4,0.7,0.4h0.1c0.2,0,0.5-0.1,0.6-0.2l2.5-2.5l0.4-0.4l2.5-2.5c0.2-0.2,0.3-0.4,0.3-0.7
		C25.7,19.1,25.6,18.8,25.4,18.7z"/>
	<path class="st0" d="M2.7,8.6L3.2,9l3,2l0.5,0.4L9.1,13c0,0,0.1,0,0.1,0c0,0,0.1,0,0.1,0c0.1,0,0.1-0.1,0.1-0.2
		c0-0.8,0.3-1.5,0.8-2.1l0.4-0.4c0.6-0.5,1.4-0.8,2.2-0.8c0.1,0,0.1,0,0.2-0.1c0-0.1,0-0.1,0-0.2l-1.6-2.4L11,6.2l-2-3L8.6,2.7
		L7.1,0.4C6.9,0.1,6.6,0,6.3,0C6.1,0,5.9,0.1,5.7,0.3L3.2,2.8L2.8,3.2L0.3,5.7c-0.3,0.3-0.4,0.9,0,1.3c0,0,0.1,0.1,0.1,0.1L2.7,8.6z
		"/>
	<path class="st0" d="M12.9,9.9c-0.8,0-1.6,0.3-2.2,0.9c-1.2,1.2-1.2,3.1,0,4.3c0,0,0,0,0,0c0.6,0.6,1.3,0.9,2.2,0.9
		c1.7,0.1,3.1-1.2,3.2-2.9s-1.2-3.1-2.9-3.2C13.1,9.9,13,9.9,12.9,9.9z M14.2,14.2c-0.7,0.7-1.8,0.7-2.5,0c-0.7-0.7-0.7-1.8,0-2.5
		c0.7-0.7,1.8-0.7,2.5,0C14.9,12.3,14.9,13.4,14.2,14.2C14.2,14.1,14.2,14.1,14.2,14.2z"/>
</g>
</svg>
