<?xml version="1.0" encoding="utf-8"?>
<!-- Generator: Adobe Illustrator 24.2.0, SVG Export Plug-In . SVG Version: 6.00 Build 0)  -->
<svg version="1.1" id="Calque_1" xmlns="http://www.w3.org/2000/svg" xmlns:xlink="http://www.w3.org/1999/xlink" x="0px" y="0px"
	 viewBox="0 0 45.3 36.6" style="enable-background:new 0 0 45.3 36.6;" xml:space="preserve">
<style type="text/css">
	.st0{fill:none;}
	.st1{fill:#4B0082;}
</style>
<rect x="6.3" y="26.4" class="st0" width="7.4" height="5.3"/>
<path class="st0" d="M8,20.3c0.4,0.1,0.8,0.2,1.2,0.2l-0.4-0.1v-0.7l-0.5,0.2H8.1L8,20.3L8,20.3C7.9,20.3,8,20.3,8,20.3z"/>
<rect x="6.3" y="32.7" class="st0" width="7.4" height="2.5"/>
<path class="st0" d="M9.9,20.5v-1.1c-0.2,0.1-0.5,0.2-0.7,0.2v0.8L9.9,20.5L9.9,20.5z"/>
<path class="st0" d="M8,20.3l-0.3-0.1v-0.1l-0.2,0.1l0.2,0.1L8,20.3z"/>
<rect x="6.3" y="24.2" class="st0" width="7.4" height="1.1"/>
<rect x="15.6" y="32" class="st0" width="14.2" height="0.3"/>
<rect x="14.8" y="24.2" class="st0" width="7.1" height="1.1"/>
<path class="st0" d="M7,21.5c-0.2-0.1-0.4-0.2-0.6-0.3v2h7.4V22h-2.9C9.5,22,8.2,21.9,7,21.5z"/>
<path class="st0" d="M35.7,20.5c0.3,0,0.5,0,0.7-0.1v-0.7l-0.7-0.2V20.5L35.7,20.5z"/>
<path class="st0" d="M34.7,20.6h0.7v-1.1l-0.7-0.2V20.6z"/>
<path class="st0" d="M13.4,16h-0.7v0.8c0.2-0.1,0.5-0.2,0.7-0.3V16z"/>
<path class="st0" d="M32.9,15.9h-0.7v0.7l0.7,0.3V15.9z"/>
<path class="st0" d="M36.8,20.4c0.2,0,0.5-0.1,0.7-0.2l0.2-0.1l0,0l-0.2,0.1v-0.1L37,19.9l-0.2,0L36.8,20.4L36.8,20.4L36.8,20.4z"/>
<path class="st0" d="M13.7,16v0.3l0.5-0.3H13.7z"/>
<rect x="14.8" y="22" class="st0" width="7.1" height="1.2"/>
<path class="st0" d="M19.2,12.5l1.5-1.3L22.6,9l1.9,2.1l1.5,1.3c1,0.9,2.1,1.6,3.2,2.4h0.6l-0.2-0.2c-2.3-1.9-4.4-4-6.2-6.3l-0.8-1
	l-0.2,0.2c-2.1,2.6-4.5,5.1-7.1,7.3h0.8C17.2,14.1,18.2,13.3,19.2,12.5z"/>
<path class="st0" d="M26.7,17.4c-1.5-1.1-2.9-2.3-4.1-3.7l-0.4,0.4c-1.2,1.3-2.5,2.4-4,3.3l0,0h0.9c1.1-0.7,2.1-1.6,3-2.5
	c0-0.1,0.1-0.1,0.1-0.1c0.1-0.1,0.2-0.1,0.2-0.1c0.1,0,0.2,0,0.3,0.1c0,0,0.1,0.1,0.1,0.1c0.9,1,2,1.8,3.1,2.6h0.9L26.7,17.4z"/>
<path class="st0" d="M22.6,15.6c-0.7,0.7-1.4,1.4-2.2,1.9h4.5C24,17,23.3,16.3,22.6,15.6z"/>
<path class="st0" d="M29.7,26.7H15.6v0.3l0,0v5h0.4v-1.5H18V32h0.4v-1.4h2.5V32h0.4v-1.4h2.8V32h0.4v-1.4h2.5V32h0.3v-1.4h2.1V32
	h0.3v-1.4l0,0v-0.3l0,0v-1.4l0,0v-0.3l0,0L29.7,26.7z M18,30.3h-2.1v-1.4H18L18,30.3z M18,28.5h-2.1v-1.4H18L18,28.5z M20.9,30.3
	h-2.5v-1.4h2.5V30.3z M20.9,28.5h-2.5v-1.4h2.5V28.5z M24.1,30.3h-2.8v-1.4h2.8L24.1,30.3z M24.1,28.5h-2.8v-1.4h2.8L24.1,28.5z
	 M26.9,30.3h-2.5v-1.4h2.5V30.3z M26.9,28.5h-2.5v-1.4h2.5V28.5z M29.4,30.3h-2.1v-1.4h2.1L29.4,30.3z M29.4,28.5h-2.1v-1.4h2.1
	L29.4,28.5z"/>
<rect x="31.5" y="32.7" class="st0" width="7.4" height="2.5"/>
<rect x="23" y="22" class="st0" width="7.4" height="1.2"/>
<rect x="23" y="24.2" class="st0" width="7.4" height="1.1"/>
<path class="st0" d="M31.9,15.9h-0.7V16l0.7,0.4L31.9,15.9z"/>
<path class="st0" d="M34.4,22h-2.9v1.2h7.4v-2c-0.2,0.1-0.4,0.2-0.6,0.3C37,21.8,35.7,22,34.4,22z"/>
<rect x="31.5" y="24.2" class="st0" width="7.4" height="1.1"/>
<rect x="31.5" y="26.4" class="st0" width="7.4" height="5.3"/>
<rect x="24.4" y="27.1" class="st1" width="2.5" height="1.4"/>
<rect x="24.4" y="28.8" class="st1" width="2.5" height="1.4"/>
<rect x="27.2" y="28.8" class="st1" width="2.1" height="1.4"/>
<rect x="21.2" y="27.1" class="st1" width="2.8" height="1.4"/>
<rect x="15.9" y="28.8" class="st1" width="2.1" height="1.4"/>
<rect x="21.2" y="28.8" class="st1" width="2.8" height="1.4"/>
<rect x="15.9" y="27.1" class="st1" width="2.1" height="1.4"/>
<rect x="18.4" y="27.1" class="st1" width="2.5" height="1.4"/>
<rect x="18.4" y="28.8" class="st1" width="2.5" height="1.4"/>
<rect x="27.2" y="27.1" class="st1" width="2.1" height="1.4"/>
<path class="st1" d="M43.9,19.2l1.4-0.9l-1.6-0.4C35.3,16,28.1,7.5,24.9,3.2L22.6,0l-2.3,3.2C17.6,6.9,10.1,15.9,1.6,17.9L0,18.3
	l1.3,0.9c1,0.8,2.3,1.4,3.6,1.6v10.9l0,0v1.1l0,0v3.5h1.4v0.3h32.6v-0.3h1.4v-9.9l0,0v-1.1l0,0v-1.1l0,0v-1.1l0,0v-2.4
	C41.6,20.6,42.9,20,43.9,19.2z M36.8,19.9l0.2,0l0.5,0.1v0.1l0.2-0.1l0,0l-0.2,0.1c-0.2,0.1-0.5,0.1-0.7,0.2h-0.1h0.1L36.8,19.9z
	 M36.4,19.8v0.7c-0.2,0-0.4,0-0.7,0.1l0,0v-1L36.4,19.8z M35.4,19.4v1.1h-0.7l0,0v-1.4L35.4,19.4z M32.2,15.9h0.7v1l-0.7-0.3V15.9z
	 M22.5,7.6l0.2-0.2l0.8,1c1.8,2.3,3.9,4.5,6.2,6.3l0.2,0.2h-0.6c-1.1-0.7-2.2-1.5-3.2-2.4l-1.5-1.3L22.6,9l-1.9,2.1l-1.5,1.3
	c-1,0.9-2.1,1.7-3.2,2.4h-0.8C17.9,12.7,20.3,10.2,22.5,7.6z M26,17.6c-1.1-0.8-2.1-1.6-3.1-2.6c0-0.1-0.1-0.1-0.1-0.1
	c-0.1-0.1-0.2-0.1-0.3-0.1c-0.1,0-0.2,0-0.2,0.1c0,0-0.1,0.1-0.1,0.1c-0.9,1-2,1.8-3.1,2.6h-0.9l0,0c1.5-1,2.8-2.1,4-3.4l0.4-0.4
	c1.2,1.4,2.6,2.6,4.1,3.7l0.2,0.1L26,17.6z M20.3,17.6c0.8-0.6,1.5-1.2,2.2-1.9c0.7,0.7,1.4,1.4,2.2,1.9H20.3z M14.8,22h7.1v1.2
	h-7.1L14.8,22z M13.7,16h0.5l-0.5,0.3L13.7,16z M12.7,16h0.7v0.4c-0.2,0.1-0.5,0.2-0.7,0.3V16z M9.2,19.7c0.2-0.1,0.5-0.1,0.7-0.2
	v1.1l0,0l-0.7-0.1V19.7z M7.8,20.1v0.1l0.3,0.1h0.1V20h0.2l0.5-0.2v0.7l0.4,0c-0.4,0-0.8-0.1-1.3-0.2c0,0-0.1,0,0,0l-0.3-0.1
	l-0.2-0.1L7.8,20.1z M13.8,35.2H6.3v-2.5h7.4L13.8,35.2z M13.8,31.7H6.3v-5.3h7.4L13.8,31.7z M13.8,25.3H6.3v-1.1h7.4L13.8,25.3z
	 M13.8,23.2H6.3v-2c0.2,0.1,0.4,0.2,0.6,0.3c1.2,0.4,2.6,0.6,3.9,0.5h2.9L13.8,23.2z M14.9,24.2h7.1v1.1h-7.1L14.9,24.2z M29.7,32.4
	H15.6V32h14.2L29.7,32.4z M29.7,28.8L29.7,28.8v1.4l0,0v0.3l0,0V32h-0.3v-1.4h-2.2V32h-0.3v-1.4h-2.5V32h-0.4v-1.4h-2.8V32h-0.4
	v-1.4h-2.5V32H18v-1.4h-2.1V32h-0.4v-5l0,0v-0.3h14.2v1.8l0,0L29.7,28.8z M30.5,25.3H23v-1.1h7.4L30.5,25.3z M30.5,23.2H23V22h7.4
	L30.5,23.2z M31.2,15.9h0.7v0.5L31.2,16V15.9z M38.9,35.2h-7.4v-2.5h7.4V35.2z M38.9,31.7h-7.4v-5.3h7.4V31.7z M38.9,25.3h-7.4v-1.1
	h7.4V25.3z M38.9,23.2h-7.4V22h2.9c1.3,0.1,2.6-0.1,3.9-0.5c0.2-0.1,0.5-0.2,0.6-0.3V23.2z"/>
</svg>
