<?xml version="1.0" encoding="utf-8"?>
<!-- Generator: Adobe Illustrator 24.2.0, SVG Export Plug-In . SVG Version: 6.00 Build 0)  -->
<svg version="1.1" id="Calque_1" xmlns="http://www.w3.org/2000/svg" xmlns:xlink="http://www.w3.org/1999/xlink" x="0px" y="0px"
	 viewBox="0 0 36.6 37" style="enable-background:new 0 0 36.6 37;" xml:space="preserve">
<style type="text/css">
	.st0{fill:#4B0082;}
</style>
<path class="st0" d="M0,18.1V7.2h10.9V4.5c-0.2-2.2,1.4-4.2,3.6-4.5c2.2-0.2,4.2,1.4,4.5,3.6c0,0.3,0,0.6,0,0.9v2.7h10.9v10.8h2.7
	c2.2,0,4.1,1.8,4.1,4.1s-1.8,4.1-4.1,4.1h-2.7V37H19v-2.7c0.1-2.2-1.6-4.2-3.9-4.3s-4.2,1.6-4.3,3.9c0,0.1,0,0.3,0,0.4V37H0V26.2
	h2.7c2.2,0,4.1-1.8,4.1-4.1c0-2.2-1.8-4.1-4.1-4.1c0,0,0,0,0,0L0,18.1z"/>
</svg>
