<?xml version="1.0" encoding="utf-8"?>
<!-- Generator: Adobe Illustrator 24.2.0, SVG Export Plug-In . SVG Version: 6.00 Build 0)  -->
<svg version="1.1" id="Calque_1" xmlns="http://www.w3.org/2000/svg" xmlns:xlink="http://www.w3.org/1999/xlink" x="0px" y="0px"
	 viewBox="0 0 36.6 36.7" style="enable-background:new 0 0 36.6 36.7;" xml:space="preserve">
<style type="text/css">
	.st0{fill:#4B0082;}
</style>
<g>
	<path class="st0" d="M11.3,11.2c0.2-0.7,0.3-1.3,0.2-2c0-3.9-4.5-8.8-4.7-9C6.6,0,6.2,0,6,0.2c0,0,0,0,0,0l0,0
		c-0.2,0.2-4.7,5.1-4.7,9c0,0.7,0.1,1.3,0.2,2C0.6,11.6,0,12.5,0,13.5v20.7c0,1.3,1.1,2.4,2.4,2.4h10.4V13.5
		C12.8,12.5,12.2,11.6,11.3,11.2z M10.3,21.4c0,0.3-0.3,0.6-0.6,0.6c0,0,0,0,0,0H3.1c-0.3,0-0.6-0.3-0.6-0.6l0,0v-4
		c0.3-2.2,2.3-3.7,4.5-3.4c1.8,0.2,3.2,1.6,3.4,3.4L10.3,21.4z"/>
	<path class="st0" d="M34.2,17.2h-0.8c0.9-1.3,1.4-2.8,1.4-4.4c0-3-3-5.3-5.9-7.5l-1.5-1.2C26,3,24.8,1.7,23.7,0.3
		c-0.2-0.3-0.6-0.3-0.9-0.1c0,0,0,0,0,0c-0.1,0-0.1,0.1-0.1,0.1C21.6,1.7,20.4,3,19,4.2l-1.5,1.1c-1.8,1.2-3.3,2.6-4.7,4.2
		c0,0.4,0,0.8-0.1,1.1c0.8,0.7,1.3,1.7,1.3,2.8v23.2h4.3v-7.3c-0.1-2.7,2-5,4.7-5.1s5,2,5.1,4.7c0,0.1,0,0.3,0,0.4v7.3h4.3
		c1.3,0,2.4-1.1,2.5-2.4c0,0,0,0,0-0.1V21.9c1.3-0.3,2.1-1.7,1.7-3C36.2,17.9,35.3,17.1,34.2,17.2L34.2,17.2z"/>
</g>
</svg>
