<?xml version="1.0" encoding="utf-8"?>
<!-- Generator: Adobe Illustrator 24.2.0, SVG Export Plug-In . SVG Version: 6.00 Build 0)  -->
<svg version="1.1" id="Calque_1" xmlns="http://www.w3.org/2000/svg" xmlns:xlink="http://www.w3.org/1999/xlink" x="0px" y="0px"
	 viewBox="0 0 37.4 36.6" style="enable-background:new 0 0 37.4 36.6;" xml:space="preserve">
<style type="text/css">
	.st0{fill:#4B0082;}
</style>
<g>
	<path class="st0" d="M31.3,21.2c-8.2,4.4-18,4.2-26-0.5L4,20v10.7l0.2,0.2c2.9,2.9,6.6,4.9,10.7,5.5c0.4,0,0.8,0.1,1.2,0.2v-6.7
		c0-0.6,0.4-1,1-1h2.7c0.6,0,1,0.4,1,1v6.8c0.4-0.1,0.8-0.1,1.1-0.2c3.9-0.7,7.5-2.6,10.3-5.5l0.2-0.2V20.5L31.3,21.2L31.3,21.2z"/>
	<path class="st0" d="M25.8,5.9L18.7,0l-7.1,5.9L0,15.6l0,0c1.2,1.2,2.6,2.3,4,3.3l1.2,0.7c8,4.7,17.8,4.8,26,0.5l0,0l1.2-0.6
		c1.7-1.1,3.4-2.3,4.8-3.8c0,0,0.1-0.1,0.1-0.1L25.8,5.9z"/>
</g>
</svg>
