<?xml version="1.0" encoding="utf-8"?>
<!-- Generator: Adobe Illustrator 24.2.0, SVG Export Plug-In . SVG Version: 6.00 Build 0)  -->
<svg version="1.1" id="Calque_1" xmlns="http://www.w3.org/2000/svg" xmlns:xlink="http://www.w3.org/1999/xlink" x="0px" y="0px"
	 viewBox="0 0 45.1 36.6" style="enable-background:new 0 0 45.1 36.6;" xml:space="preserve">
<style type="text/css">
	.st0{fill:none;}
	.st1{fill:#4B0082;}
</style>
<g>
	<rect x="16.4" y="27.9" class="st0" width="3.1" height="7.3"/>
	<rect x="29.8" y="27.9" class="st0" width="3.1" height="7.3"/>
	<rect x="12.2" y="27.9" class="st0" width="3.1" height="7.3"/>
	<rect x="23.1" y="18.1" class="st0" width="3.1" height="7.3"/>
	<rect x="25.7" y="27.9" class="st0" width="3.1" height="7.3"/>
	<rect x="18.9" y="18.1" class="st0" width="3.1" height="7.3"/>
	<rect x="20.7" y="10.9" class="st0" width="3.7" height="4.4"/>
	<polygon class="st1" points="26.3,3.4 26.3,0 18.9,0 18.9,3.4 0,27.1 3.2,30.3 22.6,5.9 42,30.3 45.1,27.1 	"/>
	<path class="st1" d="M15.9,16h13.4l-6.7-8.5L15.9,16z M24.4,15.3h-3.7v-4.4h3.7L24.4,15.3z"/>
	<path class="st1" d="M7,27.3l-1.7,2.1v7.3h34.6v-7.4l-1.6-2L7,27.3z M15.3,35.2h-3.1v-7.3h3.1V35.2z M19.5,35.2h-3.1v-7.3h3.1V35.2
		z M28.8,35.2h-3.1v-7.3h3.1L28.8,35.2z M33,35.2h-3.1v-7.3H33V35.2z"/>
	<path class="st1" d="M7.8,26.2h29.6l-7.3-9.1H15.1L7.8,26.2z M23.1,18.1h3.1v7.3h-3.1V18.1z M18.9,18.1h3.1v7.3h-3.1V18.1z"/>
</g>
</svg>
