<?xml version="1.0" encoding="utf-8"?>
<!-- Generator: Adobe Illustrator 24.2.0, SVG Export Plug-In . SVG Version: 6.00 Build 0)  -->
<svg version="1.1" id="Calque_1" xmlns="http://www.w3.org/2000/svg" xmlns:xlink="http://www.w3.org/1999/xlink" x="0px" y="0px"
	 viewBox="0 0 33 36.6" style="enable-background:new 0 0 33 36.6;" xml:space="preserve">
<style type="text/css">
	.st0{fill:none;}
	.st1{fill:#4B0082;}
</style>
<rect x="8.8" y="27.1" class="st0" width="1.8" height="1.2"/>
<rect x="11.8" y="27.1" class="st0" width="1.8" height="1.2"/>
<rect x="8.8" y="29.5" class="st0" width="1.8" height="1.2"/>
<rect x="8.8" y="31.8" class="st0" width="1.8" height="1.2"/>
<rect x="11.8" y="31.8" class="st0" width="1.8" height="1.2"/>
<rect x="11.8" y="29.5" class="st0" width="1.8" height="1.2"/>
<path class="st0" d="M16.5,10c-0.6,0-1.1,0.5-1.1,1.1v1.8h2.3v-1.8C17.6,10.5,17.1,10,16.5,10z"/>
<rect x="22.4" y="29.5" class="st0" width="1.8" height="1.2"/>
<rect x="22.4" y="27.1" class="st0" width="1.8" height="1.2"/>
<rect x="22.4" y="31.8" class="st0" width="1.8" height="1.2"/>
<rect x="19.5" y="31.8" class="st0" width="1.8" height="1.2"/>
<rect x="19.5" y="27.1" class="st0" width="1.8" height="1.2"/>
<rect x="19.5" y="29.5" class="st0" width="1.8" height="1.2"/>
<path class="st1" d="M28.2,35.4h-0.5V24.8h2.7c1.5,0,2.6-1.2,2.6-2.6v0c0-0.3-0.3-0.6-0.6-0.6s-0.6,0.3-0.6,0.6l0,0
	c0,0.5-0.3,1-0.7,1.2c-0.8-0.2-1.6-0.7-2.1-1.4l-1.7-1.9h1.2c0.2,0,0.5,0,0.7-0.1h0.1c1.1-0.4,1.8-1.4,1.8-2.5
	c0-0.3-0.3-0.6-0.6-0.6c-0.3,0-0.6,0.3-0.6,0.6c0,0,0,0,0,0c0,0.5-0.2,0.9-0.6,1.1L25,13.3V8h0.1c0.9,0,1.6-0.7,1.6-1.6c0,0,0,0,0,0
	c0-0.3-0.3-0.6-0.6-0.6s-0.6,0.3-0.6,0.6c0,0.2-0.2,0.4-0.3,0.4c0,0,0,0,0,0h-0.5l-5.5-3.6c-0.1-0.1-0.2-0.1-0.3-0.1h-0.2V2.7h0.3
	c0.3,0,0.6-0.4,0.5-0.7c0-0.3-0.3-0.5-0.5-0.5h-0.4C18.1,0.4,17-0.2,16,0.1c-0.7,0.2-1.2,0.7-1.4,1.4h-0.4c-0.3,0-0.6,0.4-0.5,0.7
	c0,0.3,0.3,0.5,0.5,0.5h0.3v0.5h-0.3c-0.1,0-0.2,0-0.4,0.1L8.4,6.8H7.9c-0.2,0-0.4-0.1-0.4-0.3c0,0,0,0,0,0c0-0.3-0.3-0.6-0.6-0.6
	c-0.3,0-0.6,0.3-0.6,0.6l0,0C6.3,7.3,7,8,7.9,8H8v5.3l-4.2,5.4c-0.4-0.2-0.7-0.7-0.7-1.2c0-0.3-0.2-0.7-0.5-0.7
	c-0.3,0-0.7,0.2-0.7,0.5c0,0.1,0,0.1,0,0.2c0,1.5,1.2,2.6,2.6,2.6h1.3L4.1,22c-0.6,0.6-1.3,1.1-2.1,1.4c-0.4-0.2-0.7-0.7-0.7-1.2
	c0-0.3-0.3-0.6-0.6-0.6c-0.3,0-0.6,0.3-0.6,0.6c0,1.5,1.2,2.6,2.6,2.6h0h2.7v10.5H4.9c-0.3,0-0.6,0.4-0.5,0.7c0,0.3,0.3,0.5,0.5,0.5
	h23.3c0.3,0,0.7-0.2,0.7-0.5c0-0.3-0.2-0.7-0.5-0.7C28.3,35.4,28.2,35.4,28.2,35.4z M11.8,30.7v-1.2h1.8v1.2L11.8,30.7z M13.6,31.9
	v1.2h-1.8v-1.2H13.6z M11.8,28.3v-1.2h1.8v1.2L11.8,28.3z M8.8,28.3v-1.2h1.8v1.2L8.8,28.3z M10.6,29.5v1.2H8.8v-1.2L10.6,29.5z
	 M8.8,31.9h1.8v1.2H8.8V31.9z M17.6,12.9h-2.2v-1.8c0-0.6,0.5-1.1,1.1-1.1c0.6,0,1.1,0.5,1.1,1.1L17.6,12.9z M21.2,28.3h-1.8v-1.2
	h1.8V28.3z M21.2,31.8V33h-1.8v-1.1L21.2,31.8z M21.2,29.5v1.2h-1.8v-1.1L21.2,29.5z M24.2,31.9v1.2h-1.8v-1.2H24.2z M22.4,30.7
	v-1.2h1.8v1.2L22.4,30.7z M24.1,28.3h-1.8v-1.2h1.8V28.3z"/>
</svg>
