<?xml version="1.0" encoding="utf-8"?>
<!-- Generator: Adobe Illustrator 24.2.0, SVG Export Plug-In . SVG Version: 6.00 Build 0)  -->
<svg version="1.1" id="Calque_1" xmlns="http://www.w3.org/2000/svg" xmlns:xlink="http://www.w3.org/1999/xlink" x="0px" y="0px"
	 viewBox="0 0 36.7 36.6" style="enable-background:new 0 0 36.7 36.6;" xml:space="preserve">
<style type="text/css">
	.st0{fill:none;}
	.st1{fill:#4B0082;}
</style>
<rect x="13" y="12.4" class="st0" width="4.2" height="4.2"/>
<rect x="19.4" y="12.4" class="st0" width="4.2" height="4.2"/>
<rect x="13" y="18.7" class="st0" width="4.2" height="4.2"/>
<rect x="20" y="26.3" class="st0" width="6.2" height="5.8"/>
<rect x="19.4" y="18.7" class="st0" width="4.2" height="4.2"/>
<path class="st1" d="M31.1,33V15h4.1v-2.6L18.3,0l-11,8.2V3H4.1v7.6l-2.7,2v2.5h4.1v18H0v3.5h10.3V26.3h6.2v10.3h20.2V33H31.1z
	 M17.2,23H13v-4.2h4.2V23z M17.2,16.6H13v-4.2h4.2V16.6z M19.4,12.4h4.2v4.2h-4.2L19.4,12.4z M19.4,18.8h4.2V23h-4.2L19.4,18.8z
	 M26.2,32.1H20v-5.8h6.2V32.1z"/>
</svg>
