<?xml version="1.0" encoding="utf-8"?>
<!-- Generator: Adobe Illustrator 24.2.0, SVG Export Plug-In . SVG Version: 6.00 Build 0)  -->
<svg version="1.1" id="Calque_1" xmlns="http://www.w3.org/2000/svg" xmlns:xlink="http://www.w3.org/1999/xlink" x="0px" y="0px"
	 viewBox="0 0 44.7 36.6" style="enable-background:new 0 0 44.7 36.6;" xml:space="preserve">
<style type="text/css">
	.st0{fill:none;}
	.st1{fill:#4B0082;}
	.st2{fill:#FFFFFF;}
</style>
<g>
	<path class="st0" d="M3.3,12.2c-0.3,0-0.5,0.2-0.5,0.5c0,0,0,0,0,0.1v1c0.1,0.3,0.3,0.5,0.6,0.4c0.2,0,0.4-0.2,0.4-0.4v-1
		C3.8,12.4,3.6,12.2,3.3,12.2z"/>
	<path class="st0" d="M3.3,8.4C3,8.4,2.8,8.6,2.8,8.9c0,0,0,0,0,0.1v1.1c0.1,0.3,0.3,0.5,0.6,0.4c0.2,0,0.4-0.2,0.4-0.4V9
		C3.8,8.6,3.6,8.4,3.3,8.4z"/>
	<path class="st0" d="M12.5,22.2c-0.3,0-0.5,0.2-0.5,0.4c0,0,0,0,0,0.1v1.4c-0.1,0.3,0.1,0.5,0.4,0.6s0.5-0.1,0.6-0.4
		c0-0.1,0-0.1,0-0.2v-1.4C13,22.4,12.8,22.2,12.5,22.2C12.6,22.2,12.5,22.2,12.5,22.2z"/>
	<path class="st0" d="M12.5,17.3c-0.3,0-0.5,0.2-0.5,0.4c0,0,0,0,0,0.1v1.4c0.1,0.3,0.3,0.5,0.6,0.4c0.2,0,0.4-0.2,0.4-0.4v-1.4
		C13,17.6,12.9,17.3,12.5,17.3C12.6,17.3,12.6,17.3,12.5,17.3z"/>
	<path class="st0" d="M3.3,19.7c-0.3,0-0.5,0.2-0.5,0.5c0,0,0,0,0,0.1v1.1c-0.1,0.3,0.1,0.5,0.4,0.6c0.3,0.1,0.5-0.1,0.6-0.4
		c0-0.1,0-0.1,0-0.2v-1.1C3.8,20,3.6,19.7,3.3,19.7L3.3,19.7z"/>
	<path class="st0" d="M3.3,4.6C3,4.6,2.8,4.8,2.8,5c0,0,0,0,0,0.1v1.1c0.1,0.3,0.3,0.5,0.6,0.4c0.2,0,0.4-0.2,0.4-0.4V5.1
		C3.8,4.8,3.6,4.6,3.3,4.6z"/>
	<path class="st0" d="M3.3,15.9c-0.3,0-0.5,0.2-0.5,0.5c0,0,0,0,0,0.1v1.1c-0.1,0.3,0.1,0.5,0.4,0.6c0.3,0.1,0.5-0.1,0.6-0.4
		c0-0.1,0-0.1,0-0.2v-1.1C3.8,16.2,3.6,16,3.3,15.9z"/>
	<path class="st0" d="M6.5,8.4C6.2,8.4,6,8.6,6,8.8c0,0,0,0,0,0.1V10c0,0.3,0.2,0.5,0.5,0.5c0,0,0,0,0.1,0c0.3,0,0.5-0.2,0.5-0.4
		c0,0,0,0,0-0.1V8.9C7,8.7,6.8,8.4,6.5,8.4C6.6,8.4,6.5,8.4,6.5,8.4z"/>
	<path class="st0" d="M6.5,19.7c-0.3,0-0.5,0.2-0.5,0.5l0,0v1.1c0,0.3,0.2,0.5,0.5,0.5l0,0c0.3,0,0.5-0.2,0.5-0.5c0,0,0,0,0-0.1
		v-1.1C7.1,20,6.9,19.7,6.5,19.7C6.6,19.7,6.5,19.7,6.5,19.7z"/>
	<path class="st0" d="M6.5,4.6C6.2,4.6,6,4.8,6,5c0,0,0,0,0,0.1v1.1c0,0.3,0.2,0.5,0.5,0.5c0,0,0,0,0.1,0c0.3,0,0.5-0.2,0.5-0.4
		c0,0,0,0,0-0.1V5.1C7,4.9,6.8,4.6,6.5,4.6C6.6,4.6,6.5,4.6,6.5,4.6z"/>
	<path class="st0" d="M6.5,12.2c-0.3,0-0.5,0.2-0.5,0.4c0,0,0,0,0,0.1v1c0,0.3,0.2,0.5,0.5,0.5c0,0,0,0,0.1,0c0.3,0,0.5-0.2,0.5-0.4
		c0,0,0,0,0-0.1v-1C7,12.4,6.8,12.2,6.5,12.2C6.6,12.2,6.5,12.1,6.5,12.2z"/>
	<path class="st0" d="M6.5,15.9c-0.3,0-0.5,0.2-0.5,0.5l0,0v1.1C6,17.8,6.2,18,6.5,18l0,0C6.8,18,7,17.8,7,17.5c0,0,0,0,0-0.1v-1.1
		C7,16.2,6.8,15.9,6.5,15.9z"/>
	<path class="st0" d="M20.1,19.7c0.3,0,0.5-0.2,0.5-0.4c0,0,0,0,0-0.1v-1.4c-0.1-0.3-0.3-0.5-0.6-0.4c-0.2,0-0.4,0.2-0.4,0.4v1.4
		C19.6,19.4,19.8,19.7,20.1,19.7L20.1,19.7z"/>
	<path class="st0" d="M20.1,24.6c0.3,0,0.5-0.2,0.5-0.5c0,0,0,0,0-0.1v-1.3c0.1-0.3-0.1-0.5-0.4-0.6s-0.5,0.1-0.6,0.4
		c0,0.1,0,0.1,0,0.2v1.4C19.6,24.3,19.8,24.6,20.1,24.6L20.1,24.6z"/>
	<path class="st0" d="M20.1,14.8c0.3,0,0.5-0.2,0.5-0.5c0,0,0,0,0-0.1v-1.4c0.1-0.3-0.1-0.5-0.4-0.6s-0.5,0.1-0.6,0.4
		c0,0.1,0,0.1,0,0.2v1.4C19.6,14.5,19.8,14.8,20.1,14.8L20.1,14.8z"/>
	<path class="st0" d="M29.3,14.2c0.3,0,0.5-0.2,0.5-0.4c0,0,0,0,0-0.1v-1c0-0.3-0.2-0.5-0.5-0.5l0,0c-0.3,0-0.5,0.2-0.5,0.4
		c0,0,0,0,0,0.1v1C28.8,14,29,14.2,29.3,14.2L29.3,14.2z"/>
	<path class="st0" d="M29.3,21.8c0.3,0,0.5-0.2,0.5-0.5c0,0,0,0,0-0.1v-1.1c0-0.3-0.2-0.5-0.4-0.5c0,0,0,0-0.1,0
		c-0.3,0-0.5,0.2-0.5,0.5l0,0v1.1C28.8,21.6,29,21.8,29.3,21.8L29.3,21.8z"/>
	<path class="st0" d="M29.3,18c0.3,0,0.5-0.2,0.5-0.5c0,0,0,0,0-0.1v-1.1c0-0.3-0.2-0.5-0.5-0.5s-0.5,0.2-0.5,0.5l0,0v1.1
		C28.8,17.8,29,18,29.3,18L29.3,18z"/>
	<path class="st0" d="M29.3,6.7c0.3,0,0.5-0.2,0.5-0.4c0,0,0,0,0-0.1V5.1c0-0.3-0.2-0.5-0.4-0.5c0,0,0,0-0.1,0
		c-0.3,0-0.5,0.2-0.5,0.4c0,0,0,0,0,0.1v1.1C28.8,6.5,29,6.7,29.3,6.7L29.3,6.7z"/>
	<path class="st0" d="M29.3,10.5c0.3,0,0.5-0.2,0.5-0.4c0,0,0,0,0-0.1V8.9c0-0.3-0.2-0.5-0.4-0.5c0,0,0,0-0.1,0
		c-0.3,0-0.5,0.2-0.5,0.4c0,0,0,0,0,0.1V10C28.8,10.2,29,10.5,29.3,10.5L29.3,10.5z"/>
	<path class="st0" d="M26.1,18c0.3,0,0.5-0.2,0.5-0.4c0,0,0,0,0-0.1v-1.1c0-0.3-0.2-0.5-0.5-0.5s-0.5,0.2-0.5,0.5c0,0,0,0,0,0.1v1.1
		C25.6,17.8,25.8,18,26.1,18L26.1,18z"/>
	<path class="st0" d="M26.1,21.8c0.3,0,0.5-0.2,0.5-0.4c0,0,0,0,0-0.1v-1.1c0-0.3-0.2-0.5-0.5-0.5s-0.5,0.2-0.5,0.5c0,0,0,0,0,0.1
		v1.1C25.6,21.6,25.8,21.8,26.1,21.8L26.1,21.8z"/>
	<path class="st0" d="M20.1,5c0.3,0,0.5-0.2,0.5-0.4c0,0,0,0,0-0.1V3.1c-0.1-0.3-0.3-0.5-0.6-0.4c-0.2,0-0.4,0.2-0.4,0.4v1.4
		C19.6,4.7,19.8,5,20.1,5L20.1,5z"/>
	<path class="st0" d="M26.1,14.2c0.3,0,0.5-0.2,0.5-0.4c0,0,0,0,0-0.1v-1c0-0.3-0.2-0.5-0.5-0.5s-0.5,0.2-0.5,0.5c0,0,0,0,0,0.1v1
		C25.6,14,25.8,14.2,26.1,14.2L26.1,14.2z"/>
	<path class="st0" d="M26.1,6.7c0.3,0,0.5-0.2,0.5-0.4c0,0,0,0,0-0.1V5.1c0-0.3-0.2-0.5-0.5-0.5l0,0c-0.3,0-0.5,0.2-0.5,0.4
		c0,0,0,0,0,0.1v1.1C25.6,6.4,25.8,6.7,26.1,6.7L26.1,6.7z"/>
	<path class="st0" d="M26.1,10.5c0.3,0,0.5-0.2,0.5-0.4c0,0,0,0,0-0.1V8.9c0-0.3-0.2-0.5-0.5-0.5s-0.5,0.2-0.5,0.5c0,0,0,0,0,0.1
		v1.1C25.6,10.2,25.8,10.5,26.1,10.5L26.1,10.5z"/>
	<path class="st0" d="M20.1,9.9c0.3,0,0.5-0.2,0.5-0.5c0,0,0,0,0-0.1V7.9c0.1-0.3-0.1-0.5-0.4-0.6s-0.5,0.1-0.6,0.4
		c0,0.1,0,0.1,0,0.2v1.4C19.6,9.6,19.8,9.9,20.1,9.9L20.1,9.9z"/>
	<path class="st0" d="M16.3,7.5c-0.3,0-0.5,0.2-0.5,0.4c0,0,0,0,0,0.1v1.4c-0.1,0.3,0.1,0.5,0.4,0.6s0.5-0.1,0.6-0.4
		c0-0.1,0-0.1,0-0.2V8C16.8,7.7,16.6,7.5,16.3,7.5C16.4,7.5,16.3,7.5,16.3,7.5z"/>
	<path class="st0" d="M16.3,2.6c-0.3,0-0.5,0.2-0.5,0.4c0,0,0,0,0,0.1v1.4c0.1,0.3,0.3,0.5,0.6,0.4c0.2,0,0.4-0.2,0.4-0.4V3.1
		C16.8,2.8,16.6,2.6,16.3,2.6C16.4,2.6,16.3,2.6,16.3,2.6z"/>
	<path class="st0" d="M16.3,12.4c-0.3,0-0.5,0.2-0.5,0.4c0,0,0,0,0,0.1v1.4c-0.1,0.3,0.1,0.5,0.4,0.6s0.5-0.1,0.6-0.4
		c0-0.1,0-0.1,0-0.2v-1.4C16.8,12.6,16.6,12.4,16.3,12.4C16.4,12.4,16.3,12.4,16.3,12.4z"/>
	<path class="st0" d="M16.3,22.2c-0.3,0-0.5,0.2-0.5,0.4c0,0,0,0,0,0.1v1.4c-0.1,0.3,0.1,0.5,0.4,0.6s0.5-0.1,0.6-0.4
		c0-0.1,0-0.1,0-0.2v-1.4C16.8,22.4,16.6,22.2,16.3,22.2L16.3,22.2z"/>
	<path class="st0" d="M16.3,17.3c-0.3,0-0.5,0.2-0.5,0.4c0,0,0,0,0,0.1v1.4c0.1,0.3,0.3,0.5,0.6,0.4c0.2,0,0.4-0.2,0.4-0.4v-1.4
		C16.8,17.6,16.6,17.3,16.3,17.3C16.4,17.3,16.3,17.3,16.3,17.3z"/>
	<path class="st0" d="M12.5,2.6C12.2,2.6,12,2.8,12,3c0,0,0,0,0,0.1v1.4c0.1,0.3,0.3,0.5,0.6,0.4c0.2,0,0.4-0.2,0.4-0.4V3.1
		C13,2.8,12.9,2.6,12.5,2.6C12.6,2.6,12.6,2.6,12.5,2.6z"/>
	<path class="st0" d="M12.5,7.5c-0.3,0-0.5,0.2-0.5,0.4c0,0,0,0,0,0.1v1.4c-0.1,0.3,0.1,0.5,0.4,0.6s0.5-0.1,0.6-0.4
		c0-0.1,0-0.1,0-0.2V8C13,7.7,12.8,7.5,12.5,7.5C12.6,7.5,12.6,7.5,12.5,7.5z"/>
	<path class="st0" d="M12.5,12.4c-0.3,0-0.5,0.2-0.5,0.4c0,0,0,0,0,0.1v1.4c-0.1,0.3,0.1,0.5,0.4,0.6s0.5-0.1,0.6-0.4
		c0-0.1,0-0.1,0-0.2v-1.4C13,12.6,12.8,12.4,12.5,12.4C12.6,12.4,12.6,12.4,12.5,12.4z"/>
	<path class="st1" d="M20.5,28.2c0,0.1,0.1,0.2,0.2,0.2C20.6,28.4,20.6,28.3,20.5,28.2z"/>
	<path class="st1" d="M20.5,28C20.5,28.1,20.5,28.1,20.5,28c0,0.1,0,0.2,0,0.2S20.5,28.2,20.5,28C20.5,28.1,20.5,28.1,20.5,28z"/>
	<path class="st1" d="M19.6,28.1c0-0.3,0.1-0.6,0.4-0.8c0.2-0.2,0.4-0.3,0.6-0.4l10.7-4.1c0.4-0.2,0.9-0.2,1.3-0.2h0.1V4.4
		c-0.1-1-1-1.8-2-1.8h-7V2.1c0-1.2-1-2.1-2.1-2.1H11.1C9.9,0,9,1,9,2.1v0.5H2c-1,0-1.9,0.7-2,1.8v23c0,0.3,0.2,0.5,0.4,0.5
		c0,0,0,0,0.1,0h3.4v-3.3h2.2v3.3H9v3.9c0,0.3,0.2,0.5,0.4,0.5c0,0,0,0,0.1,0H15v-4.6c0-0.1,0-0.1,0.1-0.1h2.6c0.1,0,0.1,0,0.1,0.1
		v4.7h5.5c0.3,0,0.5-0.2,0.5-0.4c0,0,0,0,0-0.1v-1.3l-3.2-1.2C20.1,29.2,19.6,28.7,19.6,28.1z M28.8,5.1c0-0.3,0.2-0.5,0.5-0.5
		c0,0,0,0,0.1,0c0.3,0,0.5,0.2,0.5,0.4c0,0,0,0,0,0.1v1.1c0,0.3-0.2,0.5-0.4,0.5c0,0,0,0-0.1,0c-0.3,0-0.5-0.2-0.5-0.4
		c0,0,0,0,0-0.1L28.8,5.1L28.8,5.1z M28.8,8.9c0-0.3,0.2-0.5,0.4-0.5c0,0,0,0,0.1,0c0.3,0,0.5,0.2,0.5,0.5c0,0,0,0,0,0.1v1.1
		c0,0.3-0.2,0.5-0.4,0.5c0,0,0,0-0.1,0c-0.3,0-0.5-0.2-0.5-0.4c0,0,0,0,0-0.1V8.9z M28.8,12.7c0-0.3,0.2-0.5,0.4-0.5c0,0,0,0,0.1,0
		c0.3,0,0.5,0.2,0.5,0.5l0,0v1c0,0.3-0.2,0.5-0.4,0.5c0,0,0,0-0.1,0c-0.3,0-0.5-0.2-0.5-0.4c0,0,0,0,0-0.1V12.7z M28.8,16.5
		c0-0.3,0.2-0.5,0.5-0.5l0,0c0.3,0,0.5,0.2,0.5,0.5v1.1c0,0.3-0.2,0.5-0.4,0.5c0,0,0,0-0.1,0c-0.3,0-0.5-0.2-0.5-0.5l0,0V16.5z
		 M28.8,20.2c0-0.3,0.2-0.5,0.5-0.5l0,0c0.3,0,0.5,0.2,0.5,0.5c0,0,0,0,0,0.1v1.1c0,0.3-0.2,0.5-0.4,0.5c0,0,0,0-0.1,0
		c-0.3,0-0.5-0.2-0.5-0.5l0,0V20.2z M25.6,5.1c0-0.3,0.2-0.5,0.4-0.5c0,0,0,0,0.1,0c0.3,0,0.5,0.2,0.5,0.5l0,0v1.1
		c-0.1,0.3-0.3,0.5-0.6,0.4c-0.2,0-0.4-0.2-0.4-0.4V5.1z M25.6,8.9c0-0.3,0.2-0.5,0.4-0.5c0,0,0,0,0.1,0c0.3,0,0.5,0.2,0.5,0.5V10
		c-0.1,0.3-0.3,0.5-0.6,0.4c-0.2,0-0.4-0.2-0.4-0.4V8.9z M25.6,12.7c0-0.3,0.2-0.5,0.4-0.5c0,0,0,0,0.1,0c0.3,0,0.5,0.2,0.5,0.5v1
		c-0.1,0.3-0.3,0.5-0.6,0.4c-0.2,0-0.4-0.2-0.4-0.4V12.7z M25.6,16.5c0-0.3,0.2-0.5,0.4-0.5c0,0,0,0,0.1,0c0.3,0,0.5,0.2,0.5,0.5
		v1.1c0.1,0.3-0.1,0.5-0.4,0.6s-0.5-0.1-0.6-0.4c0-0.1,0-0.1,0-0.2V16.5z M25.6,20.2c0-0.3,0.2-0.5,0.4-0.5c0,0,0,0,0.1,0
		c0.3,0,0.5,0.2,0.5,0.5v1.1c0.1,0.3-0.1,0.5-0.4,0.6s-0.5-0.1-0.6-0.4c0-0.1,0-0.1,0-0.2V20.2z M19.6,3.1c0.1-0.3,0.4-0.5,0.6-0.4
		c0.2,0,0.4,0.2,0.4,0.4v1.4C20.5,4.8,20.3,5,20,4.9c-0.2,0-0.4-0.2-0.4-0.4V3.1z M19.6,8c-0.1-0.3,0.1-0.5,0.4-0.6s0.5,0.1,0.6,0.4
		c0,0.1,0,0.1,0,0.2v1.4c0.1,0.3-0.1,0.5-0.4,0.6s-0.5-0.1-0.6-0.4c0-0.1,0-0.1,0-0.2V8z M19.6,12.9c-0.1-0.3,0.1-0.5,0.4-0.6
		s0.5,0.1,0.6,0.4c0,0.1,0,0.1,0,0.2v1.4c0.1,0.3-0.1,0.5-0.4,0.6s-0.5-0.1-0.6-0.4c0-0.1,0-0.1,0-0.2V12.9z M19.6,17.8
		c0.1-0.3,0.3-0.5,0.6-0.4c0.2,0,0.4,0.2,0.4,0.4v1.4c-0.1,0.3-0.3,0.5-0.6,0.4c-0.2,0-0.4-0.2-0.4-0.4V17.8z M19.6,22.7
		c-0.1-0.3,0.1-0.5,0.4-0.6s0.5,0.1,0.6,0.4c0,0.1,0,0.1,0,0.2v1.4c0.1,0.3-0.1,0.5-0.4,0.6s-0.5-0.1-0.6-0.4c0-0.1,0-0.1,0-0.2
		V22.7z M3.8,21.3c0.1,0.3-0.1,0.5-0.4,0.6c-0.3,0.1-0.5-0.1-0.6-0.4c0-0.1,0-0.1,0-0.2v-1.1c0-0.3,0.2-0.5,0.4-0.5c0,0,0,0,0.1,0
		c0.3,0,0.5,0.2,0.5,0.5l0,0V21.3z M3.8,17.5c0.1,0.3-0.1,0.5-0.4,0.6c-0.3,0.1-0.5-0.1-0.6-0.4c0-0.1,0-0.1,0-0.2v-1.1
		c0-0.3,0.2-0.5,0.4-0.5c0,0,0,0,0.1,0c0.3,0,0.5,0.2,0.5,0.5V17.5z M3.8,13.7c-0.1,0.3-0.3,0.5-0.6,0.4c-0.2,0-0.4-0.2-0.4-0.4v-1
		c0-0.3,0.2-0.5,0.4-0.5c0,0,0,0,0.1,0c0.3,0,0.5,0.2,0.5,0.5V13.7z M3.8,10c-0.1,0.3-0.3,0.5-0.6,0.4c-0.2,0-0.4-0.2-0.4-0.4V8.9
		c0-0.3,0.2-0.5,0.4-0.5c0,0,0,0,0.1,0c0.3,0,0.5,0.2,0.5,0.5l0,0V10z M3.8,6.2C3.7,6.5,3.5,6.7,3.2,6.6C3,6.6,2.8,6.4,2.8,6.2V5.1
		c0-0.3,0.2-0.5,0.4-0.5c0,0,0,0,0.1,0c0.3,0,0.5,0.2,0.5,0.5l0,0V6.2z M7,21.3c0,0.3-0.2,0.5-0.4,0.5c0,0,0,0-0.1,0
		c-0.3,0-0.5-0.2-0.5-0.5l0,0v-1.1c0-0.3,0.2-0.5,0.5-0.5l0,0c0.3,0,0.5,0.2,0.5,0.5c0,0,0,0,0,0.1V21.3z M7,17.5
		C7,17.8,6.8,18,6.6,18c0,0,0,0-0.1,0C6.2,18,6,17.8,6,17.5l0,0v-1.1c0-0.3,0.2-0.5,0.5-0.5l0,0c0.3,0,0.5,0.2,0.5,0.5V17.5z
		 M7,13.7c0,0.3-0.2,0.5-0.4,0.5c0,0,0,0-0.1,0C6.2,14.2,6,14,6,13.8c0,0,0,0,0-0.1v-1c0-0.3,0.2-0.5,0.4-0.5c0,0,0,0,0.1,0
		c0.3,0,0.5,0.2,0.5,0.5l0,0V13.7z M7,10c0,0.3-0.2,0.5-0.4,0.5c0,0,0,0-0.1,0c-0.3,0-0.5-0.2-0.5-0.4c0,0,0,0,0-0.1V8.9
		c0-0.3,0.2-0.5,0.4-0.5c0,0,0,0,0.1,0C6.8,8.4,7,8.6,7,8.9c0,0,0,0,0,0.1V10z M7,6.2c0,0.3-0.2,0.5-0.4,0.5c0,0,0,0-0.1,0
		C6.2,6.7,6,6.5,6,6.3c0,0,0,0,0-0.1V5.1c0-0.3,0.2-0.5,0.5-0.5c0,0,0,0,0.1,0c0.3,0,0.5,0.2,0.5,0.4c0,0,0,0,0,0.1v1.1H7z M13,24.1
		c0.1,0.3-0.1,0.5-0.4,0.6s-0.5-0.1-0.6-0.4c0-0.1,0-0.1,0-0.2v-1.4c-0.1-0.3,0.1-0.5,0.4-0.6s0.5,0.1,0.6,0.4c0,0.1,0,0.1,0,0.2
		V24.1z M13,19.2c-0.1,0.3-0.3,0.5-0.6,0.4c-0.2,0-0.4-0.2-0.4-0.4v-1.4c0.1-0.3,0.3-0.5,0.6-0.4c0.2,0,0.4,0.2,0.4,0.4V19.2z
		 M13,14.3c0.1,0.3-0.1,0.5-0.4,0.6s-0.5-0.1-0.6-0.4c0-0.1,0-0.1,0-0.2v-1.4c-0.1-0.3,0.1-0.5,0.4-0.6s0.5,0.1,0.6,0.4
		c0,0.1,0,0.1,0,0.2V14.3z M13,9.4c0.1,0.3-0.1,0.5-0.4,0.6S12.1,9.9,12,9.6c0-0.1,0-0.1,0-0.2V8c-0.1-0.3,0.1-0.5,0.4-0.6
		s0.5,0.1,0.6,0.4c0,0.1,0,0.1,0,0.2V9.4z M13,4.5c-0.1,0.3-0.3,0.5-0.6,0.4c-0.2,0-0.4-0.2-0.4-0.4V3.1c0.1-0.3,0.3-0.5,0.6-0.4
		c0.2,0,0.4,0.2,0.4,0.4V4.5z M16.8,24.1c0.1,0.3-0.1,0.5-0.4,0.6s-0.5-0.1-0.6-0.4c0-0.1,0-0.1,0-0.2v-1.4
		c-0.1-0.3,0.1-0.5,0.4-0.6s0.5,0.1,0.6,0.4c0,0.1,0,0.1,0,0.2V24.1z M16.8,19.2c-0.1,0.3-0.3,0.5-0.6,0.4c-0.2,0-0.4-0.2-0.4-0.4
		v-1.4c0.1-0.3,0.3-0.5,0.6-0.4c0.2,0,0.4,0.2,0.4,0.4V19.2z M16.8,14.3c0.1,0.3-0.1,0.5-0.4,0.6s-0.5-0.1-0.6-0.4
		c0-0.1,0-0.1,0-0.2v-1.4c-0.1-0.3,0.1-0.5,0.4-0.6s0.5,0.1,0.6,0.4c0,0.1,0,0.1,0,0.2V14.3z M16.8,9.4c0.1,0.3-0.1,0.5-0.4,0.6
		s-0.5-0.1-0.6-0.4c0-0.1,0-0.1,0-0.2V8c-0.1-0.3,0.1-0.5,0.4-0.6s0.5,0.1,0.6,0.4c0,0.1,0,0.1,0,0.2V9.4z M16.8,4.5
		c-0.1,0.3-0.3,0.5-0.6,0.4c-0.2,0-0.4-0.2-0.4-0.4V3.1c0.1-0.3,0.3-0.5,0.6-0.4c0.2,0,0.4,0.2,0.4,0.4V4.5z"/>
	<path class="st1" d="M33.9,33.5c-0.2,0.1-0.4,0.1-0.6,0.2c-0.2,0-0.4,0-0.7,0c-0.2,0-0.4,0-0.7,0c-0.2,0-0.4-0.1-0.6-0.2l-0.7-0.3
		L26,31.4v2.5c0.1,0.1,0.2,0.2,0.2,0.3c0.2,0.2,0.5,0.5,0.8,0.7c0.4,0.3,0.9,0.6,1.4,0.8c0.4,0.2,0.9,0.3,1.4,0.4
		c0.2,0.1,0.4,0.1,0.6,0.1c0.7,0.1,1.4,0.2,2.2,0.2c0.9,0,1.9-0.1,2.8-0.3c0.5-0.1,0.9-0.2,1.4-0.4s1-0.5,1.4-0.8
		c0.3-0.2,0.5-0.4,0.8-0.7c0.1-0.1,0.2-0.2,0.2-0.3v-2.5l-4.6,1.8L33.9,33.5z"/>
	<path class="st2" d="M33.4,32.7c0.1,0,0.2,0,0.2-0.1l0.7-0.3l-0.7,0.3C33.5,32.7,33.5,32.7,33.4,32.7z"/>
	<path class="st0" d="M39,34.2c-0.2,0.2-0.5,0.5-0.8,0.7"/>
	<path class="st0" d="M29.9,36.1c-0.5-0.1-0.9-0.2-1.4-0.4"/>
	<path class="st2" d="M32.6,36.4L32.6,36.4c-0.7,0-1.4-0.1-2.2-0.2C31.2,36.4,31.9,36.4,32.6,36.4z"/>
	<path class="st0" d="M30.5,36.2c-0.2,0-0.4-0.1-0.6-0.1"/>
	<path class="st1" d="M44.7,28C44.7,28,44.7,27.9,44.7,28c-0.1-0.1-0.2-0.2-0.2-0.2l-0.1-0.1l-10.8-4.1c-0.1-0.1-0.3-0.1-0.5-0.1
		c-0.1,0-0.3,0-0.4,0h-0.1c-0.3,0-0.7,0-1,0.2l-2.8,1l-2.2,0.8l-5.7,2.2c-0.1,0-0.2,0.1-0.3,0.2L20.5,28v0.1v0.1
		c0,0.1,0.1,0.2,0.2,0.2l0.2,0.1l2.9,1.1l1.4,0.5l0.2,0.1l5.6,2.2l0.7,0.3c0.1,0.1,0.3,0.1,0.5,0.1s0.3,0,0.5,0H33h0.2
		c0.1,0,0.2,0,0.2-0.1c0.1,0,0.2,0,0.2-0.1l0.7-0.3l5.6-2.2l0.2-0.1l1.2-0.4v2.5c-0.1,0-0.2,0.1-0.2,0.2c-0.2,0.2-0.3,0.4-0.4,0.6
		c-0.1,0.2-0.1,0.3-0.1,0.5v0.5c0,0.2,0,0.3,0,0.5s0,0.5,0,0.8c0,0.1,0,0.2-0.1,0.3c0,0.1-0.1,0.2-0.1,0.3s-0.1,0.2-0.2,0.3
		c-0.1,0.1-0.1,0.2-0.2,0.3l0,0l0,0l0.1,0.1h0.1l0.2,0.1h0.1h0.1h0.2l0.4-1.3c0.1,0.2,0.1,0.5,0.1,0.7s0,0.4,0,0.6h0.3h0.2h0.1H42
		c0.1,0,0.2,0,0.3-0.1l0,0c0.1,0,0.2-0.1,0.2-0.2l0,0c0,0,0.1-0.3,0.1-0.8c0-0.2,0-0.4,0.1-0.7c0-0.1,0-0.2,0-0.2v-0.7
		c0-0.2,0-0.5-0.1-0.7c0-0.1-0.1-0.2-0.1-0.3s-0.1-0.2-0.1-0.3s-0.1-0.2-0.1-0.2c0-0.1-0.1-0.1-0.2-0.2v-3l1-0.4l1-0.4
		c0.1,0,0.2-0.1,0.3-0.2c0.1,0,0.1-0.1,0.1-0.2C44.7,28.1,44.7,28,44.7,28z"/>
	<path class="st2" d="M41.5,36.6L41.5,36.6z"/>
	<path class="st2" d="M42.3,32.3c0.1,0.1,0.1,0.1,0.2,0.2C42.4,32.4,42.4,32.3,42.3,32.3v-3l1-0.4l-1,0.4V32.3z"/>
	<polygon class="st2" points="42.7,36.3 42.7,36.3 42.7,36.3 	"/>
	<path class="st2" d="M42.9,33.9L42.9,33.9c0-0.2,0-0.5-0.1-0.7c0-0.1-0.1-0.2-0.1-0.3c0,0.1,0.1,0.2,0.1,0.3
		C42.8,33.5,42.9,33.7,42.9,33.9z"/>
	<path class="st2" d="M41.9,36.6L41.9,36.6L41.9,36.6L41.9,36.6z"/>
	<path class="st0" d="M40.7,36.6h0.2"/>
	<path class="st0" d="M42.8,35.5c0-0.2,0-0.4,0.1-0.7"/>
	<line class="st0" x1="41.3" y1="29.7" x2="40.1" y2="30.1"/>
	<path class="st0" d="M40.7,32.9c0.1-0.2,0.2-0.4,0.4-0.6"/>
	<path class="st2" d="M41.4,36c0,0.2,0,0.4,0,0.6l0,0C41.4,36.4,41.4,36.2,41.4,36z"/>
	<path class="st0" d="M41.5,36.6L41.5,36.6"/>
	<path class="st2" d="M40.2,36.5C40.2,36.5,40.3,36.5,40.2,36.5l0.3,0.1L40.2,36.5C40.3,36.5,40.2,36.5,40.2,36.5z"/>
	<polygon class="st2" points="41.3,35.3 41.3,35.3 40.9,36.6 	"/>
	<path class="st0" d="M40.2,36.1c-0.1,0.1-0.1,0.2-0.2,0.3l0,0"/>
	<path class="st2" d="M40.7,32.9c-0.1,0.2-0.1,0.3-0.1,0.5l0,0C40.6,33.3,40.6,33.1,40.7,32.9z"/>
	<path class="st0" d="M40.6,34.4c0-0.2,0-0.3,0-0.5"/>
	<line class="st0" x1="20.9" y1="27.7" x2="26.6" y2="25.5"/>
	<path class="st2" d="M32.6,32.8L32.6,32.8c-0.2,0-0.3,0-0.5,0C32.3,32.8,32.5,32.8,32.6,32.8z"/>
	<path class="st0" d="M33.4,32.7c-0.1,0-0.2,0-0.2,0.1h-0.3"/>
	<line class="st0" x1="39.9" y1="30.2" x2="40.1" y2="30.1"/>
	<path class="st2" d="M30.9,32.4l0.7,0.3c0.1,0.1,0.3,0.1,0.5,0.1c-0.2,0-0.3-0.1-0.5-0.1L30.9,32.4z"/>
</g>
</svg>
