<?xml version="1.0" encoding="utf-8"?>
<!-- Generator: Adobe Illustrator 24.2.0, SVG Export Plug-In . SVG Version: 6.00 Build 0)  -->
<svg version="1.1" id="Calque_1" xmlns="http://www.w3.org/2000/svg" xmlns:xlink="http://www.w3.org/1999/xlink" x="0px" y="0px"
	 viewBox="0 0 50.8 24.4" style="enable-background:new 0 0 50.8 24.4;" xml:space="preserve">
<style type="text/css">
	.st0{fill:#4B0082;}
</style>
<g>
	<path class="st0" d="M37,0c0.5,0,0.9,0.4,1,0.8c2.7,8,6.9,15.3,12.5,21.7c0.4,0.5,0.4,1.2,0,1.6c-0.5,0.4-1.2,0.4-1.6,0l-0.1-0.1
		c-0.7-0.8-1.3-1.6-2-2.4v1.7c0,0.6-0.5,1.2-1.1,1.2h0H5.4c-0.6,0-1.1-0.5-1.1-1.2l0,0v-1.8C3.5,22.2,2.8,23.1,2,24
		c-0.4,0.5-1.2,0.5-1.6,0.1c-0.5-0.4-0.5-1.2-0.1-1.6l0,0l0,0C6.1,16.3,10.4,8.9,12.8,0.8C12.9,0.3,13.4,0,13.9,0H37z M38,7.2V22
		h6.4v-3.6C41.9,14.9,39.8,11.2,38,7.2L38,7.2z M35.7,9.2c-1.5,3.5-3.7,6.7-6.4,9.4V22h6.4V9.2z"/>
</g>
</svg>
