<?xml version="1.0" encoding="utf-8"?>
<!-- Generator: Adobe Illustrator 24.2.0, SVG Export Plug-In . SVG Version: 6.00 Build 0)  -->
<svg version="1.1" id="Calque_1" xmlns="http://www.w3.org/2000/svg" xmlns:xlink="http://www.w3.org/1999/xlink" x="0px" y="0px"
	 viewBox="0 0 14.1 39.8" style="enable-background:new 0 0 14.1 39.8;" xml:space="preserve">
<style type="text/css">
	.st0{fill:none;}
	.st1{fill:#4B0082;}
</style>
<rect x="2" y="31.8" class="st0" width="2" height="2"/>
<rect x="2" y="35.8" class="st0" width="2" height="2"/>
<rect x="2" y="23.7" class="st0" width="2" height="2"/>
<rect x="2" y="19.7" class="st0" width="2" height="2"/>
<rect x="2" y="27.7" class="st0" width="2" height="2"/>
<rect x="4" y="13.7" class="st0" width="2" height="2"/>
<rect x="4" y="9.6" class="st0" width="2" height="2"/>
<rect x="6.1" y="3.6" class="st0" width="2" height="2"/>
<rect x="8.1" y="13.7" class="st0" width="2" height="2"/>
<rect x="8.1" y="9.6" class="st0" width="2" height="2"/>
<rect x="10.1" y="19.7" class="st0" width="2" height="2"/>
<rect x="10.1" y="27.7" class="st0" width="2" height="2"/>
<rect x="10.1" y="23.7" class="st0" width="2" height="2"/>
<rect x="6.1" y="35.8" class="st0" width="2" height="2"/>
<rect x="10.1" y="35.8" class="st0" width="2" height="2"/>
<rect x="10.1" y="31.8" class="st0" width="2" height="2"/>
<rect x="6.1" y="27.7" class="st0" width="2" height="2"/>
<rect x="6.1" y="31.8" class="st0" width="2" height="2"/>
<rect x="6.1" y="19.7" class="st0" width="2" height="2"/>
<rect x="6.1" y="23.7" class="st0" width="2" height="2"/>
<path class="st1" d="M12.1,17.6v-10h-2v-6H8.6L7.1,0L5.5,1.6H4v6H2v10H0v22.2h14.1V17.6H12.1z M6.1,5.6v-2h2v2H6.1z M10,13.6v2H8v-2
	H10z M8,11.6v-2h2v2H8z M4,9.6h2v2H4L4,9.6z M4,13.6h2v2H4L4,13.6z M4,37.8H2v-2h2L4,37.8z M4,33.8H2v-2h2L4,33.8z M4,29.8H2v-2h2
	L4,29.8z M4,25.8H2v-2h2L4,25.8z M4,21.8H2v-2h2L4,21.8z M8,37.9H6v-2h2V37.9z M8,33.9H6v-2h2V33.9z M8,29.9H6v-2h2V29.9z M8,25.9H6
	v-2h2V25.9z M8,21.9H6v-2h2V21.9z M12,38h-2v-2h2V38z M12,34h-2v-2h2V34z M12,30h-2v-2h2V30z M12,26h-2v-2h2V26z M12,22h-2v-2h2V22z
	"/>
</svg>
