<?xml version="1.0" encoding="utf-8"?>
<!-- Generator: Adobe Illustrator 24.2.0, SVG Export Plug-In . SVG Version: 6.00 Build 0)  -->
<svg version="1.1" id="Calque_1" xmlns="http://www.w3.org/2000/svg" xmlns:xlink="http://www.w3.org/1999/xlink" x="0px" y="0px"
	 viewBox="0 0 81.1 36.7" style="enable-background:new 0 0 81.1 36.7;" xml:space="preserve">
<style type="text/css">
	.st0{fill:none;}
	.st1{fill:#4B0082;}
</style>
<g>
	<path class="st0" d="M57.5,9.9c1.1,0,2-0.9,2-2s-0.9-2-2-2c-1.1,0-2,0.9-2,2S56.4,9.9,57.5,9.9z"/>
	<path class="st0" d="M34.9,33.3h1c-0.5-0.3-0.9-0.8-1-1.4H11.8c-0.1,0.6-0.4,1.1-1,1.4H34.9z"/>
	<path class="st0" d="M26.3,24.8h3.6c0.8-0.1,1.4-0.9,1.3-1.7v-4.7c0.1-0.8-0.5-1.6-1.3-1.7h-3.6c-0.8,0.1-1.4,0.9-1.3,1.7v4.7
		C24.9,23.9,25.5,24.7,26.3,24.8z"/>
	<path class="st0" d="M35.9,24.8h3.6c0.8-0.1,1.4-0.9,1.3-1.7v-4.7c0-0.1,0-0.3,0-0.4c-0.1-0.4-0.3-0.8-0.7-1.1
		c-0.2-0.1-0.3-0.2-0.5-0.2h-3.7h-0.2c-0.7,0.2-1.2,0.9-1.1,1.7v4.7C34.6,23.9,35.1,24.7,35.9,24.8z M35.3,23h0.5v-5.5
		c0.1,0,0.1-0.1,0.2-0.1h3.6c0.2,0,0.4,0.2,0.5,0.5V18h0.1c0,0.1,0.1,0.3,0.1,0.4v0.7h-0.1v2.3h0.1v1.7c0,0.6-0.3,1.1-0.7,1.1h-3.6
		c-0.3,0-0.7-0.4-0.7-1.1V23z"/>
	<path class="st0" d="M38.4,32.7c-0.2,0.3-0.4,0.5-0.7,0.7h1.4C38.8,33.2,38.5,32.9,38.4,32.7z"/>
	<path class="st0" d="M8.3,32.7c-0.2,0.3-0.4,0.5-0.7,0.7H9C8.7,33.2,8.5,32.9,8.3,32.7z"/>
	<path class="st0" d="M61.2,17.7c0-4.5-7.4-4.4-7.4,0V23h7.4V17.7z"/>
	<rect x="71.9" y="19.1" class="st0" width="3.1" height="2.3"/>
	<rect x="67.6" y="19.1" class="st0" width="3.1" height="2.3"/>
	<rect x="71.9" y="15.7" class="st0" width="3.1" height="2.3"/>
	<polygon class="st0" points="53.5,29.4 52.8,31.7 62.3,31.7 61.7,29.4 	"/>
	<rect x="67.6" y="15.7" class="st0" width="3.1" height="2.3"/>
	<polygon class="st0" points="54.2,27 60.9,27 60.5,25.6 54.6,25.6 	"/>
	<path class="st1" d="M35.9,24.2h3.6c0.3,0,0.7-0.4,0.7-1.1v-1.7h-0.1v-2.3h0.1v-0.7c0-0.1,0-0.3-0.1-0.4h-0.1v-0.2
		c-0.1-0.3-0.3-0.5-0.5-0.5h-3.6c-0.1,0-0.1,0-0.2,0.1V23h-0.5v0.2C35.3,23.7,35.6,24.2,35.9,24.2z"/>
	<path class="st1" d="M81.1,23h-1.8V11.4h-8.7V6.9L57.5,0l-13,6.9v4.4h-8.8v3.3h7.6c0.7,0,1.4,0.2,1.9,0.7c0.1,0.1,0.2,0.2,0.3,0.4
		h1.9V18H46v1.1h1.4v2.3H46v4.2h5.8l-3.3,11h2.8l0.8-2.6h11l0.8,2.6h2.8l-3.3-11h17.8V23z M57.5,6c1.1,0,2,0.9,2,2s-0.9,2-2,2
		s-2-0.9-2-2C55.5,6.9,56.4,5.9,57.5,6C57.5,5.9,57.5,5.9,57.5,6L57.5,6z M53.8,17.8c0-4.4,7.4-4.5,7.4,0V23h-7.4L53.8,17.8z M61,27
		h-6.8l0.4-1.4h5.9L61,27z M52.9,31.7l0.6-2.2h8.2l0.7,2.2L52.9,31.7z M70.7,21.5h-3.1v-2.3h3.1V21.5z M70.7,18h-3.1v-2.3h3.1V18z
		 M74.9,21.5h-3.1v-2.3h3.1V21.5z M74.9,18h-3.1v-2.3h3.1V18z"/>
	<path class="st1" d="M46,29.6h-0.7c0-0.4,0-0.8,0-1.2v-9.2c0-0.4,0-0.8,0-1.1c0.1-0.8-0.1-1.6-0.7-2.3c-0.4-0.3-0.9-0.5-1.4-0.4
		h-40c-2.2,0-2,1.8-2,3.9v9.1c0,0.4,0,0.8,0,1.2H0.7v-0.3H0v2.1h0.7V31h0.9c0.3,0.6,1,1,1.7,0.9h1.5c0.1,0.6,0.4,1.1,0.9,1.4
		c0.1,0.1,0.2,0.1,0.3,0.1c0.2,0.1,0.4,0.1,0.6,0.1c0.3,0,0.6-0.1,0.9-0.2c0.3-0.2,0.5-0.4,0.7-0.7c0.2,0.3,0.4,0.5,0.7,0.7
		c0.1,0.1,0.2,0.1,0.3,0.1c0.2,0.1,0.4,0.1,0.6,0.1c0.3,0,0.6-0.1,0.9-0.2c0.5-0.3,0.9-0.8,1-1.4h23.1c0.1,0.6,0.5,1.1,1,1.4
		c0.1,0.1,0.2,0.1,0.3,0.1c0.2,0.1,0.4,0.1,0.6,0.1c0.2,0,0.4,0,0.6-0.1c0.1,0,0.2-0.1,0.3-0.1c0.3-0.2,0.5-0.4,0.7-0.7
		c0.2,0.3,0.4,0.5,0.7,0.7c0.3,0.2,0.6,0.2,0.9,0.2c0.2,0,0.4,0,0.6-0.1c0.1,0,0.2-0.1,0.3-0.1c0.5-0.3,0.9-0.8,0.9-1.4h1.5
		c0.7,0.1,1.4-0.3,1.7-0.9h1v0.3h0.7v-2.1h-0.7L46,29.6z M34.6,18.5c-0.1-0.7,0.4-1.4,1.1-1.7h0.2h3.6c0.2,0,0.4,0.1,0.5,0.2
		c0.4,0.2,0.6,0.6,0.7,1.1c0,0.1,0,0.3,0,0.4v4.7c0.1,0.8-0.5,1.6-1.3,1.7h-3.6c-0.8-0.1-1.4-0.9-1.3-1.7V18.5z M25,18.5
		c-0.1-0.8,0.5-1.6,1.3-1.7h3.6c0.8,0.1,1.4,0.9,1.3,1.7v4.7c0.1,0.8-0.5,1.6-1.3,1.7h-3.6c-0.8-0.1-1.4-0.9-1.3-1.7V18.5z
		 M5.9,18.5c-0.1-0.8,0.5-1.6,1.3-1.7h3.6c0.8,0.1,1.4,0.9,1.3,1.7v4.7c0.1,0.8-0.5,1.6-1.3,1.7H7.2c-0.8-0.1-1.4-0.9-1.3-1.7V18.5z
		 M15.5,18.5c-0.1-0.8,0.5-1.6,1.3-1.7h3.6c0.8,0.1,1.4,0.9,1.3,1.7v4.7c0.1,0.8-0.5,1.6-1.3,1.7h-3.6c-0.8-0.1-1.4-0.9-1.3-1.7
		V18.5z"/>
	<path class="st1" d="M40,33.5c-0.3,0-0.6-0.1-0.9-0.2h-1.4c-0.1,0.1-0.2,0.1-0.3,0.1c-0.2,0.1-0.4,0.1-0.6,0.1
		c-0.2,0-0.4,0-0.6-0.1c-0.1,0-0.2-0.1-0.3-0.1h-25c-0.3,0.2-0.6,0.2-0.9,0.2c-0.2,0-0.4,0-0.6-0.1c-0.1,0-0.2-0.1-0.3-0.1H7.6
		c-0.3,0.2-0.6,0.2-0.9,0.2c-0.2,0-0.4,0-0.6-0.1c-0.1,0-0.2-0.1-0.3-0.1H0.2v0.6h46.4v-0.6h-5.7c-0.1,0.1-0.2,0.1-0.3,0.1
		C40.4,33.5,40.2,33.5,40,33.5z"/>
</g>
</svg>
