<?xml version="1.0" encoding="utf-8"?>
<!-- Generator: Adobe Illustrator 24.2.0, SVG Export Plug-In . SVG Version: 6.00 Build 0)  -->
<svg version="1.1" id="Calque_1" xmlns="http://www.w3.org/2000/svg" xmlns:xlink="http://www.w3.org/1999/xlink" x="0px" y="0px"
	 viewBox="0 0 41.4 36.3" style="enable-background:new 0 0 41.4 36.3;" xml:space="preserve">
<style type="text/css">
	.st0{fill:none;}
	.st1{fill:#4B0082;}
</style>
<g>
	<path class="st0" d="M17.6,28.1c3.4,1.8,6.9,3.4,10.5,4.8l2.6,0.1l0,0c0.1-0.4-0.1-0.7-0.5-0.8c-3.7-1.2-7.2-2.7-10.6-4.5
		c2.3-0.9,4.5-2.1,6.5-3.6c0.3-0.2,0.4-0.7,0.1-1c0,0,0,0,0,0c-0.2-0.3-0.7-0.4-1-0.1c0,0,0,0,0,0c-2.3,1.7-4.9,3.1-7.6,4
		c-0.3,0.1-0.4,0.3-0.5,0.6C17.2,27.7,17.3,27.9,17.6,28.1z"/>
	<path class="st0" d="M30.4,18.3c0-1.1-0.9-2-2-2c-1.1,0-2,0.9-2,2v4h4.1V18.3z"/>
	<path class="st0" d="M17.2,22.4c0-1.1-0.9-2-2-2c-1.1,0-2,0.9-2,2v3.9h4.1L17.2,22.4z"/>
	<path class="st0" d="M10.5,32.2l0.6-0.1c0.1,0,0.2-0.1,0.3-0.2l1.3-1.4c0.3-0.3,0.3-0.7,0-1c0,0,0,0,0,0c-0.3-0.3-0.7-0.3-1,0
		c0,0,0,0,0,0l-1.2,1.3L7,31.7c-0.2,0.1-0.4,0.2-0.5,0.4L10.5,32.2z"/>
	<path class="st1" d="M41.4,35.9C41.4,35.9,41.4,35.8,41.4,35.9c0-0.1,0-0.1,0-0.1s0,0,0,0c-0.7-1.7-1.5-3.3-2.6-4.8
		c-0.1-0.7-0.2-1.3-0.2-1.9c-0.1,0.1-0.2,0.1-0.4,0.1c-0.2,0-0.4-0.1-0.5-0.2l-1.4-1.3l-1.9,0.8c-0.1,0-0.2,0-0.3,0
		c-0.4,0-0.7-0.3-0.7-0.7c0-0.3,0.2-0.5,0.4-0.6l1.3-0.5l0,0c-0.3-0.3-0.3-0.7,0-1s0.7-0.3,1,0l0.8,0.8l0,0l1.4,1.3
		c-0.3-2.3-0.6-4.4-0.9-6.4c-0.8,1-1.9,1.7-3.1,2h-0.2c-0.3,0-0.6-0.2-0.7-0.5c-0.1-0.4,0.1-0.7,0.5-0.8c0,0,0,0,0,0
		c1-0.3,1.8-0.8,2.4-1.6c0.2-0.2,0.5-0.4,0.8-0.3c-0.4-2.2-0.7-4.2-1.1-5.9c0-0.2-0.1-0.3-0.2-0.4c-2-1.8-4.2-3.3-6.6-4.5
		c-0.2-1.5-0.4-2.6-0.5-3.4l-0.1-0.6c0-0.2-0.1-0.3-0.3-0.5c-0.2-0.1-0.3-0.2-0.5-0.1c-2.9,0.4-5.7,1.5-8,3.3
		C19.9,8,20,8.2,20.1,8.4c0,0.4-0.3,0.7-0.6,0.8l-3.3,0.3l-1.6,1.5l2.3,1.2l5.6-1.1c0.4-0.1,0.7,0.2,0.8,0.5
		c0.1,0.4-0.2,0.7-0.5,0.8l-1.9,0.4l0.6,0.5c0.3,0.2,0.4,0.7,0.1,1c0,0,0,0,0,0c-0.1,0.2-0.3,0.3-0.5,0.3c-0.2,0-0.3-0.1-0.4-0.1
		L19,13l-2.1,0.4h-0.1c-0.1,0-0.2,0-0.3-0.1L13,11.6c-0.2-0.1-0.3-0.3-0.4-0.5c0-0.2,0.1-0.5,0.2-0.6l2.5-2.3
		C15.5,8.1,15.6,8,15.8,8l3.5-0.3h0.1c-1.3-2.8-3-5.3-5.1-7.5C14.1,0,13.8,0,13.6,0c-0.2,0-0.4,0.2-0.5,0.4
		c-2.4,5.5-3.9,11.3-4.4,17.2c-1.5,0.8-3,1.7-4.2,2.8c0.2-0.2,0.5-0.2,0.8-0.1l3,1.6c0.2,0.1,0.3,0.3,0.4,0.5l0.2,1.2l0.8,0.2
		c0.4,0,0.7,0.4,0.6,0.8c0,0.4-0.4,0.7-0.8,0.6H9.2l-0.2,0v0.3c0.1,0.3-0.1,0.7-0.5,0.8H8.4c-0.3,0-0.6-0.2-0.7-0.6l-0.2-1.2v-0.1
		l-0.2-1.2l-2.8-1.5c-0.3-0.1-0.4-0.4-0.4-0.7l0,0l-1.5,10c-1.3,1.4-2.2,3-2.6,4.9l0,0c0,0,0,0,0,0.1s0,0,0,0.1l0,0l0,0V36v0.1v0.1
		v0.1l0,0v0.1l0,0l0,0v0h0.1h0.1h0.1h0.1h0.3h0.2h13.5c0.4,0,0.7-0.2,0.8-0.6s-0.2-0.7-0.6-0.8c-0.1,0-0.1,0-0.2,0h1.6
		c2.9,0.6,5.8,1.1,8.8,1.4c0.4,0.1,0.7-0.2,0.8-0.6s-0.2-0.7-0.6-0.8c0,0-0.1,0-0.1,0h2.4c-0.4,0-0.7,0.2-0.8,0.6s0.2,0.7,0.6,0.8
		c0.1,0,0.1,0,0.2,0h13.5c0.1,0,0.1,0,0.2,0l0,0l0,0c0,0,0,0,0.1,0H41l0,0l0,0h0v-0.1l0,0v-0.1c0,0,0,0,0,0c0,0,0,0,0-0.1
		c0,0,0,0,0-0.1c0,0,0-0.1,0-0.1v0H41.4z M26.4,18.3c0-1.1,0.9-2,2-2c1.1,0,2,0.9,2,2v4h-4.1V18.3z M17.7,26.8
		c2.7-0.9,5.3-2.3,7.6-4c0.3-0.2,0.7-0.2,1,0.1c0,0,0,0,0,0c0.3,0.3,0.2,0.7-0.1,1c0,0,0,0,0,0c-2,1.5-4.2,2.7-6.5,3.6
		c3.4,1.9,6.9,3.4,10.6,4.6c0.4,0.1,0.6,0.5,0.5,0.8l0,0l-2.6-0.1c-3.6-1.4-7.1-3-10.5-4.8c-0.2-0.1-0.4-0.4-0.4-0.7
		C17.3,27.1,17.4,26.9,17.7,26.8L17.7,26.8z M13.1,22.4c0-1.1,0.9-2,2-2c1.1,0,2,0.9,2,2v3.9h-4V22.4z M7,31.7l3.5-0.9l1.2-1.2
		c0.3-0.3,0.7-0.3,1,0c0,0,0,0,0,0c0.3,0.3,0.3,0.7,0,1c0,0,0,0,0,0l-1.3,1.3c-0.1,0.1-0.2,0.2-0.3,0.2l-0.6,0.1l-4-0.1
		C6.6,31.9,6.7,31.7,7,31.7z"/>
	<path class="st0" d="M4.4,20.5L4.4,20.5"/>
</g>
</svg>
