<?xml version="1.0" encoding="utf-8"?>
<!-- Generator: Adobe Illustrator 24.2.0, SVG Export Plug-In . SVG Version: 6.00 Build 0)  -->
<svg version="1.1" id="Calque_1" xmlns="http://www.w3.org/2000/svg" xmlns:xlink="http://www.w3.org/1999/xlink" x="0px" y="0px"
	 viewBox="0 0 56.6 40.7" style="enable-background:new 0 0 56.6 40.7;" xml:space="preserve">
<style type="text/css">
	.st0{fill:none;}
	.st1{fill:#4B0082;}
</style>
<g>
	<polygon class="st0" points="27,33.2 24.1,33.2 24.1,33.2 21.5,33.2 21.5,34.7 25.6,34.7 26.1,34.7 27,34.7 27,34.3 27,34.3 
		27,33.2 	"/>
	<path class="st0" d="M25.9,15c-1,0-1.8,0.8-1.8,1.8v0v1.8c0.1,1,0.9,1.7,1.9,1.7c0.9-0.1,1.6-0.8,1.7-1.7v-1.8
		C27.7,15.8,26.9,15,25.9,15z"/>
	<path class="st0" d="M31.2,22.2c-1,0-1.8,0.8-1.8,1.8c0,0,0,0,0,0v1.8c-0.1,1,0.7,1.9,1.7,1.9S33,27,33,26.1c0-0.1,0-0.2,0-0.3V24
		C33.1,23,32.3,22.2,31.2,22.2C31.3,22.2,31.3,22.2,31.2,22.2z"/>
	<polygon class="st0" points="27,32.2 27,30.7 24.1,30.7 21.5,30.7 21.5,32.2 24.1,32.2 	"/>
	<polygon class="st0" points="26.9,29.7 27,29.7 27,28.2 21.5,28.2 21.5,29.7 24.8,29.7 	"/>
	<path class="st0" d="M26.9,27.2L26.9,27.2L26.9,27.2l0.1-1.5h-5.5v1.5H26.9z"/>
	<rect x="21.5" y="35.7" class="st0" width="5.5" height="1"/>
	<polygon class="st0" points="27,24.7 27,23.2 24.2,23.2 21.5,23.2 21.5,24.7 24.1,24.7 	"/>
	<path class="st0" d="M31.2,15c-1,0-1.8,0.8-1.8,1.8v0v1.8c0.1,1,0.9,1.7,1.9,1.7c0.9-0.1,1.6-0.8,1.7-1.7v-1.8
		C33,15.8,32.2,15,31.2,15z"/>
	<path class="st0" d="M42,15c-1,0-1.8,0.8-1.8,1.8v1.8c0.1,1,0.9,1.7,1.9,1.7c0.9-0.1,1.6-0.8,1.7-1.7v-1.8C43.8,15.8,43,15,42,15
		L42,15z"/>
	<path class="st0" d="M47.4,29.4c-1,0-1.8,0.8-1.8,1.8V33c0.1,1,0.9,1.7,1.9,1.7c0.9-0.1,1.6-0.8,1.7-1.7v-1.8
		C49.2,30.2,48.4,29.4,47.4,29.4C47.4,29.4,47.4,29.4,47.4,29.4z"/>
	<path class="st0" d="M47.4,22.2c-1,0-1.8,0.8-1.8,1.7c0,0,0,0,0,0.1v1.8c-0.1,1,0.7,1.9,1.7,1.9s1.9-0.7,1.9-1.7c0-0.1,0-0.2,0-0.3
		V24C49.2,23,48.4,22.2,47.4,22.2C47.4,22.2,47.4,22.2,47.4,22.2z"/>
	<path class="st0" d="M47.4,15c-1,0-1.8,0.8-1.8,1.7c0,0,0,0,0,0v1.8c0.1,1,0.9,1.7,1.9,1.7c0.9-0.1,1.6-0.8,1.7-1.7v-1.8
		C49.2,15.8,48.4,15,47.4,15z"/>
	<path class="st0" d="M42,22.2c-1,0-1.8,0.8-1.8,1.8v1.8c-0.1,1,0.7,1.9,1.7,1.9s1.9-0.7,1.9-1.7c0-0.1,0-0.2,0-0.3V24
		C43.8,23,43,22.2,42,22.2C42.1,22.2,42,22.2,42,22.2z"/>
	<rect x="31.1" y="8.2" class="st0" width="11" height="1.4"/>
	<path class="st0" d="M36.6,22.2c-1,0-1.8,0.8-1.8,1.8v1.8c0,1,0.8,1.8,1.8,1.8c1,0,1.8-0.8,1.8-1.8V24C38.5,23,37.7,22.2,36.6,22.2
		C36.7,22.2,36.6,22.2,36.6,22.2z"/>
	<path class="st0" d="M36.6,15c-1,0-1.8,0.8-1.8,1.8v1.8c0,1,0.8,1.8,1.8,1.8c1,0,1.8-0.8,1.8-1.8v-1.8C38.4,15.8,37.6,15,36.6,15z"
		/>
	<path class="st1" d="M54.7,36.6L54.7,36.6l-0.1-25.2c0-1-0.8-1.8-1.8-1.8h-7.9V8.2h1.4c0.8,0,1.4-0.6,1.4-1.4v0V1.3
		C47.6,0.6,47,0,46.3,0H27c-0.8,0-1.4,0.6-1.4,1.3c0,0,0,0,0,0v5.5c0,0.8,0.6,1.4,1.4,1.4c0,0,0,0,0,0h1.4v1.4h-7.9
		c-1,0-1.8,0.8-1.8,1.8c0,0,0,0,0,0v10.1h8.8c0.7,0,1.2,0.6,1.2,1.2v17c0,0.1,0,0.3-0.1,0.4h2.6c1,0,1.8-0.8,1.8-1.8V33h7.2v5.4
		c0,1,0.8,1.8,1.8,1.8h12.6c1,0.1,1.9-0.7,1.9-1.7s-0.7-1.9-1.7-1.9C54.8,36.6,54.7,36.6,54.7,36.6L54.7,36.6z M27.7,18.6
		c-0.1,1-0.9,1.7-1.9,1.7c-0.9-0.1-1.6-0.8-1.7-1.7v-1.8c0.1-1,0.9-1.7,1.9-1.7c0.9,0.1,1.6,0.8,1.7,1.7V18.6z M33,25.7
		c0.1,1-0.7,1.9-1.7,1.9S29.5,27,29.5,26c0-0.1,0-0.2,0-0.3V24c-0.1-1,0.7-1.9,1.7-1.9c1-0.1,1.9,0.7,1.9,1.7c0,0.1,0,0.2,0,0.3
		V25.7z M33,18.6c-0.1,1-0.9,1.7-1.9,1.7c-0.9-0.1-1.6-0.8-1.7-1.7v-1.8c0.1-1,0.9-1.7,1.9-1.7c0.9,0.1,1.6,0.8,1.7,1.7V18.6z
		 M38.4,25.7c0,1-0.8,1.8-1.8,1.8c-1,0-1.8-0.8-1.8-1.8V24c0-1,0.8-1.8,1.8-1.8c1,0,1.8,0.8,1.8,1.8V25.7z M38.4,18.6
		c0,1-0.8,1.8-1.8,1.8c-1,0-1.8-0.8-1.8-1.8v-1.8c0-1,0.8-1.8,1.8-1.8c1,0,1.8,0.8,1.8,1.8V18.6z M31.1,9.6V8.2h11v1.4L31.1,9.6z
		 M43.8,25.8c0.1,1-0.7,1.9-1.7,1.9S40.3,27,40.2,26c0-0.1,0-0.2,0-0.3V24c-0.1-1,0.7-1.9,1.7-1.9c1-0.1,1.9,0.7,1.9,1.7
		c0,0.1,0,0.2,0,0.3V25.8z M43.8,18.6c-0.1,1-0.9,1.7-1.9,1.7c-0.9-0.1-1.6-0.8-1.7-1.7v-1.8c0.1-1,0.9-1.7,1.9-1.7
		c0.9,0.1,1.6,0.8,1.7,1.7V18.6z M49.2,33c0,1-0.8,1.8-1.8,1.8c-1,0-1.8-0.8-1.8-1.8l0,0v-1.8c-0.1-1,0.7-1.9,1.7-1.9
		s1.9,0.7,1.9,1.7c0,0.1,0,0.2,0,0.3L49.2,33z M49.2,25.8c0.1,1-0.7,1.9-1.7,1.9s-1.9-0.7-1.9-1.7c0-0.1,0-0.2,0-0.3V24
		c-0.1-1,0.7-1.9,1.7-1.9c1-0.1,1.9,0.7,1.9,1.7c0,0.1,0,0.2,0,0.3V25.8z M49.2,18.6c-0.1,1-0.9,1.7-1.9,1.7
		c-0.9-0.1-1.6-0.8-1.7-1.7v-1.8c0.1-1,0.9-1.7,1.9-1.7c0.9,0.1,1.6,0.8,1.7,1.7V18.6z"/>
	<polygon class="st1" points="24.1,33.2 21.5,33.2 21.5,33.2 24.1,33.2 	"/>
	<polygon class="st1" points="13.5,25.2 15.4,26.6 16.6,25.2 17.5,24.2 18.7,23 19.4,22.2 18.7,22.2 9.1,22.2 12,24.2 	"/>
	<path class="st1" d="M28,22.7c0-0.3-0.2-0.5-0.5-0.5h-7v0.2l-1.8,2l-1.1,1.3h3v6.5H1v-1h7.5c0-0.4-0.1-0.8-0.3-1.1
		c-0.1-0.2-0.3-0.4-0.5-0.5c-0.3-0.2-0.7-0.3-1.1-0.3H2c-0.2,0-0.4,0-0.5,0.1c-0.2,0-0.3,0.1-0.5,0.2v-3.8h11.4l-5.1-3.5H1v-1h7.5
		c0-0.4-0.1-0.8-0.3-1.1c-0.1-0.2-0.3-0.4-0.5-0.5c-0.3-0.2-0.7-0.3-1.1-0.4H2c-0.2,0-0.4,0-0.5,0.1c-0.2,0-0.3,0.1-0.5,0.2v-2.8
		c0-0.3-0.2-0.5-0.5-0.5c-0.3,0-0.5,0.2-0.5,0.5v23.5c0,0.3,0.2,0.5,0.5,0.5S1,40.5,1,40.2v-4.5h19.5v4c0,0.2,0.1,0.3,0.2,0.4
		c0.1,0.1,0.2,0.1,0.3,0.1c0.1,0,0.2,0,0.3-0.1c0.1-0.1,0.2-0.2,0.2-0.4v-2H27v2c0,0.1,0.1,0.3,0.2,0.4l0.1,0.1h0.1
		c0.1,0,0.1,0,0.2,0c0.1,0,0.2,0,0.3-0.1c0.1-0.1,0.2-0.2,0.2-0.4V22.7z M21.5,23.2H27v1.5h-5.5V23.2z M21.5,25.7H27v1.4l0,0v0.1
		h-5.5V25.7z M21.5,28.2H27v1.5h-5.5V28.2z M21.5,30.7H27v1.5h-5.5V30.7z M27,36.7h-5.5v-1H27V36.7z M27,34.3v0.4h-5.5v-1.5H27V34.3
		z"/>
</g>
</svg>
