<?xml version="1.0" encoding="utf-8"?>
<!-- Generator: Adobe Illustrator 24.2.0, SVG Export Plug-In . SVG Version: 6.00 Build 0)  -->
<svg version="1.1" id="Calque_1" xmlns="http://www.w3.org/2000/svg" xmlns:xlink="http://www.w3.org/1999/xlink" x="0px" y="0px"
	 viewBox="0 0 58.9 36.6" style="enable-background:new 0 0 58.9 36.6;" xml:space="preserve">
<style type="text/css">
	.st0{fill:#4B0082;}
</style>
<g>
	<path class="st0" d="M58.9,14.4c-9.5,3.1-19.4,4.6-29.4,4.5C19.4,19,9.5,17.5,0,14.4c2.3-1.5,11.4-7.1,19.2-11
		c1.9,1.7,5.8,2.9,10.2,2.9c4.7,0,8.7-1.3,10.5-3.2C46.4,6.5,52.8,10.3,58.9,14.4z"/>
	<path class="st0" d="M22.9,36.6c-7.7-0.4-15.3-1.8-22.6-4.2l0,0v-5.2c7.3,2.4,14.9,3.8,22.6,4.2V36.6z M36,36.6
		c7.7-0.4,15.3-1.8,22.6-4.2v-5.2c-7.3,2.4-14.9,3.8-22.6,4.2V36.6z"/>
	<path class="st0" d="M22.9,30.7c-7.7-0.4-15.3-1.8-22.6-4.2l0,0v-5.2c7.3,2.4,14.9,3.8,22.6,4.2V30.7z M36,30.7
		c7.7-0.4,15.3-1.8,22.6-4.2v-5.2c-7.3,2.4-14.9,3.8-22.6,4.2V30.7z"/>
	<path class="st0" d="M22.9,24.9C15.2,24.4,7.6,23,0.3,20.6l0,0v-5.2c7.3,2.4,14.9,3.8,22.6,4.2V24.9z M36,24.9
		c7.7-0.4,15.3-1.8,22.6-4.2v-5.2c-7.3,2.4-14.9,3.8-22.6,4.2V24.9z"/>
	<path class="st0" d="M29.3,0C24.8,0,21,1.1,21,2.5S24.8,5,29.3,5s8.3-1.1,8.3-2.5S33.9,0,29.3,0z"/>
</g>
</svg>
