<?xml version="1.0" encoding="utf-8"?>
<!-- Generator: Adobe Illustrator 24.2.0, SVG Export Plug-In . SVG Version: 6.00 Build 0)  -->
<svg version="1.1" id="Calque_1" xmlns="http://www.w3.org/2000/svg" xmlns:xlink="http://www.w3.org/1999/xlink" x="0px" y="0px"
	 viewBox="0 0 64.3 28.1" style="enable-background:new 0 0 64.3 28.1;" xml:space="preserve">
<style type="text/css">
	.st0{fill:#4B0082;}
</style>
<g>
	<path class="st0" d="M57,16.2v3c0,0.3-0.2,0.5-0.5,0.5c0,0,0,0,0,0H7.9c-0.3,0-0.5-0.2-0.5-0.5c0,0,0,0,0,0v-3
		c0-0.3,0.2-0.5,0.5-0.5c11.5-1.4,37.3-1.4,48.8,0C56.8,15.7,57,15.9,57,16.2z"/>
	<path class="st0" d="M31.4,0.9c-0.2,3.5-0.2,8.6-0.1,11.5c0,0.3-0.2,0.5-0.5,0.5c0,0,0,0,0,0l0,0c-7.6,0-15.2,0.3-22.8,1.1
		c-0.3,0-0.5-0.2-0.6-0.5c0,0,0,0,0,0c0,0,0,0,0-0.1v-1.3c0-1-0.8-1.9-1.8-2.1C5.4,10,5.2,10,5,9.9c-0.1-2.7,0-5.3,0.2-8
		c0.1-0.5,0.4-0.9,0.9-1c3.7-1,19.8-1.2,24.8-0.5C31.2,0.5,31.4,0.7,31.4,0.9z"/>
	<path class="st0" d="M59,10l-0.2,0c-1,0.2-1.7,1.1-1.8,2.1v1.2c0,0.3-0.2,0.5-0.5,0.5c0,0,0,0,0,0h-0.1c-7.7-0.7-15.4-1.1-23.1-1
		c-0.3,0-0.5-0.2-0.5-0.5c-0.3-3.9-0.4-7.8-0.3-11.7c0-0.2,0.1-0.3,0.3-0.3l0.4-0.1c4.6-0.6,21.2-0.6,25,0.5c0.5,0.1,0.8,0.5,0.9,1
		C59.2,4.6,59.2,7.3,59,10z"/>
	<path class="st0" d="M7.3,21.2c-0.9,0-1.6-0.7-1.6-1.6v-7.4c0-0.3-0.3-0.5-0.7-0.6c-1.6-0.5-5-0.3-5,0.6v12.2c0,2,1.6,3.7,3.7,3.7
		h57c2,0,3.7-1.6,3.7-3.7V12.2c0-1-3.5-1.2-5-0.6c-0.4,0.2-0.7,0.4-0.7,0.6v7.5c0,0.9-0.7,1.6-1.6,1.5H7.3z"/>
</g>
</svg>
