<?xml version="1.0" encoding="utf-8"?>
<!-- Generator: Adobe Illustrator 24.2.0, SVG Export Plug-In . SVG Version: 6.00 Build 0)  -->
<svg version="1.1" id="Calque_1" xmlns="http://www.w3.org/2000/svg" xmlns:xlink="http://www.w3.org/1999/xlink" x="0px" y="0px"
	 viewBox="0 0 36.6 36.6" style="enable-background:new 0 0 36.6 36.6;" xml:space="preserve">
<style type="text/css">
	.st0{fill:#4B0082;}
</style>
<g>
	<path class="st0" d="M0.1,36.2c0,0.2,0.2,0.4,0.4,0.5c0,0,0,0,0.1,0h3.7c0.2,0,0.4-0.2,0.5-0.4c0,0,0,0,0-0.1v-5.6H32v5.6
		c0,0.2,0.2,0.4,0.4,0.5c0,0,0,0,0,0h3.7c0.2,0,0.4-0.2,0.5-0.4c0,0,0,0,0,0V10.6c0-2.1-0.9-4.2-2.4-5.7C31.2,1.7,25.9,0,18.4,0
		h-0.1C10.7,0.1,5.4,1.6,2.4,4.9C0.9,6.4,0,8.5,0,10.6L0.1,36.2L0.1,36.2z M16.2,16.2c-3.9,0.1-7.7,0.5-11.5,1.3v-4.6
		c0-0.6,0.5-1.1,1.1-1.1c0,0,0,0,0,0H15c0.6,0,1.1,0.5,1.1,1.1c0,0,0,0,0,0V16.2z M10.8,17.5c8.4-0.9,16.9-0.2,25,2v5H1v-5
		C4.2,18.5,7.4,17.8,10.8,17.5z M32.1,17.7c-3.8-0.8-7.7-1.3-11.5-1.4v-3.3c0-0.6,0.5-1.1,1.1-1.1c0,0,0,0,0,0h9.2
		c0.6,0,1.1,0.5,1.2,1.1c0,0,0,0,0,0L32.1,17.7L32.1,17.7z"/>
</g>
</svg>
