<?xml version="1.0" encoding="utf-8"?>
<!-- Generator: Adobe Illustrator 24.2.0, SVG Export Plug-In . SVG Version: 6.00 Build 0)  -->
<svg version="1.1" id="Calque_1" xmlns="http://www.w3.org/2000/svg" xmlns:xlink="http://www.w3.org/1999/xlink" x="0px" y="0px"
	 viewBox="0 0 27.7 36.7" style="enable-background:new 0 0 27.7 36.7;" xml:space="preserve">
<style type="text/css">
	.st0{fill:#4B0082;}
</style>
<g>
	<path class="st0" d="M26.3,33h-0.8c-0.3,0.8-0.9,1.5-1.6,1.9V33h-1.3v2.4c-0.2,0-0.4,0.1-0.6,0.1h-1.3V33h-1.3v2.4h-1.9V33h-1.3
		v2.4h-1.9V33h-1.3v2.4h-1.9V33h-1.3v2.4H8.2V33H6.9v2.4H5.6c-0.2,0-0.4,0-0.6-0.1V33H3.7v1.9C3,34.5,2.4,33.8,2.1,33h-1
		c-0.1,0-0.2,0-0.4-0.1c0.6,2.2,2.6,3.8,4.9,3.8H22c2.3,0,4.3-1.5,4.9-3.8c-0.1,0-0.2,0.1-0.4,0.1L26.3,33z"/>
	<path class="st0" d="M1.3,15.9l0.4-0.1h0.1V5c0-2.1,1.7-3.7,3.8-3.7H22c2.1,0,3.8,1.6,3.8,3.7c0,0,0,0,0,0v5.6l0,0l0.5-0.1l0,0h0.2
		c0.2,0,0.4,0.1,0.5,0.1V5c0-2.8-2.2-5-5-5c0,0,0,0-0.1,0H5.6c-2.8,0-5,2.2-5,5v11c0.1-0.1,0.3-0.1,0.5-0.1H1.3z"/>
	<path class="st0" d="M18.1,4.3c0-0.1-0.1-0.3-0.2-0.4c-0.2-0.2-0.5-0.2-0.7,0l-0.5,0.5L16.2,4c-0.2-0.2-0.5-0.2-0.7,0
		c-0.2,0.2-0.2,0.5,0,0.7c0,0,0,0,0,0L16,5.2l-0.5,0.5c-0.1,0.1-0.2,0.2-0.2,0.4c0,0.1,0.1,0.3,0.2,0.4c0.2,0.2,0.5,0.2,0.7,0
		L16.7,6l0.5,0.5c0.2,0.2,0.5,0.2,0.7,0c0.1-0.1,0.2-0.2,0.2-0.4c0-0.1-0.1-0.3-0.2-0.4l-0.5-0.5L18,4.7C18.1,4.6,18.1,4.5,18.1,4.3
		z"/>
	<path class="st0" d="M23.8,4.3c0-0.1-0.1-0.3-0.2-0.4c-0.2-0.2-0.5-0.2-0.7,0l-0.5,0.5L21.9,4c-0.2-0.2-0.5-0.2-0.7,0
		c-0.2,0.2-0.2,0.5,0,0.7c0,0,0,0,0,0l0.5,0.5l-0.5,0.5C21,5.9,21,6,21,6.1c0,0.1,0.1,0.3,0.2,0.4c0.2,0.2,0.5,0.2,0.7,0L22.4,6
		l0.5,0.5c0.2,0.2,0.5,0.2,0.7,0c0.1-0.1,0.2-0.2,0.2-0.4c0-0.1-0.1-0.3-0.2-0.4l-0.5-0.5l0.5-0.5C23.8,4.6,23.8,4.5,23.8,4.3z"/>
	<path class="st0" d="M7.6,11.7H7c-0.3,0-0.6,0-0.9,0l-0.2,0.2c-0.2,0.2-0.2,0.5,0,0.7c0.2,0.2,0.5,0.2,0.7,0l0.5-0.5l0.5,0.5
		c0.2,0.2,0.5,0.2,0.7,0c0.2-0.2,0.2-0.5,0-0.7c0,0,0,0,0,0l-0.2-0.2L7.6,11.7z"/>
	<path class="st0" d="M15.2,10.5c0-0.1-0.1-0.3-0.1-0.4l0,0c-0.2,0.1-0.4,0.2-0.6,0.2l0,0c-0.1,0-0.1,0-0.2,0l-0.2,0.1l-0.3,0.3
		l-0.1-0.1c-0.3,0.1-0.7,0.2-1.1,0.4l0.5,0.5l-0.5,0.5c-0.2,0.2-0.2,0.5,0,0.7c0.2,0.2,0.5,0.2,0.7,0l0.5-0.5l0.5,0.5
		c0.2,0.2,0.5,0.2,0.7,0c0.2-0.2,0.2-0.5,0-0.7l-0.5-0.5l0.5-0.5C15.2,10.7,15.3,10.6,15.2,10.5z"/>
	<path class="st0" d="M21.9,10.5c0-0.1-0.1-0.3-0.1-0.4c-0.2-0.2-0.5-0.2-0.7,0l-0.5,0.5L20,10.1c-0.2-0.2-0.5-0.2-0.7,0
		c-0.2,0.2-0.2,0.5,0,0.7c0,0,0,0,0,0l0.5,0.5l-0.5,0.5c0,0-0.1,0.1-0.1,0.2l2.3-0.5l-0.2-0.2l0.5-0.5
		C21.8,10.7,21.9,10.6,21.9,10.5z"/>
	<path class="st0" d="M12,10.9l0.5-0.1c0.4-0.1,0.8-0.2,1.1-0.4s0.4-0.2,0.6-0.2l0,0h0.1h0.1h0.2h0.1h0.1c0,0,0,0,0,0l0,0h0l0,0
		c0,0,0.1-0.1,0.1-0.1c0-0.1,0.1-0.2,0.1-0.3c0-0.1-0.1-0.3-0.1-0.4c0-0.1-0.1-0.1-0.1-0.2c0-0.1,0-0.2,0-0.2c0-0.1,0-0.2,0-0.3
		s0-0.2,0-0.4c0-0.2,0-0.5,0-0.7c0-0.1,0-0.2,0-0.4c-0.1-1-0.3-2-0.6-2.9c0-0.1-0.1-0.2-0.1-0.3c0,0,0-0.1,0-0.1V3.7
		c0,0,0-0.1,0-0.1c0,0,0-0.1,0-0.1c0,0,0-0.1,0-0.1c0.1-0.2,0-0.4-0.1-0.6c0,0,0,0-0.1-0.1c0,0-0.1-0.1-0.1-0.1h-0.2
		c-0.1,0-0.2,0-0.3,0.1l0,0h-0.2h-0.1c-0.2,0-0.5-0.1-0.8-0.1h-0.2h-0.7h-0.9h-0.4H9.9L9.5,2.7H9.3L8.7,2.8l0,0L8.1,2.8L7.8,2.9
		L7.4,3H7.2L6.9,3H6.7L6.3,3.1H6.2L5.7,3.3H5.6L5.3,3.3H5.1L4.9,3.4H4.8L4.6,3.5H4.5L4.3,3.8H4.2H4.2H3.9l0,0H3.8H3.7L3.5,3.9l0,0
		C3.5,4,3.5,4,3.4,4.1c0,0.1,0,0.1,0,0.2c0,0.1,0,0.1,0,0.2c0,0.1,0.1,0.2,0.1,0.3c0,0,0,0.1,0,0.1v0l0,0C3.5,5.3,3.5,5.7,3.5,6.1
		c0,0.2,0,0.4,0,0.7c0,0.5,0.1,1,0.1,1.4c0.1,0.5,0.2,1,0.4,1.5c0.1,0.3,0.2,0.5,0.3,0.8c0,0,0,0.1,0,0.1c0,0,0,0.1,0,0.1
		c0,0.1,0,0.1,0,0.2v0.1c0,0.1,0,0.1,0,0.2c0,0,0,0.1,0.1,0.1c0,0.1,0.1,0.2,0.2,0.2c0.1,0,0.2,0.1,0.3,0.1l0,0c0.1,0,0.2,0,0.3-0.1
		h0.1l0,0l0.4,0.1h0.1h0.4h1.4H8c1-0.1,2.1-0.2,3.1-0.4L12,10.9z"/>
	<path class="st0" d="M27.1,10.8c-0.2-0.1-0.4-0.2-0.5-0.2h-0.2l-0.5,0.1h-0.1l-4.3,0.9L19,12.2l-0.6,0.1l-1.2,0.3l-0.3,0l-0.8,0.2
		l-0.4,0.1l-0.7,0.1l-0.3,0.1l-0.4,0.1l-0.3,0.1l-0.3,0.1l0,0l-2,0.4l-0.3,0.1L10.6,14l-1.6,0.3l-0.3,0.1l-3.5,0.8l-3.4,0.7H1.8
		L1.3,16H1.1c-0.2,0-0.3,0.1-0.4,0.1H0.6C0.2,16.3,0,16.6,0,17v14.8c0,0.3,0.1,0.5,0.3,0.7c0.1,0,0.1,0.1,0.2,0.1l0.2,0.1l0,0
		c0.1,0.1,0.3,0.1,0.4,0.1h0.2h25.3c0.2,0,0.3-0.1,0.4-0.1c0.2-0.1,0.4-0.2,0.5-0.4c0.1-0.1,0.1-0.2,0.2-0.3c0-0.1,0-0.1,0-0.2V11.7
		C27.6,11.3,27.4,11,27.1,10.8z"/>
</g>
</svg>
