<?xml version="1.0" encoding="utf-8"?>
<!-- Generator: Adobe Illustrator 24.2.0, SVG Export Plug-In . SVG Version: 6.00 Build 0)  -->
<svg version="1.1" id="Calque_1" xmlns="http://www.w3.org/2000/svg" xmlns:xlink="http://www.w3.org/1999/xlink" x="0px" y="0px"
	 viewBox="0 0 54.4 28" style="enable-background:new 0 0 54.4 28;" xml:space="preserve">
<style type="text/css">
	.st0{fill:#4B0082;}
</style>
<g>
	<path class="st0" d="M23,12.7H2.5c-1.3,0-2.4,1-2.5,2.4v10.5C0,26.9,0.8,28,1.7,28h3.4c0.7,0,1.8-1.6,2.8-3.5h9.7
		c1,1.9,2,3.5,2.8,3.5h3.4c0.9,0,1.7-1.1,1.7-2.5V15.1C25.4,13.8,24.3,12.7,23,12.7C23,12.7,23,12.7,23,12.7z"/>
	<path class="st0" d="M21.2,0h-17C2.8,0,1.7,1.1,1.7,2.6l0,0v7.6h4.1c0-3,3.1-5,6.9-5s6.9,2,6.9,5h4.1V2.6C23.8,1.1,22.7,0,21.2,0
		C21.3,0,21.2,0,21.2,0z"/>
	<path class="st0" d="M51.8,12.7H31.4c-1.3,0-2.5,1-2.5,2.3c0,0,0,0,0,0v10.5c0,1.4,0.8,2.5,1.7,2.5H34c0.8,0,1.8-1.6,2.8-3.5h9.7
		c1,1.9,2,3.5,2.8,3.5h3.4c1,0,1.7-1.1,1.7-2.5V15.1C54.4,13.8,53.3,12.7,51.8,12.7C51.9,12.7,51.9,12.7,51.8,12.7z"/>
	<path class="st0" d="M50.1,0h-17c-1.4,0-2.6,1.1-2.6,2.6v7.6h4.1c0-3,3.1-5,6.9-5s6.9,2,6.9,5h4.1V2.6C52.7,1.1,51.6,0,50.1,0
		C50.1,0,50.1,0,50.1,0z"/>
</g>
</svg>
