<?xml version="1.0" encoding="utf-8"?>
<!-- Generator: Adobe Illustrator 24.2.0, SVG Export Plug-In . SVG Version: 6.00 Build 0)  -->
<svg version="1.1" id="Calque_1" xmlns="http://www.w3.org/2000/svg" xmlns:xlink="http://www.w3.org/1999/xlink" x="0px" y="0px"
	 viewBox="0 0 43.3 36.6" style="enable-background:new 0 0 43.3 36.6;" xml:space="preserve">
<style type="text/css">
	.st0{fill:#4B0082;}
</style>
<g>
	<path class="st0" d="M27,25c-0.9,0-1.6,0.7-1.6,1.6c0,0.9,0.7,1.6,1.6,1.6c0.9,0,1.6-0.7,1.6-1.6C28.6,25.7,27.9,25,27,25
		C27,25,27,25,27,25z"/>
	<path class="st0" d="M36.5,18.7L22.4,9.2c-0.5-0.3-1.2-0.3-1.6,0L6.7,18.7c-0.4,0.3-0.6,0.7-0.6,1.2v15.2c0,0.8,0.7,1.5,1.5,1.5
		h28.1c0.8,0,1.5-0.7,1.5-1.5V19.9C37.1,19.4,36.9,19,36.5,18.7z M30.1,31.2c-2.5,1.7-5.9,1.1-7.7-1.5c0,0,0,0,0,0h-2.2
		c-0.4,0-0.8-0.2-1.1-0.5l-0.8-0.8L17.9,29l0,0c-0.6,0.6-1.6,0.6-2.2,0c0,0,0,0,0,0l-0.5-0.5L14.7,29l0,0c-0.6,0.6-1.6,0.6-2.2,0
		c0,0,0,0,0,0l-1-1c-0.1-0.1-0.2-0.2-0.2-0.4l-0.5-2.2c0-0.1,0-0.3,0-0.4c0-0.9,0.7-1.6,1.5-1.6c0,0,0,0,0.1,0h10.2
		c1.8-2.5,5.2-3.1,7.7-1.3c2.5,1.8,3.1,5.2,1.3,7.7C31.1,30.4,30.7,30.8,30.1,31.2L30.1,31.2z"/>
	<path class="st0" d="M42.8,14l-0.1-0.1l-5.5-3.7l-4.9-3.3l-9.8-6.6c-0.5-0.3-1.1-0.3-1.6,0L0.6,13.9c-0.7,0.4-0.8,1.3-0.4,2
		c0,0.1,0.1,0.1,0.1,0.1L2,17.9c0.5,0.6,1.3,0.7,1.9,0.2L20.8,6.9c0.5-0.3,1.1-0.3,1.6,0l16.9,11.3c0.6,0.4,1.4,0.3,1.9-0.2l1.7-1.9
		C43.4,15.5,43.4,14.5,42.8,14C42.8,14,42.8,14,42.8,14z"/>
</g>
</svg>
