<?xml version="1.0" encoding="utf-8"?>
<!-- Generator: Adobe Illustrator 24.2.0, SVG Export Plug-In . SVG Version: 6.00 Build 0)  -->
<svg version="1.1" id="Calque_1" xmlns="http://www.w3.org/2000/svg" xmlns:xlink="http://www.w3.org/1999/xlink" x="0px" y="0px"
	 viewBox="0 0 43.3 36.6" style="enable-background:new 0 0 43.3 36.6;" xml:space="preserve">
<style type="text/css">
	.st0{fill:#4B0082;}
</style>
<g>
	<path class="st0" d="M36.5,18.7L22.5,9.2c-0.5-0.3-1.2-0.3-1.6,0L6.8,18.7c-0.4,0.3-0.6,0.7-0.6,1.2v15.2c0,0.8,0.7,1.5,1.5,1.5
		h28.1c0.8,0,1.5-0.7,1.5-1.5c0,0,0,0,0,0V19.9C37.2,19.4,36.9,19,36.5,18.7z M19.6,26C19.6,25.9,19.7,25.9,19.6,26l0.2-0.1
		c2.7-0.2,5.3-0.2,8,0.2c0.2,0,0.3,0.2,0.3,0.3c0.1,0.9,0.1,1.7,0,2.6h-0.1c-0.3,0.1-0.6,0.4-0.6,0.7V30c0,0.1-0.1,0.2-0.2,0.2l0,0
		c-2.5-0.2-4.9-0.3-7.4-0.3c-0.1,0-0.2-0.1-0.2-0.2C19.6,28.5,19.6,27.2,19.6,26z M27.3,30.7c0.1,0,0.1,0.1,0.2,0.2v1
		c0,0.1-0.1,0.2-0.2,0.2H11.7c-0.1,0-0.2-0.1-0.2-0.2v-1c0-0.1,0.1-0.2,0.1-0.2C16.9,30.3,22.1,30.3,27.3,30.7z M10.9,26.3
		c0-0.2,0.1-0.3,0.3-0.3c2.7-0.3,5.3-0.4,8-0.2c0.1,0,0.1,0.1,0.1,0.1c-0.1,1.1,0,2.8,0,3.7c0,0.1-0.1,0.2-0.2,0.2l0,0
		c-2.4,0-4.9,0.1-7.3,0.3c-0.1,0-0.2-0.1-0.2-0.1c0,0,0,0,0,0v-0.4c0-0.3-0.2-0.6-0.6-0.7h-0.2C10.8,28.1,10.8,27.2,10.9,26.3z
		 M29.9,33.5c0,0.7-0.5,1.2-1.2,1.2l0,0H10.4c-0.7,0-1.2-0.5-1.2-1.2l0,0v-3.9c0-0.3,1.1-0.4,1.6-0.2c0.1,0.1,0.2,0.1,0.2,0.2V32
		c0,0.3,0.2,0.5,0.5,0.5h16c0.3,0,0.5-0.2,0.5-0.5v-2.4c0-0.1,0.1-0.2,0.2-0.2c0.5-0.2,1.6-0.1,1.6,0.2L29.9,33.5z M34.1,34.7h-3.4
		V34h1.3V22.1c0-1.3-1-2.3-2.3-2.3h-0.2c-1.2,0-2.2,0.9-2.3,2.1h0.9l0.6,3H25l0.6-3h0.9c0.1-1.6,1.4-2.8,3-2.8h0.2c1.7,0,3,1.3,3,3
		V34h1.3L34.1,34.7z"/>
	<path class="st0" d="M42.8,14c0,0-0.1-0.1-0.2-0.1l-5.5-3.7V4c0-0.3-0.3-0.6-0.6-0.6l0,0h-3.7c-0.3,0-0.6,0.3-0.6,0.6l0,0v2.9
		l-9.8-6.6c-0.5-0.3-1.2-0.3-1.6,0L0.6,13.9c-0.6,0.5-0.8,1.3-0.4,2L0.3,16L2,18c0.5,0.5,1.3,0.7,1.9,0.2L20.8,6.9
		c0.5-0.3,1.2-0.3,1.6,0l16.9,11.3c0.6,0.4,1.4,0.3,1.9-0.2l1.7-1.9C43.5,15.5,43.4,14.6,42.8,14C42.8,14,42.8,14,42.8,14z"/>
</g>
</svg>
