<?xml version="1.0" encoding="utf-8"?>
<!-- Generator: Adobe Illustrator 24.2.0, SVG Export Plug-In . SVG Version: 6.00 Build 0)  -->
<svg version="1.1" id="Calque_1" xmlns="http://www.w3.org/2000/svg" xmlns:xlink="http://www.w3.org/1999/xlink" x="0px" y="0px"
	 viewBox="0 0 20.2 36.6" style="enable-background:new 0 0 20.2 36.6;" xml:space="preserve">
<style type="text/css">
	.st0{fill:#4B0082;}
</style>
<path class="st0" d="M10.6,0C5.2-0.3,0.6,3.7,0,9c0,0.4,0.1,0.7,0.3,1c0.3,0.3,0.6,0.4,1,0.4h3c0.5,0,1-0.3,1.2-0.8
	c0.8-2.2,3.1-3.4,5.4-3c1.9,0.3,3.4,1.8,3.8,3.6c0.3,1.3-0.1,2.7-0.9,3.8c-0.9,1.1-2.3,1.7-3.8,1.7H6.6c-3.6,0-6.5,2.8-6.6,6.4v13.2
	c0,0.7,0.6,1.3,1.3,1.3h17.6c0.7,0,1.3-0.6,1.3-1.3V10.1C20.2,4.7,16,0.3,10.6,0z M10.1,31.2c-3.6-1.2-5.3-3.6-5.1-5.4
	c0.1-1.3,1-2.4,2.3-2.8c0.1,0,0.2,0,0.4,0c0.7,0,1.4,0.3,2,0.8c0.2,0.2,0.6,0.2,0.8,0c0.6-0.6,1.5-0.9,2.3-0.8
	c1.3,0.4,2.2,1.4,2.4,2.7C15.4,27.6,13.7,30.1,10.1,31.2z"/>
</svg>
