<?xml version="1.0" encoding="utf-8"?>
<!-- Generator: Adobe Illustrator 24.2.0, SVG Export Plug-In . SVG Version: 6.00 Build 0)  -->
<svg version="1.1" id="Calque_1" xmlns="http://www.w3.org/2000/svg" xmlns:xlink="http://www.w3.org/1999/xlink" x="0px" y="0px"
	 viewBox="0 0 43.3 36.7" style="enable-background:new 0 0 43.3 36.7;" xml:space="preserve">
<style type="text/css">
	.st0{fill:#4B0082;}
</style>
<g>
	<path class="st0" d="M20.6,24.6c0-0.3-0.2-0.6-0.6-0.6c0,0,0,0,0,0h-4.7c-0.3,0-0.6,0.2-0.6,0.6c0,0,0,0,0,0V27
		c1.9-0.4,3.9-0.6,5.9-0.7V24.6z"/>
	<path class="st0" d="M17.8,26.9c-1.7,0.2-3.4,0.5-5,1v2.6h17.8V28C26.4,26.8,22.1,26.5,17.8,26.9z"/>
	<path class="st0" d="M28.7,24.6c0-0.3-0.2-0.6-0.6-0.6c0,0,0,0,0,0h-4.7c-0.3,0-0.6,0.2-0.6,0.6c0,0,0,0,0,0v1.7
		c2,0.1,3.9,0.3,5.9,0.7L28.7,24.6z"/>
	<path class="st0" d="M36.5,18.7L22.5,9.2c-0.5-0.3-1.2-0.3-1.6,0L6.8,18.7c-0.4,0.3-0.6,0.7-0.6,1.2v15.2c0,0.8,0.7,1.5,1.5,1.5h0
		h4.8c0,0-0.1-0.1-0.1-0.1l0,0V23.4c0-1.1,0.4-2.2,1.2-2.9c1.5-1.7,4.3-2.5,8.1-2.5h0.1c3.8,0,6.6,0.9,8.1,2.5
		c0.8,0.8,1.2,1.8,1.2,2.9v13.1c0,0,0,0.1,0,0.1h4.6c0.8,0,1.5-0.7,1.5-1.5c0,0,0,0,0,0V19.9C37.2,19.5,36.9,19,36.5,18.7z"/>
	<path class="st0" d="M28.6,33.7h-14v2.9c0,0.1,0,0.1-0.1,0.1h14.1c0,0,0-0.1,0-0.1L28.6,33.7z"/>
	<path class="st0" d="M42.8,14c0,0-0.1-0.1-0.2-0.1l-5.5-3.7V4c0-0.3-0.3-0.6-0.6-0.6c0,0,0,0,0,0h-3.7c-0.3,0-0.6,0.3-0.6,0.6l0,0
		v2.8l-9.8-6.6c-0.5-0.3-1.2-0.3-1.6,0L0.6,13.9c-0.7,0.4-0.8,1.3-0.4,2L0.3,16L2,17.9c0.5,0.6,1.3,0.7,1.9,0.2L20.8,6.9
		c0.5-0.3,1.1-0.3,1.6,0l16.9,11.4c0.6,0.4,1.4,0.3,1.9-0.2l1.7-1.9C43.5,15.5,43.4,14.5,42.8,14C42.8,14,42.8,14,42.8,14z"/>
	<path class="st0" d="M28.7,27L28.7,27z"/>
</g>
</svg>
