<?xml version="1.0" encoding="utf-8"?>
<!-- Generator: Adobe Illustrator 24.2.0, SVG Export Plug-In . SVG Version: 6.00 Build 0)  -->
<svg version="1.1" id="Calque_1" xmlns="http://www.w3.org/2000/svg" xmlns:xlink="http://www.w3.org/1999/xlink" x="0px" y="0px"
	 viewBox="0 0 59.3 42.4" style="enable-background:new 0 0 59.3 42.4;" xml:space="preserve">
<style type="text/css">
	.st0{fill:#4B0082;}
</style>
<g>
	<path class="st0" d="M0,41.1c0,0.2,0.1,0.3,0.3,0.3c0,0,0,0,0,0h2.6c0.2,0,0.3-0.1,0.3-0.3c0,0,0,0,0,0v-3.9h19.1v3.9
		c0,0.2,0.1,0.3,0.3,0.3c0,0,0,0,0,0h2.6c0.2,0,0.3-0.1,0.3-0.3c0,0,0,0,0,0V23.2c0-1.5-0.6-2.9-1.7-4c-2.1-2.2-5.8-3.4-11.1-3.4
		h-0.1c-5.3,0-9,1.1-11.1,3.4c-1.1,1.1-1.7,2.5-1.7,4V41.1z M11.3,27.1c-2.7,0.1-5.4,0.4-8.1,0.9v-3.2C3.2,24.4,3.5,24,4,24
		c0,0,0,0,0,0h6.5c0.4,0,0.8,0.4,0.8,0.8V27.1z M7.5,28c5.9-0.6,11.8-0.1,17.4,1.5v3.5H0.6v-3.5C2.9,28.7,5.2,28.3,7.5,28L7.5,28z
		 M22.4,28.1c-2.7-0.6-5.3-0.9-8.1-1v-2.3c0-0.4,0.3-0.8,0.8-0.8c0,0,0,0,0,0h6.4c0.4,0,0.8,0.3,0.8,0.8c0,0,0,0,0,0L22.4,28.1
		L22.4,28.1z"/>
	<path class="st0" d="M41.1,8.1c0.2-1.9,1.9-3.4,3.8-3.2c0.8,0.1,1.6,0.4,2.2,1c-0.1-3.6,5.5-3.7,5.5,0.1c2.5-2.4,6.2,2,4.3,3.2
		c2.7,0.8,3.5,3.2,1.1,4.6c1.6,1.3-0.1,4-2.3,3.4c-0.3,1.3-1.6,2.2-2.9,2c-0.3-0.1-0.6-0.2-0.8-0.3c-0.7,0.5-1.5,0.7-2.3,0.8
		c-0.5,7.1-9.1,11.1-8.3,16.6c0.1,1.3,0,3.5,1.1,4c1,0.5,1.9,0.9,2.9,1.3l-4.7-0.5l0.3,1.3c-0.9-0.3-3.1-1.2-3.8-1.5l-4.7,0.1
		c1.5-0.4,3.2-1.5,3.1-1.6c0.5-2.1,1.2-4.1,2.3-5.9c1.3-3.8,0.9-5.1-1.6-8.2h-0.4c-0.1,0.7-0.8,1.1-1.5,1c-0.3,0-0.5-0.2-0.7-0.4
		c-0.5,1.1-2.5,0.4-2.4-0.8c-0.9,0.2-1.8-0.5-1.9-1.4c-0.1-0.5,0-0.9,0.3-1.3c-1.3,0.1-1.9-3.4,0.3-3.2c-1.7-1.7,0.5-3.8,2.1-2
		c-0.1-1,0.6-1.8,1.6-1.9c0.6-0.1,1.2,0.2,1.6,0.7c1.2-1.3,3.6,0.3,3.3,2c1.8-0.1,1.1,1.9,0.3,2.7c0.7,0.7,0,2-0.9,2.3
		c0.4,0.5-0.1,1.3-0.8,1.9c1.5,1.5,2.5,3.4,2.8,5.5c2.8-3.3,4.3-7.6,4.2-11.9c-1.1-0.1-2.2-0.8-2.2-1.9c-2,0-5.5-1.5-3.1-3.1
		c-1.4-0.9-1.8-2.7-0.9-4.1C38.6,8.4,39.8,7.8,41.1,8.1z M48.6,19.6c-1,0.1-2-0.4-2.5-1.2c-0.3,0.1-0.5,0.2-0.8,0.1
		c0.1,3.1-0.1,6.4-0.9,7.2C47.1,23.8,48.3,22.1,48.6,19.6z"/>
	<path class="st0" d="M23.1,3c0.9-2.1,3.2-1.3,4.2,0.7l-1.1-0.1c-0.3-1.1-2.5-1.9-2.5,0.8L23.2,5l-0.4-0.7c0-1.2-2-2.8-2.7,0
		l-1.1,0.1C19.9,2.6,21.2,0.4,23.1,3z"/>
	<path class="st0" d="M30.2,1c0.8-1.6,2.5-1.1,3.2,0.5h-0.8C32.3,0.7,30.7,0,30.7,2l-0.4,0.5L30.1,2c0-0.9-1.6-2.2-2.2,0l-0.8,0.1
		C27.7,0.7,28.9-0.9,30.2,1z"/>
	<path class="st0" d="M28.1,5.4c0.7-1.5,2.3-0.9,2.8,0.4l-0.7-0.1c-0.1-0.7-1.7-1.2-1.7,0.5l-0.3,0.5l-0.3-0.5c0-0.8-1.3-1.9-1.9,0
		l-0.7,0.1C25.9,5.1,26.9,3.6,28.1,5.4z"/>
</g>
</svg>
