<?xml version="1.0" encoding="utf-8"?>
<!-- Generator: Adobe Illustrator 24.2.0, SVG Export Plug-In . SVG Version: 6.00 Build 0)  -->
<svg version="1.1" id="Calque_1" xmlns="http://www.w3.org/2000/svg" xmlns:xlink="http://www.w3.org/1999/xlink" x="0px" y="0px"
	 viewBox="0 0 41.9 36.6" style="enable-background:new 0 0 41.9 36.6;" xml:space="preserve">
<style type="text/css">
	.st0{fill:#4B0082;}
</style>
<g>
	<polygon class="st0" points="23.1,15.5 24.9,13.5 26.2,12 29,9 13.6,9 18,12 20.1,13.5 	"/>
	<path class="st0" d="M41.1,9H30.7v0.4l-4.4,4.9h4.4v9.7H1.5v-1.5h11.2c0-1.7-1.3-3-3-3H3c-0.5,0-1,0.1-1.5,0.4v-5.6h17.1L11,9H1.5
		V7.5h11.2c0-1.7-1.3-3-3-3H3c-0.5,0-1,0.1-1.5,0.4V0.8C1.5,0.3,1.2,0,0.8,0S0,0.3,0,0.8v35.1c0,0.4,0.3,0.8,0.8,0.8
		s0.8-0.3,0.8-0.8v-6.7h29.2v6c0,0.4,0.3,0.8,0.8,0.8s0.8-0.3,0.8-0.8v-3h8.2v3c0,0.4,0.4,0.7,0.8,0.7c0.3,0,0.6-0.3,0.7-0.7V9.7
		C41.9,9.3,41.5,9,41.1,9z M32.2,25.4h8.2v2.2h-8.2V25.4z M32.2,16.4v-2.2h8.2v2.2H32.2z M40.4,17.9v2.2h-8.2v-2.2L40.4,17.9z
		 M32.2,21.6h8.2v2.3h-8.2V21.6z M40.4,10.4v2.2h-8.2v-2.2L40.4,10.4z M32.2,30.6v-1.5h8.2v1.5L32.2,30.6z"/>
</g>
</svg>
