<?xml version="1.0" encoding="utf-8"?>
<!-- Generator: Adobe Illustrator 24.2.0, SVG Export Plug-In . SVG Version: 6.00 Build 0)  -->
<svg version="1.1" id="Calque_1" xmlns="http://www.w3.org/2000/svg" xmlns:xlink="http://www.w3.org/1999/xlink" x="0px" y="0px"
	 viewBox="0 0 34.8 36.7" style="enable-background:new 0 0 34.8 36.7;" xml:space="preserve">
<style type="text/css">
	.st0{fill:#4B0082;}
</style>
<g>
	<path class="st0" d="M1.7,0C0.7,0,0,0.6,0,1.2v2.8c0,0.6,0.7,1.2,1.7,1.2h10.5c1,0,1.7-0.6,1.7-1.2V1.2c0-0.6-0.7-1.2-1.7-1.2H1.7z
		 M2.1,6.2v15.9h9.6V6.1L2.1,6.2z M12.6,16.8v5.3h20.5c0.9,0,1.6-0.6,1.7-1.5c0,0,0,0,0,0v-2.2c0-0.9-0.8-1.6-1.7-1.5c0,0,0,0,0,0
		H12.6z M2.1,22.9v3.5h1.7c2.5,0,4.6,2,4.6,4.5v5.7h18v-5.9c-1.2,0.4-2.4,0.5-3.7,0.5H22h-0.4h-0.3h-0.3l-0.5-0.1
		c-0.3,0-0.7-0.1-1-0.2l0,0c-4.3-1-7.5-4.2-7.7-8H2.1L2.1,22.9z M12.8,22.9c0.2,2.9,2.3,5.4,5.3,6.6h0.1c0.2,0.1,0.5,0.2,0.8,0.3
		h0.2c0.2,0.1,0.5,0.1,0.7,0.2l0.4,0.1l0.6,0.1l0.7,0.1h0.3h0.1c0.3,0,0.6,0,0.9,0h0.9h0.1c0.3,0,0.6-0.1,0.8-0.1h0.2l0.8-0.2l0.2,0
		L26,30l0.6-0.2c3.4-1.2,5.8-3.8,6-6.9L12.8,22.9z"/>
</g>
</svg>
