<?xml version="1.0" encoding="utf-8"?>
<!-- Generator: Adobe Illustrator 24.2.0, SVG Export Plug-In . SVG Version: 6.00 Build 0)  -->
<svg version="1.1" id="Calque_1" xmlns="http://www.w3.org/2000/svg" xmlns:xlink="http://www.w3.org/1999/xlink" x="0px" y="0px"
	 viewBox="0 0 36.6 36.6" style="enable-background:new 0 0 36.6 36.6;" xml:space="preserve">
<style type="text/css">
	.st0{fill:#4B0082;}
</style>
<path class="st0" d="M0,19.8v1.5h1.5v8.4c0,2.9,2.4,5.3,5.3,5.3h1.5v1.5h1.5v-1.5h16.8v1.5h1.5v-1.5h1.5c2.9,0,5.3-2.4,5.3-5.3v-8.4
	h1.5v-1.5H5.3V1.5h6.1v2.4C9.2,4.3,7.6,6.2,7.6,8.4v0.8h9.2V8.4c0-2.2-1.6-4.1-3.8-4.5V1.5C13,0.7,12.3,0,11.5,0H5.3
	C4.5,0,3.8,0.7,3.8,1.5v18.3H0z"/>
<path class="st0" d="M12.8,12c0.1-0.1,0.1-0.2,0.2-0.3c0-0.1,0.1-0.2,0.1-0.3c0-0.1,0-0.2-0.1-0.3c0-0.1-0.1-0.2-0.2-0.2
	c-0.3-0.3-0.8-0.3-1.1,0c-0.1,0.1-0.1,0.2-0.2,0.2c0,0.1-0.1,0.2,0,0.3c0,0.1,0,0.2,0,0.3c0,0.1,0.1,0.2,0.2,0.3
	c0.1,0.1,0.2,0.1,0.2,0.2c0.2,0.1,0.4,0.1,0.6,0C12.6,12.1,12.7,12.1,12.8,12z"/>
<path class="st0" d="M13,17.5c0-0.1,0-0.2-0.1-0.3c0-0.1-0.1-0.2-0.2-0.2c-0.3-0.3-0.8-0.3-1.1,0c-0.1,0.1-0.1,0.2-0.2,0.2
	c0,0.1-0.1,0.2-0.1,0.3c0,0.1,0,0.2,0.1,0.3c0,0.1,0.1,0.2,0.2,0.2c0.2,0.2,0.5,0.3,0.8,0.2c0.1,0,0.2-0.1,0.2-0.2
	c0.1-0.1,0.1-0.2,0.2-0.2C12.9,17.7,13,17.6,13,17.5z"/>
<path class="st0" d="M13,14.5c0-0.2-0.1-0.4-0.2-0.5l-0.1-0.1l-0.1-0.1h-0.1c-0.1,0-0.2,0-0.3,0h-0.1l-0.1,0.1L11.7,14
	c-0.1,0.1-0.2,0.3-0.2,0.5c0,0.1,0,0.2,0,0.3c0,0.1,0.1,0.2,0.2,0.2c0.1,0.1,0.2,0.1,0.2,0.2c0.2,0.1,0.4,0.1,0.6,0
	c0.1,0,0.2-0.1,0.2-0.2c0.1-0.1,0.1-0.2,0.2-0.2C12.9,14.7,13,14.6,13,14.5z"/>
<path class="st0" d="M9.7,14.3c0.1-0.1,0.1-0.2,0.2-0.3c0-0.1,0.1-0.2,0.1-0.3c0-0.2-0.1-0.4-0.2-0.5c-0.2-0.2-0.5-0.3-0.8-0.2
	c-0.1,0-0.2,0.1-0.2,0.2c-0.1,0.1-0.1,0.2-0.2,0.2c0,0.1,0,0.2,0,0.3c0,0.1,0,0.2,0,0.3c0,0.1,0.1,0.2,0.2,0.3
	c0.1,0.1,0.3,0.2,0.5,0.2C9.4,14.5,9.6,14.4,9.7,14.3z"/>
<path class="st0" d="M9.9,16.8c0-0.2-0.1-0.4-0.2-0.6c-0.1-0.1-0.2-0.1-0.2-0.2c-0.3-0.1-0.6,0-0.8,0.2c-0.1,0.1-0.2,0.3-0.2,0.5
	c0,0.1,0,0.2,0,0.3c0,0.1,0.1,0.2,0.2,0.2c0.1,0.1,0.3,0.2,0.5,0.2c0.2,0,0.4-0.1,0.5-0.2c0.1-0.1,0.1-0.2,0.2-0.2
	C9.9,17,9.9,16.9,9.9,16.8z"/>
<path class="st0" d="M16,14c0-0.1,0.1-0.2,0.1-0.3c0-0.2-0.1-0.4-0.2-0.5c-0.3-0.3-0.8-0.3-1.1,0c-0.1,0.1-0.2,0.3-0.2,0.5
	c0,0.1,0,0.2,0,0.3c0,0.1,0.1,0.2,0.2,0.3c0.1,0.1,0.2,0.1,0.3,0.2c0.1,0,0.2,0.1,0.3,0.1c0.2,0,0.4-0.1,0.5-0.2
	C15.8,14.2,15.9,14.1,16,14z"/>
<path class="st0" d="M16,16.8c0-0.1,0-0.2-0.1-0.3c0-0.1-0.1-0.2-0.2-0.3C15.6,16,15.3,16,15,16.1c-0.1,0-0.2,0.1-0.3,0.1
	c-0.1,0.1-0.1,0.2-0.2,0.3c0,0.1-0.1,0.2-0.1,0.3c0,0.1,0,0.2,0,0.3c0,0.1,0.1,0.2,0.2,0.2c0.1,0.1,0.2,0.1,0.3,0.2
	c0.2,0.1,0.4,0.1,0.6,0c0.1,0,0.2-0.1,0.2-0.2c0.1-0.1,0.1-0.2,0.2-0.2C15.9,17,16,16.9,16,16.8z"/>
</svg>
