<?xml version="1.0" encoding="utf-8"?>
<!-- Generator: Adobe Illustrator 24.2.0, SVG Export Plug-In . SVG Version: 6.00 Build 0)  -->
<svg version="1.1" id="Calque_1" xmlns="http://www.w3.org/2000/svg" xmlns:xlink="http://www.w3.org/1999/xlink" x="0px" y="0px"
	 viewBox="0 0 59.3 30" style="enable-background:new 0 0 59.3 30;" xml:space="preserve">
<style type="text/css">
	.st0{fill:#4B0082;}
</style>
<g>
	<rect x="29.2" class="st0" width="1" height="30"/>
	<path class="st0" d="M1.1,3.6C0.5,3.6,0,4,0,4.4v1.9c0.1,0.5,0.6,0.9,1.1,0.9c0,0,0,0,0,0h7.1c0.5,0.1,1.1-0.3,1.1-0.8c0,0,0,0,0,0
		V4.4c0-0.4-0.5-0.9-1.1-0.9L1.1,3.6z M1.4,7.7v10.9H8V7.8L1.4,7.7z M8.6,15v3.6h14c0.6,0,1.1-0.4,1.1-1c0,0,0,0,0,0V16
		c0-0.6-0.5-1.1-1.1-1.1c0,0,0,0,0,0L8.6,15z M1.4,19.2v2.4h1.1c1.7,0,3.1,1.4,3.1,3.1v3.9H18v-4c-0.8,0.2-1.7,0.4-2.5,0.3H15h-0.3
		h-0.2h-0.2l-0.3,0c-0.2,0-0.5-0.1-0.7-0.1l0,0c-2.9-0.7-5.1-2.8-5.2-5.5L1.4,19.2L1.4,19.2z M8.7,19.2c0.2,2.1,1.6,3.8,3.6,4.5l0,0
		c0.2,0.1,0.4,0.1,0.5,0.2h0.1l0.5,0.1l0.2,0l0.4,0.1h0.5h0.2h0.1h0.6H16h0.1l0.6-0.1h0.1l0.5-0.1h0.1l0.2-0.1l0.4-0.1
		c2.2-0.6,3.8-2.4,4.1-4.7L8.7,19.2z"/>
	<path class="st0" d="M36.8,3.6c-0.7,0-1.1,0.4-1.1,0.9v1.9c0.1,0.5,0.6,0.9,1.1,0.9c0,0,0,0,0,0h7.1C44.4,7.3,45,6.9,45,6.3
		c0,0,0,0,0,0V4.4c0-0.4-0.5-0.9-1.1-0.9L36.8,3.6z M37.1,7.7v10.9h6.6V7.8L37.1,7.7z M44.2,15v3.6h14c0.6,0,1.1-0.4,1.1-1V16
		c0-0.6-0.5-1.1-1.1-1.1c0,0,0,0,0,0L44.2,15z M37.1,19.2v2.4h1.1c1.7,0,3.1,1.3,3.1,3v4h12.3v-4c-0.8,0.2-1.7,0.4-2.5,0.3h-0.5
		h-0.3h-0.2H50l-0.3-0.1c-0.2,0-0.5-0.1-0.7-0.1l0,0c-2.9-0.7-5.1-2.8-5.2-5.5L37.1,19.2L37.1,19.2z M44.3,19.2
		c0.2,2.1,1.6,3.8,3.6,4.5l0,0l0.5,0.2h0.1l0.5,0.1l0.2,0l0.4,0.1h0.5h0.2l0,0H51h0.6h0.1c0.2,0,0.4,0,0.6-0.1h0.1l0.5-0.1H53
		l0.2-0.1l0.4-0.1c2.2-0.6,3.8-2.4,4.1-4.7L44.3,19.2z"/>
</g>
</svg>
