<?xml version="1.0" encoding="utf-8"?>
<!-- Generator: Adobe Illustrator 24.2.0, SVG Export Plug-In . SVG Version: 6.00 Build 0)  -->
<svg version="1.1" id="Calque_1" xmlns="http://www.w3.org/2000/svg" xmlns:xlink="http://www.w3.org/1999/xlink" x="0px" y="0px"
	 viewBox="0 0 38.5 30" style="enable-background:new 0 0 38.5 30;" xml:space="preserve">
<style type="text/css">
	.st0{fill:#4B0082;}
</style>
<g>
	<rect x="18.8" class="st0" width="1" height="30"/>
	<path class="st0" d="M1.5,24.9V6.6h6.1V9c-2.2,0.4-3.8,2.3-3.8,4.5v0.8H13v-0.8c0-2.2-1.6-4.1-3.8-4.5V6.6c0-0.8-0.7-1.5-1.5-1.5
		H1.5C0.7,5.1,0,5.8,0,6.6v18.3H1.5z"/>
	<path class="st0" d="M8.9,17.1C9,17,9.1,16.9,9.1,16.8c0.1-0.2,0.1-0.4,0-0.6c0-0.1-0.1-0.2-0.2-0.2c-0.3-0.3-0.8-0.3-1.1,0
		c-0.1,0.1-0.1,0.2-0.2,0.2c-0.1,0.2-0.1,0.4,0,0.6c0,0.1,0.1,0.2,0.2,0.2c0.1,0.1,0.2,0.1,0.3,0.2c0.1,0,0.2,0.1,0.3,0.1
		c0.1,0,0.2,0,0.3-0.1C8.8,17.2,8.9,17.1,8.9,17.1z"/>
	<path class="st0" d="M9.2,22.6c0-0.1,0-0.2-0.1-0.3c0-0.1-0.1-0.2-0.2-0.2c-0.3-0.3-0.8-0.3-1.1,0c-0.1,0.1-0.1,0.2-0.2,0.2
		c0,0.1-0.1,0.2-0.1,0.3c0,0.1,0,0.2,0.1,0.3c0,0.1,0.1,0.2,0.2,0.3c0.1,0.1,0.2,0.1,0.3,0.2c0.1,0,0.2,0.1,0.3,0.1
		c0.1,0,0.2,0,0.3-0.1c0.1,0,0.2-0.1,0.2-0.2C9,23.1,9.1,23,9.1,22.9C9.1,22.8,9.2,22.7,9.2,22.6z"/>
	<path class="st0" d="M9.2,19.6c0-0.2-0.1-0.4-0.2-0.5l-0.1-0.1l-0.1-0.1l-0.1,0c-0.1,0-0.2,0-0.3,0l-0.1,0c0,0-0.1,0-0.1,0.1
		L7.9,19c-0.1,0.1-0.2,0.3-0.2,0.5c0,0.1,0,0.2,0.1,0.3c0,0.1,0.1,0.2,0.2,0.2c0.1,0.1,0.2,0.1,0.3,0.2c0.1,0,0.2,0.1,0.3,0.1
		c0.2,0,0.4-0.1,0.5-0.2C9,20,9.1,20,9.1,19.9C9.1,19.8,9.2,19.7,9.2,19.6z"/>
	<path class="st0" d="M5.9,19.4C6,19.3,6,19.2,6.1,19.1c0-0.1,0.1-0.2,0.1-0.3c0-0.2-0.1-0.4-0.2-0.5C5.7,18,5.3,18,5.1,18.1
		c-0.1,0-0.2,0.1-0.2,0.2c-0.1,0.1-0.1,0.2-0.2,0.2c-0.1,0.2-0.1,0.4,0,0.6c0,0.1,0.1,0.2,0.2,0.2C5.1,19.6,5.6,19.6,5.9,19.4z"/>
	<path class="st0" d="M6.1,21.9c0-0.2-0.1-0.4-0.2-0.5c-0.1-0.1-0.2-0.1-0.3-0.2c-0.4-0.2-0.8,0-1,0.4c0,0.1-0.1,0.2-0.1,0.3
		c0,0.1,0,0.2,0.1,0.3c0,0.1,0.1,0.2,0.2,0.2c0.3,0.3,0.8,0.3,1.1,0C6,22.3,6,22.3,6.1,22.2C6.1,22.1,6.1,22,6.1,21.9z"/>
	<path class="st0" d="M12.2,19.1c0.1-0.2,0.1-0.4,0-0.6c0-0.1-0.1-0.2-0.2-0.2c-0.3-0.3-0.8-0.3-1.1,0c-0.1,0.1-0.2,0.3-0.2,0.5
		c0,0.1,0,0.2,0,0.3c0,0.1,0.1,0.2,0.2,0.2c0.1,0.1,0.2,0.1,0.2,0.2c0.1,0,0.2,0.1,0.3,0.1c0.2,0,0.4-0.1,0.5-0.2
		C12.1,19.3,12.1,19.2,12.2,19.1z"/>
	<path class="st0" d="M12.2,21.9c0-0.1,0-0.2-0.1-0.3c0-0.1-0.1-0.2-0.2-0.2c-0.2-0.2-0.5-0.3-0.8-0.2c-0.1,0-0.2,0.1-0.2,0.2
		c-0.1,0.1-0.1,0.2-0.2,0.2c0,0.1-0.1,0.2-0.1,0.3c0,0.1,0,0.2,0,0.3c0,0.1,0.1,0.2,0.2,0.2c0.1,0.1,0.2,0.1,0.2,0.2
		c0.2,0.1,0.4,0.1,0.6,0c0.1,0,0.2-0.1,0.2-0.2c0.1-0.1,0.1-0.2,0.2-0.2C12.2,22.1,12.2,22,12.2,21.9z"/>
	<path class="st0" d="M27.1,24.9V6.6h6.1V9c-2.2,0.4-3.8,2.3-3.8,4.5v0.8h9.2v-0.8c0-2.2-1.6-4.1-3.8-4.5V6.6c0-0.8-0.7-1.5-1.5-1.5
		h-6.1c-0.8,0-1.5,0.7-1.5,1.5v18.3H27.1z"/>
	<path class="st0" d="M34.5,17.1c0.1-0.1,0.1-0.2,0.2-0.2c0.1-0.2,0.1-0.4,0-0.6c0-0.1-0.1-0.2-0.2-0.2c-0.3-0.3-0.8-0.3-1.1,0
		c-0.1,0.1-0.1,0.2-0.2,0.2c-0.1,0.2-0.1,0.4,0,0.6c0,0.1,0.1,0.2,0.2,0.2c0.2,0.2,0.5,0.3,0.8,0.2C34.3,17.2,34.4,17.1,34.5,17.1z"
		/>
	<path class="st0" d="M34.7,22.6c0-0.1,0-0.2-0.1-0.3c0-0.1-0.1-0.2-0.2-0.2c-0.3-0.3-0.8-0.3-1.1,0c-0.1,0.1-0.1,0.2-0.1,0.3
		c0,0.1-0.1,0.2-0.1,0.3c0,0.1,0,0.2,0,0.3c0,0.1,0.1,0.2,0.2,0.3c0.1,0.1,0.2,0.1,0.2,0.2c0.2,0.1,0.4,0.1,0.6,0
		c0.1,0,0.2-0.1,0.2-0.2c0.1-0.1,0.1-0.2,0.2-0.3C34.7,22.8,34.7,22.7,34.7,22.6z"/>
	<path class="st0" d="M34.7,19.6c0-0.2-0.1-0.4-0.2-0.5l-0.1-0.1l-0.1-0.1c0,0-0.1,0-0.2,0c-0.1,0-0.2,0-0.3,0l-0.1,0L33.6,19
		L33.5,19c-0.1,0.1-0.2,0.3-0.2,0.5c0,0.1,0,0.2,0,0.3c0,0.1,0.1,0.2,0.2,0.2c0.1,0.1,0.2,0.1,0.2,0.2c0.2,0.1,0.4,0.1,0.6,0
		c0.1,0,0.2-0.1,0.2-0.2c0.1-0.1,0.1-0.2,0.2-0.2C34.7,19.8,34.7,19.7,34.7,19.6z"/>
	<path class="st0" d="M31.5,19.4c0.1-0.1,0.1-0.2,0.2-0.2c0-0.1,0.1-0.2,0.1-0.3c0-0.2-0.1-0.4-0.2-0.5c-0.2-0.2-0.5-0.3-0.8-0.2
		c-0.1,0-0.2,0.1-0.3,0.2c-0.1,0.1-0.1,0.2-0.2,0.2c-0.1,0.2-0.1,0.4,0,0.6c0,0.1,0.1,0.2,0.2,0.2C30.7,19.6,31.1,19.6,31.5,19.4z"
		/>
	<path class="st0" d="M31.7,21.9c0-0.2-0.1-0.4-0.2-0.5c-0.1-0.1-0.2-0.1-0.2-0.2c-0.3-0.1-0.6-0.1-0.8,0.2
		c-0.1,0.1-0.2,0.3-0.2,0.5c0,0.1,0,0.2,0.1,0.3c0,0.1,0.1,0.2,0.2,0.2c0.3,0.3,0.8,0.3,1.1,0c0.1-0.1,0.1-0.2,0.2-0.2
		C31.6,22.1,31.7,22,31.7,21.9z"/>
	<path class="st0" d="M37.7,19.1c0.1-0.2,0.1-0.4,0-0.6c0-0.1-0.1-0.2-0.2-0.2c-0.3-0.3-0.8-0.3-1.1,0c-0.1,0.1-0.2,0.3-0.2,0.5
		c0,0.1,0,0.2,0,0.3c0,0.1,0.1,0.2,0.2,0.2c0.1,0.1,0.2,0.1,0.2,0.2c0.1,0,0.2,0.1,0.3,0.1c0.2,0,0.4-0.1,0.5-0.2
		C37.6,19.3,37.7,19.2,37.7,19.1z"/>
	<path class="st0" d="M37.8,21.9c0-0.1,0-0.2-0.1-0.3c0-0.1-0.1-0.2-0.2-0.2c-0.2-0.2-0.5-0.3-0.8-0.2c-0.1,0-0.2,0.1-0.2,0.2
		c-0.1,0.1-0.1,0.2-0.2,0.2c0,0.1-0.1,0.2-0.1,0.3c0,0.1,0,0.2,0,0.3c0,0.1,0.1,0.2,0.2,0.2c0.1,0.1,0.2,0.1,0.2,0.2
		c0.2,0.1,0.4,0.1,0.6,0c0.1,0,0.2-0.1,0.2-0.2c0.1-0.1,0.1-0.2,0.2-0.2C37.7,22.1,37.8,22,37.8,21.9z"/>
</g>
</svg>
