<?xml version="1.0" encoding="utf-8"?>
<!-- Generator: Adobe Illustrator 24.2.0, SVG Export Plug-In . SVG Version: 6.00 Build 0)  -->
<svg version="1.1" id="Calque_1" xmlns="http://www.w3.org/2000/svg" xmlns:xlink="http://www.w3.org/1999/xlink" x="0px" y="0px"
	 viewBox="0 0 31.9 36.7" style="enable-background:new 0 0 31.9 36.7;" xml:space="preserve">
<style type="text/css">
	.st0{fill:#4B0082;}
</style>
<path class="st0" d="M26.9,1.3c0,0,0.4-0.8,0.5-1.1s0.4,0.1,0.5,0.1s0.3,0.2,0.6-0.2s0.7-0.3,0.7-0.2s0.4,0.4,0.4,0.4s0.6-0.2,0.7,0
	s-0.1,0.7,0.1,0.7S31,0.9,31,1.3S30.7,2,31,2s0.8,0.2,0.6,0.5c-0.1,0.3-0.2,0.6-0.1,0.9c0,0.3,0,0.6,0,0.6c0.3,0.4,0.4,0.9,0.4,1.4
	C31.5,5.1,31.1,5,30.6,5c0,0.3-0.1,0.7-0.1,1c-0.1,0.5-0.3,0.6-0.5,0.7S29.4,7,29.2,6.9s-0.5,2.1-0.4,4.2s0.7,5.1,0.6,6.9
	c-0.1,2.8-1.5,5.4-3.9,6.9c-3.1,2-6.7,4.5-7.3,4.9c-0.3,0.1-0.5,0.2-0.8,0.4c0,0,0,2.7,0.5,2.9s1.6-0.3,2-0.5
	c0.4-0.2,1.2-0.1,1.2,0.4c0,0-0.5-0.3-0.6,0.1c0,0.3-1,0.2-1,0.2s-0.8,0.4-0.6,0.4c1-0.1,2-0.1,2.9,0c0.5,0.1,0.8,0.6,0.7,1.1
	c0,0.1,0,0.1-0.1,0.2c0,0-0.2-0.7-0.7-0.6c-0.5,0.2-1.1,0.2-1.6,0c-0.6-0.1-1.8-0.4-1.6-0.2c0.3,0.3,0.6,0.6,1,0.8
	c0.6,0.4,1,1.1,0.4,1.6c0,0,0-0.8-0.3-0.7c-0.4,0.1-0.8-0.1-1-0.5c-0.3-0.4-0.8-0.7-1.3-0.8c-0.6-0.1-0.7-0.9-0.8-1
	c-0.1-0.1-0.7,0.1-0.8,0.4s-0.4,0.4-0.2,0.8c-0.2-0.2-0.3-0.5-0.2-0.7c0.3-0.4,0.6-0.7,1-1c0.3-0.2,0-0.5,0-1c0-0.5-0.2-2-0.2-2
	c-0.7,0-1.5-0.2-2.2-0.5c0,0-0.1,0.8-0.2,1.4c-0.1,0.7-0.4,1.3-0.8,1.9c-0.4,0.5-0.6,1-0.7,1.6c0,0.7-0.6,1.4-1.3,1.4
	c-0.1,0-0.2,0-0.2,0c0,0,0.6-0.3,0.6-0.5s-0.4-0.7,0.1-1.2s1-1.3,0.8-1.2s-0.6,0.7-1.4,0.7s-1.1-0.4-1-0.7c0,0,0.4,0.5,0.7,0.3
	s0.1-0.7,0.6-0.8s1,0,1.4-0.5c0.4-0.5-0.2-0.5-0.6-0.5s-0.9-0.3-1,0.2c0-0.2,0.1-0.5,0.4-0.5c0.4-0.1,1.2,0,1.3-0.3s0.2-1.5,0.2-1.5
	c-2-0.6-3.7-1.7-4.9-3.4c-0.8-1-1.2-2.2-1.2-3.5c0,0-4.2-2.2-4.4-5.7l1,0.3c0,0-3.2-2.7-3.4-5.4l1.2,0.4c0,0-1.1-0.3-1.1-2.2
	c0.8,0,1.6,0.4,2.1,1c-1.1-0.7-1.5-2-1.1-3.2c0,0,2.1,1,2.4,2c0,0-0.6-0.1-0.7-2.1c2.7,0.4,5.1,1.8,6.7,4c1.2,0,2.4,0.1,3.6,0.4
	c1.5,0.3,5.8,0.9,7.5-1.4C22.2,8.3,22.8,2.2,26.9,1.3z"/>
</svg>
