<?xml version="1.0" encoding="utf-8"?>
<!-- Generator: Adobe Illustrator 24.2.0, SVG Export Plug-In . SVG Version: 6.00 Build 0)  -->
<svg version="1.1" id="Calque_1" xmlns="http://www.w3.org/2000/svg" xmlns:xlink="http://www.w3.org/1999/xlink" x="0px" y="0px"
	 viewBox="0 0 32.9 36.6" style="enable-background:new 0 0 32.9 36.6;" xml:space="preserve">
<style type="text/css">
	.st0{fill:#4B0082;}
</style>
<path class="st0" d="M8.1,32.5c-8.4-7.3,7.1-14.4,3.8-22.4C10.1,5.8,4.5,4.4,1.1,7.4c-2.2,1.7-0.8,3.8,1.3,2.4
	c1.7-1.5,4.4-1.4,5.9,0.4c0.3,0.4,0.6,0.9,0.8,1.3c1.7,4.1-5.2,10.7-6.2,14.5s1.7,10.6,7,10.6h10.6c0.1-1-0.5-1.8-1.5-2
	c-0.1,0-0.2,0-0.2,0c2.9-2.6,3.3-5.7,0.1-9.5c3.4,2.8,3.6,7.3,1.4,9.4c0.8,0.5,1.2,1.3,1.3,2.1h4.1c-0.4-0.6-0.9-1.1-1.6-1.4
	c-0.4-7.1,3.6-9.3,4.8-13.4c0.9-3.3-0.4-6.7-1.4-9.6c1.6-1.1,3.6,0.9,5.3-2.3c-1.4-2.3-0.7-5.4-3.7-6.3C28.6,2.3,29.3,1.3,30,0
	c-7.4,2.6-8.5,4.4-9.3,10.4c-1.1,8-3.1,4.8-8.7,9C6.8,23.2,7.9,27.5,8.1,32.5z"/>
</svg>
