<?xml version="1.0" encoding="utf-8"?>
<!-- Generator: Adobe Illustrator 24.2.0, SVG Export Plug-In . SVG Version: 6.00 Build 0)  -->
<svg version="1.1" id="Calque_1" xmlns="http://www.w3.org/2000/svg" xmlns:xlink="http://www.w3.org/1999/xlink" x="0px" y="0px"
	 viewBox="0 0 54.6 31.5" style="enable-background:new 0 0 54.6 31.5;" xml:space="preserve">
<style type="text/css">
	.st0{fill:#4B0082;}
</style>
<path class="st0" d="M54.1,21.2l0.3,2c0,0.2-0.1,0.4-0.3,0.5l-2.3,0.7h-0.2c-0.1,0-0.2,0-0.2,0l-1.1-0.7c-1.8-1.1-3.4-2.7-4.5-4.5
	h-6.3l-2.7,3.3v9h-3v-9.5l-2-2.9H15.2L7,23.2v8.2H4v-8.8c0-0.2,0-0.4,0.1-0.5l2.1-6.7l-1.4-5C4.6,9.8,4.5,9.2,4.5,8.6V2.4
	C3.3,3,2.6,4.2,2.6,5.6v7.9c1.1,2.1,0.7,4.7-1,6.4c-1-1-1.6-2.4-1.6-3.8c0-0.9,0.2-1.8,0.6-2.5v-8c0-3,2.5-5.5,5.5-5.5c0,0,0,0,0,0
	h29.9c1,0,2,0.4,2.8,1l8.8,7.5l2,0.6c0.8-0.1,1.6-0.2,2.2-0.4H52c0.3,0,0.4,0.2,0.4,0.5c0,0.1,0,0.1-0.1,0.2l-0.3,0.4l2.2,0.7
	c0.2,0,0.4,0.3,0.3,0.5c0,0.1-0.1,0.2-0.2,0.3L52.9,12l1.1,1.6c0.2,0.2,0.2,0.5,0.2,0.8v0.5C53.8,17,53.8,19.1,54.1,21.2z"/>
<polygon class="st0" points="29.6,20.9 26.5,30.7 29.7,30.7 31.8,24.2 31.8,22.5 30.7,20.9 "/>
<polygon class="st0" points="15.9,20.9 15.7,20.9 10.8,23.3 13.6,30.7 16.7,30.7 14.1,23.4 "/>
</svg>
