<?xml version="1.0" encoding="utf-8"?>
<!-- Generator: Adobe Illustrator 24.2.0, SVG Export Plug-In . SVG Version: 6.00 Build 0)  -->
<svg version="1.1" id="Calque_1" xmlns="http://www.w3.org/2000/svg" xmlns:xlink="http://www.w3.org/1999/xlink" x="0px" y="0px"
	 viewBox="0 0 41.4 43.6" style="enable-background:new 0 0 41.4 43.6;" xml:space="preserve">
<style type="text/css">
	.st0{fill:#4B0082;}
</style>
<polygon class="st0" points="40.6,9.9 39.9,11.8 37.1,12.7 33.9,12.6 33.2,13.6 34.2,20.9 31.4,31.6 32.9,41.5 35.5,41.9 36.4,42.6 
	35.6,43.3 32.1,43.3 31,42.4 28.4,32.2 25.9,33.9 20.4,34.5 21.9,37.5 20.9,39.8 16.8,41.1 22.3,41.2 23.6,42.9 22.3,43.6 9.3,43.5 
	7.2,41.8 7.2,41 3.6,41 0,36.9 2,33.8 1.9,36.4 4.2,38.9 7.5,38.7 7.8,34.1 11.8,26.5 24.2,14.6 27.2,4.5 28.7,1.4 30.6,0 30.2,3.5 
	34.5,4.7 35.1,6.6 40.7,8.8 41.4,9.7 "/>
</svg>
