<?xml version="1.0" encoding="utf-8"?>
<!-- Generator: Adobe Illustrator 24.2.0, SVG Export Plug-In . SVG Version: 6.00 Build 0)  -->
<svg version="1.1" id="Calque_1" xmlns="http://www.w3.org/2000/svg" xmlns:xlink="http://www.w3.org/1999/xlink" x="0px" y="0px"
	 viewBox="0 0 31.5 31.1" style="enable-background:new 0 0 31.5 31.1;" xml:space="preserve">
<style type="text/css">
	.st0{fill:#4B0082;}
</style>
<path class="st0" d="M12.9,21.4l-3.8,3.2L9.6,31H8.2l-1.4-7.7l2.3-2L12.9,21.4z M31.5,8.8c0-0.6-0.2-1.1-0.6-1.5l-2.5-2.5
	c-0.5-0.5-1.2-0.8-1.9-0.8l-2.9-2.9C22.9,0.4,22,0,21,0h-2.8l2.5,1c0.6,0.2,1.1,0.6,1.5,1.2l1.3,1.8h-3l0.5,0.8
	c0.5,0.8,1.4,1.2,2.3,1.2h0.1l-3,5H7.2c-1.5,0-2.9,0.6-3.9,1.7v0L0,10.9v0.9c0,0.5,0.2,1,0.4,1.4l1.1,1.6l0.9,4.3l-1,1.5l1.4,10.4
	h1.4v-6.5l4.7-4l8.8,0.1v10.4H19l0.7-7.2l3-3c1.9-1.9,3.1-4.2,3.6-6.8l0.8-4.2h1.2l1.2,2.5h1V9.8C31.1,9.8,31.5,9.3,31.5,8.8z
	 M21.3,23.3l1.7,7.8h1.4l-1.5-9.2L21.3,23.3z"/>
</svg>
