<?xml version="1.0" encoding="utf-8"?>
<!-- Generator: Adobe Illustrator 24.2.0, SVG Export Plug-In . SVG Version: 6.00 Build 0)  -->
<svg version="1.1" id="Calque_1" xmlns="http://www.w3.org/2000/svg" xmlns:xlink="http://www.w3.org/1999/xlink" x="0px" y="0px"
	 viewBox="0 0 49.4 43.7" style="enable-background:new 0 0 49.4 43.7;" xml:space="preserve">
<style type="text/css">
	.st0{fill:#4B0082;}
</style>
<path class="st0" d="M49.4,12.4c0,1.3-1.1,2.4-2.4,2.4c-0.6,0-1.2-0.2-1.6-0.6l0,0L42,11.3c-0.3,0.2-0.7,0.3-1.1,0.3
	c-0.7,0-1.4-0.3-1.8-0.9c-0.9,1.2-1.4,2.6-1.5,4c0.9,2,1.4,4.2,1.5,6.5c0,1.2-0.4,2.4-1.2,3.4c-0.1,0.5-0.2,1-0.3,1.5l2.6,2.4
	c0.9,0.7,1.4,1.8,1.2,2.9c-0.1,1.7,0,3.3,0.1,5c-0.3,0.6-0.7,1.1-1.2,1.4C40.1,38,39.9,38,39.8,38c-0.5-0.1-1.1,0.6-1.2,1.1
	s-0.5,0.6-0.8,0.8L36.6,41l-0.7-3.1c0,0-0.2-0.8,1-1.2v-0.2c0.3-0.2,0.6-0.3,0.9-0.3c0.2,0,0.4,0,0.6,0c-0.1-0.4-0.1-0.8,0.1-1.1
	c1.2-1.7,0.2-1.5,0.3-3.4c-0.5-0.1-0.9-0.5-1-1l-1.6-0.5c-0.4,0.8-0.8,1.6-1.3,2.3c-0.3,0.6-0.6,1.3-0.6,1.3c0,1.4,0.1,2.7,0.4,4.1
	c0.4,0.6,0.4,1.4,0.2,2.1c-0.2,0.5-0.1,1,0.4,1.3c0,0,0,0,0.1,0c0.4,0.1,0.5,0.7,0.5,1l0.9,1.5h-3.2c0,0-0.8,0-1-1.3h-0.2
	c-0.1-0.3-0.1-0.7-0.1-1c0-0.7,0.5-0.8,0.4-1.2s-0.3-0.4-0.6-1c-0.2-0.4-0.1-0.8,0.1-1.1c0,0-0.8-4.7-0.9-5.5
	C31,31.8,30.9,31,31,30.2c0-0.7-0.2-1.4-0.3-2.1c-0.4-0.2-0.8-0.3-1.1-0.5c-0.3-0.1-0.7-0.2-1-0.3c-3.5-1.4-7.1-2.3-10.7-2.7
	c-0.3,0-0.6,0-0.9,0c-1,5.9-2.3,7.4-2.6,7.9s-0.5,1.3-0.5,1.3c0,1.4,0.3,2.7,0.6,4.1c0.4,0.6,0.5,1.4,0.3,2.1
	c-0.2,0.5,0,1.1,0.5,1.3c0.4,0.1,0.5,0.7,0.6,1l1,1.5h-3.1c0,0-0.8,0-1-1.3h-0.3c-0.1-0.3-0.2-0.7-0.1-1c0-0.7,0.4-0.8,0.4-1.2
	s-0.3-0.4-0.7-1c-0.2-0.3-0.2-0.8,0-1.1c0,0-1-4.7-1.2-5.5c0-0.2-0.1-0.4-0.2-0.5c-0.2,0.1-0.3,0.2-0.5,0.4
	c-0.3,0.6-0.7,1.3-0.7,1.3c-0.2,1.4-0.2,2.7,0,4.1c0.3,0.7,0.3,1.4,0,2.1c-0.3,0.4-0.2,0.9,0.2,1.2c0,0,0.1,0.1,0.1,0.1
	c0.4,0.1,0.4,0.7,0.5,1l0.8,1.5H8c0,0-0.8,0-0.9-1.3H6.9c-0.1-0.3-0.1-0.7,0-1c0.1-0.7,0.5-0.8,0.5-1.2s-0.3-0.4-0.5-1
	c-0.1-0.4-0.1-0.8,0.2-1.1c0,0-0.4-4.7-0.4-5.5s-1-1.8,0-2.5c2.2-1.2,1-6,1-6c-0.1-0.2-0.2-0.4-0.2-0.6c-0.5-1.3-0.7-2.7-0.5-4.1
	c-4,5.6-3.4,15.2-3.4,15.2l-1.1-1.3L2.7,27L2,33.1l-2-2c0-10.2,5-13.9,8.6-15.2c0.5-0.6,1.1-1.1,1.8-1.5c4-2.5,7.6-0.2,9.4,0
	c2.3,0,4.6-0.1,6.8-0.3c0,0,2-2,3.3-3c1.7-3.5,5.2-7.9,12.6-9.3c0.7-0.9,1.6-1.5,2.7-1.7l-0.9,2.6c0,0,1.2,0.1,1.9,1.8l3,7.1l0,0
	C49.3,11.7,49.4,12.1,49.4,12.4z"/>
</svg>
