<?xml version="1.0" encoding="utf-8"?>
<!-- Generator: Adobe Illustrator 24.2.0, SVG Export Plug-In . SVG Version: 6.00 Build 0)  -->
<svg version="1.1" id="Calque_1" xmlns="http://www.w3.org/2000/svg" xmlns:xlink="http://www.w3.org/1999/xlink" x="0px" y="0px"
	 viewBox="0 0 34.9 31.4" style="enable-background:new 0 0 34.9 31.4;" xml:space="preserve">
<style type="text/css">
	.st0{fill:#4B0082;}
</style>
<g>
	<path class="st0" d="M6.9,20.7c2-0.9,2.5-3.8,1.1-6.6s-4.1-4.3-6.1-3.4s-2.4,3.8-1.1,6.6S4.9,21.6,6.9,20.7z"/>
	<path class="st0" d="M21.3,15.8L7.4,29.7c1,1.7,3.4,1.7,4.8,1.7c1.8,0,2.6-0.5,5.2-0.5s3.5,0.5,5.2,0.5s5.2,0.1,5.2-3.5
		c0-1.9-1.7-3.5-3.5-7C23.6,19.1,22.6,17.4,21.3,15.8z"/>
	<path class="st0" d="M12.8,12.2c2.3-0.4,3.7-3.4,3.1-6.8s-3-5.8-5.3-5.4S6.9,3.5,7.5,6.8S10.5,12.6,12.8,12.2z"/>
	<path class="st0" d="M33,10.7c-2-0.9-4.7,0.7-6.1,3.4s-0.9,5.7,1.1,6.6s4.7-0.7,6.1-3.4S35,11.6,33,10.7z"/>
	<path class="st0" d="M26.9,2.2c-0.5-1.1-1.4-1.9-2.6-2.2C22-0.3,19.6,2,19,5.4c-0.3,1.5-0.1,3,0.4,4.4L26.9,2.2z"/>
	<path class="st0" d="M22.8,12.2l4.3-4.3l5.4-5.4c0.1-0.1,0.2-0.3,0.3-0.4c0.1-0.3,0.1-0.7,0-1c-0.1-0.2-0.2-0.3-0.3-0.4
		c-0.2-0.2-0.4-0.3-0.7-0.3c-0.1,0-0.2-0.1-0.2-0.1c-0.1,0-0.1,0-0.2,0c-0.3,0-0.6,0.1-0.8,0.3l-3.3,3.3l-7.2,7.2L17.3,14l-5.5,5.5
		l-1.2,1.2l-8.3,8.2C2.2,29,2.1,29.2,2,29.3c-0.1,0.3-0.1,0.7,0,1c0.1,0.2,0.2,0.3,0.3,0.4c0.5,0.5,1.4,0.5,1.9,0L7,28l13.2-13.2
		L22.8,12.2z"/>
</g>
</svg>
