<?xml version="1.0" encoding="utf-8"?>
<!-- Generator: Adobe Illustrator 24.2.0, SVG Export Plug-In . SVG Version: 6.00 Build 0)  -->
<svg version="1.1" id="Calque_1" xmlns="http://www.w3.org/2000/svg" xmlns:xlink="http://www.w3.org/1999/xlink" x="0px" y="0px"
	 viewBox="0 0 34.9 31.4" style="enable-background:new 0 0 34.9 31.4;" xml:space="preserve">
<style type="text/css">
	.st0{fill:#4B0082;}
</style>
<g>
	<path class="st0" d="M27.9,27.9c0,3.6-3.5,3.5-5.2,3.5s-2.6-0.5-5.2-0.5s-3.5,0.5-5.2,0.5s-5.2,0-5.2-3.5c0-1.8,1.7-3.5,3.5-7
		s3.3-7,7-7s5.2,3.5,7,7S27.9,26,27.9,27.9z M6.9,20.7c-2,0.9-4.7-0.7-6.1-3.5s-0.9-5.7,1.1-6.5s4.7,0.7,6.1,3.5S8.8,19.8,6.9,20.7
		L6.9,20.7z M28,20.7c-2-0.9-2.5-3.8-1.1-6.5s4.1-4.3,6.1-3.5s2.5,3.8,1.1,6.5S29.9,21.6,28,20.7L28,20.7z M12.7,12.2
		c-2.3,0.4-4.7-2-5.3-5.4S8.2,0.4,10.5,0s4.7,2,5.3,5.4C16.4,8.8,15.1,11.8,12.7,12.2z M22,12.2c-2.3-0.4-3.7-3.4-3.1-6.8
		s3-5.8,5.3-5.4s3.7,3.4,3.1,6.8S24.4,12.6,22,12.2L22,12.2z"/>
</g>
</svg>
