<?xml version="1.0" encoding="utf-8"?>
<!-- Generator: Adobe Illustrator 24.2.0, SVG Export Plug-In . SVG Version: 6.00 Build 0)  -->
<svg version="1.1" id="Calque_1" xmlns="http://www.w3.org/2000/svg" xmlns:xlink="http://www.w3.org/1999/xlink" x="0px" y="0px"
	 viewBox="0 0 40.6 26.6" style="enable-background:new 0 0 40.6 26.6;" xml:space="preserve">
<style type="text/css">
	.st0{fill:#4B0082;}
</style>
<path class="st0" d="M37,14.7c-0.2-0.2-0.3-0.5-0.2-0.8c0.6-1,0.2-2.3-0.9-2.9c-0.2-0.1-0.3-0.1-0.5-0.2c-1-0.3-2,0.3-2.2,1.3
	c0,0,0,0.1,0,0.1c0,0.2,0,0.4-0.1,0.6c-1.8,0-6.2-3.6-13-2.2c-5.5,1.1-8.2,4.7-8.2,10c-0.4,1.1-1.4,1.8-2.5,1.9
	c-3.2,0.8-6.5-1-7.5-4.2c-0.8-2.6,0.4-6.4,2-8.6c2.9-4.2,5.3-6,9.1-9.1c0.7-0.6,0.8-0.8,0.1-0.5C9.6,2.2,5,5.6,2.7,8.8
	s-3.5,7.3-2.1,11c1.4,3.5,6.5,5.5,10.1,3.9c0.8-0.5,1.6-0.7,2.5-0.8c1.2,0.9,2.6,0.5,4.2,1.2c0.8,0.1,1.4,0.6,1.8,1.2
	c0.2,0.3,0.5,0.5,0.9,0.6c0.3,0.1,0.5,0.1,0.6,0.3c0,0.1,0,0.1,0.1,0.2c0.1-0.3,0.1-0.3-0.1-0.5s-0.3-0.2-0.3-0.3
	c0.1,0.1,0.3,0.1,0.4,0.2c0.2,0.1,0.3,0.2,0.6,0.1c0.1-0.1,0.3,0.1,0.4,0.3c0-0.3-0.1-0.5-0.2-0.5c-0.1-0.1-0.3-0.3-0.3-0.5
	c0.3,0.2,0.7,0.4,1,0.5c0.3,0,0.4-0.1,0.6,0.3c0-0.3-0.1-0.6-0.4-0.7c0.1-0.2-0.7-1.1-2-1.6c2.8,0.1,5.7,0.1,8.5-0.2
	c0.1,0,0.1,0,0.2,0.1c0.4,0.4,0.9,0.8,1.5,0.9c0.6,0.2,1.4,0.2,1.7,0.8c0.1,0.2,0.2,0.1,0.5,0.1c0-0.1,0-0.1-0.1-0.2
	c0.2-0.3-0.4-0.5-0.5-0.7c0.4,0.1,0.8,0.3,1.1,0.6c0.1,0.1,0.1,0.1,0.2,0.1c0-0.1,0.1,0.2,0.2,0.2c-0.1-0.1,0-0.2-0.1-0.3
	c-0.1-0.2-0.3-0.4-0.5-0.6l0.5,0.3c0,0.1,0.2,0.1,0.2,0.2H34c0,0.1,0.1,0.2,0.1,0.3c0.1-0.2,0.2-0.4,0.1-0.6
	c-0.2-0.3-0.4-0.5-0.7-0.6c0.2-0.1,0.2,0,0.4,0.2c0.1-0.1,0.1-0.4,0-0.5c0,0-0.1-0.1-0.1-0.1c-0.1,0-0.7-0.2-0.6-0.3
	c0.6-0.1,1.2-0.1,1.8-0.1c1.1,0,2,0.8,3.1,1.1c0.6,0.2,1.3,0.1,1.7-0.4c0.3,0.2,0.7,0.1,0.8-0.2c0.1-0.1,0.1-0.2,0.1-0.3
	C40.8,21.2,38.8,16.5,37,14.7z"/>
</svg>
