<svg xmlns="http://www.w3.org/2000/svg" width="44.857" height="34.263" viewBox="0 0 44.857 34.263"><g transform="translate(-25.204 -1194.715)"><path d="M68,1204.808l-13.805,2.063a1.785,1.785,0,0,0-1.528,1.782v12.939a5.212,5.212,0,0,0-2.6-.153c-2.445.484-4.1,2.522-3.693,4.585s2.7,3.336,5.145,2.852a4.327,4.327,0,0,0,3.744-3.922v-12.939l12.2-1.833v8.812a5.213,5.213,0,0,0-2.6-.153c-2.445.484-4.1,2.522-3.693,4.585s2.7,3.336,5.145,2.852a4.328,4.328,0,0,0,3.744-3.922V1206.59A1.79,1.79,0,0,0,68,1204.808Z" fill="#fff"/><path d="M49.45,1217.531a8.657,8.657,0,0,0-.506-1.272,35.9,35.9,0,0,0-2.116-3.732,31.8,31.8,0,0,0-2.985-4.018.4.4,0,0,0-.322-.128.413.413,0,0,0-.293.171.77.77,0,0,1-.121.133l-.129.082a1,1,0,0,1-.221.061.4.4,0,0,0-.293.187.408.408,0,0,0-.03.343,31.685,31.685,0,0,0,2.417,4.421,34.818,34.818,0,0,0,2.508,3.49,7.962,7.962,0,0,0,.941.976c.164.141.594.514.971.272S49.506,1217.742,49.45,1217.531Z" fill="#fff"/><path d="M42.788,1206.151a3.7,3.7,0,0,0-.649-1.5,6.1,6.1,0,0,0-2.307-1.868c-.151-.075-.64-.308-.734-.247a5.358,5.358,0,0,0,.152.783c.208,1.213-.385,2.749.447,3.787a2.448,2.448,0,0,0,1.059.757,1.565,1.565,0,0,0,1.308-.034l.129-.072a.949.949,0,0,0,.084-.055A1.527,1.527,0,0,0,42.788,1206.151Z" fill="#fff"/><path d="M37.956,1208.613a4.314,4.314,0,0,1-.136-2.211,7.452,7.452,0,0,1-.044-1.772,4.915,4.915,0,0,0,0-1.05l0-.046c-.177-.746-.392-1.674.54-2.262a1.654,1.654,0,0,1,.768-.238,2.713,2.713,0,0,1,1.448.444,8.831,8.831,0,0,1,1.475.952c1.389-.384,5.275-1.579,4.535-3.844-1.143-3.511-7.55-3.985-10.505-3.851-6.246.283-11.09,5.3-10.823,11.193S30.755,1216.38,37,1216.1c1.317-.06,3.457-.187,3.839-1.764.485-2-2.248-3.935-2.844-5.62A.454.454,0,0,1,37.956,1208.613Zm1.589-12.508a2.23,2.23,0,1,1-2.127,2.329h0A2.231,2.231,0,0,1,39.545,1196.1Zm-6.97,1.962a1.823,1.823,0,1,1-1.733,1.908v-.005A1.823,1.823,0,0,1,32.575,1198.067Zm-2.937,4.022a1.822,1.822,0,1,1-1.738,1.9h0a1.818,1.818,0,0,1,1.728-1.9Zm.391,8.616a1.823,1.823,0,1,1,1.733-1.909v.011A1.817,1.817,0,0,1,30.029,1210.7Zm3.782,3.054a1.822,1.822,0,1,1,1.739-1.9v.005A1.823,1.823,0,0,1,33.811,1213.759Z" fill="#fff"/></g></svg>