<svg xmlns="http://www.w3.org/2000/svg" width="40.194" height="36.803" viewBox="0 0 40.194 36.803"><g transform="translate(-26.268 -1415.867)"><rect width="6.372" height="16.284" transform="translate(47.346 1436.385)" fill="#fff"/><rect width="3.187" height="16.284" transform="translate(33.866 1436.385)" fill="#fff"/><path d="M59.713,1415.878l.008-.011H33.01l.005.011a6.951,6.951,0,0,0-.42,13.871c1.327,0,4.305-.364,4.423-3.419a3.465,3.465,0,0,0-3.326-3.591l.074-1.959a5.422,5.422,0,0,1,5.211,5.625c-.11,2.875-2.064,4.808-5.111,5.221v2.8h25v-2.764a6.79,6.79,0,0,1-3.1-1.1,5.06,5.06,0,0,1-2.2-4.139,5.422,5.422,0,0,1,5.211-5.624l.075,1.959a3.463,3.463,0,0,0-3.326,3.591,3.135,3.135,0,0,0,1.353,2.6,5.437,5.437,0,0,0,3,.813,6.948,6.948,0,0,0-.167-13.884Z" fill="#fff"/><rect width="3.187" height="16.284" transform="translate(55.679 1436.385)" fill="#fff"/><rect width="6.372" height="16.284" transform="translate(39.013 1436.385)" fill="#fff"/></g></svg>