<svg xmlns="http://www.w3.org/2000/svg" width="32.028" height="32.247" viewBox="0 0 32.028 32.247"><path d="M144,1327.556a.715.715,0,0,0-.763-.662c-6.69.391-13.8,5.249-17.293,11.693a21.66,21.66,0,0,0-12.842-5.9.688.688,0,0,0-.763.662c-.768,9.167.913,16.668,4.737,21.12a12.789,12.789,0,0,0,9.148,4.5.445.445,0,0,0,.051,0,22.835,22.835,0,0,0,2.947.144c-2.01-7.69-10.029-17.39-13.478-20.721a.723.723,0,1,1,1-1.042c3.54,3.423,11.769,13.393,13.871,21.386h0c.414.02,2.154-4.194,2.188-4.59a15.622,15.622,0,0,0,.043-1.718C140.98,1350.366,145.142,1341.132,144,1327.556Zm-13.894,16.062a70.789,70.789,0,0,1,9.535-12.119.725.725,0,0,1,1.006,1.044,68.831,68.831,0,0,0-9.731,12.538C130.671,1344.588,130.4,1344.1,130.109,1343.618Z" transform="translate(-112.16 -1326.891)" fill="#fff"/></svg>