<svg xmlns="http://www.w3.org/2000/svg" width="36.015" height="37.874" viewBox="0 0 36.015 37.874"><g transform="translate(-25.485 -1254.967)"><path d="M45.125,1262.182a3.147,3.147,0,0,1,5.39-1.916c-.12-3.233,4.91-3.353,4.91.12,2.275-2.156,5.509,1.8,3.832,2.874,2.4.719,3.114,2.874.958,4.072,1.437,1.2-.12,3.593-2.036,2.994a2.21,2.21,0,0,1-3.353,1.437,4.045,4.045,0,0,1-2.036.719c-.479,6.347-8.144,9.94-7.425,14.85.12,1.2,0,3.114.958,3.593.838.479,2.635,1.2,2.635,1.2l-4.192-.479.24,1.2c-.839-.239-2.755-1.078-3.354-1.317l-4.191.119a6.414,6.414,0,0,0,2.754-1.437,19.443,19.443,0,0,1,2.036-5.269c1.2-3.353.838-4.551-1.437-7.306h-.359a1.131,1.131,0,0,1-1.917.6c-.479.958-2.275.359-2.155-.718a1.5,1.5,0,0,1-1.437-2.4c-1.2.12-1.677-2.994.239-2.874-1.557-1.557.479-3.353,1.916-1.8a1.593,1.593,0,0,1,2.875-1.078c1.077-1.2,3.233.239,2.994,1.8,1.557-.119.958,1.677.239,2.4.6.6,0,1.8-.838,2.035.359.48-.12,1.2-.719,1.677a8.428,8.428,0,0,1,2.515,4.91,16.091,16.091,0,0,0,3.713-10.658c-.958-.12-1.916-.719-1.916-1.677-1.8,0-4.911-1.317-2.755-2.755A2.716,2.716,0,0,1,45.125,1262.182Zm6.707,10.3a2.469,2.469,0,0,1-2.275-1.078,1.52,1.52,0,0,1-.719.12c.12,2.754-.12,5.748-.838,6.467C50.515,1276.194,51.592,1274.757,51.832,1272.482Z" fill="#fff"/><path d="M29.077,1257.631c.839-1.916,2.875-1.2,3.713.6l-.958-.12c-.24-.958-2.276-1.676-2.276.719l-.359.6-.359-.6c0-1.078-1.8-2.515-2.395,0l-.958.12C26.2,1257.272,27.4,1255.356,29.077,1257.631Z" fill="#fff"/><path d="M35.425,1255.835c.718-1.437,2.275-.958,2.874.479H37.58c-.239-.719-1.676-1.317-1.676.479l-.36.479-.239-.479c0-.838-1.437-1.916-1.916,0l-.719.12C33.149,1255.595,34.227,1254.158,35.425,1255.835Z" fill="#fff"/><path d="M33.509,1259.787c.6-1.317,2.035-.838,2.515.359l-.6-.119c-.12-.6-1.557-1.078-1.557.479l-.24.479-.239-.479c0-.719-1.2-1.677-1.677,0l-.6.119C31.592,1259.547,32.431,1258.23,33.509,1259.787Z" fill="#fff"/></g></svg>