<svg xmlns="http://www.w3.org/2000/svg" width="19.617" height="19.617" viewBox="0 0 19.617 19.617"><g transform="translate(-26.292 -1129.334)"><path d="M33.793,1148.013h0a3.744,3.744,0,0,1-1.253-.224,51.682,51.682,0,0,0-5.545,4.852c-.742.962-.964,1.9-.336,2.529s1.567.4,2.529-.337c1.184-.911,3.5-3.974,6.056-6.982l-.081-.091A4.08,4.08,0,0,1,33.793,1148.013Z" transform="translate(0 -6.584)" fill="#fff"/><g transform="translate(26.292 1129.334)"><path d="M42.564,1137.167l1.224,1.226a.417.417,0,0,1,.109.031,2.78,2.78,0,0,0,3.167-.6l4.4-4.579a.542.542,0,0,0,.033-.727.532.532,0,0,0-.75-.064l-.031.029-3.988,3.988a.549.549,0,0,1-.728.058.528.528,0,0,1-.077-.743.535.535,0,0,1,.037-.04l3.988-3.988a.549.549,0,0,0,.058-.728.529.529,0,0,0-.744-.077.441.441,0,0,0-.04.036l-3.988,3.988a.549.549,0,0,1-.728.058.529.529,0,0,1-.077-.744c.012-.014.024-.028.037-.04l4-4a.54.54,0,0,0,.046-.726.533.533,0,0,0-.75-.076l-.03.026-4.6,4.414a2.779,2.779,0,0,0-.6,3.166A.433.433,0,0,1,42.564,1137.167Z" transform="translate(-32.005 -1129.334)" fill="#fff"/><path d="M45.524,1147.087l-17.306-17.333c-.778-.778-1.9-.475-1.925.916-.032,1.964.8,4.526,3.518,7.427a8.649,8.649,0,0,0,2.506,2.062,2.982,2.982,0,0,0,2.67.154.661.661,0,0,1,.783.235c4.263,4.83,6.23,6.721,7.937,7.958S46.535,1148.1,45.524,1147.087Z" transform="translate(-26.292 -1129.334)" fill="#fff"/></g></g></svg>