<svg xmlns="http://www.w3.org/2000/svg" width="48" height="26.016" viewBox="0 0 48 26.016"><g transform="translate(-111.568 -1201.269)"><path d="M148.629,1222.077v-5.418l-10.453,4.031a8.077,8.077,0,0,1-5.215,0l-10.453-4.03v5.418s3.341,4.86,13.06,4.86S148.629,1222.077,148.629,1222.077Z" fill="#fff"/><path d="M158.763,1209.771l-21.243-8.191a6.278,6.278,0,0,0-3.9,0l-21.243,8.191c-1.073.414-1.073,1.091,0,1.505l21.243,8.191a6.292,6.292,0,0,0,3.9,0l15.133-5.836v4.94a2.572,2.572,0,0,0-1.367,2.465c-.076,2.733.228,4.4-1.215,5.694a2.022,2.022,0,0,0,1.8.532l.779-2.582a11.292,11.292,0,0,1,.379,2.6s1.9.055,2.354-.629c0,0,1.284-6.137-.684-7.9v-5.918l4.061-1.565C159.837,1210.862,159.837,1210.185,158.763,1209.771Z" fill="#fff"/></g></svg>