<svg xmlns="http://www.w3.org/2000/svg" width="40.482" height="26.124" viewBox="0 0 40.482 26.124"><g transform="translate(-112.182 -1264.44)"><path d="M119.1,1285.56a12.956,12.956,0,0,0-2.657,1.036,8.924,8.924,0,0,0-1.8,1.219,10.643,10.643,0,0,0,3.451,1.933,16.179,16.179,0,0,0,10.146,0,11.024,11.024,0,0,0,2.336-1.105,15.774,15.774,0,0,1-4.337-.241,21.186,21.186,0,0,1-6.615-2.519C119.441,1285.779,119.269,1285.675,119.1,1285.56Zm26.113.323a21.123,21.123,0,0,1-6.6,2.519,15.792,15.792,0,0,1-4.337.241,11.217,11.217,0,0,0,2.324,1.105,16.216,16.216,0,0,0,10.158,0,10.643,10.643,0,0,0,3.451-1.933,8.73,8.73,0,0,0-1.806-1.219,12.864,12.864,0,0,0-2.646-1.036C145.577,1285.675,145.393,1285.779,145.209,1285.883Zm-2.669-6.143a21.144,21.144,0,0,1-4.474,5.5,16.4,16.4,0,0,1-3.728,2.416,15.314,15.314,0,0,0,4.084-.23,21.375,21.375,0,0,0,11.527-6.649,14,14,0,0,0,2.715-4.648,12.87,12.87,0,0,0-4.1-.161,17.9,17.9,0,0,0-4.762,1.208A22.1,22.1,0,0,1,142.54,1279.74Zm-5.395-3.969a20.772,20.772,0,0,1-1.127,6.983,15.357,15.357,0,0,1-2.025,3.957,14.544,14.544,0,0,0,3.428-2.232,19.908,19.908,0,0,0,4.257-5.234,21.116,21.116,0,0,0,2.427-6.442,12.92,12.92,0,0,0,0-5.234,12.973,12.973,0,0,0-3.589,1.886,17.862,17.862,0,0,0-3.543,3.44A22.612,22.612,0,0,1,137.145,1275.771Zm-8.455,0a19.812,19.812,0,0,0,1.07,6.66,13.824,13.824,0,0,0,2.657,4.671,13.984,13.984,0,0,0,2.669-4.671,21.265,21.265,0,0,0,0-13.321,13.75,13.75,0,0,0-2.669-4.67,13.6,13.6,0,0,0-2.657,4.67A19.818,19.818,0,0,0,128.69,1275.771Zm-7.949-2.968a21.089,21.089,0,0,0,2.4,6.419l.023.023a19.908,19.908,0,0,0,4.257,5.234,14.749,14.749,0,0,0,3.416,2.232,15.745,15.745,0,0,1-2.024-3.957,21.05,21.05,0,0,1-1.128-6.983,24.827,24.827,0,0,1,.173-2.876,17.6,17.6,0,0,0-3.543-3.44,12.678,12.678,0,0,0-3.589-1.886A12.942,12.942,0,0,0,120.741,1272.8Zm-5.844,7.972a21.27,21.27,0,0,0,11.527,6.649,15.314,15.314,0,0,0,4.084.23,16.686,16.686,0,0,1-3.739-2.416,21.223,21.223,0,0,1-4.463-5.487l-.012-.034a20.874,20.874,0,0,1-1.254-2.543,18.018,18.018,0,0,0-4.762-1.208,13.159,13.159,0,0,0-4.1.161A14,14,0,0,0,114.9,1280.775Z" fill="#fff"/></g></svg>