<svg xmlns="http://www.w3.org/2000/svg" width="55" height="55" viewBox="0 0 55 55">
    <g transform="translate(12 13)">
        <path d="M20.439,28h-.323a9.934,9.934,0,0,1-1.828-.2,14.86,14.86,0,0,0-5.627,0,9.934,9.934,0,0,1-1.829.2,7.97,7.97,0,0,1-2.9-.39,2.683,2.683,0,0,1-1.741-2.728c0-.974.6-1.95,1.432-3.3.507-.824,1.081-1.757,1.663-2.916l.254-.508c1.465-2.938,2.85-5.714,5.935-5.714,3.067,0,4.448,2.753,5.911,5.668q.139.277.279.554c.575,1.135,1.143,2.044,1.645,2.846.842,1.346,1.45,2.318,1.45,3.37C24.758,28,21.841,28,20.439,28ZM25.9,18.666a2.581,2.581,0,0,1-1.042-.212,2.64,2.64,0,0,1-1.412-1.584,5.592,5.592,0,0,1,.459-4.255c.977-1.963,2.724-3.282,4.345-3.282a2.577,2.577,0,0,1,1.04.212,2.643,2.643,0,0,1,1.414,1.586,5.591,5.591,0,0,1-.459,4.254C29.272,17.347,27.526,18.666,25.9,18.666Zm-20.861,0c-1.622,0-3.368-1.319-4.344-3.282A5.593,5.593,0,0,1,.24,11.13,2.642,2.642,0,0,1,1.652,9.545a2.586,2.586,0,0,1,1.042-.212c1.622,0,3.368,1.319,4.345,3.282A5.59,5.59,0,0,1,7.5,16.87a2.641,2.641,0,0,1-1.413,1.585A2.584,2.584,0,0,1,5.043,18.666Zm14.991-7.778a2.676,2.676,0,0,1-.446-.038,2.99,2.99,0,0,1-1.945-1.312,6.406,6.406,0,0,1-.8-4.728C17.346,2.069,19.188,0,21.127,0a2.677,2.677,0,0,1,.446.038,2.986,2.986,0,0,1,1.944,1.31,6.406,6.406,0,0,1,.8,4.73C23.814,8.82,21.971,10.889,20.033,10.889Zm-9.119,0c-1.938,0-3.781-2.068-4.285-4.811a6.4,6.4,0,0,1,.8-4.729A2.988,2.988,0,0,1,9.374.038,2.677,2.677,0,0,1,9.821,0c1.938,0,3.781,2.068,4.285,4.811a6.406,6.406,0,0,1-.8,4.728,2.99,2.99,0,0,1-1.945,1.312A2.678,2.678,0,0,1,10.914,10.889Z" fill="#fff" />
    </g>
</svg>