<svg xmlns="http://www.w3.org/2000/svg" width="37.191" height="36.803" viewBox="0 0 37.191 36.803"><path d="M51.367,1325.061H41.256v9.523H51.367v-9.523Zm-7.51,6.479a1.669,1.669,0,1,1,1.669-1.669A1.669,1.669,0,0,1,43.857,1331.54Zm4.909,0a1.669,1.669,0,1,1,1.669-1.669A1.668,1.668,0,0,1,48.766,1331.54Zm14.042,14.531a8.9,8.9,0,0,0-3.24-6.822,9.051,9.051,0,0,0-4.239-1.827v-1.163H37.295v1.163a9.031,9.031,0,0,0-4.239,1.828,8.884,8.884,0,0,0-3.239,6.82,3.123,3.123,0,0,0,1.028,6.074v-1.39a1.741,1.741,0,1,1,1.74-1.741h1.39a3.118,3.118,0,0,0-2.186-2.968,6.848,6.848,0,0,1,2.49-5.252,7.116,7.116,0,0,1,3.017-1.374V1350.3H38.9v7.151a4.686,4.686,0,0,0-3.126,4.416h9.377a4.687,4.687,0,0,0-3.125-4.416V1350.3H50.6v7.151a4.687,4.687,0,0,0-3.126,4.415h9.378a4.687,4.687,0,0,0-3.126-4.415V1350.3H55.33V1339.42a7.1,7.1,0,0,1,3.015,1.372,6.845,6.845,0,0,1,2.491,5.252,3.123,3.123,0,0,0-2.189,2.969h1.391a1.741,1.741,0,1,1,1.741,1.74v1.39a3.122,3.122,0,0,0,1.029-6.072Zm-17.841-.42H43.174v-1.793h1.793Zm0-2.186H43.174v-1.792h1.793Zm2.241,2.186H45.416v-1.793h1.792Zm0-2.186H45.416v-1.792h1.792Zm2.241,2.186H47.655v-1.793h1.794Zm0-2.186H47.655v-1.792h1.794Zm5.788-14.94a2.546,2.546,0,0,0-2.546-2.546v5.094A2.547,2.547,0,0,0,55.237,1328.525Zm-15.305,2.548v-5.094a2.547,2.547,0,0,0,0,5.094Z" transform="translate(-27.717 -1325.061)" fill="#fff"/></svg>