<svg xmlns="http://www.w3.org/2000/svg" width="22.443" height="41.513" viewBox="0 0 22.443 41.513"><g transform="translate(-112.831 -1121.088)"><path d="M122.19,1161.871a23.086,23.086,0,0,0,4.772-8.218,21.968,21.968,0,0,0,.822-3.468,37.7,37.7,0,0,1,3.165,10.542,2.176,2.176,0,0,0,2.147,1.84,2.154,2.154,0,0,0,.338-.026,2.176,2.176,0,0,0,1.814-2.486,39.288,39.288,0,0,0-5.032-14.5,1.739,1.739,0,0,1-.508-.25,12.517,12.517,0,0,1-4.1-4.644,10.1,10.1,0,0,1-1.042-4.5,10.265,10.265,0,0,1,.793-4l0,0,.008-.017a1.741,1.741,0,0,1,3.152,1.478c-.012.028-.028.068-.05.124-.04.106-.1.283-.167.518a7.256,7.256,0,0,0-.256,1.905,6.714,6.714,0,0,0,.686,2.968l.034.066c.21-1.814.608-3.577.883-4.985.5-1.733-.153-3.806-1.639-4.177a3.348,3.348,0,0,0-2.11.212l.022-.086s-4.149-8.8-10.009-3.235c-2.785,2.647-.274,5.354.538,5.354s-5.57,2.205-3.017,8.355,7.759,5.381,8.455,3.873a19.168,19.168,0,0,0,.615-1.83v.007a4,4,0,0,0,.995,2.1,12.593,12.593,0,0,1,.174,2.212,17.241,17.241,0,0,1-.853,5.31,18.729,18.729,0,0,1-3.886,6.674,2.176,2.176,0,0,0,3.252,2.891Zm-3.647-31.761a1.463,1.463,0,1,1,1.463,1.463A1.463,1.463,0,0,1,118.543,1130.11Zm-1.625-.711a2.518,2.518,0,0,1,4.82-1.02l-.232.235a2.121,2.121,0,1,0-2.937,2.969l-.127.129A2.518,2.518,0,0,1,116.918,1129.4Z" fill="#fff"/><circle cx="3.916" cy="3.916" r="3.916" transform="translate(124.742 1121.088)" fill="#fff"/><path d="M127.7,1136.16a7.647,7.647,0,0,1,.269-2c.067-.243.132-.431.178-.551.023-.06.041-.1.051-.128l.008-.018a1.392,1.392,0,0,0-2.521-1.183h0a9.709,9.709,0,0,0-.77,3.877,9.813,9.813,0,0,0,1.006,4.347,12.189,12.189,0,0,0,3.988,4.514,1.393,1.393,0,0,0,1.619-2.267,9.391,9.391,0,0,1-3.106-3.473A7.022,7.022,0,0,1,127.7,1136.16Z" fill="#fff"/></g></svg>