<svg xmlns="http://www.w3.org/2000/svg" width="20.187" height="41.958" viewBox="0 0 20.187 41.958"><path d="M110.838,701.153l-4.684-7.8v-1.88h-.877c-.264-.811-1.417-4.375-1.753-5.868h.346v-1.845h-.805c-.187-1.826-1.488-14.686-1.45-18.641a5.316,5.316,0,0,1,.426-.581l.046-.046.017-.062a2.263,2.263,0,0,0-1.162-2.59l-.2-2.643-.2,2.643a2.265,2.265,0,0,0-1.162,2.59l.018.061.043.045a5.449,5.449,0,0,1,.428.583c.039,3.954-1.263,16.815-1.45,18.641h-.805V685.6h.346c-.336,1.494-1.489,5.058-1.753,5.868h-.877v1.88l-4.683,7.8h4.735v-.241a5.358,5.358,0,0,1,10.717,0v.241Zm-11.469-9.72c.127-.861.515-3.5.653-4.493h1.444c.138.992.526,3.632.654,4.493Z" transform="translate(-90.651 -659.195)" fill="#fff"/></svg>