<svg xmlns="http://www.w3.org/2000/svg" width="55" height="55" viewBox="0 0 55 55"><path d="M27.5,0A27.5,27.5,0,1,1,0,27.5,27.5,27.5,0,0,1,27.5,0Z" fill="indigo"/><g transform="translate(-745.5 -152.5)"><path d="M772.033,190.921l-.154-2.852a6.248,6.248,0,0,0-.308-1.7l-.887-2.7h1.157l3.391,4.355,1.234-1.156-.27-3.122-1.889-2.428a2.755,2.755,0,0,0-2.274-1.079h-2.389l-.154-1.195a14.653,14.653,0,0,0,5.781-9.1l.231-.231a1.4,1.4,0,0,0,.116-1.773c.5-2.814.886-5.011.886-5.011a.716.716,0,0,0-.616-.848.734.734,0,0,0-.848.617s-.386,2.081-.848,4.779a1.118,1.118,0,0,0-.578.347l-2.814,2.814a1.9,1.9,0,0,1-.925.539c-.964.27-2.814.81-4.278,1.08a7,7,0,0,0-5.319,5.28c-.347,1.811-.54,4.124-.54,4.2a1.205,1.205,0,0,0,.155.732c-1.773,1.5-1.581,4.741-1.388,7.863a30.369,30.369,0,0,1,.039,4.162.739.739,0,0,0,.655.81h.077a.718.718,0,0,0,.732-.656,28.09,28.09,0,0,0-.077-4.393c-.193-3.045-.385-6.206,1.349-6.938.231-.077.463-.193.732-.308q.926-.347,2.2-.925a2.836,2.836,0,0,0,2.583,1.619h.154l1.233,3.738a4.5,4.5,0,0,1,.154.771l.27,5.4a1.689,1.689,0,0,0,1.388,1.58l1.387-3.507C771.609,191.422,771.8,191.152,772.033,190.921Zm-9.52-9.674c.078-.81.232-2.12.424-3.2a3.674,3.674,0,0,1,.617-1.388l.385,3.932A11.826,11.826,0,0,1,762.513,181.247Zm6.4-6.976c.656-.154,1.272-.347,1.7-.463a4.767,4.767,0,0,0,2.082-1.233l.346-.347a13.354,13.354,0,0,1-3.777,5.088Z" fill="#fff"/><circle cx="3.314" cy="3.314" r="3.314" transform="translate(762.387 164.908)" fill="#fff"/><path d="M786.294,162.207h-3.931a.791.791,0,0,0-.733.5l-2.312,6.976a.485.485,0,0,0-.039.232v5.935a.674.674,0,0,0,.154.462l1.426,1.812a.811.811,0,0,1,0,.925l-3.006,3.816a.69.69,0,0,0-.154.539l.27,3.7a.877.877,0,0,1-.231.617l-4.626,4.24a1.15,1.15,0,0,0-.192.269l-2.12,5.435a.753.753,0,0,0,.694,1.04h14.838a.773.773,0,0,0,.771-.77v-35A.831.831,0,0,0,786.294,162.207Z" fill="#fff"/></g></svg>