<svg xmlns="http://www.w3.org/2000/svg" width="55" height="55" viewBox="0 0 55 55"><path d="M27.5,0A27.5,27.5,0,1,1,0,27.5,27.5,27.5,0,0,1,27.5,0Z" fill="indigo"/><g transform="translate(-751.5 -85.457)"><path d="M791.4,113.734a7.25,7.25,0,0,1,1.621-.2,6.646,6.646,0,0,1,5.5,2.887l1.74-2.689a8.787,8.787,0,0,0-6.645-2.966,9.667,9.667,0,0,0-3.164.553,7.18,7.18,0,0,0-4.509-1.74s-.672,0-1.463.041c-.633.078-1.344.157-1.778.2a.468.468,0,0,1-.277-.83c1.145-.91,2.847-2.293,2.847-4a2.24,2.24,0,0,0-1.739-2.175l-5.694-1.305-8.346,6.05-3.519-1.778-.83-2.414-.83,2.334a3.334,3.334,0,0,0-1.027.434l-4.549,3.955a1.423,1.423,0,0,0-.357.868,1.318,1.318,0,0,0,1.306,1.306,1.274,1.274,0,0,0,.83-.317l2.966-.989a2.677,2.677,0,0,0,1.621.476h.317a25.272,25.272,0,0,1,4.192,7.2l-5.1,3.361a1.131,1.131,0,0,0,.079,1.938c.04,0,1.858.829,1.858.829l-3.044,3.045L761.746,129l2.57,1.028,4.508-4.509c.95.158,1.9.318,2.889.514l2.016,1.028-.514-2.373-2.373-1.186,2.373-2.374h1.7a13.8,13.8,0,0,0,8.857-2.926h1.9a12.386,12.386,0,0,0,4.271,2.967L792,128.563l-.316,1.463h2.688l-1.5-7.394a13.757,13.757,0,0,1,5.023,5.179l.909,1.662,1.464-1.939c-3.085-3.677-3.165-3.834-4.984-8.264A6.506,6.506,0,0,1,791.4,113.734ZM777.88,110.57a.4.4,0,0,1-.277.158l-3.6.672c-.159.04,0,.04-.159.04a.751.751,0,0,1-.592-.317l-2.214-2.373,5.339-2.412a9.272,9.272,0,0,0,3.44.751Z" transform="translate(0 -0.505)" fill="#fff"/><path d="M777.1,102.288a2.485,2.485,0,0,0,2.254-1.463l-4.745-.91A2.483,2.483,0,0,0,777.1,102.288Z" transform="translate(-1.791 -0.329)" fill="#fff"/><path d="M776.831,96.936a2.439,2.439,0,0,0-2.333,1.621l-2.253-.434-.079.475,7.119,1.3A2.532,2.532,0,0,0,776.831,96.936Z" transform="translate(-1.521 0)" fill="#fff"/></g></svg>