<svg xmlns="http://www.w3.org/2000/svg" width="55" height="55" viewBox="0 0 55 55"><path d="M27.5,0A27.5,27.5,0,1,1,0,27.5,27.5,27.5,0,0,1,27.5,0Z" fill="indigo"/><g transform="translate(-17.5 -1016.5)"><path d="M26.708,1030.072a28.139,28.139,0,0,1,8.74.036.5.5,0,0,0,.559-.347l.473-1.493a.5.5,0,0,0-.331-.631.657.657,0,0,0-.076-.017,18.064,18.064,0,0,0-2.1-.189,11.814,11.814,0,0,0-7.538,1.956.379.379,0,0,0,.277.685Z" fill="#fff"/><path d="M48.445,1036.261a11.806,11.806,0,0,0-5.085-5.9,18.11,18.11,0,0,0-1.984-1.114.364.364,0,0,0-.487.169.294.294,0,0,0-.02.049l-.552,1.767a.36.36,0,0,0,.195.438,28.26,28.26,0,0,1,7.318,4.989.379.379,0,0,0,.615-.4Z" fill="#fff"/><path d="M40.5,1055.569a3.509,3.509,0,0,1,.32,1.407c.015.62.029,1.439.019,1.958-.008.452-.024.906-.04,1.359-.061,1.7.639,1.923,1.177,2h0a.367.367,0,0,0,.413-.315.281.281,0,0,0,0-.041c.025-1.091.109-1.991.114-2.038a.573.573,0,1,1,1.141.108c0,.011-.08.891-.108,1.94a.375.375,0,0,0,.366.384h1.237a.375.375,0,0,0,.373-.377v-.005a13.447,13.447,0,0,1,.179-2.285.573.573,0,0,1,1.129.2,12.445,12.445,0,0,0-.16,2.094.375.375,0,0,0,.373.371H47.9a1.971,1.971,0,0,0,1.9-1.417,5.941,5.941,0,0,0,.165-.8c-.064-2.6,1.04-3.768,1.595-4.186a.589.589,0,0,1,.8.07.574.574,0,0,1-.06.809l-.032.026a2.736,2.736,0,0,0-.913,1.392.22.22,0,0,0,.143.276.23.23,0,0,0,.046.009h0c.124.012.239.024.334.03a4.133,4.133,0,0,0,1.1-.088,5.47,5.47,0,0,0,2.123-1.031,6.6,6.6,0,0,0,2.581-4,9.133,9.133,0,0,0-.463-5.16,7.879,7.879,0,0,0-1.615-2.533.328.328,0,0,0-.462-.014,2.383,2.383,0,0,1-1.155.6h0a2.746,2.746,0,0,1-3.235-2.148,2.8,2.8,0,0,1-.053-.626h0a.328.328,0,0,0-.3-.334,8.525,8.525,0,0,0-1.132-.036,10.4,10.4,0,0,0-6.218,2.31A8.864,8.864,0,0,0,40.5,1055.569Zm12.15-1.163a1,1,0,0,0,.02-.109.574.574,0,0,1,1.14.13,1.841,1.841,0,0,1-.04.224.574.574,0,0,1-.56.451.648.648,0,0,1-.124-.013.574.574,0,0,1-.439-.682h0Zm-5.044-4.328c.914,0,1.654.994,1.654,2.221s-.74,2.221-1.654,2.221-1.656-.993-1.656-2.221.74-2.221,1.654-2.221Zm-2.274,4.206a5.077,5.077,0,0,1,.533,1.151.579.579,0,0,1-.376.727.568.568,0,0,1-.174.027h-.945a.576.576,0,0,1-.565-.7,3.264,3.264,0,0,1,.568-1.238.579.579,0,0,1,.957.031Zm-2.094-4.316a1.687,1.687,0,0,1,1.1,2.056c-.152,1.022-.892,1.758-1.652,1.648a1.685,1.685,0,0,1-1.1-2.056c.152-1.022.893-1.766,1.65-1.65Z" fill="#fff"/><path d="M34.322,1042.822a2.973,2.973,0,0,1,.57.247.417.417,0,0,0,.571-.153.362.362,0,0,0,.037-.083l3.654-11.723.776-2.485.038-.123a1.154,1.154,0,0,0-.658-1.425,1.127,1.127,0,0,0-1.457.646c-.009.024-.018.049-.026.074l-.05.16L37,1030.442l-3.659,11.72a.417.417,0,0,0,.276.522.449.449,0,0,0,.09.017A2.914,2.914,0,0,1,34.322,1042.822Z" fill="#fff"/><path d="M29.2,1059.228a1.788,1.788,0,0,0,2.238-1.175L35,1046.636l.15-.48a1.79,1.79,0,0,0-1.175-2.238h0a1.79,1.79,0,0,0-2.238,1.174l-.149.48-3.566,11.416a1.789,1.789,0,0,0,1.175,2.24Z" fill="#fff"/><path d="M51.764,1038.89a.446.446,0,0,0-.291.505,19.5,19.5,0,0,1,.372,4.076v.11a1.6,1.6,0,0,0,1.556,1.64,1.62,1.62,0,0,0,.362-.032h0a1.226,1.226,0,0,0,.72-.444,1.184,1.184,0,0,0,.2-.386,8.707,8.707,0,0,0,.344-2.422.573.573,0,1,1,1.145-.061c0,.01,0,.021,0,.031a9.557,9.557,0,0,1-.16,1.8.628.628,0,0,0,.5.734.64.64,0,0,0,.292-.014c.4-.119.815-.248,1.235-.39a1.575,1.575,0,0,0,1.069-1.359,10.5,10.5,0,0,0-.022-1.851.573.573,0,0,1,1.135-.162l0,.022a11.132,11.132,0,0,1,.052,1.653.527.527,0,0,0,.507.549.518.518,0,0,0,.248-.051c.339-.159.675-.33,1.008-.51a2.111,2.111,0,0,0,1.018-2.462,25.684,25.684,0,0,0-1.574-3.965.448.448,0,0,0-.549-.224c-1.155.41-4.617,1.621-4.617,1.621S52.907,1038.494,51.764,1038.89Z" fill="#fff"/><path d="M50.9,1036.719l.01.047.122.632a.444.444,0,0,0,.52.353.642.642,0,0,0,.062-.017l4.337-1.513,4.335-1.513a.45.45,0,0,0,.248-.626l-.3-.571-.022-.042a1.847,1.847,0,0,0-2.194-.8l-1.806.635-1.768-6.357a1.671,1.671,0,0,0-2.078-1.175,1.642,1.642,0,0,0-1.084,2.053c.016.053.035.1.056.155l2.591,6.123-1.807.631A1.849,1.849,0,0,0,50.9,1036.719Z" fill="#fff"/></g></svg>