<svg xmlns="http://www.w3.org/2000/svg" width="117.268" height="81.917" viewBox="0 0 117.268 81.917"><g transform="translate(-674.412 -1310.083)"><path d="M5.652.44C6.718.649,80.5,0,80.5,0a8.5,8.5,0,0,1,0,17H8.5C3.806,17,1.074,12.043.073,7.58A41.376,41.376,0,0,1-.659,1.306,24.666,24.666,0,0,1-.24-3.4S.33-2.387.8-1.726A7.371,7.371,0,0,0,2.5-.455,11.135,11.135,0,0,0,5.652.44Z" transform="translate(687.865 1312.784) rotate(50)" fill="#4B0082"/><path d="M6.321,16.56c1.066-.209,74.848.44,74.848.44a8.5,8.5,0,1,0,0-17h-72C4.475,0,1.743,4.957.743,9.42A41.376,41.376,0,0,0,.01,15.694,24.666,24.666,0,0,0,.429,20.4S1,19.387,1.467,18.726a7.371,7.371,0,0,1,1.7-1.271A11.135,11.135,0,0,1,6.321,16.56Z" transform="translate(791.68 1323.309) rotate(130)" fill="#4B0082"/></g></svg>