<svg xmlns="http://www.w3.org/2000/svg" width="55" height="55" viewBox="0 0 55 55"><path d="M27.5,0A27.5,27.5,0,1,1,0,27.5,27.5,27.5,0,0,1,27.5,0Z" fill="indigo"/><g transform="translate(-14.5 -948.5)"><path d="M55.072,973.959a13.347,13.347,0,0,1-15.556,15.572A68.927,68.927,0,0,0,55.072,973.959Z" fill="#fff"/><path d="M56.883,961.372A2.557,2.557,0,0,0,55,960.724c-1.9,0-4.719,1.2-7.932,3.275a13.383,13.383,0,0,0-13.56,22.778,16.649,16.649,0,0,1-3.754,1.709,11.363,11.363,0,0,1,.626-1.651,15.507,15.507,0,0,1-2.187-3.078c-1.932,3.54-2.514,6.351-1.281,7.583a2.554,2.554,0,0,0,1.878.648C38.6,991.988,61.94,966.43,56.883,961.372Zm-2.843,2.854a17.124,17.124,0,0,1-1.718,3.737A13.477,13.477,0,0,0,50.3,965.93,16.557,16.557,0,0,1,54.04,964.226Z" fill="#fff"/></g></svg>