<svg xmlns="http://www.w3.org/2000/svg" width="55" height="55" viewBox="0 0 55 55"><path d="M27.5,0A27.5,27.5,0,1,1,0,27.5,27.5,27.5,0,0,1,27.5,0Z" fill="indigo"/><g transform="translate(-749.5 -216.472)"><path d="M794.865,259.463H774.309l-9.946-10a.58.58,0,0,0-.411-.17h-2.3a.576.576,0,0,0-.577.577v9.6h-.866a.577.577,0,0,0-.578.578v2.322a.576.576,0,0,0,.578.577h34.657a.578.578,0,0,0,.578-.577v-2.322A.579.579,0,0,0,794.865,259.463Z" transform="translate(-0.205 -3.339)" fill="#fff"/><path d="M762.055,242.034l11.384,10.949c.171.187,1.837,1.825,7.46,1.825,3.582,0,4.364-1.661,4.536-2.378.413-1.732-1-3.75-3.511-5.022-3.9-1.976-5.891-9.471-5.918-9.575a3.958,3.958,0,0,0-3.876-2.546,6.468,6.468,0,0,0-1.263.132c-1.2.238-1.487-1.115-1.79-3.187-.23-1.588-.469-3.231-1.794-3.231a1.907,1.907,0,0,0-.916.269c-2.951,1.624-7.622,7.264-7.78,7.46a.724.724,0,0,0-.2.536C758.384,237.573,758.391,238.508,762.055,242.034Zm15.983,1.161a.577.577,0,0,1-.339.744l-2.9,1.088a.545.545,0,0,1-.2.038.577.577,0,0,1-.2-1.119l2.9-1.087A.577.577,0,0,1,778.038,243.2Zm-.948-1.931a.576.576,0,0,1-.338.744l-2.9,1.088a.577.577,0,1,1-.406-1.081l2.9-1.088A.578.578,0,0,1,777.089,241.264ZM772.8,240l2.9-1.088a.577.577,0,1,1,.406,1.08l-2.9,1.088a.561.561,0,0,1-.2.037.577.577,0,0,1-.2-1.117Z" transform="translate(0)" fill="#fff"/></g></svg>