<svg xmlns="http://www.w3.org/2000/svg" width="55" height="55" viewBox="0 0 55 55"><path d="M27.5,0A27.5,27.5,0,1,1,0,27.5,27.5,27.5,0,0,1,27.5,0Z" fill="indigo"/><g transform="translate(-198.5 -1014.743)"><path d="M233.153,1030.324s-2.729,4.07-4.649,3.707-7.782-1.886-7.782-1.886l-6.469-1.655a2.432,2.432,0,0,0-2.628,1.191c-.977,1.555-.877,2.052.4,2.713,1.313.695,10.613,5.263,10.916,6.686l-5.694,6.651s-4.785-2.515-5.762.762l7.884,7.744c3.369-.927.809-5.626.809-5.626l6.738-5.626c1.483.331,6.1,9.432,6.806,10.723s1.213,1.391,2.8.431a2.42,2.42,0,0,0,1.213-2.581l-1.685-6.355s-1.55-5.758-1.92-7.645,3.739-4.6,3.739-4.6C244.912,1027.974,240.3,1023.44,233.153,1030.324Z" fill="#fff"/></g></svg>