<svg xmlns="http://www.w3.org/2000/svg" width="55" height="55" viewBox="0 0 55 55"><g transform="translate(-499 -833)"><g transform="translate(499 833)"><circle cx="27.5" cy="27.5" r="27.5" fill="indigo"/></g><g transform="translate(298.5 -460.073)"><path d="M227.259,1313.128a4.59,4.59,0,1,0-5.047-6.327A8.778,8.778,0,0,1,227.259,1313.128Z" transform="translate(-0.877)" fill="#fff"/><path d="M244.455,1323.119l1.291.047a2.05,2.05,0,0,0,.148-4.1l-7.036-.253a2.05,2.05,0,0,0-.515.048,5.89,5.89,0,0,1,.914.1C242.76,1319.651,243.925,1321.38,244.455,1323.119Z" transform="translate(-2 -1.03)" fill="#fff"/><path d="M227.7,1315.4a8.676,8.676,0,0,1-1.473,4.856,2.657,2.657,0,0,0,.572.719,2.1,2.1,0,0,0,1.319.433,9.836,9.836,0,0,0,3.725-1.284l.31-.15a23.518,23.518,0,0,1,2.37-1.021l-.715-1.394,3.265-.841a2.049,2.049,0,1,0-1.022-3.969l-7.217,1.857a4.391,4.391,0,0,0-1.144.369C227.7,1315.118,227.7,1315.26,227.7,1315.4Z" transform="translate(-1.156 -0.603)" fill="#fff"/><path d="M219.216,1330.688v5.979h20.392s-.243-3.881-1.635-6.1c5.021-2.56,4.324-6.457,4.08-7.516-.373-1.616-1.131-3.609-4.909-4.351-4.5-.885-8.89,4.621-11.874,2.32a3.253,3.253,0,0,1-.873-1.231,8.162,8.162,0,1,0-14.762-4.954,1.421,1.421,0,0,0-.028.26C209.608,1320.066,214.45,1327.141,219.216,1330.688Zm-5.123-15.693a3.7,3.7,0,1,1,3.7,3.7A3.7,3.7,0,0,1,214.094,1314.995Z" transform="translate(0 -0.196)" fill="#fff"/><circle cx="1.872" cy="1.872" r="1.872" transform="translate(215.924 1312.927)" fill="#fff"/></g></g></svg>