<svg xmlns="http://www.w3.org/2000/svg" width="55" height="55" viewBox="0 0 55 55"><g transform="translate(-499 -833)"><g transform="translate(499 833)"><circle cx="27.5" cy="27.5" r="27.5" fill="indigo"/></g><g transform="translate(-81.5 -434.5)"><path d="M602.822,1292.664a1.675,1.675,0,0,1,.5,1.2.854.854,0,0,0,1.709,0,3.395,3.395,0,1,0-6.79,0,.854.854,0,0,0,1.709,0,1.688,1.688,0,0,1,1.688-1.686A1.769,1.769,0,0,1,602.822,1292.664Z" fill="none"/><path d="M613.936,1297.627a.855.855,0,0,0-.854.854,5.054,5.054,0,1,1-10.108,0,.854.854,0,0,0-1.709,0,6.757,6.757,0,0,0,13.514.015.82.82,0,0,0-.231-.61A.85.85,0,0,0,613.936,1297.627Z" fill="none"/><path d="M613.936,1290.467a3.4,3.4,0,0,0-3.395,3.4.854.854,0,0,0,1.709,0,1.686,1.686,0,0,1,3.373,0,.854.854,0,0,0,1.709,0A3.4,3.4,0,0,0,613.936,1290.467Z" fill="none"/><path d="M625.625,1289.871a3.815,3.815,0,0,0-2.6-1.128,16.147,16.147,0,0,0-12.361-10.06,13.744,13.744,0,0,1,2.3,2.361,6.008,6.008,0,0,1,1.086,3.547,5.022,5.022,0,0,1-5.022,4.955,4.184,4.184,0,0,1-4.194-4.242,3.517,3.517,0,0,1,3.539-3.474h.024a2.933,2.933,0,0,1,2.1.9,2.974,2.974,0,0,1,.845,2.124.855.855,0,0,1-1.71-.024,1.275,1.275,0,0,0-1.261-1.293,1.768,1.768,0,0,0-1.288.516,1.8,1.8,0,0,0-.548,1.273,2.486,2.486,0,0,0,2.447,2.515,3.339,3.339,0,0,0,3.357-3.274,4.325,4.325,0,0,0-1.233-3.095,6.258,6.258,0,0,0-3.154-1.593s-1.841-.482-2.412-.692a9.119,9.119,0,0,0-1.181-.306,16.162,16.162,0,0,0-11.348,9.866,3.845,3.845,0,0,0-.99,7.482,16.081,16.081,0,0,0,31.981.039,3.849,3.849,0,0,0,1.613-6.4Zm-25.677,3.991a.854.854,0,0,1-1.709,0,3.395,3.395,0,1,1,6.79,0,.854.854,0,0,1-1.709,0,1.675,1.675,0,0,0-.5-1.2,1.769,1.769,0,0,0-1.186-.488A1.688,1.688,0,0,0,599.948,1293.862Zm8.074,11.376a6.764,6.764,0,0,1-6.757-6.757.854.854,0,0,1,1.709,0,5.054,5.054,0,1,0,10.108,0,.854.854,0,0,1,1.466-.595.82.82,0,0,1,.231.61A6.761,6.761,0,0,1,608.022,1305.238Zm8.455-10.522a.855.855,0,0,1-.854-.854,1.686,1.686,0,0,0-3.373,0,.854.854,0,0,1-1.709,0,3.4,3.4,0,0,1,6.791,0A.856.856,0,0,1,616.477,1294.716Z" fill="#fff"/></g></g></svg>