<svg xmlns="http://www.w3.org/2000/svg" width="37.331" height="32.167" viewBox="0 0 37.331 32.167"><g transform="translate(-23.24 -237.782)"><path d="M36.8,257.806a.854.854,0,0,0-1.709,0,6.758,6.758,0,0,0,13.515.015.828.828,0,0,0-.231-.61.854.854,0,0,0-1.467.6,5.054,5.054,0,0,1-10.108,0Z" fill="indigo"/><path d="M45.22,254.041a.855.855,0,0,0,.855-.854,1.687,1.687,0,0,1,3.373,0,.854.854,0,0,0,1.709,0,3.4,3.4,0,0,0-6.791,0A.855.855,0,0,0,45.22,254.041Z" fill="indigo"/><path d="M35.459,249.792a3.4,3.4,0,0,0-3.4,3.395.854.854,0,0,0,1.709,0,1.689,1.689,0,0,1,1.688-1.686,1.771,1.771,0,0,1,1.187.488,1.678,1.678,0,0,1,.5,1.2.854.854,0,0,0,1.709,0A3.4,3.4,0,0,0,35.459,249.792Z" fill="indigo"/><path d="M59.45,249.2a3.813,3.813,0,0,0-2.6-1.128,16.084,16.084,0,0,0-30.008.006,3.846,3.846,0,0,0-.991,7.483,16.082,16.082,0,0,0,31.981.038,3.849,3.849,0,0,0,1.613-6.4Zm-16.632-2.028a2.487,2.487,0,0,1-2.448-2.515,1.793,1.793,0,0,1,.549-1.273,1.766,1.766,0,0,1,1.288-.516,1.275,1.275,0,0,1,1.261,1.293.855.855,0,1,0,1.709.024,2.978,2.978,0,0,0-.844-2.124,2.935,2.935,0,0,0-2.1-.9h-.024a3.518,3.518,0,0,0-3.539,3.474,4.184,4.184,0,0,0,4.195,4.242,5.02,5.02,0,0,0,5.021-4.955,6,6,0,0,0-1.086-3.547,14.329,14.329,0,0,1,8.674,8.875.858.858,0,0,0,.934.566,2.214,2.214,0,0,1,.33-.029,2.137,2.137,0,0,1,.226,4.262.844.844,0,0,0-.76.789,14.374,14.374,0,0,1-28.685-.013.852.852,0,0,0-.729-.785,2.137,2.137,0,0,1,.306-4.253,1.554,1.554,0,0,1,.252.019.838.838,0,0,0,.907-.571A14.377,14.377,0,0,1,41.859,239.5c.155,0,.317.005.443.008a4.35,4.35,0,0,1,3.872,4.384A3.339,3.339,0,0,1,42.818,247.168Z" fill="indigo"/></g></svg>