<svg xmlns="http://www.w3.org/2000/svg" viewBox="0 0 36.3 31.18"><defs><style>.cls-1{fill:none;}.cls-2{fill:#fff;}</style></defs><title>Asset 5</title><g id="Layer_2" data-name="Layer 2"><g id="Calque_1" data-name="Calque 1"><path class="cls-1" d="M18.1,1l1.2.16A4.18,4.18,0,0,0,18.58,1Z"/><path class="cls-2" d="M32.86,10.21h-.13a15.59,15.59,0,0,0-29.26,0h0A3.44,3.44,0,0,0,2.57,17a15.58,15.58,0,0,0,31,0,3.44,3.44,0,0,0-.75-6.8ZM22.11,1.7a5.6,5.6,0,0,1,1.6,4A4.57,4.57,0,0,1,22.31,9a4.53,4.53,0,0,1-3.21,1.31H19a3.77,3.77,0,0,1-3.73-3.83,3.11,3.11,0,0,1,3.16-3.08,2.51,2.51,0,0,1,1.82.78A2.58,2.58,0,0,1,21,6a.47.47,0,0,1-.47.47h0A.48.48,0,0,1,20.07,6,1.63,1.63,0,0,0,18.45,4.3a2.1,2.1,0,0,0-1.54.62,2.17,2.17,0,0,0-.66,1.52,2.83,2.83,0,0,0,.81,2,2.79,2.79,0,0,0,2,.85h.05A3.66,3.66,0,0,0,22.76,5.7a4.73,4.73,0,0,0-1.33-3.34A4.57,4.57,0,0,0,19.3,1.12M9.71,14.91a.48.48,0,0,1-.48.48.47.47,0,0,1-.47-.48,3,3,0,0,1,6,0,.48.48,0,1,1-.95,0,2,2,0,0,0-4.09,0Zm8.38,10.92a6.34,6.34,0,0,1-6.33-6.33.48.48,0,1,1,1,0,5.39,5.39,0,0,0,10.78,0A.48.48,0,0,1,24,19a.47.47,0,0,1,.47.48A6.34,6.34,0,0,1,18.09,25.83Zm8.39-10.44a.47.47,0,0,1-.47-.48,2,2,0,0,0-4.09,0,.48.48,0,0,1-1,0,3,3,0,0,1,6,0A.48.48,0,0,1,26.48,15.39Z"/></g></g></svg>