<svg xmlns="http://www.w3.org/2000/svg" width="32.582" height="51.326" viewBox="0 0 32.582 51.326">
  <path id="Fill_1" data-name="Fill 1" d="M9.5,1.016Q9.782,0,11.942,0L14.17.181q-6.02,21.1-7.947,29.085A60.243,60.243,0,0,0,4.391,43.231Q4.384,47.1,6.011,47.105a34.061,34.061,0,0,0,5.363-1.625A31.789,31.789,0,0,1,21.9,43.865,25.133,25.133,0,0,1,32.582,46.7a135.476,135.476,0,0,0-15.923,1.64,48.44,48.44,0,0,0-6.8,1.922,14.715,14.715,0,0,1-5.167,1.064Q.555,51.317,0,45.018A75.332,75.332,0,0,1,1.7,29.01Q3.623,20.286,9.5,1.016" fill="indigo"/>
</svg>
