<svg xmlns="http://www.w3.org/2000/svg" width="43" height="50" viewBox="0 0 43 50">
  <path id="Fill_1" data-name="Fill 1" d="M42.757,2.679C42.515.908,40.883-.675,38.8.3c-.324.152-.648.3-1.01.453a.144.144,0,0,1-.076.029c-.591.272-1.237.54-1.978.836C34.7,2.027,33.485,2.48,31.993,3c-8.543,2.97-11.439,11.465-7.947,16.347a.327.327,0,0,1,.08-.083c1.7-1.984,4.2-5.512,7.638-6.993a39.769,39.769,0,0,0-5.7,6.622,24.826,24.826,0,0,0-4.34,10.686,20.245,20.245,0,0,0-3.534-6.512c0-.005.006-.01.008-.015l-.021-.011c-.042-.051-.088-.1-.131-.152A21.335,21.335,0,0,0,16,20.737a38.148,38.148,0,0,0-4.894-3.853c3.253.784,5.973,3.514,7.769,5a.3.3,0,0,1,.083.061c2.351-4.829-1.465-11.875-9.428-13.2C8.139,8.52,7,8.3,6.024,8.1c-.7-.148-1.3-.286-1.866-.437a.125.125,0,0,1-.071-.015c-.34-.076-.649-.161-.956-.245A2.485,2.485,0,0,0,0,10.1a22.862,22.862,0,0,0,1,6.065,21.8,21.8,0,0,0,1.57,3.8c2.2,4.131,5.13,6.18,9.075,6.358a7.524,7.524,0,0,0,3.739-.9c.265-.151.531-.3.764-.444.246-.162.46-.316.67-.486l.131-.1a19.335,19.335,0,0,1,4.33,10.728c-.059,2.466-.047,5.009-.011,6.656a8.163,8.163,0,0,0-3.765.8c-4.05-1.682-7.119,1.161-8.47,2.909-2.39,0-4,.73-6.359,2.6a1.082,1.082,0,0,0-.187,1.509A1.062,1.062,0,0,0,3.331,50H40.543a1.08,1.08,0,0,0,.724-1.868c-2.594-2.449-6.165-3.274-7.1-3.071-3.24-3.071-5.429-4-8.674-2.333a10.7,10.7,0,0,0-2.838-.836.528.528,0,0,0,.018-.1c-.035-1.634-.048-4.188.012-6.659v-.015c.012-.533.028-1.062.048-1.576a25.3,25.3,0,0,1,3.522-12.145c.224.134.442.254.622.351.264.147.528.276.83.409.285.113.606.226.926.345a8.4,8.4,0,0,0,4.291.283c4.319-.945,7.173-3.763,8.827-8.735a24.489,24.489,0,0,0,1.028-4.489,25.636,25.636,0,0,0-.022-6.879" fill="indigo"/>
</svg>
