<svg xmlns="http://www.w3.org/2000/svg" width="48" height="57" viewBox="0 0 48 57">
  <path id="Fill_1" data-name="Fill 1" d="M24.18.008a1.29,1.29,0,0,0-1.14,1.315V3.265H8.322c-.04,0-.08,0-.12,0a1.276,1.276,0,0,0-.74.324L.422,10.063A1.306,1.306,0,0,0,.33,11.892a1.259,1.259,0,0,0,.092.093l7.039,6.474a1.271,1.271,0,0,0,.86.344H23.04v3.237H16c-.04,0-.08,0-.12,0a1.289,1.289,0,0,0-1.16,1.295V36.282A1.287,1.287,0,0,0,16,37.577H23.04V54.409H19.2c-.04,0-.08,0-.12,0A1.3,1.3,0,0,0,19.2,57H29.44a1.295,1.295,0,0,0,.036-2.59H25.6V37.577H39.679a1.274,1.274,0,0,0,.859-.344l7.04-6.474a1.306,1.306,0,0,0,.092-1.829c-.029-.032-.06-.063-.092-.093l-7.04-6.474a1.271,1.271,0,0,0-.859-.324H25.6V18.8H32a1.287,1.287,0,0,0,1.28-1.295V4.56A1.288,1.288,0,0,0,32,3.265H25.6V1.323A1.289,1.289,0,0,0,24.348,0a1.212,1.212,0,0,0-.168.008" fill="indigo"/>
</svg>
