<svg xmlns="http://www.w3.org/2000/svg" width="55" height="55" viewBox="0 0 55 55"><path d="M27.5,0A27.5,27.5,0,1,1,0,27.5,27.5,27.5,0,0,1,27.5,0Z" fill="indigo"/><g transform="translate(-855.5 -152.087)"><path d="M899.271,163.6a3.188,3.188,0,0,1,.418.588c.006.021,0,0,.136.418.073.215.1.3.069.41a.416.416,0,0,1-.137.185c-.151.123-.336.287-.541.485-.112.106-.263.264-.441.455.075.123.153.249.232.369a.717.717,0,0,0,.26.191.9.9,0,0,0,.29.052c.189.01.243-.031.308.014a.246.246,0,0,1,.078.257c-.041.143-.209.12-.437.294-.257.195-.267.39-.434.4a.25.25,0,0,1-.236-.133c-.031-.078.034-.116.072-.29a.9.9,0,0,0,.006-.328.791.791,0,0,0-.112-.291c-.085-.092-.175-.181-.264-.27-.064.079-.133.161-.2.247a8.918,8.918,0,0,0-.8,1.149c.075.1.154.209.226.315a.78.78,0,0,0,.274.17.941.941,0,0,0,.29.031c.2,0,.243-.044.312,0a.237.237,0,0,1,.1.242c-.034.151-.2.137-.424.328-.236.209-.232.4-.4.424a.242.242,0,0,1-.242-.112c-.035-.075.024-.12.051-.3a.872.872,0,0,0-.017-.332.813.813,0,0,0-.126-.277c-.072-.064-.141-.126-.212-.184-.054.1-.093.188-.123.253a.389.389,0,0,1-.168.222.339.339,0,0,1-.167.024c-.151-.006-.3.031-.449.038s-.393.106-.783.5l-16.084,16.583a1.078,1.078,0,0,0-.078,1.173,1.273,1.273,0,0,0,.393.448,2.7,2.7,0,0,0,1.854.219c.521-.054.818-.147,1.094.048a.616.616,0,0,1,.257.386c.021.151-.037.339-.3.6a3.816,3.816,0,0,1-1.707.818,4.983,4.983,0,0,0-1.587.684,2.031,2.031,0,0,0-.369.355,2.322,2.322,0,0,0-.38.735,10.44,10.44,0,0,0-.328,1.163c-.054.239-.147.606-.267,1.06a4.361,4.361,0,0,1-.879,1.768,3.777,3.777,0,0,1-1.471,1.143,3.861,3.861,0,0,1-1.306.28,4.766,4.766,0,0,1-1.583-.181,6.352,6.352,0,0,1-1.826-.828,8.8,8.8,0,0,1-1.536-1.248,8.644,8.644,0,0,1-2.107-2.852,5.976,5.976,0,0,1-.373-1.193,5.041,5.041,0,0,1-.051-1.631,3.89,3.89,0,0,1,.273-1.04,3.786,3.786,0,0,1,.753-1.122,3.892,3.892,0,0,1,.862-.649,8.153,8.153,0,0,1,1.745-.7c.612-.195.724-.212,1.572-.485a5.168,5.168,0,0,0,1.31-.571,5.233,5.233,0,0,0,.581-.452,11.8,11.8,0,0,0,2.014-3.218,13.1,13.1,0,0,1,.979-1.641,5.511,5.511,0,0,1,1.307-1.313c.581-.417.879-.455,1.1-.4a.732.732,0,0,1,.51.332c.181.365-.239.8-1.036,2.076a4.662,4.662,0,0,0-.769,2.083,1.141,1.141,0,0,0,.219.533.889.889,0,0,0,.3.236,1.125,1.125,0,0,0,.886.01L894.5,167.968c.131-.151.236-.277.315-.376a1.882,1.882,0,0,0,.239-.342,1.556,1.556,0,0,0,.137-.349,2.486,2.486,0,0,0,.092-.612c.11-.062.236-.133.373-.215-.048-.034-.1-.069-.147-.1a.706.706,0,0,0-.315-.062.885.885,0,0,0-.284.073c-.178.068-.209.126-.291.112a.244.244,0,0,1-.174-.195c-.024-.154.137-.2.276-.454.151-.281.079-.462.233-.54a.248.248,0,0,1,.27.024c.054.054.017.12.054.294a.878.878,0,0,0,.127.3.836.836,0,0,0,.222.216c.116.047.236.092.355.136.12-.072.247-.15.38-.236.188-.12.578-.373.947-.647.086-.064.181-.14.284-.222-.092-.078-.195-.161-.29-.242a.691.691,0,0,0-.308-.1.824.824,0,0,0-.287.041c-.189.052-.223.106-.3.083a.251.251,0,0,1-.154-.216c-.007-.151.161-.181.325-.421.178-.259.127-.448.287-.512a.248.248,0,0,1,.263.051c.052.065.007.123.025.3a.853.853,0,0,0,.1.318.836.836,0,0,0,.191.239c.144.075.291.147.432.219a10.681,10.681,0,0,0,1.029-1.036.178.178,0,0,1,.122-.062C899.142,163.433,899.227,163.539,899.271,163.6Z" fill="#fff"/></g></svg>