<svg xmlns="http://www.w3.org/2000/svg" width="33.252" height="37.009" viewBox="0 0 33.252 37.009"><g transform="translate(-0.001 -0.222)"><path d="M.6.48h0C.392.4.17.316,0,.255L.008.248.015.24l.037.01.013,0L.234.317C.353.36.464.4.572.445L.6.477ZM7.726.4l0,0c.045-.058.1-.127.153-.2L8.01,0a.15.15,0,0,0,.019.02.147.147,0,0,1,.019.02C8.01.1,7.971.156,7.933.21a1.369,1.369,0,0,1-.117.156A.763.763,0,0,1,7.73.4Z" transform="translate(12.496 10.839)" fill="indigo"/><path d="M16.977,37.008a.777.777,0,0,1-.751-.58l-.856-3.236c-2.717-.632-5.04-3.172-6.213-6.793a15.879,15.879,0,0,1-.623-2.719c-.01-.082-.019-.164-.029-.245v-.008c-.009-.077-.019-.155-.028-.233a6.416,6.416,0,0,1-2.128.35c-.075,0-.152,0-.226,0a6.857,6.857,0,0,1-5.5-2.809A4.356,4.356,0,0,1,0,18.444c0-2.528,1.929-5.322,4.913-7.119a7.776,7.776,0,0,1,4.059-1.012,13.912,13.912,0,0,1,3.324.436l.087.022.127.032-.009.007-.006,0c.266.074.445.127.6.175l-.027-.027.054.015.039.012a3.418,3.418,0,0,1-.343-.37l0,0a5.079,5.079,0,0,1,.72-7.267A4.235,4.235,0,0,0,10.321,1.56a2.633,2.633,0,0,0-.787.117A3.09,3.09,0,0,0,7.979,2.883a.776.776,0,0,1-.639.334.779.779,0,0,1-.764-.64A.777.777,0,0,1,6.7,1.992,4.616,4.616,0,0,1,9.072.19,4.236,4.236,0,0,1,10.334,0,5.809,5.809,0,0,1,14.9,2.575a5.1,5.1,0,0,1,3.56-.012A5.794,5.794,0,0,1,23.012,0a4.234,4.234,0,0,1,1.263.19,4.626,4.626,0,0,1,2.37,1.8.782.782,0,0,1-.194,1.085.776.776,0,0,1-1.082-.194,3.088,3.088,0,0,0-1.556-1.206,2.643,2.643,0,0,0-.785-.116,4.248,4.248,0,0,0-3.2,1.77,5.074,5.074,0,0,1,.747,7.286.131.131,0,0,1-.022.026l0,0a.142.142,0,0,0-.019-.015.14.14,0,0,1-.019-.015l-.129.151c-.042.046-.085.089-.129.134l-.025.026a.882.882,0,0,0,.089-.028.128.128,0,0,1-.017.021l-.007.007c.112-.034.235-.068.33-.094.062-.012.123-.029.175-.043a13.932,13.932,0,0,1,3.487-.48,7.771,7.771,0,0,1,4.06,1.014A10.8,10.8,0,0,1,32.657,15.9a5.083,5.083,0,0,1-.026,4.831A5.476,5.476,0,0,1,30.379,22.7a7.825,7.825,0,0,1-3.248.836c-.077,0-.151,0-.23,0a6.412,6.412,0,0,1-2-.308c-.024.221-.055.444-.09.662a15.114,15.114,0,0,1-.6,2.548,12.567,12.567,0,0,1-2.259,4.185,7.728,7.728,0,0,1-3.315,2.382l-.9,3.416A.788.788,0,0,1,16.977,37.008Zm-5.73-9.5a7.66,7.66,0,0,0,3.653,3.91,4.4,4.4,0,0,0,1.707.373.7.7,0,0,0,.086,0,4.337,4.337,0,0,0,.669-.05,4.761,4.761,0,0,0,1.79-.674,8.114,8.114,0,0,0,2.98-3.54A13.861,13.861,0,0,1,11.246,27.5Zm-.412-5.953a5.213,5.213,0,0,1-.868.836c.024.325.055.644.094.946a1.78,1.78,0,0,1,.427.213,10.84,10.84,0,0,0,12.3.11,1.593,1.593,0,0,1,.529-.23c.039-.282.071-.592.1-.945a5.481,5.481,0,0,1-1.171-1.136A13.932,13.932,0,0,1,16.3,22.563,14.255,14.255,0,0,1,10.834,21.551ZM8.952,11.865a6.194,6.194,0,0,0-3.238.79c-3.237,1.954-4.96,5.283-3.761,7.271A5.4,5.4,0,0,0,6.17,21.988l.149,0a4.727,4.727,0,0,0,2.057-.45A3.837,3.837,0,0,0,9.4,20.817a4.145,4.145,0,0,0,.5-.592l.07-.1c.419-.612.837-1.294,1.241-2.027a34.31,34.31,0,0,0,1.957-4.167c.159-.4.307-.8.428-1.148-.209-.078-.432-.155-.661-.226a15.47,15.47,0,0,0-1.645-.431,12.923,12.923,0,0,0-1.72-.238C9.36,11.871,9.152,11.865,8.952,11.865Zm15.351,0a10.537,10.537,0,0,0-1.18.069c-.362.043-.714.1-1.047.163a15.054,15.054,0,0,0-1.66.424c-.251.077-.5.161-.763.257.153.432.327.895.518,1.373a34.281,34.281,0,0,0,1.7,3.645,26.189,26.189,0,0,0,1.478,2.427c.022.033.045.064.074.1.053.071.114.153.175.226a3.9,3.9,0,0,0,1.4,1.05,4.775,4.775,0,0,0,1.946.387h.127A5.417,5.417,0,0,0,31.3,19.925a2.765,2.765,0,0,0,.381-1.451,5.54,5.54,0,0,0-1.12-3.055,9.991,9.991,0,0,0-3.026-2.766A6.194,6.194,0,0,0,24.3,11.865Zm-8,1.664a12.429,12.429,0,0,0-1.345.07,35.456,35.456,0,0,1-2.311,5.12,11.943,11.943,0,0,0,3.657.548,11.429,11.429,0,0,0,4.2-.743,36.363,36.363,0,0,1-2.178-4.836A12.645,12.645,0,0,0,16.3,13.53Z" transform="translate(0.001 0.223)" fill="indigo"/></g></svg>