<svg xmlns="http://www.w3.org/2000/svg" width="55" height="55" viewBox="0 0 55 55"><path d="M27.5,0A27.5,27.5,0,1,1,0,27.5,27.5,27.5,0,0,1,27.5,0Z" fill="indigo"/><g transform="translate(-456.5 -281.5)"><path d="M486.479,300.652a1.6,1.6,0,0,0-1.511.924l-5.679,12.18a1.6,1.6,0,0,0,.775,2.13h0l12.179,5.679a1.6,1.6,0,0,0,2.13-.775h0l5.679-12.181a1.6,1.6,0,0,0-.774-2.13L487.1,300.8A1.616,1.616,0,0,0,486.479,300.652Zm1.082,2.915a1.978,1.978,0,0,1,2.034,1.92c0,.019,0,.038,0,.057a1.978,1.978,0,1,1-3.955.063q0-.031,0-.063A1.976,1.976,0,0,1,487.561,303.567Zm7.692,3.587a1.978,1.978,0,0,1,2.034,1.92v.056a1.978,1.978,0,0,1-3.956.063v-.063A1.978,1.978,0,0,1,495.253,307.154Zm-5.64,2.052a1.979,1.979,0,0,1,2.036,1.919v.057a1.979,1.979,0,1,1-2.037-1.976Zm-5.639,2.052a1.978,1.978,0,0,1,2.035,1.919c0,.02,0,.039,0,.059a1.978,1.978,0,1,1-2.036-1.978Zm7.692,3.588a1.976,1.976,0,0,1,2.035,1.918v.058a1.979,1.979,0,1,1-2.036-1.976Z" fill="#fff"/><path d="M481.252,296.253a1.614,1.614,0,0,0-.579.114l-12.484,4.973a1.6,1.6,0,0,0-.9,2.082h0l4.972,12.484a1.6,1.6,0,0,0,2.083.9h0l3.236-1.29,6.708-14.386-1.539-3.863a1.6,1.6,0,0,0-1.5-1.01Zm-1.428,2.842a1.978,1.978,0,0,1,2.035,1.919v.058a1.978,1.978,0,1,1-2.036-1.977Zm-7.86,3.117a1.978,1.978,0,0,1,2.011,1.944v.057a1.978,1.978,0,1,1-3.955.062c0-.02,0-.041,0-.062A1.978,1.978,0,0,1,471.964,302.212Zm3.117,7.909a1.977,1.977,0,0,1,2.034,1.92v.056a1.978,1.978,0,0,1-3.955.063V312.1A1.978,1.978,0,0,1,475.081,310.121Z" fill="#fff"/></g></svg>