<svg xmlns="http://www.w3.org/2000/svg" width="55" height="55" viewBox="0 0 55 55"><path d="M27.5,0A27.5,27.5,0,1,1,0,27.5,27.5,27.5,0,0,1,27.5,0Z" fill="indigo"/><g transform="translate(-295.5 -1012.418)"><path d="M305.83,1044.836v1.548c.7,0,1.024.3,1.584.871a3.758,3.758,0,0,0,5.934,0c.56-.573.886-.871,1.584-.871s1.022.3,1.583.871a3.755,3.755,0,0,0,5.931,0c.56-.572.886-.871,1.584-.871s1.022.3,1.582.871a3.753,3.753,0,0,0,5.93,0c.56-.572.885-.871,1.583-.871s1.022.3,1.583.871a3.754,3.754,0,0,0,5.93,0c.56-.572.885-.871,1.583-.871v-1.548a3.885,3.885,0,0,0-2.965,1.452,2.233,2.233,0,0,1-1.31.852l3.5-8.3h-8.13l-5.807-6.969H312.8v6.969h-.714l-1.608-6.969-6.194,2.065,5.523,1.841.718,3.063h-1.6v7.582l-.13-.131A3.889,3.889,0,0,0,305.83,1044.836Zm12.434-10.646v4.646h-3.143v-4.646Zm11.955,4.646h-9.632v-4.646h5.761Z" fill="#fff"/></g></svg>