<svg xmlns="http://www.w3.org/2000/svg" width="55" height="55" viewBox="0 0 55 55"><path d="M27.5,0A27.5,27.5,0,1,1,0,27.5,27.5,27.5,0,0,1,27.5,0Z" fill="indigo"/><g transform="translate(-852.5 -85.47)"><g transform="translate(867.004 98.126)"><path d="M883.9,107.287v16.832c.4.568.772,1.083,1.093,1.533V106.31A6.344,6.344,0,0,0,883.9,107.287Z" transform="translate(-869.786 -99.473)" fill="#fff"/><path d="M887.61,125.509V105.155a7.612,7.612,0,0,0-1.093.363v19.991Z" transform="translate(-870.216 -99.283)" fill="#fff"/><path d="M890.226,125.443V104.757c-.387.029-.751.068-1.093.12v20.566Z" transform="translate(-870.647 -99.218)" fill="#fff"/><path d="M881.284,110.553v10.981l1.093,1.532V109.217A11.265,11.265,0,0,1,881.284,110.553Z" transform="translate(-869.355 -99.952)" fill="#fff"/><path d="M878.668,112.414v6.5l1.093,1.533V111.9A4.358,4.358,0,0,1,878.668,112.414Z" transform="translate(-868.924 -100.394)" fill="#fff"/><path d="M876.957,112.713a5.941,5.941,0,0,1-.9-.074v3.326l1.093,1.532v-4.8C877.081,112.7,877.023,112.713,876.957,112.713Z" transform="translate(-868.493 -100.515)" fill="#fff"/><path d="M873.436,111.963v.824c.334.469.7.982,1.093,1.534v-2.032C874.181,112.2,873.816,112.087,873.436,111.963Z" transform="translate(-868.063 -100.404)" fill="#fff"/><path d="M890.953,127.63v-2.185H889.86V99.219h1.093V98.126h-4.371v1.093h1.093v1.11c-5.146.156-7.853,1.484-10.09,4.841-1.54,2.311-1.683,2.263-5.322,1.025l-1.071-.363c-1.841-.613-3.119-.459-3.8.459-.766,1.031-.277,2.474.374,3.394C868.5,110.721,876,121.242,879,125.446H877.84v2.185h-1.093v1.093h15.3v-1.093h-1.093Zm-14.205-9.106-1.093-1.532c-.366-.515-.732-1.027-1.093-1.533-2.44-3.424-4.631-6.5-5.01-7.035a2.1,2.1,0,0,1-.354-.774,3.554,3.554,0,0,1,1.3.256l1.059.356c.287.1.556.189.819.277.385.128.752.247,1.093.345a10.727,10.727,0,0,0,1.093.262,4.788,4.788,0,0,0,1.093.077,3.2,3.2,0,0,0,1.093-.244,3.9,3.9,0,0,0,1.093-.713,8.051,8.051,0,0,0,1.093-1.217c.155-.206.309-.427.471-.667.2-.3.41-.581.621-.845a7.963,7.963,0,0,1,1.094-1.121,6.745,6.745,0,0,1,1.093-.745,7.207,7.207,0,0,1,1.093-.483,9.575,9.575,0,0,1,1.093-.31c.344-.076.706-.143,1.093-.2.344-.046.711-.081,1.093-.109.348-.026.71-.046,1.093-.058v22.928h-5.994c-.144-.2-.335-.471-.562-.79-.3-.425-.672-.943-1.094-1.532l-1.093-1.532c-.348-.489-.713-1-1.093-1.532C877.485,119.558,877.119,119.045,876.748,118.524Z" transform="translate(-867.004 -98.126)" fill="#fff"/></g></g></svg>