<svg id="calendar" xmlns="http://www.w3.org/2000/svg" width="29.261" height="27.88" viewBox="0 0 29.261 27.88">
  <path id="Fill_1" data-name="Fill 1" d="M25.826,27.88H3.434A3.438,3.438,0,0,1,0,24.446V6.095A3.358,3.358,0,0,1,.876,3.839V3.805A3.415,3.415,0,0,1,3.434,2.66H5.96V1.145A1.133,1.133,0,0,1,7.1,0H8.822A1.133,1.133,0,0,1,9.967,1.145V2.66H19.26V1.145A1.133,1.133,0,0,1,20.4,0h1.717a1.133,1.133,0,0,1,1.145,1.145V2.66h2.525a3.417,3.417,0,0,1,2.56,1.146h.033v.033a3.358,3.358,0,0,1,.876,2.256V24.446A3.438,3.438,0,0,1,25.826,27.88ZM2.29,10.438V24.446a1.133,1.133,0,0,0,1.145,1.145H25.826a1.133,1.133,0,0,0,1.145-1.145l-.033-6.061V10.438Z" fill="#ffb029"/>
  <path id="Fill_4" data-name="Fill 4" d="M3.8,0H1.01A1.013,1.013,0,0,0,0,1.01V2.728a1.013,1.013,0,0,0,1.01,1.01H3.8a1.013,1.013,0,0,0,1.01-1.01V1.01A1.036,1.036,0,0,0,3.8,0" transform="translate(12 19)" fill="#ffb029"/>
  <path id="Fill_6" data-name="Fill 6" d="M3.8,0H1.01A1.013,1.013,0,0,0,0,1.01V2.728a1.013,1.013,0,0,0,1.01,1.01H3.8a1.013,1.013,0,0,0,1.01-1.01V1.01A1.036,1.036,0,0,0,3.8,0" transform="translate(20 19)" fill="#ffb029"/>
  <path id="Fill_8" data-name="Fill 8" d="M3.8,0H1.01A1.013,1.013,0,0,0,0,1.01V2.728a1.013,1.013,0,0,0,1.01,1.01H3.8a1.013,1.013,0,0,0,1.01-1.01V1.01A1.036,1.036,0,0,0,3.8,0" transform="translate(6 19)" fill="#ffb029"/>
  <path id="Fill_10" data-name="Fill 10" d="M3.8,0H1.01A1.013,1.013,0,0,0,0,1.01V2.727a1.013,1.013,0,0,0,1.01,1.01H3.8a1.013,1.013,0,0,0,1.01-1.01V1.01A1.036,1.036,0,0,0,3.8,0" transform="translate(12 12)" fill="#ffb029"/>
  <path id="Fill_12" data-name="Fill 12" d="M3.8,0H1.01A1.013,1.013,0,0,0,0,1.01V2.727a1.013,1.013,0,0,0,1.01,1.01H3.8a1.013,1.013,0,0,0,1.01-1.01V1.01A1.036,1.036,0,0,0,3.8,0" transform="translate(6 12)" fill="#ffb029"/>
  <path id="Fill_14" data-name="Fill 14" d="M3.8,0H1.01A1.013,1.013,0,0,0,0,1.01V2.727a1.013,1.013,0,0,0,1.01,1.01H3.8a1.013,1.013,0,0,0,1.01-1.01V1.01A1.036,1.036,0,0,0,3.8,0" transform="translate(20 12)" fill="#ffb029"/>
</svg>
