<svg xmlns="http://www.w3.org/2000/svg" width="52.085" height="19.893" viewBox="0 0 52.085 19.893"><g transform="translate(-196.452 -414.426)"><path d="M248.422,428.071c-1.315-4.438-1.973-6.083-11.015-6.576l-7.891-4.932a10.831,10.831,0,0,0-6.248-1.973l-9.371-.164a10.788,10.788,0,0,0-5.754,1.808l-5.754,3.124-3.288-.164A1.825,1.825,0,0,0,197.292,421l-.822,7.727a1.773,1.773,0,0,0,1.809,1.973h2.795v-.658a5.018,5.018,0,0,1,5.1-5.1,5.122,5.122,0,0,1,5.1,5.1c0,.165-.165.329-.165.658h23.346v-.658a5.1,5.1,0,0,1,10.193,0v.658h2.137C248.422,430.7,248.751,429.551,248.422,428.071Zm-29.1-7.727-11.015-.657c1.972-2.137,2.63-3.288,5.425-3.288h5.59Zm2.466.165v-3.946h1.479a8.684,8.684,0,0,1,5.261,1.644l4.932,3.124Z" fill="indigo"/><path d="M206.17,425.77a4.284,4.284,0,0,0-4.439,4.274,4.358,4.358,0,0,0,8.714,0A4.245,4.245,0,0,0,206.17,425.77Zm0,6.247a2.038,2.038,0,0,1-2.137-1.973,2.176,2.176,0,0,1,2.137-2.137,2.152,2.152,0,0,1,1.973,2.137A2,2,0,0,1,206.17,432.017Z" fill="indigo"/><path d="M239.544,425.77a4.244,4.244,0,0,0-4.274,4.274,4.353,4.353,0,0,0,4.274,4.275,4.245,4.245,0,0,0,4.275-4.275A4.147,4.147,0,0,0,239.544,425.77Zm0,6.247a1.9,1.9,0,0,1-1.973-1.973,2.038,2.038,0,0,1,1.973-2.137,2.176,2.176,0,0,1,2.137,2.137A2.038,2.038,0,0,1,239.544,432.017Z" fill="indigo"/></g></svg>