<svg xmlns="http://www.w3.org/2000/svg" width="55" height="55" viewBox="0 0 55 55"><path d="M27.5,0A27.5,27.5,0,1,1,0,27.5,27.5,27.5,0,0,1,27.5,0Z" fill="indigo"/><g transform="translate(-853.5 -389.122)"><g transform="translate(880.432 409.698)"><path d="M906.452,412.136l-11.925,1.782a1.543,1.543,0,0,0-1.32,1.54v11.177a4.507,4.507,0,0,0-2.244-.132c-2.112.418-3.542,2.178-3.19,3.961s2.332,2.882,4.444,2.464a3.737,3.737,0,0,0,3.234-3.388V418.363l10.539-1.585v7.613a4.507,4.507,0,0,0-2.244-.132c-2.112.418-3.542,2.178-3.19,3.961s2.332,2.882,4.444,2.464a3.739,3.739,0,0,0,3.234-3.389v-13.62A1.546,1.546,0,0,0,906.452,412.136Z" transform="translate(-887.719 -412.116)" fill="#fff"/></g><g transform="translate(861.297 403.349)"><path d="M861.36,406.045a.569.569,0,0,0,.766.059.3.3,0,0,0,.1-.439l.545-.362.527.847-.521.346a.3.3,0,0,0-.438-.076c-.216.144-.416.469-.248.723a.568.568,0,0,0,.766.058.3.3,0,0,0,.1-.438l.514-.341.61.981,4.408,6.9c-2.622,2.044-2.3,3.987-.746,5.6a1.043,1.043,0,0,1,.213.563s1.193-.789,2.336.935l.681,1.028c1.229,1.852-.28,2.7-.381,2.77a1.188,1.188,0,0,1,.455.517,4.653,4.653,0,0,0,7.02,3.46l-.22-.332c.14-.126.311-.258.484-.395a24.884,24.884,0,0,0-2.593-2.824l-.065-.061.5-.332-1.364-2.057-.283.188a.3.3,0,0,1-.419-.085.3.3,0,0,1,.085-.419l.283-.188-10.182-15.351a.151.151,0,1,1,.251-.167L874.719,422.5l.3-.2-10.182-15.351a.151.151,0,0,1,.252-.167l10.181,15.35.289-.191a.3.3,0,0,1,.334.5l-.289.191,1.364,2.057.5-.335.035.091a25.055,25.055,0,0,0,1.532,3.293.534.534,0,0,0,.079-.482c-.484-1.186.591-3.76,2.586-3.863a5.05,5.05,0,0,0-2.292-3.24,1.187,1.187,0,0,1-.3-.62c-.1.067-1.472,1.126-2.7-.726l-.681-1.027c-1.143-1.724.046-2.515.046-2.515a1.045,1.045,0,0,1-.434-.416c-.884-2.058-2.548-3.112-5.45-1.491l-4.642-6.746-.388-.534.505-.335a.3.3,0,0,0,.443.081c.216-.143.413-.475.244-.729s-.546-.2-.763-.052a.3.3,0,0,0-.1.432l-.517.343-.586-.807.552-.366a.3.3,0,0,0,.442.081c.216-.144.413-.475.244-.729s-.546-.2-.763-.053a.3.3,0,0,0-.1.433l-.563.373-.448-.617.107-.071-.149-.19.208-.138-.306-.39-.206.138-.114-.146-.08.053h0l-.937.621-.057.038.093.159-.232.154.239.432.243-.161.121.207.077-.051.142.228-.553.367a.3.3,0,0,0-.438-.075C861.392,405.466,861.191,405.792,861.36,406.045Zm14.483,14.481a.486.486,0,0,1,.109-.206.628.628,0,0,1,.508-.18c.511.038.747.575.975,1.1.239.545.466,1.062.951,1.079a.45.45,0,0,0,.4-.169.356.356,0,0,0,.02-.041.342.342,0,0,1-.265-.091.347.347,0,0,1,.479-.5.342.342,0,0,1,.1.266.671.671,0,0,1-.088.54.753.753,0,0,1-.661.3,1.066,1.066,0,0,1-.156-.019c-.566-.115-.826-.71-1.059-1.241-.2-.458-.395-.894-.72-.915H876.4a.345.345,0,1,1-.558.085Zm-3.679,2.463a.63.63,0,0,1,.364-.4.478.478,0,0,1,.233-.021.343.343,0,0,1,.343.219.345.345,0,0,1-.639.263.325.325,0,0,0-.014.034c-.106.313.219.656.562,1.019.434.458.926.976.689,1.61a.753.753,0,0,1-.533.492.622.622,0,0,1-.254,0,.723.723,0,0,1-.285-.13.344.344,0,0,1-.2-.2.347.347,0,1,1,.65-.245.344.344,0,0,1-.019.28.239.239,0,0,0,.046,0,.449.449,0,0,0,.311-.3c.171-.456-.215-.865-.624-1.3C872.4,423.9,872,423.475,872.164,422.989Zm3.186-.179,1.364,2.057-.3.2-1.364-2.057Z" transform="translate(-861.297 -403.349)" fill="#fff"/></g></g></svg>