<svg xmlns="http://www.w3.org/2000/svg" xmlns:xlink="http://www.w3.org/1999/xlink" width="55" height="55" viewBox="0 0 55 55"><defs><clipPath id="a"><rect width="55" height="55" fill="none"/></clipPath></defs><g clip-path="url(#a)"><path d="M27.5,0A27.5,27.5,0,1,1,0,27.5,27.5,27.5,0,0,1,27.5,0Z" fill="indigo"/><g transform="translate(-576.5 -951.5)"><path d="M602.7,977.694h0c-.327-4.295-.815-8.32-.879-8.849l.586-8.2-1.177-.085-.26,3.64a9.852,9.852,0,0,1-3.283.533,10.378,10.378,0,0,1-3.075-.462l-.1-3.685-1.18.033.221,8.176c-.254.971-2.358,9.178-2.358,15.411a49.15,49.15,0,0,0,1.316,10.708,2.937,2.937,0,0,0,2.873,2.274h3.4a2.936,2.936,0,0,0,2.881-2.31A52.691,52.691,0,0,0,603,984.2c0-1.93-.127-4.248-.3-6.492Zm-3.467,9.124a2.853,2.853,0,0,1-2.136.924,2.787,2.787,0,0,1-2.115-.921c-2.24-2.357-2.091-8.26-2.067-8.938q.117-.795.249-1.562l4.934-1.48L601.465,977c.021.252.04.506.06.761C601.534,978.276,601.585,984.405,599.237,986.818Zm-1.546-20.909a11.589,11.589,0,0,0,3.192-.444l-.167,2.337a17.225,17.225,0,0,1-3.831.463l-2.2-1.525-.033-1.232A11.709,11.709,0,0,0,597.691,965.909Z" fill="#fff"/><path d="M613.626,968.791l.221-8.176-1.179-.033-.1,3.686a10.291,10.291,0,0,1-3.075.461,9.95,9.95,0,0,1-3.282-.533l-.26-3.64-1.177.084.586,8.2c-.065.529-.552,4.554-.878,8.85h0v.015c-.171,2.245-.3,4.563-.3,6.493a52.611,52.611,0,0,0,1.338,10.672,2.934,2.934,0,0,0,2.88,2.31h3.4a2.937,2.937,0,0,0,2.873-2.275,49.207,49.207,0,0,0,1.315-10.707C615.984,977.969,613.881,969.762,613.626,968.791Zm-1.427,18.03a2.789,2.789,0,0,1-2.116.921,2.855,2.855,0,0,1-2.136-.924c-2.347-2.412-2.3-8.538-2.288-9.053q.03-.383.06-.762l3.364-2.162,4.934,1.481c.086.51.17,1.031.248,1.559C614.289,978.547,614.441,984.462,612.2,986.821Zm-2.706-20.912a11.718,11.718,0,0,0,3.042-.4l-.034,1.233-2.2,1.524a17.174,17.174,0,0,1-3.831-.463l-.167-2.336A11.641,11.641,0,0,0,609.493,965.909Z" fill="#fff"/></g></g></svg>