<svg xmlns="http://www.w3.org/2000/svg" width="33.486" height="31.482" viewBox="0 0 33.486 31.482"><path d="M55.777,697.02v3.048H45.756V697.02a2.194,2.194,0,0,1,.042-.543.312.312,0,0,1,.042-.209c0-.083.041-.167.041-.25a4.976,4.976,0,0,1,2.38-3.3,3.7,3.7,0,0,1,2.3-6.388h.209a1.7,1.7,0,0,1,.459.042h.125a1.213,1.213,0,0,1,.376.083h.083a3.97,3.97,0,0,1,.877.376h0a3.7,3.7,0,0,1,1.837,3.173,3.784,3.784,0,0,1-1.169,2.714A4.966,4.966,0,0,1,55.777,697.02Zm-23.465-.794c0-.083-.042-.167-.042-.25a4.97,4.97,0,0,0-2.38-3.3,3.7,3.7,0,0,0-2.3-6.388h-.209a1.709,1.709,0,0,0-.46.042H26.8a1.248,1.248,0,0,0-.376.083h-.083a3.99,3.99,0,0,0-.877.376h0a3.7,3.7,0,0,0-1.837,3.173,3.782,3.782,0,0,0,1.169,2.714,4.985,4.985,0,0,0-2.5,4.343v3.048H32.312V697.02a2.194,2.194,0,0,0-.042-.543C32.353,696.352,32.353,696.31,32.312,696.226Zm3.632-22.045a2.358,2.358,0,0,0,.251.334l.083.083a1.278,1.278,0,0,0,.334.334,4.985,4.985,0,0,0-2.505,4.343v3.048H44.128v-3.048A4.964,4.964,0,0,0,42,675.183h0l-.375-.251.334-.334.083-.083c.084-.126.167-.209.251-.334v-.042a6.112,6.112,0,0,0,.417-.919h0a3.536,3.536,0,0,0,.125-.96,3.674,3.674,0,1,0-7.348,0,2.874,2.874,0,0,0,.459,1.921Zm-8.267,10.856a11.45,11.45,0,0,1,5.971-8.852,6.623,6.623,0,0,1,1.169-1.5,3.359,3.359,0,0,1-.459-1.128,13.646,13.646,0,0,0-8.81,11.817,4.653,4.653,0,0,1,1.837-.376A.614.614,0,0,0,27.677,685.037Zm5.929,11.356c0,.209.042.418.042.627v1.712a13.635,13.635,0,0,0,10.856,0V697.02a3.224,3.224,0,0,1,.041-.627,11.544,11.544,0,0,1-10.939,0Zm16.868-11.356h.293a4.388,4.388,0,0,1,1.837.375,13.581,13.581,0,0,0-8.81-11.816,6.4,6.4,0,0,1-.459,1.127,5.86,5.86,0,0,1,1.169,1.5A11.378,11.378,0,0,1,50.474,685.037Z" transform="translate(-22.291 -668.586)" fill="#4B0082"/></svg>