<svg xmlns="http://www.w3.org/2000/svg" width="55" height="55" viewBox="0 0 55 55"><path d="M27.5,0A27.5,27.5,0,1,1,0,27.5,27.5,27.5,0,0,1,27.5,0Z" fill="indigo"/><g transform="translate(-644.5 -89.5)"><path d="M680.37,106.89c.748-.509,2.779,1.446,3.706-.5s-1.246-3.466-1.246-3.466a3.288,3.288,0,0,0-3.315,1.227S679.622,107.4,680.37,106.89Z" fill="#fff"/><path d="M669.193,102.761l.047-.019.051,0s.054,0,.149,0a4.3,4.3,0,0,1,1.779.366,3.555,3.555,0,1,0-4.012,2.379A3.326,3.326,0,0,1,669.193,102.761Z" fill="#fff"/><path d="M661.631,106.151a1.35,1.35,0,0,0-.669,1.168,1.5,1.5,0,0,0,.2.736,2.8,2.8,0,0,0,.468.591,11.147,11.147,0,0,0,.977.843c1.083.847,2.421,1.732,2.435,1.742a1.266,1.266,0,0,0,1.679-.255s1.043-1.278,2.095-2.556l.318-.384a8.448,8.448,0,0,1-1.864-1.714c-.621.751-1.284,1.559-1.772,2.156-.433-.3-.946-.676-1.377-1.015-.166-.131-.321-.259-.45-.371a1.254,1.254,0,0,0-.063-.288c.384.217.671.381.708.41.3.239.688.525,1.124.836q.648-.792,1.179-1.436l-3.554-.79a1.838,1.838,0,0,0-.964.14l.018.01A1.507,1.507,0,0,0,661.631,106.151Z" fill="#fff"/><path d="M668.623,117.154c-1.087-3.594-.234-5.415,1.29-7.85l9.773-2.409a6.779,6.779,0,0,1-.476-2.486l-6.487,1.6c-.273.771-1.117,1.088-1.732,1.318-.369.138-.787.294-.84.463a.54.54,0,0,1-.529.4.692.692,0,0,1-.184-.03l-.378.458c-1.022,1.241-2.058,2.51-2.094,2.554a1.582,1.582,0,0,1-2.1.319l-.021-.014c-.331-.221-1.487-1-2.433-1.742a11.249,11.249,0,0,1-1.007-.87l-.018-.018c-.075-.078-.428-.495-.778-.912-.6,3.592-.074,6,.776,9.542.007.032.012.063.02.095v0h0a19.025,19.025,0,0,1,.433,4.3,24.424,24.424,0,0,1-2.315,10.367,1.975,1.975,0,1,0,3.576,1.678,28.375,28.375,0,0,0,2.689-12.045c0-.678-.025-1.3-.064-1.869.027.012.052.026.08.038a4.794,4.794,0,0,1,1.62,1.428,9.065,9.065,0,0,1,1.6,5.677,21.639,21.639,0,0,1-.779,5.434,1.976,1.976,0,0,0,1.413,2.41,2,2,0,0,0,.5.064,1.977,1.977,0,0,0,1.911-1.478,25.6,25.6,0,0,0,.907-6.43,12.8,12.8,0,0,0-2.665-8.39A9.368,9.368,0,0,0,668.623,117.154Z" fill="#fff"/><path d="M669.85,107.695c.27-.864,3.075-.594,2.59-2.7s-3.13-1.943-3.13-1.943a3.289,3.289,0,0,0-1.834,3.022S669.58,108.558,669.85,107.695Z" fill="#fff"/></g></svg>