<svg xmlns="http://www.w3.org/2000/svg" width="14.515" height="32.85" viewBox="0 0 14.515 32.85"><path d="M249.087,679.089V676.8a.764.764,0,0,1,1.528,0v2.291a1.149,1.149,0,0,0,1.146,1.146,2.657,2.657,0,0,1,2.674,2.674v1.566c-.267,0-.5-.038-.764-.038a5.158,5.158,0,0,0-.764.038v-1.566a1.125,1.125,0,0,0-1.146-1.146A2.658,2.658,0,0,1,249.087,679.089ZM254.435,686v3.132a2.67,2.67,0,0,1,1.91,2.56v1.528a2.67,2.67,0,0,1-1.91,2.559v3.17a.764.764,0,0,1-1.528,0v-3.17a2.671,2.671,0,0,1-1.91-2.559V691.7a2.672,2.672,0,0,1,1.91-2.56V686a7.281,7.281,0,0,0-6.493,7.22v8.4a7.257,7.257,0,1,0,14.515,0v-8.4A7.282,7.282,0,0,0,254.435,686Zm-1.91,5.692v1.528a1.146,1.146,0,0,0,2.292,0V691.7a1.146,1.146,0,0,0-2.292,0Z" transform="translate(-246.414 -676.034)" fill="indigo"/></svg>