<svg xmlns="http://www.w3.org/2000/svg" width="55" height="55" viewBox="0 0 55 55"><path d="M27.5,0A27.5,27.5,0,1,1,0,27.5,27.5,27.5,0,0,1,27.5,0Z" fill="indigo"/><g transform="translate(-582.5 -1012.559)"><path d="M590.453,1031.638s-1.283.214-1.016,2.138c1.016,1.39,2.3,3.1,2.3,3.1s4.117,5.078,4.758,4.971,8.552-4.758,8.552-4.758,1.444,2.94,4.223,2.513c-1.143.589-3.4,1.637-4.7,2.23a2.5,2.5,0,0,0-1.458,2.045,5.241,5.241,0,0,0,.062,1.337c.321,1.871,1.015,6.361,1.015,6.361s.749,3.528-.213,4.222-4.277,1.336-3.9,2.032,6.788.534,6.788.534.855-.053,0-2.352c.161-2.513.214-5.72.214-5.72a7.585,7.585,0,0,0,.182-4,.646.646,0,0,1,.5-.8,9.042,9.042,0,0,1,3.381-.006s11.653,1.176,10.691-4.65c-1.015-4.49-4.062-4.7-6.628-6.362a19.81,19.81,0,0,1-3.635-2.833s2.091-.67,4.054-1.415a2.378,2.378,0,0,1,1.534-.057c2.523.763,5.826,1.658,6.6,1.9a3.526,3.526,0,0,0,2.137,1.657c.481.053,1.39-1.657.7-2.138a3.929,3.929,0,0,0-2.3-.749l-7.109-3.207s-.534-.481-1.872,0a36.089,36.089,0,0,1-5.665,1.39,9.163,9.163,0,0,0-2.673,1.07l-.642.427-1.175-.748s1.443-1.657,1.336-2.352-1.016-3.689-4.7-2.406-2.085,6.628-2.085,6.628a4.307,4.307,0,0,0,1.925.053,15.277,15.277,0,0,1,2.192,1.6,7.1,7.1,0,0,0-2.566,2.352,25.518,25.518,0,0,0-3.189,2.376,1.206,1.206,0,0,1-1.421.1,15.814,15.814,0,0,1-3.729-2.954C592.056,1033.883,591.147,1031.8,590.453,1031.638Z" transform="translate(0 0)" fill="#fff"/><path d="M621.38,1048.143l-2.454,3.192s5.613.962,6.254,1.283,3.528.428,4.063.749-1.07,3.154-1.07,3.9a3.031,3.031,0,0,1-.641,1.55s-2.192.16-2.353-.749c.963-.32,1.711-.16,1.5-.588s0-2.458-1.5-2.619-8.766-.321-10.1.053-1.978-1.977-1.925-2.619c.034-.4.38-1.926.635-3.016a1.283,1.283,0,0,1,1.4-.981,11.817,11.817,0,0,0,5.822-.612A.3.3,0,0,1,621.38,1048.143Z" transform="translate(-1.907 -1.844)" fill="#fff"/></g></svg>