<svg xmlns="http://www.w3.org/2000/svg" width="55" height="55" viewBox="0 0 55 55"><circle cx="27.5" cy="27.5" r="27.5" fill="indigo"/><g transform="translate(14 14)"><path d="M10.056.359h0A4.8,4.8,0,0,1,8.376.042C5.031,2.958,1.968,5.5.942,6.905-.052,8.266-.35,9.595.491,10.482s2.1.573,3.391-.476C5.468,8.717,8.58,4.385,12,.129L11.892,0a5.239,5.239,0,0,1-1.836.359" transform="translate(0 16)" fill="#fff"/><path d="M.4,10.9,2.1,12.6a.611.611,0,0,1,.152.043,3.868,3.868,0,0,0,4.406-.831l6.123-6.371a.754.754,0,0,0,.046-1.011.74.74,0,0,0-1.043-.089c-.015.013-.03.026-.044.04L6.191,9.93a.764.764,0,0,1-1.013.081.735.735,0,0,1-.107-1.034c.016-.02.033-.039.051-.056l5.55-5.547a.764.764,0,0,0,.081-1.013A.737.737,0,0,0,9.661,2.3L4.111,7.851A.764.764,0,0,1,3.1,7.931.735.735,0,0,1,2.991,6.9a.744.744,0,0,1,.051-.057L8.6,1.282A.751.751,0,0,0,8.666.273.741.741,0,0,0,7.623.167.536.536,0,0,0,7.581.2L1.187,6.344a3.864,3.864,0,0,0-.832,4.4A.6.6,0,0,1,.4,10.9" transform="translate(14 0)" fill="#fff"/><path d="M26.471,24.435,2.651.578C1.581-.494.033-.076,0,1.838c-.045,2.7,1.1,6.229,4.843,10.222A11.908,11.908,0,0,0,8.293,14.9a4.1,4.1,0,0,0,3.676.212.909.909,0,0,1,1.078.323c5.868,6.649,8.575,9.25,10.925,10.954s3.89-.56,2.5-1.953" transform="translate(0 0)" fill="#fff"/></g></svg>