<svg xmlns="http://www.w3.org/2000/svg" width="55" height="55" viewBox="0 0 55 55"><path d="M27.5,0A27.5,27.5,0,1,1,0,27.5,27.5,27.5,0,0,1,27.5,0Z" fill="indigo"/><g transform="translate(-944.5 -666.092)"><g transform="translate(957.603 674.953)"><path d="M972.39,686.53c-8.167,0-14.786-4.118-14.786-.6,0,2.588,3.583,4.811,8.728,5.808.841-.71,3.234-1.221,6.059-1.221s5.218.511,6.061,1.221c5.143-1,8.726-3.22,8.726-5.808C987.177,682.412,980.555,686.53,972.39,686.53Z" transform="translate(-957.603 -677.516)" fill="#fff"/><path d="M981.915,682.087c-.483-2.952-1.6-7.456-3.755-7.116a19.162,19.162,0,0,0-2.726.55,19.11,19.11,0,0,0-2.725-.55c-2.162-.34-3.273,4.164-3.755,7.116a29.144,29.144,0,0,0,12.96,0Z" transform="translate(-960.648 -674.953)" fill="#fff"/></g><g transform="translate(959.286 690.411)"><path d="M978.832,696.1l-12.05,1.8a1.559,1.559,0,0,0-1.334,1.556v11.294a4.546,4.546,0,0,0-2.268-.133c-2.134.422-3.579,2.2-3.223,4s2.357,2.912,4.491,2.49a3.777,3.777,0,0,0,3.268-3.424V702.389l10.649-1.6v7.692a4.544,4.544,0,0,0-2.268-.133c-2.134.422-3.579,2.2-3.223,4s2.356,2.912,4.491,2.49a3.777,3.777,0,0,0,3.268-3.424V697.654A1.563,1.563,0,0,0,978.832,696.1Z" transform="translate(-959.903 -696.077)" fill="#fff"/></g></g></svg>