<svg xmlns="http://www.w3.org/2000/svg" width="55" height="55" viewBox="0 0 55 55"><path d="M27.5,0A27.5,27.5,0,1,1,0,27.5,27.5,27.5,0,0,1,27.5,0Z" fill="indigo"/><g transform="translate(-658.5 -950.5)"><path d="M686.008,964.005c-3.125,0-5.658-1.575-5.658-.229,0,.99,1.371,1.841,3.34,2.223a5.979,5.979,0,0,1,4.638,0c1.968-.382,3.339-1.233,3.339-2.223C691.667,962.43,689.133,964.005,686.008,964.005Z" fill="#fff"/><path d="M688.488,963.286c-.185-1.13-.613-2.853-1.436-2.723a2.686,2.686,0,0,1-2.087,0c-.827-.13-1.252,1.593-1.436,2.723a11.158,11.158,0,0,0,4.959,0Z" fill="#fff"/><circle cx="2.58" cy="2.58" r="2.58" transform="translate(683.428 965.982)" fill="#fff"/><path d="M693.919,983.468l-5.364-2.615.713-6.654.136-1.087,3.4-3.87a.894.894,0,0,0,.238-.51,1.091,1.091,0,0,0-.1-1.018l-2.513-3.463a1.121,1.121,0,1,0-1.833,1.29l2,2.818-2.92,3.327H683.36a1.016,1.016,0,0,0-.781.374l-3.734,4.278a1.149,1.149,0,0,0-.238.984,1.68,1.68,0,0,0,.17.544l2.478,3.463a1.13,1.13,0,0,0,1.562.271c.068-.034.1-.1.136-.136v14.294a1.426,1.426,0,1,0,2.852,0V983.841h.577l4.583,1.6-3.6,4.176a1.378,1.378,0,0,0,.135,2,1.438,1.438,0,0,0,2-.136l4.957-5.738h0a1.219,1.219,0,0,0,.237-.339A1.528,1.528,0,0,0,693.919,983.468Zm-12.9-6.315,1.9-2.173v4.855Z" fill="#fff"/></g></svg>