<svg xmlns="http://www.w3.org/2000/svg" width="55" height="55" viewBox="0 0 55 55"><g transform="translate(-499 -833)"><g transform="translate(499 833)"><circle cx="27.5" cy="27.5" r="27.5" fill="indigo"/></g><g transform="translate(-233.5 -502.5)"><circle cx="4.174" cy="4.174" r="4.174" transform="translate(749.963 1343.114)" fill="#fff"/><circle cx="4.174" cy="4.174" r="4.174" transform="translate(764.002 1343.114)" fill="#fff"/><path d="M772.113,1352.41h-1.328l-2.609,3.747-2.609-3.747h-1.328a2.8,2.8,0,0,0-2.8,2.8v1.9l-1.613-3.841a1.392,1.392,0,0,0-1.28-.854h0a.824.824,0,0,0-.569.19,7.381,7.381,0,0,1-3.795,1.09,6.959,6.959,0,0,1-3.794-1.09,1.245,1.245,0,0,0-1.85.664l-4.221,10.2a1.433,1.433,0,0,0,.759,1.85,1.107,1.107,0,0,0,.521.095,1.347,1.347,0,0,0,1.281-.854l3.32-7.968.664,6.071a3.9,3.9,0,0,1-.1,1.28l-2.94,8.822a.559.559,0,0,0,.521.759h1.85a.563.563,0,0,1,.569.474l1.518,9.249a.564.564,0,0,0,.569.475h2.7a.564.564,0,0,0,.569-.475l1.518-9.249a.563.563,0,0,1,.569-.474h1.8a.56.56,0,0,0,.522-.759l-2.941-8.869a2.37,2.37,0,0,1-.095-1.281l.617-6.023,3.272,7.873v2.893a2.858,2.858,0,0,0,2.467,2.8l1.186,12.758a.867.867,0,0,0,.853.759h4.554a.868.868,0,0,0,.853-.759l1.186-12.758a2.857,2.857,0,0,0,2.466-2.8v-12.142A2.813,2.813,0,0,0,772.113,1352.41Z" fill="#fff"/></g></g></svg>