<svg xmlns="http://www.w3.org/2000/svg" width="55" height="55" viewBox="0 0 55 55"><path d="M27.5,0A27.5,27.5,0,1,1,0,27.5,27.5,27.5,0,0,1,27.5,0Z" fill="indigo"/><g transform="translate(-457.5 -81.898)"><g transform="translate(467.178 96.653)"><path d="M478.284,106.178l-.04-.04a.731.731,0,0,0,.619-.722v-2.922a.73.73,0,0,0-.73-.73h-1.965L475.2,97.23a.731.731,0,0,0-.714-.577H473.02a.73.73,0,0,0-.714.577l-.972,4.535h-1.965a.73.73,0,0,0-.73.73v2.922a.731.731,0,0,0,.619.722l-.041.04a6.945,6.945,0,0,0-2.04,5.081v6.574a3.651,3.651,0,0,0,3.649,3.65h5.848a3.649,3.649,0,0,0,3.649-3.65v-6.574A6.942,6.942,0,0,0,478.284,106.178Zm-.882,9.1a.73.73,0,0,1-.73.73H470.83a.73.73,0,0,1-.73-.73v-3.651a.73.73,0,0,1,.73-.73h5.842a.73.73,0,0,1,.73.73Z" transform="translate(-467.178 -96.653)" fill="#fff"/></g><g transform="translate(481.001 96.652)"><path d="M491.531,105.115a2.91,2.91,0,0,0,1.119-1.13v0c.5-.4,1.135-.172,1.507.471.019-.011.044-.022.064-.034a6.417,6.417,0,0,1,.393.787c.317-.558.925-1.545.971-1.571-1.111-1.923-1.615-1.649-2.983-4.148-.046-.09-.094-.181-.145-.269a4.82,4.82,0,0,0-3.983-2.569,3.127,3.127,0,0,0-1.577.413c-1.788,1.033-2.2,3.671-.914,5.894a4.815,4.815,0,0,0,3.978,2.569A3.107,3.107,0,0,0,491.531,105.115Zm-4.251-2.9c-.853-1.477-.686-3.238.365-3.845a1.639,1.639,0,0,1,.828-.213,3.388,3.388,0,0,1,2.685,1.819c.853,1.478.685,3.239-.365,3.845a1.631,1.631,0,0,1-.828.213A3.384,3.384,0,0,1,487.28,102.21Z" transform="translate(-485.233 -96.652)" fill="#fff"/><path d="M501.222,111.129a3.912,3.912,0,0,1-.3.64L499.634,114l6.277,10.873c.844-.872,1.415-3.173-.23-6.023Z" transform="translate(-488.609 -100.046)" fill="#fff"/><path d="M505.882,97.066a3.091,3.091,0,0,0-1.005-.364,4.625,4.625,0,0,0-4.556,2.52c-.051.09-.1.179-.145.269-1.367,2.5-1.871,2.225-2.982,4.148l.077.044-6.8,11.776c-1.645,2.85-1.075,5.151-.231,6.023l7.747-13.419c.958-1.659-.234-2.259.3-3.192l.26-.449c.019.011.051.023.07.034.372-.643,1.132-.871,1.508-.471v0a2.9,2.9,0,0,0,1.118,1.13,3.017,3.017,0,0,0,1,.364,4.62,4.62,0,0,0,4.553-2.519C508.081,100.737,507.669,98.1,505.882,97.066Zm-8.3,10.376a.75.75,0,1,1-.275-1.024A.75.75,0,0,1,497.577,107.442Zm7.919-5.231a3.2,3.2,0,0,1-3,1.792,1.572,1.572,0,0,1-.516-.186c-1.05-.607-1.218-2.368-.365-3.846a3.2,3.2,0,0,1,3-1.792,1.558,1.558,0,0,1,.515.187,1.97,1.97,0,0,1,.877,1.431A3.79,3.79,0,0,1,505.5,102.21Z" transform="translate(-486.214 -96.652)" fill="#fff"/></g></g></svg>