<svg xmlns="http://www.w3.org/2000/svg" width="55" height="55" viewBox="0 0 55 55"><path d="M27.5,0A27.5,27.5,0,1,1,0,27.5,27.5,27.5,0,0,1,27.5,0Z" fill="indigo"/><g transform="translate(-558.5 -84.284)"><path d="M575.764,106.521l1.868-3.176-1.743-2.864h-2.74a.934.934,0,1,1,0-1.868H580a.934.934,0,1,1,0,1.868H578.13l1.058,1.806h12.2L589.96,99.8a.917.917,0,0,1,.809-1.37h5.105a.934.934,0,0,1,0,1.868h-3.486c1.37,2.3,2.739,4.545,4.109,6.849a8.933,8.933,0,1,1-2.49,14.383,9.032,9.032,0,0,1,.871-13.449l-1.868-3.114-6.475,10.211a.94.94,0,0,1-.809.5h-4.67a8.96,8.96,0,1,1-5.292-9.153Zm8.281,7.222-5.292-8.592-1.37,2.3a8.961,8.961,0,0,1,3.673,6.288Zm-3.735-9.589,5.417,8.779,5.6-8.779Zm-8.157,11.519a.947.947,0,0,1-.747-1.495l3.424-5.977a7.048,7.048,0,1,0-2.677,13.573,7.108,7.108,0,0,0,7.036-6.1Zm1.619-1.93h5.417a7.008,7.008,0,0,0-2.74-4.607Zm23.722-4.981,3.611,5.977c.685,1-.933,1.992-1.557.934l-3.673-5.977a7.079,7.079,0,1,0,11.519,5.479A7.044,7.044,0,0,0,597.494,108.762Z" fill="#fff"/></g></svg>