<svg xmlns="http://www.w3.org/2000/svg" width="55" height="55" viewBox="0 0 55 55"><path d="M27.5,0A27.5,27.5,0,1,1,0,27.5,27.5,27.5,0,0,1,27.5,0Z" fill="indigo"/><g transform="translate(-648.5 -280.876)"><g transform="translate(662.873 297.809)"><path d="M679.711,302.627l-4.17,3.849a2.332,2.332,0,0,1-1.551.588h-3.1v1.176a9.268,9.268,0,0,0-2.993-.534,8.664,8.664,0,0,0-4.383,1.176v-2.672a3.72,3.72,0,0,1,3.9-3.689h5.666l3.528-3.207a2.28,2.28,0,0,1,3.207.16A2.214,2.214,0,0,1,679.711,302.627Z" transform="translate(-663.514 -298.731)" fill="#fff"/></g><g transform="translate(680.994 294.702)"><g transform="translate(0 11.974)"><path d="M696.949,309.207H685.457a.535.535,0,1,0,0,1.069h.8l1.069,8.126a.569.569,0,0,0,.534.481h6.682a.569.569,0,0,0,.535-.481l.587-4.33h0l.482-3.741h.8a.505.505,0,0,0,.535-.535A.55.55,0,0,0,696.949,309.207Zm-6.255,1.069v3.208h-2.886l-.427-3.208Zm-2.78,4.277h2.78v3.207h-2.351Zm3.849,3.207v-3.207h2.78l-.427,3.207Zm2.887-4.276h-2.887v-3.208h3.315Z" transform="translate(-684.922 -309.207)" fill="#fff"/></g><g transform="translate(0.535)"><path d="M693.358,298.964a3.9,3.9,0,1,1-3.9-3.9A3.924,3.924,0,0,1,693.358,298.964Z" transform="translate(-685.554 -295.061)" fill="#fff"/></g></g><g transform="translate(663.674 292.725)"><path d="M671.73,296.36a3.635,3.635,0,1,1-3.635-3.635A3.638,3.638,0,0,1,671.73,296.36Z" transform="translate(-664.461 -292.725)" fill="#fff"/></g><g transform="translate(659.345 307.853)"><path d="M667.257,310.6a7.938,7.938,0,1,0,7.965,7.911A7.927,7.927,0,0,0,667.257,310.6Zm0,10.317a2.352,2.352,0,1,1,2.352-2.352A2.339,2.339,0,0,1,667.257,320.914Z" transform="translate(-659.346 -310.597)" fill="#fff"/></g><g transform="translate(659.338 301.27)"><g transform="translate(13.21 14.388)"><path d="M682.053,323.559l-3.367-3.742a8.936,8.936,0,0,1-1.5,5.078l1.177,1.283h-2.192a11.861,11.861,0,0,1-1.23,1.069h4.865a2.324,2.324,0,0,0,2.138-.481A2.276,2.276,0,0,0,682.053,323.559Z" transform="translate(-674.944 -319.817)" fill="#fff"/></g><path d="M659.826,302.828a.51.51,0,0,0-.481.588l.587,8.713a10.642,10.642,0,0,1,1.016-1.177l-.534-7.644A.483.483,0,0,0,659.826,302.828Z" transform="translate(-659.338 -302.819)" fill="#fff"/></g></g></svg>