<svg xmlns="http://www.w3.org/2000/svg" width="55" height="55" viewBox="0 0 55 55"><path d="M27.5,0A27.5,27.5,0,1,1,0,27.5,27.5,27.5,0,0,1,27.5,0Z" fill="indigo"/><g transform="translate(-946.5 -390.355)"><g transform="translate(969.995 399.236)"><path d="M976.461,418.674V407.607l14.122-2.123v10.2a6.033,6.033,0,0,0-3.007-.177c-2.83.56-4.746,2.919-4.275,5.307s3.125,3.862,5.955,3.3c2.535-.5,4.334-2.447,4.334-4.54V401.327a2.072,2.072,0,0,0-2.388-2.064l-15.979,2.388a2.066,2.066,0,0,0-1.768,2.063v13.414" transform="translate(-973.454 -399.236)" fill="#fff"/></g><g transform="translate(957.603 413.95)"><path d="M964.039,421.241l.49-.491-3.189-2.694m17.9.062-3.19,2.7.491.491Zm-9.249.769v2.359a5.8,5.8,0,1,0,.479,0v-2.359Zm.237,2.764c.08,0,.16.01.238.013v.789c.544.006,1.087.036,1.627.082-.019-.188-.036-.376-.053-.564.151.054.3.119.442.184.015.142.032.285.045.425.292.031.579.073.87.119a5.282,5.282,0,0,1,.638.536q-.732-.138-1.464-.221c.044.532.075,1.065.1,1.6.534.027,1.066.06,1.6.106-.055-.488-.129-.978-.217-1.464a5.168,5.168,0,0,1,.536.646c.045.287.088.574.119.863.136.013.275.026.409.041a4.453,4.453,0,0,1,.18.442c-.182-.019-.364-.037-.548-.053.048.544.073,1.085.082,1.627h.765c0,.071.012.144.012.217s-.01.14-.012.213h-.765c0,.561-.031,1.12-.082,1.681.176-.015.352-.034.528-.053a4.674,4.674,0,0,1-.188.446c-.127.015-.256.028-.384.041-.03.27-.073.539-.115.81a5.691,5.691,0,0,1-.527.629c.086-.465.154-.93.209-1.4-.532.046-1.065.08-1.6.106-.027.534-.059,1.067-.106,1.6.467-.052.933-.124,1.4-.209a5.5,5.5,0,0,1-.642.532c-.266.04-.531.081-.8.11-.013.124-.024.249-.038.372-.144.067-.295.13-.446.185.019-.17.034-.342.049-.511-.542.048-1.085.076-1.627.082v.74c-.077,0-.158.013-.238.013-.063,0-.127-.01-.188-.013v-.74c-.561,0-1.12-.032-1.68-.082.016.17.034.342.048.511-.15-.055-.3-.117-.446-.185-.013-.124-.026-.249-.037-.372-.266-.029-.532-.07-.8-.11a5.564,5.564,0,0,1-.642-.532c.465.084.928.155,1.395.209-.045-.532-.077-1.065-.106-1.6-.534-.027-1.063-.058-1.595-.106.052.469.125.933.209,1.4a5.331,5.331,0,0,1-.528-.629c-.041-.271-.085-.54-.114-.81-.13-.012-.259-.026-.389-.041-.067-.145-.13-.293-.184-.446.174.019.349.038.527.053-.05-.561-.077-1.12-.081-1.681h-.765c0-.071-.013-.139-.013-.213s.008-.143.013-.217h.765c.006-.544.034-1.085.081-1.627l-.548.053a4.472,4.472,0,0,1,.181-.442c.134-.015.272-.028.409-.041.031-.289.072-.576.118-.863a5.5,5.5,0,0,1,.536-.646c-.091.486-.162.976-.217,1.464.532-.044,1.061-.079,1.595-.106.029-.534.06-1.066.106-1.6-.488.055-.978.131-1.464.221a5.365,5.365,0,0,1,.634-.536c.293-.044.582-.088.875-.119.013-.14.027-.285.041-.425.145-.066.3-.13.446-.184-.019.188-.036.376-.052.564.561-.048,1.119-.078,1.68-.082v-.794c.061,0,.125-.008.188-.008Zm-.184,1.234c-.575.006-1.152.034-1.725.086-.048.54-.081,1.085-.11,1.627.611-.027,1.224-.045,1.836-.045Zm.425,0v1.668c.594,0,1.188.022,1.783.045-.029-.542-.064-1.087-.11-1.627-.557-.05-1.113-.08-1.672-.086Zm-.425,2.09c-.618,0-1.234.02-1.852.045-.023.6-.041,1.2-.045,1.8h1.9v-1.848Zm.425,0v1.844h1.848c0-.6-.024-1.2-.049-1.8C971.67,425,971.071,424.98,970.47,424.978Zm-2.7.061c-.542.03-1.083.063-1.623.111-.055.558-.084,1.115-.09,1.672h1.668C967.725,426.227,967.742,425.636,967.767,425.039Zm4.927,0c.027.595.045,1.186.045,1.783h1.668c-.006-.559-.034-1.114-.086-1.672C973.782,425.1,973.236,425.069,972.694,425.039Zm-10.933,1.6-4.158.348,4.158.347Zm4.293.605c.006.574.034,1.152.086,1.725.542.045,1.087.081,1.627.111-.025-.611-.045-1.225-.045-1.836Zm2.094,0c0,.62.022,1.235.045,1.852q.926.041,1.852.045v-1.9Zm2.318,0v1.9h0c.6,0,1.2-.02,1.8-.045q.041-.925.045-1.852Zm2.273,0c0,.611-.02,1.225-.045,1.836.544-.03,1.089-.063,1.627-.111.055-.572.084-1.152.09-1.725Zm-4.53,2.277c.029.543.063,1.087.11,1.628.574.054,1.15.081,1.725.085V429.57C969.433,429.567,968.82,429.549,968.209,429.524Zm4.044,0q-.889.041-1.783.045v1.668c.559-.006,1.116-.033,1.672-.085.046-.54.081-1.085.11-1.628Zm-8.279,3.238-2.7,3.189,3.189-2.7Zm12.5.07-.486.486,3.185,2.7-2.7-3.185Zm-6.611,2.7.348,4.162.343-4.162Z" transform="translate(-957.603 -418.056)" fill="#fff"/></g></g></svg>