<svg xmlns="http://www.w3.org/2000/svg" width="55" height="55" viewBox="0 0 55 55"><path d="M27.5,0A27.5,27.5,0,1,1,0,27.5,27.5,27.5,0,0,1,27.5,0Z" fill="indigo"/><g transform="translate(-552.5 -549.232)"><path d="M597.474,566.244a5.542,5.542,0,0,1-2.116-.461,5.162,5.162,0,0,0-2.194-.5,5.074,5.074,0,0,0-2.155.5,5.084,5.084,0,0,1-4.233,0,5.08,5.08,0,0,0-2.155-.5,5.154,5.154,0,0,0-2.194.5,5.084,5.084,0,0,1-4.233,0,5.08,5.08,0,0,0-2.155-.5,5.157,5.157,0,0,0-2.193.5,5.083,5.083,0,0,1-2.078.461,5.167,5.167,0,0,1-2.116-.461,5.159,5.159,0,0,0-2.193-.5,5.074,5.074,0,0,0-2.155.5,5.552,5.552,0,0,1-2.117.461v-2.771a5,5,0,0,0,2.117-.461,4.911,4.911,0,0,1,2.155-.462,5.006,5.006,0,0,1,2.193.462,4.674,4.674,0,0,0,2.116.461,4.587,4.587,0,0,0,2.078-.461,5.166,5.166,0,0,1,2.193-.462,4.911,4.911,0,0,1,2.155.462,5.084,5.084,0,0,0,4.233,0,5,5,0,0,1,2.194-.462,5.075,5.075,0,0,1,2.155.462,5.084,5.084,0,0,0,4.233,0,5.073,5.073,0,0,1,2.155-.462,5.01,5.01,0,0,1,2.194.462,4.828,4.828,0,0,0,2.116.461Zm-28.437,9.735h-5.85v-5.233h5.85Zm20.471,13.045a1.844,1.844,0,0,1-.539,1.328,1.751,1.751,0,0,1-1.308.557,2.2,2.2,0,0,1-.962-.269l-9.7-5.157H563.187v-7.657h7.62a6.38,6.38,0,0,1,3.078.77l14.661,8.812A1.693,1.693,0,0,1,589.508,589.023Zm-18.394-13.006h-.731v-5.31h.731A2.538,2.538,0,0,1,573,571.5a2.588,2.588,0,0,1,.77,1.867,2.693,2.693,0,0,1-2.656,2.655Zm8.5,4.31a4.2,4.2,0,0,1-4.233-4.233,4.15,4.15,0,0,1,1.231-3.021,4.242,4.242,0,0,1,5.811-.192,4.224,4.224,0,0,1,1.424,2.6l1.539,1.232-1.5,2.886-1.386-.423A3.915,3.915,0,0,1,579.618,580.328Z" fill="#fff"/></g></svg>