<svg xmlns="http://www.w3.org/2000/svg" width="55" height="55" viewBox="0 0 55 55"><path d="M27.5,0A27.5,27.5,0,1,1,0,27.5,27.5,27.5,0,0,1,27.5,0Z" fill="indigo"/><path d="M410.434,168.521l-3.879,3.893-3.783-.687-.68-3.783,3.879-3.893a4.238,4.238,0,0,0-3.035-1.223,7.44,7.44,0,0,0-6.1,9.922,1.164,1.164,0,0,1-.2,1.455c-.556.549-14.762,13.924-14.762,13.924a3.175,3.175,0,1,0,4.5,4.484s13.265-14.13,13.917-14.769a1.123,1.123,0,0,1,1.455-.2c2.444,1.263,5.926.165,7.731-1.642a6.847,6.847,0,0,0,2.191-4.442A4.019,4.019,0,0,0,410.434,168.521Zm-25.446,22.541a1.1,1.1,0,1,1,0-1.559A1.111,1.111,0,0,1,384.988,191.062Z" transform="translate(-368.5 -150.629)" fill="#fff"/></svg>