<svg xmlns="http://www.w3.org/2000/svg" width="55" height="55" viewBox="0 0 55 55"><path d="M27.5,0A27.5,27.5,0,1,1,0,27.5,27.5,27.5,0,0,1,27.5,0Z" fill="indigo"/><g transform="translate(-368.5 -278.267)"><path d="M404.629,294.958a.835.835,0,0,0-.731.36c.016-.027,0,.015-.022.044l-.076.131-.273.469c-.237.409-.577.993-.982,1.691-.809,1.4-1.879,3.257-2.956,5.116l-4.308,7.439a.346.346,0,0,0-.044.218l.741,5.868a.349.349,0,0,0,.4.3.308.308,0,0,0,.084-.024l5.64-2.181a.35.35,0,0,0,.174-.153s2.144-3.74,4.287-7.483c1.071-1.871,2.141-3.743,2.945-5.148.4-.7.736-1.291.971-1.7s.352-.61.372-.644a.839.839,0,0,0-.055-.818,3.118,3.118,0,0,0-.588-.731,10.8,10.8,0,0,0-2.106-1.517v-.011a.315.315,0,0,0-.065-.044,10.742,10.742,0,0,0-2.466-1.058A3.154,3.154,0,0,0,404.629,294.958ZM381.766,308.32c-.173,0-.349,0-.534.022a.351.351,0,1,0,.065.7h0a4.209,4.209,0,0,1,3.142.862,14.718,14.718,0,0,1,2.421,2.563c1.6,1.966,3.445,4.134,6.85,4.134a.349.349,0,0,0,.01-.7h-.01c-3.114,0-4.708-1.923-6.3-3.883a15.056,15.056,0,0,0-2.553-2.683,5.007,5.007,0,0,0-2.574-1C382.112,308.316,381.94,308.319,381.766,308.32Z" transform="translate(0)" fill="#fff"/></g></svg>