<svg xmlns="http://www.w3.org/2000/svg" width="55" height="55" viewBox="0 0 55 55"><path d="M27.5,0A27.5,27.5,0,1,1,0,27.5,27.5,27.5,0,0,1,27.5,0Z" fill="indigo"/><g transform="translate(-953.5 -151.566)"><path d="M1000.017,167.411c0-.812-2.6-1.543-6.012-1.624v-2.6a.812.812,0,0,0-1.625,0v2.6c-3.412.081-6.012.812-6.012,1.624s2.6,1.544,6.012,1.625V171.8l-6.987,1.218a.669.669,0,0,0-.569.812l.325,1.788a9.375,9.375,0,0,0-4.225-1.463v-2.112h1.868a.813.813,0,0,0,0-1.625h-5.281a.813.813,0,1,0,0,1.625h1.868v2.112a9.05,9.05,0,0,0-4.143,1.463h0l.325-1.95a.669.669,0,0,0-.569-.812l-7.068-1.219v-3.411c3.169.975,5.769,1.137,6.094.406.325-.894-2.356-2.519-5.931-3.818-3.656-1.219-6.744-1.544-7.068-.651-.244.813,2.032,2.356,5.2,3.494v3.737l-.406-.081a.67.67,0,0,0-.813.569l-.569,3.493a.67.67,0,0,0,.569.813l1.219.244v13l-3.9,3.9a.8.8,0,0,0,1.137,1.138l2.681-2.681v2.437a.812.812,0,1,0,1.625,0v-2.437l2.681,2.681a.8.8,0,0,0,1.137-1.138l-3.9-3.9V176.673l5.118.893a9.332,9.332,0,0,0,2.275,13.974h0l-1.137,2.274a.979.979,0,0,0,.244,1.138c.325.244.731.081.975-.325l1.218-2.438h0a8.713,8.713,0,0,0,6.987,0l1.219,2.438a.706.706,0,0,0,.975.325.875.875,0,0,0,.244-1.138l-1.137-2.274h0a9.331,9.331,0,0,0,2.274-13.974l5.119-.893v12.674l-3.9,3.9a.8.8,0,1,0,1.137,1.138l2.681-2.681v2.437a.812.812,0,1,0,1.625,0V191.7l2.681,2.681a.8.8,0,1,0,1.137-1.138l-3.9-3.9v-13l1.218-.244a.67.67,0,0,0,.569-.813l-.569-3.249a.669.669,0,0,0-.812-.569l-.487.081v-2.518C997.417,168.955,1000.017,168.305,1000.017,167.411Z" transform="translate(0 0)" fill="#fff"/></g></svg>