<svg xmlns="http://www.w3.org/2000/svg" width="32.644" height="32.644" viewBox="0 0 32.644 32.644"><path d="M306.94,680.827a16.321,16.321,0,1,0,4.781,11.542A16.211,16.211,0,0,0,306.94,680.827ZM295.4,707.5a15.093,15.093,0,0,1-11.168-4.933.471.471,0,0,1-.1-.2l-.041-.234a.469.469,0,0,0-.1-.2c-.06-.064-.14-.151-.2-.212-.047-.045-.088-.123-.05-.175s.091-.115.135-.165a.167.167,0,0,1,.186-.037l.12.057a.226.226,0,0,0,.2-.018l.141-.1a.231.231,0,0,0,.088-.185l-.05-.669-.017-.765a.373.373,0,0,1,.072-.209l.243-.29a.306.306,0,0,0,.058-.207l-.123-.847a.471.471,0,0,0-.1-.205l-.394-.442-.315-.362a1.03,1.03,0,0,0-.176-.154l-.411-.265a1.168,1.168,0,0,1-.18-.149l-.525-.555a1.1,1.1,0,0,1-.137-.19l-.2-.381a.916.916,0,0,1-.078-.22l-.056-.3-.17-.711a1,1,0,0,0-.084-.217l-.357-.639a1.275,1.275,0,0,0-.136-.191.793.793,0,0,1-.157-.226c0-.059-.2-.924-.2-.924l-.261-.888a.972.972,0,0,0-.1-.213l-.3-.468a.372.372,0,0,1-.046-.217,15.022,15.022,0,0,1,.71-2.872c.022-.061.03-.072.019-.024l-.021.086-.077.444a.278.278,0,0,0,.058.2l.079.09c.044.048.094.037.114-.025l.067-.217a.9.9,0,0,0,.035-.23V687.4a1,1,0,0,0-.032-.231L281.33,687a.4.4,0,0,1,.01-.223,15.244,15.244,0,0,1,.734-1.569.245.245,0,0,1,.17-.115.59.59,0,0,0,.214-.072l.123-.075a1.078,1.078,0,0,0,.182-.148,2.677,2.677,0,0,0,.265-.3c0-.03.279-.17.279-.214a1.678,1.678,0,0,1,.369-.245.533.533,0,0,1,.221-.057h.1a.25.25,0,0,0,.185-.1,1.68,1.68,0,0,0,.118-.19c.009-.027.131-.073.226-.1a.1.1,0,0,1,.128.08l.014.106a.12.12,0,0,0,.132.1,3.78,3.78,0,0,0,.509-.076.594.594,0,0,0-.034-.1,1.045,1.045,0,0,1-.053-.219l-.01-.09a.145.145,0,0,1,.1-.151l.047-.014a.525.525,0,0,0,.194-.119l.125-.132a.082.082,0,0,0-.024-.138l-.025-.012a.2.2,0,0,1-.1-.163.094.094,0,0,1,.116-.092l.128.021a.79.79,0,0,1,.219.077l.185.1.163.1a.105.105,0,0,1,.033.155l-.068.1a.428.428,0,0,1-.181.133l-.211.072a.258.258,0,0,0-.147.15l-.062.2a.221.221,0,0,0,.045.2l.185.2a.231.231,0,0,0,.2.061,1.222,1.222,0,0,0,.319-.094c0-.016-.012-.1-.021-.177a.442.442,0,0,1,.037-.222l.249-.491.175-.344a.7.7,0,0,1,.142-.183l.184-.161a.657.657,0,0,0,.139-.184c.085-.173.244-.5.266-.52s.227-.213.348-.325a.354.354,0,0,0,.1-.2l.009-.112a.08.08,0,0,0-.1-.091l-.346.08c-.063.015-.077-.011-.03-.056l.181-.175.317-.335a.66.66,0,0,0,.122-.2l.058-.155c.023-.061-.008-.11-.066-.11a.388.388,0,0,0-.2.071l-.281.216-.474.356a1.369,1.369,0,0,1-.2.121l-.141.068a1.787,1.787,0,0,0-.2.119l-.455.321a.433.433,0,0,1-.214.068h-.1c-.065,0-.084-.041-.043-.091l.181-.216a1.64,1.64,0,0,1,.164-.169l.471-.415.4-.369.464-.383.3-.236a.605.605,0,0,1,.209-.1l.123-.026a1.625,1.625,0,0,1,.232-.027h.067c.065,0,.094.044.065.1l-.078.158c-.03.058,0,.107.058.109a.389.389,0,0,0,.191-.048c.044-.028.1,0,.117.061v0a.26.26,0,0,1-.033.207l-.017.023a1.612,1.612,0,0,1-.153.178l-.111.108a.559.559,0,0,0-.12.2l-.069.217c-.019.062.014.093.074.068l.164-.066.222-.094a.885.885,0,0,1,.227-.055l.126-.011a1.071,1.071,0,0,0,.228-.05l.25-.094a1.076,1.076,0,0,0,.207-.109l.4-.279.348-.205a.827.827,0,0,0,.176-.152l.088-.111a.089.089,0,0,0-.032-.143l-.017-.008a.093.093,0,0,1-.047-.136,1.718,1.718,0,0,0,.111-.191l.11-.225.041-.089c.023-.048.081-.055.132-.014l.089.072a.182.182,0,0,0,.193.014l.157-.094.107-.069a.253.253,0,0,1,.208-.018l.269.115c.06.025.058.059-.005.076l-.185.05a.365.365,0,0,0-.18.122.13.13,0,0,0,.022.17.072.072,0,0,1-.018.128l-.111.053a1.119,1.119,0,0,0-.2.126l-.315.264-.255.255a.981.981,0,0,1-.187.14l-.257.142-.507.34a1.29,1.29,0,0,0-.179.151l-.088.094a2.007,2.007,0,0,0-.149.182l-.138.2-.189.265a.707.707,0,0,0-.1.211l-.02.087a.167.167,0,0,0,.077.173l.162.091a.171.171,0,0,0,.188-.025l.1-.094a2.021,2.021,0,0,0,.156-.176l.041-.055a.442.442,0,0,1,.183-.131l.2-.066a1.406,1.406,0,0,0,.214-.095l.12-.068a.526.526,0,0,1,.22-.058h.324a.548.548,0,0,0,.221-.057l.287-.159a.467.467,0,0,1,.22-.047l.3.025a.486.486,0,0,0,.222-.045l.152-.081a.881.881,0,0,0,.186-.14l.123-.126a.91.91,0,0,1,.187-.139l.314-.163a.524.524,0,0,0,.168-.153l.138-.214a1.3,1.3,0,0,1,.147-.183l.165-.165a.219.219,0,0,0,.05-.2l-.085-.285-.108-.3c-.021-.061.01-.092.071-.069l.2.076.466.2a1.417,1.417,0,0,1,.207.111l.047.031a.692.692,0,0,0,.213.091l.263.06a.463.463,0,0,0,.225-.017l.194-.076a.646.646,0,0,1,.226-.038l.215.011a.481.481,0,0,0,.22-.052l.237-.135a1.467,1.467,0,0,1,.214-.095l.174-.058a.893.893,0,0,1,.23-.039l.213,0a.145.145,0,0,0,.137-.118l.013-.077a.313.313,0,0,1,.118-.181l.083-.055a.381.381,0,0,1,.216-.052l.259.027a.289.289,0,0,0,.2-.069l.131-.125a.083.083,0,0,0-.017-.14l-.216-.125a.478.478,0,0,1-.155-.164l-.051-.1c-.03-.058,0-.094.062-.08l.683.155a1.355,1.355,0,0,1,.223.074l.212.095a.882.882,0,0,1,.195.127l.053.049a.224.224,0,0,1,.063.194l-.017.086a.112.112,0,0,1-.139.086l-.081-.022a.57.57,0,0,0-.229,0l-.389.088c-.064.014-.075.059-.024.1l.157.129a1,1,0,0,0,.2.123l.131.059a.367.367,0,0,1,.157.155l.107.228a.623.623,0,0,0,.141.182l.142.115a.955.955,0,0,1,.156.174l.135.208a1.361,1.361,0,0,0,.15.181l.185.181c.046.046.033.073-.032.06l-.3-.058a.753.753,0,0,0-.232,0l-.24.045c-.064.012-.067.041-.006.064l.111.041a.209.209,0,0,1,.126.123c.007.045-.037.093-.1.109l-.139.033a.619.619,0,0,0-.208.1l-.168.133a.189.189,0,0,0-.059.186l.029.1a.088.088,0,0,1-.085.118l-.1,0a.242.242,0,0,0-.177.107l-.044.076a.806.806,0,0,0-.081.218l-.008.041a.1.1,0,0,1-.135.082l-.171-.051a.539.539,0,0,1-.2-.118l-.093-.1c-.046-.047-.03-.092.034-.1l.231-.033a.151.151,0,0,0,.124-.135v-.015a.206.206,0,0,0-.1-.176l-.141-.082a1,1,0,0,0-.217-.088l-.2-.052a1.064,1.064,0,0,0-.232-.027l-.132,0a.946.946,0,0,1-.232-.029l-.126-.034a.484.484,0,0,0-.227,0l-.423.13a.511.511,0,0,0-.193.12l-.221.234a.441.441,0,0,0-.1.2l-.008.054a.5.5,0,0,1-.093.207l-.144.173a2.16,2.16,0,0,0-.139.19l-.065.1a.514.514,0,0,1-.168.153l-.107.055a.386.386,0,0,0-.152.161l-.052.116a.7.7,0,0,0-.052.225l-.007.207a.163.163,0,0,0,.108.152l.107.033a.439.439,0,0,0,.225,0l.187-.056a.172.172,0,0,1,.18.061,1.154,1.154,0,0,1,.106.207l.045.124a.472.472,0,0,0,.133.182l.064.049a.2.2,0,0,0,.2.016,1.254,1.254,0,0,0,.279-.18,1.288,1.288,0,0,0-.041-.283.361.361,0,0,1,.033-.217l.061-.1a.279.279,0,0,0,.014-.212l-.067-.164a.648.648,0,0,1-.038-.227c0-.1.009-.23.009-.243a3.148,3.148,0,0,1,.2-.295.388.388,0,0,1,.178-.128.127.127,0,0,1,.153.077l.02.051a.217.217,0,0,1-.036.2l-.044.05a.315.315,0,0,0-.067.206v.009a.238.238,0,0,0,.116.17l.084.042a.621.621,0,0,0,.223.055l.044,0a1.7,1.7,0,0,0,.235-.013l.1-.013a.276.276,0,0,1,.2.067l.022.02a.317.317,0,0,1,.092.16c0,.042-.04.077-.1.077h-.336a.081.081,0,0,0-.083.112l0,.011a.941.941,0,0,1,.034.231v.117a.069.069,0,0,1-.106.068l-.038-.018a.153.153,0,0,0-.161.009.213.213,0,0,0-.027.174l.024.1a.365.365,0,0,1-.025.219l-.091.174a.116.116,0,0,1-.158.048l-.065-.035a.244.244,0,0,0-.208,0l-.249.132a.28.28,0,0,1-.213.01l-.23-.1-.175-.058a.187.187,0,0,1-.118-.155l0-.045c0-.065,0-.169,0-.232a.143.143,0,0,0-.107-.142l-.036-.009a.12.12,0,0,0-.145.085l-.043.162a1.067,1.067,0,0,0-.028.232l0,.147a.151.151,0,0,1-.113.144l-.286.066a.279.279,0,0,0-.165.132l-.083.171a1.007,1.007,0,0,1-.129.194l-.117.133a.518.518,0,0,1-.19.126l-.388.132-.39.133-.366.106a.074.074,0,0,0-.04.125l.325.406a.313.313,0,0,1,.056.208l-.047.312a.134.134,0,0,1-.135.112l-.155-.006a1.992,1.992,0,0,1-.233-.025l-.481-.09-.089-.022a.159.159,0,0,0-.152.078l-.129.2a.314.314,0,0,0-.037.214l.04.168a.174.174,0,0,1-.072.177l-.036.023a.681.681,0,0,0-.166.16l-.067.1a.1.1,0,0,0,.03.153.2.2,0,0,1,.087.173l-.006.1a.178.178,0,0,0,.1.163l.151.063a2.066,2.066,0,0,1,.21.106l.107.064a.342.342,0,0,0,.216.034l.094-.022a.326.326,0,0,1,.214.038l.016.011a.159.159,0,0,0,.186-.014l.215-.193.161-.166a.2.2,0,0,0,.036-.194,2.512,2.512,0,0,1-.1-.267.813.813,0,0,1,.187-.143.94.94,0,0,1,.213-.094l.142-.04a.464.464,0,0,0,.189-.122l.047-.055a.394.394,0,0,0,.079-.209v-.066a.178.178,0,0,1,.11-.154.311.311,0,0,1,.212.017l.151.077a.234.234,0,0,0,.205-.009l.172-.107.314-.154a.12.12,0,0,1,.159.053l.042.083a.4.4,0,0,0,.159.158l.06.03a1.013,1.013,0,0,1,.195.129l.154.136.207.151c.053.038.142.095.2.128l.067.038a.21.21,0,0,1,.1.176l0,.118a.189.189,0,0,1-.116.158l-.08.03a1.64,1.64,0,0,0-.213.1l-.148.083c-.057.032-.054.079.005.105l.108.047a1.32,1.32,0,0,0,.224.069l.07.014a.194.194,0,0,0,.182-.075l.111-.161.221-.279.134-.149a.172.172,0,0,0,.02-.189l-.044-.076a.5.5,0,0,0-.161-.16l-.105-.06a.623.623,0,0,0-.219-.069h-.009a.279.279,0,0,1-.183-.108l-.037-.055a1.3,1.3,0,0,0-.153-.177l-.158-.143a.335.335,0,0,1-.094-.2l-.008-.14c0-.065.032-.1.081-.081a.877.877,0,0,1,.181.111l.371.3.2.134a1.335,1.335,0,0,0,.209.108l.229.09a.164.164,0,0,1,.1.15.772.772,0,0,0,.024.221l.025.089a.547.547,0,0,0,.113.2l.1.109a1.617,1.617,0,0,1,.146.184l.076.113a.319.319,0,0,0,.181.119l.062.01a.112.112,0,0,0,.135-.086.15.15,0,0,1,.136-.114h.023c.065,0,.076-.039.025-.08l-.036-.031a.471.471,0,0,1-.125-.158,1.235,1.235,0,0,0-.081-.163.173.173,0,0,1,0-.165.392.392,0,0,1,.159-.135l.042-.018a.625.625,0,0,1,.2-.046.247.247,0,0,1,.165.092l.023.029a.552.552,0,0,1,.092.2.857.857,0,0,0,.072.214l.024.049a1.48,1.48,0,0,0,.127.2l.054.071a.486.486,0,0,0,.183.134l.043.015a.422.422,0,0,1,.159.1.138.138,0,0,0,.155.008l.022-.01a.256.256,0,0,0,.129-.127.087.087,0,0,1,.1-.062l.078.014.158.033a.406.406,0,0,0,.3-.077l.018-.015a.527.527,0,0,1,.275-.111c.075,0,.139.039.143.085l.008.085.029.31.053.3a.59.59,0,0,1-.014.229l-.083.27-.062.162a.137.137,0,0,1-.156.083l-.258-.062a.343.343,0,0,0-.216.03l-.186.105a.53.53,0,0,1-.22.058h-.214l-.6-.044-.347-.039a.2.2,0,0,1-.147-.075.19.19,0,0,0-.147-.071l-.067-.005a.828.828,0,0,0-.232.022l-.125.035a.21.21,0,0,0-.14.145l-.008.035a.324.324,0,0,0,.038.214l.005.008a.084.084,0,0,1-.049.134l-.084.026a.286.286,0,0,1-.212-.028l-.022-.014a.675.675,0,0,0-.216-.082l-.253-.043a.27.27,0,0,1-.174-.122l0-.007a.368.368,0,0,0-.166-.146l-.12-.047a1.183,1.183,0,0,0-.226-.061l-.29-.045a.563.563,0,0,1-.211-.089l-.127-.095a.115.115,0,0,1-.023-.164l.122-.159a.153.153,0,0,0,.023-.163.178.178,0,0,1,0-.162.108.108,0,0,0-.058-.144l-.075-.037a.4.4,0,0,0-.222-.026l-.248.053a1.3,1.3,0,0,1-.233.025h-.906a.845.845,0,0,0-.229.038l-.508.175-.337.117a.592.592,0,0,1-.229.022l-.215-.028a1.493,1.493,0,0,1-.229-.052l-.071-.023a.194.194,0,0,0-.19.052l-.249.28a.625.625,0,0,1-.187.135l-.144.062a.616.616,0,0,0-.186.135l-.154.176a.363.363,0,0,0-.077.206v.148a.282.282,0,0,1-.091.192l-.245.2a.492.492,0,0,1-.208.09l-.09.013a.29.29,0,0,0-.182.114l-.076.113a.68.68,0,0,1-.164.162l-.156.1a.377.377,0,0,0-.134.176l-.033.106a.619.619,0,0,1-.115.2l-.267.291a.879.879,0,0,0-.13.194l-.053.117a.265.265,0,0,0,.005.212l.052.1a.26.26,0,0,1,.007.208.439.439,0,0,0-.028.219l.012.069a.663.663,0,0,1-.01.231l-.065.243a1.324,1.324,0,0,1-.082.22l-.118.245a.252.252,0,0,0,.006.208l0,.008a.316.316,0,0,1,.02.216l-.044.134a.232.232,0,0,0,.039.2l.477.566a1.4,1.4,0,0,1,.131.194l.3.559a.846.846,0,0,0,.142.184l.417.389a1.407,1.407,0,0,0,.186.142l.409.25a.327.327,0,0,0,.215.035l.458-.1a.635.635,0,0,1,.23,0l.555.11a.373.373,0,0,0,.218-.033l.325-.181a.943.943,0,0,1,.218-.083l.5-.107a.271.271,0,0,1,.206.051l.172.143a2.019,2.019,0,0,1,.169.163l.2.218a.226.226,0,0,0,.194.063l.32-.068a.744.744,0,0,1,.231-.007l.141.023a.488.488,0,0,1,.2.095l.137.12a.224.224,0,0,1,.065.193l-.032.162a.882.882,0,0,1-.081.218l-.119.208a.642.642,0,0,1-.137.161.1.1,0,0,0,0,.148l.417.489a2,2,0,0,0,.163.169l.3.273a.307.307,0,0,1,.087.2v.314a.667.667,0,0,0,.048.225l.062.139a1.167,1.167,0,0,0,.119.2l.053.068a.279.279,0,0,1,.043.208l-.041.164a.687.687,0,0,1-.1.208l-.094.127a1.094,1.094,0,0,0-.117.2l-.164.392a.7.7,0,0,0-.046.227v.235a.4.4,0,0,0,.073.211l.34.437.236.265a.361.361,0,0,1,.078.206v.413a.279.279,0,0,0,.092.191l.111.089a.62.62,0,0,1,.144.178l.19.378a.606.606,0,0,1,.052.224v.118a.118.118,0,0,0,.118.118h.217a.993.993,0,0,0,.23-.033l.383-.111a1.405,1.405,0,0,1,.231-.044l.61-.056a.694.694,0,0,0,.22-.068l.3-.163a1.961,1.961,0,0,0,.2-.127l.381-.29a1,1,0,0,0,.166-.165l.309-.4a1.294,1.294,0,0,1,.161-.17l.311-.261a.912.912,0,0,0,.153-.175l.208-.331a.758.758,0,0,0,.087-.215l.07-.339a.378.378,0,0,1,.115-.19l.466-.381a1.689,1.689,0,0,1,.193-.132l.325-.18a.332.332,0,0,0,.135-.171l.113-.4a1.132,1.132,0,0,0,.035-.232l.013-.491a1.685,1.685,0,0,0-.013-.235c-.017-.128-.042-.322-.042-.373,0-.079.039-.727.039-.786a3.586,3.586,0,0,1,.238-.486,1.412,1.412,0,0,1,.132-.194c.123-.147.358-.432.415-.518.079-.118.57-.786.57-.786l.321-.417a1.077,1.077,0,0,0,.116-.2l.167-.41a1.613,1.613,0,0,0,.066-.225l.175-.944.09-.591a.067.067,0,0,0-.094-.08l-.375.123a1.647,1.647,0,0,0-.216.092l-.382.2a1.481,1.481,0,0,1-.217.09l-.089.028a.255.255,0,0,1-.206-.036l-.047-.035a.751.751,0,0,1-.158-.17l-.149-.234a.241.241,0,0,0-.181-.1h-.039a.269.269,0,0,1-.189-.093l-.129-.167c-.039-.052-.1-.139-.133-.194l-.116-.192a.875.875,0,0,0-.15-.177,2.374,2.374,0,0,0-.3-.238c-.032-.01-.082-.085-.12-.151a1.289,1.289,0,0,1-.092-.216l-.056-.172a1.41,1.41,0,0,0-.093-.215l-.091-.164a.992.992,0,0,0-.144-.184l-.242-.23a.761.761,0,0,1-.135-.188l-.274-.592c-.027-.059,0-.1.067-.089l.16.024a.36.36,0,0,1,.193.107l.446.527a.879.879,0,0,0,.176.152l.34.21a.234.234,0,0,1,.1.18v.232a.266.266,0,0,0,.094.189l.3.234a.851.851,0,0,1,.157.171l.368.569.346.567a.157.157,0,0,0,.173.063l.4-.14.635-.217a.483.483,0,0,0,.185-.13l.384-.483c.04-.051.111-.13.157-.176l.442-.446a.361.361,0,0,0,.091-.2c.02-.295.071-1.049.071-1.1s.009-.341.015-.511a.185.185,0,0,0-.1-.165l-.2-.084a.131.131,0,0,0-.16.042.118.118,0,0,1-.157.032l-.047-.025a.8.8,0,0,1-.182-.145l-.017-.019a.07.07,0,0,0-.126.019l-.022.05a2.07,2.07,0,0,1-.109.209l-.033.056a.308.308,0,0,1-.176.124l-.082.016a.074.074,0,0,1-.094-.093l.014-.074a.114.114,0,0,0-.094-.135l-.054-.009a.43.43,0,0,0-.219.032.153.153,0,0,1-.177-.04l-.386-.466a.387.387,0,0,1-.075-.209v-.236a.074.074,0,0,1,.11-.073l.028.011a.51.51,0,0,1,.179.14l.063.086a.828.828,0,0,0,.167.162l.107.074.116.075a.805.805,0,0,0,.214.091l.1.024a.29.29,0,0,0,.21-.043l.008-.006a.5.5,0,0,1,.213-.078l.609-.042a.628.628,0,0,0,.221-.065l.442-.24a.179.179,0,0,1,.191.022l.2.177a.283.283,0,0,0,.205.062c.172-.027.473-.079.473-.121a1.836,1.836,0,0,1,.241-.359c.039-.051.086-.041.1.022l.118.459a2.243,2.243,0,0,0,.073.224l.227.567a1.718,1.718,0,0,0,.1.211l.431.739a1.232,1.232,0,0,1,.1.214l.223.7a.481.481,0,0,0,.126.188l.193.163c.05.042.081.024.069-.04a10.344,10.344,0,0,1-.2-1.475c.043-.043-.153-.325-.264-.475a.346.346,0,0,1-.056-.212c.034-.3.124-1.092.124-1.14s-.148-.5-.219-.713a.429.429,0,0,1,0-.225l.129-.442c.018-.062.061-.068.1-.013l.581.921c.036.054.071.1.08.095s.029.047.043.11A15.136,15.136,0,0,1,295.4,707.5Z" transform="translate(-279.077 -676.047)" fill="indigo"/></svg>