<svg xmlns="http://www.w3.org/2000/svg" width="55" height="55" viewBox="0 0 55 55"><path d="M27.5,0A27.5,27.5,0,1,1,0,27.5,27.5,27.5,0,0,1,27.5,0Z" fill="indigo"/><g transform="translate(-850.5 -528.434)"><g transform="translate(861.297 543.412)"><path d="M876.05,543.412H863.287a1.993,1.993,0,0,0-1.99,1.991v12.763a1.993,1.993,0,0,0,1.99,1.99H876.05a1.993,1.993,0,0,0,1.991-1.99V545.4A1.993,1.993,0,0,0,876.05,543.412Zm.568,14.754a.567.567,0,0,1-.568.567H863.287a.567.567,0,0,1-.567-.567V545.4a.567.567,0,0,1,.567-.568H876.05a.567.567,0,0,1,.568.568Z" transform="translate(-861.297 -543.412)" fill="#fff"/><rect width="3.283" height="3.283" rx="1.151" transform="translate(2.674 10.537)" fill="#fff"/><rect width="3.283" height="3.283" rx="1.151" transform="translate(2.634 6.256)" fill="#fff"/><rect width="3.283" height="3.283" rx="1.151" transform="translate(6.729 10.537)" fill="#fff"/><rect width="3.283" height="3.283" rx="1.151" transform="translate(6.729 6.256)" fill="#fff"/><rect width="3.283" height="3.283" rx="1.151" transform="translate(10.824 10.537)" fill="#fff"/><rect width="3.283" height="3.283" rx="1.151" transform="translate(10.824 6.256)" fill="#fff"/><path d="M869.69,546.824l-1.423,0v.56H865v1.423h3.271v.569l1.423,0v-.567h6.778v-1.423H869.69Z" transform="translate(-862.366 -544.397)" fill="#fff"/></g><g transform="translate(875.011 547.68)"><path d="M898.977,549.432l-11.712,1.75a1.515,1.515,0,0,0-1.3,1.513v10.978a4.426,4.426,0,0,0-2.2-.13c-2.074.41-3.479,2.139-3.133,3.89a3.545,3.545,0,0,0,4.365,2.42,3.672,3.672,0,0,0,3.177-3.328V555.547l10.351-1.556v7.477a4.427,4.427,0,0,0-2.2-.13c-2.075.411-3.479,2.139-3.133,3.89a3.545,3.545,0,0,0,4.365,2.42,3.672,3.672,0,0,0,3.177-3.328V550.945A1.519,1.519,0,0,0,898.977,549.432Z" transform="translate(-880.578 -549.412)" fill="#fff"/></g></g></svg>