<svg xmlns="http://www.w3.org/2000/svg" width="55" height="55" viewBox="0 0 55 55"><path d="M27.5,0A27.5,27.5,0,1,1,0,27.5,27.5,27.5,0,0,1,27.5,0Z" fill="indigo"/><g transform="translate(-851.5 -287.5)"><path d="M887.746,303.2H869.8A2.8,2.8,0,0,0,867,306v17.944a2.8,2.8,0,0,0,2.8,2.8h17.944a2.8,2.8,0,0,0,2.8-2.8V306A2.8,2.8,0,0,0,887.746,303.2Zm.8,20.742a.8.8,0,0,1-.8.8H869.8a.8.8,0,0,1-.8-.8V306a.8.8,0,0,1,.8-.8h17.944a.8.8,0,0,1,.8.8Z" fill="#fff"/><rect width="4.616" height="4.616" rx="1.151" transform="translate(870.763 318.019)" fill="#fff"/><rect width="4.616" height="4.616" rx="1.151" transform="translate(870.707 311.999)" fill="#fff"/><rect width="4.616" height="4.616" rx="1.151" transform="translate(876.464 318.019)" fill="#fff"/><rect width="4.616" height="4.616" rx="1.151" transform="translate(876.464 311.999)" fill="#fff"/><rect width="4.616" height="4.616" rx="1.151" transform="translate(882.222 318.019)" fill="#fff"/><rect width="4.616" height="4.616" rx="1.151" transform="translate(882.222 311.999)" fill="#fff"/><path d="M877.3,306.616l-2,.007v.787h-4.593v2h4.6v.8l2,0v-.8h9.53v-2H877.3Z" fill="#fff"/></g></svg>