<svg xmlns="http://www.w3.org/2000/svg" width="55" height="55" viewBox="0 0 55 55"><g transform="translate(-499 -833)"><g transform="translate(499 833)"><circle cx="27.5" cy="27.5" r="27.5" fill="indigo"/></g><g transform="translate(-232.5 -432.5)"><circle cx="3.579" cy="3.579" r="3.579" transform="translate(749.201 1273.275)" fill="#fff"/><circle cx="3.579" cy="3.579" r="3.579" transform="translate(761.617 1276.854)" fill="#fff"/><path d="M774.323,1296.5l-4.509-10.371a1.3,1.3,0,0,0-.6-.63,2.125,2.125,0,0,0-1.023-.147h-8.046v-1.5a1.567,1.567,0,0,0-1.566-1.566H746.706a1.291,1.291,0,0,0-1.291,1.291v14.559a1.29,1.29,0,1,0,2.581,0v-12.877l1.205-.013v26.932a1.669,1.669,0,1,0,3.338,0v-12.752h.9a2.955,2.955,0,0,0-.027.379v11.151a2.891,2.891,0,0,0,2.891,2.891h5.421a2.891,2.891,0,0,0,2.891-2.891v-7.279h1.05v8.5a1.669,1.669,0,1,0,3.338,0v-8.5h2.2a1.2,1.2,0,0,0,1.113-1.648l-4.046-10.049a2.265,2.265,0,0,1,.225-2.115.075.075,0,0,1,.131.012l3.3,7.583a1.339,1.339,0,0,0,1.663.762A1.291,1.291,0,0,0,774.323,1296.5Zm-15.007-4.717a2.531,2.531,0,1,1-2.53,2.531A2.531,2.531,0,0,1,759.316,1291.786Zm6.567,4.543-3.37,3.37a1.1,1.1,0,0,1-.13.106v11.966a1.357,1.357,0,1,1-2.641,0v-4.8h-1.007v4.8a1.357,1.357,0,1,1-2.642,0v-12.1l-3.343-3.343a1.042,1.042,0,0,1,1.474-1.474l3.235,3.235h3.715l3.235-3.235a1.042,1.042,0,0,1,1.474,1.474Z" fill="#fff"/></g></g></svg>