<svg id="personalization" xmlns="http://www.w3.org/2000/svg" width="28" height="26" viewBox="0 0 28 26">
  <g id="personalization-2" data-name="personalization">
    <path id="Fill_1" data-name="Fill 1" d="M9.74,8.68A6.531,6.531,0,0,0,11.3,4.306,4.123,4.123,0,0,0,7,0,4.124,4.124,0,0,0,2.7,4.306,6.527,6.527,0,0,0,4.26,8.68,7.047,7.047,0,0,0,0,14.72C0,19,4.554,19,7,19s7,0,7-4.28A7.048,7.048,0,0,0,9.74,8.68" transform="translate(0 7)" fill="#fff"/>
    <path id="Fill_4" data-name="Fill 4" d="M8.989,15A1.058,1.058,0,0,1,8,14.3l-.177-.5H7.813c-.108,0-.21.008-.312.008s-.217,0-.322-.009L7,14.3a1.058,1.058,0,0,1-.986.7,1.084,1.084,0,0,1-.356-.064l-1.418-.524a1.075,1.075,0,0,1-.589-.551,1.064,1.064,0,0,1-.035-.808l.178-.5c-.174-.135-.34-.277-.494-.42l-.455.267a1.07,1.07,0,0,1-.522.139,1.128,1.128,0,0,1-.271-.036,1.046,1.046,0,0,1-.638-.5L.658,10.688a1.065,1.065,0,0,1,.384-1.449L1.5,8.972a6.252,6.252,0,0,1-.112-.645l-.517-.1A1.041,1.041,0,0,1,.19,7.8,1.074,1.074,0,0,1,.016,7L.28,5.5a1.044,1.044,0,0,1,1.028-.879,1.025,1.025,0,0,1,.184.017l.518.09a5.526,5.526,0,0,1,.325-.564L2,3.757a1.077,1.077,0,0,1,.115-1.48L2.7,1.77l.575-.488a1.035,1.035,0,0,1,1.476.131l.335.408a6.111,6.111,0,0,1,.61-.227V1.061A1.056,1.056,0,0,1,6.746,0H8.253A1.056,1.056,0,0,1,9.3,1.061v.533a5.948,5.948,0,0,1,.61.227l.336-.408a1.024,1.024,0,0,1,.713-.374c.032,0,.064,0,.1,0a1.036,1.036,0,0,1,.666.249l1.155.98A1.07,1.07,0,0,1,13,3.757l-.338.411a5.522,5.522,0,0,1,.325.564l.517-.09a1.041,1.041,0,0,1,1.213.858L14.985,7a1.062,1.062,0,0,1-.852,1.229l-.517.1a6.506,6.506,0,0,1-.112.645l.455.262a1.075,1.075,0,0,1,.383,1.453l-.753,1.319a1.028,1.028,0,0,1-.637.492.95.95,0,0,1-.272.04,1.021,1.021,0,0,1-.522-.145l-.454-.266c-.165.152-.332.293-.5.419l.179.5a1.069,1.069,0,0,1-.036.813,1.08,1.08,0,0,1-.352.425l-.7.293-.959.352A.977.977,0,0,1,8.989,15ZM7.5,4.556A2.944,2.944,0,1,0,10.41,7.5,2.929,2.929,0,0,0,7.5,4.556Z" transform="translate(13)" fill="#fff"/>
  </g>
</svg>
