<svg id="leafs" xmlns="http://www.w3.org/2000/svg" width="19" height="20" viewBox="0 0 19 20">
  <path id="Fill_4" data-name="Fill 4" d="M3.955,16a.434.434,0,0,1-.415-.359c-.023-.115-.22-.287-.394-.439-.156-.136-.3-.265-.288-.322,0-.014.016-.024.039-.029l-.247-.262s0,.006-.007.006a26.367,26.367,0,0,1-1.182-3.02,28.64,28.64,0,0,0-1.22-3.12.464.464,0,0,1-.2-.6C1.967,3.56,6.342.257,10.444,0l.037,0a.436.436,0,0,1,.41.414c.681,8.646-1.88,14.469-6.851,15.577A.473.473,0,0,1,3.955,16ZM8.634,2.746a.418.418,0,0,0-.3.125A43.719,43.719,0,0,0,2.366,11.1a.47.47,0,0,0,.151.618.4.4,0,0,0,.213.061.428.428,0,0,0,.366-.22,42.519,42.519,0,0,1,5.83-8.041.47.47,0,0,0,.01-.638A.4.4,0,0,0,8.634,2.746Z" transform="translate(8)" fill="#fff"/>
  <path id="Fill_1" data-name="Fill 1" d="M11.97,12.98A11.547,11.547,0,0,0,9.092,4.747,12.791,12.791,0,0,0,.548,0,.4.4,0,0,0,.105.4c-.445,5.544.53,10.08,2.746,12.772a7.308,7.308,0,0,0,5.3,2.72.171.171,0,0,0,.029,0,12.7,12.7,0,0,0,1.708.087C8.727,11.334,4.079,5.468,2.079,3.454a.451.451,0,0,1-.012-.618.41.41,0,0,1,.593-.012c2.052,2.07,6.822,8.1,8.04,12.932h0A10.219,10.219,0,0,0,11.97,12.98" transform="translate(0 4)" fill="#fff"/>
</svg>
