<svg xmlns="http://www.w3.org/2000/svg" width="15.923" height="23" viewBox="0 0 15.923 23">
  <g id="map" transform="translate(-0.692)">
    <path id="Fill_1" data-name="Fill 1" d="M7.935,23H7.928a.526.526,0,0,1-.407-.193,55.065,55.065,0,0,1-5.145-7.573C.781,12.317-.018,9.889,0,8.018A8.133,8.133,0,0,1,2.346,2.35a7.859,7.859,0,0,1,11.211,0,8.283,8.283,0,0,1,2.364,5.66c.039,1.716-.813,4.147-2.532,7.227A67.247,67.247,0,0,1,8.345,22.8.533.533,0,0,1,7.935,23ZM7.961,4.814a3.209,3.209,0,1,0,3.184,3.209A3.2,3.2,0,0,0,7.961,4.814Z" transform="translate(0.692)" fill="#fff"/>
  </g>
</svg>
