<svg xmlns="http://www.w3.org/2000/svg" width="55" height="55" viewBox="0 0 55 55"><path d="M27.5,0A27.5,27.5,0,1,1,0,27.5,27.5,27.5,0,0,1,27.5,0Z" fill="indigo"/><g transform="translate(-366.5 -330.595)"><g transform="translate(380.914 345.99)"><path d="M386.222,368.77l1.434,1.433-5.124,5.123a.465.465,0,0,1-.634.1l-.9-.9a.467.467,0,0,1,.1-.635Z" transform="translate(-380.914 -350.996)" fill="#fff"/><path d="M391.825,361.155a.566.566,0,0,0,.8.8L407.283,347.3l.342-.342a.566.566,0,0,0-.8-.8l-.343.342Z" transform="translate(-383.276 -345.99)" fill="#fff"/><circle cx="2.41" cy="2.41" r="2.41" transform="translate(4.989 14.706)" fill="#fff"/><g transform="translate(8.564 18.3)"><path d="M394.475,370.378a.392.392,0,0,0-.554-.554l-1.651,1.65a.392.392,0,0,0,.554.554Z" transform="translate(-391.948 -369.502)" fill="#fff"/><path d="M393.07,371.039a.294.294,0,0,0,.416-.415l-1.094-1.094a.294.294,0,1,0-.416.416Z" transform="translate(-391.89 -369.444)" fill="#fff"/></g><path d="M411.372,347.031a.283.283,0,0,0-.559.084l2.3,15.306s.224,1.7.237,1.849l-.5-.384.2-.051-.652-.113c.713,1.431,1.162,1.47,1.377.989a6.88,6.88,0,0,0-.1-2.387Z" transform="translate(-387.484 -346.166)" fill="#fff"/><path d="M414.547,366.219a.282.282,0,0,0-.112-.552l-1.57.32a.282.282,0,1,0,.112.552Z" transform="translate(-387.886 -350.313)" fill="#fff"/><path d="M410.107,347.308c0,.017.527,6.048-5.234,5.023l.1-.557c5.036.9,4.574-4.409,4.573-4.424Z" transform="translate(-386.179 -346.279)" fill="#fff"/><path d="M398.9,358c.015,0,5.32.463,4.424-4.573l.557-.1c1.025,5.761-5.006,5.235-5.023,5.234Z" transform="translate(-384.857 -347.602)" fill="#fff"/><path d="M397.769,359.646c0,.017.526,6.049-5.234,5.023l.1-.557c5.035.9,4.574-4.408,4.572-4.424Z" transform="translate(-383.468 -348.991)" fill="#fff"/></g></g></svg>