<svg id="flag" xmlns="http://www.w3.org/2000/svg" width="23.624" height="18.999" viewBox="0 0 23.624 18.999">
  <path id="Fill_3" data-name="Fill 3" d="M23.3,1.252a.587.587,0,0,0-.615.052,10.623,10.623,0,0,1-6.43,2,12.912,12.912,0,0,1-2.868-.321V1.779a.59.59,0,0,0-.263-.49A7.8,7.8,0,0,0,8.695,0C4.413,0,.412,2.84.244,2.962A.59.59,0,0,0,0,3.441V17.15a.591.591,0,0,0,.878.516A13.862,13.862,0,0,1,6.759,16.09a6.589,6.589,0,0,1,3.478.9v1.343a.59.59,0,0,0,.541.588c.04,0,.971.079,2.336.079,3.811,0,8.711-.555,10.416-3.19a.592.592,0,0,0,.094-.32V1.779a.6.6,0,0,0-.325-.527" fill="indigo"/>
</svg>
