<svg xmlns="http://www.w3.org/2000/svg" width="16" height="12" viewBox="0 0 16 12"><path d="M15.78.791a.422.422,0,0,0-.417.033,7.558,7.558,0,0,1-4.355,1.266,9.348,9.348,0,0,1-1.942-.2V1.124A.367.367,0,0,0,8.888.814a5.559,5.559,0,0,0-3-.814A11.715,11.715,0,0,0,.165,1.871a.366.366,0,0,0-.165.3v8.659a.368.368,0,0,0,.2.321.426.426,0,0,0,.4,0,9.9,9.9,0,0,1,3.983-1,4.715,4.715,0,0,1,2.356.568v.848a.384.384,0,0,0,.366.371c.027,0,.658.05,1.582.05,2.581,0,5.9-.351,7.055-2.015a.356.356,0,0,0,.064-.2V1.124a.374.374,0,0,0-.22-.333" fill="#ffb029"/></svg>