<svg xmlns="http://www.w3.org/2000/svg" width="55" height="55" viewBox="0 0 55 55"><path d="M27.5,0A27.5,27.5,0,1,1,0,27.5,27.5,27.5,0,0,1,27.5,0Z" fill="indigo"/><path d="M581.5,162.078a18.314,18.314,0,1,0,18.314,18.314A18.315,18.315,0,0,0,581.5,162.078Zm.54,1.154q-.276-.009-.555-.009h.015C581.682,163.223,581.862,163.227,582.041,163.232Zm6.207,17.9-3.088,5.1h-7.715l-2.822-4.661,3.365-6.423h7.125Zm-2.155-6.58,1.519-5.33,4.726.468,4.336,7.058-2.35,4.966-5.028-1.047ZM588.2,192.5l-2.976,3.251h-7.509l-2.976-3.251,3.05-5.123h7.361Zm-17.523-22.81,4.735-.469,1.519,5.33-3.171,6.052-5.087,1.054-2.33-4.924Zm4.717-1.61-4.739.469-.243-1.265a17.1,17.1,0,0,1,10.485-4.047v1.5Zm5.98-4.853c-.125,0-.25,0-.374.006C581.128,163.227,581.253,163.225,581.378,163.225Zm-16.731,13.882h.685l2.259,4.773-.178.037v5.815l-1.023.818a17.222,17.222,0,0,1-1.743-11.443Zm2.328,12.441.9-.72,6.013,4.654.08-.135,3.06,3.342-.075.263A17.207,17.207,0,0,1,566.975,189.548Zm13.565,7.986.163.009Zm.456.02c.13,0,.26.006.39.006C581.256,197.559,581.126,197.558,581,197.554Zm.489.008c.19,0,.378,0,.566-.01-.183.006-.366.01-.55.01Zm.586-.011A17.154,17.154,0,0,0,586,196.96l-.077-.271,3.369-3.68,5.353-4.143,1.187.95q.316-.481.6-.985l-1.2-.962V182.48l2.462-5.2h.673a17.155,17.155,0,0,0-5.878-10.061l-.252,1.309-4.712-.466-5.473-3.327v-1.5a17.169,17.169,0,0,1,.025,34.319Z" transform="translate(-554.5 -152.5)" fill="#fff"/></svg>