<svg xmlns="http://www.w3.org/2000/svg" width="55" height="55" viewBox="0 0 55 55"><g transform="translate(-499 -833)"><g transform="translate(499 833)"><circle cx="27.5" cy="27.5" r="27.5" fill="indigo"/></g><g transform="translate(-317.5 -433.5)"><circle cx="3.031" cy="3.031" r="3.031" transform="translate(840.743 1275.744)" fill="#fff"/><circle cx="3.031" cy="3.031" r="3.031" transform="translate(852.084 1275.744)" fill="#fff"/><path d="M824.8,1286.367a5.277,5.277,0,0,1,.464-2.215h-.523a1.7,1.7,0,1,0,0,3.4h.059v-1.183Z" fill="#fff"/><circle cx="3.031" cy="3.031" r="3.031" transform="translate(829.37 1275.744)" fill="#fff"/><path d="M828.637,1311.191a1.7,1.7,0,0,0,3.4,0v-14.255h.757l-.005,14.255a1.7,1.7,0,0,0,3.4,0l.007-24.576h.746v9.057a1.2,1.2,0,1,0,2.372,0v-9.25c0-2.013-1.184-3.986-3.539-3.986l-6.793,0c-2.146,0-3.49,1.75-3.49,3.933v9.305a1.2,1.2,0,1,0,2.39,0v-9.057h.761Z" fill="#fff"/><circle cx="3.031" cy="3.031" r="3.031" transform="translate(829.37 1275.744)" fill="#fff"/><path d="M828.637,1311.191a1.7,1.7,0,0,0,3.4,0v-14.255h.757l-.005,14.255a1.7,1.7,0,0,0,3.4,0l.007-24.576h.746v9.057a1.2,1.2,0,1,0,2.372,0v-9.25c0-2.013-1.184-3.986-3.539-3.986l-6.793,0c-2.146,0-3.49,1.75-3.49,3.933v9.305a1.2,1.2,0,1,0,2.39,0v-9.057h.761Z" fill="#fff"/><path d="M828.637,1311.191a1.7,1.7,0,0,0,3.4,0v-14.255h.757l-.005,14.255a1.7,1.7,0,0,0,3.4,0l.007-24.576h.746v9.057a1.2,1.2,0,1,0,2.372,0v-9.25c0-2.013-1.184-3.986-3.539-3.986l-6.793,0c-2.146,0-3.49,1.75-3.49,3.933v9.305a1.2,1.2,0,1,0,2.39,0v-9.057h.761Z" fill="#fff"/><path d="M862.715,1286.367a5.261,5.261,0,0,0-.464-2.215h.524a1.7,1.7,0,0,1,0,3.4h-.06Z" fill="#fff"/><path d="M847.162,1282.434l-3.4,0-3.4,0a3.356,3.356,0,0,0-1.722.452,5.015,5.015,0,0,1,1.369,3.536v.194h.013l0,24.575a1.7,1.7,0,0,0,3.4,0l0-14.255h.693l0,14.255a1.7,1.7,0,0,0,3.4,0l-.005-24.575h.014v-.194a5.019,5.019,0,0,1,1.369-3.536A3.352,3.352,0,0,0,847.162,1282.434Z" fill="#fff"/><path d="M858.879,1311.191a1.7,1.7,0,0,1-3.4,0v-14.255h-.756l.005,14.255a1.7,1.7,0,0,1-3.4,0l-.007-24.576h-.747v9.057a1.2,1.2,0,1,1-2.371,0v-9.25c0-2.013,1.183-3.986,3.539-3.986l6.792,0c2.147,0,3.491,1.75,3.491,3.933v9.305a1.2,1.2,0,1,1-2.39,0v-9.057h-.761Z" fill="#fff"/><path d="M858.879,1311.191a1.7,1.7,0,0,1-3.4,0v-14.255h-.756l.005,14.255a1.7,1.7,0,0,1-3.4,0l-.007-24.576h-.747v9.057a1.2,1.2,0,1,1-2.371,0v-9.25c0-2.013,1.183-3.986,3.539-3.986l6.792,0c2.147,0,3.491,1.75,3.491,3.933v9.305a1.2,1.2,0,1,1-2.39,0v-9.057h-.761Z" fill="#fff"/><path d="M858.879,1311.191a1.7,1.7,0,0,1-3.4,0v-14.255h-.756l.005,14.255a1.7,1.7,0,0,1-3.4,0l-.007-24.576h-.747v9.057a1.2,1.2,0,1,1-2.371,0v-9.25c0-2.013,1.183-3.986,3.539-3.986l6.792,0c2.147,0,3.491,1.75,3.491,3.933v9.305a1.2,1.2,0,1,1-2.39,0v-9.057h-.761Z" fill="#fff"/></g></g></svg>