<svg xmlns="http://www.w3.org/2000/svg" width="55" height="55" viewBox="0 0 55 55"><path d="M27.5,0A27.5,27.5,0,1,1,0,27.5,27.5,27.5,0,0,1,27.5,0Z" fill="indigo"/><path d="M481.37,253a17.527,17.527,0,0,1,2.122-3.369c7.021,1.761,7.674-5.245,11.3-9.365-4.777-.125-10.775,1.377-11.927,7.009a22.9,22.9,0,0,1,8-4.976,30.247,30.247,0,0,0-9.547,8.457,29.174,29.174,0,0,0-.592-4.5,25.627,25.627,0,0,1-.691-4.955,9.609,9.609,0,0,1,.237-2.4,6.45,6.45,0,0,1,.347-1.015c4.015.293,4.6-4.186,7-6.911-3.432-.09-7.741.99-8.57,5.036a16.456,16.456,0,0,1,5.75-3.576,10.489,10.489,0,0,0-4.508,3.719,7.311,7.311,0,0,0-1.148,2.458,10.559,10.559,0,0,0-.321,2.694,26.762,26.762,0,0,0,.626,5.218c.047.244.085.489.126.735a27.855,27.855,0,0,0-8.791-7.785,21.073,21.073,0,0,1,7.366,4.58c-1.061-5.183-6.581-6.566-10.978-6.451,3.338,3.792,3.939,10.241,10.4,8.62a12.644,12.644,0,0,1,2.353,4.289c.015.331.03.662.033.994q.022,1.256-.061,2.511c-.029.444-.069.894-.119,1.338a2.768,2.768,0,0,0-2.433-.257,3.8,3.8,0,0,0-1.465,1.186,2.717,2.717,0,0,0-2.994.57,3.775,3.775,0,0,1-4.2,2.089,2.717,2.717,0,0,0-.162.4,3.074,3.074,0,0,0-.816.314.371.371,0,0,0,.176.7h23.361a.369.369,0,0,0,.288-.6,1.532,1.532,0,0,0-.323-.269,2.067,2.067,0,0,0-.78-.287.983.983,0,0,0-.125-.629,2.58,2.58,0,0,0-2.267-.858,2.4,2.4,0,0,0-1.753-1.34,2.729,2.729,0,0,0-.8-.032c-.136-.649-1.026-1.235-2.172-1.376a3.01,3.01,0,0,0-2.066.4c.037-.42.067-.837.087-1.259C481.358,253.734,481.366,253.367,481.37,253Z" transform="translate(-453.5 -218.252)" fill="#fff"/></svg>