<svg xmlns="http://www.w3.org/2000/svg" width="55" height="55" viewBox="0 0 55 55"><g transform="translate(-499 -833)"><g transform="translate(499 833)"><circle cx="27.5" cy="27.5" r="27.5" fill="indigo"/></g><path d="M759.81,1505.195a8.7,8.7,0,0,1,1.49-1.184l4.731,4.731c-.1,0-.19.014-.287.014a8.3,8.3,0,0,1-5.934-2.473A.777.777,0,0,1,759.81,1505.195Zm8.7-10.583a.851.851,0,0,0,.791.791,8.44,8.44,0,0,0,8.407-8.407.779.779,0,0,0-.791-.791,8.442,8.442,0,0,0-8.407,8.407Zm-10.88,9.495a1.408,1.408,0,0,0,.593.2.756.756,0,0,0,.495-.2,8.3,8.3,0,0,0,1.178-1.495l-4.7-4.7A8.366,8.366,0,0,0,757.634,1504.107Zm14.243-1.484a8.3,8.3,0,0,0,5.934-2.472.776.776,0,0,0,0-1.088,8.349,8.349,0,0,0-11.2-.6l4.068,4.069A8.586,8.586,0,0,0,771.877,1502.623Zm-8.111-16.517a8.386,8.386,0,0,0-2.349,7.159l4.038,4.038a8.422,8.422,0,0,0-.6-11.2A.777.777,0,0,0,763.766,1486.106ZM751.6,1498.272a8.359,8.359,0,0,0,0,11.869.719.719,0,0,0,.989,0,8.329,8.329,0,0,0,.1-11.869A.776.776,0,0,0,751.6,1498.272Zm2.175,14.044a8.357,8.357,0,0,0,11.869,0,.774.774,0,0,0,0-1.087,8.469,8.469,0,0,0-5.934-2.473,8.3,8.3,0,0,0-5.935,2.473A.776.776,0,0,0,753.776,1512.316Zm25.639-23.221a10.235,10.235,0,0,1-1.957,4.206,16.038,16.038,0,0,1-1.739,16.982l-22.454-22.454a15.989,15.989,0,0,1,17.5-1.476,10.2,10.2,0,0,1,4.163-1.873,19.823,19.823,0,0,0-27.421,28.136l2.249-2.25a4.121,4.121,0,0,1,.531-.446,16.022,16.022,0,0,1,.268-19.374L773,1513a16.028,16.028,0,0,1-18.958.573,4.092,4.092,0,0,1-.49.6l-2.221,2.168a19.821,19.821,0,0,0,28.082-27.245ZM751.8,1512.119a.774.774,0,0,0-1.087,0h0l-3.165,3.165a.774.774,0,0,0,0,1.087.716.716,0,0,0,.989,0l3.263-3.164A.776.776,0,0,0,751.8,1512.119Z" transform="translate(-236.5 -639.5)" fill="#fff"/></g></svg>