<svg xmlns="http://www.w3.org/2000/svg" width="55" height="55" viewBox="0 0 55 55"><path d="M27.5,0A27.5,27.5,0,1,1,0,27.5,27.5,27.5,0,0,1,27.5,0Z" fill="indigo"/><g transform="translate(-640.5 -151.5)"><path d="M668.494,161.019a9.157,9.157,0,1,0,9.157,9.157A9.157,9.157,0,0,0,668.494,161.019Zm-4.93,11.27h-1.409V170.88h1.409Zm0-2.818h-1.409v-1.409h1.409Zm2.817,0h-1.409v-1.409h1.409Zm0-2.817h-1.409v-1.409h1.409Zm2.818,1.408H667.79v-1.408H669.2Zm0-2.817H667.79v-1.409H669.2Z" fill="#fff"/><path d="M669.2,197.647v-9.862c0-2.817,1.409-5.635,2.817-5.635h1.409v-1.409h-9.861v1.409h1.408c1.409,0,2.818,2.818,2.818,5.635v9.862Z" fill="#fff"/></g></svg>