<svg xmlns="http://www.w3.org/2000/svg" width="55" height="55" viewBox="0 0 55 55"><path d="M27.5,0A27.5,27.5,0,1,1,0,27.5,27.5,27.5,0,0,1,27.5,0Z" fill="indigo"/><g transform="translate(-254.5 -230.5)"><path d="M277.373,259.978a9.378,9.378,0,0,1-1.793-5.614,7.381,7.381,0,0,1,.139-1.433,6.368,6.368,0,0,1,.187-.738,5.729,5.729,0,0,1,1.321-2.225,7.146,7.146,0,0,0,.358-2.248c0-3.173-2.594-4.23-4.47-4.23s-4.47,1.057-4.47,4.23a6.141,6.141,0,0,0,2.331,5.046c-2.835.914-5.49,3.492-5.49,6.528,0,3.8,3.815,4.2,7.629,4.2h.254A11.691,11.691,0,0,1,277.373,259.978Z" fill="#fff"/><path d="M293.578,252.766a6.141,6.141,0,0,0,2.331-5.046c0-3.173-2.593-4.23-4.47-4.23s-4.47,1.057-4.47,4.23a7.16,7.16,0,0,0,.357,2.245,5.7,5.7,0,0,1,1.325,2.231,6.525,6.525,0,0,1,.187.735,7.461,7.461,0,0,1,.139,1.433,9.372,9.372,0,0,1-1.794,5.614,11.714,11.714,0,0,1,4,3.516h.251c3.814,0,7.629-.4,7.629-4.2C299.068,256.258,296.413,253.68,293.578,252.766Z" fill="#fff"/><path d="M284.845,260.419a7.366,7.366,0,0,0,2.8-6.055,6.358,6.358,0,0,0-.058-.825c-.419-3.164-3.226-4.251-5.306-4.251s-4.888,1.088-5.306,4.253a6.327,6.327,0,0,0-.058.823,7.367,7.367,0,0,0,2.8,6.055,10.6,10.6,0,0,0-4.668,3.08,7.305,7.305,0,0,0-1.92,4.754c0,4.562,4.577,5.039,9.154,5.039s9.154-.477,9.154-5.039a7.3,7.3,0,0,0-1.916-4.749A10.6,10.6,0,0,0,284.845,260.419Z" fill="#fff"/></g></svg>