<svg xmlns="http://www.w3.org/2000/svg" width="55" height="55" viewBox="0 0 55 55"><path d="M27.5,0A27.5,27.5,0,1,1,0,27.5,27.5,27.5,0,0,1,27.5,0Z" fill="indigo"/><g transform="translate(-857.5 -222.5)"><path d="M884.081,260.037a1.711,1.711,0,0,1,1.728-1.922,4.048,4.048,0,0,0,2.412-1.13c1.727-1.726.944-4.283-1.08-6.717l-2.376,2.426-.3.307-.133-.41a2.544,2.544,0,0,0-1.631-1.631l-.41-.133.307-.3,2.426-2.376c-2.434-2.023-4.991-2.807-6.717-1.08a4.049,4.049,0,0,0-1.131,2.412,1.709,1.709,0,0,1-1.921,1.728,8.373,8.373,0,0,0-6.4,2.288c-3.137,3.138-2.045,7.84,1.529,11.414s8.276,4.665,11.413,1.528A8.37,8.37,0,0,0,884.081,260.037Zm-.619-8.208a2.568,2.568,0,1,1-3.632,0A2.567,2.567,0,0,1,883.462,251.829Zm-9.827,4.652a2.843,2.843,0,0,0,1.6-1.044l4.62,4.62a2.832,2.832,0,0,0-1.045,1.6A21.213,21.213,0,0,1,873.635,256.481Zm12.775-9.325,1.724,1.724-.9.919-1.744-1.743Zm2.211-2.164,1.678,1.678-.9.919-1.7-1.7Zm1.105-1.083,1.655,1.655c-.3.306-.6.614-.9.919l-1.674-1.674C889.113,244.51,889.421,244.209,889.726,243.909Zm-5.467,5.354,1.769,1.768c-.27.276-.539.552-.81.827l-1.786-1.785Zm13.831-10.558-1.118,1.143-1.529-1.529c.38-.372.762-.747,1.142-1.118ZM885.3,248.238l1.747,1.747c-.281.287-.56.573-.841.859l-1.765-1.765Zm2.21-2.164,1.7,1.7-.9.919-1.721-1.721C886.9,246.674,887.21,246.373,887.515,246.074Zm7.741-7.573,1.534,1.533-.9.92-1.554-1.554Zm-12.01,11.754,1.79,1.789q-.228.234-.457.467a2.8,2.8,0,0,0-1.8-1.8C882.935,250.559,883.091,250.407,883.246,250.255Zm7.586-7.427,1.631,1.631-.9.919-1.651-1.651Zm3.318-3.245,1.558,1.558-.9.919-1.578-1.578Zm-1.106,1.081,1.582,1.582-.9.919-1.6-1.6Q892.585,241.115,893.044,240.664Zm-1.106,1.082,1.607,1.606-.9.92-1.627-1.627Zm8.808-10.087a5.779,5.779,0,0,1,2.885,2.885,19.528,19.528,0,0,0-3.931,3.242,1.824,1.824,0,0,0-1.3.606l-1.506-1.506a1.816,1.816,0,0,0,.607-1.3h0A19.468,19.468,0,0,0,900.746,231.659Zm2.206,3.7c.206-.144.38-.25.5-.078a.461.461,0,0,1-.743.524C902.588,235.627,902.747,235.5,902.952,235.354Zm-1.252.952c.2-.167.365-.293.506-.128a.476.476,0,0,1-.714.608C901.351,236.62,901.5,236.474,901.7,236.306Zm-.793,1.5a.443.443,0,0,1-.619.054c-.157-.157-.015-.317.17-.5s.346-.328.5-.171A.443.443,0,0,1,900.907,237.809Zm-1.467-5.821a.423.423,0,0,1,.574-.151c.173.121.066.3-.077.5s-.273.365-.446.243A.425.425,0,0,1,899.44,231.988Zm-.327,1.1c.165.141.039.309-.128.506s-.314.348-.48.207a.476.476,0,0,1,.608-.713ZM898.1,234.33c.157.157.016.317-.17.5s-.346.327-.5.17a.483.483,0,0,1,.673-.673Z" fill="#fff"/></g></svg>