<svg xmlns="http://www.w3.org/2000/svg" width="55" height="55" viewBox="0 0 55 55"><path d="M27.5,0A27.5,27.5,0,1,1,0,27.5,27.5,27.5,0,0,1,27.5,0Z" fill="indigo"/><g transform="translate(-551.5 -222.411)"><path d="M593.366,234.258a.557.557,0,0,0-.524.553v.632q-3.232.5-6.493.773a.93.93,0,0,0-1.676-.233l-.236.371a93.508,93.508,0,0,1-11.83,0,.929.929,0,0,0-1.81-.133q-3.26-.273-6.495-.772v-.634a.558.558,0,1,0-1.116,0v30.42a.558.558,0,1,0,1.116,0V236.2h0q3.283.5,6.595.773l5.131,8.083a.747.747,0,0,1,.117.4v4.453a.149.149,0,0,1-.148.149.142.142,0,0,1-.05-.009l-8.756-3.126a1.116,1.116,0,0,0-.757,2.1l.007,0,9.632,3.438a7.439,7.439,0,0,0,5,0l9.632-3.438a1.115,1.115,0,0,0-.75-2.1l-8.755,3.126a.148.148,0,0,1-.189-.091.137.137,0,0,1-.009-.049v-4.453a.739.739,0,0,1,.116-.4l5.126-8.072q3.31-.271,6.594-.774V265.24a.558.558,0,0,0,1.115,0V234.82a.556.556,0,0,0-.561-.554h-.031ZM573.2,237.136a94.358,94.358,0,0,0,10.744,0l-4.113,6.477h-2.518Z" fill="#fff"/><path d="M582.882,241.075a2.177,2.177,0,1,0-4.354-.016v.016a2.177,2.177,0,1,0,4.354.016Z" transform="translate(-2.131 -0.644)" fill="#fff"/></g></svg>