<svg xmlns="http://www.w3.org/2000/svg" width="55" height="55" viewBox="0 0 55 55"><circle cx="27.5" cy="27.5" r="27.5" fill="indigo"/><g transform="translate(13 11)"><path d="M28.593,18.479a.271.271,0,0,1-.1-.206l-.05-.1a2.087,2.087,0,0,0-1.238-.928,2.274,2.274,0,0,0-1.783.361c-.149.1-.248.155-.4.258l-.347-.619-1.338-2.477L23,14.145c-.347-.671-.743-1.342-1.09-2.013a4.389,4.389,0,0,0-3.121-2.219c-1.04-.206-2.031-.361-3.071-.516l-.347-.052L15.614,7.8c.05-.31.149-.722.2-1.084.4-1.961.892-4.437-.694-5.985A2.4,2.4,0,0,0,13.285.006a6.837,6.837,0,0,0-2.18.465C9.471,1.09,7.786,1.761,6.152,2.38l-.793.31A3.493,3.493,0,0,0,3.625,4.134l-.149.258C2.783,5.527.6,9.139.058,10.068c-.2.31.149.981.446,1.135s.842.31.991,0c.545-.928,2.427-4.18,3.121-5.314l.149-.258A2.974,2.974,0,0,1,5.954,4.444l.793-.31a13.273,13.273,0,0,0,1.288-.516c.3-.1.5-.258.793,0l-.05.361C8.431,6.1,7.786,9.294,7.588,10.791a3.562,3.562,0,0,0-.05.67v.1a2.461,2.461,0,0,0,.545,1.651,3.248,3.248,0,0,0,1.982,1.29c.941.206,1.932.361,2.824.567l.3.052c1.139.206,2.13.361,3.121.516L17.5,15.8c.149,0,.3.051.4.051.5.878.941,1.755,1.437,2.632l.1.155c1.684,3.044,1.734,3.147,1.734,3.147.446.774,1.04,1.91,2.031,2.168a1.332,1.332,0,0,0,.446.051,2.691,2.691,0,0,0,1.338-.413c1.139-.722,1.982-1.29,2.824-1.806a1.99,1.99,0,0,0,.594-.516,2.2,2.2,0,0,0,.2-2.786" transform="translate(0 9)" fill="#fff"/><path d="M3.5,7A3.5,3.5,0,1,0,0,3.5,3.492,3.492,0,0,0,3.5,7" transform="translate(12)" fill="#fff"/><path d="M14.52,8.306a.6.6,0,0,0-.757.47,6.365,6.365,0,0,1-7.721,4.76A6.2,6.2,0,0,1,2.156,10.5a6.841,6.841,0,0,1-.707-4.968A6.655,6.655,0,0,1,4.73,1.246.638.638,0,0,0,4.982.357.594.594,0,0,0,4.124.1,8,8,0,0,0,1.1,11.13a7.548,7.548,0,0,0,4.643,3.609A7.655,7.655,0,0,0,7.606,15a7.424,7.424,0,0,0,3.886-1.1A7.764,7.764,0,0,0,14.974,9.09a.62.62,0,0,0-.454-.784" transform="translate(2 18)" fill="#fff"/></g></svg>