<svg xmlns="http://www.w3.org/2000/svg" width="55" height="55" viewBox="0 0 55 55"><path d="M27.5,0A27.5,27.5,0,1,1,0,27.5,27.5,27.5,0,0,1,27.5,0Z" fill="indigo"/><g transform="translate(-647.5 -217.798)"><g transform="translate(659.338 229.529)"><path d="M662.828,244.6a1.329,1.329,0,0,0,.606.134,1.274,1.274,0,0,0,1.143-.673l1.379-2.589a1.573,1.573,0,0,1,.606-.639c.1-.068.168-.1.268-.168l-.807,3.631a2.473,2.473,0,0,0,1.379,2.825l-2.489,8.34v.067l1.581.2h.067a.6.6,0,0,0,.336-.135l1.58-1.681,1.681-5.683,1.951.774c.067.033.1.067.1.134l.539,3.262h2.992l-.6-3.732a3.1,3.1,0,0,0-1.917-2.387L671,245.4l1.211-4.035.3.4a3.1,3.1,0,0,0,2.085,1.311l2.354.37,1.008,7.7,1.009-.639-.941-7.2a1.158,1.158,0,0,0,.6-.907,1.267,1.267,0,0,0-.908-1.413l-.1-.672a.542.542,0,0,0-1.076.134l.067.37-1.714-.269a.643.643,0,0,1-.37-.235c-2.185-3.195-2.623-3.363-3.262-3.4l-2.119-.134c-.4-.034-.773-.067-3.934,1.816a4.373,4.373,0,0,0-1.581,1.648l-1.379,2.589A1.4,1.4,0,0,0,662.828,244.6Z" transform="translate(-659.698 -230.461)" fill="#fff"/><circle cx="2.858" cy="2.858" r="2.858" transform="translate(8.072)" fill="#fff"/><path d="M689.269,262.013l-4.338-4.2c-.067-.067-.134-.168-.2-.235l-2.657-4.036a1.784,1.784,0,0,0-2.421-.538l-3.833,2.354-5.279.033a1.473,1.473,0,0,0-1.042.438l-2.354,2.455a1.378,1.378,0,0,1-1.211.438l-3.161-.438a1.454,1.454,0,0,0-1.446.74l-1.816,3.3a1.439,1.439,0,0,0,1.245,2.119h27.44a1.457,1.457,0,0,0,1.312-.74A1.372,1.372,0,0,0,689.269,262.013Z" transform="translate(-659.338 -232.508)" fill="#fff"/></g></g></svg>