<svg xmlns="http://www.w3.org/2000/svg" width="55" height="55" viewBox="0 0 55 55"><path d="M27.5,0A27.5,27.5,0,1,1,0,27.5,27.5,27.5,0,0,1,27.5,0Z" fill="indigo"/><g transform="translate(-948.5 -524.984)"><g transform="translate(957.603 536.146)"><path d="M971.822,564.133a3.285,3.285,0,0,0-6.569-.012v.012a3.285,3.285,0,0,0,6.569.012Z" transform="translate(-959.347 -541.776)" fill="#fff"/><path d="M971.484,561.166q-.323,2.584-.853,5.136a1.727,1.727,0,0,0,3.382.7,68.432,68.432,0,0,0,1.427-13.891v-7.525a1.151,1.151,0,0,1,.762-1.084l10.849-3.891a2.3,2.3,0,0,0-1.555-4.335l-13.122,4.706a1.149,1.149,0,0,1-.777,0l-10.924-3.917a2.3,2.3,0,0,0-1.555,4.335l8.651,3.1a1.152,1.152,0,0,1,.762,1.084v3.2a1.152,1.152,0,0,1-1.672,1.027l-6.213-3.157a1.727,1.727,0,0,0-1.565,3.08h0l8.678,4.408A6.909,6.909,0,0,1,971.484,561.166Z" transform="translate(-957.603 -536.146)" fill="#fff"/></g><g transform="translate(979.731 545.833)"><path d="M1000.3,548.708l-8.936,1.336a1.155,1.155,0,0,0-.989,1.154v8.375a3.368,3.368,0,0,0-1.682-.1,2.489,2.489,0,1,0,.94,4.814,2.8,2.8,0,0,0,2.423-2.539v-8.376l7.9-1.187v5.7a3.365,3.365,0,0,0-1.682-.1,2.489,2.489,0,1,0,.94,4.814,2.8,2.8,0,0,0,2.423-2.539V549.863A1.159,1.159,0,0,0,1000.3,548.708Z" transform="translate(-986.264 -548.693)" fill="#fff"/></g></g></svg>