<svg xmlns="http://www.w3.org/2000/svg" width="55" height="55" viewBox="0 0 55 55"><path d="M27.5,0A27.5,27.5,0,1,1,0,27.5,27.5,27.5,0,0,1,27.5,0Z" fill="indigo"/><g transform="translate(-666.5 -1014.721)"><path d="M690.7,1052.139a3.45,3.45,0,0,0-6.9-.012v.012a3.45,3.45,0,0,0,6.9.013Z" transform="translate(-0.509 -1.644)" fill="#fff"/><path d="M691.67,1053.292q-.34,2.714-.9,5.4a1.814,1.814,0,0,0,3.552.737,71.793,71.793,0,0,0,1.5-14.59v-7.9a1.208,1.208,0,0,1,.8-1.138l11.395-4.088a2.419,2.419,0,0,0-1.633-4.553l-13.782,4.944a1.216,1.216,0,0,1-.817,0l-11.472-4.115a2.419,2.419,0,0,0-1.633,4.553l9.085,3.259a1.209,1.209,0,0,1,.8,1.138v3.366a1.209,1.209,0,0,1-1.757,1.078l-6.525-3.315a1.814,1.814,0,0,0-1.643,3.234h0l9.113,4.629A7.257,7.257,0,0,1,691.67,1053.292Z" fill="#fff"/></g></svg>