<svg xmlns="http://www.w3.org/2000/svg" width="55" height="55" viewBox="0 0 55 55"><path d="M27.5,0A27.5,27.5,0,1,1,0,27.5,27.5,27.5,0,0,1,27.5,0Z" fill="indigo"/><path d="M412.175,428.806a1.53,1.53,0,0,1-1.525,1.525H382.439a1.525,1.525,0,0,1,0-3.05H410.65A1.505,1.505,0,0,1,412.175,428.806Zm-1.525-22.112H382.439a1.529,1.529,0,0,0-1.525,1.525v1.525h31.261v-1.525A1.505,1.505,0,0,0,410.65,406.694Zm-14.1-7.548-10.789,6.023h21.577Zm3.431,13.648v-1.525h-6.863v1.525a1.53,1.53,0,0,0,1.525,1.525h3.813A1.53,1.53,0,0,0,399.976,412.794Zm-17.537,1.525h4.575v-3.05h-6.1v1.525A1.529,1.529,0,0,0,382.439,414.319Zm23.636,0h4.575a1.529,1.529,0,0,0,1.525-1.525v-1.525h-6.1Zm-8.005,11.437v-9.912h-3.05v9.912Zm8.005-9.912v9.912h3.05v-9.912Zm-19.061,9.912v-9.912h-3.05v9.912Z" transform="translate(-369.5 -387.5)" fill="#fff"/></svg>