<svg xmlns="http://www.w3.org/2000/svg" width="55" height="55" viewBox="0 0 55 55"><path d="M27.5,0A27.5,27.5,0,1,1,0,27.5,27.5,27.5,0,0,1,27.5,0Z" fill="indigo"/><g transform="translate(-652.5 -473.945)"><path d="M662.589,509.884c-.1.233-.2.489-.295.769a23.137,23.137,0,0,0-.882,7.113h-.436a.464.464,0,0,0-.464.464v.7h3.657v-.7a.464.464,0,0,0-.464-.464h-.436a32.219,32.219,0,0,1,.193-3.631,40.343,40.343,0,0,1,21.714-.016,32.293,32.293,0,0,1,.2,3.647h-.434a.464.464,0,0,0-.465.464v.7h3.657v-.7a.464.464,0,0,0-.465-.464h-.436c-.014-4.019-.529-6.4-1.178-7.882h2.844l.471-2.457a.546.546,0,0,0-.546-.547H678.593a.928.928,0,0,0-1.851,0H665.068a.927.927,0,0,0-1.85,0h-3.335a.546.546,0,0,0-.546.547l.472,2.457Z" transform="translate(0 -6.045)" fill="#fff"/><g transform="translate(679.097 490.81)"><path d="M692.18,506.121l4.91-.63a1.157,1.157,0,0,1-.119-.446l-4.843.692Z" transform="translate(-692.128 -496.467)" fill="#fff"/><g transform="translate(5.072)"><circle cx="2.612" cy="2.612" r="2.612" transform="translate(0.664)" fill="#fff"/><path d="M710.395,498.339c.008-.039.019-.077.031-.115a1.163,1.163,0,0,1,1.1-.8,1.162,1.162,0,0,1,1.143,1.368,3.552,3.552,0,0,1-.63,1.365,4.572,4.572,0,0,1-.533.612l-.021.021-.023.021.094-.012a23,23,0,0,1,3.156,2.2c-.21.187-.425.4-.641.627a9.527,9.527,0,0,0-1.783,2.72,10.131,10.131,0,0,0-.806,4.046,13.594,13.594,0,0,0,.438,3.332,1.451,1.451,0,0,0,2.814-.71h0a10.7,10.7,0,0,1-.35-2.622,7.205,7.205,0,0,1,.568-2.9,6.48,6.48,0,0,1,.679-1.2,15.651,15.651,0,0,0,.509,3.878,8.97,8.97,0,0,0,2.33,4.143,1.451,1.451,0,1,0,2.017-2.086,6.09,6.09,0,0,1-1.547-2.824,13.047,13.047,0,0,1-.409-3.393,18.1,18.1,0,0,1,.116-2.031c.029-.253.058-.452.078-.585.011-.066.019-.116.024-.147l.006-.033v0a1.384,1.384,0,0,0,.025-.223,2.246,2.246,0,0,0-.453-2.209c-.176-.207-.346-.4-.514-.583a.912.912,0,0,0,.063-.207l2.571-.33-.094-.691-2.444.35a4.949,4.949,0,0,0-.242-1.61,2.886,2.886,0,0,0-1.274-1.6,3.468,3.468,0,0,0-1.752-.427,7.863,7.863,0,0,0-2.692.574c-.474.181-.85.36-1.063.467a2.27,2.27,0,0,0-1.238,1.006,1.58,1.58,0,0,0,.079,1.514c.021-.016.042-.032.062-.049A1.821,1.821,0,0,0,710.395,498.339Zm4.25-.8a2,2,0,0,1,.605.083.912.912,0,0,1,.533.407,1.574,1.574,0,0,1,.178.442,11.78,11.78,0,0,0-1.451-.927C714.556,497.539,714.6,497.536,714.645,497.536Z" transform="translate(-704.101 -492.745)" fill="#fff"/><path d="M701.392,503.48c.473.042.917.061,1.335.061h.034a7.351,7.351,0,0,0,4.733-1.376c.09-.073.175-.146.254-.221l.024-.022a4.395,4.395,0,0,0,.384-.418,3.45,3.45,0,0,0,.732-1.453.929.929,0,0,0-1.823-.352h0v0a2.048,2.048,0,0,1-.676.968c-.03.025-.061.05-.093.075a5.6,5.6,0,0,1-3.567.938c-.359,0-.75-.017-1.172-.054a.928.928,0,0,0-1.007.844.967.967,0,0,0,0,.118.929.929,0,0,0,.845.888Z" transform="translate(-700.545 -494.047)" fill="#fff"/></g></g></g></svg>