<svg xmlns="http://www.w3.org/2000/svg" width="55" height="55" viewBox="0 0 55 55"><path d="M27.5,0A27.5,27.5,0,1,1,0,27.5,27.5,27.5,0,0,1,27.5,0Z" fill="indigo"/><g transform="translate(-403.5 -942.426)"><g transform="translate(414.924 958.047)"><path d="M446.335,964.438a21.885,21.885,0,0,0-30.911,0,1.8,1.8,0,0,0,.034,2.523,1.768,1.768,0,0,0,2.523,0,18.252,18.252,0,0,1,12.916-5.348,18,18,0,0,1,12.916,5.348,1.839,1.839,0,0,0,1.278.538,1.759,1.759,0,0,0,1.278-.538A1.8,1.8,0,0,0,446.335,964.438Z" transform="translate(-414.924 -958.047)" fill="#fff"/><path d="M433.123,967.53a15.316,15.316,0,0,0-10.932,4.574,1.766,1.766,0,0,0,.033,2.523,1.784,1.784,0,0,0,1.245.5,1.7,1.7,0,0,0,1.278-.538,11.856,11.856,0,0,1,16.784-.033,1.784,1.784,0,0,0,2.523-2.523A15.393,15.393,0,0,0,433.123,967.53Z" transform="translate(-417.15 -961.173)" fill="#fff"/><path d="M435.315,977.013a9.061,9.061,0,0,0-6.458,2.691,1.784,1.784,0,0,0,2.523,2.523,5.69,5.69,0,0,1,7.837,0,1.84,1.84,0,0,0,1.278.538,1.8,1.8,0,0,0,1.278-3.061A9.063,9.063,0,0,0,435.315,977.013Z" transform="translate(-419.342 -964.299)" fill="#fff"/><circle cx="2.724" cy="2.724" r="2.724" transform="translate(13.248 19.105)" fill="#fff"/></g></g></svg>