<svg xmlns="http://www.w3.org/2000/svg" width="55" height="55" viewBox="0 0 55 55"><path d="M27.5,0A27.5,27.5,0,1,1,0,27.5,27.5,27.5,0,0,1,27.5,0Z" fill="indigo"/><g transform="translate(-851.5 -453.484)"><g transform="translate(861.297 467.656)"><path d="M861.378,486.573l.87,1.013c.239.279.572.017.738-.582l.039-.137a1.08,1.08,0,0,0,.035-.2l1.7-1.412a5.365,5.365,0,0,0,.351.442,5.136,5.136,0,0,0,1.453,1.219,3.263,3.263,0,0,0,3.692-.379l7.821-6.888a2.194,2.194,0,0,0,.677-1.565,2.287,2.287,0,0,0-.61-1.47,3.9,3.9,0,0,0-.383-.385,2.408,2.408,0,0,0-1.564-.865,2.9,2.9,0,0,0-2.25.927l-1.747,1.45a.575.575,0,0,0-.38-.112.226.226,0,0,0-.046.007.47.47,0,0,0-.224.1l-.248.213-.283-.33,2.676-2.065.078-.067s3.411-2.743,5.115-2.439l.361.42a.693.693,0,1,0,1.051-.9l-4.015-4.673a.694.694,0,0,0-1.053.9l.361.42c.044,1.731-3.182,4.689-3.182,4.689l-.078.067-2.453,2.344a.355.355,0,0,0-.459-.049l-.022.018-.317-.369.094-.081a.169.169,0,0,0-.22-.256l-.419.36a.169.169,0,1,0,.22.256l.095-.081.316.369-.58.5-.317-.369.094-.081a.169.169,0,0,0-.22-.256l-.42.36a.169.169,0,0,0,.22.256l.1-.081.316.369-.584.5-.317-.369.095-.081a.171.171,0,0,0,.018-.239.168.168,0,0,0-.238-.018l-.419.359a.169.169,0,0,0,.22.256l.094-.081.317.369-.011.009a.378.378,0,0,0,.02.528l.057.066-2.456,2.111a3.289,3.289,0,0,0-.9,3.741l-1.892,1.571a1.089,1.089,0,0,0-.158,0l-.142.018C861.447,486.006,861.138,486.3,861.378,486.573Zm13.584-5.651-2.074-2.414,1.738-1.443.01-.01a1.966,1.966,0,0,1,1.449-.668,1.375,1.375,0,0,1,.888.5l.036.05.043.036a1.611,1.611,0,0,1,.674,1.115,1.2,1.2,0,0,1-.345.8l-2.421,2.029ZM872.456,480l.1-.083a.379.379,0,0,0-.02-.528l-.29-.339.251-.209,2.076,2.416-.6.5Zm-3.93-.442.4.462-.4.348-.038.033,0,0c-.111.1-.261.26-.172.43a.476.476,0,0,0,.027.127l-2.767,2.3a1.769,1.769,0,0,1,.059-.658,3.1,3.1,0,0,1,.445-.933l2.456-2.111Zm2.3,2.549-.509.437-.952-1.108.449-.373.326.38a.472.472,0,0,0,.246.152Zm-4.515,2.634-.016-.022-.019-.021a3.572,3.572,0,0,1-.328-.424l3.022-2.51.957,1.115a.514.514,0,0,0,.724.054l.509-.437a.514.514,0,0,0,.055-.724l-.35-.407,1.2-1.029,1.508,1.755-4.154,3.48a1.81,1.81,0,0,1-2.112,0A3.653,3.653,0,0,1,866.314,484.735Z" transform="translate(-861.297 -467.656)" fill="#fff"/></g><g transform="translate(874.568 472.85)"><path d="M898.467,474.383l-12.756,1.906a1.651,1.651,0,0,0-1.412,1.648v11.956a4.809,4.809,0,0,0-2.4-.141c-2.26.447-3.789,2.329-3.413,4.236s2.5,3.083,4.754,2.636A4,4,0,0,0,886.7,493V481.043l11.273-1.694v8.143a4.812,4.812,0,0,0-2.4-.141c-2.259.447-3.789,2.329-3.412,4.236s2.494,3.083,4.754,2.636a4,4,0,0,0,3.46-3.624V476.03A1.655,1.655,0,0,0,898.467,474.383Z" transform="translate(-878.43 -474.361)" fill="#fff"/></g></g></svg>