<svg xmlns="http://www.w3.org/2000/svg" width="55" height="55" viewBox="0 0 55 55"><path d="M27.5,0A27.5,27.5,0,1,1,0,27.5,27.5,27.5,0,0,1,27.5,0Z" fill="indigo"/><g transform="translate(-648.5 -609.825)"><path d="M682.073,622.036a3.089,3.089,0,0,1,4.365-.06,2.781,2.781,0,0,1-.112,4.1,2.9,2.9,0,0,1-4.188.325A3.089,3.089,0,0,1,682.073,622.036Z" transform="translate(-2.194 0)" fill="#fff"/><path d="M676.414,646.85l-5.595,2.466a1.427,1.427,0,0,0-.668.544,1.86,1.86,0,0,0,.381,2.6,1.938,1.938,0,0,0,2.013.15l1.473-.669,4.847-2.214c2.9-1.728,1.81-3.846,1.195-4.716s-3.709-5.069-3.709-5.069l1.485-1.842,3.466-4.269,3.226,2.637s.907.76,2.51-.141l4.914-2.613a1.7,1.7,0,0,0,.829-1.256,1.655,1.655,0,0,0-1.369-1.874,2.238,2.238,0,0,0-1.143.3l-4.529,2.032s-1.585-2.1-2.094-2.662a14.91,14.91,0,0,0-1.7-1.58,7.938,7.938,0,0,0-3.335-1.329l-.542-.005-5.326.32a2.873,2.873,0,0,0-1.8.852c-.5.346-3.992,2.721-4.249,2.918a1.332,1.332,0,0,0-.56,1.171,1.518,1.518,0,0,0,1.508,1.455,2.554,2.554,0,0,0,1.386-.63l3.971-2.56,2.343.022-3.685,5.764c-1.929,2.431.142,4.479.844,5.438Z" transform="translate(-0.682 -0.626)" fill="#fff"/><path d="M671.208,644.509l-.251-.3a10.174,10.174,0,0,1-1.337-2.007c-.016-.035-4.692,5.6-4.692,5.6l-5.118,5.28a1.438,1.438,0,0,0-.416.755,1.862,1.862,0,0,0,1.326,2.272,1.946,1.946,0,0,0,1.923-.613l1.863-1.92,3.474-3.55c1.085-.973,3.251-3.19,4.294-4.265Z" transform="translate(0 -2.117)" fill="#fff"/></g></svg>