<svg xmlns="http://www.w3.org/2000/svg" width="38.522" height="27.244" viewBox="0 0 38.522 27.244"><g transform="translate(-23.24 -297.661)"><path d="M32.537,312.531c3.01,0,5.44-1.609,6.19-4.1a13.24,13.24,0,0,0,.694-6.038c-.554-2.654-3.58-4.733-6.9-4.733-3.341,0-6.293,2.04-6.867,4.734a13.231,13.231,0,0,0,.7,6.037C27.1,310.922,29.524,312.531,32.537,312.531Zm0-1.5c-2.335,0-4.2-1.189-4.75-3.031a12.039,12.039,0,0,1-.667-5.3c.422-1.982,2.8-3.538,5.4-3.542h.011c2.625,0,5.007,1.555,5.421,3.539a12.072,12.072,0,0,1-.662,5.3C36.736,309.841,34.869,311.031,32.537,311.031Z" fill="indigo"/><path d="M58.933,303.907a5.805,5.805,0,0,0-1.109-.182,7.528,7.528,0,0,0-.135-1.352,5.464,5.464,0,0,0-2.222-3.2,7.649,7.649,0,0,0-2.59-1.223,8.086,8.086,0,0,0-2.079-.277,8.179,8.179,0,0,0-2.378.356A7.576,7.576,0,0,0,45.6,299.6a5.285,5.285,0,0,0-1.706,2.836,7.716,7.716,0,0,0-.114,1.287,5.769,5.769,0,0,0-1.1.183,3.889,3.889,0,0,0-2.7,4.7c.318,1.251,2.041,2.466,3.04,3.078l1.424.872c-.142.106-.285.212-.421.334-1.478,1.58-2.1,5.256-2.352,8.385-.256-3.131-.878-6.81-2.368-8.384l-.05-.048a5.267,5.267,0,0,0-2.332-1.18l-.378-.084-.288.261A5.281,5.281,0,0,1,32.5,313.2a5.317,5.317,0,0,1-3.7-1.352l-.289-.261-.379.085a5.32,5.32,0,0,0-2.392,1.244c-1.955,2.1-2.394,7.934-2.482,11.222l-.02.77h36.9l-.027-.775c-.134-4.052-.684-9.294-2.543-11.259l-.05-.047c-.109-.1-.227-.179-.344-.265l1.412-.866c.993-.608,2.709-1.817,3.041-3.079A3.9,3.9,0,0,0,58.933,303.907Zm0,2.938a3.708,3.708,0,0,0-1.61-1.63,4.375,4.375,0,0,1,1.227.141,2.436,2.436,0,0,1,1.631,2.884,2.757,2.757,0,0,1-.846,1.06A4.949,4.949,0,0,0,58.931,306.845ZM56.2,305.3l-.072.392a21.135,21.135,0,0,1-.574,2.342,2.019,2.019,0,0,1-.071.2A4.72,4.72,0,0,1,50.8,311.06a4.728,4.728,0,0,1-4.692-2.814c-.026-.071-.052-.143-.075-.22a20.034,20.034,0,0,1-.563-2.319L45.4,305.3h.012l-.1-.9a6.175,6.175,0,0,1,.05-1.663,3.765,3.765,0,0,1,1.224-2.007,6.071,6.071,0,0,1,2.27-1.266,6.528,6.528,0,0,1,3.637-.065,6.236,6.236,0,0,1,2.111,1,3.953,3.953,0,0,1,1.62,2.292,5.979,5.979,0,0,1,.07,1.71l-.093.9Zm-13.931,3.991a2.719,2.719,0,0,1-.842-1.053,2.427,2.427,0,0,1,1.632-2.881,4.226,4.226,0,0,1,1.092-.144l.148,0a3.755,3.755,0,0,0-1.646,1.645A4.916,4.916,0,0,0,42.271,309.291Zm.768,14.114c.19-4.763.95-8.287,2.025-9.44a3.8,3.8,0,0,1,1.314-.76,6.657,6.657,0,0,0,4.394,1.47A6.777,6.777,0,0,0,55.22,313.2a3.746,3.746,0,0,1,1.277.714c1.127,1.214,1.868,4.578,2.09,9.488Zm-18.254,0c.189-4.754.94-8.271,2-9.418a3.82,3.82,0,0,1,1.326-.759A6.536,6.536,0,0,0,32.5,314.7a6.749,6.749,0,0,0,4.444-1.473,3.772,3.772,0,0,1,1.28.715c1.128,1.215,1.88,4.657,2.07,9.467Zm30.41-11.762-.379-.083-.286.261a5.818,5.818,0,0,1-7.465,0l-.291-.264-.381.088a5.182,5.182,0,0,0-1.712.742l-.567-1.594A4.531,4.531,0,0,1,44,307.522a2.2,2.2,0,0,1,.239-.37c.1.443.225.882.357,1.313.033.106.07.209.109.318A6.183,6.183,0,0,0,50.8,312.56a6.172,6.172,0,0,0,6.09-3.795c.042-.109.082-.219.108-.313.13-.427.25-.866.357-1.309a2.124,2.124,0,0,1,.228.356,4.6,4.6,0,0,1-.09,3.306l-.554,1.579A5.247,5.247,0,0,0,55.195,311.643Z" fill="indigo"/></g></svg>