<svg xmlns="http://www.w3.org/2000/svg" width="55" height="55" viewBox="0 0 55 55"><g transform="translate(-499 -833)"><g transform="translate(499 833)"><circle cx="27.5" cy="27.5" r="27.5" fill="indigo"/></g><g transform="translate(-82.5 -639.5)"><path d="M599.525,1501.74c3.009,0,5.44-1.609,6.19-4.1a13.254,13.254,0,0,0,.694-6.038c-.554-2.654-3.58-4.732-6.9-4.732-3.341,0-6.293,2.039-6.867,4.733a13.228,13.228,0,0,0,.7,6.037C594.084,1500.131,596.512,1501.74,599.525,1501.74Z" fill="#fff"/><path d="M625.921,1493.115a5.827,5.827,0,0,0-1.109-.181,7.7,7.7,0,0,0-.135-1.352,5.462,5.462,0,0,0-2.223-3.2,7.654,7.654,0,0,0-2.589-1.224,8.022,8.022,0,0,0-4.457.08,7.554,7.554,0,0,0-2.821,1.572,5.278,5.278,0,0,0-1.706,2.836,7.611,7.611,0,0,0-.115,1.287,5.787,5.787,0,0,0-1.1.182,3.891,3.891,0,0,0-2.7,4.7c.318,1.252,2.041,2.466,3.04,3.078l1.424.873c-.143.1-.285.212-.421.333-1.478,1.58-2.1,5.256-2.352,8.386-.256-3.132-.878-6.81-2.368-8.385l-.05-.048a5.267,5.267,0,0,0-2.332-1.18l-.378-.083-.288.261a5.8,5.8,0,0,1-7.449,0l-.288-.261-.379.085a5.308,5.308,0,0,0-2.392,1.245c-1.955,2.1-2.394,7.933-2.482,11.221l-.021.77h36.9l-.027-.775c-.134-4.051-.684-9.293-2.544-11.258l-.049-.048c-.109-.095-.228-.179-.344-.265l1.412-.865c.993-.609,2.708-1.817,3.04-3.08A3.9,3.9,0,0,0,625.921,1493.115Zm-3.739,7.737-.378-.084-.287.261a5.814,5.814,0,0,1-7.464,0l-.291-.264-.381.088a5.2,5.2,0,0,0-1.712.742L611.1,1500a4.539,4.539,0,0,1-.112-3.272,2.151,2.151,0,0,1,.239-.369c.1.442.225.881.357,1.312.033.107.07.209.109.318a6.794,6.794,0,0,0,12.183-.017c.042-.11.082-.22.108-.313.13-.428.25-.866.357-1.31a2.09,2.09,0,0,1,.228.357,4.6,4.6,0,0,1-.09,3.3l-.554,1.579A5.24,5.24,0,0,0,622.182,1500.852Z" fill="#fff"/></g></g></svg>