<svg xmlns="http://www.w3.org/2000/svg" viewBox="0 0 37 25.21"><defs><style>.cls-1{fill:#fff;}</style></defs><title>Asset 5</title><g id="Layer_2" data-name="Layer 2"><g id="Calque_1" data-name="Calque 1"><path class="cls-1" d="M14.68,4.14C14.19,1.79,11.45,0,8.51,0S2.88,1.78,2.38,4.14c-.13.59-.35,2.25.68,5.67.59,2,2.54,3.56,5.47,3.56S13.4,11.78,14,9.81C15,6.39,14.8,4.73,14.68,4.14Z"/><path class="cls-1" d="M14.74,14.47a4.42,4.42,0,0,0-2-1A6,6,0,0,1,8.51,15a6,6,0,0,1-4.22-1.55,4.58,4.58,0,0,0-2,1C.49,16.41.08,22.14,0,25.21H17.06C17,22.12,16.56,16.39,14.74,14.47Z"/><path class="cls-1" d="M33,14.45a4.47,4.47,0,0,0-2-1A6,6,0,0,1,26.79,15a6,6,0,0,1-4.24-1.55,4.51,4.51,0,0,0-2,1c-1.81,1.94-2.22,7.67-2.31,10.75H35.36C35.25,22.11,34.84,16.37,33,14.45Z"/><path class="cls-1" d="M34.73,6.22A4.87,4.87,0,0,0,33,6.07,6.59,6.59,0,0,0,33,4.14,4.75,4.75,0,0,0,31,1.37,7.05,7.05,0,0,0,28.67.26,7.47,7.47,0,0,0,26.79,0a7.21,7.21,0,0,0-2.16.33,6.68,6.68,0,0,0-2.55,1.42,4.48,4.48,0,0,0-1.46,2.4,6.79,6.79,0,0,0-.06,1.91,4.87,4.87,0,0,0-1.7.15A3.17,3.17,0,0,0,16.69,10c.23.91,1.69,2,2.71,2.62a5.23,5.23,0,0,1-.08-3.86,3,3,0,0,1,1.4-1.34,22.06,22.06,0,0,0,.58,2.4c0,.1.07.19.1.28a5.42,5.42,0,0,0,5.39,3.29,5.43,5.43,0,0,0,5.39-3.32l.09-.26a22.11,22.11,0,0,0,.59-2.4,2.94,2.94,0,0,1,1.39,1.35,5.29,5.29,0,0,1-.06,3.87c1-.62,2.47-1.72,2.7-2.62A3.16,3.16,0,0,0,34.73,6.22Z"/></g></g></svg>