<svg xmlns="http://www.w3.org/2000/svg" width="55" height="55" viewBox="0 0 55 55"><path d="M27.5,0A27.5,27.5,0,1,1,0,27.5,27.5,27.5,0,0,1,27.5,0Z" fill="indigo"/><g transform="translate(-848.5 -662.307)"><g transform="translate(861.297 675.807)"><path d="M873.758,702.8a5.019,5.019,0,0,1-1.076.314l3.29,7.858a1.113,1.113,0,1,0,2.054-.86h0l-3.289-7.858A5.014,5.014,0,0,1,873.758,702.8Z" transform="translate(-866.208 -687.217)" fill="#fff"/><path d="M863.784,693.989a2.169,2.169,0,0,0,1.135-1.156,1.038,1.038,0,0,1,.564-.615.932.932,0,0,1,.36-.089,1.6,1.6,0,0,1,.474.087,2.652,2.652,0,0,0,.819.13,2.091,2.091,0,0,0,.8-.188A2.165,2.165,0,0,0,869.07,691a1.041,1.041,0,0,1,.565-.615A.935.935,0,0,1,870,690.3a1.584,1.584,0,0,1,.474.087,2.649,2.649,0,0,0,.819.13,1.981,1.981,0,0,0,.417-.057,6.312,6.312,0,0,0-.285-.871c-.035-.083-.076-.16-.114-.24-.015,0-.032.006-.047.006a1.6,1.6,0,0,1-.474-.087,2.67,2.67,0,0,0-.819-.13,2.1,2.1,0,0,0-.8.188,2.166,2.166,0,0,0-1.134,1.156,1.039,1.039,0,0,1-.565.615.943.943,0,0,1-.36.089,1.6,1.6,0,0,1-.474-.088,2.67,2.67,0,0,0-.819-.13,2.1,2.1,0,0,0-.8.188,2.161,2.161,0,0,0-1.134,1.156,1.042,1.042,0,0,1-.565.615.945.945,0,0,1-.361.089,1.6,1.6,0,0,1-.474-.088,2.727,2.727,0,0,0-.789-.129,6.241,6.241,0,0,0,.255.755c.072.172.152.338.237.5a2.605,2.605,0,0,0,.8.125A2.089,2.089,0,0,0,863.784,693.989Z" transform="translate(-861.468 -681.556)" fill="#fff"/><path d="M861.484,690.113a2.914,2.914,0,0,1,.906.141,1.382,1.382,0,0,0,.387.076.646.646,0,0,0,.25-.064c.233-.1.284-.205.423-.479a2.446,2.446,0,0,1,1.277-1.291,2.362,2.362,0,0,1,.91-.213,2.917,2.917,0,0,1,.906.141,1.379,1.379,0,0,0,.387.076.65.65,0,0,0,.25-.065c.233-.1.284-.2.422-.479a2.449,2.449,0,0,1,1.277-1.291,2.368,2.368,0,0,1,.91-.213,2.909,2.909,0,0,1,.9.141,2.032,2.032,0,0,0,.3.066,5.352,5.352,0,0,0-6.669-2.7,5.293,5.293,0,0,0-2.881,6.162Z" transform="translate(-861.297 -679.164)" fill="#fff"/><path d="M871.825,691.908a2.946,2.946,0,0,1-.9-.141,1.41,1.41,0,0,0-.388-.076.658.658,0,0,0-.251.065c-.233.1-.284.205-.422.479a2.446,2.446,0,0,1-1.277,1.292,2.372,2.372,0,0,1-.909.212,2.914,2.914,0,0,1-.905-.141,1.409,1.409,0,0,0-.387-.077.653.653,0,0,0-.251.065c-.232.1-.284.2-.422.48a2.451,2.451,0,0,1-1.277,1.291,2.371,2.371,0,0,1-.91.212,2.419,2.419,0,0,1-.6-.064,5.061,5.061,0,0,0,9.387-3.663A2.263,2.263,0,0,1,871.825,691.908Z" transform="translate(-861.996 -682.659)" fill="#fff"/><path d="M885.621,695.024a4.876,4.876,0,0,1-1-.433l-2.416,7.945a1.085,1.085,0,1,0,2.076.635v0l2.416-7.944A4.894,4.894,0,0,1,885.621,695.024Z" transform="translate(-870.294 -683.909)" fill="#fff"/><path d="M883.851,683.8a2.11,2.11,0,0,0,1.571-.163,1.013,1.013,0,0,1,.806-.11.9.9,0,0,1,.326.157,1.555,1.555,0,0,1,.3.36,2.573,2.573,0,0,0,.533.607,2.038,2.038,0,0,0,.717.356,2.109,2.109,0,0,0,1.571-.163,1.014,1.014,0,0,1,.806-.11.908.908,0,0,1,.327.158,1.565,1.565,0,0,1,.3.36,2.587,2.587,0,0,0,.533.607,1.926,1.926,0,0,0,.349.216,6.141,6.141,0,0,0,.327-.831c.026-.084.042-.168.064-.251-.013-.009-.028-.016-.04-.025a1.554,1.554,0,0,1-.3-.36,2.584,2.584,0,0,0-.533-.606,2.028,2.028,0,0,0-.718-.357,2.11,2.11,0,0,0-1.571.163,1.015,1.015,0,0,1-.807.11.921.921,0,0,1-.326-.157,1.578,1.578,0,0,1-.3-.36,2.576,2.576,0,0,0-.533-.607,2.029,2.029,0,0,0-.718-.357,2.109,2.109,0,0,0-1.57.163,1.012,1.012,0,0,1-.806.11.9.9,0,0,1-.326-.157,1.575,1.575,0,0,1-.3-.359,2.641,2.641,0,0,0-.512-.587,6.062,6.062,0,0,0-.278.724c-.053.174-.1.348-.133.522a2.552,2.552,0,0,0,.524.593A2.036,2.036,0,0,0,883.851,683.8Z" transform="translate(-870.491 -678.308)" fill="#fff"/><path d="M883.579,678.862a2.833,2.833,0,0,1,.593.669,1.359,1.359,0,0,0,.243.3.643.643,0,0,0,.228.107.751.751,0,0,0,.615-.1,2.384,2.384,0,0,1,1.761-.176,2.314,2.314,0,0,1,.815.407,2.838,2.838,0,0,1,.592.669,1.375,1.375,0,0,0,.243.3.633.633,0,0,0,.229.107.748.748,0,0,0,.615-.1,2.386,2.386,0,0,1,1.762-.176,2.314,2.314,0,0,1,.815.407,2.834,2.834,0,0,1,.592.668,1.921,1.921,0,0,0,.185.237,5.217,5.217,0,0,0-3.325-6.176,5.159,5.159,0,0,0-5.994,2.835C883.558,678.848,883.569,678.854,883.579,678.862Z" transform="translate(-870.895 -675.807)" fill="#fff"/><path d="M891.375,687.325a2.874,2.874,0,0,1-.592-.669,1.364,1.364,0,0,0-.243-.3.645.645,0,0,0-.229-.107.748.748,0,0,0-.615.1,2.386,2.386,0,0,1-1.762.176,2.314,2.314,0,0,1-.815-.406,2.848,2.848,0,0,1-.592-.668,1.35,1.35,0,0,0-.243-.3.641.641,0,0,0-.228-.107.749.749,0,0,0-.615.1,2.391,2.391,0,0,1-1.761.175,2.325,2.325,0,0,1-.815-.406,2.367,2.367,0,0,1-.413-.424,4.933,4.933,0,0,0,9.324,3.086A2.213,2.213,0,0,1,891.375,687.325Z" transform="translate(-870.396 -679.551)" fill="#fff"/></g><g transform="translate(875.565 687.334)"><path d="M901.1,696.093l-9.363,1.4a1.211,1.211,0,0,0-1.037,1.21v8.776a3.532,3.532,0,0,0-1.762-.1,2.608,2.608,0,1,0,.984,5.044,2.936,2.936,0,0,0,2.54-2.661v-8.776l8.275-1.244v5.978a3.531,3.531,0,0,0-1.762-.1,2.608,2.608,0,1,0,.984,5.044A2.935,2.935,0,0,0,902.5,708V697.3A1.215,1.215,0,0,0,901.1,696.093Z" transform="translate(-886.387 -696.077)" fill="#fff"/></g></g></svg>