<svg xmlns="http://www.w3.org/2000/svg" width="55" height="55" viewBox="0 0 55 55"><path d="M27.5,0A27.5,27.5,0,1,1,0,27.5,27.5,27.5,0,0,1,27.5,0Z" fill="indigo"/><g transform="translate(-572.5 -1085.5)"><path d="M597.456,1132.251a1.444,1.444,0,0,0,1.4-1.077c-.971-.006-1.917-.032-2.806-.077A1.442,1.442,0,0,0,597.456,1132.251Z" fill="#fff"/><path d="M602.573,1131.259a1.442,1.442,0,0,0,2.732-.335c-.893.08-1.837.141-2.8.182C602.529,1131.158,602.55,1131.208,602.573,1131.259Z" fill="#fff"/><path d="M610.758,1126.038a11.146,11.146,0,0,1-5.934,1.357c-2.934-.381-3.768,1.18-6.095.241s-5.108.9-7.719-1.011a20.4,20.4,0,0,0-.737,2.766.293.293,0,0,0,.024.184c.852,1.8,19.66,1.659,21.14-.556a.641.641,0,0,0,.061-.114A22.887,22.887,0,0,0,610.758,1126.038Z" fill="#fff"/><path d="M596.393,1104.643l.04.013a.456.456,0,0,0,.092.011,3.029,3.029,0,1,0,1.458-3.533.665.665,0,0,0-.393.117.837.837,0,0,0-.075-.171.515.515,0,0,0-.307-.251.42.42,0,0,0-.214,0c-.206.058-.378.293-.286.67a.631.631,0,0,0-.448.146.416.416,0,0,0-.136.289.448.448,0,0,0,.31.429l.033.011a.269.269,0,0,0-.047.019.524.524,0,0,0-.224.644h0a.637.637,0,0,0-.448.146.417.417,0,0,0-.136.289.468.468,0,0,0,.392.457.918.918,0,0,0,.108.019l.048,0a.87.87,0,0,0-.038.156.643.643,0,0,0,.006.22.49.49,0,0,0,.045.118A.408.408,0,0,0,596.393,1104.643Zm.005-.637c.08-.216.257-.415.369-.374s.116.308.037.524-.214.3-.326.259S596.318,1104.223,596.4,1104.006Zm.04-1c-.063-.222,0-.369.111-.4s.242.062.3.283.036.488-.079.52S596.5,1103.226,596.438,1103.005Zm.841-.911c.112.041.117.308.037.524-.011.028-.022.053-.034.077a.866.866,0,0,0-.2.094.733.733,0,0,0-.175-.3l.007-.021C596.99,1102.252,597.167,1102.052,597.279,1102.094Zm-.095.915c.192-.127.35-.117.416-.017s.016.249-.176.377-.452.185-.518.086S596.993,1103.137,597.184,1103.009Zm-.283.585c.074-.094.328-.016.509.127s.22.3.146.39-.232.092-.413-.051S596.826,1103.688,596.9,1103.594Zm.754-1.072c-.181-.143-.316-.373-.242-.466s.329-.016.51.126.219.3.145.391S597.836,1102.665,597.655,1102.522Zm.457-1.069c.066.1.016.25-.175.378s-.452.185-.519.086.087-.318.278-.446S598.046,1101.354,598.112,1101.453Zm-1.051-.388c.115-.032.242.062.305.284s.037.487-.079.519-.275-.18-.337-.4S596.946,1101.1,597.061,1101.065Zm-.693.88c.005-.119.133-.211.364-.2s.474.115.47.235-.257.206-.487.2S596.363,1102.064,596.368,1101.945Zm-.512,1.538c0-.119.133-.211.363-.2s.475.116.47.235-.257.207-.487.2S595.851,1103.6,595.856,1103.483Z" fill="#fff"/><path d="M590.985,1126.166c2.622,1.959,5.43.1,7.757,1.038s3.162-.622,6.1-.241a11.011,11.011,0,0,0,5.81-1.293c.208-.106.324-.173.324-.173a1.5,1.5,0,0,0-.647-.648,18.674,18.674,0,0,0-1.009-2.136,9.293,9.293,0,0,1-5.117,1.234c-2.523-.339-3.243,1.065-5.243.224-1.951-.82-4.3.752-6.5-.8-.31.565-.605,1.163-.878,1.795-.671.273-.968.568-.734.866A.773.773,0,0,0,590.985,1126.166Z" fill="#fff"/><path d="M598.969,1123.783c2,.841,2.72-.563,5.242-.224a9.163,9.163,0,0,0,5-1.169c.179-.1.28-.157.28-.157a1.8,1.8,0,0,0-.973-.831c-.1-.145-.2-.286-.293-.421a5.331,5.331,0,0,0-.585-1.7,6.322,6.322,0,0,1-3.8.993c-2.017-.307-2.6,1.012-4.2.232-1.494-.73-3.012.377-4.671-.819-.476.574-.959,1.2-1.429,1.9-.732.265-1.111.565-.965.882,0,.008.006.017.011.026C594.024,1125.091,596.969,1122.941,598.969,1123.783Z" fill="#fff"/><path d="M595.145,1119.012c-.9,1.451,2.916.348,4.512,1.128s2.178-.539,4.2-.233a6.549,6.549,0,0,0,4-1.118c.144-.09.224-.147.224-.147a2.406,2.406,0,0,0-1.711-1.244,6.7,6.7,0,0,0-.4-1.539c-.186-.428-.723-.45-1.348-.294a3.741,3.741,0,0,0-1.007-.9,11.277,11.277,0,0,1-2.629,1.011,1.154,1.154,0,1,1-.586-2.232,9.939,9.939,0,0,0,1.712-.6,7.416,7.416,0,0,1,.158-1.4,1.666,1.666,0,0,1-.659.135,1.682,1.682,0,0,1-1.52-.964,1.748,1.748,0,0,0,3.121-1.082,1.666,1.666,0,0,0-.009-.174,1.724,1.724,0,0,0-.2-.661l.019-.062c.079.08.156.164.228.25a3.289,3.289,0,0,1,.892,2.01,1.858,1.858,0,0,1-.658,1.393h0a3.451,3.451,0,0,1-.415.336,8.075,8.075,0,0,1-2.592,1.093.865.865,0,0,0,.219,1.7.883.883,0,0,0,.22-.028,10.442,10.442,0,0,0,2.812-1.131,5.724,5.724,0,0,0,.948-.718l0,0a3.608,3.608,0,0,0,1.193-2.645,4.963,4.963,0,0,0-1.307-3.135,5.761,5.761,0,0,0-2.428-1.745.845.845,0,0,0-.215-.039,3.321,3.321,0,0,1-4.365.551,8.014,8.014,0,0,0-.8.183c-.036-.047-.072-.095-.108-.145a5.626,5.626,0,0,1-1.122-3.333c0-1.578.661-3.626,2.978-6.166a.865.865,0,1,0-1.276-1.168c-2.522,2.749-3.435,5.243-3.432,7.334a7.37,7.37,0,0,0,1.523,4.446,8.412,8.412,0,0,0,.913,1.03,1.725,1.725,0,0,0-.2.649,1.694,1.694,0,0,0-.009.174,1.748,1.748,0,0,0,3.121,1.082,1.68,1.68,0,0,1-1.519.964,1.658,1.658,0,0,1-.426-.056,26.546,26.546,0,0,1,.7,2.625,4.591,4.591,0,0,1-.579,3c-.288.288-.6.607-.933.956-.135.06-.26.123-.378.188A2.254,2.254,0,0,0,595.145,1119.012Z" fill="#fff"/></g></svg>