<svg xmlns="http://www.w3.org/2000/svg" width="55" height="55" viewBox="0 0 55 55"><path d="M27.5,0A27.5,27.5,0,1,1,0,27.5,27.5,27.5,0,0,1,27.5,0Z" fill="indigo"/><path d="M383.025,470.6v19.129c5.013-.923,7.058-1.847,14.709,0V469.015a24.866,24.866,0,0,0-14.709,0Zm31.266,19.789-8.575-.792a21.477,21.477,0,0,0-7.388,1.253h-.2c-1.583-.2-2.9-1.451-9.1-1.253a26.793,26.793,0,0,0-6.464,1.253c-.264,0-.528-.2-.528-.4V470.994h-1.121v20.25H415.28v-20.25h-.989v19.393c0,1.253-2.374-.792-8.575-.792Zm-7.058-20.581v20.779a24.855,24.855,0,0,1,14.71,0V469.015a24.869,24.869,0,0,0-14.71,0Zm1.912,14.117a16.639,16.639,0,0,1,10.884,0l-.264.659a16.773,16.773,0,0,0-10.488,0Zm.2-4.42-.2-.66a17.54,17.54,0,0,1,10.884,0l-.264.66a16.119,16.119,0,0,0-10.422,0Zm0-4.882-.2-.659a16.628,16.628,0,0,1,10.884,0l-.264.659a16.568,16.568,0,0,0-10.422,0Zm-15.963,9.3a16.836,16.836,0,0,1,10.95,0l-.264.659a16.773,16.773,0,0,0-10.488,0Zm10.686-4.42a16.773,16.773,0,0,0-10.488,0l-.264-.66a17.748,17.748,0,0,1,10.95,0Zm0-4.882a16.773,16.773,0,0,0-10.488,0l-.264-.659a16.825,16.825,0,0,1,10.95,0Z" transform="translate(-370.5 -452.38)" fill="#fff"/></svg>