<svg xmlns="http://www.w3.org/2000/svg" viewBox="0 0 21.97 31.48"><defs><style>.cls-1{fill:#ffb029;}</style></defs><title>Asset 5</title><g id="Layer_2" data-name="Layer 2"><g id="Calque_1" data-name="Calque 1"><path class="cls-1" d="M22,11A11.26,11.26,0,0,0,18.7,3.22a10.89,10.89,0,0,0-15.46,0A11.07,11.07,0,0,0,0,11c0,2.56,1.08,5.88,3.28,9.87a73.89,73.89,0,0,0,7.1,10.37.7.7,0,0,0,.56.26h0a.7.7,0,0,0,.56-.28,89.87,89.87,0,0,0,7-10.34C20.84,16.65,22,13.32,22,11ZM11,15.38a4.4,4.4,0,1,1,4.4-4.4A4.4,4.4,0,0,1,11,15.38Z"/></g></g></svg>