<svg xmlns="http://www.w3.org/2000/svg" viewBox="0 0 21.97 31.48"><defs><style>.cls-1{fill:#ffb029;}</style></defs><title>Asset 6</title><g id="Layer_2" data-name="Layer 2"><g id="Calque_1" data-name="Calque 1"><path class="cls-1" d="M11,16.84A5.86,5.86,0,1,1,16.84,11,5.86,5.86,0,0,1,11,16.84ZM11,6.59A4.4,4.4,0,1,0,15.38,11,4.4,4.4,0,0,0,11,6.59Z"/><path class="cls-1" d="M10.94,31.48a.7.7,0,0,1-.56-.26,73.89,73.89,0,0,1-7.1-10.37C1.08,16.86,0,13.54,0,11A11.07,11.07,0,0,1,3.24,3.22a10.89,10.89,0,0,1,15.46,0A11.26,11.26,0,0,1,22,11c.06,2.35-1.12,5.68-3.49,9.89a89.87,89.87,0,0,1-7,10.34.7.7,0,0,1-.56.28Zm0-30A9.62,9.62,0,0,0,1.46,11c0,2.31,1,5.39,3.1,9.16a73.51,73.51,0,0,0,6.36,9.42,89.86,89.86,0,0,0,6.28-9.43c2.2-3.92,3.35-7.08,3.3-9.14A9.58,9.58,0,0,0,11,1.46Z"/></g></g></svg>