<svg xmlns="http://www.w3.org/2000/svg" width="21.966" height="31.482" viewBox="0 0 21.966 31.482"><g transform="translate(-73.769 -406.932)"><path d="M95.733,417.9a11.305,11.305,0,0,0-3.261-7.747,10.9,10.9,0,0,0-15.467,0,11.077,11.077,0,0,0-3.236,7.758c-.025,2.562,1.077,5.886,3.277,9.878a75.494,75.494,0,0,0,7.1,10.366.734.734,0,0,0,.562.263h.01a.734.734,0,0,0,.564-.277,91.883,91.883,0,0,0,6.962-10.346C94.61,423.58,95.785,420.251,95.733,417.9Zm-10.982,4.409a4.393,4.393,0,1,1,4.393-4.393A4.4,4.4,0,0,1,84.751,422.307Z" fill="indigo"/></g></svg>