<svg xmlns="http://www.w3.org/2000/svg" width="55" height="55" viewBox="0 0 55 55"><path d="M27.5,0A27.5,27.5,0,1,1,0,27.5,27.5,27.5,0,0,1,27.5,0Z" fill="indigo"/><g transform="translate(-551.5 -284.5)"><path d="M567.023,293.636a3.389,3.389,0,0,0-3.361,3.416v.005a3.389,3.389,0,1,0,3.461-3.42Z" fill="#fff"/><path d="M592.777,296.468l-8.977,6.365a4.636,4.636,0,0,0-.9.837l-2.709,3.293-.006.006a.062.062,0,0,1-.089-.006l-3.92-4.449H578.7l5.226-2.948a1.534,1.534,0,0,0-1.508-2.671l-4.525,2.552h-6.171a1.976,1.976,0,0,0-1.622.847l-2.826,4.059a2.863,2.863,0,0,0-.506,1.858l.256,3.32-.93-1.881a1.5,1.5,0,0,0-.085-.151,1.535,1.535,0,1,0-2.58,1.664l3.818,5.893a1.533,1.533,0,0,0,2.815-.689l.707-7.424,6.883,7.815a.685.685,0,0,1,.171.454v13.163a1.889,1.889,0,1,0,3.778,0V312.706a.684.684,0,0,1,.135-.411l5.293-7.085a.711.711,0,0,1,.153-.147l7.776-5.514a1.889,1.889,0,1,0-2.185-3.081Z" fill="#fff"/></g></svg>