<svg xmlns="http://www.w3.org/2000/svg" viewBox="0 0 37.22 40.37"><defs><style>.cls-1{fill:#fff;}</style></defs><title>Asset 5</title><g id="Layer_2" data-name="Layer 2"><g id="Calque_1" data-name="Calque 1"><path class="cls-1" d="M13,13.16c.64-.25,1.27-.51,1.84-.7A8.48,8.48,0,0,1,17.11,12a1.56,1.56,0,0,1,1.15.51c1.4,1.27.82,3.69.38,5.85a11.55,11.55,0,0,0-.25,1.4l-.58,3.5,2,.31c1.33.19,2.6.45,3.94.64a4.11,4.11,0,0,1,2.92,2c.51.83,1,1.65,1.4,2.42l.45.76,1.71,3.05,1.21,2.16.7-.44a6.83,6.83,0,0,1,1.21-.7,1.52,1.52,0,0,1,1.14-.26.94.94,0,0,1,.58.39l.06.12c.06.13.19.26.25.38a1,1,0,0,1-.12,1.4,1.74,1.74,0,0,1-.38.32c-1,.64-2.17,1.34-3.56,2.23-.45.25-.77.38-1.09.25-.63-.19-1.2-1.14-1.65-1.91l-2.29-4.07c-.7-1.2-1.33-2.41-2-3.56l-.19-.31-.51.12c-.32-.06-.64-.06-1-.12l-1.46-.2c-1.27-.19-2.54-.38-4-.63l-.38-.06c-1.21-.2-2.42-.39-3.63-.64a2.7,2.7,0,0,1-1.59-1,2,2,0,0,1-.38-1v-.13a2.32,2.32,0,0,1,.06-.64c.32-2,1.28-8.2,1.66-10.36Z"/><path class="cls-1" d="M11.26,15.45C10.82,18.06,10,22,9.74,23.84a4.52,4.52,0,0,0-.06.83v.13a2.93,2.93,0,0,0,.69,2,4.18,4.18,0,0,0,2.55,1.59c1.21.25,2.48.44,3.62.7l.38.06c1.47.26,2.74.45,4,.64l1.52.19c.19,0,.39.06.51.06.64,1.08,1.21,2.16,1.85,3.24l.12.2c2.17,3.75,2.23,3.87,2.23,3.87h0c.57,1,1.33,2.36,2.61,2.67a1.6,1.6,0,0,0,.57.07,3.51,3.51,0,0,0,1.71-.51c1.47-.89,2.55-1.59,3.63-2.23a2.53,2.53,0,0,0,.76-.63,2.64,2.64,0,0,0,.26-3.44.3.3,0,0,1-.13-.25l-.07-.13a2.68,2.68,0,0,0-1.58-1.14,3,3,0,0,0-2.29.44c-.19.13-.32.19-.51.32l-.45-.76L30,28.74,29.51,28c-.44-.82-1-1.65-1.4-2.48a5.65,5.65,0,0,0-4-2.73c-1.34-.25-2.61-.44-3.94-.63l-.45-.07L20,20.15c.06-.38.19-.89.25-1.33.51-2.42,1.15-5.47-.89-7.38a3.17,3.17,0,0,0-2.35-.89,9.25,9.25,0,0,0-2.8.58c-2.1.76-4.26,1.59-6.36,2.35l-1,.38a4.41,4.41,0,0,0-2.23,1.78L4.46,16C3.57,17.36.77,21.81.07,23c-.25.38.2,1.21.58,1.4s1.08.38,1.27,0c.7-1.14,3.11-5.15,4-6.55l.19-.32A3.83,3.83,0,0,1,7.64,16l1-.38A16,16,0,0,0,10.31,15c.38-.12.64-.31,1,0"/><path class="cls-1" d="M20.42,9.41A4.71,4.71,0,1,0,15.71,4.7,4.69,4.69,0,0,0,20.42,9.41Z"/><path class="cls-1" d="M7.64,23.65a.8.8,0,0,0-.76-1.4A9.75,9.75,0,0,0,2,28.42a9.39,9.39,0,0,0,1.08,7.25,9.47,9.47,0,0,0,5.85,4.38,10.06,10.06,0,0,0,2.35.32A9.63,9.63,0,0,0,16.16,39a9.48,9.48,0,0,0,4.39-5.85A.79.79,0,1,0,19,32.81a8,8,0,0,1-9.73,5.78A7.77,7.77,0,0,1,4.4,34.9a8.06,8.06,0,0,1-.89-6A8.15,8.15,0,0,1,7.64,23.65Z"/></g></g></svg>