<svg xmlns="http://www.w3.org/2000/svg" viewBox="0 0 37.31 40.41"><defs><style>.cls-1{fill:indigo;}</style></defs><title>Asset 4</title><g id="Layer_2" data-name="Layer 2"><g id="Calque_1" data-name="Calque 1"><path class="cls-1" d="M8,13.49l-1,.38a4.5,4.5,0,0,0-2.23,1.78L4.52,16C3.63,17.37.83,21.83.13,23a.75.75,0,0,0,.26,1.08.8.8,0,0,0,1.08-.25c.7-1.15,3.5-5.6,4.39-7l.19-.32a3.08,3.08,0,0,1,1.46-1.21l1-.38c2.1-.76,4.27-1.59,6.37-2.42A8.48,8.48,0,0,1,17.19,12a1.55,1.55,0,0,1,1.14.51c1.4,1.27.83,3.69.38,5.86a13.89,13.89,0,0,0-.25,1.4l-.57,3.5,2,.31c1.34.2,2.61.45,3.95.64a4.13,4.13,0,0,1,2.93,2c.5.83.95,1.66,1.39,2.42l.45.77,1.72,3.05,1.21,2.16.7-.44a6.83,6.83,0,0,1,1.21-.7,1.52,1.52,0,0,1,1.14-.26.89.89,0,0,1,.57.39l.07.12c.06.13.19.26.25.38a1,1,0,0,1-.12,1.4,1.57,1.57,0,0,1-.39.32c-1,.64-2.16,1.34-3.56,2.23-.45.25-.76.38-1.08.25-.64-.19-1.21-1.14-1.66-1.91l-2.29-4.07c-.7-1.21-1.33-2.42-2-3.56l-.19-.32-.51.13c-.32-.07-.64-.07-1-.13l-1.46-.19c-1.27-.19-2.55-.38-4-.64l-.38-.06c-1.21-.19-2.42-.38-3.63-.64a2.66,2.66,0,0,1-1.59-1,2,2,0,0,1-.38-1v-.13a2.32,2.32,0,0,1,.06-.64c.32-2,.64-4.26,1-6.42a.78.78,0,0,0-1.53-.26c-.38,2.23-.7,4.46-1,6.49a4.52,4.52,0,0,0-.06.83v.13a3,3,0,0,0,.7,2A4.18,4.18,0,0,0,13,28.44c1.21.26,2.48.45,3.62.7l.39.07c1.46.25,2.73.44,4,.63l1.53.2c.19,0,.38.06.51.06.64,1.08,1.21,2.16,1.85,3.24l.12.2c2.17,3.75,2.23,3.88,2.23,3.88h0c.57.95,1.34,2.35,2.61,2.67a1.85,1.85,0,0,0,.57.06,3.55,3.55,0,0,0,1.72-.51c1.46-.89,2.55-1.59,3.63-2.22a2.56,2.56,0,0,0,.76-.64,2.63,2.63,0,0,0,.26-3.44.3.3,0,0,1-.13-.25L36.59,33A2.67,2.67,0,0,0,35,31.82a3,3,0,0,0-2.29.44c-.19.13-.32.19-.51.32l-.44-.76L30,28.76,29.59,28c-.44-.83-.95-1.66-1.4-2.48a5.63,5.63,0,0,0-4-2.74c-1.34-.25-2.61-.44-4-.64l-.44-.06.31-1.91c.07-.38.19-.89.26-1.33.51-2.42,1.14-5.48-.89-7.39a3.19,3.19,0,0,0-2.36-.89,9.25,9.25,0,0,0-2.8.58C12.22,11.9,10.06,12.73,8,13.49Z"/><path class="cls-1" d="M20.5,9.42a4.71,4.71,0,1,0-4.71-4.71A4.7,4.7,0,0,0,20.5,9.42Zm0-7.77a3.12,3.12,0,0,1,0,6.24,3.16,3.16,0,0,1-3.12-3.12A3.12,3.12,0,0,1,20.5,1.65Z"/><path class="cls-1" d="M7.7,23.67A.75.75,0,0,0,8,22.59a.77.77,0,0,0-1.08-.32A9.75,9.75,0,0,0,2,28.44,9.41,9.41,0,0,0,3.12,35.7,9.5,9.5,0,0,0,9,40.09a10,10,0,0,0,2.35.32,9.64,9.64,0,0,0,4.9-1.34,9.45,9.45,0,0,0,4.39-5.85.78.78,0,1,0-1.52-.38,8.06,8.06,0,0,1-9.74,5.79,7.8,7.8,0,0,1-4.9-3.69A8.05,8.05,0,0,1,7.7,23.67Z"/></g></g></svg>