<svg xmlns="http://www.w3.org/2000/svg" width="55" height="55" viewBox="0 0 55 55"><path d="M27.5,0A27.5,27.5,0,1,1,0,27.5,27.5,27.5,0,0,1,27.5,0Z" fill="indigo"/><g transform="translate(-453.5 -595.5)"><path d="M473.865,627.931h1.059V641.1h2.293V630.088H489.4V641.1h2.293V627.931h1.059v-.983H473.865Z" fill="#fff"/><path d="M478.732,612.054s.114.945.189,1.2a1.839,1.839,0,0,1,.265,1.547c-.3.73,1.209,1.116,2,.687.533-.289.349.393.023,1-1.159.444-4.376,1.794-4.878,3.3-.613,1.841.806,2.493.652,3.184a8.574,8.574,0,0,1-.8,1.8h15.036s-2.685-1.995-2.3-3.146a8.621,8.621,0,0,0,.306-3.605c-.142-.783-.714-2.424-2.237-2.1-1.042-1.194-.911-2.837-.243-4.556a5.686,5.686,0,0,0-.491-5.671c-1.1-1.461-4.873-1.676-6.422-.086s-.982,4.253-.982,4.253a5.368,5.368,0,0,0-.907,1.848C477.712,612.7,478.732,612.054,478.732,612.054Z" fill="#fff"/><rect width="15.65" height="0.844" transform="translate(475.796 625.545)" fill="#fff"/><path d="M478.532,640.032l.179,1.073,1.655.028.058-1.564-1.165.019Z" fill="#fff"/><path d="M471.876,639.365l-.728.647-.127.818.882.192,1.268-.2-.562-1.021Z" fill="#fff"/><path d="M492.505,640.936l.777.169,1.117-.177-.495-.9-.645-.383-.641.57Z" fill="#fff"/><path d="M487.148,637.326l-.868.775-.23,1.509-.844,1.279,3.394.143-.355-2.354Z" fill="#fff"/><path d="M484.017,638.761l-.8.644-.793-.446-.933.717.458,1.266,2.224-.024.527-1.276Z" fill="#fff"/><path d="M469.4,637.858l-1.507.557-.717,1.629.766,1.026,2.574-.2-.25-1.906Z" fill="#fff"/></g></svg>