<svg xmlns="http://www.w3.org/2000/svg" width="55" height="55" viewBox="0 0 55 55"><path d="M27.5,0A27.5,27.5,0,1,1,0,27.5,27.5,27.5,0,0,1,27.5,0Z" fill="indigo"/><g transform="translate(-373.5 -219.064)"><path d="M410.906,237.441a1.8,1.8,0,0,0-1.648,1.121h-14.37l-.461-.923h-1.121v-1.318h1.713a.94.94,0,0,0,.791.4h5.537a.989.989,0,0,0,0-1.978h-5.537a.939.939,0,0,0-.791.4h-4.746a.938.938,0,0,0-.791-.4h-5.536a.989.989,0,1,0,0,1.978h5.536a.94.94,0,0,0,.791-.4h1.714v1.318h-1.121l-.462.923h-.066a8.213,8.213,0,0,0-8.174,7.316,3.156,3.156,0,0,0,3.1,3.494h1.252l-1.318,1.78a4.88,4.88,0,0,1-3.164-1.451.653.653,0,1,0-.923.923,6.241,6.241,0,0,0,4.417,1.846h11.4a.661.661,0,0,0,.659-.66.622.622,0,0,0-.659-.659H393.7l1.318-1.78h1.78a3.165,3.165,0,0,0,3.164-3.164v-2.834l9.36-3.1a1.748,1.748,0,0,0,1.45.725,1.772,1.772,0,0,0,1.779-1.78A1.592,1.592,0,0,0,410.906,237.441Zm-27.487,7.976a7.053,7.053,0,0,1,6.855-5.669v5.669Zm8.833,5.735h-5.405l1.318-1.78h5.405Z" fill="#fff"/><g transform="translate(403.458 246.068)"><path d="M426.314,254.4c-.794-3.032-1.71-5.026-3.82-5.6a3.519,3.519,0,0,0-.927-.13,4.5,4.5,0,0,0-1.646.378,6,6,0,0,1-1.673.421l-.528.015a16.073,16.073,0,0,1-2.151-.439,4.493,4.493,0,0,0-1.639-.376,3.492,3.492,0,0,0-.929.13c-2.112.573-3.028,2.567-3.82,5.6-.92,3.511-.665,5.866.7,6.459a1.723,1.723,0,0,0,.694.146c1.212,0,2.326-1.273,3.14-2.2l.222-.257a5.076,5.076,0,0,1,3.813-1.221c1.913,0,3.089.377,3.812,1.222l.222.257c.813.93,1.926,2.2,3.139,2.2a1.729,1.729,0,0,0,.694-.146C426.977,260.266,427.232,257.911,426.314,254.4Zm-11.462.237h-.91v.881a.622.622,0,0,1-1.243,0v-.881h-.854a.622.622,0,0,1,0-1.243h.854v-.882a.622.622,0,0,1,1.243,0v.882h.91a.622.622,0,0,1,0,1.243Zm6.461,1.081a.913.913,0,1,1,.912-.912A.914.914,0,0,1,421.312,255.718Zm1.7-1.7a.913.913,0,1,1,.913-.913A.914.914,0,0,1,423.015,254.015Z" transform="translate(-408.637 -248.67)" fill="#fff"/></g></g></svg>