<svg xmlns="http://www.w3.org/2000/svg" width="55" height="55" viewBox="0 0 55 55"><path d="M27.5,0A27.5,27.5,0,1,1,0,27.5,27.5,27.5,0,0,1,27.5,0Z" fill="indigo"/><g transform="translate(-655.5 -1085.5)"><path d="M683.66,1118.75l2.828-.976q.189-.406.372-.769c.12-.016.24-.034.361-.054-.274.538-.567,1.155-.861,1.847a31.459,31.459,0,0,0-2.472,11.533,1.876,1.876,0,0,0,1.832,1.919h.044a1.877,1.877,0,0,0,1.875-1.833,27.7,27.7,0,0,1,2.174-10.154,23.439,23.439,0,0,1,1.382-2.759c.183-.31.333-.543.432-.692.05-.074.087-.128.11-.16l.023-.032h0a1.838,1.838,0,0,0,.253-.471,1.654,1.654,0,0,0,.261-.575c.038-.16.076-.316.113-.47.919-3.818,1.5-6.219.693-10.187-.006-.028-.017-.056-.026-.084a2.8,2.8,0,0,0,.27-1.206,3.525,3.525,0,0,0-.557-1.825,6.576,6.576,0,0,0-.859-1.1,12.233,12.233,0,0,0-1.505-1.309,29.5,29.5,0,0,0-4.42-2.622c-1.328-.656-2.312-1.057-2.33-1.064a1.2,1.2,0,1,0-.9,2.224l.088.036a38,38,0,0,1,4.62,2.339,14.549,14.549,0,0,1,2.584,1.918l.02.021a4.137,4.137,0,0,1,.683.847,1.113,1.113,0,0,1,.18.531v.015c-.011,0-.024,0-.035.005l-2.537.564a3.666,3.666,0,0,1-3.81,1.083,11.23,11.23,0,0,1-5.917,1.517,15.493,15.493,0,0,1-3.041-.312,1.2,1.2,0,0,0-.47,2.355,17.949,17.949,0,0,0,3.511.357,14.221,14.221,0,0,0,6.289-1.382,7.194,7.194,0,0,1,.791,6.246l-6.466,2.232a1.875,1.875,0,0,0-.567,3.232l5.2,4.2a1.872,1.872,0,0,0,.5.287,32.025,32.025,0,0,1,1.113-3.809Z" fill="#fff"/><path d="M685.6,1105.152a3.375,3.375,0,0,0,3.376-3.376c0-.024,0-.047,0-.07a18.174,18.174,0,0,0-1.675-1.138,34.867,34.867,0,0,0-3.317-1.756,3.376,3.376,0,0,0,1.618,6.34Z" fill="#fff"/></g></svg>