<svg xmlns="http://www.w3.org/2000/svg" width="55" height="55" viewBox="0 0 55 55"><path d="M27.5,0A27.5,27.5,0,1,1,0,27.5,27.5,27.5,0,0,1,27.5,0Z" fill="indigo"/><g transform="translate(-556.5 -412.732)"><path d="M569.421,441.206a6.234,6.234,0,1,0,6.234,6.234A6.242,6.242,0,0,0,569.421,441.206Z" transform="translate(0 -1.739)" fill="#fff"/><path d="M602.557,441.206a6.234,6.234,0,1,0,6.234,6.234A6.241,6.241,0,0,0,602.557,441.206Z" transform="translate(-4.637 -1.739)" fill="#fff"/><path d="M600.881,437.686a.893.893,0,0,0,.891-.89c0-1.993-1.734-4.65-1.931-4.946a.893.893,0,0,0-.741-.4h-1.79a.884.884,0,0,0-.482-.8l-3.562-1.781a.892.892,0,0,0-.8,1.6l1.969.986h-4.243a6.242,6.242,0,0,0-6.168,5.343h-5.2l-6.937-3.469a.881.881,0,0,0-.4-.095h-5.344a.89.89,0,0,0-.447,1.66c.053.033,5.277,3.076,8.824,4.861a10.878,10.878,0,0,1,3.2,6.842.894.894,0,0,0,.891.887H589.3a.891.891,0,0,0,.89-.89C590.194,440.6,593.689,437.686,600.881,437.686Z" transform="translate(-0.29)" fill="#fff"/></g></svg>