<svg xmlns="http://www.w3.org/2000/svg" width="55" height="55" viewBox="0 0 55 55"><path d="M27.5,0A27.5,27.5,0,1,1,0,27.5,27.5,27.5,0,0,1,27.5,0Z" fill="indigo"/><g transform="translate(-297.5 -949.962)"><path d="M310.577,978.366a6.3,6.3,0,1,0,6.3,6.3A6.3,6.3,0,0,0,310.577,978.366Z" transform="translate(0 -1.633)" fill="#fff"/><path d="M343.713,978.366a6.3,6.3,0,1,0,6.3,6.3A6.3,6.3,0,0,0,343.713,978.366Z" transform="translate(-4.355 -1.633)" fill="#fff"/><path d="M342.329,974.934a.9.9,0,0,0,.9-.9c0-2.013-1.751-4.7-1.95-5a.9.9,0,0,0-.748-.4h-1.808a.893.893,0,0,0-.487-.8l-3.6-1.8a.9.9,0,1,0-.8,1.612l1.987,1h-4.284a6.3,6.3,0,0,0-6.229,5.4H320.06l-7.007-3.5a.887.887,0,0,0-.4-.1h-5.4a.9.9,0,0,0-.452,1.676c.054.033,5.33,3.107,8.911,4.909a10.989,10.989,0,0,1,3.233,6.909.9.9,0,0,0,.9.9h10.793a.9.9,0,0,0,.9-.9C331.536,977.879,335.065,974.934,342.329,974.934Z" transform="translate(-0.272 0)" fill="#fff"/></g></svg>