<svg xmlns="http://www.w3.org/2000/svg" width="55" height="55" viewBox="0 0 55 55"><path d="M27.5,0A27.5,27.5,0,1,1,0,27.5,27.5,27.5,0,0,1,27.5,0Z" fill="indigo"/><g transform="translate(-453.5 -446.072)"><path d="M467.739,472.24v14.9a3.312,3.312,0,0,0,3.3,3.3H490.9a3.311,3.311,0,0,0,3.3-3.3v-14.9Zm16.679,9.424-5.709,3.39a.318.318,0,0,1-.476-.268l.03-6.808a.318.318,0,0,1,.476-.268l5.679,3.39A.365.365,0,0,1,484.418,481.664Z" transform="translate(-0.129 -2.99)" fill="#fff"/><path d="M472.4,468.749l-2.587-2.765-1.367.327a1.645,1.645,0,0,0-1.219,1.992l.387,1.605Z" transform="translate(0 -1.551)" fill="#fff"/><path d="M479.115,467.05l-2.616-2.765-3.508.862,2.616,2.765Z" transform="translate(-1.337 -1.16)" fill="#fff"/><path d="M486.075,465.351l-2.587-2.765-3.508.862,2.587,2.765Z" transform="translate(-2.946 -0.769)" fill="#fff"/><path d="M493.056,463.652l-2.616-2.765-3.508.862,2.587,2.765Z" transform="translate(-4.545 -0.378)" fill="#fff"/><path d="M499.5,462.114l-.387-1.605a1.647,1.647,0,0,0-1.992-1.22l-3.241.773,2.616,2.795Z" transform="translate(-6.144 0)" fill="#fff"/></g></svg>