<svg xmlns="http://www.w3.org/2000/svg" width="55" height="55" viewBox="0 0 55 55"><circle cx="27.5" cy="27.5" r="27.5" fill="indigo"/><g transform="translate(14 15)"><path d="M22.4.024,8.141,2.155A1.845,1.845,0,0,0,6.563,4V17.364a5.384,5.384,0,0,0-2.684-.158c-2.526.5-4.236,2.6-3.815,4.736s2.789,3.447,5.315,2.947a4.47,4.47,0,0,0,3.868-4.052V7.47l12.6-1.894v9.1a5.384,5.384,0,0,0-2.684-.158c-2.526.5-4.236,2.6-3.815,4.736S18.14,22.7,20.666,22.2a4.47,4.47,0,0,0,3.868-4.052V1.866A1.85,1.85,0,0,0,22.4.024" transform="translate(0.963 0)" fill="#fff"/></g></svg>