<svg xmlns="http://www.w3.org/2000/svg" width="55" height="55" viewBox="0 0 55 55"><path d="M27.5,0A27.5,27.5,0,1,1,0,27.5,27.5,27.5,0,0,1,27.5,0Z" fill="indigo"/><g transform="translate(-363.5 -595.5)"><path d="M385.046,623.4h-2.618a11.518,11.518,0,0,0-1.505,5.481,4.482,4.482,0,0,0,3.53,4.259h.11v6.924s-.128.548-.982.935c-1.467.058-2.5.2-2.5.368,0,.219,1.777.4,3.969.4s3.968-.177,3.968-.4c0-.167-1.037-.31-2.5-.368a1.606,1.606,0,0,1-.982-.935v-6.924h.11a4.485,4.485,0,0,0,3.531-4.26,11.526,11.526,0,0,0-1.506-5.481h-2.617Z" fill="#fff"/><path d="M402.043,640.308V621.686c0-5.095-2.226-6.237-2.226-6.237a2.139,2.139,0,0,1-.485-1.484v-6.792h.257v-1.028h-.314v-.285c0-.97-1.77-.685-1.77-.685s-1.77-.285-1.77.685v.285h-.313v1.028h.256v6.792a2.141,2.141,0,0,1-.484,1.484s-2.226,1.142-2.226,6.237v18.622s-.115,1.456,1.169,1.456h6.736C402.157,641.764,402.043,640.308,402.043,640.308Z" fill="#fff"/></g></svg>