<svg xmlns="http://www.w3.org/2000/svg" width="55" height="55" viewBox="0 0 55 55"><path d="M27.5,0A27.5,27.5,0,1,1,0,27.5,27.5,27.5,0,0,1,27.5,0Z" fill="indigo"/><g transform="translate(-949.5 -285.5)"><path d="M991.326,305.916l-.154.1a1.455,1.455,0,0,0-.157.129l-3.174.054a4.307,4.307,0,0,0-1.806-2.278,4.369,4.369,0,0,0-2.221-.63h-4.181v-.112a.489.489,0,0,0-.425-.534h-.019v-.627h.16a.218.218,0,1,0,0-.436h-.712a.218.218,0,1,0,0,.436h.16v.627H977.8v-.627h.161a.218.218,0,1,0,0-.436h-.714a.218.218,0,0,0,0,.436h.161v.627h-.988v-.627h.16a.218.218,0,0,0,0-.436h-.713a.218.218,0,1,0,0,.436h.16v.627h-.036a.46.46,0,0,0-.409.435l-4.374-.231h-.132s-5.648-.183-7.06-1.914v-.715a.895.895,0,1,0-1.79,0v7.953a.895.895,0,1,0,1.789,0v-.714c1.412-1.732,7.06-1.915,7.06-1.915h.132l4.358-.23v.562h-.422a.61.61,0,0,0-.306.086.535.535,0,0,0-.05.032.741.741,0,0,0-.278.429l-2.93.049a3.746,3.746,0,0,0-2.983.985,3.107,3.107,0,0,0-.8,2.163,5.052,5.052,0,0,0-.052.7,2.95,2.95,0,0,0,.641,1.953,2.834,2.834,0,0,0,1.979.963l13.452.165a4.213,4.213,0,0,0,3.934-2.734,6.645,6.645,0,0,0,.4-2.417,7.117,7.117,0,0,0-.028-.729l2.853-.048a1.422,1.422,0,0,0,.2.166l.153.1c.667.447,1.213.423,1.213-.051v-1.724C992.538,305.493,991.992,305.47,991.326,305.916Zm-16.844,5.946-4.077.051a1.548,1.548,0,0,1-1.013-.5,2.079,2.079,0,0,1-.279-1.658l.013-.073-.007-.078a1.786,1.786,0,0,1,.447-1.24,2.54,2.54,0,0,1,1.981-.565l.019,0,2.916-.05v4.109Zm1.674-.021-1.011.013v-4.112l.422-.007v.577a.489.489,0,0,0,.425.534h.164Zm3.477-6.734h4.181a4.009,4.009,0,0,1,1.221.539,2.255,2.255,0,0,1,.61.594l-4.642.078a.616.616,0,0,0-.08-.147c-.056-.242-.339-.273-.531-.276h-.76v-.787Zm-.113,3.56a.608.608,0,0,0,.113-.355v-.645l.753-.013v1.886h-.866Zm6.365,1.306a2.337,2.337,0,0,1-2.071,1.773l-7,.087v-2.987h2.038v.694a.663.663,0,0,0,.663.662h.866a.664.664,0,0,0,.664-.662v-1.9l5.07-.086a4.658,4.658,0,0,1,.036.692v.036l0,.035A4.705,4.705,0,0,1,985.885,309.973Z" fill="#fff"/><path d="M989.9,324.115a2.357,2.357,0,0,0-1.515-.033l-9.417-3.25,11.732-3.741a.974.974,0,0,0,.541-1.31.964.964,0,0,0-1.214-.708l-13.872,4.788-13.876-4.789a.9.9,0,0,0-.287-.048,1.066,1.066,0,0,0-.974.964.943.943,0,0,0,.595,1.1l11.729,3.74-9.417,3.25a2.3,2.3,0,0,0-1.515.033,2.516,2.516,0,0,0-1.071.664,1.059,1.059,0,0,0-.295,1.037,1.23,1.23,0,0,0,1.261.689,2.727,2.727,0,0,0,.85-.144,2.31,2.31,0,0,0,1.235-.88l11.766-3.752,11.764,3.752a2.306,2.306,0,0,0,1.235.88,2.764,2.764,0,0,0,.858.145,1.208,1.208,0,0,0,1.254-.69,1.062,1.062,0,0,0-.3-1.037A2.523,2.523,0,0,0,989.9,324.115Zm-25.972.821-.061.13a1.55,1.55,0,0,1-.919.669c-.68.226-1.212.075-1.279-.128-.032-.1.028-.241.16-.387a1.875,1.875,0,0,1,.788-.48,1.546,1.546,0,0,1,1.137-.013l.127.067,10.511-3.628.679.217Z" fill="#fff"/></g></svg>