<svg xmlns="http://www.w3.org/2000/svg" width="55" height="55" viewBox="0 0 55 55"><path d="M27.5,0A27.5,27.5,0,1,1,0,27.5,27.5,27.5,0,0,1,27.5,0Z" fill="indigo"/><g transform="translate(-750.5 -285.5)"><path d="M779.378,327.283a1.182,1.182,0,0,0-1.356.042l-4.108-2.77a6.622,6.622,0,0,0,.4-5.122,9.43,9.43,0,0,0-3.854-5.023,9.7,9.7,0,0,0-5.293-1.659,6.728,6.728,0,0,0-5.759,2.855c-2.175,3.269-.758,8.05,3.16,10.659a9.688,9.688,0,0,0,5.292,1.659,6.827,6.827,0,0,0,5.4-2.383l4.12,2.777a1.186,1.186,0,0,0,.505,1.218l2.987,1.986a1.181,1.181,0,0,0,1.643-.328l.184-.277a1.186,1.186,0,0,0-.329-1.644Zm-12.188-.6a8.287,8.287,0,0,1-2.218-.525l.591-.887,1.778,1.184Zm1.383-.476,1.055-1.582,1.674,1.115a5.694,5.694,0,0,1-2.13.867Zm-.739-.493-1.78-1.184,1.055-1.584,1.778,1.184ZM759.7,320.3a5.684,5.684,0,0,1-.018-2.3l1.656,1.1-1.056,1.584Zm2.377-.706,1.778,1.184-1.054,1.584-1.778-1.183Zm3.732-5.606a8.2,8.2,0,0,1,2.223.518l-.587.879-1.779-1.184Zm-1.376.463-1.056,1.584-1.653-1.1a5.65,5.65,0,0,1,2.131-.868Zm.741.491,1.779,1.184-1.056,1.585-1.779-1.182Zm1.463,3.262,1.054-1.584,1.781,1.184-1.056,1.585Zm1.287,1.926-1.056,1.584-1.779-1.184,1.055-1.586Zm-2.52-1.677-1.055,1.584-1.778-1.184,1.056-1.584Zm-.809,2.819,1.779,1.184-1.054,1.584-1.78-1.184Zm3.013.937,1.054-1.584,1.778,1.181-1.055,1.586Zm1.548-2.327,1.056-1.585,1.778,1.183-1.056,1.584Zm3.574.092.569.377a5.634,5.634,0,0,1,.027,2.307l-1.651-1.1Zm-.082-1.48-.164.246-1.779-1.183.59-.885A8.17,8.17,0,0,1,772.643,318.494Zm-2.01-2.442-.673,1.011-1.78-1.183.678-1.02a9.24,9.24,0,0,1,.942.536A9.11,9.11,0,0,1,770.633,316.052Zm-9.626-.522,1.873,1.247-1.055,1.585-1.874-1.249a4.394,4.394,0,0,1,1.056-1.583Zm-.641,6.627.158-.236L762.3,323.1l-.6.9A8.268,8.268,0,0,1,760.366,322.157Zm1.995,2.462.681-1.024,1.779,1.184-.679,1.021a8.568,8.568,0,0,1-.921-.523A9.117,9.117,0,0,1,762.361,324.619Zm9.653.526-1.893-1.261,1.055-1.584,1.885,1.255a4.733,4.733,0,0,1-.433.855A4.9,4.9,0,0,1,772.014,325.145Z" fill="#fff"/><path d="M779.439,310.621a9.113,9.113,0,0,0-.946,5.449c1.858-.434,4.495.219,6.99,1.893s4.1,3.869,4.4,5.751a9.118,9.118,0,0,0,4.685-2.94,90.583,90.583,0,0,0-7.326-5.429A88.587,88.587,0,0,0,779.439,310.621Z" fill="#fff"/><path d="M796.651,313.633c-1.859.434-4.5-.218-6.992-1.892s-4.1-3.869-4.4-5.752a9.11,9.11,0,0,0-5.2,3.618,98.893,98.893,0,0,1,15.211,10.212A9.124,9.124,0,0,0,796.651,313.633Z" fill="#fff"/><path d="M784.823,318.947c-2.2-1.477-4.6-2.1-6.1-1.722a9.133,9.133,0,0,0,10,6.712C788.5,322.409,787.021,320.422,784.823,318.947Z" fill="#fff"/><path d="M790.321,310.755c2.2,1.475,4.6,2.1,6.1,1.723a9.129,9.129,0,0,0-10-6.713C786.64,307.293,788.122,309.281,790.321,310.755Z" fill="#fff"/><path d="M762.8,308.86a7.87,7.87,0,0,0-2.718-6.943c-1.29,1.8-1.833,3.522-1.427,4.562S760.636,308.418,762.8,308.86Z" fill="#fff"/><path d="M779.508,302.327c1.292-1.795,1.835-3.521,1.427-4.561s-1.977-1.94-4.145-2.382a7.876,7.876,0,0,0,2.718,6.943Z" fill="#fff"/><path d="M763.423,304.615a8.85,8.85,0,0,1,.549,4.43,17.157,17.157,0,0,0,14.806-5.794,9.008,9.008,0,0,1-3.155-8.052,17.172,17.172,0,0,0-14.807,5.794A8.856,8.856,0,0,1,763.423,304.615Zm1.063-5.569a.324.324,0,0,1,.429-.163,4.332,4.332,0,0,1,1.5,1.288,12.146,12.146,0,0,1,1.819-.948,3.579,3.579,0,0,0-.977-.767.326.326,0,0,1,.268-.594,4.363,4.363,0,0,1,1.348,1.106,12.132,12.132,0,0,1,2.123-.58,3.752,3.752,0,0,0-1.129-.95.327.327,0,0,1,.266-.6,4.4,4.4,0,0,1,1.611,1.441,6.12,6.12,0,0,1,1.457.008.326.326,0,0,1-.115.641,5.13,5.13,0,0,0-.969-.021,5.585,5.585,0,0,1,.529,1.7.326.326,0,0,1-.274.371.263.263,0,0,1-.049,0,.331.331,0,0,1-.323-.278,4.777,4.777,0,0,0-.6-1.728,11.231,11.231,0,0,0-2.139.54,5.392,5.392,0,0,1,.771,2.113.327.327,0,0,1-.274.37.332.332,0,0,1-.046,0,.328.328,0,0,1-.322-.278,4.739,4.739,0,0,0-.749-1.975,11.385,11.385,0,0,0-1.875.967,5.483,5.483,0,0,1,.66,1.933.328.328,0,0,1-.274.371.419.419,0,0,1-.05,0,.327.327,0,0,1-.321-.279,4.888,4.888,0,0,0-.552-1.659,5.963,5.963,0,0,0-1.015.919.326.326,0,0,1-.52-.393,6.557,6.557,0,0,1,1.178-1.076,3.753,3.753,0,0,0-1.229-1.063A.325.325,0,0,1,764.486,299.046Z" fill="#fff"/></g></svg>