<svg xmlns="http://www.w3.org/2000/svg" width="55" height="55" viewBox="0 0 55 55"><path d="M27.5,0A27.5,27.5,0,1,1,0,27.5,27.5,27.5,0,0,1,27.5,0Z" fill="indigo"/><g transform="translate(-1033.5 -385.625)"><g transform="translate(1043.485 395.371)"><path d="M1057.8,395.371a14.333,14.333,0,0,0-14.317,14.316,14.148,14.148,0,0,0,3.072,8.844l.032.052c.023.03.049.059.074.088l.193.229.179-.152-.142.195c.1.12.2.24.31.357l.08.085c.265.287.541.563.849.846l.058.055c.106.1.215.19.324.284l.426.348A14.152,14.152,0,0,0,1057.8,424a14.348,14.348,0,0,0,3.949-.552.7.7,0,0,0,.146-1.294.693.693,0,0,0-.534-.06,12.914,12.914,0,0,1-10.984-1.858l5.371-6.077a4.851,4.851,0,0,0,2.051.453,4.934,4.934,0,0,0,4.928-4.929,4.848,4.848,0,0,0-.453-2.053l6.085-5.4a12.875,12.875,0,0,1,2.34,7.008.714.714,0,0,0,.234.5.665.665,0,0,0,.494.179.7.7,0,0,0,.679-.727A14.256,14.256,0,0,0,1057.8,395.371Zm0,9.388a4.934,4.934,0,0,0-4.929,4.928,4.854,4.854,0,0,0,.453,2.051l-6.076,5.372a12.791,12.791,0,0,1-2.356-7.423,12.933,12.933,0,0,1,20.362-10.561l-5.4,6.086A4.855,4.855,0,0,0,1057.8,404.759Zm0,2.816a2.112,2.112,0,1,1-2.112,2.112A2.115,2.115,0,0,1,1057.8,407.574Z" transform="translate(-1043.485 -395.371)" fill="#fff"/><path d="M1062.6,413.08a1.408,1.408,0,1,0,1.408,1.408,1.41,1.41,0,0,0-1.408-1.408" transform="translate(-1048.286 -400.172)" fill="#fff"/></g><g transform="translate(1060.961 411.864)"><path d="M1083.706,418.016l-10.342,1.545a1.338,1.338,0,0,0-1.145,1.336v9.693a3.9,3.9,0,0,0-1.946-.114,2.881,2.881,0,1,0,1.088,5.571,3.242,3.242,0,0,0,2.8-2.938v-9.693l9.14-1.374v6.6a3.9,3.9,0,0,0-1.946-.114,2.881,2.881,0,1,0,1.088,5.571,3.241,3.241,0,0,0,2.8-2.938V419.351A1.341,1.341,0,0,0,1083.706,418.016Z" transform="translate(-1067.46 -417.998)" fill="#fff"/></g></g></svg>