<svg xmlns="http://www.w3.org/2000/svg" width="55" height="55" viewBox="0 0 55 55"><path d="M27.5,0A27.5,27.5,0,1,1,0,27.5,27.5,27.5,0,0,1,27.5,0Z" fill="indigo"/><g transform="translate(-659.5 -1154.5)"><path d="M686.8,1173.662a2.78,2.78,0,0,1-.277-.455Z" fill="#fff"/><path d="M695.58,1198.832a1.509,1.509,0,0,1-.9,1.935,1.481,1.481,0,0,1-.517.092,1.506,1.506,0,0,1-1.417-.995l-.289-.8-.781.156c-.088-.822-.958-4.377-1.5-6.449l-.511-1.406a1.821,1.821,0,0,1-.063-.229l-.869-4.488-.818-.008-3.918,4.466-.16.762a.071.071,0,0,0-.007.03,33.914,33.914,0,0,0-.274,5.557l-.9.011-.141.677a1.51,1.51,0,1,1-2.956-.622l0-.015-.94.012a44.181,44.181,0,0,0,2.2-6.013c0-.007,0-.011,0-.014l.292-1.4a1.546,1.546,0,0,1,.345-.685l3.674-4.188,0,0a1.644,1.644,0,0,0,.089-.636c-.784-.3-1.321-.555-1.321-.555-.421-1.018-.007-7.274,1.2-9.3l-2.364-3.8a1.032,1.032,0,0,1-.148-.422l-.566-5.161a1.007,1.007,0,0,1,2-.222l.54,4.935,1.95,3.127s0,.011.011.018a2.78,2.78,0,0,0,.277.455.267.267,0,0,0,.023.03l.025.04h.008a2.785,2.785,0,0,0,.759.67c-.023.067-.048.144-.071.237a9.9,9.9,0,0,0-.2,1.224,14.311,14.311,0,0,0-.111,2.387,18.987,18.987,0,0,1,.9-2.246,10.661,10.661,0,0,1,.507-1.006,1.97,1.97,0,0,1,.118-.2,2.663,2.663,0,0,0,.348.022,2.855,2.855,0,0,0,1.505-.425l.263.048a.989.989,0,0,1,.584.329l2.96,3.4a.958.958,0,0,1,.208.392l1.45,5.221a1.007,1.007,0,0,1-.7,1.239.962.962,0,0,1-.27.038,1.011,1.011,0,0,1-.969-.737l-1.387-5.006-1.806-2.075a22.173,22.173,0,0,0,.159,5.679,4.036,4.036,0,0,1,.078.681l0,.007a8.317,8.317,0,0,1,.222,1.047,1.85,1.85,0,0,1,.055.211l1.081,5.579,1.154,3.182a48.857,48.857,0,0,0,2.764,4.647l-1.007.2Z" fill="#fff"/><path d="M691.529,1171.938a2.426,2.426,0,0,1-1.71,2.319h-.007a2.457,2.457,0,0,1-.707.1,2.358,2.358,0,0,1-1.443-.485h0a2.42,2.42,0,1,1,3.87-1.938Z" fill="#fff"/><path d="M686.523,1173.207a2.78,2.78,0,0,0,.277.455Z" fill="#fff"/></g></svg>