<svg xmlns="http://www.w3.org/2000/svg" width="55" height="55" viewBox="0 0 55 55"><path d="M27.5,0A27.5,27.5,0,1,1,0,27.5,27.5,27.5,0,0,1,27.5,0Z" fill="indigo"/><g transform="translate(-95.5 -1015.5)"><path d="M133.43,1057.928a.826.826,0,0,0-.03-.078l-6.686-14.5v-5.214a.93.93,0,0,0,.749-.911h0a.93.93,0,0,0-.93-.93h-7.579a.93.93,0,0,0-.93.93h0a.929.929,0,0,0,.93.929h.038v5.2l-6.686,14.5a.57.57,0,0,0-.03.078,2.627,2.627,0,0,0,.363,2.282l.093.131a2.612,2.612,0,0,0,2.126,1.1h15.991a2.607,2.607,0,0,0,2.125-1.1l.093-.132A2.621,2.621,0,0,0,133.43,1057.928Zm-13.21-14.168a.639.639,0,0,0,.059-.269v-5.337h5.148v5.337a.644.644,0,0,0,.059.27l3.081,6.682c-3.39.564-5.546,2-8.073,2.058a19.067,19.067,0,0,1-4.045-.561Z" fill="#fff"/><path d="M123.162,1035.054a2.36,2.36,0,1,0-2.36-2.36A2.363,2.363,0,0,0,123.162,1035.054Z" fill="#fff"/><path d="M121.08,1029.5a1.525,1.525,0,1,0-1.525-1.524A1.527,1.527,0,0,0,121.08,1029.5Z" fill="#fff"/><path d="M127.452,1031.138a3.163,3.163,0,1,0-3.163-3.163A3.167,3.167,0,0,0,127.452,1031.138Z" fill="#fff"/></g></svg>