<svg xmlns="http://www.w3.org/2000/svg" width="55" height="55" viewBox="0 0 55 55"><circle cx="27.5" cy="27.5" r="27.5" fill="indigo"/><g transform="translate(16 15)"><path d="M5.953,9.9a10.324,10.324,0,0,0-.4-1.361A40.751,40.751,0,0,0,3.813,4.516,34.31,34.31,0,0,0,1.309.15.34.34,0,0,0,1.027,0,.355.355,0,0,0,.759.166.745.745,0,0,1,.645.3L.526.38a.8.8,0,0,1-.2.054A.344.344,0,0,0,.057.616.494.494,0,0,0,.017.975,35.923,35.923,0,0,0,2,5.738,37.711,37.711,0,0,0,4.1,9.525,8.12,8.12,0,0,0,4.9,10.6c.141.155.51.568.856.332s.241-.8.2-1.029" transform="translate(18 15)" fill="#fff"/><path d="M3.965,4.085a3.905,3.905,0,0,0-.653-1.648A6.786,6.786,0,0,0,.814.311C.647.223.109-.052,0,.009A5.628,5.628,0,0,0,.132.86C.3,2.179-.441,3.8.442,4.964a2.73,2.73,0,0,0,1.151.868,1.836,1.836,0,0,0,1.473.027l.148-.071a.877.877,0,0,0,.1-.055,1.614,1.614,0,0,0,.653-1.648" transform="translate(15 8)" fill="#fff"/><path d="M11.465,22A11.252,11.252,0,0,1,0,11,11.255,11.255,0,0,1,11.47,0c3.436,0,9.5.937,10.46,4.447a1.744,1.744,0,0,1-.186,1.4c-.4.676-1.526,1.63-4.582,2.339a9.018,9.018,0,0,0-1.45-1.048,2.714,2.714,0,0,0-1.444-.524,1.661,1.661,0,0,0-.79.21c-.972.562-.794,1.525-.65,2.3v.047a5.1,5.1,0,0,1-.051,1.079,7.773,7.773,0,0,0-.036,1.823,4.5,4.5,0,0,0,.036,2.279.414.414,0,0,0,.036.1,8.173,8.173,0,0,0,1.2,2.093c.876,1.249,1.782,2.541,1.417,3.816C14.965,22,12.688,22,11.465,22ZM8.344,15.7a1.875,1.875,0,1,0,1.847,1.88v-.005A1.863,1.863,0,0,0,8.344,15.7ZM4.651,12.383H4.644A1.875,1.875,0,1,0,6.5,14.263v-.01A1.864,1.864,0,0,0,4.651,12.383ZM4.644,7.26a1.817,1.817,0,0,0-1.3.551A1.844,1.844,0,1,0,4.654,7.26Zm3.168-4h0a1.875,1.875,0,0,0,0,3.75h.007a1.875,1.875,0,0,0-.006-3.75Zm7.147-1.691a2.294,2.294,0,1,0,2.26,2.294A2.28,2.28,0,0,0,14.959,1.571Z" fill="#fff"/></g></svg>