<svg xmlns="http://www.w3.org/2000/svg" width="38.844" height="34.56" viewBox="0 0 38.844 34.56"><path d="M35.777,3.407A10.5,10.5,0,0,0,27.989,0,9.91,9.91,0,0,0,21.9,2.093a12.538,12.538,0,0,0-2.482,2.58,12.525,12.525,0,0,0-2.482-2.58A9.617,9.617,0,0,0,10.855,0,10.5,10.5,0,0,0,3.067,3.407,12.071,12.071,0,0,0,0,11.682c0,3.31,1.217,6.279,3.845,9.443,2.336,2.823,5.744,5.7,9.638,9.054,1.314,1.12,2.872,2.434,4.43,3.8a2.425,2.425,0,0,0,1.509.584,2.264,2.264,0,0,0,1.509-.584c1.558-1.363,3.067-2.677,4.43-3.8,3.894-3.359,7.3-6.231,9.637-9.054,2.629-3.164,3.846-6.182,3.846-9.443a11.982,11.982,0,0,0-3.067-8.275" fill="indigo"/></svg>