<svg xmlns="http://www.w3.org/2000/svg" width="16" height="14.286" viewBox="0 0 16 14.286"><path d="M14.737,1.408A4.317,4.317,0,0,0,11.529,0,4.073,4.073,0,0,0,9.022.865,5.175,5.175,0,0,0,8,1.932,5.169,5.169,0,0,0,6.977.865,3.953,3.953,0,0,0,4.471,0,4.318,4.318,0,0,0,1.263,1.408,5,5,0,0,0,0,4.829a5.937,5.937,0,0,0,1.584,3.9,35.351,35.351,0,0,0,3.97,3.742c.541.463,1.183,1.006,1.825,1.569A1,1,0,0,0,8,14.286a.931.931,0,0,0,.622-.241c.642-.563,1.263-1.107,1.825-1.569a35.329,35.329,0,0,0,3.97-3.742A5.975,5.975,0,0,0,16,4.829a4.963,4.963,0,0,0-1.263-3.421" fill="#ffb029"/></svg>