<svg id="people" xmlns="http://www.w3.org/2000/svg" width="25.584" height="20.302" viewBox="0 0 25.584 20.302">
  <path id="Fill_1" data-name="Fill 1" d="M8.584,10.844A6.758,6.758,0,0,1,7.291,6.8c0-.034,0-.064,0-.1,0-.171.01-.339.027-.5a4.276,4.276,0,0,1,1.2-2.616,5.248,5.248,0,0,0,.035-.594A2.944,2.944,0,0,0,5.394,0,2.943,2.943,0,0,0,2.233,2.991,4.342,4.342,0,0,0,3.881,6.559C1.877,7.206,0,9.028,0,11.175c0,2.635,2.59,2.956,5.232,2.968a8.145,8.145,0,0,1,3.352-3.3" fill="indigo"/>
  <path id="Fill_3" data-name="Fill 3" d="M4.7,6.559A4.342,4.342,0,0,0,6.351,2.991,2.944,2.944,0,0,0,3.19,0,2.943,2.943,0,0,0,.029,2.991a5.249,5.249,0,0,0,.035.594A4.277,4.277,0,0,1,1.261,6.2c.017.161.024.328.027.5,0,.033,0,.064,0,.1A6.758,6.758,0,0,1,0,10.844a8.148,8.148,0,0,1,3.351,3.3c2.642-.012,5.233-.333,5.233-2.968,0-2.147-1.877-3.969-3.882-4.616" transform="translate(17)" fill="indigo"/>
  <path id="Fill_6" data-name="Fill 6" d="M8.448,8.023a5.211,5.211,0,0,0,2-3.966c.008-.131.013-.264.013-.4A3.6,3.6,0,0,0,6.6,0,3.6,3.6,0,0,0,2.732,3.659c0,.134.005.267.013.4a5.211,5.211,0,0,0,2,3.966A7.715,7.715,0,0,0,1.981,9.63a6.94,6.94,0,0,0-.841.908q-.15.2-.284.4c-.011.017-.02.035-.03.052a5.616,5.616,0,0,0-.428.8,4.965,4.965,0,0,0-.294.915,4.638,4.638,0,0,0-.077.476A4.557,4.557,0,0,0,0,13.67a3.645,3.645,0,0,0,.229,1.336,2.764,2.764,0,0,0,.338.619,2.887,2.887,0,0,0,.651.64,4,4,0,0,0,.844.455c.155.062.316.118.483.167s.339.094.516.133c.266.059.543.105.827.143.19.025.383.046.58.063.687.06,1.409.076,2.131.076,3.3,0,6.6-.344,6.6-3.632a4.979,4.979,0,0,0-.826-2.681A7.468,7.468,0,0,0,8.448,8.023" transform="translate(6 3)" fill="indigo"/>
</svg>
