<svg xmlns="http://www.w3.org/2000/svg" viewBox="0 0 34.89 31.4"><defs><style>.cls-1{fill:#fff;}</style></defs><title>Asset 5</title><g id="Layer_2" data-name="Layer 2"><g id="Calque_1" data-name="Calque 1"><path class="cls-1" d="M27.91,27.91c0,3.62-3.49,3.49-5.23,3.49s-2.62-.52-5.24-.52-3.48.52-5.23.52S7,31.4,7,27.91c0-1.76,1.74-3.52,3.49-7s3.29-7,7-7,5.24,3.55,7,7S27.91,26,27.91,27.91Zm-21-7.21c-2,.85-4.69-.69-6.07-3.45s-.9-5.69,1.07-6.55,4.69.69,6.07,3.45S8.83,19.84,6.86,20.7ZM28,20.7c-2-.86-2.46-3.79-1.08-6.55s4.1-4.3,6.08-3.45,2.45,3.79,1.07,6.55S30,21.55,28,20.7ZM12.81,12.17c-2.33.39-4.72-2-5.34-5.36S8.24.43,10.57,0s4.71,2,5.33,5.36S15.14,11.78,12.81,12.17Zm9.27,0C19.75,11.78,18.37,8.75,19,5.4S22-.35,24.32,0,28,3.47,27.42,6.81,24.41,12.56,22.08,12.17Z"/></g></g></svg>