<svg xmlns="http://www.w3.org/2000/svg" viewBox="0 0 36.88 33.4"><defs><style>.cls-1{fill:indigo;}</style></defs><title>Asset 2</title><g id="Layer_2" data-name="Layer 2"><g id="Calque_1" data-name="Calque 1"><path class="cls-1" d="M24,33.4h-.37a11.37,11.37,0,0,1-2.23-.24,16.21,16.21,0,0,0-6,0,11.37,11.37,0,0,1-2.23.24C11.5,33.4,7,33.4,7,28.91c0-1.38.78-2.64,1.77-4.23.56-.91,1.19-1.94,1.83-3.2l.29-.56c1.71-3.42,3.49-7,7.58-7s5.84,3.51,7.56,6.9l.31.62c.63,1.23,1.26,2.23,1.81,3.11,1,1.59,1.79,2.85,1.79,4.32h0A4.27,4.27,0,0,1,28.76,32C27.43,33.34,25.37,33.4,24,33.4Zm-5.6-2.52a18.18,18.18,0,0,1,3.34.31,9.68,9.68,0,0,0,1.89.21h.18c1.08,0,2.69,0,3.49-.79a2.3,2.3,0,0,0,.57-1.7h0c0-.9-.62-1.89-1.48-3.25-.58-.92-1.23-2-1.9-3.27l-.32-.63c-1.57-3.11-2.93-5.8-5.77-5.8s-4.22,2.71-5.8,5.85l-.28.57c-.68,1.34-1.34,2.41-1.92,3.35C9.59,27.1,9,28.1,9,28.91,9,31,10.53,31.4,13.21,31.4a9.6,9.6,0,0,0,1.89-.21A18.18,18.18,0,0,1,18.44,30.88Zm11.77-7.94a3.89,3.89,0,0,1-1.58-.33h0a3.93,3.93,0,0,1-2.14-2.35,7.27,7.27,0,0,1,.57-5.56c1.64-3.28,4.87-5,7.36-3.91a3.92,3.92,0,0,1,2.14,2.36A7.25,7.25,0,0,1,36,18.7C34.69,21.31,32.36,22.94,30.21,22.94Zm-.79-2.16c1.47.64,3.66-.72,4.78-3a5.24,5.24,0,0,0,.48-4,2,2,0,0,0-1-1.21c-1.47-.64-3.66.73-4.78,3a5.21,5.21,0,0,0-.48,4,2,2,0,0,0,1.05,1.21ZM6.67,22.94c-2.15,0-4.47-1.62-5.78-4.24a7.25,7.25,0,0,1-.57-5.55,4,4,0,0,1,2.14-2.36C5,9.7,8.19,11.42,9.83,14.7a7.31,7.31,0,0,1,.56,5.56,3.92,3.92,0,0,1-2.13,2.35h0A4,4,0,0,1,6.67,22.94ZM4,12.46a2.05,2.05,0,0,0-.78.16A2,2,0,0,0,2.2,13.83a5.24,5.24,0,0,0,.48,4c1.12,2.25,3.31,3.61,4.78,3h0a2,2,0,0,0,1-1.21,5.25,5.25,0,0,0-.47-4C7.1,13.72,5.42,12.46,4,12.46Zm9.25,1.75c-2.66,0-5.13-2.58-5.8-6.21A8.14,8.14,0,0,1,8.55,2,4.33,4.33,0,0,1,11.4.06c2.9-.49,5.75,2.21,6.48,6.16a8.12,8.12,0,0,1-1.06,6A4.34,4.34,0,0,1,14,14.16,5.31,5.31,0,0,1,13.29,14.21ZM12.07,2a1.87,1.87,0,0,0-.34,0A2.38,2.38,0,0,0,10.19,3.1a6.12,6.12,0,0,0-.74,4.53c.51,2.77,2.43,4.85,4.19,4.55a2.41,2.41,0,0,0,1.54-1.06,6.14,6.14,0,0,0,.73-4.54C15.44,4,13.73,2,12.07,2ZM23.59,14.21a5.31,5.31,0,0,1-.68-.05,4.34,4.34,0,0,1-2.85-1.9,8.17,8.17,0,0,1-1.06-6c.73-3.95,3.58-6.65,6.48-6.16A4.35,4.35,0,0,1,28.34,2,8.23,8.23,0,0,1,29.4,8C28.72,11.63,26.25,14.21,23.59,14.21ZM24.82,2C23.16,2,21.45,4,21,6.58a6.14,6.14,0,0,0,.73,4.54,2.44,2.44,0,0,0,1.54,1.06c1.76.3,3.68-1.78,4.19-4.55A6.17,6.17,0,0,0,26.7,3.1,2.43,2.43,0,0,0,25.15,2,1.84,1.84,0,0,0,24.82,2Z"/></g></g></svg>