<svg xmlns="http://www.w3.org/2000/svg" width="55" height="55" viewBox="0 0 55 55"><path d="M27.5,0A27.5,27.5,0,1,1,0,27.5,27.5,27.5,0,0,1,27.5,0Z" fill="indigo"/><g transform="translate(-453.5 -149.383)"><g transform="translate(467.178 165.711)"><path d="M482.72,174.857a4.56,4.56,0,1,0,4.56,4.56A4.567,4.567,0,0,0,482.72,174.857Zm0,6.97a2.447,2.447,0,0,1-1.684-.668h.145a3.278,3.278,0,0,0,3.282-3.281v-.146a2.322,2.322,0,0,1,.668,1.685A2.4,2.4,0,0,1,482.72,181.827Z" transform="translate(-468.954 -167.19)" fill="#fff"/><path d="M491.719,169.341h-5.692l-1.1-2.7a1.525,1.525,0,0,0-1.394-.929h-5.141a1.524,1.524,0,0,0-1.394.929l-1.1,2.7h-2.556v-.377a.769.769,0,0,0-.755-.755h-1.6a.769.769,0,0,0-.755.755v.377H470.2a3.019,3.019,0,0,0-3.02,3.02v11.675a3.018,3.018,0,0,0,3.02,3.02h21.55a3.018,3.018,0,0,0,3.02-3.02V172.361A3.062,3.062,0,0,0,491.719,169.341Zm-12.285-1.51h3.02a.755.755,0,1,1,0,1.51h-3.02a.769.769,0,0,1-.755-.754A.75.75,0,0,1,479.434,167.831Zm1.51,16.148a6.056,6.056,0,1,1,6.041-6.07A6.036,6.036,0,0,1,480.944,183.979Zm9.439-8.916a1.365,1.365,0,1,1,1.365-1.365A1.382,1.382,0,0,1,490.383,175.062Z" transform="translate(-467.178 -165.711)" fill="#fff"/></g></g></svg>