<svg xmlns="http://www.w3.org/2000/svg" width="55" height="55" viewBox="0 0 55 55"><path d="M27.5,0A27.5,27.5,0,1,1,0,27.5,27.5,27.5,0,0,1,27.5,0Z" fill="indigo"/><g transform="translate(-101.5 -949.5)"><path d="M141.684,976.9a21.735,21.735,0,0,0,2.506-3.058,1.513,1.513,0,0,0,1.2-2.456c2.155-6.617-6.065-6.266-10.226-5.263-3.008-9.976-9.424-9.976-12.381,0a26.276,26.276,0,0,0-3.158-.552,1.492,1.492,0,0,0-2.707,0c-7.77.7-4.462,7.469-.7,11.329-7.72,7.92-3.81,13.284,6.516,10.778a15.142,15.142,0,0,0,.652,1.8,1.682,1.682,0,0,0-.551,1.153,1.478,1.478,0,0,0,1.8,1.454c4.311,7.018,8.873,1,10.527-4.411C145.543,990.18,149.4,984.816,141.684,976.9Zm-9.124.05a3.584,3.584,0,1,0-3.609,3.609A3.584,3.584,0,0,0,132.56,976.946Zm11.379-6.115a1.476,1.476,0,0,0-1.052,2.205,21.339,21.339,0,0,1-2.256,2.808,43.719,43.719,0,0,0-4.261-3.409,42.582,42.582,0,0,0-.8-4.862C138.275,966.921,145.543,965.868,143.939,970.831Zm-14.988,13.033a53.5,53.5,0,0,1-5.965-3.359,43.492,43.492,0,0,1,0-7.218,46.225,46.225,0,0,1,5.965-3.308,43.006,43.006,0,0,1,5.965,3.308,43.275,43.275,0,0,1,0,7.218A49.213,49.213,0,0,1,128.951,983.864Zm5.715-1.4a31.075,31.075,0,0,1-.6,3.359c-1.052-.351-2.1-.7-3.258-1.153C132.109,983.964,133.413,983.262,134.666,982.46Zm-7.569,2.206c-1.1.451-2.206.8-3.259,1.153-.25-1.1-.451-2.206-.6-3.359C124.49,983.262,125.793,983.964,127.1,984.666Zm-5.715-5.263c-1.1-.853-2.105-1.655-3.008-2.507.9-.852,1.9-1.654,3.008-2.506C121.332,976.094,121.332,977.7,121.382,979.4Zm1.855-8.071a31.024,31.024,0,0,1,.6-3.358c1.053.35,2.156.7,3.259,1.152C125.793,969.828,124.49,970.53,123.237,971.332Zm7.569-2.155c1.153-.5,2.206-.853,3.258-1.2a31.016,31.016,0,0,1,.6,3.358A36.118,36.118,0,0,0,130.806,969.177Zm5.714,5.213c1.1.852,2.106,1.654,3.008,2.506a30.323,30.323,0,0,1-3.008,2.456A40.665,40.665,0,0,0,136.52,974.39Zm-2.857-7.87a42.263,42.263,0,0,0-4.712,1.754,42.264,42.264,0,0,0-4.712-1.754C126.8,958.048,131.107,958.048,133.663,966.52Zm-16.642.5a1.476,1.476,0,0,0,2.506.05,21.369,21.369,0,0,1,2.858.5,28.065,28.065,0,0,0-.8,4.862,39.1,39.1,0,0,0-4.311,3.409C114.765,973.237,110.805,967.623,117.021,967.021Zm.251,10.928a39.092,39.092,0,0,0,4.311,3.409,28.32,28.32,0,0,0,.8,4.812C113.662,988.275,110.655,984.766,117.272,977.949Zm8.521,13.133a1.489,1.489,0,0,0-.9-1.9,14.068,14.068,0,0,1-.652-1.9,34.245,34.245,0,0,0,4.712-1.755,36.833,36.833,0,0,0,4.712,1.755C132.41,991.383,129.3,997.047,125.793,991.082Zm9.775-4.912a41.724,41.724,0,0,0,.8-4.812,43.71,43.71,0,0,0,4.261-3.409C147.248,984.766,144.29,988.275,135.568,986.17Z" fill="#fff"/></g></svg>