<svg xmlns="http://www.w3.org/2000/svg" width="55" height="55" viewBox="0 0 55 55"><path d="M27.5,0A27.5,27.5,0,1,1,0,27.5,27.5,27.5,0,0,1,27.5,0Z" fill="indigo"/><g transform="translate(-951.5 -89.5)"><path d="M990.7,121.89l.45,5.637,1.225.939,1.226-.939.449-7.8A8.261,8.261,0,0,0,990.7,121.89Z" fill="#fff"/><path d="M966.23,129.079l1.185.776,1.185-.327.408-5.229-3.186-1.185Z" fill="#fff"/><path d="M974.44,126.342l-.816-.245v3.472l-2,.327a.214.214,0,0,0-.041.409l1.1.408h.123l1.593-.572v-3.8Z" fill="#fff"/><path d="M975.421,130.264l-1.634.776a.214.214,0,0,0-.041.408l.94.45h.122l1.43-1.062v-3.8l-.817-.245Z" fill="#fff"/><path d="M994.456,110.33a41.8,41.8,0,0,0-8.7-.858c4.125-1.307,4.411-5.678,2.859-6.577-1.716-1.021-1.471-.776-2.328-2.859-.654-1.593-3.513-1.389-4.821-1.226a1.768,1.768,0,0,0-1.062.531l-11.029,11.765c-.939.122-1.675.245-2.165.286a1.1,1.1,0,0,0-.9.776c-.286.98-.981,2.655-2.451,2.818l-1.389-.081A1.421,1.421,0,0,0,961,116.294v4.248l15.237,5.6,2.328-.531s1.43-.041,1.552.776l.572,8.047,1.226.9,1.634-.776.572-8.17a2.934,2.934,0,0,1,1.184-1.8c.286-.245.613-.49.9-.695a7.291,7.291,0,0,0,3.595-2.083,13.484,13.484,0,0,1,4.411-3.145,4.114,4.114,0,0,0,2.492-3.8v-1.879A2.833,2.833,0,0,0,994.456,110.33Zm-29.533,8.333v.776l-1.716-.654v-.449c0-.654.776-.654,1.43-.654l1.266.45-.653.163A.387.387,0,0,0,964.923,118.663Zm2.369,1.225v.45l-1.593-.613v-.776l1.675-.327,1.593.572-1.348.327A.432.432,0,0,0,967.292,119.888Zm2.492.9v.49l-1.675-.613v-.408l2.247-.531,1.184.408-1.429.286A.334.334,0,0,0,969.784,120.787Zm.776.327,2.083-.409a.224.224,0,0,0,.2-.122l1.512.531-1.634.326a.388.388,0,0,0-.327.368v.449l-1.838-.694Zm4.493,1.429v.695l-1.838-.695v-.408l2.614-.49.531.163C975.87,122.053,975.053,122.012,975.053,122.543ZM990.9,112.7a4.561,4.561,0,0,0-2.043.858,3.4,3.4,0,0,1-1.47.653l-.9.082-.409-.9h0L986,113.23h0l-4.126-9.967a.63.63,0,0,0-.613-.409.244.244,0,0,0-.163.041.611.611,0,0,0-.409.817l3.636,9.64.408,1.185-3.839.409-8.987-2.451a104.726,104.726,0,0,1,10.743-1.348l-2.7-7.149h0a1.385,1.385,0,0,1,.082-1.144,1.331,1.331,0,0,1,.858-.694,1.123,1.123,0,0,1,.367-.041,1.419,1.419,0,0,1,1.307.9l3.35,7.924a46.258,46.258,0,0,1,4.984.041C993.517,111.269,992.577,112.413,990.9,112.7Z" fill="#fff"/></g></svg>