<svg xmlns="http://www.w3.org/2000/svg" width="55" height="55" viewBox="0 0 55 55"><path d="M27.5,0A27.5,27.5,0,1,1,0,27.5,27.5,27.5,0,0,1,27.5,0Z" fill="indigo"/><g transform="translate(-855.5 -587.018)"><g transform="translate(863.878 595.825)"><path d="M877.706,599.893a.506.506,0,0,0-.5.436l-.344,3-3.762,8.723-1.4,2.469a.508.508,0,0,0,.175.665l.5.291c-.348,1.3-1.122,1.589-1.766,1.476a1.189,1.189,0,0,1-.971-1.591,3.789,3.789,0,0,0-.061-2.438,2.106,2.106,0,0,0-.375-.582,1.376,1.376,0,0,0-.176-.16,2.644,2.644,0,0,0-1.941-.757,9.833,9.833,0,0,0-2.332.451.489.489,0,1,0,.169.963c1.046-.179,2.546-.868,3.424.046a.5.5,0,0,0,.092.077.375.375,0,0,1,.054.053,1.069,1.069,0,0,1,.183.3,2.774,2.774,0,0,1,.015,1.812,2.237,2.237,0,0,0,1.75,2.79,2.583,2.583,0,0,0,2.8-1.934l.275.161a.509.509,0,0,0,.673-.176l1.422-2.469,5.573-7.645.726-.512.008-.008,1.689-1.292a.514.514,0,0,0-.054-.81l-5.611-3.272a.5.5,0,0,0-.238-.069Z" transform="translate(-864.329 -596.429)" fill="#fff"/><path d="M883.466,595.825a3.114,3.114,0,0,0-.938.156,4.092,4.092,0,0,0-2.3,2.186l-.1.18a.489.489,0,0,0,.177.669c1.951,1.143,3.9,2.276,5.854,3.415a.489.489,0,0,0,.669-.177l.106-.182a4.138,4.138,0,0,0,.723-3.1,3.866,3.866,0,0,0-1.963-2.492l-.026-.014-.022-.011-.014-.007a4.189,4.189,0,0,0-2.166-.623Z" transform="translate(-866.666 -595.825)" fill="#fff"/></g><g transform="translate(861.297 611.531)"><path d="M869.4,631.457a.96.96,0,0,1,0-1.808Zm1.306,1.709a.979.979,0,0,1-.636.9v-1.808A.979.979,0,0,1,870.708,633.166Zm4.623-18.224a5.969,5.969,0,0,1,.536.737c-.905.905-.135,3.317,1.105,3.584l-.168.771a2.249,2.249,0,0,0-1.239,1.475,2.041,2.041,0,0,0,.267,2.077,6.682,6.682,0,0,1-.435.6c-1.172-.6-3.25.938-3.049,2.211a5.625,5.625,0,0,1-.7.234c-.57-1.172-3.249-1.172-3.785,0a5.676,5.676,0,0,1-.7-.234,2.055,2.055,0,0,0-1.005-1.809,2.1,2.1,0,0,0-2.043-.4,6.854,6.854,0,0,1-.435-.6,2.122,2.122,0,0,0,.268-2.077A2.013,2.013,0,0,0,862.534,620v-.7c1.273-.2,2.111-2.68,1.172-3.619a5.963,5.963,0,0,1,.536-.737l-.2-.67a.38.38,0,0,0-.268.1,11.322,11.322,0,0,0-.771,1h0c-1.441,0-2.312,2.914-1.206,3.752v1c-1.106.838-.168,3.719,1.239,3.719h0a7.576,7.576,0,0,0,.6.837c-.436,1.34,2.009,3.116,3.149,2.278.335.134.67.234,1,.335a1.869,1.869,0,0,0,1.608,1.005v.67a1.651,1.651,0,0,0-1.306,1.607,1.681,1.681,0,0,0,1.306,1.608v1.91a.982.982,0,0,1-.637-.905.335.335,0,0,0-.335-.335.316.316,0,0,0-.335.335,1.681,1.681,0,0,0,1.306,1.608v.57a.335.335,0,0,0,.335.335.361.361,0,0,0,.336-.335v-.6a1.643,1.643,0,0,0,0-3.216v-1.909a.979.979,0,0,1,.636.9.36.36,0,0,0,.336.335.335.335,0,0,0,.335-.335,1.653,1.653,0,0,0-1.306-1.608v-.67a1.807,1.807,0,0,0,1.608-1c.335-.1.669-.2,1-.335,1.139.837,3.585-.938,3.149-2.278a6.512,6.512,0,0,0,.6-.838c.033-.033,1.072,0,1.574-1.54.335-.971.1-1.944-.536-2.211l.135-.938c1.206-.771.267-3.718-1.172-3.718h0a8.042,8.042,0,0,0-.771-1.005.225.225,0,0,0-.235-.134Z" transform="translate(-861.297 -614.272)" fill="#fff"/></g><g transform="translate(879.801 605.06)"><path d="M905.054,606.7l-14.02,2.1a1.813,1.813,0,0,0-1.552,1.81v13.141a5.288,5.288,0,0,0-2.639-.155c-2.484.491-4.164,2.561-3.75,4.656s2.742,3.389,5.225,2.9a4.394,4.394,0,0,0,3.8-3.983V614.016l12.391-1.863v8.95a5.288,5.288,0,0,0-2.639-.155c-2.484.491-4.165,2.561-3.751,4.656s2.742,3.389,5.226,2.9a4.394,4.394,0,0,0,3.8-3.983V608.506A1.818,1.818,0,0,0,905.054,606.7Z" transform="translate(-883.029 -606.672)" fill="#fff"/></g></g></svg>