<svg xmlns="http://www.w3.org/2000/svg" width="28.456" height="34.809" viewBox="0 0 28.456 34.809"><path d="M14.116.006a.9.9,0,0,0-.56.28L11.808,2.036l-2.3-.953A.99.99,0,0,0,8.269,1.6l-.952,2.31H4.841a.988.988,0,0,0-.952.942V7.328l-2.3.953a.978.978,0,0,0-.515,1.233l.952,2.3L.272,13.573a1.009,1.009,0,0,0,0,1.334l1.758,1.76-.952,2.287A.992.992,0,0,0,1.593,20.2l2.3.953V22.43L.126,28.956a.965.965,0,0,0,0,.953.985.985,0,0,0,.818.471H5.469L7.8,34.338a.969.969,0,0,0,.818.471.984.984,0,0,0,.818-.471l3.752-6.514.37.37a.975.975,0,0,0,1.344,0l.369-.37,3.752,6.514a.985.985,0,0,0,.818.471.968.968,0,0,0,.817-.471l2.33-3.958h4.525a.985.985,0,0,0,.817-.471.963.963,0,0,0,0-.953L24.567,22.43V21.152l2.3-.953a.992.992,0,0,0,.515-1.244l-.952-2.287,1.758-1.76a1.009,1.009,0,0,0,0-1.334l-1.758-1.76.952-2.3a.979.979,0,0,0-.515-1.233l-2.3-.953V4.85a.988.988,0,0,0-.953-.942H21.139L20.187,1.6a.991.991,0,0,0-1.243-.516l-2.3.953L14.9.286a.964.964,0,0,0-.784-.28" transform="translate(0 0)" fill="indigo"/></svg>