<svg xmlns="http://www.w3.org/2000/svg" width="55" height="55" viewBox="0 0 55 55"><path d="M27.5,0A27.5,27.5,0,1,1,0,27.5,27.5,27.5,0,0,1,27.5,0Z" fill="indigo"/><g transform="translate(-949.5 -587.017)"><g transform="translate(957.603 601.705)"><path d="M967.037,605.64a.438.438,0,1,0,.437.438.438.438,0,0,0-.437-.438" transform="translate(-959.598 -602.578)" fill="#fff"/><path d="M961.414,605.64a.438.438,0,1,0,.437.438.438.438,0,0,0-.437-.438" transform="translate(-958.351 -602.578)" fill="#fff"/><path d="M972.659,605.64a.438.438,0,1,0,.438.438.438.438,0,0,0-.438-.438" transform="translate(-960.846 -602.578)" fill="#fff"/><path d="M978.282,605.64a.438.438,0,1,0,.437.438.437.437,0,0,0-.437-.438" transform="translate(-962.093 -602.578)" fill="#fff"/><path d="M975.543,606.08H958.479v-1.75h17.5v1.75Zm.437-2.625H975.5a2.191,2.191,0,0,0-2.143-1.75H961.1a2.191,2.191,0,0,0-2.143,1.75h-.482a.876.876,0,0,0-.875.875v1.75a.877.877,0,0,0,.875.875h.009a22.022,22.022,0,0,0,.262,3.062h16.959a21.909,21.909,0,0,0,.263-3.062h.009a.877.877,0,0,0,.875-.875v-1.75a.876.876,0,0,0-.875-.875Z" transform="translate(-957.603 -601.705)" fill="#fff"/><path d="M974.853,631.2c-1.832,0-3.378-3.6-3.492-8.057a9.327,9.327,0,0,0,2.772-2.882H961.572a9.332,9.332,0,0,0,2.773,2.882c-.115,4.461-1.661,8.057-3.493,8.057a.438.438,0,1,0,0,.875h14a.438.438,0,0,0,0-.875Z" transform="translate(-958.227 -605.82)" fill="#fff"/><path d="M962.955,618.123h2.617l-1.478-3.548Z" transform="translate(-958.79 -604.56)" fill="#fff"/><path d="M960.812,617.887h.41l1.4-4.375h-3.342a16.408,16.408,0,0,0,1.528,4.375" transform="translate(-957.976 -604.324)" fill="#fff"/><path d="M977.772,617.887h.41a16.433,16.433,0,0,0,1.528-4.375h-3.342Z" transform="translate(-961.765 -604.324)" fill="#fff"/><path d="M968.005,618.087h3.063l-1.531-3.675Z" transform="translate(-959.91 -604.523)" fill="#fff"/><path d="M975.106,614.576l-1.478,3.548h2.617Z" transform="translate(-961.157 -604.56)" fill="#fff"/><path d="M966.725,617.187l1.531-3.675h-3.063Z" transform="translate(-959.287 -604.324)" fill="#fff"/><path d="M972.348,617.187l1.531-3.675h-3.063Z" transform="translate(-960.534 -604.324)" fill="#fff"/></g><g transform="translate(974.529 603.602)"><path d="M999.483,604.164l-12.815,1.914a1.658,1.658,0,0,0-1.419,1.655v12.011a4.835,4.835,0,0,0-2.412-.142c-2.27.449-3.806,2.341-3.428,4.256s2.506,3.1,4.776,2.647a4.016,4.016,0,0,0,3.475-3.641v-12.01l11.325-1.7v8.18a4.835,4.835,0,0,0-2.412-.142c-2.27.449-3.807,2.341-3.428,4.256s2.506,3.1,4.776,2.647a4.017,4.017,0,0,0,3.475-3.64V605.818A1.662,1.662,0,0,0,999.483,604.164Z" transform="translate(-979.353 -604.142)" fill="#fff"/></g></g></svg>