<svg xmlns="http://www.w3.org/2000/svg" width="55" height="55" viewBox="0 0 55 55"><g transform="translate(-499 -833)"><g transform="translate(499 833)"><circle cx="27.5" cy="27.5" r="27.5" fill="indigo"/></g><g transform="translate(-169.5 -500.485)"><g transform="translate(697.94 1345.635)"><path d="M706.245,1352.913a3.723,3.723,0,0,1-2.326-4.549,3.662,3.662,0,1,1,6.978,2.223A3.563,3.563,0,0,1,706.245,1352.913Z" transform="translate(-700.74 -1345.806)" fill="#fff"/><path d="M701.384,1362.617c.052,0,.1-.051.155-.1,0-.1.051-.207.051-.311a1.4,1.4,0,0,1,1.345-.982,1.006,1.006,0,0,0,.413-.052,6.558,6.558,0,0,0,1.447-.258,4.813,4.813,0,0,0,2.12-1.345c.052-.1.155-.155.207-.258a3.664,3.664,0,0,0,.413-.517,4.075,4.075,0,0,0,.621-1.551c.1-.62-.207-1.241.052-1.81a1.714,1.714,0,0,1,1.086-.982,2.507,2.507,0,0,1,2.585.878,18.315,18.315,0,0,1,2.844,5.221,16.4,16.4,0,0,1,1.085,4.7,9.1,9.1,0,0,1-.62,4.705,2.777,2.777,0,0,1-2.534,1.344,1.616,1.616,0,0,0-.051.517v1.706c0,.723,0,1.447-.052,2.171a4.434,4.434,0,0,1-.517,2.12,1.859,1.859,0,0,1-1.086.878c-2.74.621-2.43-4.446-2.43-5.842v-1.137a1,1,0,0,0-.052-.413,7.942,7.942,0,0,1-1.551-.259c-.258-.051-.465-.051-.671-.1a.584.584,0,0,1-.414-.879,20.159,20.159,0,0,0,1.6-4.808c.207-.879.311-1.654.414-2.222-.052-.1-.1-.207-.207-.155a5.181,5.181,0,0,1-2.74.982,4.624,4.624,0,0,1-2.792-.155,1.206,1.206,0,0,1-.362-.361c-.1,0-.206.1-.31.259a1.065,1.065,0,0,0,.1,1.034c.154.258.517.517.517.827v10.753a.532.532,0,0,1-.517.569.555.555,0,0,1-.621-.569v-7.755a12.928,12.928,0,0,0-.465-3.98A1.507,1.507,0,0,1,701.384,1362.617Z" transform="translate(-700.377 -1346.722)" fill="#fff"/></g><g transform="translate(677.635 1344.211)"><path d="M697.166,1364.7v14.472a.7.7,0,0,1-.71.682h0a.7.7,0,0,1-.712-.682V1364.7" transform="translate(-679.576 -1346.407)" fill="#fff"/><path d="M698.687,1358.868a1.519,1.519,0,0,1,1.518,1.517.681.681,0,1,0,1.362,0,2.871,2.871,0,0,0-5.511-1.135l1.087.006a2.141,2.141,0,0,1,.48.058A1.493,1.493,0,0,1,698.687,1358.868Z" transform="translate(-679.609 -1345.636)" fill="#fff"/><path d="M678.565,1365.186v11.547a1.707,1.707,0,0,0,1.707,1.707h1.179a1.707,1.707,0,0,0,1.707-1.707v-9.92a1.7,1.7,0,0,0,1.468-1.078l2.313-5.908,1.821,2.251c.012.016.029.027.042.042a1.228,1.228,0,0,0,.122.123,1.392,1.392,0,0,0,.113.1c.035.026.072.05.11.073s.1.061.156.087l.1.039a1.535,1.535,0,0,0,.2.062l.077.016a1.561,1.561,0,0,0,.241.025l.028,0,5.2.028a1.538,1.538,0,0,0,1.548-1.531l0-.249a1.538,1.538,0,0,0-1.532-1.547l-4.355-.024-2.484-3.068a1.7,1.7,0,0,0-1-2.112l-3.693-1.44a1.708,1.708,0,0,0-2.211.971l-3.673,9.385A1.7,1.7,0,0,0,678.565,1365.186Z" transform="translate(-677.635 -1345.108)" fill="#fff"/><circle cx="3.784" cy="3.784" r="3.784" transform="translate(6.111)" fill="#fff"/></g></g></g></svg>