<svg xmlns="http://www.w3.org/2000/svg" width="55" height="55" viewBox="0 0 55 55"><path d="M27.5,0A27.5,27.5,0,1,1,0,27.5,27.5,27.5,0,0,1,27.5,0Z" fill="indigo"/><g transform="translate(-576.5 -1147.72)"><path d="M614.779,1188.807l-4.568,4.651a1.339,1.339,0,0,0,1.909,1.877l3.9-3.967-1.026-1.8A1.608,1.608,0,0,1,614.779,1188.807Z" transform="translate(-4.165 -5.206)" fill="#fff"/><path d="M600.028,1187.81l1.532.438-1.4,4.382a1.673,1.673,0,1,0,3.188,1.016l1.918-6.024a1.672,1.672,0,0,0-1.133-2.115l-5.463-1.565a10,10,0,0,0-.376,1Z" transform="translate(-2.031 -4.306)" fill="#fff"/><path d="M626.7,1160.691a.8.8,0,0,0-.657.927,14.262,14.262,0,0,1,.221,2.406,6.38,6.38,0,0,1-1.149,4.068,3.42,3.42,0,0,1-.733.7,2.206,2.206,0,0,1-.215.133l-.045.022a.8.8,0,0,0,.6,1.489h0a4.363,4.363,0,0,0,1.654-1.354,7.962,7.962,0,0,0,1.492-5.06,15.92,15.92,0,0,0-.244-2.676A.8.8,0,0,0,626.7,1160.691Z" transform="translate(-6.719)" fill="#fff"/><path d="M606.592,1177.546a1.07,1.07,0,0,1-.61-1.948l-3.291,1.316-3.388-2a1.463,1.463,0,0,0-.345-.323,2.906,2.906,0,0,0-2.94-.03,8.927,8.927,0,0,1,1.452.33h0l.013,0a1.338,1.338,0,1,1-.878,2.529l-.02-.006-.1-.029c-.09-.025-.239-.064-.436-.105a7.754,7.754,0,0,0-1.553-.159,6.863,6.863,0,0,0-.887.057,12.031,12.031,0,0,0-1.486,3.151c-.134.421-.26.871-.382,1.363a2.4,2.4,0,0,0,1.351,2.822l1.583,2.621-5.259,2.653a1.673,1.673,0,1,0,1.507,2.987l6.871-3.465a1.674,1.674,0,0,0,.679-2.358l-2.283-3.782a12.793,12.793,0,0,1,1.113-2.536c.578-1.041,1.23-2,1.738-2.794a2.928,2.928,0,0,0,.276-.432l2.734,1.612a1.07,1.07,0,0,0,.941.072l3.953-1.581c-.09.008-.178.018-.27.025C606.652,1177.544,606.622,1177.546,606.592,1177.546Z" transform="translate(-0.218 -2.499)" fill="#fff"/><path d="M611.31,1175.585a1.061,1.061,0,0,0-.685.037l-.121.048c.024,0,.049-.007.075-.01C610.83,1175.64,611.073,1175.613,611.31,1175.585Z" transform="translate(-4.29 -2.751)" fill="#fff"/><circle cx="3.011" cy="3.011" r="3.011" transform="translate(596.579 1170.792) rotate(-76.891)" fill="#fff"/><path d="M596.345,1177.256l.111.033.02.006h0a1.071,1.071,0,0,0,.7-2.023h0a9.549,9.549,0,0,0-2.9-.433,8.577,8.577,0,0,0-3.383.666,7.965,7.965,0,0,0-3.376,2.767,1.071,1.071,0,0,0,1.743,1.244,5.815,5.815,0,0,1,2.476-2.042,6.444,6.444,0,0,1,2.54-.493,8.1,8.1,0,0,1,1.608.165C596.088,1177.187,596.244,1177.228,596.345,1177.256Z" transform="translate(0 -2.621)" fill="#fff"/><path d="M619.323,1189.077a14.5,14.5,0,0,0-3.063-.625,1.335,1.335,0,0,0,.149.921l3.212,5.621a1.338,1.338,0,1,0,2.324-1.328Z" transform="translate(-5.351 -5.14)" fill="#fff"/><circle cx="2.677" cy="2.677" r="2.677" transform="translate(609.812 1163.27)" fill="#fff"/><path d="M624.86,1180.06c-.179-2.32-1.486-2.683-1.486-2.683l-.023,0c-1.813-2.525-.753-3.709-1.369-5.413-.359-1-.727-1.371-1.205-1.442a2.313,2.313,0,0,0-2.692,1.406,4.281,4.281,0,0,0-.47.975,6.069,6.069,0,0,0,.887-.629,1.071,1.071,0,0,1,1.493,1.536,8.881,8.881,0,0,1-2.349,1.512,1.363,1.363,0,0,0,1.148.818,18.372,18.372,0,0,1,.587,2.222,5.286,5.286,0,0,1-.544,1.934c-.77,1.472-4.083,4.462-4.083,4.462s.425.019,1.034.074a15.34,15.34,0,0,1,3.294.595c.973.343,5.568-2.781,5.773-5.084A1.716,1.716,0,0,0,624.86,1180.06Z" transform="translate(-5.077 -1.812)" fill="#fff"/><path d="M618.888,1172.883a.8.8,0,0,0-1.133-.016h0c-.046.039-2.231,2.1-7.3,2.522a.8.8,0,0,0,.064,1.6l.067,0c5.655-.46,8.194-2.873,8.29-2.971A.8.8,0,0,0,618.888,1172.883Z" transform="translate(-4.145 -2.214)" fill="#fff"/></g></svg>