<svg xmlns="http://www.w3.org/2000/svg" width="55" height="55" viewBox="0 0 55 55"><path d="M27.5,0A27.5,27.5,0,1,1,0,27.5,27.5,27.5,0,0,1,27.5,0Z" fill="indigo"/><g transform="translate(-949.5 -454.172)"><g transform="translate(957.603 466.868)"><path d="M985.534,467.048a2.792,2.792,0,0,1,.362.509c.006.018,0,0,.118.361.063.187.086.264.06.356a.357.357,0,0,1-.119.159c-.13.107-.29.249-.468.421-.1.092-.228.228-.381.393.065.107.133.217.2.32a.631.631,0,0,0,.225.166.774.774,0,0,0,.251.044c.163.009.21-.027.267.012a.213.213,0,0,1,.068.222c-.035.125-.181.1-.378.255-.222.169-.232.338-.376.346a.216.216,0,0,1-.2-.115c-.027-.068.029-.1.062-.252a.774.774,0,0,0,.005-.284.684.684,0,0,0-.1-.251c-.075-.08-.151-.157-.228-.234-.056.068-.115.139-.171.213a7.841,7.841,0,0,0-.693.995c.065.089.133.181.2.272a.667.667,0,0,0,.237.148.814.814,0,0,0,.251.027c.169,0,.21-.038.27,0a.207.207,0,0,1,.086.21c-.03.13-.177.119-.367.284s-.2.349-.349.367a.212.212,0,0,1-.21-.1c-.029-.065.021-.1.045-.257a.753.753,0,0,0-.015-.287.694.694,0,0,0-.109-.239c-.063-.056-.122-.11-.184-.16-.048.089-.08.162-.107.219a.336.336,0,0,1-.145.192.3.3,0,0,1-.145.021c-.13-.006-.257.027-.388.032s-.34.092-.677.429L968.5,486.195a.935.935,0,0,0-.068,1.016,1.109,1.109,0,0,0,.34.388,2.342,2.342,0,0,0,1.6.189c.451-.047.708-.127.947.042a.528.528,0,0,1,.222.334c.018.13-.032.293-.258.518a3.3,3.3,0,0,1-1.477.707,4.329,4.329,0,0,0-1.374.592,1.765,1.765,0,0,0-.32.308,2.012,2.012,0,0,0-.329.637,8.994,8.994,0,0,0-.284,1.006c-.047.207-.127.524-.231.918a3.785,3.785,0,0,1-.761,1.531,3.262,3.262,0,0,1-1.273.988,3.3,3.3,0,0,1-1.13.243,4.117,4.117,0,0,1-1.371-.156,5.546,5.546,0,0,1-1.58-.717,7.646,7.646,0,0,1-1.33-1.081,7.468,7.468,0,0,1-1.823-2.469,5.136,5.136,0,0,1-.323-1.033,4.366,4.366,0,0,1-.044-1.412,3.37,3.37,0,0,1,.236-.9,3.255,3.255,0,0,1,.651-.971,3.378,3.378,0,0,1,.746-.563,7.084,7.084,0,0,1,1.51-.6c.53-.169.627-.184,1.361-.421a4.448,4.448,0,0,0,1.134-.495,4.564,4.564,0,0,0,.5-.39,10.211,10.211,0,0,0,1.743-2.786,11.344,11.344,0,0,1,.847-1.421,4.791,4.791,0,0,1,1.13-1.137c.5-.361.761-.393.954-.349a.639.639,0,0,1,.441.287c.157.317-.207.693-.9,1.8a4.038,4.038,0,0,0-.666,1.8.988.988,0,0,0,.189.462.768.768,0,0,0,.257.2.98.98,0,0,0,.767.009l12.859-12.445c.113-.13.2-.239.272-.325a1.589,1.589,0,0,0,.207-.3,1.343,1.343,0,0,0,.119-.3,2.168,2.168,0,0,0,.08-.53c.095-.053.2-.115.323-.187-.042-.03-.083-.059-.127-.086a.6.6,0,0,0-.272-.053.771.771,0,0,0-.246.062c-.154.059-.181.11-.252.1a.213.213,0,0,1-.151-.169c-.02-.133.119-.172.239-.394.13-.242.068-.4.2-.468a.214.214,0,0,1,.234.021c.047.047.015.1.047.254a.757.757,0,0,0,.11.263.714.714,0,0,0,.192.187c.1.042.2.08.308.118q.155-.093.329-.2c.162-.1.5-.323.819-.56.075-.057.157-.122.246-.192-.08-.068-.169-.139-.251-.21a.609.609,0,0,0-.267-.083.713.713,0,0,0-.248.036c-.163.044-.193.092-.261.071a.217.217,0,0,1-.133-.186c-.006-.13.139-.157.281-.364.154-.225.11-.388.249-.444a.214.214,0,0,1,.228.045c.045.056.006.106.021.258a.735.735,0,0,0,.086.275.713.713,0,0,0,.166.207c.125.065.252.128.374.19a9.187,9.187,0,0,0,.891-.9.153.153,0,0,1,.106-.053C985.422,466.9,985.5,466.992,985.534,467.048Z" transform="translate(-957.603 -466.868)" fill="#fff"/></g><g transform="translate(975.008 474.608)"><path d="M1000.081,476.751l-12.926,1.932a1.672,1.672,0,0,0-1.431,1.669v12.115a4.885,4.885,0,0,0-2.433-.143c-2.289.453-3.839,2.361-3.458,4.293s2.528,3.124,4.817,2.67a4.051,4.051,0,0,0,3.506-3.672V483.5l11.423-1.717v8.251a4.885,4.885,0,0,0-2.432-.143c-2.289.453-3.839,2.361-3.458,4.293s2.527,3.124,4.817,2.671a4.052,4.052,0,0,0,3.506-3.673V478.42A1.676,1.676,0,0,0,1000.081,476.751Z" transform="translate(-979.776 -476.729)" fill="#fff"/></g></g></svg>