<svg xmlns="http://www.w3.org/2000/svg" width="55" height="55" viewBox="0 0 55 55"><path d="M27.5,0A27.5,27.5,0,1,1,0,27.5,27.5,27.5,0,0,1,27.5,0Z" fill="indigo"/><g transform="translate(-646.5 -409.186)"><path d="M665.045,449.605a3.462,3.462,0,1,0,3.463,3.463A3.463,3.463,0,0,0,665.045,449.605Zm0,4.865a1.4,1.4,0,1,1,1.4-1.4A1.4,1.4,0,0,1,665.045,454.47Z" transform="translate(-0.265 -3.39)" fill="#fff"/><path d="M675.111,449.605a3.462,3.462,0,1,0,3.463,3.463A3.463,3.463,0,0,0,675.111,449.605Zm0,4.865a1.4,1.4,0,1,1,1.4-1.4A1.4,1.4,0,0,1,675.111,454.47Z" transform="translate(-1.45 -3.39)" fill="#fff"/><path d="M685.177,449.605a3.462,3.462,0,1,0,3.462,3.463A3.462,3.462,0,0,0,685.177,449.605Zm0,4.865a1.4,1.4,0,1,1,1.4-1.4A1.4,1.4,0,0,1,685.177,454.47Z" transform="translate(-2.636 -3.39)" fill="#fff"/><path d="M687.373,439.614a8.084,8.084,0,0,0-2.518-2.676c-1.991-1.286-4.195-1.5-6.37-2.134a.4.4,0,0,1-.023.122l-1.032,2.553a.415.415,0,0,1-.385.259.428.428,0,0,1-.156-.03.416.416,0,0,1-.229-.541l1.032-2.553a.378.378,0,0,1,.034-.049l-.011,0a6.744,6.744,0,0,1-1.832-.992L674.3,435.8a.415.415,0,0,1-.339.175.41.41,0,0,1-.241-.078.414.414,0,0,1-.1-.579l1.6-2.244c.009-.012.022-.019.032-.03a8.015,8.015,0,0,1-1.139-1.335c-.035-.053-.064-.108-.1-.161l-2.1,1.6a.415.415,0,1,1-.5-.659l2.185-1.672a10.467,10.467,0,0,1-.7-1.761l-2.49,1.1a.407.407,0,0,1-.168.036.415.415,0,0,1-.169-.795l2.518-1.115a.4.4,0,0,1,.094-.021c-.134-.556-.244-1.12-.343-1.689a.371.371,0,0,1-.117.025h-2.754a.415.415,0,0,1,0-.83H672.2c-.106-.883-.393-4.947-.42-4.947H659.337V441.86h28.64A4.389,4.389,0,0,0,687.373,439.614Z" fill="#fff"/><path d="M661.71,447.4h21.035c1.787,0,4.257.494,5.051-1.6.025-.065.039-.132.059-.2H659.419A2.362,2.362,0,0,0,661.71,447.4Z" transform="translate(-0.01 -2.919)" fill="#fff"/></g></svg>