<svg xmlns="http://www.w3.org/2000/svg" width="55" height="55" viewBox="0 0 55 55"><path d="M27.5,0A27.5,27.5,0,1,1,0,27.5,27.5,27.5,0,0,1,27.5,0Z" fill="indigo"/><g transform="translate(-555.5 -478.778)"><path d="M569.217,498.843a22.594,22.594,0,0,0-4.744,5.034,6.888,6.888,0,0,0-1.15,2.251,4.927,4.927,0,0,0,.106,2.677,8.842,8.842,0,0,0,1.26,2.194,24.006,24.006,0,0,0,1.636,2.048,21.918,21.918,0,0,0,2.888,2.677c0-1.041,0-2.085,0-3.125V512.5s0,0-.008-.008c0-.73.008-1.46.008-2.191Z" transform="translate(0 -1.019)" fill="#fff"/><path d="M609.986,507.12a5.156,5.156,0,0,0-.845-2.582,22.177,22.177,0,0,0-3.071-3.843,21.644,21.644,0,0,0-2.114-1.852v16.881a22.211,22.211,0,0,0,3.978-3.99,21.686,21.686,0,0,0,1.338-1.93l0,0a.725.725,0,0,0,.045-.073A4.791,4.791,0,0,0,609.986,507.12Z" transform="translate(-7.306 -1.019)" fill="#fff"/><path d="M596.062,496.189q-1-.575-2.044-1.052s-.012,0-.016-.008c-.044-.021-.085-.037-.13-.057a22.728,22.728,0,0,0-8.587-1.905,21.639,21.639,0,0,0-2.525.086l-.11.011a23.015,23.015,0,0,0-5.618,1.269c-.061.021-.122.045-.179.066s-.119.044-.18.069-.1.037-.143.057c-.232.089-.461.183-.689.282l-.13.057c-.041.016-.081.037-.122.053s-.082.037-.122.053l-.11.049c-.066.029-.127.057-.192.089l-.122.062c-.029.012-.057.029-.086.041-.057.028-.114.053-.167.081a0,0,0,0,0,0,0c-.029.016-.057.029-.086.045a.945.945,0,0,0-.085.044s-.008,0-.016.008,0,0-.008,0c-.044.025-.089.045-.135.07l.07-.037c-.339.176-.677.355-1.008.547v2.9s0,0,.008,0c0,.432-.008.868-.008,1.3v15.983a21.429,21.429,0,0,0,2.346,1.175,22.577,22.577,0,0,0,19.238-.657c.327-.167.648-.343.963-.526v-2.9a.014.014,0,0,0-.008,0c0-.432.008-.865.008-1.3V496.189Zm-3.488,11.329h-.029c-.477.007-.959,0-1.436,0v1.362a1.224,1.224,0,1,1-2.448,0v-1.362h-2.685v1.362a1.224,1.224,0,1,1-2.448,0v-1.362h-2.688v1.362a1.224,1.224,0,1,1-2.448,0v-1.362h-1.387a1.224,1.224,0,0,1,0-2.448h.029c.453-.008.906,0,1.358,0v-1.424a1.224,1.224,0,0,1,2.448,0v1.424h2.688v-1.424a1.224,1.224,0,1,1,2.448,0v1.424h2.685v-1.424a1.224,1.224,0,1,1,2.448,0v1.424h1.464a1.224,1.224,0,1,1,0,2.448Z" transform="translate(-1.851)" fill="#fff"/></g></svg>