<svg xmlns="http://www.w3.org/2000/svg" width="26.24" height="32.851" viewBox="0 0 26.24 32.851"><g transform="translate(-196.678 -676.033)"><path d="M209.739,676.034a.757.757,0,0,0-.083.013.819.819,0,0,0-.425.2l-.012.012a30.186,30.186,0,0,1-3.789,2.235,19.109,19.109,0,0,1-7.934,2.281h-.818v11.742a16,16,0,0,0,6.459,12.669,23.276,23.276,0,0,0,6.4,3.613l.255.085.259-.085a23.276,23.276,0,0,0,6.4-3.613,16,16,0,0,0,6.459-12.669V680.775h-.825a19.077,19.077,0,0,1-7.929-2.282,30.492,30.492,0,0,1-3.813-2.252.816.816,0,0,0-.435-.2H209.9c-.024,0-.049-.006-.074-.007h-.09Zm.058,8.206a8.2,8.2,0,0,1,8.2,8.2h0a8.2,8.2,0,0,1-8.2,8.2h0a8.2,8.2,0,0,1-8.2-8.2h0a8.2,8.2,0,0,1,8.2-8.2Zm4.489,4.094a1.229,1.229,0,0,0-.848.37l-4.866,4.873-2.415-2.415a1.231,1.231,0,0,0-1.765,1.716l.027.026,3.281,3.282a1.23,1.23,0,0,0,1.736,0l5.738-5.745a1.23,1.23,0,0,0-.888-2.107Z" fill="indigo"/></g></svg>