<svg xmlns="http://www.w3.org/2000/svg" width="55" height="55" viewBox="0 0 55 55"><path d="M27.5,0A27.5,27.5,0,1,1,0,27.5,27.5,27.5,0,0,1,27.5,0Z" fill="indigo"/><g transform="translate(-455.5 -384.77)"><path d="M487,402.348a.751.751,0,0,0-.736.646l-.51,4.453-5.574,12.927-2.074,3.66a.755.755,0,0,0,.26.986l.737.43c-.516,1.933-1.663,2.355-2.617,2.187a1.763,1.763,0,0,1-1.44-2.357,5.608,5.608,0,0,0-.091-3.614,3.07,3.07,0,0,0-.555-.861,1.909,1.909,0,0,0-.261-.238,3.919,3.919,0,0,0-2.877-1.122,14.66,14.66,0,0,0-3.456.668.764.764,0,0,0-.624.85.754.754,0,0,0,.873.577c1.549-.264,3.773-1.285,5.076.069a.742.742,0,0,0,.136.113.537.537,0,0,1,.079.079,1.55,1.55,0,0,1,.272.441,4.114,4.114,0,0,1,.023,2.686,3.315,3.315,0,0,0,2.594,4.135,3.826,3.826,0,0,0,4.147-2.866l.408.238a.754.754,0,0,0,1-.26l2.107-3.66,8.26-11.33,1.076-.759.011-.011,2.5-1.914a.762.762,0,0,0-.079-1.2l-8.316-4.85a.736.736,0,0,0-.352-.1Z" transform="translate(0 -0.761)" fill="#fff"/><path d="M495.021,396.453a4.683,4.683,0,0,0-1.391.232,6.062,6.062,0,0,0-3.4,3.24l-.156.267a.726.726,0,0,0,.262.992c2.891,1.694,5.781,3.373,8.677,5.06a.724.724,0,0,0,.992-.262l.157-.269a6.133,6.133,0,0,0,1.071-4.595,5.725,5.725,0,0,0-2.909-3.694l-.038-.02-.033-.017-.021-.01a6.219,6.219,0,0,0-3.209-.924Z" transform="translate(-2.944)" fill="#fff"/></g></svg>