<svg xmlns="http://www.w3.org/2000/svg" width="55" height="55" viewBox="0 0 55 55"><g transform="translate(-499 -833)"><g transform="translate(499 833)"><circle cx="27.5" cy="27.5" r="27.5" fill="indigo"/></g><path d="M602.867,1573.847a7.366,7.366,0,0,0,2.8-6.055,6.177,6.177,0,0,0-.058-.825c-.418-3.164-3.226-4.251-5.306-4.251s-4.888,1.088-5.3,4.253a6.155,6.155,0,0,0-.059.823,7.367,7.367,0,0,0,2.8,6.055,10.594,10.594,0,0,0-4.667,3.08,7.3,7.3,0,0,0-1.921,4.754c0,4.562,4.577,5.039,9.154,5.039s9.154-.477,9.154-5.039a7.3,7.3,0,0,0-1.916-4.749A10.594,10.594,0,0,0,602.867,1573.847Z" transform="translate(-73.5 -714.5)" fill="#fff"/></g></svg>