<svg xmlns="http://www.w3.org/2000/svg" width="55" height="55" viewBox="0 0 55 55"><path d="M27.5,0A27.5,27.5,0,1,1,0,27.5,27.5,27.5,0,0,1,27.5,0Z" fill="indigo"/><g transform="translate(-642.5 -555.5)"><path d="M665.391,587.6s-2.2,12.45-2.212,12.771c-.023.572.133.783,1.285.926.894.111,1.169-.054,1.327-.567s1.621-12.911,1.621-12.911l.832-5.261a.244.244,0,0,0,.3-.167,5.569,5.569,0,0,0-.108-1.117s1.816-9.848,1.975-10.727.606-3.285.655-3.613c.056-.392-.08-1.8-1.3-1.95-1.312-.164-1.81,1.172-1.871,1.588s-1.53,14.415-1.53,14.415a5.846,5.846,0,0,0-.428,1.112c.019.157.2.2.2.2Z" fill="#fff"/><path d="M665.443,588.171s2.894,12.348,3.012,12.653c.207.54.442.683,1.6.433.9-.2,1.1-.442,1.039-.972s-3.633-12.586-3.633-12.586l-1.317-5.186s.257-.033.242-.271a5.487,5.487,0,0,0-.576-.989s-2.219-9.794-2.419-10.667-.741-3.267-.826-3.589c-.1-.385-.8-1.651-2.025-1.384a1.68,1.68,0,0,0-1.15,2.108c.11.41,4.325,13.958,4.325,13.958s-.181.995-.019,1.21a.249.249,0,0,0,.331.084Z" fill="#fff"/><path d="M674.839,599.182l.5-17.968.267.01a.142.142,0,0,0,.146-.137l.077-2.517a.141.141,0,0,0-.137-.146l-1.121-.039a.141.141,0,0,0-.146.137l0,.127a2.378,2.378,0,0,0-.624.113c-.413.128-3.045,1.276-1.985,2.271,1.027.963,2.057-.486,2.58-1.432l-.044,1.438a.142.142,0,0,0,.137.146l.358.012-.521,17.967c-.654-.005-1.151.061-1.155.161s.49.2,1.143.241l0,.127s.011,1.789.24,1.8.272-1.722.272-1.722l.005-.19c.651,0,1.145-.063,1.147-.164S675.488,599.222,674.839,599.182Zm-2.654-18.467c-.406-.42.574-1.136,1.443-1.552a3.074,3.074,0,0,1,.788-.242v.018C674.067,579.675,672.911,581.464,672.185,580.715Z" fill="#fff"/><path d="M679.443,579.12a2.454,2.454,0,0,0-.415-.15l.015-.125a.141.141,0,0,0-.125-.156l-1.115-.125a.144.144,0,0,0-.157.126l-.295,2.5a.139.139,0,0,0,.123.156l.277.031-1.91,17.923c-.6-.016-1.049.032-1.057.127s.426.2,1.016.266c-.023.29-.138,1.879.092,1.9.254.024.418-1.837.418-1.837l0-.023c.707.036,1.265-.013,1.272-.118s-.531-.228-1.229-.287l1.889-17.9.345.038a.142.142,0,0,0,.157-.125l.136-1.148c.438.978,1.219,2.167,2.243,1.426C682.3,580.77,679.836,579.3,679.443,579.12Zm1.355,2.141c-.7.561-1.509-.743-1.758-1.661a3.288,3.288,0,0,1-.047-.339,2.9,2.9,0,0,1,.571.278C680.373,580.062,681.255,580.9,680.8,581.261Z" fill="#fff"/></g></svg>