<svg xmlns="http://www.w3.org/2000/svg" width="55" height="55" viewBox="0 0 55 55"><path d="M27.5,0A27.5,27.5,0,1,1,0,27.5,27.5,27.5,0,0,1,27.5,0Z" fill="indigo"/><g transform="translate(-554.5 -616.49)"><path d="M577.645,632.275c-.112-.709-.168-1.417-.336-2.108-.318-1.361,0-1.865,1.324-2.052a3.067,3.067,0,0,1,3.227,2.63c.038.877-.148,1.753-.186,2.611-.018.709.056,1.436.056,2.145.019,1.194.056,2.407.019,3.6a.412.412,0,0,1-.429.466,8.367,8.367,0,0,1-4.5-.037.126.126,0,0,1-.074-.149c.28-.858.54-1.679.783-2.444.019-.037-.037-.074-.074-.056-1.157.8-2.463,1.7-3.75,2.612a.151.151,0,0,1-.2-.038c-.243-.3-.914-1.175-1.139-1.454-.13-.168-.466-.634-.577-.784a2.068,2.068,0,0,1-.467-.858c-.2-1.287-1.212-1.66-1.9-2.425a13.583,13.583,0,0,1-1.623-2.219c-.615-1.12.858-2.761,1.922-3.321,1.38-.709,1.66.8,1.922,1.231.167.281,1.007,1.735,1.025,1.232a6.3,6.3,0,0,1,.037-1.026c.075-.3-.018-.54.374-.653a.724.724,0,0,1,.783.559,7.149,7.149,0,0,1,.448,2.537,2.48,2.48,0,0,0,1.175,2.555c.784.522,1.772.877,2.5,1.436l.018-.018c-.336-.56-.634-1.157-.951-1.716-.429-.747-.951-1.436-1.305-2.22-.131-.3-.355-.876.167-1.175.411-.112.765.261.988.578.186.243.3.391.485.672C577.57,632.611,577.682,632.48,577.645,632.275Z" transform="translate(-0.611)" fill="#fff"/><path d="M599.829,634.415a4.781,4.781,0,0,0-6.9-1.119l-2.2,1.641a115.264,115.264,0,0,1-21.153,13.953l-2.369,1.156c-4.925,2.164-4.608,5.969-2.817,8.32a4.674,4.674,0,0,0,6.342,1.175s1.679-1.212,2.2-1.623a122.01,122.01,0,0,1,21.134-13.989l1.94-1.12C601.675,640.328,601.508,636.84,599.829,634.415ZM579.161,652.7s-.951,1.324-2.7-.037a36.855,36.855,0,0,1-3.171-2.873s-1.1-.858.186-2.407c0,0,1.362-1.623,2.668-.224l3.058,3.133A1.729,1.729,0,0,1,579.161,652.7Zm9.793-6.6s-1.53.6-2.238-1.511a39.478,39.478,0,0,1-1.082-4.123s-.447-1.305,1.455-1.921c0,0,2.033-.615,2.351,1.268a34.711,34.711,0,0,1,.839,4.29A1.718,1.718,0,0,1,588.954,646.092Z" transform="translate(0 -0.573)" fill="#fff"/></g></svg>