<svg xmlns="http://www.w3.org/2000/svg" width="159.613" height="71.216" viewBox="0 0 159.613 71.216"><g transform="translate(0 4.693) rotate(-9)"><path d="M8.746.949Q9.007,0,11,0l2.052.169Q7.5,19.9,5.73,27.368A57.168,57.168,0,0,0,4.043,40.43q-.007,3.622,1.491,3.623a31.058,31.058,0,0,0,4.939-1.521,28.867,28.867,0,0,1,9.693-1.509A22.866,22.866,0,0,1,30,43.673a123.249,123.249,0,0,0-14.663,1.534A44.141,44.141,0,0,0,9.079,47a13.371,13.371,0,0,1-4.758,1Q.51,47.992,0,42.1A71.474,71.474,0,0,1,1.56,27.13Q3.335,18.972,8.746.949" transform="translate(0 0)" fill="indigo"/><path d="M10.325,8.858q4.721-2.645,4.792-5.22,0-1.544-1.667-1.548a8.729,8.729,0,0,0-6.31,3q-2.937,3-2.948,8.28a6.028,6.028,0,0,0,2.135,4.767,8.055,8.055,0,0,0,5.481,1.876,17.822,17.822,0,0,0,8.684-2.718,5.7,5.7,0,0,1,1.311-.866c.132,0,.2.119.2.354a5.862,5.862,0,0,1-1.117,1.736,12.624,12.624,0,0,1-3.854,2.969A14.149,14.149,0,0,1,10.067,23a10.6,10.6,0,0,1-6.84-2.3Q.383,18.412,0,13.68.013,7.246,4.015,3.617A14.5,14.5,0,0,1,14.174,0a5.764,5.764,0,0,1,3.355.924A3.055,3.055,0,0,1,18.85,3.613,7.977,7.977,0,0,1,15.6,8.821a21.233,21.233,0,0,1-7.31,3.622,20.033,20.033,0,0,1-3.473.636c-.306,0-.458-.075-.458-.225a.855.855,0,0,1,.231-.451,45,45,0,0,1,5.737-3.544" transform="translate(30 24)" fill="indigo"/><path d="M8.312,24h-.02a8.981,8.981,0,0,1-6.162-2.372A7.786,7.786,0,0,1,0,15.918,35.5,35.5,0,0,1,1.853,5.972a9.676,9.676,0,0,1,2.6-4.479A6.022,6.022,0,0,1,8.584,0H8.6a11.849,11.849,0,0,1,5.183,1.255A8.852,8.852,0,0,1,17.257,4.6,17.429,17.429,0,0,1,20,12.836c-.005,2.332-1.168,4.736-3.455,7.147A10.359,10.359,0,0,1,8.312,24Zm.7-20.324c-1.44,0-2.626,1.392-3.524,4.138a23.473,23.473,0,0,0-1.361,6.941,6.837,6.837,0,0,0,1.064,4.262,3.39,3.39,0,0,0,2.756,1.339h.01c1.612,0,3.352-.883,5.171-2.624a7.632,7.632,0,0,0,2.754-5.424,8.42,8.42,0,0,0-2.569-5.941C11.6,4.584,10.156,3.678,9.014,3.676Z" transform="translate(55 23)" fill="indigo"/><path d="M.505,21.766q-.516-.854-.5-6.241.012-6.3.275-8.784T.8,2.131Q1.063,0,2.97,0a2.052,2.052,0,0,1,2.1,1.581q-.56,5.35-.776,8.6t-.22,5.155q.452,0,2.076-4.1,3.112-5.511,6.6-5.5a5.063,5.063,0,0,1,4.52,2.242Q18.75,10.211,19,15.236a45.082,45.082,0,0,1-.367,5.713q-.361,2.789-1.3,3.051-1.294,0-1.451-1.514,0-1.213-.043-3.217t-.361-5.632q-.316-3.628-2.836-3.962-2.1,0-4.859,6.476T1.828,22.623a1.521,1.521,0,0,1-1.323-.856" transform="translate(79 23)" fill="indigo"/><path d="M15.155,7.328q-.426-3.847-2.594-3.851Q9.927,3.471,7.268,7.345A12.862,12.862,0,0,0,4.6,14.4q.023,4.784,2.658,4.922,1.768,0,4.975-3.234t5.709-3.233q2.734.138,4.4,3.269A11.588,11.588,0,0,1,24,20.59a1.457,1.457,0,0,1-.1.5.413.413,0,0,1-.434.266q-.633,0-2.263-2.278T17.838,16.8q-.934,0-4.359,3.6A10.158,10.158,0,0,1,6.018,24a4.979,4.979,0,0,1-4.363-2.735A12.153,12.153,0,0,1,0,14.79q.142-4.446,3.721-9.625A11.522,11.522,0,0,1,13.8,0a4.537,4.537,0,0,1,3.881,1.9,8.643,8.643,0,0,1,1.374,5.2q-.007,3.679-.86,4.447a3.078,3.078,0,0,1-2.151.764q-.8,0-.891-4.985" transform="translate(103 24)" fill="indigo"/><path d="M15.155,7.327q-.426-3.846-2.594-3.851Q9.927,3.469,7.268,7.345A12.855,12.855,0,0,0,4.6,14.4q.022,4.784,2.658,4.923,1.768,0,4.976-3.235t5.708-3.233q2.734.14,4.4,3.269A11.591,11.591,0,0,1,24,20.59a1.45,1.45,0,0,1-.1.5.413.413,0,0,1-.434.267q-.634,0-2.263-2.279T17.838,16.8q-.934,0-4.359,3.6A10.158,10.158,0,0,1,6.018,24a4.983,4.983,0,0,1-4.363-2.736A12.158,12.158,0,0,1,0,14.789q.142-4.448,3.721-9.626A11.519,11.519,0,0,1,13.8,0a4.535,4.535,0,0,1,3.881,1.9,8.647,8.647,0,0,1,1.374,5.2q-.008,3.68-.86,4.448a3.084,3.084,0,0,1-2.152.764q-.8,0-.891-4.986" transform="translate(130 24)" fill="indigo"/><text transform="translate(82.389 70.7)" fill="indigo" font-size="14" font-family="OpenSans-Light, Open Sans" font-weight="300" letter-spacing="0.114em"><tspan x="-35.381" y="0">APPROVE</tspan><tspan y="0" letter-spacing="0.014em">D</tspan></text></g></svg>