<svg xmlns="http://www.w3.org/2000/svg" width="37.655" height="37.535" viewBox="0 0 37.655 37.535"><path d="M0,.039.018,0C.012.013.006.025,0,.039" transform="translate(18.818 5.992)" fill="indigo"/><path d="M0,.167A.5.5,0,0,1,.033,0,.486.486,0,0,0,0,.167" transform="translate(18.811 6.03)" fill="indigo"/><path d="M0,0V3.513A4.85,4.85,0,0,0,2.859,7.929a4.746,4.746,0,0,0,.978.323,4.793,4.793,0,0,0,1.01.108A4.852,4.852,0,0,0,9.079,5.87a.489.489,0,0,1,.855,0,4.844,4.844,0,0,0,8.467,0,.509.509,0,0,1,.854,0,4.844,4.844,0,0,0,8.467,0,.489.489,0,0,1,.854,0,4.857,4.857,0,0,0,4.233,2.49A4.812,4.812,0,0,0,34.8,7.929a4.851,4.851,0,0,0,2.859-4.417V0H0Z" transform="translate(0 6.691)" fill="indigo"/><path d="M24.311,0a5.831,5.831,0,0,1-4.66,2.334A5.834,5.834,0,0,1,14.99,0a5.83,5.83,0,0,1-4.66,2.334A5.834,5.834,0,0,1,5.669,0,5.829,5.829,0,0,1,1.01,2.334,5.819,5.819,0,0,1,0,2.24v21.6H4.429V10.2A2.376,2.376,0,0,1,6.8,7.829h6.591A2.376,2.376,0,0,1,15.766,10.2V23.839H29.98V2.241a5.861,5.861,0,0,1-1.009.093A5.832,5.832,0,0,1,24.311,0" transform="translate(3.837 13.697)" fill="indigo"/><path d="M34.149,1.572A4.39,4.39,0,0,0,31.027,0H6.329A4.387,4.387,0,0,0,3.208,1.572L0,5.906H37.356Z" transform="translate(0.135 0)" fill="indigo"/></svg>