<svg xmlns="http://www.w3.org/2000/svg" width="55" height="55" viewBox="0 0 55 55"><path d="M27.5,0A27.5,27.5,0,1,1,0,27.5,27.5,27.5,0,0,1,27.5,0Z" fill="indigo"/><g transform="translate(-366.5 -84.5)"><path d="M393.911,93.6A7.076,7.076,0,0,0,389.246,106h-2.424a2.364,2.364,0,0,0-2.363,2.363v1.182a2.363,2.363,0,0,0,2.363,2.363h2.344c-.191,7.63-4,10.8-6.6,12.119a2.956,2.956,0,0,0-1.65,2.65v1.182a2.363,2.363,0,0,0,2.363,2.363h21.268a2.363,2.363,0,0,0,2.363-2.363v-1.182a2.956,2.956,0,0,0-1.65-2.65c-2.6-1.318-6.41-4.489-6.6-12.119H401a2.363,2.363,0,0,0,2.363-2.363v-1.182A2.364,2.364,0,0,0,401,106h-2.424A7.075,7.075,0,0,0,393.911,93.6Z" fill="#fff"/></g></svg>