<svg xmlns="http://www.w3.org/2000/svg" width="55" height="55" viewBox="0 0 55 55"><g transform="translate(-499 -833)"><g transform="translate(499 833)"><circle cx="27.5" cy="27.5" r="27.5" fill="indigo"/></g><g transform="translate(-160.5 -570.5)"><path d="M690.465,1434.439a8.623,8.623,0,0,0,3.274-7.086,7.4,7.4,0,0,0-.068-.966,5.793,5.793,0,0,0-.532-1.8,11.225,11.225,0,0,1-11.356,0,5.777,5.777,0,0,0-.532,1.8,7.352,7.352,0,0,0-.068.963,8.623,8.623,0,0,0,3.274,7.086,12.407,12.407,0,0,0-5.463,3.6,8.551,8.551,0,0,0-2.247,5.564c0,5.339,5.357,5.9,10.714,5.9s10.714-.559,10.714-5.9a8.543,8.543,0,0,0-2.243-5.558A12.4,12.4,0,0,0,690.465,1434.439Z" fill="#fff"/><path d="M682.115,1424.007a10.54,10.54,0,0,0,10.691,0,4.238,4.238,0,0,0,.962-.89V1420.5h0l-3.656,1.41-1.392.537c-.071.027-.143.046-.215.066s-.136.039-.205.054a3.9,3.9,0,0,1-.567.08c-.1.006-.19.008-.272.008s-.174,0-.272-.008-.2-.016-.3-.03-.181-.03-.266-.05h0c-.065-.014-.13-.033-.2-.052a2.286,2.286,0,0,1-.222-.069l-1.392-.536-1.132-.437-2.524-.973h0v2.616A4.244,4.244,0,0,0,682.115,1424.007Z" fill="#fff"/><path d="M698.953,1417.344a.881.881,0,0,0-.292-.17l-10.258-3.955a3.036,3.036,0,0,0-1.885,0l-10.257,3.955a.881.881,0,0,0-.292.17.271.271,0,0,0-.1.194c0,.131.129.263.389.363l4.228,1.63,5.354,2.065.675.26a2.166,2.166,0,0,0,.441.113,3.425,3.425,0,0,0,1,0,2.157,2.157,0,0,0,.44-.113l.675-.26,5.355-2.065,1.278-.493v2.386a1.239,1.239,0,0,0-.66,1.19c-.019.66.009,1.191-.046,1.636a2.039,2.039,0,0,1-.161.607,1.532,1.532,0,0,1-.38.506s.019.021.046.045c.008.007.025.017.035.025a.745.745,0,0,0,.11.072c.022.013.055.023.082.035a1.065,1.065,0,0,0,.163.056,1.291,1.291,0,0,0,.133.017.879.879,0,0,0,.132.018,1.249,1.249,0,0,0,.169-.011l.377-1.247a5.478,5.478,0,0,1,.183,1.258h.057c.042,0,.109,0,.184-.006l.04,0c.083-.006.179-.017.275-.033l.058-.01a1.416,1.416,0,0,0,.278-.079c.014-.006.026-.013.039-.02a.484.484,0,0,0,.205-.154h0s.061-.289.115-.713c.033-.254.063-.557.077-.875.009-.211.01-.43,0-.645a4.632,4.632,0,0,0-.069-.626,2.426,2.426,0,0,0-.166-.546,1.223,1.223,0,0,0-.287-.408v-2.857l1.961-.756c.259-.1.389-.232.389-.363A.271.271,0,0,0,698.953,1417.344Z" fill="#fff"/></g></g></svg>