<svg xmlns="http://www.w3.org/2000/svg" width="55" height="55" viewBox="0 0 55 55"><path d="M27.5,0A27.5,27.5,0,1,1,0,27.5,27.5,27.5,0,0,1,27.5,0Z" fill="indigo"/><g transform="translate(-551.5 -671.278)"><g transform="translate(563.187 687.753)"><path d="M576.565,703.713a11.635,11.635,0,0,0,2.348.684h.065a4.96,4.96,0,0,0,1.24-.456,8.987,8.987,0,0,1,3.88-1.044,8.367,8.367,0,0,1,3.913,1.076,3.224,3.224,0,0,0,1.174.456h.163a11.046,11.046,0,0,0,2.022-.555l-1.3-2.609a4.844,4.844,0,0,1-2.479-1.858l-.2-.294a4.963,4.963,0,0,1-.685-2.674c-.326-.392-2.348-3.261-2.348-3.261s4.664-2.446,5.381-2.8a1.377,1.377,0,0,0,.554-1.957,1.624,1.624,0,0,0-2.152-.457c-.782.424-6.946,3.457-7.6,3.914a1.139,1.139,0,0,0-.163,1.6h0a.488.488,0,0,1,.065.1.032.032,0,0,0,.033.033c.293.424,2.576,3.913,2.772,4.142l-6.815,5.935C576.5,703.681,576.533,703.713,576.565,703.713Z" transform="translate(-568.693 -687.753)" fill="#fff"/><circle cx="3.718" cy="3.718" r="3.718" transform="translate(19.188 5.133)" fill="#fff"/><path d="M594.018,718.773a1.625,1.625,0,0,0-.815-.978,9.357,9.357,0,0,0-4.3-1.336,7.532,7.532,0,0,0-2.543.521,16.916,16.916,0,0,1-2.25.587,1.58,1.58,0,0,1-.391.033,4.273,4.273,0,0,1-1.794-.587,7.157,7.157,0,0,0-3.294-.946,7.8,7.8,0,0,0-3.294.913,4.712,4.712,0,0,1-1.826.587,1.107,1.107,0,0,1-.326-.033,15.224,15.224,0,0,1-2.576-.75,5.789,5.789,0,0,0-2.185-.522c-1.076,0-2.218.391-4.337,1.5a1.623,1.623,0,0,0-.815.978,1.717,1.717,0,0,0,.1,1.272,1.68,1.68,0,0,0,1.5.913,1.516,1.516,0,0,0,.75-.2,7.787,7.787,0,0,1,2.8-1.109,2.888,2.888,0,0,1,1.011.294,17.436,17.436,0,0,0,3.131.913,4.957,4.957,0,0,0,.978.1,7.839,7.839,0,0,0,3.261-.913,4.787,4.787,0,0,1,1.858-.62,4.258,4.258,0,0,1,1.826.587,7.009,7.009,0,0,0,3.261.946,4.957,4.957,0,0,0,.978-.1,16.428,16.428,0,0,0,2.707-.718,5.446,5.446,0,0,1,1.5-.358,6.636,6.636,0,0,1,2.772.978,1.551,1.551,0,0,0,.782.2,1.719,1.719,0,0,0,1.5-.913A1.991,1.991,0,0,0,594.018,718.773Z" transform="translate(-563.187 -699.52)" fill="#fff"/></g></g></svg>