<svg xmlns="http://www.w3.org/2000/svg" width="55" height="55" viewBox="0 0 55 55"><path d="M27.5,0A27.5,27.5,0,1,1,0,27.5,27.5,27.5,0,0,1,27.5,0Z" fill="indigo"/><g transform="translate(-575.5 -340.491)"><path d="M587.564,374.261a1.036,1.036,0,0,0-.237-.6.83.83,0,0,1-.681.351.835.835,0,0,1-.744-1.212c.036-.072.07-.145.1-.217l-.6-.474.516-3.635a3.756,3.756,0,0,1,.682,2.212,4.812,4.812,0,0,1-.555,2.189.668.668,0,0,0,1.191.6,6.152,6.152,0,0,0,.7-2.793,5.185,5.185,0,0,0-.731-2.692,3.449,3.449,0,0,0-.686-.826,1.947,1.947,0,0,0-.4-.268,1.19,1.19,0,0,0-.518-.128.664.664,0,0,0-.408.14h-.011a2.042,2.042,0,0,1-3.375,0H581.8a.664.664,0,0,0-.407-.139,1.184,1.184,0,0,0-.518.128,2.276,2.276,0,0,0-.675.534,4.946,4.946,0,0,0-1.145,3.253,6.135,6.135,0,0,0,.7,2.793.668.668,0,1,0,1.191-.6,4.8,4.8,0,0,1-.555-2.188,3.858,3.858,0,0,1,.535-1.995c.049-.079.1-.152.148-.217l.516,3.635-.6.474c.033.072.067.144.1.216a.834.834,0,0,1-1.424.861,1.036,1.036,0,0,0-.236.6l-.251,4.131a1.044,1.044,0,0,0,.978,1.1l.064,0a1.043,1.043,0,0,0,1.04-.98l.222-3.666,1.721-1.366a.3.3,0,1,1,.581,0h0l1.722,1.366.222,3.667a1.044,1.044,0,0,0,1.041.98l.064,0a1.043,1.043,0,0,0,.979-1.1Z" transform="translate(0 -3.889)" fill="#fff"/><circle cx="1.878" cy="1.878" r="1.878" transform="translate(581.62 359.991)" fill="#fff"/><path d="M609.974,374.261a1.036,1.036,0,0,0-.237-.6.831.831,0,0,1-.681.351.835.835,0,0,1-.744-1.212c.037-.072.07-.145.1-.217l-.6-.474.516-3.635a3.759,3.759,0,0,1,.682,2.212,4.811,4.811,0,0,1-.555,2.189.668.668,0,0,0,1.191.6,6.145,6.145,0,0,0,.7-2.793,5.185,5.185,0,0,0-.731-2.692,3.449,3.449,0,0,0-.686-.826,1.94,1.94,0,0,0-.4-.268,1.186,1.186,0,0,0-.518-.128.663.663,0,0,0-.408.14h-.012a2.042,2.042,0,0,1-3.375,0h-.012a.665.665,0,0,0-.407-.139,1.181,1.181,0,0,0-.518.128,2.276,2.276,0,0,0-.675.534,4.946,4.946,0,0,0-1.146,3.253,6.141,6.141,0,0,0,.7,2.793.668.668,0,0,0,.6.365.661.661,0,0,0,.3-.073.667.667,0,0,0,.293-.9,4.8,4.8,0,0,1-.555-2.188,3.854,3.854,0,0,1,.535-1.995,2.51,2.51,0,0,1,.148-.217l.516,3.635-.6.474c.033.072.067.144.1.216a.835.835,0,0,1-1.424.861,1.036,1.036,0,0,0-.236.6l-.251,4.131a1.044,1.044,0,0,0,.978,1.1l.064,0a1.043,1.043,0,0,0,1.04-.98l.222-3.666,1.721-1.366a.3.3,0,1,1,.581,0h0l1.721,1.366.222,3.666a1.044,1.044,0,0,0,1.04.98l.064,0a1.043,1.043,0,0,0,.979-1.1Z" transform="translate(-12.853 -3.889)" fill="#fff"/><circle cx="1.878" cy="1.878" r="1.878" transform="translate(591.176 359.991)" fill="#fff"/><path d="M632.383,374.261a1.036,1.036,0,0,0-.236-.6.831.831,0,0,1-.681.351.835.835,0,0,1-.744-1.212c.037-.072.07-.145.1-.217l-.6-.474.516-3.635a3.757,3.757,0,0,1,.681,2.212,4.8,4.8,0,0,1-.555,2.189.668.668,0,0,0,1.191.6,6.146,6.146,0,0,0,.7-2.793,5.185,5.185,0,0,0-.731-2.692,3.45,3.45,0,0,0-.687-.826,1.934,1.934,0,0,0-.4-.268,1.186,1.186,0,0,0-.518-.128.663.663,0,0,0-.407.14H630a2.042,2.042,0,0,1-3.375,0h-.012a.666.666,0,0,0-.408-.139,1.181,1.181,0,0,0-.518.128,2.27,2.27,0,0,0-.675.534,4.943,4.943,0,0,0-1.146,3.253,6.135,6.135,0,0,0,.7,2.793.668.668,0,0,0,1.191-.6,4.805,4.805,0,0,1-.555-2.188,3.858,3.858,0,0,1,.535-1.995c.049-.08.1-.152.148-.217l.516,3.635-.6.474c.033.072.066.144.1.216a.834.834,0,0,1-1.424.861,1.036,1.036,0,0,0-.237.6l-.25,4.131a1.043,1.043,0,0,0,.978,1.1l.064,0a1.043,1.043,0,0,0,1.04-.98l.222-3.666,1.722-1.366a.3.3,0,1,1,.581,0h0l1.722,1.366.222,3.666a1.044,1.044,0,0,0,1.041.98l.064,0a1.043,1.043,0,0,0,.978-1.1Z" transform="translate(-25.707 -3.889)" fill="#fff"/><circle cx="1.878" cy="1.878" r="1.878" transform="translate(600.732 359.991)" fill="#fff"/><path d="M653.754,367.168a1.93,1.93,0,0,0-.4-.269,1.19,1.19,0,0,0-.518-.128.666.666,0,0,0-.408.139h-.011a2.042,2.042,0,0,1-3.375,0h-.012a.666.666,0,0,0-.408-.139,1.181,1.181,0,0,0-.518.128,2.273,2.273,0,0,0-.675.534,4.946,4.946,0,0,0-1.145,3.253,6.14,6.14,0,0,0,.7,2.793.668.668,0,0,0,.6.365.661.661,0,0,0,.3-.072.668.668,0,0,0,.293-.9,4.8,4.8,0,0,1-.555-2.188,3.859,3.859,0,0,1,.535-1.995c.049-.08.1-.152.148-.217l.516,3.635-.6.474c.033.072.066.144.1.216a.835.835,0,0,1-1.424.861,1.036,1.036,0,0,0-.237.6l-.25,4.131a1.043,1.043,0,0,0,.978,1.1l.064,0a1.043,1.043,0,0,0,1.04-.98l.222-3.666,1.722-1.366a.3.3,0,1,1,.581,0h0l1.722,1.366.222,3.666a1.043,1.043,0,0,0,1.04.98l.064,0a1.043,1.043,0,0,0,.978-1.1l-.251-4.132a1.036,1.036,0,0,0-.236-.6.831.831,0,0,1-.681.351.845.845,0,0,1-.377-.09.836.836,0,0,1-.366-1.122c.037-.072.07-.145.1-.217l-.6-.474.516-3.635a3.756,3.756,0,0,1,.681,2.212,4.8,4.8,0,0,1-.555,2.189.667.667,0,0,0,.293.9.661.661,0,0,0,.3.072.667.667,0,0,0,.6-.365,6.147,6.147,0,0,0,.7-2.793,5.182,5.182,0,0,0-.731-2.692A3.447,3.447,0,0,0,653.754,367.168Z" transform="translate(-38.561 -3.889)" fill="#fff"/><circle cx="1.878" cy="1.878" r="1.878" transform="translate(610.288 359.991)" fill="#fff"/><path d="M677.2,374.261a1.036,1.036,0,0,0-.237-.6.831.831,0,0,1-.681.351.835.835,0,0,1-.744-1.212c.036-.072.07-.145.1-.217l-.6-.474.516-3.635a3.756,3.756,0,0,1,.682,2.212,4.811,4.811,0,0,1-.555,2.189.668.668,0,0,0,1.191.6,6.145,6.145,0,0,0,.7-2.793,5.182,5.182,0,0,0-.731-2.692,3.449,3.449,0,0,0-.686-.826,1.94,1.94,0,0,0-.4-.268,1.187,1.187,0,0,0-.518-.128.664.664,0,0,0-.408.14h-.011a2.043,2.043,0,0,1-3.375,0h-.012a.664.664,0,0,0-.407-.139,1.182,1.182,0,0,0-.518.128,2.276,2.276,0,0,0-.675.534,4.948,4.948,0,0,0-1.146,3.253,6.141,6.141,0,0,0,.7,2.793.668.668,0,0,0,.6.365.661.661,0,0,0,.3-.073.667.667,0,0,0,.293-.9,4.8,4.8,0,0,1-.555-2.188,3.854,3.854,0,0,1,.535-1.995,2.5,2.5,0,0,1,.148-.217l.516,3.635-.6.474c.033.072.066.144.1.216a.834.834,0,0,1-1.424.861,1.034,1.034,0,0,0-.237.6l-.251,4.131a1.044,1.044,0,0,0,.978,1.1l.064,0a1.043,1.043,0,0,0,1.04-.98l.222-3.666,1.722-1.366a.3.3,0,1,1,.581,0h0l1.721,1.366.222,3.666a1.044,1.044,0,0,0,1.041.98l.064,0a1.043,1.043,0,0,0,.979-1.1Z" transform="translate(-51.414 -3.889)" fill="#fff"/><circle cx="1.878" cy="1.878" r="1.878" transform="translate(619.844 359.991)" fill="#fff"/></g></svg>