<svg xmlns="http://www.w3.org/2000/svg" width="55" height="55" viewBox="0 0 55 55"><g transform="translate(-499 -833)"><g transform="translate(499 833)"><circle cx="27.5" cy="27.5" r="27.5" fill="indigo"/></g><g transform="translate(-169.5 224.169)"><path d="M702.224,1494.42h-12a.945.945,0,0,0-1,1v18a.945.945,0,0,0,1,1h12a.945.945,0,0,0,1-1v-18A.945.945,0,0,0,702.224,1494.42Zm-5,15.6a.43.43,0,0,1-.4.4h-1.6v1.6a.43.43,0,0,1-.4.4h-1.2a.43.43,0,0,1-.4-.4v-1.6h-1.6a.43.43,0,0,1-.4-.4v-1.2a.43.43,0,0,1,.4-.4h1.6v-1.6a.43.43,0,0,1,.4-.4h1.2a.43.43,0,0,1,.4.4v1.6h1.6a.43.43,0,0,1,.4.4Zm3,2.4a1,1,0,1,1,1-1A.945.945,0,0,1,700.224,1512.42Zm0-4a1,1,0,1,1,1-1A.945.945,0,0,1,700.224,1508.42Zm1-4h-10v-8h10Z" transform="translate(0 -862.669)" fill="#fff"/><g transform="translate(0 -862.669)"><path d="M686.91,1501.684h-1.891v13.036h1.891a.705.705,0,0,0,.684-.684v-11.668A.7.7,0,0,0,686.91,1501.684Z" fill="#fff"/><path d="M712.54,1501.684h-.8v-3.219a14.459,14.459,0,0,0-14.444-14.445h-2.213a14.459,14.459,0,0,0-14.445,14.445v3.219h-.8a2.739,2.739,0,0,0-2.736,2.736v7.524a2.739,2.739,0,0,0,2.736,2.736h4.225v-16.256a11.084,11.084,0,0,1,11.065-11.064h2.213a11.084,11.084,0,0,1,11.065,11.064v16.256h4.225a2.739,2.739,0,0,0,2.736-2.736v-7.524A2.893,2.893,0,0,0,712.54,1501.684Z" fill="#fff"/><path d="M704.734,1502.368v11.668a.705.705,0,0,0,.684.684h1.891v-13.036h-1.891A.7.7,0,0,0,704.734,1502.368Z" fill="#fff"/></g></g></g></svg>