<svg xmlns="http://www.w3.org/2000/svg" width="55" height="55" viewBox="0 0 55 55"><path d="M27.5,0A27.5,27.5,0,1,1,0,27.5,27.5,27.5,0,0,1,27.5,0Z" fill="indigo"/><g transform="translate(-459.5 -523.062)"><path d="M507.489,546.221c-3.4,1.965-7.183,1.31-9.532.682s-5.95-1.954-7.913-5.356-9.679,22.035,2.566,25.316S510.893,544.257,507.489,546.221ZM492.008,549.2c2.64-.012,2.084,2.956,2.084,2.956-2,.3-4.919-1.318-4.919-1.318S489.368,549.216,492.008,549.2Zm1.68,13.633c-4.718-1.174-3.991-6.912-3.52-5.885s2.7,2.25,4.373,2.7,4.217.5,5.138-.15S498.362,564.18,493.689,562.837Zm9.91-8.131s-3.341-.056-4.921-1.318c0,0,1-2.847,3.282-1.517S503.6,554.707,503.6,554.707Z" transform="translate(-2.261 -0.865)" fill="#fff"/><path d="M482.589,552.755c-.484.083-.959.184-1.38.3-1.677.449-3.958,1.465-4.51,2.191s-.751-3.034,3.962-4.239a7.575,7.575,0,0,1,2.081-.3c.034-.33.062-.658.107-1a37.837,37.837,0,0,1,.85-4.3c-2.15.269-2.358-2.4-2.358-2.4a6.9,6.9,0,0,1,3.206-.307c.726-1.882,1.666-3.347,2.808-3.347a1.516,1.516,0,0,1,1.308.819c.1.167.21.323.318.483-.988-4.472-2.646-7.585-3.419-6.249-1.965,3.4-5.564,4.727-7.914,5.357s-6.127,1.281-9.53-.682,2.635,23.923,14.879,20.642c.1-.029.2-.062.3-.093A21.949,21.949,0,0,1,482.589,552.755Zm-7.764-4.939c-2.552.672-3.161-.847-3.161-.847s2.4-2.322,4.41-2.547C476.074,544.421,477.378,547.143,474.825,547.815Z" transform="translate(0 0)" fill="#fff"/></g></svg>