<svg xmlns="http://www.w3.org/2000/svg" width="36.732" height="34.085" viewBox="0 0 36.732 34.085"><path d="M449.323,1323.065a55.164,55.164,0,0,1-9.251.081c-.551-.035-.514.729-.339,1.212a27.543,27.543,0,0,0,2.142,4.114c1.966,4.056.328,6.9-1.242,7.607-1.554.7-2.6-.372-3.227-1.869-.77-1.826-1.214-4.151-3.643-5.986-1.411-1.065-3.019-1.628-5.125-3.509-1.121-1-1.744-2.941-2.782-3.681a.507.507,0,0,1-.207-.419V1304.4a.534.534,0,0,1,.521-.535,33.894,33.894,0,0,0,4.784-.391c7.641-1.664,10.835-1.554,15.25-.386,4.1,1.086,6.082,11.143,6.266,16.3A3.57,3.57,0,0,1,449.323,1323.065Zm-25.715-19.011a1.067,1.067,0,0,0-1.067-1.067h-5.733a1.067,1.067,0,0,0-1.067,1.067v17.69h0a1.067,1.067,0,0,0,1.067,1.067h5.733a1.067,1.067,0,0,0,1.067-1.067v-17.69Z" transform="translate(-415.741 -1302.212)" fill="#fff"/></svg>