<svg xmlns="http://www.w3.org/2000/svg" width="26.421" height="24.518" viewBox="0 0 26.421 24.518"><g transform="translate(0 24.518)"><path d="M17.54,24.518a31.2,31.2,0,0,1-6.6-.9A24.547,24.547,0,0,0,7.5,23.332a.386.386,0,0,1-.375-.384V11.28a.368.368,0,0,1,.149-.3,4.389,4.389,0,0,0,1.009-1.3,5.864,5.864,0,0,1,.992-1.343,14.2,14.2,0,0,1,2.47-1.744,12.674,12.674,0,0,0,1.217-.781,6.906,6.906,0,0,0,2.318-3.521c.1-.275.2-.535.3-.785.288-.685.809-1.5,1.651-1.5a1.644,1.644,0,0,1,.67.157,2.692,2.692,0,0,1,1.313,1.556A4.928,4.928,0,0,1,18.8,5.629a9.551,9.551,0,0,1-.49.856,10.32,10.32,0,0,0-1.051,2.1.956.956,0,0,0-.006.763.258.258,0,0,0,.224.11H17.5c.99-.075,2-.113,2.988-.113,1.22,0,2.454.057,3.668.17a2.582,2.582,0,0,1,2.264,2.648,28.986,28.986,0,0,1-1.2,6.961c-.6,1.934-1.67,4.331-3.311,4.765A16.139,16.139,0,0,1,17.54,24.518ZM4.891,23.96H.768A.769.769,0,0,1,0,23.192V10.468A.769.769,0,0,1,.768,9.7H4.891a.769.769,0,0,1,.768.768V23.192A.769.769,0,0,1,4.891,23.96Z" transform="translate(0 -24.518)" fill="indigo"/></g></svg>