<svg xmlns="http://www.w3.org/2000/svg" width="32.444" height="31.482" viewBox="0 0 32.444 31.482"><g transform="translate(-196.452 -669.63)"><path d="M221.138,690.289V699.1h-6.9V684.485h2.7c-1.092-1.911-2.048-3.618-2.424-4.369a8.368,8.368,0,0,1-.888-4.541H200.006a1.187,1.187,0,0,0-1.093.751l-2.39,6.589a1.142,1.142,0,0,0,1.093,1.536h.99v16.08a.576.576,0,0,0,.58.581h23.386a.6.6,0,0,0,.58-.581v-10.1a3.45,3.45,0,0,1-.853.1A2.719,2.719,0,0,1,221.138,690.289Zm-8.91,2.8H200.62v-8.6h11.608Z" fill="#ffffff"/><path d="M228.171,673.219a6.535,6.535,0,0,0-11.676,5.872c.683,1.366,3.448,6.18,4.916,8.706a1.043,1.043,0,0,0,1.81,0c1.434-2.526,4.2-7.34,4.916-8.706A6.174,6.174,0,0,0,228.171,673.219Zm-5.838,5.77a2.833,2.833,0,1,1,2.834-2.834A2.827,2.827,0,0,1,222.333,678.989Z" fill="#ffffff"/></g></svg>