<svg xmlns="http://www.w3.org/2000/svg" width="34.088" height="31.482" viewBox="0 0 34.088 31.482"><g transform="translate(-270.531 -669.309)"><rect width="1.127" height="2.182" transform="translate(283.543 677.397)" fill="#4B0082"/><rect width="1.127" height="2.182" transform="translate(300.262 677.397)" fill="#4B0082"/><path d="M304.362,676.242a1.156,1.156,0,0,0-1.156-1.156h-21.12a1.155,1.155,0,0,0,0,2.311h21.12A1.155,1.155,0,0,0,304.362,676.242Z" fill="#4B0082"/><rect width="11.298" height="4.686" rx="1.573" transform="translate(281.894 669.309)" fill="#4B0082"/><rect width="8.787" height="4.686" rx="2.343" transform="translate(294.626 669.309)" fill="#4B0082"/><path d="M281.88,679.58a2.432,2.432,0,0,0-2,1.042l-4.731,6.79-2.682.707a2.606,2.606,0,0,0-1.94,2.519v5.775h6.538c0,.05-.007.1-.007.151a4.227,4.227,0,1,0,8.454,0c0-.051-.006-.1-.008-.151h8.2a4.227,4.227,0,1,0,8.454,0h2.457L304.3,679.58Zm-.591,19.52a2.536,2.536,0,1,1,2.536-2.536,2.537,2.537,0,0,1-2.536,2.536Zm5.562-12.124h-7.433l2.49-4.586h4.943Zm3.309,0V682.39h8.22l1.645,4.586Zm7.775,11.974a2.536,2.536,0,1,1,2.537-2.537h0A2.541,2.541,0,0,1,297.935,698.95Z" fill="#4B0082"/></g></svg>