<svg xmlns="http://www.w3.org/2000/svg" width="55" height="55" viewBox="0 0 55 55"><path d="M27.5,0A27.5,27.5,0,1,1,0,27.5,27.5,27.5,0,0,1,27.5,0Z" fill="indigo"/><g transform="translate(-369.5 -519.176)"><path d="M403.75,534.517s-2.809,4.266-4.786,3.884-8.011-1.977-8.011-1.977l-6.659-1.734a2.482,2.482,0,0,0-2.7,1.249c-1.006,1.63-.9,2.15.416,2.843,1.353.729,10.925,5.515,11.237,7.006l-5.861,6.971s-4.925-2.637-5.93.8l8.116,8.116c3.468-.971.832-5.9.832-5.9l6.936-5.9c1.526.347,6.277,9.885,7.005,11.238s1.249,1.456,2.878.45a2.557,2.557,0,0,0,1.249-2.7l-1.734-6.659s-1.595-6.035-1.977-8.011,3.85-4.821,3.85-4.821C415.854,532.055,411.1,527.3,403.75,534.517Z" transform="translate(0)" fill="#fff"/></g></svg>