<svg xmlns="http://www.w3.org/2000/svg" width="55" height="55" viewBox="0 0 55 55"><circle cx="27.5" cy="27.5" r="27.5" fill="indigo"/><g transform="translate(15 12)"><path d="M24.125.6a.883.883,0,0,0-1.6-.163c-3.037,5.552-9.667,7.25-8.818,11.953a4.168,4.168,0,0,0,1.633,2.515,19.633,19.633,0,0,1,4.376-5.291L11.453,26.7,2.5,8.243A1.351,1.351,0,0,0,.74,7.622,1.351,1.351,0,0,0,.12,9.386l10.124,20.9a1.333,1.333,0,0,0,1.176.751,1.3,1.3,0,0,0,1.176-.751l6.76-13.913a6.04,6.04,0,0,0,5.128-1.731C26.868,11.835,25.5,4.65,24.125.6" transform="translate(0 0)" fill="#fff"/></g></svg>