<svg xmlns="http://www.w3.org/2000/svg" width="55" height="55" viewBox="0 0 55 55"><path d="M27.5,0A27.5,27.5,0,1,1,0,27.5,27.5,27.5,0,0,1,27.5,0Z" fill="indigo"/><g transform="translate(-455.5 -334.959)"><path d="M497.161,361.433c-1.348-5.142-2.9-8.525-6.48-9.5a5.954,5.954,0,0,0-1.573-.22,7.647,7.647,0,0,0-2.791.64,10.152,10.152,0,0,1-2.837.716l-.9.025a27.282,27.282,0,0,1-3.647-.744,7.61,7.61,0,0,0-2.78-.638,5.893,5.893,0,0,0-1.574.221c-3.582.972-5.135,4.354-6.48,9.5-1.56,5.956-1.128,9.949,1.183,10.955a2.912,2.912,0,0,0,1.177.249c2.056,0,3.946-2.161,5.326-3.74l.376-.435c1.125-1.316,3.483-2.071,6.467-2.071,3.246,0,5.24.639,6.466,2.073l.376.436c1.38,1.578,3.268,3.736,5.325,3.736a2.9,2.9,0,0,0,1.175-.247C498.286,371.382,498.718,367.39,497.161,361.433Zm-19.442.4h-1.543v1.495a1.054,1.054,0,0,1-2.107,0v-1.495H472.62a1.055,1.055,0,0,1,0-2.108h1.449v-1.5a1.054,1.054,0,0,1,2.107,0v1.5h1.543a1.055,1.055,0,0,1,0,2.108Zm10.958,1.834a1.548,1.548,0,1,1,1.547-1.548A1.55,1.55,0,0,1,488.677,363.669Zm2.889-2.889a1.548,1.548,0,1,1,1.549-1.549A1.55,1.55,0,0,1,491.566,360.78Z" fill="#fff"/></g></svg>