<svg xmlns="http://www.w3.org/2000/svg" width="55" height="55" viewBox="0 0 55 55"><path d="M27.5,0A27.5,27.5,0,1,1,0,27.5,27.5,27.5,0,0,1,27.5,0Z" fill="indigo"/><g transform="translate(-946.5 -222.5)"><path d="M978.635,231.689c-2.085.254-2.867,1.335-3.63,4.911l-.6-.1.068-.408-.587-.1-.39,2.368.587.1.062-.375.55.09c-.135.741-.275,1.564-.426,2.478l-.159-.027c0-.356-.16-.649-.407-.689-.287-.048-.578.264-.649.7s.1.821.391.868c.248.041.5-.185.607-.525l.159.027q-.114.7-.239,1.46l-.16-.026c0-.356-.16-.649-.407-.69-.287-.047-.578.265-.649.7s.1.822.392.869c.247.041.5-.185.607-.525l.16.026c-.076.468-.156.954-.239,1.461l-.162-.027c0-.355-.16-.649-.407-.689-.287-.047-.578.265-.649.7s.1.821.392.869c.247.04.5-.186.607-.526l.161.027c-.078.47-.158.957-.243,1.46l-.158-.026c0-.356-.161-.649-.407-.69-.288-.047-.578.266-.65.7s.105.821.392.868c.248.041.5-.185.607-.525l.158.026c-.074.434-.149.881-.228,1.34l-.021,0c0-.3-.137-.554-.348-.589-.245-.04-.493.226-.554.6s.089.7.334.741c.211.035.424-.158.518-.448l.019,0q-.094.552-.2,1.128a.645.645,0,0,0-.464-.56c-.345-.056-.693.318-.778.836s.125.985.469,1.042a.633.633,0,0,0,.6-.354q-.1.557-.2,1.136a.613.613,0,0,0-.446-.487c-.344-.057-.693.318-.779.836s.126.985.47,1.041a.592.592,0,0,0,.552-.281c-.059.322-.12.648-.181.98a.578.578,0,0,0-.419-.4c-.345-.057-.693.317-.778.836s.124.985.469,1.041a.55.55,0,0,0,.488-.2c-.184.976-.349,1.846-.5,2.617l-2.005-.291a27.612,27.612,0,0,0,.424-6.443c-.086-.77-.441-2.477.139-3.33l.958-.511-.122-.3-9.734,5.2.123.3,1.359-.727c2.829.77-1.6,15.151,4.359,16.34,4.914.981,6.681.132,7.82-6.809,1.187-7.23,2.67-20.663,3.811-26.149l.293-.014,0-.364.58-.027,0,.364.415-.02-.005-.363.662-.031,0,.364.414-.02-.005-.363.58-.027.005.363.414-.019-.005-.364.35-.016,0-.258,1.474-.123.668-.933,1.491-.308.3-.58-1.3.045c.383-.262-.985-.3-2.3-.282l.016-.267-.414-.01-.016.283-.581.013.018-.312-.413-.01-.019.332c-.323.009-.566.016-.663.013l.021-.363-.414-.011-.021.364-.579-.016.021-.363-.413-.011-.021.364-.4-.011Zm-7.392,26.08c-.771,3.81-1.245,4.976-2.394,4.589-.4-.134.009-2.276.412-4.876Zm3.629-20.52c-.019.09-.036.183-.054.277l-.566-.093.046-.279Z" fill="#fff"/></g></svg>