<svg xmlns="http://www.w3.org/2000/svg" width="55" height="55" viewBox="0 0 55 55"><path d="M27.5,0A27.5,27.5,0,1,1,0,27.5,27.5,27.5,0,0,1,27.5,0Z" fill="indigo"/><g transform="translate(-641.5 -678.5)"><path d="M676.3,720.448c-.095-.381-2.923-.017-6.62.816-.016-.394-.044-.795-.081-1.2l7.967-6.015q-.543-2.023-1.136-3.848l-7.859,3.839-.6.292-.375.183c.379,1.115.719,2.112,1,2.945a31.69,31.69,0,0,1,.434,3.94h.038q-.33.076-.667.159l-.462-3.177a.815.815,0,0,0-.373-.571l-1.778-1.112c-.019-.035-.039-.07-.062-.108a7.576,7.576,0,0,1-.933-2.083c-.08.006-.156.009-.224.009h-.007a3.3,3.3,0,0,1-1.46-.345l-.009,0h0l0,0a.65.65,0,0,1-.255-.882.637.637,0,0,1,.123-.158.644.644,0,0,1,.755-.1l.044.021c.038.016.1.042.18.068a2.064,2.064,0,0,0,.475.1l.028,0a4.31,4.31,0,0,0,.426-.156,3.459,3.459,0,0,0,1.114-.745,2.844,2.844,0,0,0,.579-.853l.053.157a.648.648,0,0,1,.98.347.642.642,0,0,1-.045.495,5.161,5.161,0,0,1-.421.675q.186.552.364,1.073l.4-.2.6-.291,7.837-3.828a55.773,55.773,0,0,0-4.794-10.885l-7.848,3.832c.828,2.519,1.683,5.08,2.474,7.431a.519.519,0,0,0-.425.4,1.862,1.862,0,0,1-.494.918,2.706,2.706,0,0,1-1.188.661,3.529,3.529,0,0,1-.484.1c-.052.008-.094.013-.124.016a.7.7,0,0,0-.213.017,1.488,1.488,0,0,0-.979,1.768,7.175,7.175,0,0,0,1.342,3.367,1.223,1.223,0,0,0,1.31.541l1.486.93.432,2.969c-4.03,1.053-7.07,2.163-6.969,2.569.109.441,3.879-.116,8.42-1.243S676.406,720.888,676.3,720.448Z" fill="#fff"/><path d="M659.381,688.075c-.207.086.344,2.193,1.281,5.288l4.376-2.36C662.038,688.468,659.733,687.926,659.381,688.075Z" fill="#fff"/><path d="M665.3,691.229l-4.545,2.451c.767,2.518,1.77,5.641,2.823,8.849l7.785-3.8A30.892,30.892,0,0,0,665.3,691.229Z" fill="#fff"/><circle cx="1.461" cy="1.461" r="1.461" transform="matrix(0.968, -0.25, 0.25, 0.968, 660.864, 709.686)" fill="#fff"/><path d="M667.074,712.985a4.987,4.987,0,0,0,.358-.585.519.519,0,0,0-.776-.653.512.512,0,0,0-.143.169,2.881,2.881,0,0,1-1.012,1.173,1.771,1.771,0,0,1-.936.262c-.036,0-.071,0-.106,0a2.194,2.194,0,0,1-.334-.046,2.139,2.139,0,0,1-.229-.061c-.083-.028-.15-.055-.192-.074l-.045-.021-.008,0h0a.52.52,0,0,0-.5.912,3.145,3.145,0,0,0,1.412.336h.007c.06,0,.122,0,.185-.006a2.809,2.809,0,0,0,1.285-.407A3.53,3.53,0,0,0,667.074,712.985Z" fill="#fff"/><path d="M676.675,719.747c2.56.85-3.247,2.9-3.247,2.9C679.447,722.172,679.188,719.021,676.675,719.747Z" fill="#fff"/></g></svg>