<svg xmlns="http://www.w3.org/2000/svg" width="34.959" height="34.96" viewBox="0 0 34.959 34.96"><g transform="translate(-267.192 -404.624)"><ellipse cx="2.461" cy="2.799" rx="2.461" ry="2.799" transform="translate(294.408 427.154)" fill="indigo"/><path d="M296.869,433.325a5.056,5.056,0,0,0-5.282,4.794c0,1.953,10.564,1.953,10.564,0A5.056,5.056,0,0,0,296.869,433.325Z" fill="indigo"/><ellipse cx="2.461" cy="2.799" rx="2.461" ry="2.799" transform="translate(282.21 427.154)" fill="indigo"/><path d="M279.389,438.119c0,1.953,10.564,1.953,10.565,0a5.307,5.307,0,0,0-10.565,0Z" fill="indigo"/><ellipse cx="2.461" cy="2.799" rx="2.461" ry="2.799" transform="translate(270.013 427.154)" fill="indigo"/><path d="M267.192,438.119c0,1.953,10.564,1.953,10.564,0a5.307,5.307,0,0,0-10.564,0Z" fill="indigo"/><path d="M301.763,404.624H281.981a.389.389,0,0,0-.388.389v12.706c.5.025,1.044.067,1.554.135V406.178H300.6v16.315h-17.45V421.2c.228-.033.437-.065.61-.1a.75.75,0,0,0,.634-.688l5.186-3.718a.583.583,0,0,0-.681-.946l-5.252,3.765a19.346,19.346,0,0,0-3.58-.28,13.385,13.385,0,0,0-2.145-4.616,6.493,6.493,0,0,0-3.342-1.33,8.952,8.952,0,0,0-2.447,0,6.5,6.5,0,0,0-3.342,1.33c-1.56,1.6-1.625,6.262-1.59,9.425h1.913c.31-2.109.593-2.911.808-5.15l.276,2.613q.015.281.009.561l-.047,1.976h6.393l-.047-1.976q-.006-.281.009-.561l.276-2.613a7.819,7.819,0,0,0,2.533,2.451,7.177,7.177,0,0,0,2.272.031v2.28a.388.388,0,0,0,.388.388h19.782a.388.388,0,0,0,.388-.388V405.013A.389.389,0,0,0,301.763,404.624Z" fill="indigo"/><ellipse cx="2.572" cy="2.803" rx="2.572" ry="2.803" transform="translate(270.781 406.436)" fill="indigo"/></g></svg>