<svg xmlns="http://www.w3.org/2000/svg" width="16" height="12.903" viewBox="0 0 16 12.903"><path d="M15.5,12.9H.5a.5.5,0,0,1-.5-.5V6.71A2.856,2.856,0,0,0,2.319,7.9H6.5v.751a1,1,0,0,0,1,1h1a1,1,0,0,0,1-1V7.9h4.181A2.86,2.86,0,0,0,16,6.71V12.4A.5.5,0,0,1,15.5,12.9ZM8.774,9.291H7.742a.517.517,0,0,1-.516-.517V6.71a.516.516,0,0,1,.516-.516H8.774a.517.517,0,0,1,.517.516V8.774A.517.517,0,0,1,8.774,9.291ZM6.5,7.226H2.293A2.266,2.266,0,0,1,0,5.058V2.89a.492.492,0,0,1,.5-.482h5V.482A.492.492,0,0,1,6,0h4a.492.492,0,0,1,.5.482V2.408h5a.492.492,0,0,1,.5.482V5.058a2.268,2.268,0,0,1-2.293,2.168H9.5V6.5a.984.984,0,0,0-1-.964h-1a.984.984,0,0,0-1,.964v.722Zm.21-6.194h0V2.58h3.1V1.032h-3.1Z" fill="#ffb029"/></svg>