<?xml version="1.0" encoding="utf-8"?>
<!-- Generator: Adobe Illustrator 24.2.0, SVG Export Plug-In . SVG Version: 6.00 Build 0)  -->
<svg version="1.1" id="Calque_1" xmlns="http://www.w3.org/2000/svg" xmlns:xlink="http://www.w3.org/1999/xlink" x="0px" y="0px"
	 viewBox="0 0 36.6 36.6" style="enable-background:new 0 0 36.6 36.6;" xml:space="preserve">
<style type="text/css">
	.st0{fill:#4B0082;}
</style>
<g>
	<path class="st0" d="M36.6,3c0-1.6-1.4-3-3-3H3.1C1.4,0,0,1.3,0,3v10.7h36.6V3z M6.1,10.6C4.4,10.6,3,9.3,3,7.6
		c0-1.7,1.4-3.1,3.1-3.1c1.7,0,3.1,1.4,3.1,3.1c0,0,0,0,0,0.1C9.1,9.3,7.7,10.6,6.1,10.6z"/>
	<path class="st0" d="M36.6,16.7H0v1.5c0,1.7,1.3,3,3,3c0,0,0,0,0.1,0h30.5c1.6,0,3-1.4,3-3L36.6,16.7z"/>
	<path class="st0" d="M9.2,35.1c0-3.8,3-4.2,3-9.2c-0.2-0.8-1-1.4-1.8-1.2c-0.6,0.1-1.1,0.6-1.2,1.2c0,3.8-3.1,4.2-3.1,9.2
		c0.1,0.8,0.8,1.5,1.6,1.4C8.5,36.4,9.1,35.8,9.2,35.1z"/>
	<path class="st0" d="M18.3,35.1c0-3.8,3-4.2,3-9.2c-0.1-0.8-0.8-1.5-1.6-1.4c-0.7,0.1-1.3,0.7-1.4,1.4c0,3.8-3,4.2-3,9.2
		c0.1,0.8,0.8,1.5,1.6,1.4C17.7,36.4,18.2,35.8,18.3,35.1z"/>
	<path class="st0" d="M27.5,35.1c0-3.8,3-4.2,3-9.2c-0.2-0.8-1-1.4-1.8-1.2c-0.6,0.1-1.1,0.6-1.2,1.2c0,3.8-3.1,4.2-3.1,9.2
		c0,0.8,0.7,1.5,1.5,1.5C26.8,36.6,27.5,35.9,27.5,35.1z"/>
</g>
</svg>
