<?xml version="1.0" encoding="utf-8"?>
<!-- Generator: Adobe Illustrator 24.2.0, SVG Export Plug-In . SVG Version: 6.00 Build 0)  -->
<svg version="1.1" id="Calque_1" xmlns="http://www.w3.org/2000/svg" xmlns:xlink="http://www.w3.org/1999/xlink" x="0px" y="0px"
	 viewBox="0 0 28.1 36.6" style="enable-background:new 0 0 28.1 36.6;" xml:space="preserve">
<style type="text/css">
	.st0{fill:#4B0082;}
</style>
<path class="st0" d="M0,15C-0.5,7.3,5.3,0.6,13,0c0.2,0,0.5,0,0.7,0c0.2,0,0.3,0.1,0.5,0.2c0.1,0.1,0.2,0.3,0.2,0.5v13.1h13
	c0.2,0,0.4,0.1,0.5,0.2c0.1,0.1,0.2,0.3,0.2,0.5c-0.2,5-3,9.5-7.4,11.9l3.8,6.7c1-0.6,2-1.2,2.9-1.9c0.2-0.1,0.4,0,0.6,0.1
	c0.1,0.2,0.1,0.4-0.1,0.5c-8.1,6.3-19.4,6.3-27.5,0c-0.2-0.1-0.3-0.4-0.1-0.6s0.4-0.3,0.6-0.1c0,0,0.1,0,0.1,0.1
	c1,0.8,2.1,1.5,3.2,2.1l3.5-6.9C3.2,24.1,0.4,19.8,0,15z M4.7,33.7c6,2.9,13,2.8,19-0.2l-3.8-6.8C18,27.6,16.1,28,14,28
	c-0.4,0-0.7,0-1,0c-1.7-0.1-3.3-0.5-4.8-1.2L4.7,33.7z"/>
</svg>
