<?xml version="1.0" encoding="utf-8"?>
<!-- Generator: Adobe Illustrator 24.2.0, SVG Export Plug-In . SVG Version: 6.00 Build 0)  -->
<svg version="1.1" id="Calque_1" xmlns="http://www.w3.org/2000/svg" xmlns:xlink="http://www.w3.org/1999/xlink" x="0px" y="0px"
	 viewBox="0 0 35.3 36.7" style="enable-background:new 0 0 35.3 36.7;" xml:space="preserve">
<style type="text/css">
	.st0{fill:#4B0082;}
</style>
<path class="st0" d="M33.7,33.2h-1.5v-9.4h1.5c0.9-0.1,1.6-0.9,1.6-1.8c-0.1-0.8-0.7-1.5-1.6-1.6h-3.4V1.7c0-0.9-0.8-1.7-1.7-1.7
	h-22C5.7,0,5,0.8,5,1.7v18.7H1.6c-0.9,0.1-1.6,0.9-1.6,1.8c0.1,0.8,0.7,1.5,1.6,1.6h1.5v9.5H1.6c-0.9,0.1-1.6,0.9-1.6,1.8
	c0.1,0.8,0.7,1.5,1.6,1.6h32.2c0.9-0.1,1.7-0.9,1.6-1.8C35.3,34,34.6,33.3,33.7,33.2L33.7,33.2z M28.8,33.2h-3.1v-9.4h3.1V33.2z
	 M16,23.8v9.4h-3.1v-9.4H16z M19.3,23.8h3.1v9.4h-3.1L19.3,23.8z M27,20.4h-7.6v-17H27L27,20.4L27,20.4z M8.3,3.4H16v17H8.3V3.4z
	 M6.5,23.8h3.1v9.4H6.5V23.8z"/>
</svg>
