<?xml version="1.0" encoding="utf-8"?>
<!-- Generator: Adobe Illustrator 24.2.0, SVG Export Plug-In . SVG Version: 6.00 Build 0)  -->
<svg version="1.1" id="Calque_1" xmlns="http://www.w3.org/2000/svg" xmlns:xlink="http://www.w3.org/1999/xlink" x="0px" y="0px"
	 viewBox="0 0 26.2 40.7" style="enable-background:new 0 0 26.2 40.7;" xml:space="preserve">
<style type="text/css">
	.st0{fill:#4B0082;}
</style>
<g>
	<path class="st0" d="M23.5,39.9c0.1,0.3-0.2,0.7-0.5,0.8c0,0,0,0,0,0H3.3c-0.4,0-0.7-0.3-0.7-0.6c0,0,0,0,0,0c0,0,0-0.1,0-0.1v-0.1
		l0,0l3.2-18.7c0-0.1,0.1-0.3,0.3-0.3l2.5-0.2c0.2,0,0.3,0.1,0.4,0.3c0,0,0,0,0,0C9,21,9.8,21,9.8,21.1c-1.9,3.6-2.1,9.7-2.2,11.8
		c0,0.4,0.3,0.7,0.6,0.7c0,0,0,0,0,0h1c0.4,0,0.7-0.3,0.7-0.6c0,0,0,0,0,0l0,0c0-2.5-0.1-10.9,1.5-12.5h0.2c0.1,0.3,0.3,0.5,0.6,0.5
		h1.8c0.3,0,0.5-0.2,0.6-0.5h0.2c1.6,1.6,1.5,10,1.5,12.5c0,0.4,0.3,0.7,0.6,0.7c0,0,0,0,0,0h1c0.4,0,0.7-0.3,0.7-0.7l0,0
		c0-2-0.3-8.2-2.2-11.8c-0.1-0.2,0.7-0.4,0.9-0.4c0.1,0,0.1,0,0.2,0l2.5,0.2c0.1,0,0.3,0.1,0.3,0.3L23.5,39.9z"/>
	<path class="st0" d="M26.1,25.9L22.2,3.6c-0.1-0.5-0.4-0.8-0.9-1l-0.6-0.2c-0.1,0-0.2-0.2-0.2-0.3V1.6c0-0.4-0.2-0.8-0.6-1
		l-1.1-0.5c-0.5-0.2-1.1,0-1.4,0.5l-4.2,8l-4.2-8C8.6,0.1,7.9-0.1,7.4,0.1L6.3,0.6c-0.4,0.2-0.6,0.6-0.6,1V2c0,0.1-0.1,0.3-0.2,0.3
		L4.8,2.6C4.3,2.7,4,3.1,3.9,3.6L0,25.9c-0.1,0.4,0.2,0.7,0.5,0.8c0,0,0,0,0,0h3c0.3,0,0.6-0.2,0.6-0.5l0.7-3.7
		C4.9,22,5,21.6,5,21.1l0.8-2.1c0-0.2-0.8-11.9-0.8-11.9c0-0.3-0.6-0.5-0.3-0.6c0.3,0,0.5,0.2,0.5,0.4c0,0,0,0,0,0l0,0l0.7,11.4
		c0,0.3,0.3,0.6,0.6,0.6l4.8,0.1c0.1,0,0.2-0.1,0.3-0.2c0.1-0.2,0.3-0.3,0.5-0.3H14c0.2,0,0.4,0.1,0.5,0.3c0.1,0.1,0.2,0.2,0.3,0.2
		l4.8-0.1c0.3,0,0.6-0.3,0.6-0.6L21,7c0-0.3,0.3-0.5,0.5-0.5c0.3,0-0.3,0.2-0.3,0.5c0,0-0.8,11.7-0.8,11.9l0.8,2.1
		c0,0.4,0,0.9,0.1,1.3l0.6,3.7c0.1,0.3,0.3,0.5,0.6,0.5h2.9C25.9,26.6,26.2,26.3,26.1,25.9C26.2,25.9,26.2,25.9,26.1,25.9
		C26.1,25.9,26.1,25.9,26.1,25.9z"/>
</g>
</svg>
