<?xml version="1.0" encoding="utf-8"?>
<!-- Generator: Adobe Illustrator 24.2.0, SVG Export Plug-In . SVG Version: 6.00 Build 0)  -->
<svg version="1.1" id="Calque_1" xmlns="http://www.w3.org/2000/svg" xmlns:xlink="http://www.w3.org/1999/xlink" x="0px" y="0px"
	 viewBox="0 0 49 31.1" style="enable-background:new 0 0 49 31.1;" xml:space="preserve">
<style type="text/css">
	.st0{fill:#4B0082;}
</style>
<g>
	<path class="st0" d="M0,6.7v6.7c0,6,3.4,11.5,8.7,14.2l-1,2.2c-0.2,0.5,0,1.1,0.5,1.3C8.4,31,8.5,31,8.6,31h7.4
		c0.5,0,0.9-0.4,1-0.9c0-0.1,0-0.2-0.1-0.4l-0.2-0.5H31l-0.2,0.4c-0.2,0.5,0,1.1,0.6,1.3c0.1,0,0.2,0.1,0.3,0.1H39
		c0.5,0,0.9-0.3,1-0.8c0-0.1,0-0.3-0.1-0.4l-0.2-0.5c4.4-0.6,7.6-4.3,7.7-8.6v-4.8h-0.3c-0.9,0-1.8-0.3-2.5-0.8
		c-0.7-0.5-1.5-1-2.3-1.5v1.8c0,2-1.6,3.6-3.6,3.6h-5.8c-2,0-3.6-1.6-3.6-3.6v-3.7c-1.3,0.2-2.7,0.3-4.1,0.6
		C16.2,14.2,7.1,12.6,0,6.7z"/>
	<path class="st0" d="M48.4,13c0.7-0.7,0.7-1.9,0-2.6c-0.1-0.1-0.1-0.1-0.2-0.2c-1.8-1.4-3.8-2.5-6-3.2v4.1c1.3,0.6,2.5,1.3,3.7,2.1
		C46.6,13.9,47.8,13.8,48.4,13z"/>
	<path class="st0" d="M3.3,0.6C2.7-0.1,1.6-0.2,0.9,0.3l0,0C-0.1,1-0.3,2.2,0.4,3.1c0,0,0.1,0.1,0.1,0.1c3.1,3.3,11.1,9.8,25,7
		c1.3-0.3,2.5-0.5,3.8-0.6V5.8c-1.5,0.1-3,0.4-4.6,0.7C12.7,8.9,5.8,3.3,3.3,0.6z"/>
	<path class="st0" d="M32.2,4.7c-0.6,0-1.1,0.5-1.2,1.1c0,0,0,0,0,0v9.4c0,1.1,0.8,2,1.8,2c0,0,0.1,0,0.1,0h5.7c1.1,0,2-0.9,2-2V5.8
		c0-0.6-0.5-1.1-1.1-1.1c0,0,0,0,0,0H32.2z"/>
</g>
</svg>
