<?xml version="1.0" encoding="utf-8"?>
<!-- Generator: Adobe Illustrator 24.2.0, SVG Export Plug-In . SVG Version: 6.00 Build 0)  -->
<svg version="1.1" id="Calque_1" xmlns="http://www.w3.org/2000/svg" xmlns:xlink="http://www.w3.org/1999/xlink" x="0px" y="0px"
	 viewBox="0 0 27.6 38" style="enable-background:new 0 0 27.6 38;" xml:space="preserve">
<style type="text/css">
	.st0{fill:#4B0082;}
</style>
<path class="st0" d="M6.3,18.7L6.3,18.7c0-0.2,0-0.3,0-0.4c0.3,3.5,2.5,6.5,5.6,8l-1.3,6c-1.6-0.2-3.1,1-3.4,2.6c0,0.1,0,0.2,0,0.3
	c0,1.6,1.3,2.9,2.9,2.9c1.6,0,2.9-1.3,2.9-2.9c0-0.3-0.1-0.7-0.2-1H21l0.8,3c0.1,0.2,0.3,0.4,0.6,0.4h0.2c0.3-0.1,0.5-0.4,0.4-0.7
	l-2.8-10.5c3.2-1.5,5.4-4.7,5.6-8.3H27c0.3,0,0.6-0.4,0.5-0.7c0-0.3-0.3-0.5-0.5-0.5H9.4c0.4-2.2,1.2-6.8,2.8-16
	C12.2,0.4,12,0.1,11.7,0C11.3,0,11,0.2,10.9,0.5l-0.2,0.9C5.9,0.8,0.9,3.8,0.1,8.6C-0.6,12.8,2,17,6.3,18.7z M13.1,26.7
	c2,0.6,4.1,0.6,6.1,0l1.7,6.2H12c-0.1-0.1-0.2-0.1-0.2-0.2L13.1,26.7z"/>
</svg>
