<?xml version="1.0" encoding="utf-8"?>
<!-- Generator: Adobe Illustrator 24.2.0, SVG Export Plug-In . SVG Version: 6.00 Build 0)  -->
<svg version="1.1" id="Calque_1" xmlns="http://www.w3.org/2000/svg" xmlns:xlink="http://www.w3.org/1999/xlink" x="0px" y="0px"
	 viewBox="0 0 33.2 36.6" style="enable-background:new 0 0 33.2 36.6;" xml:space="preserve">
<style type="text/css">
	.st0{fill:#4B0082;}
</style>
<path class="st0" d="M4.1,7.2V5.1h0.2h4.8c0.6,0,1.1-0.5,1.1-1.1S9.7,2.9,9.1,2.9H4.3H4.1V1.4h0.4c0.4,0,0.7-0.3,0.7-0.7l0,0
	C5.2,0.3,4.9,0,4.5,0H1.7C1.4,0,1.1,0.3,1.1,0.7c0,0.4,0.3,0.7,0.7,0.7l0,0h0.4v5.8H0v8.4c0,0,0.2,5.4,3.8,7.4L2.5,36.6h19.2
	l-1.3-13h2.4c0,0,10.4,0.3,10.4-16.5L4.1,7.2z"/>
</svg>
