<?xml version="1.0" encoding="utf-8"?>
<!-- Generator: Adobe Illustrator 24.2.0, SVG Export Plug-In . SVG Version: 6.00 Build 0)  -->
<svg version="1.1" id="Calque_1" xmlns="http://www.w3.org/2000/svg" xmlns:xlink="http://www.w3.org/1999/xlink" x="0px" y="0px"
	 viewBox="0 0 36.1 41.5" style="enable-background:new 0 0 36.1 41.5;" xml:space="preserve">
<style type="text/css">
	.st0{fill:#4B0082;}
</style>
<g>
	<path class="st0" d="M20,19.8c1-1.1,0.8-2.7-0.2-3.7c-1-0.9-2.5-0.9-3.4,0L5.9,5.8c-0.3-0.3-0.9-0.3-1.2,0c0,0,0,0,0,0H4.7
		c-6.2,6.9-6.2,17.4,0.1,24.3L1.5,41.5h13.8l-1.1-5.8c5.7,1.3,11.7-0.3,16-4.3l0,0c0.3-0.3,0.3-0.9,0-1.2c0,0,0,0,0,0L20,19.8z"/>
	<path class="st0" d="M19.6,12.1c2.2,0.5,4,2.2,4.5,4.5c0.1,0.5,0.6,0.8,1,0.7c0.2,0,0.3-0.1,0.4-0.2c0.2-0.2,0.3-0.5,0.2-0.8
		c-0.3-1.4-1-2.7-2.1-3.7c-1-1-2.3-1.8-3.8-2.1c-0.3-0.1-0.6,0-0.8,0.2c-0.3,0.3-0.3,0.9,0,1.2C19.3,12,19.4,12.1,19.6,12.1z"/>
	<path class="st0" d="M20.5,5.2L20.5,5.2c-0.3-0.1-0.6,0-0.8,0.2c-0.3,0.3-0.3,0.9,0,1.2c0.1,0.1,0.3,0.2,0.5,0.2
		c0.8,0.1,1.5,0.4,2.3,0.6C23.8,8.1,25,9,26.1,10c1.1,1.1,1.9,2.3,2.5,3.8c0.3,0.7,0.5,1.5,0.7,2.3c0,0.2,0.1,0.3,0.2,0.5
		c0.3,0.3,0.9,0.3,1.2,0c0.2-0.2,0.3-0.5,0.2-0.8C30,10.4,25.8,6.2,20.5,5.2z"/>
	<path class="st0" d="M31,5.1C28.2,2.4,24.6,0.6,20.7,0l0,0c-0.3-0.1-0.6,0-0.8,0.2c-0.3,0.3-0.3,0.9,0,1.2c0.1,0.1,0.3,0.2,0.5,0.2
		l0,0c3.5,0.5,6.8,2.1,9.3,4.6c1.6,1.5,2.8,3.4,3.6,5.4c0.5,1.2,0.8,2.5,1,3.8l0,0c0,0.2,0.1,0.4,0.2,0.5c0.3,0.3,0.9,0.3,1.2,0
		c0.2-0.2,0.3-0.5,0.2-0.8l0,0C35.5,11.5,33.7,7.9,31,5.1z"/>
</g>
</svg>
