<?xml version="1.0" encoding="utf-8"?>
<!-- Generator: Adobe Illustrator 24.2.0, SVG Export Plug-In . SVG Version: 6.00 Build 0)  -->
<svg version="1.1" id="Calque_1" xmlns="http://www.w3.org/2000/svg" xmlns:xlink="http://www.w3.org/1999/xlink" x="0px" y="0px"
	 viewBox="0 0 40.2 42.6" style="enable-background:new 0 0 40.2 42.6;" xml:space="preserve">
<style type="text/css">
	.st0{fill:#4B0082;}
</style>
<g>
	<path class="st0" d="M9.6,26l23.1,16.1c1.2,0.8,2.7,0.6,3.6-0.5l3.1-3.5c1-1.1,0.9-2.9-0.2-3.9c-0.1-0.1-0.2-0.2-0.3-0.2l-10.3-6.9
		V15.5c0-0.6-0.5-1.1-1.1-1.1c0,0,0,0,0,0h-6.9c-0.6,0-1.1,0.5-1.1,1.1v5.4l-9.8-7.2l-2.2-1.4c-1.2-0.8-2.7-0.6-3.6,0.5l-3.1,3.6
		c-1,1.1-0.9,2.9,0.2,3.9c0.1,0.1,0.2,0.2,0.3,0.2L9.6,26z"/>
	<path class="st0" d="M20.8,11.1c0,0.4,0.4,0.8,0.8,0.8c0,0,0,0,0,0c0.4,0,0.8-0.4,0.8-0.8c0-0.5,0.2-0.9,0.6-1.2
		c1.2-1.1,1.4-3,0.3-4.2c0,0,0,0-0.1-0.1c-0.1-0.1-0.2-0.2-0.2-0.2c-0.7-0.5-0.8-1.4-0.3-2.1c0.1-0.1,0.2-0.2,0.3-0.3
		c0.6-0.6,1-1.3,1-2.2C24,0.4,23.6,0,23.2,0c0,0,0,0,0,0c-0.4,0-0.8,0.3-0.8,0.8c0,0,0,0,0,0c0,0.5-0.2,0.9-0.6,1.2
		c-0.6,0.6-1,1.4-1,2.3c0,0.9,0.4,1.7,1,2.3c0.7,0.5,0.8,1.4,0.3,2.1c-0.1,0.1-0.2,0.2-0.3,0.3C21.2,9.5,20.8,10.3,20.8,11.1z"/>
	<path class="st0" d="M25.1,11.1c0,0.4,0.4,0.8,0.8,0.8c0,0,0,0,0,0c0.4,0,0.8-0.4,0.8-0.8v0c0-0.5,0.3-0.9,0.6-1.2
		c1.2-1.1,1.4-3,0.3-4.2c0,0,0,0-0.1-0.1c-0.1-0.1-0.2-0.2-0.2-0.2c-0.7-0.5-0.8-1.4-0.3-2.1c0.1-0.1,0.2-0.2,0.3-0.3
		c0.6-0.6,1-1.4,1-2.2C28.4,0.4,28,0,27.6,0c0,0,0,0,0,0c-0.4,0-0.8,0.4-0.8,0.8c0,0.5-0.2,0.9-0.6,1.2c-0.6,0.6-1,1.4-1,2.3
		c0,0.9,0.4,1.7,1,2.3C26.8,7,27,7.9,26.5,8.6c-0.1,0.1-0.2,0.2-0.3,0.3C25.5,9.5,25.2,10.3,25.1,11.1z"/>
</g>
</svg>
