<?xml version="1.0" encoding="utf-8"?>
<!-- Generator: Adobe Illustrator 24.2.0, SVG Export Plug-In . SVG Version: 6.00 Build 0)  -->
<svg version="1.1" id="Calque_1" xmlns="http://www.w3.org/2000/svg" xmlns:xlink="http://www.w3.org/1999/xlink" x="0px" y="0px"
	 viewBox="0 0 36.1 40.6" style="enable-background:new 0 0 36.1 40.6;" xml:space="preserve">
<style type="text/css">
	.st0{fill:none;}
	.st1{fill:#4B0082;}
</style>
<g>
	<path class="st0" d="M30.7,16.2c0-8-6.5-14.5-14.5-14.5S1.7,8.2,1.7,16.2s6.5,14.5,14.5,14.5c0,0,0,0,0.1,0
		C24.2,30.7,30.7,24.3,30.7,16.2C30.7,16.3,30.7,16.2,30.7,16.2z M11.4,24.3c0.2-2,0.7-3.9,1.6-5.6l-4.4,3.6c-0.5,0.3-1,0.4-1.5,0.4
		c-2.9,0-3.6-4.8-3.6-6.7c0-2.5,2-4.6,4.6-4.6c0,0,0,0,0,0c1.9,0.2,3.8,0.7,5.6,1.6L10,8.5C9.5,7.7,9.4,6.6,9.9,5.8
		c1.4-2.3,6.3-2.4,6.4-2.4c2.6,0,4.7,2.1,4.7,4.7c-0.2,2-0.7,3.9-1.6,5.6l4.4-3.6c0.5-0.3,1-0.4,1.5-0.4c3,0,3.6,4.8,3.6,6.7
		c0,2.6-2,4.7-4.6,4.7c0,0,0,0,0,0c-1.9-0.2-3.8-0.7-5.5-1.6l3.6,4.4c0.5,0.8,0.6,1.9,0.1,2.7c-1.4,2.3-6.3,2.3-6.4,2.3
		C13.5,29,11.4,26.9,11.4,24.3C11.4,24.3,11.4,24.3,11.4,24.3z"/>
	<path class="st0" d="M18.4,15.4c-0.1-0.3-0.3-0.6-0.6-0.8c-0.6-0.5-1.4-0.7-2.1-0.5l0,0c-0.1,0-0.2,0-0.3,0.1l0,0
		c-0.3,0.1-0.6,0.3-0.8,0.6c-0.1,0.1-0.2,0.2-0.3,0.3c-0.1,0.1-0.1,0.2-0.2,0.3v0c-0.1,0.1-0.1,0.2-0.1,0.4l0,0c0,0.1,0,0.3,0,0.4
		c0,0.1,0,0.3,0,0.4c0,0.2,0.1,0.3,0.1,0.4l0,0c0.1,0.4,0.3,0.7,0.5,1c0.6,0.5,1.4,0.7,2.1,0.5l0,0c0.1,0,0.2,0,0.3-0.1h0
		c0.3-0.1,0.6-0.3,0.8-0.6c0.1-0.1,0.2-0.2,0.2-0.4s0.1-0.2,0.2-0.4l0,0c0.1-0.1,0.1-0.3,0.1-0.4c0-0.1,0-0.3,0.1-0.4
		c0-0.1,0-0.3,0-0.4C18.5,15.7,18.4,15.5,18.4,15.4z"/>
	<path class="st1" d="M22.4,26.6c0.5-0.9,0.5-1.9-0.1-2.7l-3.6-4.4c1.7,0.9,3.6,1.4,5.5,1.6c2.6,0,4.7-2.1,4.6-4.7
		c0-1.9-0.6-6.7-3.6-6.7c-0.5,0-1.1,0.2-1.5,0.4l-4.4,3.6c0.9-1.7,1.5-3.6,1.6-5.6c0-2.6-2.1-4.7-4.7-4.7c0,0-5,0-6.4,2.4
		C9.4,6.7,9.5,7.7,10,8.6l3.7,4.5c-1.7-0.9-3.6-1.5-5.6-1.6c-2.5,0-4.6,2-4.6,4.6c0,0,0,0,0,0.1c0,1.9,0.6,6.7,3.6,6.7
		c0.5,0,1.1-0.1,1.5-0.4l4.4-3.6c-0.9,1.7-1.5,3.6-1.6,5.6c0,2.6,2.1,4.7,4.6,4.7C16.1,28.9,21.1,28.9,22.4,26.6z M18.4,16.6
		L18.4,16.6c0,0.1-0.1,0.3-0.1,0.4l0,0c0,0.1-0.1,0.3-0.2,0.4s-0.2,0.2-0.2,0.4c-0.2,0.3-0.5,0.5-0.8,0.6h0
		c-0.1,0.1-0.2,0.1-0.3,0.1l0,0c-0.7,0.2-1.5,0-2.1-0.4c-0.3-0.2-0.5-0.5-0.6-0.8l0,0c0-0.1-0.1-0.2-0.1-0.4c0-0.1,0-0.3,0-0.4
		c0-0.1,0-0.3,0-0.4l0,0c0-0.1,0.1-0.3,0.1-0.4v0c0.1-0.1,0.1-0.2,0.2-0.3c0.1-0.1,0.2-0.2,0.3-0.3c0.2-0.3,0.5-0.5,0.8-0.6l0,0
		c0.1-0.1,0.2-0.1,0.3-0.1l0,0c0.8-0.2,1.5,0,2.1,0.5c0.3,0.2,0.5,0.5,0.6,0.8c0,0.1,0.1,0.3,0.1,0.4c0,0.1,0,0.3,0,0.4
		C18.5,16.4,18.5,16.5,18.4,16.6L18.4,16.6z"/>
	<path class="st1" d="M34.3,26.7c-0.2,1.8-0.7,3.6-1.6,5.2c-0.9,1.5-2.3,2.6-4,3.1c-0.3,0.1-0.7,0.2-1,0.2c-0.5,0.1-1,0.2-1.5,0.3
		c-0.5,0.2-1,0.4-1.4,0.7c-0.8-2-2.3-3.6-4.2-4.6c8.6-2.4,13.6-11.4,11.2-20S20.4-1.8,11.8,0.6S-1.8,12,0.6,20.6
		c1.5,5.4,5.8,9.6,11.2,11.2c-3,1.6-4.8,4.6-4.9,8v0.9h18.5v-0.9c0-0.5,0-1-0.1-1.5c0.3-0.5,0.8-0.9,1.4-1c0.4-0.1,0.8-0.2,1.2-0.3
		c0.4-0.1,0.8-0.1,1.2-0.2c2.1-0.6,3.9-2,5-3.9c1-1.8,1.7-3.8,1.9-5.9L34.3,26.7z M1.7,16.2c0-8,6.5-14.5,14.5-14.5
		s14.5,6.5,14.5,14.5c0,8-6.5,14.5-14.5,14.5C8.2,30.7,1.7,24.2,1.7,16.2C1.7,16.2,1.7,16.2,1.7,16.2z M16.2,38.2
		c-1.4,0.2-2.6-0.8-2.8-2.2c-0.2-1.4,0.8-2.6,2.2-2.8c0.2,0,0.4,0,0.6,0c1.4,0,2.5,1.1,2.5,2.5C18.7,37.1,17.6,38.2,16.2,38.2z"/>
</g>
</svg>
