<?xml version="1.0" encoding="utf-8"?>
<!-- Generator: Adobe Illustrator 24.2.0, SVG Export Plug-In . SVG Version: 6.00 Build 0)  -->
<svg version="1.1" id="Calque_1" xmlns="http://www.w3.org/2000/svg" xmlns:xlink="http://www.w3.org/1999/xlink" x="0px" y="0px"
	 viewBox="0 0 44.9 36.6" style="enable-background:new 0 0 44.9 36.6;" xml:space="preserve">
<style type="text/css">
	.st0{fill:#4B0082;}
</style>
<path class="st0" d="M18.3,6.1c1.2,0,2.1,0.9,2.1,2.1s-0.9,2.1-2.1,2.1c-1.2,0-2.1-0.9-2.1-2.1S17.1,6.1,18.3,6.1
	C18.3,6.1,18.3,6.1,18.3,6.1z M44,30.9H31.7c6.9-7.4,6.6-19-0.8-25.9S11.9-1.6,5,5.8s-6.6,19,0.8,25.9c3.4,3.2,7.9,5,12.5,5H44
	c0.5,0,0.9-0.4,0.9-0.9v0l0,0v-4C44.9,31.2,44.5,30.8,44,30.9L44,30.9L44,30.9z M16.2,28.5c0-1.2,0.9-2.1,2.1-2.1s2.1,0.9,2.1,2.1
	s-0.9,2.1-2.1,2.1l0,0C17.1,30.6,16.2,29.6,16.2,28.5z M11.4,14.3c-0.6,1-1.9,1.3-2.9,0.8c-1-0.6-1.3-1.9-0.8-2.9
	c0.6-1,1.9-1.3,2.9-0.8C11.6,12,12,13.3,11.4,14.3C11.4,14.3,11.4,14.3,11.4,14.3z M26,11.5c1-0.6,2.3-0.2,2.9,0.8
	c0.6,1,0.2,2.3-0.8,2.9c-1,0.6-2.3,0.2-2.9-0.8l0,0C24.7,13.3,25,12.1,26,11.5z M10.6,25.2c-1,0.6-2.3,0.2-2.9-0.8
	c-0.6-1-0.2-2.3,0.8-2.9c1-0.6,2.3-0.2,2.9,0.8C12,23.3,11.6,24.6,10.6,25.2C10.6,25.2,10.6,25.2,10.6,25.2z M25.2,22.3
	c0.6-1,1.9-1.3,2.9-0.8c1,0.6,1.3,1.9,0.8,2.9c-0.6,1-1.9,1.3-2.9,0.8c0,0,0,0,0,0c-0.5-0.3-0.9-0.7-1-1.3
	C24.9,23.4,25,22.8,25.2,22.3z"/>
</svg>
