<?xml version="1.0" encoding="utf-8"?>
<!-- Generator: Adobe Illustrator 24.2.0, SVG Export Plug-In . SVG Version: 6.00 Build 0)  -->
<svg version="1.1" id="Calque_1" xmlns="http://www.w3.org/2000/svg" xmlns:xlink="http://www.w3.org/1999/xlink" x="0px" y="0px"
	 viewBox="0 0 30.4 29.7" style="enable-background:new 0 0 30.4 29.7;" xml:space="preserve">
<style type="text/css">
	.st0{fill:#4B0082;}
</style>
<path class="st0" d="M18.1,1.4c3.8,0.8,7.9,1.8,11.7,2.8l0.6,0.1v9.5l-0.6,0.1c-3.8,1-8,2-11.7,2.8c-1.7,0.4-3.2,0.7-4.7,0.9l2.9,11
	c0.1,0.5-0.1,0.9-0.6,1.1c-0.1,0-0.1,0-0.2,0H9.8c-0.4,0-0.7-0.3-0.8-0.6L6,17.5c-1.2-0.4-2.3-1.1-3.3-2.1C-0.8,12-0.9,6.3,2.6,2.7
	C4.3,1,6.6,0,9.1,0C12.1,0.2,15.1,0.6,18.1,1.4z M5.8,9c0,1.8,1.5,3.3,3.3,3.3c0,0,0,0,0,0c1.8,0,3.3-1.5,3.3-3.3c0,0,0,0,0,0
	c0-1.8-1.5-3.3-3.3-3.3l0,0C7.3,5.7,5.8,7.2,5.8,9L5.8,9z"/>
</svg>
