<?xml version="1.0" encoding="utf-8"?>
<!-- Generator: Adobe Illustrator 24.2.0, SVG Export Plug-In . SVG Version: 6.00 Build 0)  -->
<svg version="1.1" id="Calque_1" xmlns="http://www.w3.org/2000/svg" xmlns:xlink="http://www.w3.org/1999/xlink" x="0px" y="0px"
	 viewBox="0 0 43 36.7" style="enable-background:new 0 0 43 36.7;" xml:space="preserve">
<style type="text/css">
	.st0{fill:#4B0082;}
</style>
<g>
	<path class="st0" d="M38.2,36.7h2.4c1.3,0,2.4-1.1,2.4-2.4V19.2h-4.8V36.7z"/>
	<path class="st0" d="M30.3,27.1h1.6c0.4,0,0.8,0.4,0.8,0.8l0,0v4h1.6c0.4,0,0.8,0.4,0.8,0.8l0,0v4h1.6V19.2h-6.4V27.1z"/>
	<rect x="9.6" y="33.5" class="st0" width="23.9" height="3.2"/>
	<rect x="11.9" y="28.7" class="st0" width="19.1" height="3.2"/>
	<rect x="22.3" y="19.2" class="st0" width="6.4" height="8"/>
	<rect x="14.3" y="19.2" class="st0" width="6.4" height="8"/>
	<path class="st0" d="M10.3,27.9c0-0.4,0.4-0.8,0.8-0.8h0h1.6v-8H6.4v17.5H8v-4c0-0.4,0.4-0.8,0.8-0.8c0,0,0,0,0,0h1.6V27.9z"/>
	<path class="st0" d="M0,34.3c0,1.3,1.1,2.4,2.4,2.4h2.4V19.2H0V34.3z"/>
	<path class="st0" d="M40.6,14.4H2.4c-1.3,0-2.4,1.1-2.4,2.4v0.8h43v-0.8C43,15.5,41.9,14.4,40.6,14.4L40.6,14.4z"/>
	<path class="st0" d="M11.1,11.2c0,0.4,0.4,0.8,0.8,0.8c0.4,0,0.8-0.4,0.8-0.8c0-0.5,0.2-0.9,0.5-1.2c1.2-1.1,1.4-3,0.3-4.2
		c0,0,0,0-0.1-0.1l-0.2-0.2C12.6,5,12.5,4,13,3.4c0,0,0,0,0,0c0.1-0.1,0.2-0.2,0.3-0.3c0.6-0.6,1-1.4,1-2.2c0-0.4-0.4-0.8-0.8-0.8
		c-0.4,0-0.8,0.4-0.8,0.8c0,0,0,0,0,0c0,0.5-0.2,0.9-0.6,1.2c-1.2,1.1-1.4,3-0.3,4.2c0,0,0,0,0.1,0.1C12,6.4,12,6.5,12.1,6.6
		c0.7,0.5,0.8,1.4,0.3,2.1c-0.1,0.1-0.2,0.2-0.3,0.3C11.5,9.5,11.1,10.3,11.1,11.2z"/>
	<path class="st0" d="M17.5,11.2c0,0.4,0.4,0.8,0.8,0.8c0.4,0,0.8-0.4,0.8-0.8c0-0.5,0.2-0.9,0.6-1.2c1.2-1.1,1.4-3,0.3-4.2
		c0,0,0,0-0.1-0.1c-0.1-0.1-0.1-0.2-0.2-0.2C19,5,18.9,4,19.4,3.4c0,0,0,0,0,0c0.1-0.1,0.2-0.2,0.3-0.3c0.6-0.6,1-1.4,1-2.2
		c0-0.4-0.4-0.8-0.8-0.8c-0.4,0-0.8,0.4-0.8,0.8c0,0,0,0,0,0c0,0.5-0.2,0.9-0.6,1.2c-1.2,1.1-1.4,3-0.3,4.2c0,0,0,0,0.1,0.1
		c0.1,0.1,0.2,0.2,0.2,0.2c0.7,0.5,0.8,1.4,0.3,2.1c-0.1,0.1-0.2,0.2-0.3,0.3C17.9,9.5,17.5,10.3,17.5,11.2z"/>
	<path class="st0" d="M23.9,11.2c0,0.4,0.4,0.8,0.8,0.8s0.8-0.4,0.8-0.8c0,0,0,0,0,0c0-0.5,0.2-0.9,0.6-1.2c1.3-1.1,1.4-3,0.3-4.2
		c0,0-0.1-0.1-0.1-0.1l-0.2-0.2c-0.7-0.5-0.8-1.4-0.3-2.1c0,0,0,0,0,0c0.1-0.1,0.2-0.2,0.3-0.3c0.6-0.6,1-1.4,1-2.2
		c0-0.4-0.4-0.8-0.8-0.8c-0.4,0-0.8,0.4-0.8,0.8c0,0,0,0,0,0c0,0.5-0.2,0.9-0.6,1.2c-1.3,1.1-1.4,3-0.3,4.2c0.1,0.1,0.2,0.2,0.3,0.3
		C25.5,7,25.7,8,25.2,8.6c-0.1,0.1-0.2,0.2-0.3,0.3C24.2,9.5,23.9,10.3,23.9,11.2z"/>
	<path class="st0" d="M30.3,11.2c0,0.4,0.4,0.8,0.8,0.8s0.8-0.4,0.8-0.8c0,0,0,0,0,0c0-0.5,0.2-0.9,0.6-1.2c1.2-1.1,1.4-3,0.3-4.2
		c0,0,0,0-0.1-0.1l-0.2-0.2C31.8,5,31.7,4,32.2,3.4c0,0,0,0,0,0c0.1-0.1,0.2-0.2,0.3-0.3c0.6-0.6,1-1.4,1-2.2c0-0.4-0.4-0.8-0.8-0.8
		c-0.4,0-0.8,0.4-0.8,0.8c0,0,0,0,0,0c0,0.5-0.2,0.9-0.6,1.2C30,3.1,29.9,5,31,6.3c0.1,0.1,0.2,0.2,0.3,0.3c0.7,0.5,0.8,1.5,0.3,2.1
		c-0.1,0.1-0.2,0.2-0.3,0.3C30.7,9.5,30.3,10.3,30.3,11.2z"/>
</g>
</svg>
