<?xml version="1.0" encoding="utf-8"?>
<!-- Generator: Adobe Illustrator 24.2.0, SVG Export Plug-In . SVG Version: 6.00 Build 0)  -->
<svg version="1.1" id="Calque_1" xmlns="http://www.w3.org/2000/svg" xmlns:xlink="http://www.w3.org/1999/xlink" x="0px" y="0px"
	 viewBox="0 0 36.5 36.6" style="enable-background:new 0 0 36.5 36.6;" xml:space="preserve">
<style type="text/css">
	.st0{fill:#4B0082;}
</style>
<path class="st0" d="M36.4,8c-0.2-0.3-0.4-0.4-0.7-0.4h-6.5c-1.5-3-3.3-5.4-5.6-6.6c-1-0.5-2.1-0.9-3.2-1c-1.1,0.1-2.2,0.5-3.2,1
	c-2.1,1.1-3.9,3.3-5.4,6.2h-5c-0.5,0-0.9,0.2-1.1,0.6C0.4,16.7,0,27.2,0,27.6c0.1,0.7,0.6,1.2,1.3,1.2h1.4c0.7-0.1,1.3-0.7,1.2-1.4
	c0,0,0,0,0,0c0-0.1,0.5-9.6,4.9-17.7h1.8C7.3,17.9,6,29.3,6,35.3c0,0.7,0.6,1.3,1.3,1.3h26c0.7,0,1.3-0.6,1.3-1.3
	c-0.1-6.4-0.9-12.8-2.5-19.1l4.3-7.4C36.6,8.6,36.5,8.3,36.4,8z"/>
</svg>
