<?xml version="1.0" encoding="utf-8"?>
<!-- Generator: Adobe Illustrator 24.2.0, SVG Export Plug-In . SVG Version: 6.00 Build 0)  -->
<svg version="1.1" id="Calque_1" xmlns="http://www.w3.org/2000/svg" xmlns:xlink="http://www.w3.org/1999/xlink" x="0px" y="0px"
	 viewBox="0 0 40.6 40.6" style="enable-background:new 0 0 40.6 40.6;" xml:space="preserve">
<style type="text/css">
	.st0{fill:none;}
	.st1{fill:#4B0082;}
</style>
<g>
	<path class="st0" d="M35.6,28.5c-0.3,0-0.6,0.3-0.6,0.6v1.9c0,0.3,0.3,0.6,0.6,0.6c0.3,0,0.6-0.3,0.6-0.6c0,0,0,0,0,0v-1.9
		C36.2,28.8,35.9,28.5,35.6,28.5C35.6,28.5,35.6,28.5,35.6,28.5z"/>
	<path class="st0" d="M5.8,28.5c-0.3,0-0.6,0.3-0.6,0.6l0,0v1.9c0,0.3,0.3,0.6,0.6,0.6c0,0,0,0,0,0c0.3,0,0.6-0.3,0.6-0.6v-1.9
		C6.4,28.8,6.1,28.5,5.8,28.5z"/>
	<path class="st0" d="M24.1,24.7h-7.6c-0.7,0-1.3,0.6-1.3,1.3l0,0v8.2c0,0.7,0.6,1.3,1.3,1.3c0,0,0,0,0,0h7.6c0.7,0,1.3-0.6,1.3-1.3
		l0,0V26C25.4,25.3,24.9,24.7,24.1,24.7L24.1,24.7z M19.4,26h1.9v1.3h-1.9V26z M24.1,34.3h-7.6V26h1.6v1.9c0,0.3,0.3,0.6,0.6,0.6
		h3.2c0.3,0,0.6-0.3,0.6-0.6c0,0,0,0,0,0V26h1.6L24.1,34.3z"/>
	<path class="st0" d="M17.8,3.5h-1.3c-0.4,0-0.6,0.3-0.6,0.6c0,0.3,0.3,0.6,0.6,0.6h1.3c0.3,0,0.6-0.3,0.6-0.6
		C18.5,3.8,18.2,3.5,17.8,3.5C17.8,3.5,17.8,3.5,17.8,3.5z"/>
	<path class="st0" d="M6.7,3.5H5.4c-0.4,0-0.6,0.3-0.6,0.6c0,0,0,0,0,0c0,0.3,0.3,0.6,0.6,0.6h1.3c0.3,0,0.6-0.3,0.6-0.6
		C7.4,3.8,7.1,3.5,6.7,3.5C6.7,3.5,6.7,3.5,6.7,3.5z"/>
	<path class="st1" d="M39.4,36.8h-0.6V23.5c0-0.7-0.5-1.3-1.2-1.3c0,0,0,0,0,0h-0.3v-1.2c0-0.7-0.6-1.3-1.2-1.3c0,0,0,0,0,0H20.6
		c-0.7,0-1.3,0.6-1.3,1.3c0,0,0,0,0,0v1.2H3.9c-0.7,0-1.3,0.6-1.3,1.3l0,0v13.3H1.3c-0.7,0-1.3,0.6-1.3,1.3l0,0v1.3
		c0,0.7,0.6,1.3,1.3,1.3h0h38.1c0.7,0,1.3-0.6,1.3-1.2c0,0,0,0,0,0v-1.3C40.6,37.4,40.1,36.8,39.4,36.8
		C39.4,36.8,39.4,36.8,39.4,36.8z M6.4,31.1c0,0.3-0.3,0.6-0.6,0.6c-0.3,0-0.6-0.3-0.6-0.6l0,0v-1.9c0-0.3,0.3-0.6,0.6-0.6
		c0,0,0,0,0,0c0.3,0,0.6,0.3,0.6,0.6V31.1z M25.4,34.3c0,0.7-0.6,1.3-1.3,1.3l0,0h-7.6c-0.7,0-1.3-0.6-1.3-1.3l0,0V26
		c0-0.7,0.6-1.3,1.3-1.3c0,0,0,0,0,0h7.6c0.7,0,1.3,0.6,1.3,1.3l0,0L25.4,34.3z M36.1,31.1c0,0.3-0.3,0.6-0.6,0.6c0,0,0,0,0,0
		c-0.3,0-0.6-0.3-0.6-0.6v-1.9c0-0.3,0.3-0.6,0.6-0.6c0.3,0,0.6,0.3,0.6,0.6c0,0,0,0,0,0V31.1z"/>
	<path class="st1" d="M22.6,27.9c0,0.3-0.3,0.6-0.6,0.6c0,0,0,0,0,0h-3.2c-0.3,0-0.6-0.3-0.6-0.6V26h-1.6v8.2h7.6V26h-1.6V27.9z"/>
	<rect x="19.4" y="26" class="st1" width="1.9" height="1.3"/>
	<path class="st1" d="M40,0H0.6C0.3,0,0,0.3,0,0.6l0,0v7C0,8,0.3,8.3,0.6,8.3h21.9c0.3,0,0.6-0.3,0.6-0.6l0,0l0,0V1.3h1.3v8
		c-0.3,0-0.6,0.2-0.8,0.5l-2.1,2.5c-0.4,0.5-0.4,1.3,0.2,1.8c0.2,0.2,0.5,0.3,0.8,0.3H34c0.7,0,1.3-0.6,1.3-1.3c0,0,0,0,0,0
		c0-0.3-0.1-0.6-0.3-0.8l-2.1-2.5c-0.2-0.2-0.5-0.4-0.8-0.5V1.3h1.3v6.3c0,0.3,0.3,0.6,0.6,0.6l0,0h6c0.3,0,0.6-0.3,0.6-0.6v0V0.6
		C40.6,0.3,40.3,0,40,0z M6.7,4.8H5.4c-0.3,0-0.6-0.3-0.6-0.6c0-0.4,0.3-0.6,0.6-0.6c0,0,0,0,0,0h1.3c0.4,0,0.6,0.3,0.6,0.6
		C7.3,4.5,7,4.8,6.7,4.8z M17.8,4.8h-1.3c-0.3,0-0.6-0.3-0.6-0.6c0-0.4,0.3-0.6,0.6-0.6h1.3c0.3,0,0.6,0.3,0.6,0.6
		C18.4,4.5,18.2,4.8,17.8,4.8z"/>
</g>
</svg>
