<?xml version="1.0" encoding="utf-8"?>
<!-- Generator: Adobe Illustrator 24.2.0, SVG Export Plug-In . SVG Version: 6.00 Build 0)  -->
<svg version="1.1" id="Calque_1" xmlns="http://www.w3.org/2000/svg" xmlns:xlink="http://www.w3.org/1999/xlink" x="0px" y="0px"
	 viewBox="0 0 43 30.6" style="enable-background:new 0 0 43 30.6;" xml:space="preserve">
<style type="text/css">
	.st0{fill:#4B0082;}
</style>
<path class="st0" d="M39.5,0h-36C1.6,0,0,1.5,0,3.4c0,0,0,0,0,0v21c0,1.9,1.5,3.4,3.4,3.4c0,0,0,0,0,0h2.2v1.8
	c0,0.5,0.4,0.9,0.9,0.9h0h3.5c0.5,0,0.9-0.4,0.9-0.9l0,0v-1.8h21v1.8c0,0.5,0.4,0.9,0.9,0.9c0,0,0,0,0,0h3.6c0.5,0,0.9-0.4,0.9-0.9
	v0v-1.8h2.2c1.9,0,3.4-1.6,3.4-3.4v-21C43,1.5,41.4,0,39.5,0z M32,22.8H5.1V5.1H32V22.8z M36.4,5.5c0-0.2,0.2-0.4,0.4-0.4l0,0h1.4
	c0.2,0,0.4,0.2,0.4,0.4c0,0,0,0,0,0v1.4c0,0.2-0.2,0.4-0.4,0.4h-1.4c-0.2,0-0.4-0.2-0.4-0.4c0,0,0,0,0,0V5.5z M36.4,9.9
	c0-0.2,0.2-0.4,0.4-0.4c0,0,0,0,0,0h1.4c0.2,0,0.4,0.2,0.4,0.4v1.4c0,0.2-0.2,0.4-0.4,0.4h-1.4c-0.2,0-0.4-0.2-0.4-0.4c0,0,0,0,0,0
	V9.9z M36.4,14.3c0-0.2,0.2-0.4,0.4-0.4c0,0,0,0,0,0h1.4c0.2,0,0.4,0.2,0.4,0.4v1.4c0,0.2-0.2,0.4-0.4,0.4h-1.4
	c-0.2,0-0.4-0.2-0.4-0.4c0,0,0,0,0,0V14.3z M37.5,22.7c-1.2,0-2.2-0.9-2.2-2.1c0-1.2,1-2.2,2.2-2.2l0,0c1.2,0,2.2,1,2.2,2.2
	C39.6,21.8,38.7,22.7,37.5,22.7C37.5,22.7,37.5,22.7,37.5,22.7L37.5,22.7z"/>
<path class="st0" d="M15.5,14.5c0.2-0.1,0.4-0.4,0.3-0.6l0,0c-0.2-0.4-0.2-0.8-0.2-1.2c0-0.4,0.2-0.9,0.4-1.2
	c0.1-0.2,0.2-0.5,0.3-0.7c0.1-0.3,0.2-0.6,0.2-1c0-0.3,0-0.7-0.1-1c-0.1-0.2-0.1-0.3-0.2-0.5C16.1,8.2,16,8,15.9,7.9
	c-0.1-0.1-0.3-0.2-0.5-0.1C15.2,7.8,15,8.1,15,8.3v0.2c0,0.1,0,0.2,0.1,0.3c0,0.1,0,0.2,0,0.3c0,0.2,0,0.4,0,0.5
	c0,0.2-0.1,0.4-0.2,0.5l-0.3,0.7c-0.1,0.3-0.2,0.5-0.3,0.8c-0.1,0.3-0.1,0.6-0.1,1c0,0.6,0.3,1.2,0.7,1.7
	C15.1,14.5,15.3,14.6,15.5,14.5z"/>
<path class="st0" d="M18.7,14.5c0.2-0.1,0.3-0.4,0.3-0.6l0,0c-0.2-0.4-0.2-0.8-0.2-1.2c0-0.4,0.1-0.8,0.4-1.2
	c0.1-0.2,0.2-0.5,0.3-0.7c0.1-0.3,0.2-0.6,0.2-1c0-0.3,0-0.6-0.1-1c-0.1-0.2-0.1-0.3-0.2-0.5C19.2,8.3,19.1,8.1,19,8
	c-0.1-0.1-0.3-0.2-0.5-0.1c-0.2,0.1-0.4,0.3-0.4,0.5l0,0.2c0,0.1,0,0.2,0.1,0.3c0,0.1,0,0.2,0,0.3c0,0.2,0,0.4,0,0.5
	c0,0.2-0.1,0.4-0.2,0.5l-0.3,0.7c-0.1,0.3-0.2,0.5-0.3,0.8c-0.1,0.3-0.1,0.7-0.1,1c0.1,0.6,0.3,1.2,0.7,1.7
	C18.3,14.5,18.5,14.5,18.7,14.5z"/>
<path class="st0" d="M21.9,14.5c0.2-0.1,0.3-0.4,0.3-0.6l0,0C22,13.5,22,13,22,12.6c0-0.4,0.1-0.8,0.4-1.2c0.1-0.2,0.2-0.5,0.3-0.7
	c0.1-0.3,0.2-0.6,0.2-1c0-0.3,0-0.7-0.1-1c-0.1-0.2-0.1-0.3-0.2-0.5c-0.1-0.1-0.2-0.3-0.3-0.4c-0.1-0.1-0.3-0.2-0.5-0.1
	c-0.2,0.1-0.4,0.3-0.4,0.5l0,0.2c0,0.1,0,0.2,0.1,0.3c0,0.1,0,0.2,0,0.3c0,0.2,0,0.4,0,0.5c0,0.2-0.1,0.4-0.2,0.5l-0.3,0.7
	c-0.1,0.3-0.2,0.5-0.3,0.8c-0.1,0.3-0.1,0.6-0.1,1c0.1,0.6,0.3,1.2,0.7,1.7C21.5,14.5,21.7,14.5,21.9,14.5z"/>
<path class="st0" d="M10.3,17.8h0.8l1.4,2.5c0.2,0.3,0.5,0.5,0.9,0.5h10.3c0.4,0,0.7-0.2,0.9-0.5l1.4-2.5h0.9c0.2,0,0.3-0.2,0.4-0.4
	v-0.8c0-0.2-0.2-0.3-0.4-0.4H10.3c-0.2,0-0.3,0.2-0.4,0.4v0.8C9.9,17.6,10.1,17.8,10.3,17.8C10.3,17.8,10.3,17.8,10.3,17.8z"/>
</svg>
