<?xml version="1.0" encoding="utf-8"?>
<!-- Generator: Adobe Illustrator 24.2.0, SVG Export Plug-In . SVG Version: 6.00 Build 0)  -->
<svg version="1.1" id="Calque_1" xmlns="http://www.w3.org/2000/svg" xmlns:xlink="http://www.w3.org/1999/xlink" x="0px" y="0px"
	 viewBox="0 0 30.2 36.5" style="enable-background:new 0 0 30.2 36.5;" xml:space="preserve">
<style type="text/css">
	.st0{fill:none;}
	.st1{fill:#4B0082;}
</style>
<path class="st0" d="M6.3,12.8c-0.3,0.4-0.7,0.8-1,1.1c-0.6,0.6-0.9,1.4-0.9,2.2c0,2.3,0,4.5,0,6.8s0,4.7,0,7.1
	c0,0.2,0.1,0.5,0.3,0.6c0.2,0.1,0.4,0.2,0.6,0.2c1.9,0,3.8,0,5.7,0c0.7,0,1-0.3,1-1c0-4.6,0-9.2,0-13.8c0-0.7-0.2-1.4-0.7-2
	c-0.4-0.4-0.7-0.8-1.1-1.2c-0.5-0.5-0.7-1.1-0.7-1.8c0-0.1,0.1-0.3,0.2-0.3c0.1-0.1,0.1-0.2,0.1-0.3c0-0.6,0-1.2,0-1.8
	c0-0.2-0.1-0.4-0.4-0.5c0,0-0.1,0-0.1,0H7.1c-0.3,0-0.5,0.1-0.5,0.5v1.7c0,0.2,0.1,0.4,0.2,0.5c0,0,0.1,0.1,0.1,0.1
	c0.1,0.4,0,0.8-0.2,1.1C6.6,12.3,6.5,12.5,6.3,12.8z"/>
<path class="st0" d="M18.4,16.9c-0.4-0.4-0.6-0.9-0.5-1.4c0-0.1,0-0.2,0.1-0.3c0.1-0.1,0.1-0.2,0.1-0.3c0-0.5,0-0.9,0-1.4
	c0-0.2-0.1-0.4-0.4-0.4h-1.8c-0.3,0-0.4,0.1-0.4,0.4v1.3c0,0.1,0,0.3,0.2,0.4c0,0,0.1,0.1,0.1,0.1c0,0.3,0,0.6-0.1,0.9
	c-0.1,0.2-0.2,0.4-0.4,0.5c-0.2,0.3-0.5,0.6-0.8,0.9c-0.4,0.5-0.7,1.1-0.7,1.7c0,1.8,0,3.5,0,5.3v5.5c0,0.2,0.1,0.4,0.2,0.5
	c0.2,0.1,0.3,0.1,0.5,0.1c1.5,0,3,0,4.4,0c0.5,0,0.8-0.2,0.8-0.8c0-3.6,0-7.2,0-10.8c0-0.6-0.2-1.1-0.6-1.5
	C18.9,17.5,18.7,17.2,18.4,16.9z"/>
<path class="st0" d="M27.5,6v10.1c0.6,0.2,1.3-0.2,1.5-0.8c0-0.1,0.1-0.3,0-0.4V7.3C29.1,6.7,28.7,6,28,5.9
	C27.8,5.9,27.7,5.9,27.5,6z"/>
<path class="st1" d="M30.2,7.2c0-1.2-0.8-2.2-2-2.4c-0.2,0-0.5-0.1-0.8-0.1V3.1c0-1.2-0.8-2.2-2-2.4c-0.5,0-0.9,0-1.4,0
	c-0.1,0-0.3-0.1-0.3-0.2c-0.2-0.4-0.6-0.6-1.1-0.5C22.2,0.1,22,0.4,22,1v1.3H3.7C1.7,2.3,0.1,3.8,0,5.8C0,5.9,0,6,0,6v26.3
	c0,0.7,0.2,1.3,0.7,1.8c0.3,0.3,0.7,0.6,1.1,0.7c0.2,0,1.1,0.1,1.3,0.1c0.1,0.6,0.4,1.1,1,1.1c0.6,0.1,1.2,0.1,1.7,0
	c0.6-0.1,0.9-0.6,1-1.1h10c0.3,1,0.6,1.2,1.6,1.2h0.5c1,0,1.3-0.2,1.6-1.2l1.6-0.1v0.7c0,0.5,0.1,0.8,0.5,0.9c0.4,0.2,0.8,0.1,1-0.3
	c0.2-0.4,0.5-0.4,0.8-0.4h0.4c1.4,0.1,2.5-0.9,2.6-2.3c0-0.1,0-0.2,0-0.3c0-5.1,0-10.3,0-15.4v-0.5h0.3c1.3,0,2.4-1.1,2.4-2.4
	C30.2,12.3,30.2,9.8,30.2,7.2z M6.9,10.9c0-0.1,0-0.1-0.1-0.1c-0.2-0.1-0.3-0.3-0.2-0.5V8.6c0-0.3,0.1-0.5,0.5-0.5h2.3
	c0.2,0,0.4,0.1,0.5,0.4c0,0,0,0.1,0,0.1c0,0.6,0,1.2,0,1.8c0,0.1,0,0.2-0.1,0.3c-0.1,0.1-0.2,0.2-0.2,0.3c0,0.7,0.2,1.3,0.7,1.8
	c0.4,0.4,0.7,0.8,1.1,1.2c0.5,0.5,0.7,1.2,0.7,1.9c0,4.6,0,9.2,0,13.8c0,0.7-0.3,1-1,1c-1.9,0-3.8,0-5.7,0c-0.2,0-0.5-0.1-0.6-0.2
	c-0.2-0.1-0.3-0.4-0.3-0.6c0-2.4,0-4.7,0-7.1c0-2.2,0-4.5,0-6.8c0-0.9,0.3-1.7,0.9-2.3c0.4-0.4,0.7-0.7,1-1.1
	c0.2-0.2,0.3-0.5,0.4-0.7C6.9,11.7,7,11.3,6.9,10.9z M19.8,30c0,0.5-0.2,0.8-0.8,0.8c-1.5,0-3,0-4.4,0c-0.2,0-0.3-0.1-0.5-0.1
	c-0.2-0.1-0.3-0.3-0.2-0.5v-5.5c0-1.8,0-3.5,0-5.3c0-0.6,0.2-1.3,0.7-1.7c0.3-0.3,0.5-0.6,0.8-0.9c0.1-0.2,0.2-0.4,0.4-0.5
	c0.1-0.3,0.2-0.6,0.1-0.9c0,0,0-0.1-0.1-0.1c-0.1-0.1-0.2-0.2-0.2-0.4v-1.3c0-0.3,0.1-0.4,0.4-0.4h1.8c0.2,0,0.4,0.1,0.4,0.4
	c0,0.5,0,0.9,0,1.4c0,0.1,0,0.2-0.1,0.3c-0.1,0.1-0.1,0.2-0.1,0.3c0,0.5,0.2,1,0.5,1.4c0.3,0.3,0.6,0.6,0.8,0.9
	c0.4,0.4,0.6,1,0.6,1.5C19.8,22.9,19.8,26.4,19.8,30z M29.1,14.9c0.1,0.7-0.4,1.3-1.1,1.3c-0.1,0-0.3,0-0.4,0V6
	c0.7-0.2,1.3,0.3,1.5,0.9c0,0.1,0,0.3,0,0.4V14.9z"/>
</svg>
