<?xml version="1.0" encoding="utf-8"?>
<!-- Generator: Adobe Illustrator 24.2.0, SVG Export Plug-In . SVG Version: 6.00 Build 0)  -->
<svg version="1.1" id="Calque_1" xmlns="http://www.w3.org/2000/svg" xmlns:xlink="http://www.w3.org/1999/xlink" x="0px" y="0px"
	 viewBox="0 0 36.6 36.6" style="enable-background:new 0 0 36.6 36.6;" xml:space="preserve">
<style type="text/css">
	.st0{fill:#4B0082;}
</style>
<path class="st0" d="M0,17.6V6.8h10.8V4.1c0-2.2,1.8-4.1,4.1-4.1S19,1.8,19,4.1v2.7h10.8v10.8h2.7c2.2,0,4.1,1.8,4.1,4.1
	c0,2.2-1.8,4.1-4.1,4.1c0,0,0,0,0,0h-2.7v10.9H19v-2.7c0-2.2-1.8-4.1-4.1-4.1c-2.2,0-4.1,1.8-4.1,4.1v2.7H0V25.8h2.7
	c2.2,0,4.1-1.8,4.1-4.1c0-2.2-1.8-4.1-4.1-4.1H0z"/>
</svg>
