<?xml version="1.0" encoding="utf-8"?>
<!-- Generator: Adobe Illustrator 24.2.0, SVG Export Plug-In . SVG Version: 6.00 Build 0)  -->
<svg version="1.1" id="Calque_1" xmlns="http://www.w3.org/2000/svg" xmlns:xlink="http://www.w3.org/1999/xlink" x="0px" y="0px"
	 viewBox="0 0 36.6 36.6" style="enable-background:new 0 0 36.6 36.6;" xml:space="preserve">
<style type="text/css">
	.st0{fill:#4B0082;}
</style>
<path class="st0" d="M29.5,0H7.1C3.2,0,0,3.2,0,7.1v22.4c0,3.9,3.2,7.1,7.1,7.1h22.4c3.9,0,7.1-3.2,7.1-7.1V7.2
	C36.6,3.2,33.5,0,29.5,0C29.6,0,29.5,0,29.5,0z M27.5,17.3c-0.3,0.9-0.8,1.8-1.5,2.5c-0.7,0.8-1.6,1.3-2.6,1.7
	c-1.1,0.4-2.2,0.7-3.4,0.6h-4.7V30h-5.1V6.7H20c1.2,0,2.4,0.2,3.5,0.7c1,0.4,1.8,1,2.5,1.8c1.3,1.4,2,3.3,2.1,5.2
	C28.1,15.4,27.9,16.4,27.5,17.3L27.5,17.3z"/>
<path class="st0" d="M20,11.7h-4.7v5.6H20c0.4,0,0.8-0.1,1.1-0.2c0.4-0.1,0.7-0.4,0.9-0.6c0.3-0.3,0.5-0.6,0.6-0.9
	c0.2-0.4,0.2-0.7,0.2-1.1c0-0.8-0.3-1.5-0.8-2C21.5,11.9,20.8,11.7,20,11.7z"/>
</svg>
