<?xml version="1.0" encoding="utf-8"?>
<!-- Generator: Adobe Illustrator 24.2.0, SVG Export Plug-In . SVG Version: 6.00 Build 0)  -->
<svg version="1.1" id="Calque_1" xmlns="http://www.w3.org/2000/svg" xmlns:xlink="http://www.w3.org/1999/xlink" x="0px" y="0px"
	 viewBox="0 0 39.2 36.7" style="enable-background:new 0 0 39.2 36.7;" xml:space="preserve">
<style type="text/css">
	.st0{fill:#4B0082;}
</style>
<g>
	<path class="st0" d="M38.4,36.6L35.7,31h0.9c0.7,0,1.2-0.5,1.3-1.1l1.3-10c0-0.7-0.5-1.3-1.2-1.4c-0.6,0-1.2,0.4-1.4,1l-0.7,5h-7.9
		c-0.4,0-0.7,0.3-0.7,0.7c0,0.4,0.3,0.7,0.6,0.7h0h3.4l1.2,2.6h-5.2c-0.7,0-1.3,0.6-1.3,1.3c0,0.7,0.6,1.3,1.3,1.3c0,0,0,0,0,0h1
		l-2.3,5.7H28l2.3-5.7h3.5l2.6,5.7H38.4z M34.6,28.3l-1.2-2.6h2.4l-0.3,2.6L34.6,28.3z"/>
	<path class="st0" d="M39.1,11.1C36.2,6.2,29.1,3,20.9,2.7V1.3c0-0.7-0.6-1.3-1.3-1.3c-0.7,0-1.3,0.6-1.3,1.3v1.3
		C10.1,3,3.1,6.2,0.2,11.1c-0.2,0.4-0.2,0.9,0,1.3c0.2,0.4,0.7,0.7,1.1,0.7h17v7.4h-7.8c-0.7,0-1.3,0.6-1.3,1.3
		c0,0.7,0.6,1.3,1.3,1.3h7.8v13.5h2.6V23.1h7.8c0.7,0,1.3-0.6,1.3-1.3c0-0.7-0.6-1.3-1.3-1.3l0,0h-7.8v-7.4h17
		c0.5,0,0.9-0.3,1.1-0.7C39.3,12,39.3,11.5,39.1,11.1z"/>
	<path class="st0" d="M10.8,31h1c0.7,0,1.3-0.6,1.3-1.3c0-0.7-0.6-1.3-1.3-1.3H6.6l1.2-2.6h3.4c0.4,0,0.6-0.3,0.6-0.7l0,0
		c0-0.4-0.3-0.7-0.6-0.7H3.3l-0.6-5c-0.1-0.7-0.8-1.2-1.5-1.1C0.5,18.4,0,19.1,0,19.8l1.2,10.1C1.4,30.5,1.9,31,2.6,31h0.9l-2.6,5.7
		h1.9L5.4,31h3.5l2.3,5.7h1.9L10.8,31z M4.7,28.3H3.8l-0.3-2.6h2.4L4.7,28.3z"/>
</g>
</svg>
