<?xml version="1.0" encoding="utf-8"?>
<!-- Generator: Adobe Illustrator 24.2.0, SVG Export Plug-In . SVG Version: 6.00 Build 0)  -->
<svg version="1.1" id="Calque_1" xmlns="http://www.w3.org/2000/svg" xmlns:xlink="http://www.w3.org/1999/xlink" x="0px" y="0px"
	 viewBox="0 0 30.8 30.8" style="enable-background:new 0 0 30.8 30.8;" xml:space="preserve">
<style type="text/css">
	.st0{fill:#4B0082;}
</style>
<path class="st0" d="M30.6,25.8c-0.7,1.1-3.4,5.2-5,5c-5.5-0.5-12-5.2-16.2-9.4S0.4,10.7,0,5.2c-0.1-1.6,3.9-4.4,5-5s3.1,0,6.2,6.8
	c0.9,1.8,0.2,4-1.5,5.1c1.2,1.8,2.5,3.5,4,5c1.5,1.5,3.2,2.8,5,4c1.1-1.7,3.3-2.3,5.1-1.5C30.6,22.7,31.3,24.7,30.6,25.8z"/>
</svg>
