<?xml version="1.0" encoding="utf-8"?>
<!-- Generator: Adobe Illustrator 24.2.0, SVG Export Plug-In . SVG Version: 6.00 Build 0)  -->
<svg version="1.1" id="Calque_1" xmlns="http://www.w3.org/2000/svg" xmlns:xlink="http://www.w3.org/1999/xlink" x="0px" y="0px"
	 viewBox="0 0 36.6 36.6" style="enable-background:new 0 0 36.6 36.6;" xml:space="preserve">
<style type="text/css">
	.st0{fill:#4B0082;}
</style>
<path class="st0" d="M32,11H9V1.9C9,0.9,8.2,0,7.2,0H7.1c-1,0-1.8,0.9-1.8,1.9V11H4.6c-2.5,0-4.6,2-4.6,4.6V32
	c0,2.5,2.1,4.6,4.6,4.6H32c2.5,0,4.6-2.1,4.6-4.6V15.6C36.6,13.1,34.5,11,32,11z M9.1,18.3h3.7c1,0,1.8,0.9,1.8,1.9
	c0,1-0.9,1.8-1.9,1.8H9c-1,0-1.8-0.9-1.8-1.9C7.3,19.1,8.1,18.3,9.1,18.3z M12.8,29.3H9c-1,0-1.8-0.9-1.8-1.9s0.9-1.8,1.9-1.8h3.8
	c1,0,1.8,0.9,1.8,1.9S13.8,29.4,12.8,29.3z M23.8,29.3c-3,0-5.5-2.5-5.5-5.5s2.5-5.5,5.5-5.5s5.5,2.5,5.5,5.5
	C29.2,26.9,26.8,29.3,23.8,29.3L23.8,29.3z"/>
</svg>
