<?xml version="1.0" encoding="utf-8"?>
<!-- Generator: Adobe Illustrator 24.2.0, SVG Export Plug-In . SVG Version: 6.00 Build 0)  -->
<svg version="1.1" id="Calque_1" xmlns="http://www.w3.org/2000/svg" xmlns:xlink="http://www.w3.org/1999/xlink" x="0px" y="0px"
	 viewBox="0 0 21.2 32.4" style="enable-background:new 0 0 21.2 32.4;" xml:space="preserve">
<style type="text/css">
	.st0{fill:#4B0082;}
</style>
<path class="st0" d="M2.5,32.4V2.5h10v3.8C8.9,6.9,6.3,10,6.3,13.7v1.2h14.9v-1.2c0-3.6-2.6-6.8-6.2-7.4V2.5C15,1.1,13.9,0,12.5,0
	h-10C1.1,0,0,1.1,0,2.5v29.9H2.5z"/>
<path class="st0" d="M14.6,19.6c0.1-0.1,0.2-0.3,0.3-0.4c0.1-0.1,0.1-0.3,0.1-0.5c0-0.2,0-0.3-0.1-0.5c-0.1-0.2-0.2-0.3-0.3-0.4
	c-0.5-0.5-1.3-0.5-1.8,0c-0.1,0.1-0.2,0.3-0.3,0.4c-0.1,0.2-0.1,0.3-0.1,0.5c0,0.2,0,0.3,0.1,0.5c0.1,0.2,0.2,0.3,0.3,0.4
	c0.1,0.1,0.3,0.2,0.4,0.3c0.3,0.1,0.6,0.1,0.9,0C14.4,19.8,14.5,19.7,14.6,19.6z"/>
<path class="st0" d="M15,28.6c0-0.2,0-0.3-0.1-0.5c-0.1-0.1-0.2-0.3-0.3-0.4c-0.5-0.5-1.3-0.5-1.8,0c-0.1,0.1-0.2,0.3-0.3,0.4
	c-0.1,0.2-0.1,0.3-0.1,0.5c0,0.2,0,0.3,0.1,0.5c0.1,0.2,0.2,0.3,0.3,0.4c0.1,0.1,0.3,0.2,0.4,0.3c0.3,0.1,0.6,0.1,0.9,0
	c0.3-0.1,0.6-0.4,0.7-0.7C14.9,29,15,28.8,15,28.6z"/>
<path class="st0" d="M15,23.7c0-0.3-0.1-0.7-0.4-0.9c-0.1-0.1-0.1-0.1-0.2-0.2c-0.1,0-0.1-0.1-0.2-0.1c-0.1,0-0.2-0.1-0.2-0.1
	c-0.2,0-0.3,0-0.5,0c-0.1,0-0.1,0-0.2,0.1c-0.1,0-0.2,0.1-0.2,0.1l-0.2,0.2c-0.2,0.2-0.4,0.6-0.4,0.9c0,0.2,0,0.3,0.1,0.5
	c0.1,0.2,0.2,0.3,0.3,0.4c0.1,0.1,0.3,0.2,0.4,0.3c0.3,0.1,0.6,0.1,0.9,0c0.3-0.1,0.6-0.4,0.7-0.7C14.9,24,15,23.9,15,23.7z"/>
<path class="st0" d="M9.6,23.3c0.1-0.1,0.2-0.3,0.3-0.4c0.1-0.1,0.1-0.3,0.1-0.5c0-0.3-0.1-0.6-0.4-0.9c-0.4-0.4-0.9-0.5-1.4-0.3
	c-0.2,0.1-0.3,0.1-0.4,0.3c-0.1,0.1-0.2,0.3-0.3,0.4c-0.1,0.1-0.1,0.3-0.1,0.5c0,0.2,0,0.3,0.1,0.5c0.1,0.2,0.2,0.3,0.3,0.4
	C8.4,23.8,9.2,23.8,9.6,23.3z"/>
<path class="st0" d="M10,27.4c0-0.3-0.1-0.6-0.4-0.9c-0.1-0.1-0.3-0.2-0.4-0.3c-0.5-0.2-1-0.1-1.4,0.3c-0.2,0.2-0.4,0.5-0.4,0.9
	c0,0.2,0,0.3,0.1,0.5c0.1,0.2,0.2,0.3,0.3,0.4c0.5,0.5,1.3,0.5,1.8,0c0.1-0.1,0.2-0.3,0.3-0.4C10,27.7,10,27.6,10,27.4z"/>
<path class="st0" d="M19.9,22.9c0.1-0.1,0.1-0.3,0.1-0.5c0-0.2,0-0.3-0.1-0.5c-0.1-0.2-0.2-0.3-0.3-0.4c-0.5-0.5-1.3-0.5-1.8,0
	c-0.2,0.2-0.4,0.6-0.4,0.9c0,0.2,0,0.3,0.1,0.5c0.1,0.2,0.2,0.3,0.3,0.4c0.1,0.1,0.3,0.2,0.4,0.3c0.2,0.1,0.3,0.1,0.5,0.1
	c0.3,0,0.6-0.1,0.9-0.4C19.7,23.2,19.8,23,19.9,22.9z"/>
<path class="st0" d="M20,27.4c0-0.2,0-0.3-0.1-0.5c-0.3-0.6-1-0.9-1.6-0.7c0,0,0,0,0,0c-0.2,0.1-0.3,0.1-0.4,0.3
	c-0.1,0.1-0.2,0.3-0.3,0.4c-0.1,0.1-0.1,0.3-0.1,0.5c0,0.2,0,0.3,0.1,0.5c0.1,0.2,0.2,0.3,0.3,0.4c0.1,0.1,0.3,0.2,0.4,0.3
	c0.1,0.1,0.3,0.1,0.5,0.1c0.2,0,0.3,0,0.5-0.1c0.1-0.1,0.3-0.2,0.4-0.3c0.1-0.1,0.2-0.3,0.3-0.4C19.9,27.7,20,27.6,20,27.4z"/>
</svg>
