<?xml version="1.0" encoding="utf-8"?>
<!-- Generator: Adobe Illustrator 24.2.0, SVG Export Plug-In . SVG Version: 6.00 Build 0)  -->
<svg version="1.1" id="Calque_1" xmlns="http://www.w3.org/2000/svg" xmlns:xlink="http://www.w3.org/1999/xlink" x="0px" y="0px"
	 viewBox="0 0 48.7 32.7" style="enable-background:new 0 0 48.7 32.7;" xml:space="preserve">
<style type="text/css">
	.st0{fill:none;}
	.st1{fill:#4B0082;}
</style>
<path class="st0" d="M6.2,16.3h11.4c0.4,0,0.8,0.4,0.8,0.8v0.1c0,0.4-0.4,0.8-0.8,0.8H6.2c-0.4,0-0.8-0.4-0.8-0.8v-0.1
	C5.4,16.7,5.7,16.3,6.2,16.3z"/>
<path class="st0" d="M21.8,5.5h2.3c0.6,0,1,0.5,1,1v12.9c0,0.6-0.5,1-1,1h-2.3c-0.6,0-1-0.5-1-1V6.5C20.8,5.9,21.3,5.5,21.8,5.5z"/>
<path class="st0" d="M6.5,5.5h10.9c0.6,0,1,0.5,1,1v6.5c0,0.6-0.5,1-1,1H6.5c-0.6,0-1-0.5-1-1V6.5C5.5,5.9,5.9,5.5,6.5,5.5z"/>
<path class="st0" d="M27.1,5.5h2.3c0.6,0,1,0.5,1,1v12.9c0,0.6-0.5,1-1,1h-2.3c-0.6,0-1-0.5-1-1V6.5C26.1,5.9,26.5,5.5,27.1,5.5z"/>
<path class="st1" d="M44.1,11.6l-4.7-1.9V6.1c0-3.4-2.7-6.1-6.1-6.1H6.1C2.7,0,0,2.7,0,6.1l0,0v20c0,0.8,0.6,1.4,1.4,1.4h3.9
	c0.7,3.5,4.1,5.8,7.6,5.2c2.6-0.5,4.7-2.6,5.2-5.2h12.8c0.7,3.5,4.1,5.8,7.6,5.2c2.6-0.5,4.7-2.6,5.2-5.2h3.7c0.7,0,1.2-0.5,1.3-1.1
	v-8.9C48.6,14.7,46.8,12.3,44.1,11.6z M5.5,6.5c0-0.6,0.4-1,1-1h10.9c0.6,0,1,0.4,1,1v6.5c0,0.6-0.4,1-1,1H6.5c-0.6,0-1-0.4-1-1
	L5.5,6.5z M15.5,26.2c0,2.1-1.7,3.8-3.8,3.8l0,0c-2.1,0-3.8-1.7-3.8-3.8v-0.1c0-0.9,0.4-1.7,0.9-2.3l0.2-0.3
	c1.5-1.5,3.9-1.4,5.4,0.1C15.1,24.3,15.5,25.2,15.5,26.2L15.5,26.2z M18.5,17.2c0,0.4-0.4,0.8-0.8,0.8H6.2c-0.4,0-0.8-0.4-0.8-0.8v0
	c0-0.4,0.4-0.8,0.8-0.8h11.4C18.1,16.3,18.4,16.7,18.5,17.2L18.5,17.2z M25.2,19.4c0,0.6-0.4,1-1,1h-2.4c-0.6,0-1-0.4-1-1V6.5
	c0-0.6,0.4-1,1-1h2.3c0.6,0,1,0.4,1,1L25.2,19.4z M30.4,19.4c0,0.6-0.4,1-1,1h-2.4c-0.6,0-1-0.4-1-1V6.5c0-0.6,0.4-1,1-1h2.3
	c0.6,0,1,0.4,1,1L30.4,19.4z M41,26.2c0,2.1-1.7,3.8-3.8,3.8c0,0,0,0,0,0l0,0c-2.1,0-3.8-1.7-3.8-3.8v-0.1c0-2.1,1.7-3.8,3.8-3.8
	S41,24.1,41,26.2L41,26.2L41,26.2z"/>
</svg>
