<?xml version="1.0" encoding="utf-8"?>
<!-- Generator: Adobe Illustrator 24.2.0, SVG Export Plug-In . SVG Version: 6.00 Build 0)  -->
<svg version="1.1" id="Calque_1" xmlns="http://www.w3.org/2000/svg" xmlns:xlink="http://www.w3.org/1999/xlink" x="0px" y="0px"
	 viewBox="0 0 49.4 31.4" style="enable-background:new 0 0 49.4 31.4;" xml:space="preserve">
<style type="text/css">
	.st0{fill:#4B0082;}
</style>
<g>
	<path class="st0" d="M33.8,9.4V2.4h11V18h-11V9.4z M48.3,0c0.6,0,1,0.4,1.1,0.9c0,0.4-0.2,0.7-0.5,0.9V3c0,0.9-0.6,1.6-1.5,1.7V3.6
		c0.3-0.1,0.4-0.4,0.4-0.6V1.9c-0.3-0.2-0.5-0.5-0.5-0.9C47.3,0.5,47.7,0,48.3,0L48.3,0z M32.4,0c0.5-0.1,1,0.3,1.1,0.9
		c0.1,0.4-0.2,0.9-0.6,1V3c0,0.3,0.2,0.6,0.4,0.6v1.1c-0.9-0.1-1.6-0.8-1.5-1.7V1.9c-0.3-0.2-0.4-0.5-0.4-0.8
		C31.4,0.5,31.8,0,32.4,0C32.4,0,32.4,0,32.4,0L32.4,0z M45.5,3.1v10.9h1.4V3.1c0-0.4-0.2-0.7-0.6-0.8S45.6,2.6,45.5,3
		C45.5,3,45.5,3.1,45.5,3.1z"/>
	<path class="st0" d="M31.1,7.3C31.1,7.2,31,7,31,6.8c-0.4-1-0.9-1.8-1.6-2.6c0,0-0.1-0.1-0.1-0.1c-0.8-0.8-1.7-1.4-2.6-1.9
		c-0.8-0.4-1.7-0.8-2.6-1.1c-0.7-0.2-1.4-0.4-2.1-0.5c-0.7-0.1-1.5-0.3-2.4-0.4c-0.6-0.1-1.2-0.1-1.8-0.1S16.4,0,15.7,0h-0.1
		c-2.2,0-4.3,0.2-6.4,0.6C8,0.8,6.8,1.2,5.8,1.6C4.8,2,3.9,2.5,3.1,3.2C2.7,3.5,2.3,3.8,2,4.2C0.7,5.5,0,7.3,0,9.1V31l0,0
		c0,0.2,0.1,0.4,0.3,0.4c0,0,0,0,0,0h3.2c0.2,0,0.4-0.1,0.4-0.3c0,0,0,0,0,0v-4.8h23.4V31c0,0.2,0.1,0.4,0.3,0.4c0,0,0,0,0.1,0H31
		c0.1,0,0.2,0,0.3-0.1c0.1-0.1,0.1-0.2,0.1-0.3V9.1c0-0.2,0-0.3,0-0.5C31.3,8.2,31.3,7.8,31.1,7.3z M17.6,11.1
		c0-0.3,0.2-0.7,0.5-0.8c0.1-0.1,0.3-0.1,0.5-0.1h7.9c0.1,0,0.3,0,0.4,0.1c0.1,0,0.2,0.1,0.3,0.2c0.2,0.2,0.3,0.4,0.3,0.7v4.1l0,0
		C27,15,26.5,15,26,14.9s-0.7-0.2-1.2-0.2s-1-0.1-1.5-0.2l-1.1-0.1c-0.5-0.1-0.9-0.1-1.4-0.1l-1.1-0.1c-0.8-0.1-1.5-0.1-2.2-0.1
		h-0.1V11.1z M4,11.1c0-0.3,0.1-0.5,0.3-0.7c0.1-0.1,0.2-0.2,0.3-0.2c0.1,0,0.2-0.1,0.4-0.1h7.9c0.3,0,0.5,0.1,0.7,0.3
		c0.2,0.2,0.3,0.4,0.3,0.7v2.8c-1,0-2,0.1-3,0.1c-2.3,0.2-4.6,0.5-6.9,1L4,11.1z M30.6,21H0.8v-4.3l0.5-0.2c0.4-0.1,1-0.3,1.8-0.5
		c0.8-0.2,1.7-0.4,2.8-0.6S8,15.1,9.2,15c0.5-0.1,1.1-0.1,1.7-0.2h0.5c0.5,0,1.1-0.1,1.7-0.1h0.3c0.6,0,1.2,0,1.8,0h0.9
		c0.7,0,1.4,0,2.1,0.1h0.3c0.8,0,1.6,0.1,2.5,0.2l0.6,0.1c0.8,0.1,1.6,0.2,2.5,0.3h0.2c0.9,0.1,1.8,0.3,2.8,0.5l0.7,0.1l0.5,0.1
		c0.8,0.2,1.6,0.4,2.4,0.6L30.6,21z"/>
</g>
</svg>
