<?xml version="1.0" encoding="utf-8"?>
<!-- Generator: Adobe Illustrator 24.2.0, SVG Export Plug-In . SVG Version: 6.00 Build 0)  -->
<svg version="1.1" id="Calque_1" xmlns="http://www.w3.org/2000/svg" xmlns:xlink="http://www.w3.org/1999/xlink" x="0px" y="0px"
	 viewBox="0 0 38.7 36.6" style="enable-background:new 0 0 38.7 36.6;" xml:space="preserve">
<style type="text/css">
	.st0{fill:#4B0082;}
</style>
<path class="st0" d="M37.9,10.8c-0.5-0.5-1.3-0.8-2-0.8H18.6l8.4-8.4c0.3-0.4,0.3-0.9,0-1.3c-0.4-0.4-0.9-0.4-1.3,0l-8.4,8.4
	l-4.5-4.5c-0.3-0.4-0.9-0.4-1.3-0.1c-0.4,0.3-0.4,0.9-0.1,1.3c0,0,0.1,0.1,0.1,0.1L16,10H2.8C1.3,10,0,11.2,0,12.8v21.1
	c0,1.5,1.3,2.8,2.8,2.8h33.1c0.7,0,1.5-0.3,2-0.8c0.5-0.5,0.8-1.3,0.8-2V12.8C38.7,12,38.4,11.3,37.9,10.8z M26.9,29.2
	c0,0.7-0.3,1.4-0.8,2c-0.5,0.5-1.2,0.8-2,0.8H7.9c-1.5,0-2.8-1.2-2.8-2.7c0,0,0,0,0,0V17.3c0-0.7,0.3-1.4,0.8-1.9
	c0.5-0.5,1.2-0.8,1.9-0.8h16.2c1.5,0,2.8,1.2,2.8,2.7L26.9,29.2z M34.7,30.4c-1.1,1.1-3,1.1-4.1,0c-0.5-0.5-0.8-1.2-0.8-2
	c0-0.8,0.3-1.5,0.8-2c1.1-1.1,3-1.1,4.1,0c0.5,0.5,0.8,1.2,0.8,2C35.5,29.1,35.2,29.8,34.7,30.4L34.7,30.4z M34.7,20.1
	c-1.1,1.1-3,1.1-4.1,0c-1.1-1.1-1.1-3,0-4.1c1.1-1.1,3-1.1,4.1,0c0.5,0.5,0.8,1.3,0.8,2C35.5,18.8,35.3,19.6,34.7,20.1L34.7,20.1z"
	/>
</svg>
