<?xml version="1.0" encoding="utf-8"?>
<!-- Generator: Adobe Illustrator 24.2.0, SVG Export Plug-In . SVG Version: 6.00 Build 0)  -->
<svg version="1.1" id="Calque_1" xmlns="http://www.w3.org/2000/svg" xmlns:xlink="http://www.w3.org/1999/xlink" x="0px" y="0px"
	 viewBox="0 0 27.5 36.6" style="enable-background:new 0 0 27.5 36.6;" xml:space="preserve">
<style type="text/css">
	.st0{fill:#4B0082;}
</style>
<g>
	<path class="st0" d="M13.7,16.7c-3.1,0-5.8,2-6.8,4.9c1.8,0,3.7-0.3,5.4-1c1.8-0.6,3.7-0.9,5.6-1c0.5,0,1.1,0,1.6,0
		C18.3,17.8,16.1,16.7,13.7,16.7z"/>
	<path class="st0" d="M24.9,0H2.6C1.2,0,0,1.1,0,2.6v33.2l0,0c0,0.5,0.4,0.9,1,0.9c0,0,0,0,0,0h25.5c0.5,0,0.9-0.4,0.9-0.9
		c0,0,0,0,0,0V2.6C27.4,1.1,26.3,0,24.9,0z M2.7,6.3V3.7c0-0.5,0.4-0.9,0.9-0.9c0,0,0,0,0.1,0h12c0.5,0,0.9,0.4,1,0.9l0,0v2.5
		c0,0.5-0.4,0.9-1,0.9h-12C3.2,7.2,2.8,6.8,2.7,6.3z M13.7,32.3c-4.9,0-8.9-3.9-8.9-8.7c0-6.2,5.3-8.6,8.9-8.7
		c4.8-0.2,8.8,3.6,9,8.4c0.2,4.8-3.6,8.8-8.4,9C14.1,32.3,13.9,32.3,13.7,32.3z M20.8,7.3c-1.2,0-2.3-1-2.3-2.2
		c0.1-1.3,1.2-2.2,2.4-2.1c1.1,0.1,2,1,2.1,2.1C23.1,6.2,22.1,7.2,20.8,7.3L20.8,7.3z"/>
</g>
</svg>
