<?xml version="1.0" encoding="utf-8"?>
<!-- Generator: Adobe Illustrator 24.2.0, SVG Export Plug-In . SVG Version: 6.00 Build 0)  -->
<svg version="1.1" id="Calque_1" xmlns="http://www.w3.org/2000/svg" xmlns:xlink="http://www.w3.org/1999/xlink" x="0px" y="0px"
	 viewBox="0 0 47.7 36.6" style="enable-background:new 0 0 47.7 36.6;" xml:space="preserve">
<style type="text/css">
	.st0{fill:#4B0082;}
</style>
<g>
	<path class="st0" d="M46.8,9.5C34.1-3.2,13.5-3.2,0.7,9.5c-1,1.1-1,2.7,0.1,3.8c1,1,2.7,1.1,3.7,0.1c0,0,0,0,0.1-0.1
		c5.1-5.1,12-8,19.3-8c7.2,0,14.2,2.8,19.3,8c0.5,0.5,1.2,0.8,1.9,0.8c0.7,0,1.4-0.3,1.9-0.8C47.9,12.2,47.9,10.5,46.8,9.5z"/>
	<path class="st0" d="M23.8,9.5c-6.1,0-12,2.5-16.3,6.8c-1,1.1-1,2.7,0,3.8c0.5,0.5,1.2,0.8,1.9,0.8c0.7,0,1.4-0.3,1.9-0.8
		c6.9-6.9,18.1-6.9,25,0c1,1.1,2.7,1.2,3.8,0.2c1.1-1,1.2-2.7,0.2-3.8c-0.1-0.1-0.1-0.1-0.2-0.2C35.8,11.9,29.9,9.5,23.8,9.5z"/>
	<path class="st0" d="M23.8,19c-3.6,0-7.1,1.4-9.6,4c-1,1-1,2.7,0,3.8s2.7,1,3.8,0l0,0c3.3-3.1,8.4-3.1,11.7,0
		c0.5,0.5,1.2,0.8,1.9,0.8c1.5,0,2.7-1.2,2.7-2.7c0-0.7-0.3-1.4-0.8-1.9C30.9,20.4,27.4,19,23.8,19z"/>
	<circle class="st0" cx="23.8" cy="32.6" r="4.1"/>
</g>
</svg>
