<?xml version="1.0" encoding="utf-8"?>
<!-- Generator: Adobe Illustrator 24.2.0, SVG Export Plug-In . SVG Version: 6.00 Build 0)  -->
<svg version="1.1" id="Calque_1" xmlns="http://www.w3.org/2000/svg" xmlns:xlink="http://www.w3.org/1999/xlink" x="0px" y="0px"
	 viewBox="0 0 41.1 36.7" style="enable-background:new 0 0 41.1 36.7;" xml:space="preserve">
<style type="text/css">
	.st0{fill:none;}
	.st1{fill:#4B0082;}
</style>
<g>
	<path class="st0" d="M28.9,24h-6.1v1.1c0,0.8-0.7,1.5-1.5,1.5c0,0,0,0,0,0h-1.5c-0.8,0-1.5-0.6-1.5-1.5c0,0,0,0,0,0V24h-6.1
		c-1.4,0-2.6-0.6-3.4-1.8v8.4c0,0.4,0.3,0.7,0.7,0.7h22.1c0.4,0,0.7-0.3,0.7-0.7v0v-8.4C31.5,23.3,30.3,24,28.9,24z"/>
	<path class="st0" d="M19.8,21.4h1.5c0.4,0,0.7,0.3,0.7,0.7v3c0,0.4-0.3,0.7-0.7,0.7h-1.5c-0.4,0-0.7-0.3-0.7-0.7v-3
		C19.1,21.7,19.4,21.4,19.8,21.4z"/>
	<path class="st0" d="M31.6,15.9h-7.4v-2.9c0-0.4-0.3-0.7-0.7-0.7h-5.9c-0.4,0-0.7,0.3-0.7,0.7v3H9.5c-0.4,0-0.7,0.3-0.7,0.7v3.3
		c0,1.9,1.6,3.4,3.4,3.3c0,0,0,0,0,0h6.1v-1.1c0-0.8,0.6-1.5,1.4-1.5c0,0,0,0,0,0h1.5c0.8,0,1.5,0.7,1.5,1.5v1.1h6.1
		c1.9,0,3.4-1.5,3.4-3.3v-3.3C32.4,16.2,32,15.9,31.6,15.9C31.6,15.9,31.6,15.9,31.6,15.9z M22.8,15.9h-4.4v-2.2h4.4L22.8,15.9z"/>
	<path class="st1" d="M40.2,12.9L21.6,0.3c-0.7-0.4-1.5-0.4-2.2,0L0.9,12.9c-0.5,0.4-0.9,1-0.9,1.6v20.1c0,1.1,0.9,2,1.9,2h37.2
		c1.1,0,1.9-0.9,1.9-1.9c0,0,0,0,0-0.1V14.5C41.1,13.9,40.8,13.3,40.2,12.9z M32.3,30.6c0,0.4-0.3,0.7-0.7,0.7h0H9.5
		c-0.4,0-0.7-0.3-0.7-0.7v-8.4c0.8,1.1,2.1,1.8,3.4,1.8h6.1v1.1c0,0.8,0.7,1.5,1.5,1.5c0,0,0,0,0,0h1.5c0.8,0,1.5-0.6,1.5-1.5
		c0,0,0,0,0,0V24h6.1c1.4,0,2.6-0.7,3.4-1.8L32.3,30.6z M19.1,25.1v-2.9c0-0.4,0.3-0.7,0.7-0.7h1.5c0.4,0,0.7,0.3,0.7,0.7v3
		c0,0.4-0.3,0.7-0.7,0.7h-1.5C19.4,25.8,19.1,25.5,19.1,25.1C19.1,25.1,19.1,25.1,19.1,25.1z M32.3,19.9c0,1.9-1.6,3.3-3.4,3.3h-6.2
		v-1.1c0-0.8-0.6-1.5-1.4-1.5c0,0,0,0,0,0h-1.5c-0.8,0-1.5,0.7-1.5,1.5v1.1h-6.1c-1.9,0-3.4-1.5-3.4-3.3c0,0,0,0,0,0v-3.3
		c0-0.4,0.3-0.7,0.7-0.7h7.4v-3c0-0.4,0.3-0.7,0.7-0.7h5.9c0.4,0,0.7,0.3,0.7,0.7v3h7.4c0.4,0,0.7,0.3,0.7,0.7c0,0,0,0,0,0
		L32.3,19.9z"/>
	<rect x="18.3" y="13.7" class="st1" width="4.4" height="2.2"/>
</g>
</svg>
